<?xml version="1.0" encoding="UTF-8"?><svg id="Lavender_Crowd" xmlns="http://www.w3.org/2000/svg" viewBox="0 0 250 430"><defs><style>.cls-1,.cls-2,.cls-3{stroke-width:0px;}.cls-2{fill:#9d5fdb;}.cls-3{fill:#fff;}</style></defs><g id="CIB24_Lavender_Doggo_2"><path class="cls-3" d="m140.49,381.52c-.76,0-1.44-.03-2.09-.09-.66-.06-1.11-.17-1.5-.36-.36-.17-.72-.34-1.08-.51-.64-.3-1.29-.61-1.92-.93-2.81-1.43-3.69-2.16-5.91-4.84-.02-.09-.07-.61-.02-.78.2-.31.43-.7.7-1.07.55-.79.93-1.6,1.17-2.45.1-.38.27-.77.45-1.19.14-.32.28-.64.39-.97.08-.23.22-.48.36-.74.25-.46.53-.97.64-1.61.09-.48.24-.98.5-1.62.22-.53.43-1.11.44-1.74.01-.76.34-1.49.68-2.25.13-.28.25-.56.37-.85.24-.02.45-.02.65-.02h2.12s-.92-1.61-.92-1.61l-.25-.4-.51-.15c-.16-.02-.33-.04-.5-.05,0,0-.52-.05-.64-.06-.3-.03-.56-.05-.76-.14-.37-.16-.76-.21-1.02-.23-.3-.02-.61-.03-.92-.04-.55-.02-1.08-.03-1.54-.15-.75-.18-1.54-.31-2.41-.4.3-.93.33-1.85.33-2.73,0-.19.07-.41.14-.67.07-.25.15-.52.19-.83.04-.28.06-.56.09-.85l.53.04.3-.75.87-2.76-1.26-.11v-.18c0-1-.01-1.99,0-2.99v-.21c0-.17,0-.46.04-.54.43-.86.44-1.7.45-2.45v-.32c.01-.38.03-.75.04-1.13.01-.42.03-.85.04-1.27,0-.17.04-.37.13-.65.12-.37.19-.79.21-1.2.04-1.05.07-2.09.08-3.14v-.18c.03-1.62.05-3.25.06-4.87,0-.62-.02-1.24-.05-1.87l-.03-.97-.06-.16c-.37-.97-.37-2.03-.37-3.16,0-.58,0-1.17-.05-1.78l-.02-.25c-.01-.14-.03-.27-.03-.41v-.25c-.01-.52-.03-1.16-.35-1.81h0s0-.13,0-.21c-.02-.76-.03-1.45-.04-2.15-.01-.9-.03-1.81-.05-2.71,0-.21,0-.43,0-.65.02-.77.04-1.64-.35-2.52,0-.04,0-.08,0-.12,0-.09,0-.18,0-.26l-.03-1.09c-.01-.68-.03-1.37-.06-2.05v-.41c-.03-.69-.06-1.48-.39-2.28-.03-.07-.04-.3-.04-.46,0-.15,0-.29-.02-.43-.02-.23-.03-.46-.04-.7-.04-.75-.08-1.6-.45-2.45,0,.02.01.02.02.02,0,0,.01-.03.01-.06.03-1.03-.22-1.95-.47-2.84-.1-.38-.21-.75-.29-1.13-.03-.16-.08-.32-.13-.47-.04-.12-.08-.23-.09-.35-.06-.55-.21-1.1-.47-1.68l-.08-.19c-.24-.52-.47-1.02-.51-1.52-.04-.42-.21-.76-.34-1.04l-.09-.18-.16-.37c-.18-.41-.36-.83-.62-1.24-.08-.14-.13-.29-.17-.49l-.26-1.56-1.3.9c-.27.18-.45.32-.63.45l-.49.37.04.65s0,.09-.04.24l-.3,1.09c-.21.78-.43,1.55-.67,2.33-.18.59-.35,1.19-.52,1.79-.16.55-.31,1.09-.48,1.64-.12.4-.22.8-.32,1.21-.15.6-.29,1.17-.5,1.69-.21.53-.32,1.05-.43,1.56-.09.43-.18.84-.33,1.21-.28.72-.46,1.47-.63,2.18-.07.3-.14.61-.22.91-.02.02-.1.21-.11.46-.01.52-.14,1.05-.28,1.62-.17.68-.34,1.39-.34,2.18,0,.2-.08.44-.17.71-.08.23-.15.46-.2.69-.06.26-.09.53-.11.8-.03.28-.06.55-.12.75-.22.69-.34,1.32-.34,1.94,0,.25-.06.51-.18.81-.12.31-.2.65-.22.98-.05.66-.09,1.32-.13,1.99l-.03.47c-.28.65-.29,1.28-.3,1.85,0,.21,0,.43-.03.64-.02.19-.04.38-.05.58-.03.46-.06.87-.22,1.18-.1.19-.15.39-.17.62-.02.26-.03.52-.04.79-.02.51-.03.99-.15,1.4-.21.75-.35,1.56-.43,2.53l-.02.22c-.04.45-.07.83-.19,1.2-.19.56-.2,1.14-.22,1.65v.28c-.04.77-.06,1.54-.08,2.31l-.03,1.07c0,.09,0,.18,0,.27,0,.04,0,.09,0,.13-.36.87-.36,1.74-.35,2.5,0,.21,0,.43,0,.64v.2c0,.13-.01.32-.03.39-.39.91-.41,1.82-.44,2.62,0,.18,0,.36-.02.55-.04.73-.05,1.46-.07,2.19,0,.43-.06.77-.18,1.07-.24.65-.25,1.29-.26,1.86,0,.15,0,.3-.01.44-.26-.11-.55-.19-.9-.26l-.6-.11-.37.48c-.82,1.06-1.3,2.35-1.37,3.65l-.08,1.6,1.34-.57c.07.91.13,1.77-.18,2.54-.17.43-.16.87-.13,1.16.03.42-.11.72-.49,1.04-1.43,1.21-2.91,2.46-4.67,3.18-.53.22-1.01.4-1.5.42-1.07.05-2.01.45-2.81.82l-2.48,1.14,2.63.73c.31.09.62.17.93.24.31.07.63.11.94.15.18.02.35.04.53.07.05.01.12.07.28.38.48.95.88,1.81.93,2.75.03.74.24,1.47.63,2.24.15.3.24.63.26.99.06,1.04.4,1.94.72,2.81l.09.24c.24.65.16,1.21-.26,1.71-.25.3-.5.58-.78.74-.09.05-.14.06-.14.06,0,0,0,0,0,0-.6-.21-1.29-.43-2.06-.47l-1.29-.06c-1.17-.06-2.33-.11-3.5-.18-.41-.02-.82-.03-1.23-.03-1.14,0-2.27.08-3.22.16-.76.06-1.46.24-2.16.54-.33.14-.66.26-.99.39-1.06.4-2.15.81-3.12,1.67-.08.07-.28.15-.45.23-.23.1-.46.2-.67.32-.78.48-1.49.71-2.22.74h-.1c-.37.02-.87.04-1.32.31-.88.54-1.88.59-3.04.64-.23.01-1.12.06-1.34.07-1.1.05-2.24.1-3.38.59,0,0-.31,0-.31,0-.2-.04-.37-.09-.53-.14-.46-.15-.98-.31-1.56-.35-.7-.04-1.5-.09-2.23-.25-.34-.08-.69-.21-1.06-.35-.37-.14-.76-.28-1.18-.39-1.74-.44-3.2-1.27-4.48-2.53-.44-.44-.87-.9-1.29-1.36-.22-.24-.44-.48-.66-.71-2.27-2.4-2.41-2.6-3.85-5.98v-.02s.25-.07.25-.07c.64-.17,1.3-.34,1.96-.64.33-.15.77-.21,1.07-.24,1.15-.11,2.16-.39,3.1-.84.16-.08.39-.13.64-.18.19-.04.39-.08.58-.14.45-.13.89-.28,1.33-.44.46-.16.91-.32,1.38-.45.54-.15,1.02-.38,1.48-.61.27-.13.53-.26.8-.37.28-.11.55-.23.82-.35.57-.25,1.11-.49,1.65-.57.46-.07.86-.27,1.22-.46,1.04-.57,2.15-1.06,3.22-1.54l1.04-.47c.35-.16.7-.34,1.04-.52.51-.26.98-.51,1.47-.69.32-.11.65-.21.98-.3.56-.16,1.15-.32,1.72-.58l1.97-.23-1.4-1.46s-.23-.21-.26-.25c-.31-.33-.64-.66-.97-.98l-.4-.4c-.08-.08-.08-.12-.08-.14,0,0,.01-2.54.02-3.43l.14.06.58-.53c.5-.46,1.11-1.02,1.22-1.94.05-.47-.05-.88-.12-1.18l-.25-.99-.88-.03c-.08,0-.15-.02-.23-.04-.03-.43-.03-.81.05-1.15l.81-.69c.13-.11.22-.18.3-.26.56-.56.79-1.24.99-1.85l.32-.95-.6-.43c.04-.4.05-.79.06-1.19.02-.73.04-1.43.27-2.04.15-.4.14-.79.13-1.11v-.19s.02-3.81.02-3.81c.03-3.77.05-7.54.04-11.31,0-1.91,0-3.82.02-5.74,0-.25,0-.5,0-.75-.02-.73-.04-1.36.22-1.9l.09-.18s.03-.49.04-.63c.03-.37.05-.74.03-1.11-.04-.93,0-1.85.04-2.83.02-.39.04-.78.05-1.17.01-.4.12-.81.23-1.25,0-.04.02-.07.03-.11.2.04.4.06.58.09l1.18.15.03-1.18c-.03-.61-.05-1.21-.06-1.82v-.91s-1.51-.12-1.6-.13c-.05-.88.02-1.78.09-2.72l.04-.52c.38-.82.36-1.64.35-2.36,0-.16,0-.31,0-.47,0-.43,0-.86,0-1.29,0-.52,0-1.05,0-1.57.01-.73.05-1.38.29-1.98.23-.56.25-1.14.26-1.65v-.12c.03-.95.04-1.91.06-2.86.01-.8.02-1.6.04-2.4,0-.06.03-.16.05-.26l.42-.23.02-.57c.02-.72.05-1.45.1-2.17l.03-.5-.21-.18c0-.39,0-.79,0-1.18,0-.63,0-1.26-.01-1.89,0-.24.08-.52.18-.85.13-.43.28-.92.26-1.49-.01-.48.02-.96.06-1.47,0,0,.87-.04.87-.04l.22-.64c.18-.51.37-.98.58-1.4l.7-1.43h-1.93s.05-3.15.05-3.15c0-.58.01-1.07.2-1.5.19-.43.2-.87.22-1.23l.05-1.3-1.17.19c-.05-.03-.11-.06-.16-.09-.13-.1-.27-.2-.4-.3l-.34-.26c-1.83-1.35-3.34-2.79-4.63-4.4.03.04.07.09.09.15,0,0-.1-.16-.1-.16,0,0-.81-1.31-.81-1.31-.54.17-.93.5-1.27.78l-.21.17c-1.43,1.12-2.7,1.95-3.96,2.61-.19-.36-.38-.71-.56-1.07-.46-.87-.93-1.78-1.47-2.65l-.38-.61c-.61-.99-1.24-2-1.78-3.03-.03-.06-.07-.13-.1-.2.59-.54,1.19-1.06,1.8-1.58.12-.1.28-.2.62-.2.07,0,.14,0,.21,0l.12.03,2.01.38-.93-1.82c-.23-.45-.44-.9-.64-1.36l-.76-1.84-.42.71c-.32-.58-.61-1.15-.74-1.74l-.02-.08-.03-.08c-.93-2.32-1.84-4.87-2.89-8.02-.47-1.43-.96-2.96-1.37-4.5-.07-.25-.15-.5-.22-.75-.15-.48-.29-.92-.32-1.36v-.23s-.13-.2-.13-.2c-.15-.27-.17-.64-.2-1.07v-.28c-.02-.23-.02-.55-.16-.88-.3-.71-.3-1.49-.29-2.32,0-.25,0-.5,0-.75v-.52c0-1.05,0-1.96.3-2.8.15-.44.17-.87.18-1.25v-.21c.02-.17.02-.34.02-.5,0-.52.02-.86.18-1.13.19-.32.2-.63.21-.82.03-.36.04-.65.04-.94,0-.55.02-1.02.19-1.43.22-.51.27-1.02.32-1.47.04-.39.08-.74.21-.98l.12-.21v-.24c.04-.89.32-1.77.62-2.69.16-.49.32-.99.44-1.49.05-.19.12-.38.19-.56.16-.42.34-.89.37-1.47,0-.12.08-.31.16-.5.13-.34.3-.75.3-1.24.06-.19.13-.38.2-.56.21-.6.44-1.21.57-1.87.19-.94.45-1.76.79-2.51.13-.29.3-.67.29-1.12-.01-.43.12-.89.26-1.38.09-.32.18-.65.25-.98.05-.25.09-.49.16-.6.39-.68.57-1.41.72-2.05.11-.44.21-.85.37-1.22l.07-.15v-.17c.05-.44.16-.89.28-1.37.15-.61.31-1.24.34-1.94.01-.26.11-.58.21-.9.12-.37.24-.78.29-1.23.34-.92.57-1.86.79-2.77.24-.98.46-1.91.82-2.79.16-.4.25-.84.26-1.28,0-.5.18-.98.38-1.53.83-2.34,1.79-4.08,3.03-5.47.58-.65,1.09-1.35,1.53-2.07.45-.75,1.02-1.45,1.57-2.1l.14-.17.06-.21c.11-.4.23-.71.36-.96.59-1.11,1.77-1.88,2.84-2.47l.21-.12.17-.26.05-.1c.88-1.32,2.05-2.51,3.29-3.76l.49-.5c1.22-1.24,2.59-2.39,3.91-3.5l1.04-.88c.93-.79,1.95-1.48,3.02-2.21.33-.22.65-.45.98-.67.54-.37,1.09-.72,1.65-1.06l.39-.24h.19l.64-.52,11.13-8.66c.88-.69,1.83-1.4,2.83-1.99l.78-.46-.39-.82c-.22-.48-.5-1.04-.82-1.57l-.15-.25-.26-.13c-.23-.11-.46-.21-.71-.29-.23-.07-.46-.19-.71-.39l-.18-.14-.23-.05c-.12-.03-.21-.05-.27-.08-.49-.25-.86-.55-1.12-.91l-.3-.41s-.5,0-.5,0c-.43,0-.83.13-1.16.37-.65.47-1.16,1.1-1.51,1.88-.36.81-.96,1.45-1.5,1.97-.31.3-.64.45-1.05.47h-.16c-.12,0-.25,0-.37,0-.15,0-.29-.01-.44-.01-.18,0-.36,0-.54.03-.27.03-.93.15-1.43.61-1.04.96-2.07,1.94-3.09,2.92l-1.09,1.04c-.23-.11-.41-.25-.58-.39-.2-.15-.4-.31-.6-.45-.28-.2-.63-.42-1.13-.42-.35,0-.68.1-1.13.28-.1.04-.18.06-.26.06-.1,0-.26-.02-.54-.24-.2-.15-.4-.33-.59-.53-.31-.33-.61-.66-.89-1.02-.6-.75-1.39-.97-2.02-1.15l-.15-.04c-.07-.02-.17-.07-.36-.3l-.22-.27-.34-.07c-.26-.05-.47-.2-.67-.45-.09-.11-.12-.18-.12-.2-.15-.78-.09-1.35.2-1.87.36-.64.69-1.3,1.02-1.95l.32-.63s.04-.04.08-.07c.22-.23.8-.84.47-1.72-.18-.49-.57-.82-.84-1.06-.25-.22-.37-.5-.52-.87-.09-.21-.08-.25-.07-.27.28-.96.62-1.97,1.15-2.87.3-.51.61-.79,1.01-.9.35-.1.7-.25,1.09-.48,1.03-.59,1.28-1.37,1.31-1.93.05-.82.44-1.56.95-2.43.15-.26.32-.5.49-.75.14-.2.28-.41.42-.62.35-.56.7-.9,1.13-1.1.18-.09.35-.21.52-.33.24-.17.84-.62.96-1.46.02-.15.06-.31.1-.46.03-.14.07-.27.09-.41.19-.94.65-1.81,1.42-2.65,1.05-1.15,2.03-1.91,3.06-2.38.95-.43,1.75-.97,2.45-1.63.73-.7,1.67-1.22,2.93-1.66.33-.11.65-.26.97-.4.2-.09.4-.18.6-.26.24-.09.48-.17.72-.26.29-.1.57-.19.85-.31.58-.23,1.24-.55,1.78-1.15.44-.49,1.07-.75,1.8-1.06.18-.07.36-.15.53-.23.07-.03.27-.05.39-.06.21-.02.42-.03.62-.04.18,0,.37-.02.55-.03,1.49-.11,2.64-.45,3.63-1.07.23-.15.49-.27.74-.39.57-.27,1.12-.4,1.65-.4.06,0,.12,0,.18,0,.35.02.55.06.68.14l.26.17s.56-.02.68-.02c.48,0,.95.03,1.41.09l.23.03.22-.08c.1-.03.23-.08.37-.17.81-.49,1.59-.73,2.37-.73.08,0,.36.01.36.01.36,0,.74-.08,1.06-.24.38-.18.8-.27,1.33-.27.31,0,.62.03.93.06.31.04.62.06.93.06.79,0,1.55-.12,2.32-.37.74-.24,1.57-.24,2.45-.25h.94c.4,0,.8,0,1.2.01.35,0,.7.02,1.05.02.23,0,.46.03.68.08l.09.02h.35c.6.39,1.3.58,1.91.75.45.12.88.24,1.24.42l.2.11c.4.22.9.49,1.53.52.66.04,1.3.36,1.97.7.26.13.52.26.79.38.31.14.62.4.92.66.33.29.64.59.96.89.26.25.52.49.78.73.5.45,1.06.96,1.8,1.29.49.22.91.59,1.26.92,1.56,1.48,1.76,1.76,2.81,3.85.32,1.16,1.07,2.01,1.75,2.72.15.15.29.31.44.47.3.33.6.66.93.96.65.61,1.05,1.44,1.47,2.31.08.16.15.32.23.48.18,1.29.72,2.4,1.23,3.32.63,1.13.91,2.4.9,4.12,0,.53-.03,1.06-.06,1.59l-.04.78v.36c.08,1.16.14,2.25-.04,3.33-.08.47-.26.85-.55,1.14-.07.07-.13.14-.19.21-.06.07-.16.18-.2.21-1.13.41-1.94,1.24-2.6,1.98-.11.12-.22.23-.33.35-.11.11-.22.22-.32.33-.39.42-.72.47-.94.47-.83,0-1.58.19-2.3.57-.48.26-1.03.38-1.67.38-.18,0-.37-.01-.55-.03-.3-.03-.53-.1-.71-.22l-.25-.17s-.45,0-.45,0c-.51,0-.9-.12-1.22-.37-.54-.41-1.09-.76-1.66-1.12l-.41-.26-.46.17c-.24.09-.45.2-.63.35-.56.46-1.08.95-1.58,1.42l-.59.55c-.4.37-.86.54-1.43.54h-.14c-1.32,0-2.26.53-2.8,1.59-.02.03-.16.18-.16.18-.01.02-.08.05-.29.1-.18.04-.38.06-.66.06l-1.83-.03.81,1.5c.1.18.18.36.24.55l.08.22.17.16c.11.11.21.23.3.35.36.51.71,1.02,1.04,1.54.04.06.08.12.11.18,0,.25.03.49.1.74l.09.34,1.3.97c2.19,1.65,4.11,3.16,5.51,5.02l1.49,1.98.17-1.36c.04.06.08.12.12.18.41.62.84,1.27,1.44,1.85.4.39.76.83,1.15,1.3.33.4.66.81,1.02,1.19.31.33.62.66.92.98.89.95,1.8,1.94,2.78,2.86.27.25.51.56.76.9.17.23.35.46.54.68.44.51.85,1.04,1.27,1.58.76.98,1.55,2,2.52,2.89.12.12.25.27.4.49l-.62,1.79.31.42c.66.9,1.51,1.63,2.33,2.33l1.7,1.46h0c.15.23.29.48.42.73l.05.09c.22.34.42.69.59,1.04l.02.05.03.05c.22.36.46.71.69,1.06.17.25.34.5.5.76.8,1.25,1.69,2.75,2.17,4.45.06.25.11.46.24.68.49.84.86,1.74,1.25,2.7.37.9.75,1.82,1.24,2.71.75,1.35,1.26,2.83,1.72,4.24.9,2.77,1.72,4.86,2.64,6.79.65,1.36,1.18,2.92,1.61,4.76.39,1.65.94,3.24,1.65,4.7.44.92.78,1.87,1.13,2.88l.29.81c.1.27.15.58.21.91.09.48.18,1.02.43,1.55.05.55.21,1.05.34,1.5.14.46.27.89.28,1.29v.25s.13.22.13.22c.17.3.21.69.27,1.15.06.54.13,1.14.42,1.75,0,.04,0,.29,0,.37.02.29.02.57.03.86.03,1.04.06,2.11.46,3.21.03.08.02.32.01.49,0,.12,0,.25,0,.37,0,.57,0,1.15,0,1.72v1.67s.04,0,.04,0c0,.54,0,1.07-.01,1.61-.01.48-.02.93-.18,1.3-.15.36-.23.78-.25,1.28-.04,1.01-.31,1.99-.6,3.04-.17.62-.35,1.27-.48,1.93-.06.29-.23.62-.41.97l-.16.31c-.24.48-.5.94-.76,1.41l-.22.39-.59.38.27.75c.21.57.4,1.12.5,1.66l.07.37.4.31c.18.14.37.28.57.4h0s-.02.13-.05.2c-.09.19-.2.37-.31.55l-.95,1.58c-1,1.66-2,3.31-3.01,4.96-.41.66-.88,1.32-1.34,1.96l-.25.35c-.08-.04-.12-.05-.13-.06-.06-.04-.13-.08-.19-.12-.01,0-.02-.01-.03-.02-.66-.83-1.56-1.14-2.29-1.4-.25-.09-.49-.17-.72-.28l-.24-.11h-.19s-.1,0-.1,0l-3.69-.31,2.92,2.04s0,.02,0,.04c-.11.16-.23.31-.36.45-.2.22-.41.42-.62.63-.7.69-1.49,1.48-1.96,2.57-.01.02-.05.06-.09.1-1.27,1.47-2.79,3.14-4.59,4.58-.1.08-.25.16-.64.16l-.68-.6-.69.61-.12.11c-.13.12-.27.24-.41.35-.02.01-.04.03-.06.04l-1.28-.68-.09,2.48c-.03.8-.06,1.6-.08,2.39v.15c-.02.45-.03.85-.15,1.19-.18.49-.19.99-.19,1.4v.1c0,.4,0,.79,0,1.18,0,.55.01,1.11-.02,1.66-.04.61-.04,1.11-.05,1.5,0,.2,0,.42-.01.59l-.37.14.04.73c.02.47.04.95.02,1.42v.23s-.06.62-.06.62l-.02.26c0,.09,0,.18-.02.27l-.03.23.19.5c.13.35.22.57.2.77-.03.26-.02.52-.02.78v.41s-1.07-.54-1.07-.54l.2,5.47.13.02c-.04.2-.07.39-.09.57v.09s.04,1.56.04,1.56c0,.26-.02.4-.03.46l-.45.25.03.76-.14,3.99c0,.25-.01.47-.07.6-.24.5-.28.99-.28,1.35,0,.18,0,.36-.02.53-.01.32-.03.64-.01.95.03.63-.15,1.28-.34,1.96-.05.17-.09.34-.14.52l-.3.19v.56c0,.7-.16,1.47-.47,2.35l-.28.77.32.19c-.11.54-.18,1.06-.21,1.58,0,.18-.01.35-.02.53-.02.73-.04,1.37-.3,1.93-.19.41-.17.82-.16,1.12.03.75-.13,1.48-.29,2.24-.11.54-.23,1.09-.3,1.67-.08.69-.33,1.4-.6,2.16l-.05.14c-.57,1.6-1,3.25-1.42,4.84l-.24.9c-.12.46-.24.92-.39,1.38-.2.62-.37,1.26-.54,1.89-.26.99-.5,1.92-.88,2.81-.17.4-.21.79-.24,1.13-.03.26-.05.5-.13.64l-.12.22v.25c0,.59-.16,1.19-.32,1.82-.12.5-.25,1.02-.32,1.58-.06.46-.19.94-.32,1.44-.1.37-.2.74-.28,1.11-.24.46-.3.92-.35,1.29-.04.27-.07.5-.15.65-.27.49-.32.99-.36,1.4-.03.28-.06.53-.14.69-.25.47-.3.95-.33,1.33-.02.27-.05.5-.13.61l-.17.22-.07.63c-.04.3-.07.59-.08.89-.03.51-.05,1.13-.03,1.76,0,.28-.1.58-.25.93l-.07.18v.19c0,.84-.39,1.71-.76,2.45l-.43.84.58.33s0,.04,0,.07c0,.16,0,.38-.02.46-.33.92-.4,1.83-.46,2.7-.02.28-.04.55-.07.83,0,.09-.04.13-.05.16l-1.64,2.2,2.67-.63c.37-.09.79-.21,1.2-.44.02.02.04.04.06.06,1.27,1.49,2.68,2.87,4.04,4.19l1.03,1.01c.89.88,1.76,1.74,3.06,2.19.03,0,.14.06.38.31.85.87,1.86,1.32,2.83,1.76l.33.15c.59.27,1.09.44,1.57.53.35.07.72.23,1.11.39.65.28,1.39.59,2.27.59.08,0,.3.1.43.15l.09.04c.13.05.25.12.38.19.32.18.68.38,1.14.45.42.07.85.24,1.3.42.57.23,1.22.49,1.94.57.83.09,1.58.54,2.38,1.01.24.14.47.28.71.41.04.05.15.32.16.47l-.16.35c-.19.42-.38.84-.6,1.25-.18.34-.39.73-.63.98-1.01,1.08-2.01,2.1-2.98,3.04-.68.66-1.35,1.11-2.04,1.37-.22.09-.44.2-.65.32-.09.05-.18.1-.28.15l-.58.29c-.52.26-1,.5-1.5.69-.29.11-.61.18-.96.26-.27.06-.54.12-.81.2-.2.06-.39.15-.58.24-.09.04-.2.1-.25.11-.06.01-.24.06-.36.06-1-.36-2.01-.56-3.09-.62-.45-.02-.9-.17-1.33-.44-.28-.17-.72-.41-1.29-.48-.23-.03-.47-.06-.7-.09-.41-.05-.82-.11-1.23-.14-.54-.05-1.09-.2-1.67-.35-.93-.25-1.82-.38-2.65-.38-.92,0-1.82.15-2.67.44-.6.21-1.1.35-1.6.39-.88.06-1.72.32-2.66.81-.2.11-.49.15-.81.2-.46.07-.98.15-1.51.44-.56.31-1.17.48-1.85.52-1.04.06-1.82.09-2.55.09Z"/><g id="Color"><path class="cls-2" d="m84,348.24c.57-.05,1.1.02,1.62.29,1.35.72,2.79,1.17,4.33,1.22.57.02,1.04.4,1.62.35.47-.03.95.05,1.43.09.4.03.79.06,1.17.22.29.12.61.22.92.21.66,0,1.25.22,1.86.38.61.16,1.28.13,1.88.31.86.26,1.73.32,2.6.32,1.68,0,3.36-.02,5.03-.16.78-.06,1.54-.37,2.28-.68.21-.09.47-.11.69-.09.13.01.34.16.35.26.05,1.26.3,2.54-.19,3.78-.08.21-.08.47-.06.71.06.79-.25,1.38-.84,1.88-1.53,1.29-3.05,2.57-4.93,3.34-.59.24-1.17.46-1.83.5-.87.04-1.69.38-2.48.74-.05.02-.06.14-.08.22h-8.64c-.08-.13-.14-.35-.23-.36-.78-.13-1.54-.42-2.31-.53-.9-.13-1.67-.49-2.47-.84-1.63-.72-3.05-1.71-4.27-3.01-.44-.47-.9-.91-1.35-1.36-.23-.24-.37-.51-.37-.85,0-1.52.01-3.03.03-4.55,0-.2.14-.29.29-.24,1.44.5,2.75,1.26,4.04,2.05.34.21.64.47,1.05.55,1.02.2,1.83.99,2.91,1.01.98.34,2.02.43,2.99.79.21.08.49.1.7.03.76-.24,1.51-.5,2.11-1.06.27-.25.27-.87-.04-1.06-.34-.21-.69-.38-1.04-.57-1.21,0-2.31-.59-3.51-.63-.16,0-.33,0-.47-.05-1.76-.74-3.59-1.35-4.76-3.02-.04-.06-.01-.16-.01-.24l-.03.03Z"/><path class="cls-2" d="m97.04,294.92c0-.5,0-1.14,0-1.78,0-.56.03-1.11.23-1.65.11-.29.2-.63.17-.93-.09-.9.51-1.68.45-2.57-.01-.21.17-.44.3-.63.18-.26.41-.49.59-.75.23-.33.21-.83-.16-1.07-.56-.35-.69-.84-.69-1.42,0-.32.02-.64.06-.96q.43-3.15.34-5.71c0-.08-.01-.16,0-.24.07-.65-.04-1.26-.35-1.85-.14-.28-.14-.63-.27-.91-.2-.42-.29-.91-.68-1.25-.44-.38-1.02-.44-1.5-.72-1.05-.04-2.02-.46-3.05-.56-.71-.07-1.42-.09-2.12-.35-.43-.16-.95-.11-1.43-.13-.8-.02-1.6-.02-2.4-.03-.37,0-.62-.23-.62-.55.02-1.2.04-2.4.06-3.6,0-.64.02-1.26.28-1.88.15-.35.12-.78.15-1.18.05-.56.08-1.11.32-1.64.1-.21.01-.46-.13-.67-.19-.28-.26-.58-.04-.88.19-.26.33-.54.32-.88-.01-.56,0-1.12-.03-1.68-.01-.24-.16-.44-.45-.46-.08,0-.16-.03-.23-.07-.28-.14-.63-.63-.51-.7.2-.12.43-.2.65-.26.48-.13.47-.12.3-.57-.09-.22-.19-.44-.22-.67-.02-.13.07-.31.17-.42.1-.11.25-.18.39-.25.19-.09.26-.21.15-.36-.41-.57-.01-1.04.15-1.55.05-.16-.04-.3-.21-.35-.07-.02-.17,0-.23.04-.13.08-.25.18-.34.3-.1.12-.13.3-.24.41-.16.17-.35.41-.55.43-.96.1-1.54.78-2.2,1.35-.25.22-.26.51-.15.85.12.38-.35.75-.72.63-.08-.02-.15-.07-.22-.11-.33-.18-.6-.09-.86.15-.24.22-.38.5-.51.8-.05.13-.23.28-.35.28-.71,0-1.13.46-1.64.86-1.38,1.08-2.83,2.07-4.41,2.86-.27.13-.67,0-.84-.26-.04-.07-.11-.12-.15-.19-.68-1.26-1.31-2.56-2.06-3.78-.75-1.22-1.52-2.43-2.19-3.7-.11-.21-.22-.43-.28-.65-.03-.14-.02-.37.07-.45.7-.65,1.42-1.27,2.14-1.89.45-.39.98-.47,1.57-.42.57.05,1.06.35,1.61.45.33.06.65,0,.88-.24.66-.69,1.39-1.33,1.88-2.16.59-1.02,1.48-1.66,2.47-2.2.83-.14,1.27-.93,2.05-1.19.67-.23,1.27-.66,1.82-1.14.17-.15.42-.23.65-.28.33-.07.53-.29.77-.51.75-.72,1.62-1.29,2.57-1.72.14-.07.3-.12.46-.12.15,0,.31.03.45.1.16.08.21.25.16.42-.1.38-.23.75-.32,1.14-.07.31.19.7.46.72.96.06,1.91.11,2.87-.04.18-.03.44-.3.46-.49.03-.32.06-.63.07-.95.04-.72.1-1.42.29-2.13.18-.69.08-1.45.28-2.13.26-.86.29-1.72.29-2.6,0-.48.05-.96.07-1.44.02-.47.43-.88.2-1.38.29-.67.31-1.39.33-2.1.03-.89.5-1.68.51-2.57.38-.91.38-1.87.41-2.83.02-.56.05-1.11.08-1.67.33-.41.09-.9.21-1.35.16-.61.17-1.26.24-1.89.56-.96.35-2.02.38-3.05.01-.56-.02-1.15.16-1.66.29-.85.37-1.71.48-2.58.34-.58.27-1.23.32-1.87.08-.87.06-1.75.38-2.6.16-.43.07-.95.09-1.43.04-.88.06-1.76.11-2.64.04-.8.47-1.52.43-2.35-.03-.72,0-1.44.06-2.16.02-.31.17-.61.23-.92.05-.23.09-.48.06-.71-.05-.39-.23-.77-.24-1.16,0-.29.15-.57.06-.91-.16-.56-.27-3.04-.07-3.56.49-1.33.15-2.7.35-4.04.05-.31.06-.68-.06-.95-.45-.99-.37-2.03-.34-3.06,0-.08,0-.16,0-.24-.04-.5.1-.94.43-1.33.15-.18.31-.39.36-.61.07-.3.13-.66.03-.94-.32-.99-.72-1.98-1.46-2.72-.92-.91-1.56-2.02-2.27-3.07-.77-1.12-1.52-2.24-2.47-3.22-.44-.45-.77-1.01-1.16-1.52-.87-1.13-1.5-2.44-2.56-3.42-.37-.84-1.15-1.32-1.72-1.98-.31-.37-.66-.7-.98-1.05-.04-.04-.04-.14-.03-.2.02-.07.07-.14.11-.21,1.11-1.68,2.55-3.07,3.95-4.49,1.57-1.59,3.32-2.99,5.02-4.44,1.27-1.08,2.69-1.99,4.07-2.94.72-.5,1.47-.95,2.22-1.41.3-.18.65.02.67.39.04.56.11,1.12.09,1.67-.02.49,0,.94.21,1.4.27.6.18,1.26.22,1.89.05.89.41,1.7.68,2.53.24.76.72,1.42,1.28,2,.28.29.58.58,1,.61.52.03.89.31,1.25.63.34.31.72.28,1.11.1.58-.27,1.12-.6,1.57-1.08.6-.64,1.24-1.25,1.86-1.87.17-.17.32-.39.52-.49.89-.43,1.55-1.13,2.2-1.82.83-.89,1.88-1.47,2.88-2.12.16-.11.5-.08.68.02.35.19.67.44.95.72.85.84,1.7,1.69,2.52,2.57.88.94,1.85,1.75,3.01,2.33.71.35,1.35.83,2,1.29.25.18.44.46.65.7.16.19.25.44.17.66-.56,1.56-.21,3.16-.21,4.75.38.64.24,1.41.51,2.09.24.59.4,1.2.63,1.79.18.46.21.93.13,1.41-.04.23-.06.51-.2.68-.77.89-.67,2.11-1.19,3.09-.26,1.65-.94,3.21-.98,4.91-.01.57-.4,1.04-.39,1.62.02.56-.03,1.12-.08,1.68-.04.4-.08.8-.21,1.17-.28.77-.3,1.57-.31,2.37-.02,1.84-.02,3.68-.02,5.52,0,1.28-.04,2.56.04,3.83.04.71-.46,1.37-.13,2.09-.31.76-.31,1.56-.3,2.36,0,.56-.33,1.08-.26,1.61.06.4.1.76,0,1.16-.09.36.15.77-.1,1.14-.03.96-.08,1.91-.09,2.87-.02,1.6-.02,3.2-.02,4.79,0,1.04.02,2.08.04,3.11,0,.16-.01.33.04.48.43,1.15.34,2.36.36,3.55.03,1.6.05,3.2.07,4.79.01.8-.06,1.6.24,2.37.08.21.07.47.08.71.01,1.12.02,2.24.02,3.36,0,.24.03.51-.06.71-.38.76-.27,1.56-.28,2.35-.05,3.04-.09,6.07-.13,9.11-.02,1.36-.01,2.72-.02,4.08,0,.64-.06,1.25-.23,1.89-.18.67-.23,1.41.06,2.12.09.21.17.49.1.68-.36.92-.31,1.88-.32,2.84,0,.8-.06,1.6-.1,2.4-.03.71.05,1.43-.26,2.13-.12.27-.08.63-.09.95-.03,1.36-.06,2.72-.09,4.08-.02.88.04,1.75-.27,2.61-.13.36-.08.79-.09,1.19-.04,2.16-.07,4.31-.1,6.47,0,.64.01,1.27-.33,1.86-.11.19-.1.46-.11.7-.02,1.14-.5,2.16-.74,3.25-.29.41-.26.92-.44,1.36-.44,1.1-.39,2.16.1,3.25.33.72.55,1.49.84,2.23.13.32.1.59,0,.91-.32,1.15-.63,2.3-.98,3.44-.35,1.14-.65,2.29-1,3.43-.3.99-.47,2.02-.85,2.98-.36.9-.4,1.86-.75,2.76-.37.96-.55,1.99-.82,2.98-.02.08-.08.15-.08.22-.03,1.28-.62,2.48-.62,3.76,0,.58-.28,1.08-.39,1.62-.12.54-.1,1.13-.27,1.65-.18.54-.29,1.08-.29,1.64,0,.41-.1.79-.25,1.16-.09.22-.14.46-.16.7-.07.88-.11,1.75-.17,2.63-.38.75-.24,1.57-.33,2.36-.08.71-.03,1.44-.38,2.11-.04.07-.05.15-.06.23-.06.8-.01,1.63-.22,2.38-.22.78-.33,1.56-.4,2.35-.05.55-.07,1.1-.26,1.64-.17.52-.16,1.1-.18,1.66-.05,1.12-.06,2.24-.09,3.36,0,.24.04.51-.05.71-.4.92-.27,1.89-.3,2.84-.01.32,0,.67-.11.95-.39.91-.33,1.88-.37,2.83-.04.72-.05,1.44-.07,2.16,0,.48-.07.94-.24,1.4-.31.84-.12,1.75-.28,2.61-.05.29-.42.54-.72.46-.15-.04-.32-.06-.46-.13-.67-.34-1.39-.35-2.11-.36-.33,0-.63.07-.87.32-.47.48-1.03.74-1.71.74-1.7.64-3.46.45-5.21.45-.16,0-.34,0-.47-.07-.74-.41-1.55-.35-2.34-.4-1.05-.07-1.99-.57-3.04-.62-.66-.36-1.39-.32-2.1-.41-.55-.07-1.13.02-1.64-.27-.96-.09-1.85-.46-2.75-.75-.77-.25-1.41-.76-2.03-1.25-1.25-1-2.52-1.96-3.84-2.86-.29-.2-.42-.48-.39-.82.13-1.18-.04-2.4.39-3.55.11-.29.06-.63.06-.95.03-5.04.08-10.08.06-15.11,0-1.92,0-3.84.02-5.75.02-1.03-.16-2.08.31-3.07.02-.48.08-.96.06-1.44-.07-1.36.05-2.72.09-4.07.03-.82.32-1.55.46-2.33.03-.17.22-.25.36-.18.73.36,1.59.18,2.32.57.26.14.62.14.94.15,2.32.05,4.63.12,6.95.04.71-.02,1.2-.37,1.63-.87.1-.12.24-.26.25-.4.1-.87.58-1.65.52-2.57-.04-.63.03-1.28.06-1.91.01-.32-.05-.66.05-.95.45-1.4.33-2.85.44-4.41Z"/><path class="cls-2" d="m168.58,250.83c-.33-.5-.92-.62-1.38-.92-.1-.06-.3-.02-.43.03-.15.07-.12.22.01.38.1.12.17.27.24.41.1.23.1.5-.04.69-.3.4-.46.8-.45,1.32,0,.29-.23.58-.33.87-.11.32.21.84.58.93.23.06.47.06.69.11.28.07.44.31.38.52-.07.26-.27.36-.51.41-.23.04-.51-.05-.65.19-.05.08.05.27.12.4.39.79.39.8-.31,1.35-.15.12-.27.22-.18.35.3.46.26.89-.04,1.33-.08.12-.12.3-.12.45,0,.56-.01,1.12.02,1.68.01.24.16.42.41.53.21.09.4.25.59.4.21.16.2.43,0,.6-.18.15-.37.32-.58.41-.25.11-.4.29-.41.53-.07,1.76-.13,3.51-.18,5.27-.02.56-.02,1.1-.21,1.65-.13.36-.13.78-.13,1.18-.02.96.04,1.92-.02,2.88-.2,3.49.53,2.9-2.92,2.82-.79-.02-1.6.04-2.36-.31-.88-.04-1.76-.09-2.64-.13-.56-.03-1.12.03-1.66-.17-.44-.16-.94.11-1.37-.18-.06-.04-.15-.03-.23-.04-.68-.1-1.26.11-1.73.61-.28.29-.51.59-.51,1.04,0,1.92-.09,3.84-.02,5.75.09,2.56.06,5.11,0,7.67-.07,3.35.1,6.71.03,10.06,0,.32.02.64.04.96.07,1.05.68,1.83,1.65,2.1.31.08.63.14.94.15.47,0,.89.42,1.38.14.46.16.91.19,1.39,0,.37-.13.78-.16,1.18-.17,1.12-.02,2.24,0,3.36.01.27,0,.48.22.42.45-.15.62-.26,1.24-.29,1.88-.05.95,0,1.92-.41,2.83-.09.21-.08.47-.07.71.05,1.37-.45,2.67-.6,4.01-.09.86-.4,1.7-.7,2.52-.64,1.8-1.1,3.65-1.59,5.49-.14.54-.28,1.07-.45,1.6-.51,1.59-.79,3.24-1.45,4.79-.24.57-.1,1.27-.42,1.86-.01,1.21-.5,2.33-.65,3.51-.12.94-.47,1.84-.64,2.78-.4.63-.22,1.42-.57,2.07-.35.64-.15,1.42-.5,2.08-.34.64-.08,1.45-.54,2.07-.04.4-.1.79-.12,1.19-.03.56-.04,1.12-.03,1.68.02.67-.29,1.24-.51,1.83-.04.12-.24.24-.37.25-.72.05-1.44.04-2.12-.26-.47-.2-.92-.12-1.38.09-.34.15-.76-.32-.61-.71.18-.47.24-.93.03-1.39-.23-.52-.29-1.08-.32-1.64-.01-.24-.02-.49-.1-.7-.26-.66-.48-1.36-1.25-1.65-.29-.11-.54-.33-.83-.45-.3-.12-.62-.11-.94-.03-.33.08-.6.35-.6.65,0,.8.01,1.6,0,2.39-.02,1.28-.05,2.56-.11,3.83,0,.12-.17.28-.3.35-.13.07-.31.09-.47.08-1.12-.05-2.24-.11-3.35-.15-.35-.02-.58-.24-.82-.44-.15-.13-.16-.24-.09-.42.07-.22.17-.49.1-.69-.38-1.08-.24-2.21-.3-3.31-.04-.72.06-1.46-.11-2.15-.25-1.01-.34-2.03-.47-3.06-.03-.27-.55-.77-.82-.81-.71-.1-1.42-.21-2.15-.13-.46.05-.76.3-.76.74,0,1.2,0,2.4,0,3.6,0,.16-.02.34.04.48.66,1.62.27,3.31.36,4.97,0,.16.01.34-.05.47-.06.13-.2.23-.33.32-.06.04-.15.05-.23.05-1.36.01-2.71.01-4.06-.2-.24-.04-.45-.04-.68.03-.79.23-1.59.12-2.38.05-.12-.01-.26-.18-.32-.31-.07-.14-.08-.31-.08-.47,0-1.12-.02-2.24,0-3.36,0-.4-.03-.84.14-1.18.38-.76.33-1.55.35-2.35.02-.8.05-1.6.07-2.4,0-.32.08-.63.18-.93.09-.3.15-.62.16-.93.04-1.04.07-2.08.08-3.12.03-1.68.05-3.36.06-5.04,0-.88-.05-1.76-.07-2.64-.65-1.69-.34-3.47-.48-5.21-.02-.24-.05-.48-.06-.72-.02-.56.02-1.11-.25-1.64-.1-.2-.1-.47-.1-.7-.03-1.6-.04-3.2-.08-4.8-.02-.95.15-1.92-.28-2.84-.09-.2-.05-.47-.05-.71-.03-1.04-.04-2.08-.09-3.12-.04-.79,0-1.59-.31-2.36-.15-.35-.1-.78-.14-1.18-.09-.95,0-1.92-.41-2.83-.06-.14-.06-.32-.06-.47.04-1.3-.49-2.49-.74-3.74-.06-.31-.2-.61-.23-.92-.05-.49-.19-.93-.39-1.37-.29-.65-.62-1.29-.68-2.03-.03-.3-.21-.6-.34-.89-.23-.51-.43-1.03-.72-1.51-.46-.76-.43-1.54-.12-2.3.56-1.4.8-2.92,1.54-4.25.26-1,.58-1.99.67-3.02.03-.32.02-.64.04-.96.02-.4-.04-.83.08-1.19.15-.45.33-.89.41-1.36.04-.24.26-.37.47-.49.27-.16.6-.34.73-.6.5-1,1.28-1.82,1.69-2.88.37-.96.92-1.84,1.52-2.7.72-1.04,1.4-2.13,1.93-3.29.69-1.51.82-2.04.81-3.67,0-1.6.04-3.2-.08-4.79-.04-.48-.03-.95-.23-1.41-.09-.21-.11-.46-.12-.7-.03-.48-.04-.96-.05-1.44,0-.48.03-.96,0-1.44-.04-.47-.28-.95-.22-1.39.06-.46-.18-.94.1-1.38-.3-.61-.32-1.23,0-1.84-.16-.38-.03-.77-.08-1.15-.04-.31-.19-.62-.05-.93.28-.61.25-1.24.24-1.88,0-.72,0-1.44,0-2.16,0-.32.06-.67-.05-.95-.36-.85-.27-1.73-.27-2.6-.03-4.32-.06-8.64-.08-12.95,0-.88.05-1.76.06-2.64.01-.56.07-1.1.22-1.65.17-.6.17-1.26.19-1.9.02-.48.06-.95.26-1.4.27-.6.08-1.31.32-1.87.36-.85.31-1.72.35-2.59.03-.64.08-1.26.3-1.88.16-.44.16-.94.18-1.42.05-1.03-.03-2.06.34-3.08.16-.43.07-.95.09-1.43.03-.72.07-1.44.06-2.16,0-.71.42-1.37.21-2.09.25-.44.2-.92.2-1.4,0-1.28,0-2.56.06-3.84.03-.63-.03-1.28.29-1.88.1-.2.07-.47.09-.7.1-.95-.03-1.93.46-2.81.07-.13.06-.31.06-.47.03-.64,0-1.28.09-1.91.07-.55.29-1.08.36-1.63.09-.79.14-1.59.14-2.39,0-1.12-.06-2.23.35-3.31.14-.36.09-.79.1-1.19.01-.64,0-1.28,0-1.92.01-.48-.04-.99.1-1.43.42-1.32.29-2.69.37-4.04.08-1.35.07-2.72.07-4.07,0-1.04-.06-2.08-.05-3.11,0-.31.08-.66.25-.91.5-.72.9-1.51,1.53-2.14.34-.33.78-.38.99,0,.34.65.95,1.09,1.31,1.7.33.56.73,1.04,1.15,1.52.21.23.37.52.52.79.27.49.51.99.79,1.48.24.42.55.78.98,1.03.21.12.4.19.65.06.2-.1.47-.07.69-.16.21-.08.47-.19.59-.37.51-.81,1.11-1.56,1.53-2.43.31-.65.67-1.26,1.07-1.86.75-1.13,1.28-2.38,1.86-3.6.34-.72.62-1.46.93-2.19-.09-.91.42-1.69.55-2.56.15-1.02.45-2.02.54-3.05.01-.14.13-.3.25-.39.1-.08.3-.15.4-.1.13.06.19.25.29.37.76.92,1.27,2.02,2.15,2.87.79.77,1.43,1.7,2.2,2.52,1.21,1.28,2.37,2.59,3.66,3.8.53.49.91,1.11,1.37,1.65,1.25,1.45,2.29,3.08,3.71,4.39.23.21.43.48.6.75.13.2.18.45.1.69-.31.9-.61,1.81-.94,2.7-.11.29-.26.59-.46.82-.27.31-.44.65-.62,1.01-.18.36-.33.71-.33,1.13-.01,1.07-.34,2.04-1.02,2.88-.26.33-.39.68-.43,1.09-.04.39-.04.83-.21,1.16-.3.6-.33,1.23-.34,1.87,0,.49-.05.94-.3,1.38-.51.93-.75,1.92-.65,2.99.04.47-.03.96-.03,1.43,0,.48-.05.93-.24,1.39-.17.43-.13.94-.23,1.4-.1.46-.29.91-.4,1.37-.06.23-.04.48-.03.72.02.41-.08.78-.2,1.17-.47,1.61-.87,3.23-.77,4.93.03.55.09,1.13-.17,1.65-.21.42.23.74.1,1.14-.1.3-.19.61-.25.92-.06.32.03.63.15.93.15.38.23.8.08,1.17-.32.76-.3,1.56-.34,2.36-.04.72-.04,1.44-.12,2.15-.04.39-.29.76-.3,1.15-.05,1.44-.04,2.88-.05,4.31,0,.24.04.48.07.72.09.55.37,1.05.34,1.63-.02.48,0,.96.07,1.43.11.7,0,1.43.35,2.11.14.27.11.62.14.94.03.4-.04.82.08,1.19.52,1.72.3,3.49.41,5.23.06.87-.03,1.76-.03,2.64,0,.32-.03.67.09.94.35.76.28,1.56.37,2.35.08.71-.03,1.42.33,2.11.17.33.11.78.12,1.18.03,1.2.05,2.4.07,3.6.02,1.35-.05,2.7.32,4.04.19.68.11,1.43.15,2.15.02.43.19.8.53,1.03.97.69,1.88,1.49,3,1.95.13.05.31-.05.33-.23.05-.31.03-.64.03-.95-.03-1.52-.08-3.04-.11-4.56-.02-.88-.04-1.76,0-2.64.04-.81-.3-1.56-.35-2.35-.02-.34.29-.67.58-.55.45.18.91.28,1.37.39.85.2,1.69.45,2.48.83,1.15.56,2.35.99,3.53,1.45,1.12.44,2.2.93,3.21,1.57.27.17.56.4.85.41.77.03,1.33.46,1.97.78.85.43,1.73.84,2.64,1.08.76.2,1.59.21,2.37-.07.3-.11.6-.22.93-.2.15,0,.35,0,.45.09.55.46,1.06.96,1.68,1.33.45.27.58,1,.34,1.5-.11.21-.23.42-.35.63-1.32,2.18-2.63,4.37-3.97,6.55-.5.81-1.07,1.59-1.62,2.37-.31.43-1.05.51-1.51.18-.13-.09-.3-.16-.39-.28-.68-.9-1.77-1.02-2.69-1.45-.63.05-1.02-.36-1.42-.75-.14-.13-.27-.12-.43,0-.22.17-.46.13-.63-.06-.16-.17-.26-.39-.38-.59-.19-.35-.25-.38-.49-.21-.13.09-.25.2-.38.29-.29.2-.38.21-.59,0-.17-.17-.36-.33-.2-.61.11-.18.09-.31-.1-.39-.07-.03-.17-.06-.22-.04-.2.11-.39.25-.59.36-.31.16-.69.02-.76-.28-.04-.15-.02-.32-.05-.48-.1-.49-.18-.51-.6-.15-.18.15-.35.34-.55.44-.11.05-.31,0-.44-.07-.16-.07-.21-.23-.18-.41.01-.08.03-.15.05-.23.15-.53.15-.54-.22-.68-.15-.06-.3-.1-.46-.15-.03-.18-.13-.27-.32-.28Z"/><path class="cls-2" d="m64.84,225.2c.01-1.32-.05-2.52.35-3.68.13-.37.11-.79.13-1.19.04-.71-.07-1.44.33-2.1.08-.13.06-.31.07-.47.08-.87-.06-1.76.3-2.6.35-.81.13-1.76.58-2.55.06-1.54.72-2.92,1.08-4.38.15-.62.5-1.17.53-1.83.03-.64.52-1.18.45-1.84.27-.83.62-1.64.8-2.49.19-.95.46-1.85.86-2.72.1-.21.21-.45.2-.68-.02-.9.36-1.71.52-2.57.06-.31.12-.64.27-.91.57-.99.6-2.14,1.04-3.16.09-1.11.56-2.14.61-3.27.03-.79.47-1.52.52-2.32.71-1.86.92-3.86,1.66-5.71.12-.29.18-.62.18-.93.01-.65.22-1.24.43-1.85.75-2.12,1.71-4.11,3.22-5.81.53-.59,1-1.23,1.42-1.92.82-1.37,1.95-2.51,2.93-3.77.09-.12.56-.05.65.1.51.8,1.08,1.58,1.53,2.42.71,1.34,1.77,2.45,2.43,3.82.1.21.31.36.47.54.59.65,1.1,1.36,1.63,2.06.53.7,1.07,1.39,1.56,2.12.8,1.19,1.65,2.34,2.51,3.49.31.41.43.86.4,1.34-.05.79.07,1.59-.2,2.38-.12.35.28.75.09,1.15-.16.32-.02.6.04.91.07.39.06.79.06,1.19,0,2.55,0,5.11,0,7.66,0,.56-.01,1.11-.24,1.64-.09.21-.11.47-.12.7-.04,1.12-.1,2.23-.09,3.35,0,.57-.04,1.1-.28,1.63-.12.28-.12.62-.14.93-.03.72-.05,1.44-.06,2.16,0,.66-.26,1.24-.55,1.8-.02.05-.12.09-.17.08-.07,0-.16-.05-.21-.1-.55-.58-1.17-1.09-1.54-1.82-.64-.5-.81-1.33-1.46-1.86-.6-.49-.99-1.24-1.54-1.81-.9-.93-1.58-2-2.12-3.16-.13-.28-.3-.56-.48-.82-.14-.19-.34-.36-.6-.35-.63.02-1.27.06-1.9.1-.14,0-.38.37-.4.55-.05.41.02.79.17,1.17.41,1.04.91,2.03,1.51,2.98.39.61.8,1.19,1.2,1.79.57.87,1.17,1.71,1.96,2.41.54.48,1,1.05,1.26,1.73.29.76.86,1.34,1.23,2.05.19.37.33.72.27,1.13-.06.43.1.78.39,1.08.22.23.45.46.68.68.27.26.77.26.85.75.05.34-.1.62-.22.91-.06.15-.13.31-.13.46.06,1.85-.63,3.61-.64,5.45,0,.23-.04.48-.13.7-.16.38-.23.76-.23,1.16,0,1.28,0,2.55-.39,3.79-.14.44-.09.95-.13,1.43-.04.55-.03,1.12-.32,1.63-.07.13-.09.3-.1.46-.05.64-.1,1.27-.13,1.91-.02.56-.36,1.04-.36,1.63,0,1.2-.07,2.39-.12,3.59-.01.32,0,.65-.08.95-.06.21-.25.39-.41.56-.11.11-.28.09-.44,0-.31-.16-.62-.09-.92.04-.16.07-.3.06-.46-.02-.14-.07-.32-.16-.45-.12-.75.23-1.56.26-2.22.79-.43.35-.94.6-1.41.9-.27.17-.56.32-.78.53-.52.51-1.13.87-1.77,1.2-1.13.58-2.14,1.38-3.3,1.92-.28.13-.51.38-.72.62-.27.3-.53.59-.94.7-.24.06-.36.28-.46.51-.07.14-.15.3-.27.39-.93.66-1.56,1.57-2.13,2.53-.12.21-.41.16-.54-.09-.51-.99-1.15-1.92-1.39-3.03-1.06-2.66-2.01-5.36-2.91-8.08-.5-1.51-.98-3.02-1.39-4.56-.2-.77-.53-1.5-.58-2.3-.28-.51-.3-1.07-.33-1.63-.02-.24.01-.5-.08-.71-.48-1.15-.34-2.35-.38-3.42Zm26.37-8.54c0-.08.03-.16.02-.23-.12-.64-.4-1.22-.96-1.56-.88-.53-1.78-1.04-2.72-1.48-.45-.21-.85-.46-1.13-.83-.58-.75-1.3-1.38-1.89-2.12-.59-.75-1.27-1.42-1.75-2.25-.19-.34-.5-.61-.78-.9-.55-.58-1.08-.67-1.95-.33-.22.09-.45.16-.64.3-.11.08-.2.26-.2.4-.01.31-.06.67.06.94.44,1.01.84,2.03,1.55,2.92,1.47,1.86,1.51,1.98,3.69,3.64,1.26,1.31,2.97,1.79,4.56,2.47.27.12.63.08.94.07.51-.02,1.11-.56,1.18-1.02Z"/><path class="cls-2" d="m190.08,229.36c0,.88.02,1.76,0,2.64-.02.56-.03,1.11-.25,1.65-.12.29-.16.62-.17.94-.06,1.77-.76,3.41-1.09,5.12-.1.53-.41,1.03-.66,1.53-.32.64-.68,1.26-1.02,1.89-.19.35-.38.4-.78.2-.36-.17-.71-.36-1.07-.54-.86-.42-1.76-.74-2.64-1.09-.29-.12-.63-.15-.9-.3-2.32-1.25-4.85-2.02-7.16-3.27-.63-.34-1.39-.34-2.01-.73-1.01,0-1.83-.49-2.66-.97-.27-.16-.48-.43-.82-.47-.72-.08-1.32-.59-2.07-.56-.24,0-.48-.02-.71-.07-.24-.06-.39-.23-.51-.46-.18-.36-.35-.71-.36-1.13-.01-.56-.04-1.12-.08-1.68-.03-.48,0-.97-.11-1.43-.12-.47-.05-.93-.13-1.38-.07-.41-.13-.77.04-1.16.06-.14.11-.33.06-.46-.63-1.71-.33-3.47-.28-5.21,0-.09.23-.28.33-.26.47.08.92.23,1.39.31.47.09.96.08,1.41.22.46.15.92.3,1.4.28.56-.02,1.07.27,1.63.19.47-.07.94-.15,1.41-.22.47-.08.66-.48.42-.85-.13-.2-.26-.4-.4-.6-.09-.13-.2-.31-.32-.33-.87-.13-1.62-.69-2.53-.64-.48.03-.96-.01-1.44,0-.56,0-1.1-.06-1.64-.28-.36-.14-.78-.14-1.17-.19-.87-.12-1.4-.64-1.49-1.56-.05-.56-.08-1.11-.41-1.6-.03-.05,0-.17.03-.23.07-.13.14-.32.26-.37.38-.15.82-.13,1.18.02.68.29,1.38.36,2.1.38,1.04.03,2.08.04,3.12.03,1.36-.02,2.66-.47,4.01-.58.36-.03.71-.33,1.06-.52.27-.15.29-.89.02-1.08-.52-.36-1.02-.77-1.59-1.04-.58-.27-1.25-.3-1.86-.02-.37.17-.72.32-1.13.36-.63.06-1.26.1-1.88.32-.68.25-1.42.18-2.14.06-.31-.05-.57-.27-.76-.54-.12-.16-.09-.54.08-.65,1.42-.89,2.7-1.96,4.01-2.99.19-.15.43-.27.53-.47.36-.66,1.07-.95,1.5-1.52.1-.13.18-.27.26-.4.14-.22.13-.49-.02-.65-.11-.12-.21-.24-.32-.35-.23-.22-.47-.43-.71-.65-.3-.28-.66-.44-1.08-.45-.16,0-.33-.03-.47-.1-.36-.16-.65,0-.86.22-1.14,1.12-2.25,2.27-3.38,3.39-.28.28-.6.52-.91.78-.17.14-.56.08-.62-.11-.15-.52-.5-1.02-.13-1.58.03-1.52.24-3.02.19-4.54-.02-.71,0-1.41.24-2.13.26-.75.18-1.58.17-2.38-.02-.8-.03-1.6-.02-2.4,0-.31,0-.66.13-.94.26-.6.26-1.25.41-1.86.23-.93.41-1.85.44-2.82.02-.54.28-1.07.39-1.62.11-.55.1-1.11.32-1.64.09-.22.14-.46.17-.69.14-.86-.09-1.76.33-2.59.36-.72.14-1.6.59-2.3.08-1.87.85-3.54,1.42-5.28.25-.75.53-1.49.66-2.29.12-.78.43-1.53.53-2.32,0-.06.08-.14.13-.15.07,0,.18.03.22.08.6.84,1.21,1.67,1.67,2.6.49,1.01,1.17,1.9,1.77,2.84.95,1.48,1.81,3.01,2.29,4.71.04.15.06.32.14.45,1.01,1.73,1.53,3.68,2.5,5.42.78,1.4,1.3,2.9,1.79,4.42.74,2.27,1.56,4.51,2.59,6.67.75,1.58,1.28,3.25,1.68,4.96.37,1.55.89,3.06,1.58,4.5.59,1.22,1,2.51,1.46,3.78.3.83.25,1.74.69,2.53.05,1.05.61,1.98.64,3.03.53.93.25,2.06.74,3,.1.2.07.47.08.71.07,1.27-.02,2.55.43,3.79.13.36.06.79.07,1.19,0,.8,0,1.6,0,2.4.01,0,.02,0,.03,0Z"/><path class="cls-2" d="m133.93,170.45c-.1,1.1,0,2.15-.4,3.14-.14.36-.11.79-.12,1.19-.04,1.03-.04,2.06-.36,3.07-.16.52-.08,1.11-.1,1.67-.05,1.03.02,2.05-.37,3.07-.25.65-.05,1.43-.35,2.11-.27.6-.1,1.26-.17,1.9-.07.72-.05,1.44-.4,2.1-.07.96-.15,1.91-.2,2.87-.03.64-.01,1.27-.26,1.88-.11.28-.09.63-.1.94-.05,1.28-.07,2.56-.13,3.83-.04.87.11,1.77-.29,2.6-.03.72-.05,1.44-.09,2.16-.05,1.03.01,2.07-.35,3.08-.16.43-.1.95-.12,1.43-.04.96-.06,1.92-.09,2.88,0,.24.04.52-.05.71-.46.9-.35,1.87-.37,2.82,0,.08,0,.17-.03.24-.5,1.05-.36,2.19-.48,3.29-.02.16-.04.33-.11.46-.33.67-.34,1.39-.36,2.11-.03.96-.06,1.92-.08,2.88,0,.4-.03.8-.2,1.17-.03.07-.06.15-.07.23-.06.48.41.9.16,1.39-.23.45-.25.92-.24,1.4,0,1.44.02,2.88.01,4.32,0,.49.02.95.24,1.4.07.13.08.32.04.46-.23.87.15,1.72.08,2.59-.08.95.04,1.92.05,2.87.01.88,0,1.76,0,2.64,0,.96,0,1.92,0,2.88,0,.88-.01,1.76,0,2.64,0,1.44.02,2.88.03,4.32,0,.4,0,.8.03,1.2.02.48.02.94.18,1.42.11.34-.13.74.09,1.13.11.19.08.46.09.7.05,2.16.1,4.31.15,6.47,0,.24,0,.48.02.72.01.31.3.56.17.91-.16.45-.23.94-.43,1.36-.59,1.22-1.22,2.42-1.84,3.63-.07.14-.18.28-.31.36-.49.31-.5.98-.99,1.29-.06.04-.17.04-.23.02-.06-.02-.12-.1-.14-.16-.04-.23-.09-.47-.1-.7,0-.48-.06-.96.14-1.42.2-.48-.23-.9-.15-1.38.09-.47.05-.97.19-1.41.18-.55.23-1.09.23-1.65,0-.72-.01-1.44,0-2.16.02-.8.03-1.58.31-2.36.21-.59.2-1.27-.01-1.89-.11-.33-.07-.59.03-.9.12-.37.14-.78.15-1.18.03-1.44.02-2.88.05-4.32.02-.79-.14-1.61.31-2.34.04-.88.12-1.76.1-2.63-.04-2-.11-3.99.02-5.98.07-1.11,0-2.24.05-3.36.03-.71-.1-1.44.17-2.14.05-.13.02-.31-.04-.45-.28-.73-.15-1.41.16-2.09.13-.3.14-.64,0-.93-.22-.44-.29-.88-.29-1.38.02-1.99-.01-3.99-.04-5.98-.01-.8-.01-1.6-.12-2.39-.09-.7-.38-1.37-.34-2.1.04-.72,0-1.44,0-2.16-.01-.72-.05-1.44-.04-2.16,0-.72.07-1.44.08-2.16.02-.96-.02-1.92.02-2.87.02-.54.32-1.06.02-1.62-.07-.12-.06-.33,0-.47.4-.99.28-2.04.32-3.07.05-1.35-.06-2.72.41-4.03.13-1.83.28-3.67-.15-5.48-.06-.24-.12-.48-.03-.7.23-.53.25-1.08.25-1.64-.02-1.44.05-2.87.02-4.31-.03-1.26-.07-2.56.41-3.79.11-.29.14-.63.12-.95-.05-.74.23-1.4.44-2.08.3-.99.59-1.98.52-3.04-.02-.31,0-.67.14-.93.41-.74.34-1.55.41-2.34.03-.33.12-.62.3-.89.53-.8,1.08-1.59,1.58-2.4.5-.81.95-1.66,1.44-2.47.25-.41.55-.79.97-1.04.06-.04.16-.08.21-.06.06.03.12.13.12.2.04.64.06,1.27.08,1.84Z"/><path class="cls-2" d="m94.05,288.54c.19,1.17-.37,2.45-.55,3.79-.36.57-.35,1.21-.35,1.85,0,1.2,0,2.39-.02,3.59-.01.95.06,1.91-.35,2.82-.12.28-.09.63-.12.94-.05.64-.08,1.27-.12,1.91-.03.4-.35.69-.8.71-.32.02-.64.02-.96.01-.41-.01-.78.1-1.16.22-.29.09-.67.15-.93.04-.76-.31-1.59-.22-2.33-.47-.78-.27-1.56-.24-2.35-.32-.2-.02-.49-.26-.51-.42-.14-1.36.02-2.7.11-4.05.44-.82.32-1.71.33-2.57.01-.96-.01-1.91,0-2.87.01-.79.05-1.58.37-2.34.18-.42.17-.93.18-1.41.04-1.75.06-3.51.1-5.26,0-.23.08-.46.14-.69.07-.26.52-.54.74-.46.68.22,1.38.39,2.02.68.66.3,1.46.04,2.05.57.88.06,1.7.37,2.54.59.55.15,1.04.41,1.49.74.26.19.47.44.47.79,0,.48,0,.96,0,1.64Z"/><path class="cls-2" d="m137.12,358.71c-1,.03-1.54-.03-2.08-.25-.36-.15-.78-.13-1.18-.18-.47-.06-.95-.05-1.41-.25-.21-.09-.46-.13-.7-.15-.87-.07-1.78,0-2.62-.21-.78-.19-1.55-.31-2.35-.38-.15-.01-.3-.09-.45-.14-.21-.08-.54-.58-.46-.77.39-.9.42-1.86.42-2.81,0-.58.27-1.08.34-1.62.06-.47.09-.95.15-1.43.01-.14.42-.35.59-.32.16.02.33.01.47.07.9.4,1.86.42,2.82.44.8.02,1.59.01,2.39.02.32,0,.69-.09.95.05.75.39,1.58.18,2.35.39.23.07.44.18.67.26.39.14.78.15,1.15-.06.45-.26.91-.27,1.38-.08.37.15.75.25,1.16.25.8.01,1.6.06,2.39.06.98,0,1.92.03,2.54.97.08.12.26.19.41.24.14.05.33.11.46.06.45-.16.89-.34,1.31-.56.35-.19.62-.58.98-.66.63-.14,1.17-.51,1.8-.6.47-.07.88-.35,1.39-.34.34.01.66.21.65.51-.02.4.05.83-.07,1.19-.38,1.07-.36,2.19-.48,3.3-.06.52-.35.88-.81,1.09-.36.17-.73.34-1.12.41-.7.14-1.44.12-2.12.32-.7.22-1.41.23-2.12.3-.24.03-.5.02-.7.12-.6.31-1.24.28-1.87.31-1.12.06-2.23.07-3.35.1-.72.02-1.42-.03-2.12.26-.35.14-.79.08-.74.07Z"/><path class="cls-2" d="m156.07,296.87c0-1.2-.01-2.39,0-3.59,0-.63,0-1.27.26-1.88.12-.28.09-.62.1-.94.02-1.11.03-2.23.04-3.34,0-.51.45-.89.97-.7.84.31,1.71.31,2.57.38.87.07,1.76-.05,2.58.36.64.02,1.27.04,1.91.07.31.01.51.19.42.42-.39.97-.28,2.04-.64,3.02-.13.35-.03.79-.04,1.19-.04,1.27-.09,2.55-.14,3.82-.01.4,0,.8-.18,1.17-.14.29-.18.6-.18.93,0,.48-.05.96-.03,1.43.04,1.06-.34,2.03-.58,3.03-.05.21-.39.36-.56.36-.88,0-1.74,0-2.58-.33-.37-.15-.77-.07-1.15.11-.68.32-1.39.23-2.1.09-.15-.03-.29-.14-.41-.23-.2-.14-.36-.33-.36-.58.01-1.03.04-2.07.07-3.1.02-.56.05-1.11.07-1.67-.01,0-.02,0-.04,0Z"/><path class="cls-2" d="m149.76,152.98c.01.6-.05,1.15-.35,1.65-.14,1.27-.64,2.43-1.05,3.63-.23.69-.49,1.35-.93,1.92-.45.58-.75,1.23-.96,1.9-.2.64-.6,1.11-.97,1.62-.14.18-.44.17-.6-.05-1.23-1.67-2.65-3.17-4.07-4.67-.18-.2-.18-.42-.07-.65.07-.14.18-.27.24-.41.26-.58.16-1.24.49-1.82.31-.54.45-1.19.66-1.79.21-.6.37-1.21.62-1.79.2-.45.28-.9.3-1.38.02-.63.07-1.25.31-1.87.16-.42.13-.94.13-1.41,0-1.51-.01-3.02,0-4.53,0-.14.11-.36.21-.38.12-.03.3.09.41.2.17.16.32.35.46.55.36.52.73,1.04,1.07,1.58.13.2.28.43.27.65-.04.89.49,1.47,1.04,2.05.22.23.4.5.64.7.75.63,1.17,1.49,1.65,2.31.37.64.58,1.31.49,2.02Z"/><path class="cls-2" d="m104.6,151.01c.03-.56.01-1.12.09-1.67.12-.9.46-1.71,1.29-2.17.65-.35,1.1-.92,1.66-1.37,1.12-.9,2.27-1.74,3.54-2.41.16-.08.54.1.56.3.08.8.59,1.48.62,2.3,0,.08,0,.17.05.23.89,1.14,1,2.68,1.96,3.79.31.35.46.83.68,1.26.11.21.09.56-.05.67-.63.49-1.17,1.07-1.84,1.52-1.26.84-2.47,1.76-3.54,2.83-.74.74-1.66,1.23-2.52,1.8-.21.14-.74,0-.86-.22-.3-.56-.58-1.13-.87-1.7-.07-.14-.16-.29-.17-.44-.11-1.59-.76-3.11-.6-4.73Z"/><path class="cls-2" d="m88.25,272.92c.16,0,.32.02.48.02.88-.02,1.75,0,2.58.34.9-.06,1.7.35,2.54.57.49.13.71.38.75.79.09.78-.08,1.6.32,2.35.06.12.04.33-.02.46-.29.6-.25,1.24-.26,1.88-.02,1.04-.03,2.08-.07,3.11,0,.23-.06.47-.16.68-.06.12-.24.18-.37.25-.07.03-.16.05-.23.03-.84-.25-1.68-.45-2.56-.52-.62-.05-1.23-.3-1.81-.56-.45-.21-.88-.32-1.37-.3-.48.01-.96,0-1.43-.08-.46-.08-.92-.26-1.36-.43-.12-.05-.25-.24-.25-.37-.02-1.12.01-2.24-.02-3.35-.02-.82.46-1.52.44-2.34-.02-.71.05-1.43.12-2.15.01-.12.19-.31.31-.32.79-.05,1.59-.07,2.38-.1,0,.02,0,.03,0,.05Z"/><path class="cls-2" d="m165.57,283.04c-.01.32-.03.63-.04.95,0,.15-.37.39-.55.36-.16-.02-.33.01-.47-.05-1.05-.47-2.16-.45-3.28-.44-.71,0-1.44-.07-2.14,0-.99.1-1.87-.32-2.8-.45-.12-.02-.3-.22-.29-.33,0-.57-.28-1.07-.36-1.61-.08-.55-.06-1.11-.07-1.67,0-.41.33-.71.78-.69.56.03,1.15-.05,1.66.13.85.3,1.71.32,2.58.36.71.03,1.4.1,2.1.33.59.19,1.26.1,1.89.14.25.02.44.16.52.4.17.52.46,1.02.39,1.6-.03.31,0,.63,0,.95.03,0,.05,0,.08,0Z"/><path class="cls-2" d="m117.67,142.07c-.06.69.01,1.28-.17,1.79-.34.98-.4,2.04-.92,2.96-.06.11-.22.2-.35.25-.17.07-.32,0-.4-.17-.28-.57-.51-1.17-.84-1.71-.36-.57-.23-1.24-.5-1.83-.26-.57-.41-1.2-.57-1.82-.03-.13.02-.35.11-.43.43-.36.87-.7,1.33-1,.42-.27.92-.28,1.39-.17.41.1.69.44.78.84.1.46.1.94.14,1.29Z"/><path class="cls-2" d="m84.02,348.21c-.87-.02-1.75-.03-2.62-.06-.23,0-.47-.08-.7-.13-.13-.03-.46-.39-.47-.51-.06-.8-.1-1.59.23-2.34.16-.36-.02-.81.32-1.12.03-.03.15-.03.18,0,.17.16.37.31.5.5.43.66.85,1.34,1.26,2.02.29.48.68.87,1.1,1.25.1.09.11.28.17.42l.03-.03Z"/><path class="cls-2" d="m168.58,250.83c.19.01.29.1.32.28,0,.22.02.45-.01.67-.06.37-.59.52-.88.26-.33-.29-.32-.57.01-.91.16-.16.32-.31.56-.31Z"/><path class="cls-2" d="m171.85,256.85c.02-.24.07-.47.29-.61.16-.1.45-.03.65.14.33.28.35.5.07.78-.06.06-.11.11-.18.16-.26.21-.63.1-.76-.24-.03-.07-.04-.15-.06-.23Z"/><path class="cls-2" d="m170.19,259.65c0,.2-.35.58-.6.64-.24.06-.6-.28-.61-.59-.01-.33.29-.68.55-.63.26.05.65.39.66.58Z"/><path class="cls-2" d="m171.26,256.23c-.06.29-.3.47-.56.61-.14.07-.64-.38-.63-.55,0-.29.56-.67.84-.59.22.07.4.31.35.54Z"/><path class="cls-2" d="m82.22,258.47c-.13-.06-.28-.11-.39-.2-.17-.13-.12-.47.06-.58.28-.19.56-.18.84,0,.15.09.24.22.18.39-.05.13-.14.27-.25.33-.12.07-.29.05-.44.07Z"/><path class="cls-2" d="m85.13,259.14c.06-.32.61-.65.9-.53.07.03.15.08.17.14.06.14.14.29.12.43-.04.24-.46.63-.63.63-.18,0-.59-.49-.56-.66Z"/><path class="cls-2" d="m168.4,259.05c-.02.29-.27.6-.53.67-.06.02-.15.02-.19-.02-.16-.15-.35-.31-.45-.5-.08-.15.3-.57.55-.63.07-.02.15,0,.22,0,.25.04.42.24.39.47Z"/><path class="cls-2" d="m85.78,260.97c-.12.3-.33.41-.73.37-.28-.03-.38-.13-.45-.43-.02-.07-.03-.17,0-.23.21-.39.93-.36,1.18.05.03.06,0,.15,0,.25Z"/><path class="cls-2" d="m167.26,261.34c-.11-.05-.34-.11-.52-.22-.17-.1-.11-.49.07-.58.21-.11.41-.21.66-.12.27.09.43.28.38.5-.06.28-.21.41-.59.42Z"/></g><g id="Halftone"><path class="cls-2" d="m167.02,129.15c.04.64.09,1.27.11,1.91.03.56.04,1.12.04,1.68.01.99-.53,1.64-1.34,2.11-.21.12-.45.17-.66.28-.31.16-.61.09-.92,0-.29-.09-.67.12-.73.4-.08.39-.13.78-.2,1.17-.13.68-.61,1.1-1.16,1.45-.13.08-.3.11-.45.14-.16.03-.32.05-.48.05-.63-.03-1.27-.07-1.9-.11-.48.29-.94.6-1.43.87-.2.11-.45.16-.69.18-.4.03-.8.01-1.2.02-.66,0-1.27-.18-1.79-.58-.82-.63-1.73-1.13-2.59-1.7-.13-.09-.29-.13-.43-.19-.14-.06-.55.08-.64.23-.19.35-.41.68-.57,1.05-.29.69-.82,1.17-1.37,1.64-.31.26-.67.43-1.09.43-.4,0-.8-.02-1.2-.04-.33-.02-.63.06-.87.29-.06.06-.12.11-.17.17-.56.59-1.27.94-2.02,1.25-.56.23-1.07.25-1.61-.02-.13-.07-.3-.08-.46-.08-.16,0-.32.1-.33.27-.03.4-.08.82.02,1.19.37,1.34.39,2.67.01,4-.09.3-.09.63-.12.95-.07.87-.06,1.75-.4,2.59-.09.21-.06.47-.08.71-.04.4,0,.82-.12,1.19-.22.69-.36,1.38-.49,2.09-.1.54-.35,1.06-.54,1.58-.19.52-.28,1.11-.59,1.55-.69.98-1.12,2.11-1.91,3.03-.73.85-1.4,1.74-2.04,2.66-.55.8-1.21,1.49-1.99,2.05-.66.47-1.21,1.02-1.64,1.71-.29.47-.66.89-1.2,1.12-.16.07-.56-.11-.57-.29-.02-.56-.05-1.12-.06-1.67-.02-.8-.03-1.6-.05-2.4-.34-.67-.25-1.41-.36-2.11-.04-.23-.12-.46-.21-.68-.22-.51-.46-1.02-.87-1.42-.91-.89-1.74-1.86-2.89-2.49-.48-.26-.86-.71-1.27-1.09-.7-.65-1.34-1.37-2.19-1.85-.34-.19-.61-.51-.9-.79-.46-.45-.9-.9-1.35-1.36-1.52-1.54-1.68-1.31-.66-3.46.55-1.16.79-2.41,1.12-3.64.19-.69.15-1.43.56-2.06.02-.4.07-.8.05-1.19,0-.12-.19-.32-.31-.32-.56-.03-1.12,0-1.68,0-.41,0-.78-.11-1.13-.32-.36-.2-.66-.43-.83-.82-.39-.87-.77-1.75-1.28-2.56-.04-.07-.06-.15-.1-.22-.13-.21-.3-.34-.57-.36-.47-.04-.94-.04-1.4-.27-.73-.37-1.33-.86-1.73-1.59-.15-.28-.32-.54-.49-.81-.12-.19-.47-.19-.62-.03-.39.41-.7.86-.97,1.36-.45.84-.94,1.66-1.46,2.47-.21.33-.52.6-.8.88-.23.23-.54.34-.86.37-.64.07-1.26.04-1.86-.3-.31-.18-.58-.05-.83.25-.35.44-.66.9-1.04,1.31-.38.4-.79.8-1.25,1.1-.49.32-.82.73-1.11,1.21-.31.51-.82.74-1.41.77-.16,0-.32.01-.48.02-.67.02-1.26-.17-1.7-.71-.15-.18-.33-.35-.53-.48-.11-.07-.31-.11-.43-.06-.55.24-1.06.22-1.61-.04-.62-.29-1.03-.75-1.25-1.37-.11-.3-.14-.62-.23-.92-.05-.18-.21-.26-.38-.2-.23.07-.44.16-.67.23-.95.28-1.73,0-2.33-.76-.14-.18-.28-.4-.32-.63-.17-.88-.15-1.73.31-2.55.47-.83.89-1.69,1.32-2.55.17-.34.67-.55.5-.99-.1-.27-.38-.5-.62-.7-.38-.33-.56-.77-.74-1.21-.12-.3-.2-.58-.1-.92.32-1.07.68-2.13,1.25-3.09.37-.63.86-1.14,1.6-1.35.3-.09.59-.23.87-.38.43-.25.78-.6.81-1.12.06-1.08.56-1.98,1.09-2.88.28-.48.63-.92.93-1.39.39-.62.86-1.14,1.54-1.47.14-.07.27-.17.4-.26.26-.19.47-.41.52-.76.04-.31.14-.62.2-.93.24-1.21.84-2.23,1.66-3.13.98-1.07,2.05-2.01,3.39-2.62.8-.37,1.53-.83,2.18-1.45.94-.89,2.08-1.46,3.3-1.88.52-.18,1.02-.45,1.54-.65.52-.2,1.05-.35,1.56-.56.52-.21,1.02-.46,1.41-.89.72-.81,1.73-1.12,2.67-1.53.21-.09.46-.12.7-.14.4-.04.8-.04,1.2-.07,1.12-.08,2.2-.31,3.17-.92.27-.17.56-.31.85-.45.73-.34,1.49-.53,2.32-.49.49.03.97.09,1.34.42.49.44.98.43,1.51.08.13-.09.3-.11.44-.19.98-.59,2.02-.93,3.18-.86.23.01.49-.04.69-.14.91-.44,1.86-.41,2.82-.3.97.11,1.89.03,2.83-.27,1.07-.34,2.21-.28,3.33-.3.88-.02,1.76.03,2.63.04.74,0,1.42.14,2,.65.17.15.4.3.62.35,1.17.26,2.23.86,3.43.99.32.03.61.18.87.37,2.12,1.55,4.2,3.15,6.44,4.55.61.38,1.14.89,1.58,1.46.19.25.38.52.48.82.13.38.21.77.46,1.09.59.77.95,1.66,1.36,2.52.21.45.45.87.86,1.12.99.6,1.58,1.56,2.29,2.41.41.49.71,1.06.84,1.7.03.16.02.34.1.46.42.63.28,1.4.59,2.06.31.66.73,1.23,1.13,1.82.22.33.38.7.55,1.06.31.66.48,1.33.45,2.08-.05,1.12-.01,2.24-.01,3.36-.02,0-.04,0-.06,0Zm-36.17,10.98c1.43.07,2.87.17,4.25-.36.14-.05.32-.03.47-.05,1.52-.19,2.92-.75,4.26-1.46.21-.11.42-.26.55-.44.42-.58.79-1.19,1.19-1.79.14-.86.47-1.68.57-2.55.11-.93-.25-1.72-.76-2.45-.23-.32-.52-.61-.8-.89-1.08-1.07-2.15-2.13-3.24-3.18-.46-.45-.86-.94-1.11-1.54-.49-1.16-1.29-2.21-1.33-3.54,0-.22-.19-.43-.28-.66-.2-.52-.42-1.03-.6-1.56-.16-.48-.45-.83-.8-1.16-.59-.55-1.6-.58-2.18-.04-.29.27-.57.57-.76.91-.31.55-.52,1.16-.82,1.72-.76,1.41-1.69,2.7-2.92,3.74-.67.57-1.37,1.1-2.11,1.56-1.31.81-2.35,1.9-3.41,2.98-.74.75-1.25,1.65-1.62,2.62-.36.94-.36,1.87.19,2.75.21.34.4.7.67.98.6.64,1.23,1.25,1.86,1.87.34.34.75.58,1.18.8,1.35.71,2.79,1.14,4.23,1.59.85.26,1.74.11,2.62.16.24.01.48,0,.72,0Z"/><path class="cls-2" d="m165.74,261.33c0-1.11,0-2.23,0-3.34,0-.48.06-.95.28-1.39.07-.13.12-.36.05-.46-.49-.72.05-1.39.06-2.08.01-1.04.03-2.07.06-3.11,0-.23.06-.47.11-.7.05-.24.54-.56.73-.47,1.08.5,2.18.97,3.16,1.66.47.33.98.49,1.51.68,1.42.51,2.86.98,4.14,1.79.27.17.5.38.74.59.21.18.28.65.17.89-.3.65-.65,1.28-1.17,1.79-2.66,2.63-5.13,5.45-7.92,7.96-.18.16-.35.32-.54.47-.12.09-.27.16-.41.24-.32.18-.91-.1-.92-.46-.03-1.35-.05-2.71-.07-4.06.01,0,.02,0,.03,0Z"/><path class="cls-2" d="m87.89,255.14c0,.64,0,1.27,0,1.91,0,.24.04.51-.05.71-.49,1.04-.25,2.21-.57,3.27-.07.24-.04.46.03.69.13.39.12.78-.02,1.17-.13.38-.22.76-.34,1.14-.1.34-.67.55-.98.38-.14-.08-.28-.15-.41-.24-.26-.18-.51-.39-.76-.57-1.8-1.33-3.42-2.83-4.82-4.58-.13-.17-.13-.53,0-.67.05-.06.09-.13.15-.19.17-.17.33-.34.52-.49,1.26-.96,2.43-2.04,3.72-2.96.58-.41,1.08-.94,1.65-1.37.37-.29.79-.52,1.2-.77.27-.16.67.1.67.43,0,.72,0,1.43,0,2.15h0Z"/></g><g id="Lines"><path class="cls-1" d="m138.85,358.62c1.76.01,3.51-.05,5.27-.23.64-.07,1.25-.2,1.85-.46.43-.19.91-.32,1.37-.38.95-.12,1.89-.21,2.77-.67.85-.45,1.88-.36,2.72-.87.51-.31.96-.04,1.26.31,1.56,1.83,3.31,3.46,5.01,5.14.8.79,1.58,1.58,2.68,1.96.29.1.55.33.77.56.8.82,1.85,1.24,2.86,1.7.43.2.89.37,1.35.46,1.1.22,2.02.97,3.19.97.3,0,.62.14.91.27.44.18.85.51,1.3.58,1.12.19,2.07.86,3.19.99,1.31.15,2.35.93,3.46,1.54.47.26.82,1.26.62,1.69-.27.58-.52,1.16-.82,1.73-.22.42-.46.85-.78,1.19-.98,1.05-1.98,2.08-3.02,3.08-.69.67-1.46,1.24-2.38,1.58-.3.11-.56.3-.85.44-.72.35-1.42.73-2.17,1.01-.59.22-1.23.3-1.84.48-.3.09-.58.3-.88.37-.3.07-.66.13-.93.03-.91-.33-1.84-.51-2.8-.56-.65-.03-1.25-.25-1.8-.58-.28-.17-.56-.3-.89-.34-.63-.07-1.27-.17-1.9-.23-.64-.06-1.25-.23-1.87-.39-1.56-.43-3.15-.49-4.7.05-.61.21-1.22.39-1.86.44-.81.06-1.55.33-2.27.7-.72.38-1.58.23-2.3.62-.71.39-1.47.6-2.28.64-1.6.09-3.19.14-4.79,0-.64-.06-1.26-.17-1.85-.45-1-.49-2.02-.94-3.01-1.45-2.95-1.51-3.94-2.33-6.23-5.09-.27-.33-.37-1.48-.15-1.85.25-.41.5-.82.77-1.21.46-.66.81-1.35,1.02-2.14.21-.76.6-1.47.87-2.22.27-.75.82-1.38.96-2.18.11-.63.32-1.23.56-1.82.18-.44.35-.91.36-1.38.03-1.34.74-2.43,1.18-3.62.11-.29.48-.45.78-.47.64-.04,1.27-.04,1.91-.03,1.12.02,2.23.07,3.35.11Zm24.71,21.02c1.12,0,1.6.02,2.07,0,.96-.05,1.88-.2,2.77-.65.86-.42,1.75-.77,2.56-1.28.4-.25.84-.47,1.19-.79,1.31-1.17,2.62-2.35,3.72-3.72.2-.25.36-.53.54-.79.24-.33,0-1.11-.36-1.22-1.23-.4-2.49-.49-3.77-.32-.31.04-.62.16-.89.32-.83.49-1.45,1.25-2.19,1.85-1.13.91-2.36,1.57-3.87,1.68-1.6.12-3.18.18-4.78-.02-1.1-.14-2.24-.06-3.3-.51-.13-.05-.32-.04-.45.02-1.07.43-2.2.33-3.31.41-.96.06-1.92.07-2.87.13-.47.03-.96.05-1.4.28-1.17.61-2.44.71-3.72.72-1.12.01-2.24-.02-3.35-.03-1.13,0-2.23-.16-3.24-.71-1.74-.33-3.33-1.04-4.87-1.9-.42-.23-.89-.36-1.31-.59-.31-.17-.6-.3-.86-.16-.28.15-.6.32-.75.57-.41.68-.75,1.4-1.1,2.12-.22.44-.15.95.19,1.32.32.35.61.77,1,1.01,1.77,1.07,3.6,2.05,5.53,2.81.46.18.92.27,1.4.28,1.12,0,2.24-.02,3.35-.06.32-.01.68,0,.94-.15,1-.55,2.15-.6,3.18-.99.9-.34,1.79-.66,2.75-.76.47-.05.94-.18,1.38-.35.6-.23,1.21-.4,1.86-.41.96-.02,1.92-.05,2.88-.04.96,0,1.93-.03,2.87.11,1.11.16,2.08.77,3.1,1.22.15.07.28.17.43.22.3.1.6.21.91.24.79.08,1.59.11,1.75.12Zm-5.25-13.66c.96-1.07.95-1.53.6-1.88-.89-.88-1.81-1.74-2.84-2.47-.29-.21-1.1-.1-1.25.23-.4.87-1,1.58-1.64,2.28-.42.46-.88.89-1.19,1.45-.15.27.02,1.1.32,1.26.69.37,1.34.82,2.06,1.11.76.3,1.58.24,2.22-.31.83-.72,1.57-1.53,1.72-1.68Z"/><path class="cls-1" d="m82.02,357.65c.15.05.3.09.44.16.71.35,1.42.73,2.14,1.08.86.42,1.7.88,2.59,1.22.89.34,1.85.46,2.73.87.42.19.93.23,1.4.26,1.28.1,2.55.17,3.83.24.96.05,1.93,0,2.88.1.78.09,1.54.38,2.32.55.47.1.95.13,1.42.21.47.08.7.32,1.01.91.51,1,.98,2.01,1.04,3.16.03.65.23,1.26.53,1.83.22.44.34.91.37,1.38.06.98.41,1.86.75,2.76.35.94.25,1.89-.43,2.7-.31.37-.63.73-1.05.97-.14.08-.29.15-.44.18-.15.03-.32.04-.45,0-.6-.22-1.21-.41-1.86-.44-1.6-.08-3.2-.15-4.79-.24-1.44-.08-2.88,0-4.31.12-.64.05-1.25.2-1.85.46-1.31.56-2.73.89-3.84,1.88-.34.31-.86.41-1.27.66-.83.51-1.71.85-2.7.89-.32.01-.69,0-.94.17-1.3.8-2.76.73-4.19.82-1.27.08-2.56.03-3.77.58-.14.06-.31.05-.47.05-.16,0-.32.01-.47-.03-.61-.17-1.2-.42-1.85-.46-.8-.05-1.6-.1-2.38-.27-.77-.17-1.5-.55-2.27-.74-1.91-.48-3.55-1.42-4.94-2.79-.68-.68-1.32-1.39-1.98-2.09-2.38-2.52-2.55-2.77-4.09-6.39-.06-.14-.03-.32-.02-.47.02-.31.18-.63.5-.72.77-.21,1.54-.37,2.28-.71.42-.19.92-.28,1.39-.32.97-.09,1.88-.32,2.76-.75.42-.21.92-.24,1.38-.38.92-.27,1.8-.64,2.73-.89.76-.21,1.45-.66,2.19-.94.89-.34,1.72-.84,2.7-.98.31-.04.6-.2.88-.35,1.4-.77,2.88-1.38,4.33-2.04.87-.4,1.69-.92,2.59-1.24.89-.32,1.85-.47,2.72-.89.14-.07.31-.04.47-.06Zm7.45,16.2c-.32,0-.64-.04-.96-.03-1.11.05-2.24.05-3.27.58-.27.14-.61.19-.92.22-1.11.11-2.23.18-3.34.31-.47.06-.93.22-1.38.37-.31.1-.64.21-.94.09-1.2-.46-2.47-.58-3.71-.86-.92-.21-1.78-.66-2.72-.88-.76-.18-1.47-.58-2.19-.92-.58-.27-1.13-.59-1.69-.9-1.28-.71-2.3-1.68-2.99-3-.22-.42-.52-.79-.8-1.18-.24-.32-.9-.51-1.3-.37-.75.26-1.46.64-2.27.7-1.3.09-2.46.6-3.6,1.18-.13.07-.22.22-.32.33.12.11.22.23.35.32.26.18.62.27.79.51,1.39,1.95,3.15,3.6,4.44,5.63.26.41.7.63,1.09.91.79.57,1.7.87,2.57,1.27.59.27,1.2.46,1.84.48,2.23.06,4.47.18,6.7.14,1.58-.03,3.19-.07,4.68-.82.41-.21.93-.2,1.4-.27.64-.09,1.23-.28,1.81-.59.99-.52,2.04-.94,2.98-1.52.97-.6,2.02-.88,3.11-1.11.32-.07.49-.35.53-.71,1.43.11,2.83.04,4.2-.49.85-.33,1.49-.3,2.31,0,.75.26,1.49.53,2.3.53.95,0,1.9.01,2.84.01.41,0,.96-.48.97-.86.02-.47.04-.94.03-1.41-.03-.95-.15-1.89-.65-2.74-.33-.56-.36-1.21-.53-1.81-.14-.5-.58-.57-1.04-.14-.47.43-.92.87-1.38,1.3-.59.56-1.39.73-2.07,1.13-1.89,1.13-3.91,2.06-5.68,3.41-.35.27-.88.3-1.12.74-.07.13-.05.31-.07.47Zm-12.45-11.27c-.64.41-1.42.58-2.19.77-.15.04-.29.13-.42.21-.41.25-.77.56-.99,1,.15.26.27.54.44.79.18.26.4.49.61.73.1.12.22.23.32.36.59.69,1.35.8,2.16.57,1.07-.29,2.03-.89,3.13-1.12.3-.06.78-.83.77-1.13-.01-.8-.09-1.59-.49-2.3-.15-.26-.42-.46-.66-.66-.27-.23-.54-.13-.87.04-.56.29-1.17.48-1.81.73Z"/><path class="cls-1" d="m168.16,129.42c.07,1.26.16,2.54-.05,3.81-.11.64-.37,1.22-.83,1.69-.22.22-.44.52-.71.62-.94.34-1.61,1.01-2.25,1.73-.21.24-.45.46-.66.69-.45.49-1,.79-1.67.79-.65,0-1.26.14-1.83.45-.88.46-1.83.56-2.79.46-.47-.05-.93-.17-1.32-.49-.49-.41-.98-.81-1.51-1.17-.26-.17-.58-.25-.88-.35-.48-.16-.98-.12-1.36.18-.74.6-1.42,1.28-2.12,1.93-.62.57-1.35.82-2.18.81-.85-.01-1.56.22-1.98,1.04-.07.14-.18.26-.29.38-.22.26-.51.36-.83.43-.79.19-1.59.03-2.38.06-.33.01-.64.06-.9.26-.94.73-2.03.84-3.17.82-.32,0-.62.12-.88.32-.5.39-.97.82-1.49,1.18-.25.17-.58.25-.89.31-.98.17-1.89-.02-2.76-.51-.56-.31-1-.32-1.34-.1-.4.26-.79.54-1.19.81-.58.39-.78.41-1.3.15-.72-.34-1.44-.66-1.85-1.43-.23-.42-.6-.73-1.14-.75-.48-.01-.95-.07-1.43-.09-.82-.03-1.57-.25-2.24-.72-.41-.29-.88-.39-1.36-.38-.84.02-1.53-.35-2.25-.71-.89-.44-1.63-1.04-1.96-1.98-.35-1-1.03-1.58-2-1.87-.47-.14-.87-.38-1.23-.7-.47-.41-.85-.96-1.47-1.18-.33-.12-.64-.06-.9.13-.53.38-.92.89-1.18,1.47-.4.89-1.02,1.61-1.71,2.28-.48.47-1.04.72-1.7.75-.48.02-.96-.05-1.43,0-.3.03-.65.15-.86.35-1.4,1.3-2.78,2.63-4.16,3.95-.33.31-.96.37-1.32.11-.39-.28-.75-.59-1.14-.86-.41-.29-.56-.32-1.31-.02-.68.27-1.24.09-1.77-.31-.25-.19-.49-.41-.71-.64-.33-.35-.65-.71-.94-1.08-.43-.54-1.05-.67-1.66-.85-.48-.14-.79-.52-1.07-.9-.09-.13-.17-.28-.2-.43-.18-.95-.12-1.9-.05-2.86.03-.33.14-.61.27-.91.34-.72.61-1.48.96-2.19.25-.5.02-.89-.15-1.33-.12-.29-.22-.61-.23-.92-.03-.64-.02-1.28,0-1.91.05-1.16.7-2.09,1.23-3.07.07-.13.21-.26.34-.33.7-.39,1.37-.82,1.96-1.37.59-.55,1.06-1.18,1.19-2.02.09-.64.31-1.24.74-1.73.63-.72,1.27-1.44,1.92-2.14.66-.71,1.18-1.48,1.39-2.46.2-.94.73-1.76,1.23-2.57.24-.4.59-.78.98-1.03.66-.44,1.37-.81,1.95-1.36.59-.56,1.46-.7,2.03-1.24,1.29-1.23,3.01-1.79,4.36-2.91.24-.2.55-.36.85-.4,1.79-.26,3.26-1.28,4.78-2.13.99-.55,1.97-1.03,3.11-1.13.72-.34,1.46-.63,2.28-.69.49-.04.91-.25,1.34-.48.42-.23.86-.4,1.35-.44,1.43-.14,2.86-.25,4.29-.02.8.13,1.58-.05,2.36-.26,1.14-.69,2.39-.82,3.69-.83,1.12,0,2.23-.09,3.35-.09.5,0,.92-.2,1.37-.36.3-.11.6-.25.91-.28,1.59-.15,3.19-.08,4.78-.02.15,0,.33.04.45.13.96.61,2.13.63,3.12,1.15.42.22.83.49,1.33.52,1.16.06,2.1.71,3.11,1.17.43.19.81.51,1.17.82.6.52,1.16,1.1,1.75,1.64.47.43.95.86,1.54,1.12.59.26,1.08.67,1.55,1.11,1.66,1.58,1.93,1.95,3.06,4.22.24.97.86,1.69,1.53,2.39.44.46.85.95,1.32,1.39.96.9,1.42,2.1,1.99,3.24.12,1.13.59,2.16,1.13,3.12.81,1.45,1.03,3,1.03,4.61,0,.8-.06,1.59-.1,2.41Zm-43.14-25.47c-.26.01-.42.03-.58.03-.98.02-1.89.23-2.72.78-.41.27-.9.33-1.37.36-.48.04-.96.05-1.43.07-.98.56-2.14.61-3.13,1.13-.26.14-.65.94-.57,1.24.04.15.03.34.12.46.74,1.08.86,2.39,1.34,3.56.31.76.48,1.53.49,2.33.01,1.12,0,2.24-.05,3.35-.01.31-.1.64-.23.92-.35.74-.51,1.5-.52,2.31-.01.82-.24,1.57-.71,2.25-.28.4-.43.87-.43,1.35,0,1.29-.06,2.56-.69,3.73-.07,1.17-.65,2.11-1.39,2.98-.34.4-.32.85-.18,1.32.04.14.05.33,0,.46-.27.65-.11,1.23.2,1.81.53.99.68,1.16,1.68,1.6.44.2.87.41,1.33.54.5.15.8.47,1.05.89.32.55.61,1.12.99,1.63.28.37.69.65,1.04.97.28.26.52.16.86-.02,1.2-.62,1.26-.59,2.05.23.22.23.42.48.65.71.23.22.47.43.72.63.82.65,1.65.92,2.59.17.38-.3,1.01-.22,1.26.19.16.27.29.56.44.84.22.43.55.77.91,1.1.34.31.85.25,1.23-.18.21-.24.41-.49.55-.77.7-1.42.72-1.45,1.84-.32.59.59,1.29.91,2.03,1.22.5.21.8.15,1.31-.2.67-.46,1.23-1.02,1.64-1.72.08-.14.12-.3.19-.44.37-.75.86-.85,1.53-.44.39.24.73.63,1.29.37.46-.21.72-.57.97-.99.4-.66.99-.74,1.61-.36.27.17.55.36.86.42.29.06.64.04.92-.07.62-.24.98-.79,1.43-1.25.48-.48,1.07-.67,1.74-.54.32.06.63.08.95.01.84-.17,1.46-.66,1.82-1.41.21-.43.08-.94-.17-1.36-.19-.31-.21-.59-.1-.88.41-1.13.41-1.14.15-1.79-.18-.44-.45-.87-.52-1.33-.14-.97-.45-1.85-.91-2.71-.23-.42-.41-.87-.64-1.29-.31-.58-.42-1.2-.45-1.84-.02-.48-.06-.96-.08-1.43-.02-.51-.25-.94-.59-1.27-.83-.82-1.3-1.77-1.45-2.94-.08-.62-.42-1.2-.59-1.81-.12-.46-.07-.94.05-1.41.11-.45.32-.52.67-.19.23.22.52.41.65.68.43.86.83,1.73,1.17,2.62.25.66.73.97,1.34,1.23.56.24.72.59.72,1.11,0,.48-.03.95-.04,1.43-.03.81.11,1.59.52,2.3.4.71.47,1.52.61,2.3.21,1.11.58,2.19,1.3,3.04.63.75,1.13,1.52,1.51,2.41.25.59.72,1.07,1.3,1.36.72.36,1.41.72,1.74,1.53.05.13.22.23.33.34.58.51,1.66.54,2.2.03.35-.33.67-.68,1.01-1.02.35-.34.55-.33,1.26.03.96.48,1.45.33,2.03-.44.51-.68.53-1.49.77-2.24.13-.4.36-.52.73-.37.15.06.31.12.46.12.54,0,1.31-.81,1.16-1.25-.22-.6-.36-1.22-.5-1.84-.18-.77-.5-1.5-.73-2.25-.05-.14-.05-.33,0-.47.18-.44.41-.86.58-1.31.17-.46.19-.97,0-1.4-.61-1.3-1.23-2.6-2.31-3.61-.34-.32-.62-.73-.91-1.1-.21-.27-.16-.55.02-.88.32-.61.27-1.23-.17-1.78-1.01-1.26-2.11-2.39-3.62-3.06-.44-.19-.67-.67-.65-1.18.02-.47.08-.94.14-1.41.04-.34-.04-.63-.26-.9-.1-.12-.16-.28-.28-.38-1.53-1.4-3.07-2.79-4.61-4.18-.12-.11-.25-.2-.39-.28-.14-.08-.29-.13-.43-.21-.99-.51-1.99-1.02-2.97-1.55-.44-.23-.91-.3-1.38-.32-.64-.02-1.27,0-1.91-.02-.33,0-.63-.13-.88-.34-.36-.31-.73-.62-1.09-.93-.37-.32-.8-.56-1.28-.58-1.12-.04-2.24-.02-3.35-.03-.49,0-.94.15-1.38.34-.29.13-.59.23-.89.31-.15.04-.34.07-.47,0-.77-.38-1.52-.33-2.28-.01-1.27.11-2.54.22-3.82.32-.33.03-.61.16-.88.36-.51.38-1.04.74-1.56,1.11-.38.26-.74.29-1.32-.09-.7-.45-1.43-.67-2.16-.58Zm-9.58,11.77c-.08-1.09-.13-2.53-.29-3.95-.09-.82-.56-1.51-1.34-1.84-.59-.25-1.13-.58-1.65-.93-.44-.29-.93-.24-1.37-.1-1.27.42-2.91,1.34-3.74,2.04-.24.2-.49.41-.71.64-.56.59-1.2,1.04-2.01,1.21-1.24.77-2.2,1.81-3,3.02-.18.28-.26.57-.27.9,0,.84-.32,1.52-1,2.06-.88.69-1.54,1.61-2.26,2.46-.63.74-.89,1.67-1.31,2.53-.05.11.05.31.11.46.27.74-.21,1.21-.64,1.66-.67.7-1.56,1.09-2.34,1.63-.52.37-.95.84-1.27,1.4-.24.41-.45.84-.68,1.26-.34.62-.09,1.38.51,1.51.31.07.63.08.94.15.69.15.87.45.66.94-.57,1.33-1.54,2.41-2.23,3.67-.23.41-.25.91-.2,1.39.05.48.61.86.98.65.27-.15.56-.29.8-.48.37-.3.72-.61,1.15-.83.36-.18.59-.09.73.32.28.85-.11,1.53-.51,2.23-.44.77-.25,1.45.51,2.06.48.38.76.39,1.24.02.25-.19.49-.4.74-.6.12-.1.25-.19.37-.3.25-.23.53-.32.88-.28.45.04.53.11.87.93.23.54.56.6,1.01.23,1.1-.92,2.18-1.86,3.09-2.97.4-.48.68-1.06,1.02-1.59.21-.33,1.03-.33,1.26,0,.09.13.16.27.25.4.4.63.65.7,1.04.36.86-.74,1.57-1.58,1.91-2.68.19-.61.37-1.21.57-1.82.2-.61.53-1.14.97-1.62.33-.36.46-.82.4-1.31-.07-.63-.14-1.26-.19-1.9-.06-.71.49-1.17,1.12-.91.31.13.59.2.91.18.34-.02.65-.14.72-.5.31-1.42.36-2.82-.23-4.2-.19-.44-.34-.89-.48-1.34-.17-.57.3-1.3.89-1.4.31-.05.63-.06.95-.11.44-.06.84-.53.87-.96.07-1.11.14-2.22.23-3.67Z"/><path class="cls-1" d="m123.52,148.56c.15.05.32.07.45.15.57.36.78.95.99,1.56.23.69.4.79,1,.78.16,0,.32,0,.48-.03,1.05-.15,1.81.24,2.41,1.13.67,1,1.35.68,1.96.12.23-.21.45-.45.63-.71.18-.25.32-.55.48-.82.21-.36.97-.44,1.24-.13.31.35.58.75.9,1.09.53.56,1.6.54,2.14.01.46-.45.86-.93,1.16-1.5.16-.3.35-.64.61-.62.29.02.61.21.83.42.34.32.62.71.92,1.07.28.33.24.61-.13.77-.73.31-1.43.66-2,1.24-1.17,1.2-2.53,1.16-3.93.51-.32-.15-.56-.3-.86-.17-.29.13-.57.27-.86.41-.43.21-.86.4-1.28.63-.31.16-.59.14-.91-.02-.56-.3-1.14-.55-1.71-.83-.58-.29-.58-.28-1.71.15-.29.11-.61.17-.92.23-.35.06-1.14-.29-1.27-.53-.21-.43-.42-.85-.62-1.28-.48-1.05-.51-2.14-.24-3.25.03-.13.17-.24.26-.37Z"/><path class="cls-1" d="m168.37,265.34c-.62.04-1.22-.75-1.04-1.28.31-.91.73-1.79,1.51-2.35.91-.65,1.69-1.43,2.48-2.19.69-.66,1.31-1.34,1.82-2.17.58-.94,1.4-1.71,2.34-2.32.56-.37,1.17-.36,1.77-.02.32.18.47.41.41.78-.02.15,0,.32-.06.44-.16.27-.35.52-.57.75-.86.92-1.87,1.71-2.39,2.91-.06.14-.17.26-.28.38-1.45,1.67-2.96,3.29-4.7,4.67-.39.31-.85.38-1.3.38Z"/><path class="cls-1" d="m87.44,262.43c.06.36-.08.62-.41.79-.7.36-1.68.26-2.2-.22-1.17-1.07-2.38-2.1-3.42-3.3-.45-.52-.37-1.09.27-1.58.26-.2.54-.33.85-.34.16,0,.37-.04.47.05.85.71,1.65,1.48,2.7,1.92.27.12.51.38.69.63.37.51.7,1.05,1.02,1.6.07.12.03.3.03.46Z"/><path class="cls-1" d="m131.63,128.08c.2.03.84.09,1.45.21.5.1.82.46,1.03.91.06.12.09.33.03.42-.86,1.14-1.79,2.23-2.22,3.64-.05.15-.09.3-.14.45-.34,1.11.56,2.7,1.73,3.02,1.11.31,2.21.23,3.27-.19.47-.19.63-.69.88-1.08.2-.3.45-.32.78-.07.74.58.87,1.44.36,2.06-.53.64-1.16,1.08-2,1.16-.63.06-1.27.1-1.9.12-.98.03-1.9-.13-2.63-.87-.11-.11-.24-.21-.37-.3-.94-.7-.72-.56-1.62.01-.4.25-.75.62-1.17.81-.9.38-1.84.46-2.78.11-.15-.06-.31-.11-.42-.21-.73-.62-1.4-1.3-1.8-2.19-.15-.33-.1-.65.12-.87.2-.2.48-.13.76.15.22.22.43.47.65.7.11.12.22.23.34.33.65.58,1.88.6,2.67.05.67-.46,1.23-1.03,1.62-1.73.48-.87.6-1.8.11-2.73-.45-.84-.93-1.66-1.38-2.5-.31-.58.15-1.36.79-1.38.16,0,.32-.03.48-.03.32,0,.64,0,1.38,0Z"/><path class="cls-1" d="m138.43,122.81c.02-.47.03-.78.06-1.09.01-.15.02-.32.07-.46.16-.44.42-.82.76-1.15.42-.4.84-.19,1.26,0,.29.12.58.24.83.41.39.27.65.63.7,1.13.09.77.17,1.54.07,2.32-.1.82-.52,1.43-1.17,1.92-.39.29-1.26.25-1.7-.23-.42-.46-.79-.96-.83-1.62-.03-.46-.05-.93-.06-1.23Z"/><path class="cls-1" d="m123.01,123.49c.02-.31.03-.62.06-.93.07-.82.46-1.45,1.09-1.96.26-.21.53-.25.87-.17.85.21,1.22.88,1.57,1.57.06.12.03.31,0,.46-.09.62-.44,1.15-.68,1.71-.37.86-.86,1.14-1.8,1.06-.15-.01-.35-.02-.44-.11-.21-.21-.43-.45-.54-.72-.11-.28-.09-.61-.13-.91Z"/></g></g></svg>