<?xml version="1.0" encoding="UTF-8"?><svg id="Lavender_Crowd" xmlns="http://www.w3.org/2000/svg" viewBox="0 0 250 430"><defs><style>.cls-1,.cls-2,.cls-3{stroke-width:0px;}.cls-2{fill:#9d5fdb;}.cls-3{fill:#fff;}</style></defs><g id="CIB24_Lavender_Doggo_1"><path class="cls-3" d="m87.82,383.56c-.21,0-.41,0-.61-.01h-1.19c-.57,0-1.04-.09-1.47-.27-.72-.31-1.47-.4-2.13-.48-.52-.06-1.05-.15-1.48-.39-.28-.16-.58-.29-.88-.42-.55-.24-1.02-.45-1.36-.81-.43-.45-.92-.82-1.42-1.07-1.21-.6-2.11-1.6-3.07-2.66l-.23-.25c-.19-.21-.35-.55-.51-.91-.08-.19-.17-.37-.26-.55.12-.15.2-.23.29-.32.07-.08.19-.19.23-.21.94-.45,1.76-1.03,2.58-1.64.33-.25.71-.46,1.12-.68.29-.16.58-.32.86-.5.22-.14.43-.3.64-.47.16-.13.33-.26.5-.37.39-.23.79-.45,1.18-.67.73-.4,1.48-.81,2.18-1.31.55-.39,1.09-.81,1.63-1.23.58-.46,1.19-.93,1.8-1.35.79-.55,1.51-1.18,2.2-1.8.27-.24.55-.49.83-.72.46-.4.9-.76,1.37-1.03.45-.25.91-.6,1.35-1.02,1.1-1.06,2.2-2.13,3.29-3.2,1.08-1.05,2.16-2.11,3.25-3.15.03-.03.08-.06.15-.1l.6-.35-.11-.68c-.07-.42-.15-.83-.24-1.24l-.12-.57-.84-.27c-.21-.07-.42-.15-.63-.22-.19-.06-.38-.13-.56-.19-.03-.68-.04-1.37-.05-2.05v-.56c0-.73,0-1.56-.43-2.4,0-1.14,0-2.27-.02-3.4l1.25.62-.11-2.03c-.03-.6-.07-1.2-.08-1.8,0-.2,0-.41,0-.61v-.55s-.45-.3-.45-.3l-.09-.07c-.09-.07-.19-.14-.29-.2-.09-.05-.21-.12-.22-.57-.01-1.16-.04-2.32-.08-3.48-.02-.68-.04-1.36-.05-2.05-.01-.65-.1-1.19-.28-1.71-.06-.16-.06-.44-.06-.7v-.17c-.01-.55-.02-1.11-.02-1.66,0-1.04-.02-2.11-.08-3.17-.01-.23-.01-.46-.01-.69,0-.76,0-1.62-.39-2.5,0-.02,0-.17,0-.27,0-.1,0-.2,0-.3-.03-.95-.06-1.91-.07-2.86,0-.52-.09-1-.25-1.48-.05-.15-.08-.36-.09-.65-.03-1.01-.05-2.02-.07-3.02l-.02-.91c-.02-.9-.03-1.84-.39-2.81-.08-.21-.08-.54-.09-.86v-.25c-.04-.95-.06-1.91-.08-2.84l-.03-1.18.07-4.8s.03-2.86.02-3.03c-.03-.63-.05-1.25-.06-1.88l-.02-.73c0-.1,0-.2,0-.3.01-.34.03-.76-.12-1.19-.29-.82-.28-1.72-.28-2.67,0-.44,0-.88-.02-1.32-.04-.74-.03-1.48-.02-2.25,0-.35,0-.7,0-1.04v-1h-.08v-4.89c0-.57,0-1.22-.3-1.9-.03-.08-.03-.34-.04-.5-.01-1.31,0-2.58,0-3.86,0-.01,0-.03,0-.04.04-.02.08-.04.15-.06l.41-.16.17-.42c.2-.49.05-.8-.58-2.12-.21-.44-.56-1.18-.61-1.38-.04-.4-.09-.85-.11-1.31v-.35c-.02-.58-.03-1.23-.36-1.92,0-.01.02-.1.02-.18,0-.54,0-.99,0-1.44,0-.84,0-1.68-.02-2.52,0-.25.09-.51.22-.84.02-.06.05-.13.07-.19l.51-.23-.48-4.06h-.46s0-.06,0-.09c-.03-.39-.07-.88-.3-1.38-.02-.07-.02-.29-.02-.42v-.55c-.01-1.28-.02-2.57,0-3.85.03-1.34-.05-2.68-.11-3.97l-.05-.89c-.02-.34-.05-.7-.21-1.06-.12-.26-.13-.57-.14-1.01-.05-3.84-.09-7.68-.15-11.51v-.11c0-.34,0-.76-.17-1.18-.22-.57-.23-1.23-.24-1.92v-.1c0-.29-.02-.59-.04-.88-.03-.5-.05-.98-.02-1.43.04-.58-.1-1.08-.22-1.52-.09-.32-.16-.6-.15-.85.03-.71-.03-1.4-.08-2.07l-.02-.2c-.02-.26-.09-.48-.15-.62l-.29-.81-.84.17c-.87.18-1.66.55-2.23,1.05l-.26.23s-.11.56-.13.67l-.46.02-.2.68c-.15.5-.17.99-.19,1.43-.01.26-.02.52-.07.78-.03.16-.08.32-.18.55l-.35.81.31.18c-.05.19-.1.38-.15.56-.27,1-.52,1.95-.92,2.85-.2.46-.39.87-.48,1.35-.06.32-.08.65-.11.98-.02.24-.03.47-.07.7-.04.23-.1.45-.16.67-.09.32-.17.64-.22.96-.05.31-.06.63-.07.95-.01.38-.03.75-.12,1.03-.15.47-.22.91-.28,1.34-.04.28-.08.55-.15.82-.12.46-.22.92-.32,1.39l-.02.1v.1c-.02,1.13-.13,2.23-.34,3.25-.11.53-.25,1.01-.43,1.44l-.05.12-.02.13c-.04.26-.06.53-.09.8-.05.45-.09.87-.17,1.27-.26,1.23-.42,2.37-.47,3.47,0,.17-.11.38-.23.63-.02.04-.04.08-.06.12h-1.56c-.45,0-.95-.03-1.54-.11l-.93-.11-.49,2.55.56.37c.09.7.07,1.47.05,2.29-.02.78-.04,1.58.07,2.41.11.84.77,1.62,1.58,1.86.24.07.49.12.74.17.36.07.67.13.91.26.91.49,1.87.6,2.7.67.23.02.46.03.68.03.7,0,1.34-.09,1.95-.28.05,1.5.1,3.01.14,4.51.03,1.02.12,2.12.6,3.19.11.23.11.56.12.93.08,3.92.16,7.75.22,11.59.03,1.47.03,2.95.03,4.42v.36c0,.91.17,1.79.51,2.69.07.2.12.42.13.61.04,1.11.05,2.22.06,3.32,0,1.17,0,2.33,0,3.5v2.73c0,.58-.09,1.06-.27,1.48-.23.53-.35,1.13-.37,1.76-.02.68-.03,1.36-.04,2.04-.01.76-.02,1.51-.05,2.27-.06,1.91-.14,3.82-.24,5.73-.02.39-.05.8-.16,1.1-.34.9-.52,1.9-.55,3.14-.04,1.59-.11,3.18-.19,4.77v.32c-.03.48-.05.94-.18,1.28-.52,1.41-.58,2.83-.63,4.07-.05,1.19-1.26,1.4-1.62,1.44-.36.04-.71.05-1.07.05-.6,0-1.2-.04-1.8-.07l-.48-.03c-.35-.02-.71-.04-.94-.13-1.33-.54-2.69-.65-4.08-.72-.9-.05-1.67-.24-2.37-.59-.25-.13-.5-.21-.74-.25-.28-.04-.56-.08-.83-.11-.51-.06-.98-.11-1.42-.23-.29-.08-.58-.19-.87-.29-.46-.17-.94-.34-1.47-.45-.5-.1-1-.27-1.53-.44-.82-.27-1.67-.55-2.62-.63-.18-.07-.36-.14-.54-.21-.55-.22-1.11-.44-1.74-.56-.49-.09-.98-.27-1.49-.46-.88-.32-1.78-.65-2.85-.65-.12,0-.33-.1-.54-.21-.14-.07-.28-.14-.42-.2-.32-.13-.64-.28-.96-.42-.97-.44-1.96-.89-3.1-1.08-.77-.45-1.58-.68-2.36-.91-.57-.17-1.1-.32-1.58-.55-.58-.27-1.22-.34-1.77-.36-1.21-.06-2.41-.1-3.62-.13l-1.1-.03s-.09-.13-.09-.18c.06-.23.14-.48.21-.72.06-.2.13-.4.18-.6l.1-.33c.11-.37.24-.78.28-1.23.08-.88.12-1.77.16-2.66l.04-.73c.03-.63.13-1.12.3-1.54.18-.43.39-1.02.43-1.7.08-1.27.17-2.54.27-3.81v-.18c.02-.13.03-.33.06-.39.71-1.41.73-2.85.76-4.23,0-.29.01-.58.02-.87.17-3.93.22-7.4.16-10.61-.01-.57.07-1.05.25-1.46.29-.67.32-1.4.08-2.11-.17-.49-.32-1.02-.32-1.56-.02-1.82-.05-3.64-.07-5.46l-.09-5.81c-.06-3.91-.12-7.83-.15-11.74-.01-1.94.04-3.92.09-5.84.02-.73.04-1.47.05-2.2.05-.15.09-.26.11-.37.06-.1.46-.35.63-.35.49.21,1.09.38,1.66.55.48.14.96.28,1.43.46.8.3,1.61.53,2.39.76l.41.12c.17.05.32.16.44.27l-.25.39,3.03,1.96.58-.89c.34-.6.68-1.2,1.05-1.79.32-.51.59-1.04.86-1.55,0,0,.67-1.31.96-1.87.37-.72.73-1.43,1.11-2.15.08-.16.21-.33.33-.48l1.96.51-.7-2.37-.73-.15c-.16-.02-.38-.05-.41-.05-.59-.47-1.23-.65-1.8-.8-.13-.04-.27-.07-.4-.11-.95-.29-1.86-.68-2.83-1.1l-.39-.17c-.44-.19-.87-.42-1.3-.64l-.33-.17c.02-.07.04-.15.05-.24.23-2.04.84-4,1.44-5.83l.04-.12v-.12c.07-.88.36-1.71.84-2.39l.15-.2c.22-.3.48-.64.63-1.09.21-.6.18-1.19.15-1.67l-.04-.72-.23-.06c.04-.65.08-1.21.34-1.68l.1-.18.02-.21c.01-.14.1-.33.19-.54.16-.37.36-.83.35-1.41,0-.19.08-.42.18-.69.08-.22.16-.43.21-.66.05-.21.11-.41.18-.61.13-.42.26-.86.33-1.33.02-.17.09-.37.17-.59.11-.3.23-.64.28-1.04.06-.54.26-1.08.45-1.58.38-.98.61-1.99.83-2.96l.14-.63c.06-.25.13-.5.21-.74.11-.38.22-.76.3-1.14.03-.18.12-.4.21-.62.18-.45.41-1.02.36-1.7-.01-.2.07-.44.17-.73.12-.37.27-.79.27-1.28,0-.58.23-1.13.48-1.77l.86-2.19c.28-.72.56-1.44.87-2.15.12-.28.25-.55.39-.83.3-.62.61-1.27.82-1.98.6-.84.91-1.75,1.21-2.63.16-.47.31-.91.5-1.33.42-.91.78-1.85,1.12-2.76.13-.35.27-.71.4-1.06.06-.16.09-.31.1-.41,0,0,0,0,0,0,.44-.81.75-1.66,1.05-2.48l.08-.22c.33-.92.83-1.85,1.57-2.95.05-.07.1-.14.15-.21.15-.21.33-.44.46-.74.31-.7.72-1.36,1.17-2.06.29-.45.57-.9.83-1.37.5-.89,1.05-1.79,1.58-2.67,0,0,.83-1.35,1.07-1.73.49-.78.97-1.56,1.42-2.36.15-.26.32-.51.48-.76l.4-.6c.24-.37.48-.74.76-1.09.12-.15.24-.3.36-.44.51-.63,1.04-1.29,1.4-2.14.04-.1.11-.21.2-.3.88-.92,1.73-1.93,2.62-3.09l.14-.08.16-.24c.72-1.22,1.91-2.12,3.38-3.17.13-.09.39-.28.55-.3l.18-.03.16-.09c.36-.21.62-.47.83-.69.14-.14.26-.27.38-.34.85-.54,1.3-1.33,1.56-1.87.14-.29.31-.37.53-.41.35-.05.85-.24,1.25-.83.73-1.09,1.49-1.82,2.37-2.29.47-.25.84-.63,1.08-1.13,0-.02.01-.03.02-.05.32-.17.59-.38.83-.57.24-.19.44-.35.64-.43.57-.22,1.09-.51,1.59-.79l.44-.25c.27-.15.53-.33.77-.55l.14-.13c.38-.34.77-.69,1.14-1.09.68-.73,1.46-1.35,2.38-1.89,1.69-.99,3.21-2.14,4.61-3.24.04-.03.08-.07.12-.1.76,0,1.33-.34,1.8-.6.15-.09.3-.17.46-.24.27-.12.48-.27.68-.4.11-.08.22-.16.34-.21.77-.33,1.39-.75,1.91-1.29.06-.06.15-.13.46-.19l-.33.98,2.18-1.09c.38-.19.75-.38,1.13-.57,1.14-.57,2.32-1.16,3.43-1.87l.28-.18.12-.31c.11-.31.39-.58.78-.88l.1-.08c.81-.65,1.57-1.26,2.44-1.68l.33.06.31-.29c.57-.46,1.09-.85,1.59-1.21l1.13-.79-1.2-.89-.24-.16-.37-.06c-.46,0-.81-.24-1.3-.86-.4-1.18-1.37-1.73-2.1-2.04l-.16-.1c-.27-.15-.45-.34-.58-.61l-.39-.78-.82.28c-.34.12-.63.31-.85.57-.42.48-.71,1-.99,1.49l-.15.27c-.05.09-.21.36-.78.39-.12,0-.24,0-.37,0-.26,0-.52-.01-.78-.02-.21,0-.78-.02-.78-.02-.7,0-1.39.3-1.92.83-.39.39-.76.79-1.14,1.19-.49.52-.98,1.05-1.49,1.55-.1.1-.26.15-.44.15-.42-.04-.66-.11-.85-.24l-.26-.18h-.32c-.14,0-.25-.03-.37-.11-.45-.31-.74-.63-.93-1.02l-.61-1.26-.5-.09c-.11-.03-.21-.05-.32-.06-.45-.03-.84-.2-1.29-.54l-.28-.22h-.36c-.45.01-.85-.17-1.31-.56-.04-.03-.11-.12-.18-.26l-.06-.13c-.36-.72-.73-1.45-1.05-2.19-.3-.69-.3-1.29.02-1.9.14-.27.28-.54.41-.81.15-.3.29-.59.45-.88.21-.38.45-1.13-.22-1.97-.08-.1-.17-.2-.26-.3-.07-.07-.14-.15-.2-.23-.51-.65-.93-1.86-.97-2.75-.03-.72.17-1.4.62-2.16l.14-.23c.33-.55.66-1.1.97-1.66.25-.45.19-1.11-.14-1.53-.17-.22-.35-.42-.54-.62-.1-.1-.2-.21-.29-.32-.64-.75-.86-1.63-.67-2.77.01-.07.04-.13.07-.19.44-1.16,1.12-2.2,2.16-3.35.24-.27.56-.52.9-.78.22-.17.44-.34.65-.52.58-.5.53-1.2.51-1.5,0-.17-.06-.43-.21-.68-.28-.44-.38-.96-.37-1.76,0-.13,0-.23,0-.33-.11-1.52.5-2.43,2.25-3.36.49-.26,1.02-.51,1.64-.75.96-.38,1.48-1.14,1.5-2.18.02-.9.43-1.59,1.3-2.18.2-.14.4-.26.6-.39.2-.13.4-.25.59-.38.69-.46,1.48-.65,2.52-.79.24.09.44.12.64.12.44,0,.86-.17,1.22-.48.21-.19.42-.39.62-.6.14-.14.28-.28.43-.42.4-.37.8-.74,1.21-1.1.13-.11.29-.16.49-.17.31-.01.61-.02.92-.02h.23c.29,0,.53.09.76.26.24.17.5.32.76.45l.22.11h.37c.24,0,.49.01.73.02h.29s.25-.13.25-.13c.26-.15.47-.32.62-.51.43-.53,1-.75,1.9-.75.1,0,.2,0,.3,0,.49.02.97.06,1.46.1l.43.03c.36.19.74.29,1.15.29.56,0,1.04-.18,1.46-.34l.29-.1c.13-.04.25-.1.37-.15.08-.04.17-.08.26-.1.27-.08.53-.12.77-.12.3,0,.58.06.86.19.38.18.78.35,1.17.51l.17.07,1.17.03.25-.15c.11-.06.21-.14.3-.22.27-.24.52-.49.76-.76.15-.17.42-.29.72-.43l.17-.08c.17-.08.33-.12.49-.12s.33.04.5.12c.26.12.51.26.75.42l.26.17s.31,0,.31,0c.47,0,.88.03,1.28.1.1.02.19.02.29.03h.25s.32-.08.32-.08l.21-.1c.27-.12.54-.25.8-.38.37-.19.73-.29,1.09-.29.16,0,.32.02.48.05l.17.04.18-.02c.09-.01.19-.02.28-.02.27,0,.53.05.79.17l.64.27c.39.17.79.33,1.17.51l.43.2.56-.28c.12-.05.24-.11.35-.18.3-.17.67-.23,1.19-.27.09,0,.17-.01.25-.01.41,0,.81.08,1.21.26l.19.08h.34c.11,0,.21,0,.32.01.61.06,1.22.1,1.8.11h.24s.42-.2.49-.24c.22-.12.44-.18.69-.18h.57c.29-.02.57-.03.86-.03h.22c.38,0,.69.11.97.3l.18.13.22.04c.16.03.39.08.56.16.66.32,1.37.68,2.02,1.08l.12.07.06.02.38.21.47-.24c.42-.21.78-.37,1.15-.42l.2-.03.18-.1c.34-.2.76-.29,1.4-.29h.87c.96.02,1.88.04,2.77.16.27.04.54.1.81.16l.28.06h.21c.4.03.77.08,1.12.17l.08.02h.08c.23.03.49.1.76.19.42.13.9.27,1.45.27h0c.15,0,.39.16.58.3l.18.12c.14.09.26.2.38.31l.24.21.05.02c.65.48,1.22,1.08,1.82,1.72l.4.42c.56.58,1.21.84,1.66.98.26.07.45.12.63.18,1.32.37,2.47.88,3.49,1.54l.24.15c.26.16.48.3.57.44.4.62.94,1.12,1.7,1.6.48.3.81.62,1.01.97.51.93.99,1.59,1.55,2.16.96.98,1.66,2.17,2.26,3.31.43.82.84,1.65,1.24,2.48.43.89.86,1.78,1.33,2.65.19.35.28.77.38,1.21.11.47.22.96.44,1.46.36.78.55,1.56.58,2.39l.04.88c.08,1.63.15,3.18,0,4.73-.05.53-.2.98-.44,1.38-.37.61-.67,1.59.04,2.82.1.18.2.37.29.55.23.45.5.97.88,1.43l.33.39,1.06-.08c.15,0,.31-.01.46-.01h.77c.6,0,1.24-.03,1.9-.26.3-.11.65-.14,1.03-.18.57-.06,1.22-.13,1.88-.45.03,0,.2-.01.3-.02l.26-.02c.23-.02.45-.03.68-.04.25-.01.5-.02.75-.04.54-.04.84-.07,1.07-.07s.24,0,.75.3c.24.14.54.32.97.54.23.12.46.3.71.5l.07.05c.16.8.67,1.3,1.05,1.68.11.11.22.21.32.33.08.1.16.27.25.46.15.32.34.74.7,1.1.07.15.14.31.22.46.16.33.31.63.38.93l.03.12c.05.27.14.73.53,1.06.19.16.28.41.42.83.08.24.17.48.27.7l.08.18c.26.56.51,1.09.66,1.63.12.47.4.83.63,1.11.12.15.18.28.23.46l-1.32.36.91,1.18c.27.35.53.71.77,1.08.2.32.38.66.56.99l.58,1.07.36-.23c.08.2.18.39.28.58.16.3.29.57.31.81.03.47.29.83.46,1.07q1.25,1.8,2.09,3.8c.19.45.41.86.6,1.2.08.15.13.31.15.53l.02.16c.03.34.07.8.36,1.21.09.14.14.36.2.61.07.32.16.71.38,1.1.27.48.65,1.21.85,1.95.22.82.5,1.47.88,2.04.1.15.17.36.22.71.02.13.03.25.05.38.09.7.19,1.57.89,2.3l.04.13c.12.34.22.68.33,1.02.31.97.63,1.98,1.1,2.95.03.22.1.41.15.57.02.06.05.14.06.19l-.16.22v.7c0,.29.01.62.07.97.04.29.12.57.19.85.05.19.1.38.14.57.08.41-.04.58-.07.63-.31.44-.27.87-.18,1.16-.14.17-.27.35-.39.54-.18.31-.31.66-.37,1.02-.03.17-.12.33-.3.52-.49.52-.51,1.24-.07,1.75,0,.02-.01.19-.02.31,0,.14-.02.29-.02.43,0,.43-.05.6-.16.73-.26.35-.46.79-.57,1.24-.07.33,0,.61.05.79-.08.23-.21.48-.35.73-.17.31-.35.66-.48,1.05-.15.11-.29.23-.41.4l-.23.31c-.37.49-.75,1-1.06,1.57-.25.45-.42.49-.67.5-.8.04-1.46.54-1.77,1.34-.01.04-.04.06-.12.07-.48.08-.8.35-1.01.53-.04.04-.09.08-.13.11-.23.14-.44.32-.65.49-.34.28-.49.4-.67.4-.45,0-.84.25-1.17.75,0,0,0,.01-.01.02-.77.11-1.38.47-1.79.75-.38.26-.82.46-1.29.67-.33.15-.65.29-.97.46-.11.06-.22.12-.27.13-.01,0-.02,0-.04,0-.96,0-1.75.39-2.38.7-.28.14-.56.2-.89.2h0c-.44,0-.83.07-1.28.21-.44.14-.87.3-1.3.45l-.19.07c-.13-.03-.26-.04-.39-.04-.38,0-.69.12-.92.21-.08.03-.19.07-.24.08-.05,0-.12,0-.19,0-.19,0-.39.02-.58.03l-.28.02h-.18c-.13,0-.33,0-.54.07-1.03.34-2.13.36-3.29.39-.32,0-.63.02-.94.03-.33.01-.64.08-.9.15-.1.03-.19.06-.27.1-.13-.04-.27-.06-.41-.06-.19,0-.34.03-.46.06-.61-.2-1.19-.22-1.63-.22-.23,0-.46,0-.69.02-.21,0-.41.02-.61.02h-.12c-.38,0-.71.1-1,.19-.27.09-.53.13-.81.13-.35,0-.71-.07-1.1-.21-.4-.15-.79-.29-1.24-.29-.17,0-.35.02-.51.06-.12.03-.22.04-.33.04-.17,0-.44-.03-.85-.33-.3-.22-.63-.36-.89-.45-.2-.07-.41-.11-.61-.11-.33,0-.65.09-.94.27-.1.06-.19.09-.25.09-.02,0-.06,0-.11-.03-.55-.3-1.09-.39-1.57-.46-.01,0-.02,0-.04,0l-.3-.75-2.89,1.37.62.96c.06.09.06.26.06.89,0,.33,0,.75,0,1.29v.14c.02.44.03.83-.09,1.13-.06.14-.23.51-.06.94.22.57.2,1.16-.06,1.86-.13.36-.11.76.07,1.08.1.18.08.42-.02.92l-.06.32.13.29s0-.01-.01-.01c-.02,0-.05.09-.07.15-.07.22-.16.51-.15.86,0,.07,0,.15,0,.22-.01.38-.03.9.28,1.43.05.09.08.22.08.43,0,.24.01.48.03.71.02.48.04.93.01,1.36-.05.79-.03,1.58,0,2.33,0,.36.02.72.02,1.08,0,0,.04,8.28.05,10.31v.48c-.01.67-.02,1.42.19,2.18-.03.08-.05.17-.06.26l-.02.12c-.04.24-.09.53-.04.87.03.22.09.45.15.67.06.22.11.43.11.57-.01.03-.05.1-.08.17-.1.23-.24.55-.25.93,0,.24-.03.48-.05.72-.04.49-.08,1-.03,1.55.08.83.07,1.66.06,2.55v.23c0,.45,0,.87-.17,1.16-.27.5-.26,1.04.04,1.49.17.25.17.6.16,1.14v.12c-.04,1.38-.06,2.77-.09,4.15v.63c-.01.31-.01.58-.1.74-.25.48-.15.91-.1,1.12.16.68.16,1.38.15,2.12,0,.27,0,.53,0,.8,0,.45,0,.89,0,1.34,0,.99,0,2.02.09,3.05.05.55.14,1.07.27,1.57.19.73.19,1.25,0,1.71-.13.32-.21.68-.23,1.03-.03.56-.09,1.01-.3,1.37l-.08.13-2.17.04.99,1.59s.06.09.09.14c.13.32.19.73.17,1.27l-.05,1.37.89-.25c.02.06.03.13.05.19.07.28.14.56.24.83-.32.81-.34,1.63-.36,2.35v.43c-.03.29-.05.61-.13.81-.15.36-.15.68-.11.94l-1.51.03-.02.96c-.02,1.1,0,2.07.07,2.97l.07.98s1.13-.06,1.21-.06c-.04.47.06.91.3,1.33.02.03.03.06.04.08,0,.74,0,1.48-.02,2.22,0,.03-.07.17-.11.26-.3.66-.28,1.21.02,1.68.06.09.09.21.06.52-.02.25-.02.5,0,.75.01.38.02.61-.07.81-.35.77-.38,1.57-.35,2.32.07,2.22.05,4.48.02,6.68l-.02,2.14c0,.49-.08.85-.24,1.17-.19.36-.21.71-.21.97l-.33.06-.14.65c-.19.85-.4,1.69-.64,2.49l-.36,1.23.96.04c-.06.45.05.91.34,1.32.16.22.3.55.08,1.1-.31.73-.18,1.34-.02,1.84-.25.63-.29,1.25-.3,1.77-.02.98-.05,1.96-.09,2.93l-.03.89c0,.1,0,.2,0,.3,0,.03,0,.07,0,.1-.44.98-.4,1.94-.36,2.8,0,.21.02.42.02.63.01,1.39-.09,2.66-.31,3.86-.12.63-.02,1.14.08,1.57.05.21.05.33.04.35-.28.67-.32,1.35-.33,1.97-.02,1.59-.06,3.18-.1,4.78,0,.13-.01.44-.08.61-.4,1.05-.39,2.11-.39,2.97,0,.6-.02,1.19-.04,1.79l-.02.67c-.34,1.11-.35,2.2-.37,3.26,0,.45-.01.9-.05,1.35l-.02.3c-.02.4-.05.74-.17,1.02-.15.34-.16.68-.17.92v.12c-.02.29-.03.59-.04.88-.03.93-.06,1.81-.36,2.61l-.05.14-.05.83c-.03.5-.06,1-.08,1.5-.02.57-.03,1.14-.04,1.7l-.02.95c0,.09,0,.19,0,.28,0,.03,0,.06,0,.1-.35.73-.35,1.45-.36,2.08,0,.19,0,.37-.01.56,0,.1-.04.18-.06.21-.41.65-.44,1.28-.09,1.87l.22.62s.75.1.75.1c.98.44,1.92.92,2.88,1.41.36.19.74.39,1.03.63.73.61,1.54,1.18,2.48,1.73.55.32,1.06.75,1.6,1.2.19.15.37.31.56.46.42.34.88.57,1.28.78.16.08.33.17.49.26.52.3,1.05.58,1.58.87,1.3.7,2.53,1.35,3.63,2.22.48.37,1.07.62,1.76.74.5.09.91.27,1.26.55.88.72,1.91,1.21,3.25,1.55.87.5,1.78.73,2.66.95l.17.04c.14.04.38.21.59.37.07.06.15.11.22.16.02.04.03.1.04.14-.03.05-.06.1-.09.15-.13.2-.29.45-.39.76-.26.79-.77,1.47-1.32,2.2-.38.5-.76,1.02-1.09,1.6-.05.04-.11.07-.17.11-.11.07-.22.14-.32.21-1.21.89-2.46,1.82-3.84,2.45-.38.17-.73.28-1.07.32-.55.07-.99.28-1.38.46-.19.09-.37.18-.57.24-.21.06-.42.11-.63.15-.41.09-.87.19-1.32.39-.72.33-1.32.49-1.93.53-1.12.07-2.34.13-3.57.13-.53,0-1.05-.01-1.58-.04-.8-.04-1.64-.14-2.33-.52-.43-.24-.87-.36-1.36-.38-1.07-.04-1.95-.27-2.75-.71-.69-.38-1.4-.69-2.1-1l-.14-.06c-.41-.18-.82-.28-1.21-.38-.37-.09-.72-.17-1-.32-.59-.3-1.2-.45-1.82-.46h-.68c-.74,0-1.49.01-2.23.04-.36.01-.88.06-1.36.31-.45.24-.99.37-1.56.51-.68.16-1.38.33-2.06.7-.25.14-.62.17-.97.19-.57.03-1.14.04-1.72.04-1.15,0-2.33-.05-3.47-.1l-.45-.02c-.24-.01-.5-.1-.81-.21l-.29-.1c-.48-.16-.96-.32-1.45-.44-.42-.1-.73-.23-.97-.4-1.03-.73-2.06-1.46-3.08-2.21-.25-.19-.54-.49-.48-1.2.03-.31.08-.76.22-1.14.08-.23.19-.45.29-.67.24-.51.5-1.08.59-1.77,0-.06.01-.12.03-.17.85-1.63,1.68-3.35,2.47-5.02.81-1.7,1.65-3.45,2.54-5.14l.22-.15c.09-.06.23-.16.29-.18.25-.05.55-.05.78-.05h.41c1.04.02,2.07.05,3.1.08l2.24.06v-.1s3.01-.05,4.28-.08c1.46-.03,2.62-.27,3.65-.75l-.24-1.97c-.77.04-3.41.15-3.41.15h-.44c-.24,0-.56.01-.88.16-.41.19-.86.22-1.43.22h-.78c-.17,0-.33,0-.5,0-.37.02-.74.03-1.11.03-.62,0-1.24-.02-1.87-.04l-1.03-.03c-.23,0-.3-.04-.31-.04-.69-.31-1.37-.33-1.97-.35-.72-.02-1.38-.03-2.05-.03-.38,0-1.62-.01-1.62-.01-.73,0-1.42,0-2.04-.22l-.16-.06h-.25c-.12-.01-.24,0-.34.03-.13-.3-.21-.57-.21-.85.01-.43-.02-.86-.05-1.3l-.03-.46s0-.09,0-.14c0-.24.01-.6-.17-.97-.29-.56-.27-1.21-.26-1.95,0-.21,0-.43,0-.64h.98l-.53-1.37c-.32-.81-.48-1.52-.47-2.17v-.84s-.44-.08-.44-.08c0-.1-.01-.2-.02-.3-.03-.55-.07-1.06-.03-1.56.09-1.33-.21-2.52-.49-3.4l-.1-.3c-.11-.33-.21-.65-.27-.95-.04-.21-.05-.42-.06-.63-.01-.26-.03-.52-.07-.78-.03-.19-.02-.42-.02-.67.01-.48.03-1.08-.22-1.69-.1-.25-.11-.57-.11-.93,0-.29,0-.62-.06-.97-.06-.35-.07-.73-.08-1.13-.02-.73-.05-1.56-.37-2.39,0-.02,0-.16,0-.25,0-.13,0-.25,0-.37l-.14-3.26-.05-.14c-.31-.89-.36-1.86-.4-2.89-.01-.29-.03-.58-.04-.87v-.13s-.05-.13-.05-.13c-.35-1.03-.37-2.14-.38-3.32,0-.38,0-.76-.03-1.15-.02-.44-.13-.82-.22-1.15-.08-.26-.14-.49-.14-.68,0-.47-.02-.95-.04-1.42-.01-.49-.03-.97-.03-1.46-.03-2.8-.06-5.59-.08-8.39,0-.66-.03-1.3-.28-1.99-.05-.15-.06-.42-.06-.62-.03-1.59-.05-3.19-.07-4.79v-.2c0-.63,0-1.34-.33-2.08,0-.03,0-.18,0-.28-.01-.96-.09-2.05-.54-3.11-.07-.45-.17-.9-.27-1.35-.18-.82-.35-1.59-.34-2.36,0-.37-.17-.62-.25-.73l-.5-.91-.88.56-.5.23-.11.57c-.04.24-.14.5-.26.8-.18.44-.39.95-.42,1.56-.02.3-.12.64-.22,1-.11.38-.24.81-.29,1.27-.09.78-.31,1.6-.52,2.39-.08.32-.16.61-.24.91-.22.86-.43,1.67-.72,2.45-.28.76-.53,1.53-.78,2.3-.19.6-.38,1.19-.59,1.79-.18.5-.29.99-.4,1.47-.12.52-.24,1.02-.42,1.47l-.06.16v.17c-.03.32-.13.66-.24,1.03-.15.5-.32,1.07-.32,1.7-.28.96-.45,2-.53,3.17-.33.76-.39,1.53-.43,2.22-.01.17-.02.34-.04.52-.03.27-.09.54-.15.8-.11.5-.25,1.07-.21,1.7.03.46,0,.94-.02,1.44-.01.29-.03.59-.03.88-.01.68-.07,1.17-.21,1.62-.12.4-.16.8-.2,1.16-.03.27-.05.53-.11.75l-.08.29c-.13.46-.28.99-.3,1.57-.01.39-.01.77-.01,1.16v1.1c-.03.84-.04,1.69-.06,2.53-.01.53-.04,1.09-.21,1.62-.2.62-.21,1.27-.21,1.84v.33c-.05,1.44-.07,2.89-.08,4.33,0,.63-.04,1.11-.2,1.57-.17.49-.19.99-.2,1.42,0,0-.03.69-.04.91-.02.76-.05,1.47-.3,2.12-.2.51-.19,1.04-.18,1.47v.3c0,.48,0,.95,0,1.43,0,.56,0,1.12,0,1.68v.53c-.02.79-.02,1.54-.28,2.2-.17.43-.17.86-.18,1.21,0,.09,0,.19,0,.28-.02.36-.06.79-.18,1.19-.17.59-.25,1.19-.23,1.73.04,1.12,0,2.27-.04,3.39-.03.94-.07,1.88-.06,2.81,0,.29-.1.57-.26.92-.7.12-1.37.28-2.03.45-.41.1-.82.21-1.24.29-.5.11-1.03.14-1.49.15-1.3.05-2.61.07-3.91.09h-.14c-.38,0-.81.02-1.25.1l-.7.13-.1.71c-.04.29-.08.57-.12.86l-.14,1.18,1.35-.07c.37-.02.73-.04,1.09-.04.49,0,.89.04,1.25.13l.05.13c.07,1.12.09,2.3-.29,3.4-.14.41-.27.97.01,1.64.21.5.25,1.11.29,1.75l.02.28c.08,1.15.44,2.17.76,3.05.2.54.38,1.1.55,1.66.2.65.41,1.32.67,1.98,0,.12.01.21.03.29.03.14-.13.48-.3.58-.37.22-.63.35-.89.37-.75.06-1.5.1-2.25.15l-.61.04c-.84.06-1.59.31-2.15.52-.33.13-.72.23-1.21.32-.15.03-.31.05-.47.07-.53.07-1.12.14-1.71.49-.29.17-.61.31-.92.45-.55.25-1.17.52-1.73.97-1.16.93-2.49,1.57-3.91,2.25-.41.2-.82.39-1.22.59l-.32.07c-.67.14-1.36.28-2.06.6-.45.21-.96.34-1.5.48-.67.17-1.35.35-2.02.69l-2.37.41-.14.08c-.87.47-1.86.57-2.8.6-.79.03-1.59.09-2.38.15h-.24c-.32.03-.72.05-1.12.24-.83.41-1.72.46-2.48.46Zm-26.79-114.94c-.55,0-1,.38-1.22.71-.24.35-.25.82-.04,1.32.1.25.26.48.44.68.84.91,2.03,1.99,3.8,2.23.17.02.37.09.6.21.31.15.62.23.93.23.27,0,.54-.06.81-.17.46-.19,1.02-.22,1.61-.26l.42-.03c.24-.02.48-.02.72-.03.74-.01,1.57-.03,2.4-.37.26-.11.44-.27.56-.38l.83-.66-.65-.84c-.13-.17-.28-.37-.54-.51-.67-.39-1.37-.42-1.94-.43-.37-.01-.69-.02-.92-.12-.58-.26-1.21-.45-1.91-.57h-.06s-.06-.01-.06-.01c-.17,0-.34-.03-.51-.07h-.06s-.06-.02-.06-.02c-.22-.02-.36-.03-.49-.04-.95-.04-1.89-.26-2.9-.67-.43-.17-.87-.2-1.2-.2h-.59Zm126.97-111.54c.45,0,.9,0,1.35.03l1.98.09-1.1-1.65c-.28-.41-.59-.7-.86-.96-.14-.13-.27-.26-.4-.4-.14-.16-.17-.22-.17-.23-.17-.54-.31-1-.37-1.44l-.04-.32c-.1-.72-.2-1.47-.48-2.22,0,0,0,0,0,0,0,0,.01-.06.02-.11v-.1s.25-.46.25-.46l-.34-.53c-.41-.59-.58-.99-.55-1.33.01-.16.09-.36.2-.61l.41-.93-.94-.39c-.58-2.21-1.56-4.18-2.51-6.09l-.11-.23.41-.52-.6-.63c-.75-.8-1.55-1.64-2.3-2.5-.16-.18-.3-.49-.44-.79-.48-1.03-.95-1.82-1.51-2.48-.06-.07-.08-.24-.1-.37,0-.07,0-.14,0-.21l.09-.7-.62-.32c-.44-.22-.88-.34-1.33-.35-.62-.01-1.25-.04-1.87-.08-.36-.02-.61-.09-.76-.22-1.1-.93-2.33-1.62-3.51-2.3l-.54-.31-1.57.19s-.66.61-.86.8c-.5.46-1.02.93-1.51,1.45-.56.6-.96,1.3-1.22,1.77-.21.39-.39.72-.63.97-.34.35-.66.53-1.03.56-.08,0-.17,0-.26.01h-.3s-.17.08-.17.08c-.15.06-.31.1-.47.1-.19,0-.4-.05-.6-.14-.37-.16-.73-.27-1.07-.37-.4-.12-.77-.23-1.07-.4-.07-.04-.13-.07-.2-.1l-.09-.04-.17-.06-2.37-.56.9,1.89c.23.48.39.97.48,1.47l.04.24c.08.48.17,1.02.48,1.54.35.59.88.97,1.31,1.28l.08.06c1.18.84,2.28,1.87,3.28,3.06l.34.41.29-.03s.03.01.04.02c.09.04.22.18.34.31.27.29.63.68,1.22.88.12.04.31.18.49.32.23.17.48.37.8.52.08.04.21.17.34.29.26.26.64.64,1.22.8l.21.17c.65.52,1.33,1.06,2.16,1.44.45.2.82.51,1.26.87l.26.22c.92.74,1.81,1.34,2.71,1.83.1.05.21.1.32.15.09.04.24.11.28.15.8.8,1.71,1.41,2.58,2,.27.18.53.36.79.54.07.05.15.14.24.24.17.19.38.42.68.6.27.16.54.25.76.32.14.05.27.09.34.13.07.04.13.1.19.16.24.21.61.53,1.16.61.27.04.5.19.86.43.12.08.23.16.34.24.5.37,1.07.78,1.85.96.03.03.16.2.24.32.07.09.13.18.2.26l.22.64.73.05h.26Z"/><g id="Color"><path class="cls-2" d="m93.2,305c.02-1.64.05-3.24.07-4.84,0-.2.26-.45.46-.46,1.03-.06,2.07-.13,3.1-.19.94-.44,1.96-.65,2.95-.94.38-.11.73-.28,1.14-.33.88-.11,1.69-.46,2.49-.79.81-.34,1.6-.72,2.39-1.1.86-.42,1.35-1.13,1.4-2.07.1-2-.04-3.99-.11-5.99,0-.23-.13-.45-.2-.68q-.66-2.08-.69-3.97c0-.4,0-.8-.02-1.2-.01-.24,0-.51-.1-.7-.4-.74-.39-1.54-.39-2.34,0-.72-.02-1.42-.3-2.11-.17-.42-.1-.94-.15-1.42-.06-.63-.07-1.25-.32-1.87-.2-.5-.12-1.1-.19-1.65-.09-.71.08-1.44-.24-2.13-.27-.58,0-1.28-.4-1.86-.07-.1,0-.29,0-.44.02-.16.12-.34.07-.46-.35-.92-.31-1.88-.33-2.83-.04-1.44-.04-2.87-.06-4.31,0-.16.03-.34-.03-.47-.34-.8-.67-1.61-1.07-2.39-.14-.27-.47-.46-.8-.48-1.27-.08-2.55-.12-3.81.2-.23.06-.47.13-.7.14-1.84.04-3.67.07-5.51.11-.21,0-.46-.23-.5-.43-.11-.54-.05-1.11-.29-1.64-.13-.27-.11-.62-.11-.94-.01-1.44-.03-2.88,0-4.32.03-1.6-.08-3.2-.16-4.79-.01-.24-.03-.49-.12-.7-.21-.45-.22-.92-.22-1.41-.05-3.84-.09-7.67-.15-11.51,0-.32,0-.66-.1-.94-.3-.77-.3-1.56-.31-2.36-.01-.8-.1-1.6-.06-2.4.05-.82-.41-1.54-.38-2.35.03-.72-.04-1.44-.1-2.15-.02-.23-.13-.46-.21-.68-.08-.23-.08-.45.03-.69.72-1.6,1.44-3.2,2.14-4.8.22-.51.43-1.02.59-1.56.35-1.22.86-2.4,1.43-3.54.14-.28.35-.57.36-.87.03-.83.42-1.53.77-2.24.31-.65.62-1.28.78-1.99.14-.61.59-1.14.75-1.75.25-.94.62-1.82,1.14-2.62.53-.81.73-1.77,1.24-2.58.12-.19.15-.46.15-.69.01-.59.33-1.06.53-1.58.05-.13.19-.26.32-.33.5-.24,1.02-.45,1.53-.69.38-.18.63-.86.48-1.26-.75-1.93-1.28-3.94-2.36-5.73-.2-.34-.35-.72-.45-1.11-.1-.4-.28-.73-.54-1.05-.15-.18-.28-.4-.34-.63-.49-1.61-1.33-3.07-2.08-4.56-.18-.35-.4-.68-.46-1.09-.03-.23-.12-.5-.28-.64-.51-.45-.5-1.21-.99-1.62-.88-.74-1.19-1.87-1.96-2.68-.16-.17-.2-.45-.36-.61-.93-.91-1.47-2.07-2.11-3.17-.68-1.17-1.38-2.34-2.4-3.26-.24-.21-.47-.45-.74-.6-.36-.2-.61-.48-.81-.84-.24-.42-.7-.64-1.09-.91-.26-.18-.29-.63-.05-.84.3-.26.58-.62.94-.72.69-.19.97-.82,1.5-1.15.56-.36.92-.88,1.2-1.46.26-.54.68-.87,1.28-.96.25-.04.43-.19.57-.4.72-1.07,1.57-2,2.73-2.61.29-.15.5-.39.64-.68.07-.14.12-.35.24-.4.68-.26,1.11-.89,1.8-1.15.66-.25,1.28-.64,1.91-.98.21-.11.4-.25.58-.41.42-.37.84-.74,1.22-1.15.77-.82,1.63-1.5,2.61-2.07,1.58-.93,3.05-2.03,4.49-3.16.18-.14.42-.33.62-.31.78.04,1.33-.48,1.98-.76.36-.16.66-.46,1.02-.62.6-.26,1.13-.59,1.57-1.06.28-.3.65-.42,1.06-.49.38-.07.74-.27,1.11-.42.18-.07.32-.03.4.15.03.07.05.16.03.22-.23.68-.43,1.36-.7,2.02-.3.73-.68,1.43-.71,2.26-.02.48-.39.85-.52,1.32-.25.93-.54,1.83-.49,2.81.03.63.02,1.27-.28,1.87-.1.2-.1.46-.11.7-.03,2.16-.04,4.32-.1,6.47-.02.68.27,1.23.57,1.79.23.43.56.77.92,1.09.45.4,1.07.44,1.52.05,1.21-1.03,2.49-1.99,3.64-3.1,1.09-1.05,2.32-1.95,3.65-2.7,1.33-.74,2.56-1.62,3.81-2.46.4-.27.8-.53,1.23-.74.57-.28,1.13-.57,1.63-.99.42-.35.97-.54,1.46-.82.88-.51,1.77-.76,2.67-.05.66.06,1.2.43,1.76.73.7.37,1.39.75,2.19.93.55.12.98.52,1.28,1.02.49.82.82,1.73,1.42,2.49.09.11.08.3.14.45.36.97.6,1.99,1.26,2.82.61,1.91,1.66,3.61,2.55,5.39.89,1.79,1.79,3.56,2.67,5.35.18.36.31.74.49,1.09.08.16.1.29.02.45-.17.37-.17.77-.18,1.17-.04,1.03,0,2.08-.4,3.07-.03.07-.05.18-.01.24.57.9-.24,1.68-.19,2.54-.4.88-.29,1.89-.7,2.77-.1.21-.14.46-.16.69-.05.64-.06,1.28-.11,1.91-.05.55-.43,1.04-.35,1.62.09.75-.42,1.36-.46,2.09-.04.72-.11,1.43-.16,2.15-.4.81-.39,1.7-.47,2.57-.02.23-.08.48-.17.69-.21.45-.24.92-.25,1.4-.01.4-.03.8-.05,1.2-.52.89-.31,1.87-.39,2.82-.03.32,0,.66-.11.95-.24.69-.36,1.38-.34,2.11,0,.24,0,.5-.1.71-.47,1.14-.47,2.33-.5,3.53-.02.48-.09.94-.22,1.41-.14.53-.16,1.1-.17,1.66-.04,1.92-.06,3.84-.09,5.75-.01.79.13,1.61-.3,2.35-.04,1.12-.12,2.23-.12,3.35-.01,1.28.04,2.56.05,3.84,0,.4-.02.81.18,1.17.08.16.1.29.03.46-.2.45-.19.93-.2,1.41-.02,1.28-.03,2.56-.07,3.84-.03.95.14,1.93-.33,2.83-.03.56-.09,1.12-.09,1.68-.01,2.08,0,4.16-.02,6.24,0,1.12-.03,2.24-.05,3.35,0,.16,0,.34-.06.47-.43.83-.27,1.72-.3,2.59-.01.4,0,.8,0,1.2,0,.48.02.96,0,1.44-.02.41.28.8.2,1.15-.09.42.06.77.08,1.15.06.96.07,1.92.09,2.88.02.96.04,1.92.05,2.88,0,.56.01,1.12,0,1.68-.02,1.12-.05,2.24-.09,3.35-.01.32.02.66-.1.95-.31.77-.25,1.57-.29,2.36-.05.96-.06,1.92-.08,2.88-.03,1.07.16,1.34,1.27,1.67.14.04.34.06.47,0,1.15-.56,2.28-1.15,3.43-1.7.72-.34,1.12-.87,1.15-1.67,0-.33.16-.61.3-.9.47-.92.85-1.88,1.51-2.71.39-.49.58-1.13.66-1.78.64-1.23.86-2.55.89-3.93.01-.56-.04-1.15.13-1.66.18-.55.04-1.08.16-1.62.2-.94.26-1.9-.11-2.83-.09-.22-.08-.46.03-.69.18-.37.23-.76.22-1.17-.02-2.08-.04-4.16-.05-6.24,0-.32-.02-.63-.15-.94-.26-.62-.11-1.26-.12-1.9.4-.82.28-1.72.36-2.59.04-.39.1-.8.22-1.17.14-.42-.27-.77-.11-1.16.21-.53.33-1.07.29-1.64-.04-.57.08-1.1.29-1.63.14-.36.18-.77.22-1.17.07-.63.08-1.27.34-1.88.09-.21.14-.51.06-.7-.33-.72-.12-1.37.06-2.07.17-.69.1-1.44.28-2.13.17-.63.25-1.25.27-1.89.01-.64.03-1.28.07-1.92.04-.63.01-1.27.24-1.89.13-.36.09-.79.13-1.18.1-1.11-.02-2.24.39-3.32.08-.21.02-.48.04-.72.03-.4.03-.8.1-1.19.11-.62.32-1.23.4-1.86.09-.63.08-1.27.11-1.91.52-1.04.34-2.19.47-3.29.07-.56.28-1.08.35-1.62.09-.71.09-1.43.13-2.15.03-.64.04-1.27.28-1.88.11-.28.09-.63.11-.94.08-.87-.02-1.75.41-2.58.13-.26.07-.63.09-.95.03-.8.05-1.6.08-2.4,0-.24-.02-.5.07-.71.42-.99.35-2.04.4-3.07.01-.24-.05-.51.05-.71.47-.99.3-2.04.32-3.07.06-2.32.07-4.64.1-6.95,0-.24-.01-.51.1-.7.33-.6.28-1.23.28-1.87,0-2.24,0-4.48,0-6.72,0-.64.06-1.28-.23-1.89-.1-.21-.1-.46-.12-.7-.1-1.35.01-2.72-.49-4.02-.05-1.2-.11-2.39-.16-3.59-.02-.32-.05-.63-.08-.95-.05-.4-.44-.62-.86-.48-.15.05-.29.11-.44.14-.17.02-.3-.07-.34-.24-.02-.08-.04-.18,0-.24.18-.26.36-.53.59-.75.67-.68,1.37-1.34,2.05-2.02,1.29-1.3,2.96-1.82,4.66-2.27.22-.06.49-.07.71,0,1.06.32,2.18.53,3.08,1.25.76.61,1.75.76,2.5,1.37,1.27.43,2.5-.28,2.65-1.61.05-.46,0-.98-.17-1.41-.25-.61-.29-1.24-.33-1.87-.02-.32.02-.66-.08-.95-.32-1-.25-2.06-.48-3.07-.14-.62-.28-1.25-.47-1.84-.34-1.06-.63-2.14-1.16-3.13-.52-.99-1.01-1.99-1.49-3-.1-.21-.11-.46-.13-.69,0-.06.06-.15.11-.19.04-.03.13-.04.18-.02.07.02.14.08.21.11.6.25.83.94,1.49,1.16.51.17.91.65,1.4.89.58.28.85.99,1.56,1.06.75.59,1.48,1.23,2.35,1.63.67.3,1.18.77,1.74,1.22.8.64,1.65,1.24,2.56,1.73.28.15.61.25.82.47.96.97,2.14,1.66,3.24,2.43.34.24.53.6.86.8.33.2.76.25,1.09.44.34.2.59.59.99.64.5.07.88.32,1.28.6.59.4,1.11.88,1.85,1.06.48.11.72.6,1.03.97.1.11.18.29.17.43-.03.9.33,1.71.5,2.56.14.71.46,1.35.57,2.07.11.7.26,1.41.45,2.09.25.92.6,1.82.52,2.8.2.6.5,1.19.46,1.84-.04.66.38,1.22.4,1.86.02.64.05,1.28.12,1.91.02.23.13.47.27.65.14.18.34.4.54.42.63.07,1.27.09,1.91.07.42-.01.72-.32.94-.66.04-.06.08-.15.07-.22-.07-.3-.23-.61-.22-.9.01-.3.22-.61.09-.93-.19-.45-.32-.9-.33-1.39-.01-.32.01-.68-.13-.94-.38-.73-.31-1.55-.61-2.3-.35-.87-.65-1.79-.68-2.76,0-.31-.14-.61-.25-.91-.72-1.96-1.81-3.73-2.99-5.43-.31-.45-.77-.8-1.15-1.21-.16-.17-.31-.37-.38-.59-.17-.53-.33-1.07-.41-1.61-.11-.79-.19-1.58-.47-2.33-.08-.21-.03-.47-.04-.71,0-.21.22-.52.39-.53,1.2-.03,2.4-.07,3.6-.1.8-.02,1.59-.04,2.36-.31.29-.1.63-.11.94-.12,1.04-.04,2.08-.03,3.12-.09.95-.05,1.92.05,2.84-.33.28-.11.63-.1.95-.1,1.14.02,2.21-.32,3.26-.66.98-.32,1.96-.63,2.98-.82.69-.13,1.35-.46,2.01-.72,1.18-.47,2.35-.97,3.54-1.45.29-.12.61-.23.91-.24.51-.03.91-.22,1.29-.54.3-.26.65-.46.99-.67.41-.26.6-.17.71.34.03.15.02.31.08.45.23.59.65,1.1.7,1.77.01.22.19.43.32.63q1.27,1.84,2.16,3.95c.15.37.34.72.54,1.07.16.29.24.58.28.91.04.31.04.68.2.92.38.55.32,1.22.63,1.79.39.69.74,1.42.94,2.18.17.63.38,1.2.74,1.73.23.34.32.72.38,1.12.12.77.1,1.6.74,2.21.11.1.14.28.19.43.46,1.35.82,2.73,1.47,4.01.01.53.49,1.03.08,1.59.02.4,0,.8.06,1.19.07.47.24.92.33,1.39.09.48.05.97-.24,1.38-.22.32.24.58.04.88-.18.26-.41.49-.57.76-.12.2-.2.44-.24.67-.07.42-.28.74-.55,1.04-.14.15-.16.28-.04.41.36.42.2.91.21,1.38,0,.49-.05.94-.36,1.35-.19.25-.32.56-.39.87-.05.2.14.46.09.66-.2.77-.74,1.41-.96,2.18-.05.2-.36.31-.5.49-.42.58-.87,1.14-1.22,1.77-.34.62-.77.98-1.49,1.02-.43.02-.74.31-.89.7-.16.42-.46.62-.88.7-.33.06-.53.35-.8.51-.6.37-1.02,1.04-1.84,1.04-.12,0-.26.18-.34.31-.14.21-.29.42-.53.44-.58.04-1.09.3-1.54.61-.74.5-1.58.77-2.35,1.18-.21.11-.45.25-.67.24-.75-.02-1.41.29-2.04.61-.45.22-.89.31-1.38.3-.31,0-.63.07-.93.16-.61.19-1.2.42-1.8.63-.57-.33-1.04.21-1.59.18-.32-.02-.64.03-.96.05-.16,0-.33-.02-.48.03-1.47.48-2.99.4-4.5.47-.24.01-.47.06-.7.12-.22.06-.41.3-.66.14-.31-.2-.62.08-.9-.02-.93-.34-1.9-.17-2.85-.18-.23,0-.47.07-.69.14-.87.29-1.72.22-2.56-.09-.38-.14-.77-.3-1.16-.2-.76.2-1.4,0-2.02-.44-.19-.14-.42-.24-.64-.32-.23-.08-.46-.06-.68.08-.44.27-.92.33-1.37.08-.51-.28-1.07-.31-1.61-.41-.23-.04-.38-.29-.39-.53-.02-.48-.05-.96-.09-1.44-.02-.23-.03-.5-.14-.69-.3-.52-.29-1.06-.28-1.63,0-.64.04-1.28-.02-1.92-.1-1.02.13-2.08-.31-3.07.2-.46.25-.92.04-1.39.4-1.41.24-2.85.23-4.28,0-.48-.08-.94-.18-1.42-.08-.35.12-.76.16-1.15.03-.24.06-.51-.04-.71-.55-1.23-.28-2.52-.35-3.79-.06-1.19-.14-2.4.27-3.56-.38-.57.19-1.06.14-1.61-.04-.47.05-.96.05-1.44,0-.65.07-1.28.4-1.85.41-1.76,1.33-3.23,2.66-4.45.23-.21.45-.46.62-.72.08-.11.09-.33.03-.45-.06-.12-.23-.22-.37-.25-.55-.14-1.11-.08-1.67-.01-.33.04-.61.18-.85.4-1.52,1.34-2.67,2.96-3.47,4.81-.28.65-.45,1.35-.63,2.04-.06.22,0,.47.04.71.02.15.17.32.13.45-.47,1.81-.18,3.66-.28,5.49-.1,1.83.02,3.68.07,5.51,0,.31.19.62.2.93,0,.31-.15.61-.18.93-.03.32-.09.67.01.95.47,1.32.33,2.68.31,4.03,0,.31-.02.66-.15.93-.27.62-.25,1.25-.2,1.89.02.31.21.61.21.92,0,.31-.2.61-.22.92-.03.63-.16,1.32.13,1.89.35.7.72,1.43,1.3,2,.06.06.11.11.17.17,1.99,2.02,1.56,1.22,1.64,4.19.01.56.05,1.12-.16,1.66-.03.07-.08.16-.06.22.33.87.26,1.72-.06,2.57-.03.07-.03.17,0,.23.3.52.2,1.06.09,1.61.22.49-.15.92-.14,1.39,0,.4-.07.8.14,1.17.17.29.21.6.22.92.01.72.08,1.44.04,2.16-.06,1.12,0,2.23.01,3.35.02,3.43.03,6.87.05,10.3,0,.87-.08,1.76.22,2.61.04.12-.08.3-.1.45-.03.23-.1.48-.06.71.07.47.28.93.28,1.39,0,.37-.32.74-.33,1.12-.02.72-.15,1.42-.08,2.15.09.95.07,1.92.07,2.88,0,.56,0,1.12-.29,1.64-.09.16-.1.3,0,.44.39.57.34,1.21.33,1.85-.04,1.52-.06,3.04-.09,4.55,0,.48.03.96-.21,1.41-.08.15-.04.28,0,.45.24,1.02.15,2.06.17,3.1.02,1.44-.04,2.88.09,4.31.04.48.12.94.24,1.41.2.77.27,1.57-.05,2.35-.09.22-.14.46-.15.69-.03.64-.11,1.26-.43,1.82.13.29.28.61-.25.62-.96.02-1.92.04-2.88.06-.48.01-.94.09-1.4.28-.36.15-.77.24-1.16.24-.82,0-1.53.43-2.31.56-.21.04-.42.22-.59.39-.34.33-.65.7-.99,1.04-.69.69-1.25,1.43-1.14,2.5.04.41-.25.76-.29,1.15-.09.87-.2,1.75.13,2.61.08.21.07.48,0,.69-.13.4-.18.77-.01,1.16.14.31.13.62-.01.93-.15.31-.15.61-.02.92.03.07.08.17.06.23-.52,1.4-.14,2.85-.26,4.27-.09,1.11-.01,2.23,0,3.35.03,1.6,0,3.19-.06,4.79-.06,1.83.05,3.67.11,5.51,0,.23.13.46.21.68.08.24.06.46-.02.7-.08.22-.2.45-.21.68-.03,1.28-.03,2.56-.03,3.83,0,.32.4.82.71.9.53.15,1.07.3,1.61.43.38.09.71-.34,1.13-.08.42.26.94.16,1.41.21.4.04.8.01,1.2.02,1.2.04,2.39-.19,3.59,0,.22.03.26.17.16.35-.04.07-.06.15-.1.22-.24.37-.28.75-.03,1.11.46.66.46,1.36.17,2.05-.17.41-.12.75,0,1.14.07.21.06.49-.02.69-.18.46-.22.92-.23,1.41-.03,1.28-.07,2.56-.11,3.84,0,.24.05.51-.05.71-.48.99-.29,2.04-.28,3.07.01,1.36-.08,2.72-.33,4.05-.08.42-.02.77.07,1.15.07.3.11.67,0,.93-.22.54-.26,1.08-.27,1.64-.02,1.6-.06,3.19-.1,4.79,0,.32-.03.65-.14.94-.33.85-.33,1.72-.32,2.6,0,.88-.04,1.76-.06,2.64-.48,1.47-.3,3.01-.42,4.51-.04.56-.04,1.11-.27,1.64-.09.21-.08.47-.09.7-.08,1.27,0,2.56-.45,3.78-.04.72-.09,1.44-.12,2.15-.03.88-.04,1.76-.06,2.64,0,.24.05.52-.05.71-.39.76-.26,1.56-.31,2.35-.02.23-.09.48-.21.67-.18.29-.26.53-.05.86.12.19.15.44.21.67.05.22-.1.53-.29.59-.45.15-.86.4-1.37.41-1.04.02-2.08.08-3.11.13-.56.02-1.11,0-1.65.24-.28.12-.62.11-.94.12-1.12.06-2.24.1-3.35.14-.32.01-.68-.05-.95.07-1,.46-2.05.27-3.08.32-1.35.07-2.72-.01-4.08-.04-.24,0-.49-.03-.7-.13-.53-.24-1.09-.25-1.64-.27-1.04-.03-2.08-.02-3.11-.03-.95-.01-1.91.05-2.84-.27-.19-.07-.45.13-.68.15-.14,0-.35-.08-.4-.18-.28-.57-.56-1.14-.54-1.81.02-.56-.04-1.12-.08-1.67-.01-.24.04-.51-.06-.71-.58-1.14-.29-2.36-.39-3.54-.03-.32.31-.59.63-.52.54.11,1.08.27,1.62.36.47.08.99-.02,1.43.13.83.29,1.71.38,2.54.65.7.23,1.44.15,2.11.38.61.21,1.23.3,1.87.39.86.12,1.69.47,2.59.34.24-.03.51.04.71-.05.91-.41,1.89-.26,2.84-.35.56-.05,1.11-.08,1.64-.31.21-.09.46-.14.7-.15.88-.04,1.74-.21,2.6-.39.7-.14,1.44-.13,2.11-.35.6-.19,1.16-.53,1.75-.78.44-.19.9-.33,1.33-.53.22-.1.37-.3.4-.55.09-.79.19-1.57.36-2.35.03-.14-.19-.28-.35-.23-.45.13-.92.26-1.35.46-1.3.6-2.61,1.17-4,1.56-1.07.3-2.13.66-3.25.74-.31.02-.64.07-.93.19-.46.19-.93.2-1.41.23-.64.04-1.28.05-1.92.07-.4,0-.78.1-1.17.2-.93.25-1.88.36-2.82,0-.29-.11-.62-.13-.93-.18-.32-.05-.66-.02-.94-.14-.59-.26-1.19-.42-1.84-.49-.55-.06-1.05-.36-1.62-.38-.23,0-.48-.08-.7-.16-1.28-.48-2.6-.74-3.95-.86-.25-.02-.45-.23-.46-.46-.03-.8-.12-1.6-.07-2.39.07-1.05-.14-2.04-.45-3.03-.14-.45-.31-.9-.39-1.37-.09-.47-.06-.96-.13-1.43-.11-.71.11-1.46-.17-2.13-.29-.7-.12-1.42-.24-2.12-.18-1.1.03-2.23-.4-3.31-.11-.28-.04-.63-.06-.95-.04-1.04-.09-2.07-.13-3.11-.46-1.3-.41-2.67-.5-4.02-.53-1.54-.39-3.16-.46-4.74-.03-.66-.36-1.22-.37-1.86-.01-.96-.06-1.92-.07-2.88-.03-2.8-.06-5.6-.08-8.4,0-.56-.02-1.11-.22-1.65-.11-.29-.12-.63-.12-.94-.03-1.6-.05-3.2-.07-4.8,0-.64.02-1.27-.25-1.88-.09-.21-.09-.47-.09-.7-.01-.97-.1-1.92-.51-2.81-.2-1.34-.65-2.63-.64-4,0-.07-.07-.14-.11-.21-.04.03-.12.05-.13.08-.12.79-.63,1.45-.68,2.27-.05.79-.43,1.52-.52,2.32-.1.86-.33,1.72-.55,2.56-.31,1.15-.56,2.32-.98,3.44-.5,1.34-.89,2.72-1.37,4.07-.35.98-.45,2.02-.85,2.98-.05.96-.6,1.83-.55,2.81-.32,1.07-.48,2.17-.55,3.29-.41.81-.38,1.7-.46,2.57-.07.79-.4,1.53-.35,2.35.05.79-.04,1.6-.05,2.4-.01.64-.06,1.26-.25,1.89-.18.6-.14,1.27-.3,1.88-.15.54-.33,1.07-.35,1.63-.02.64-.01,1.28-.02,1.92-.02.96-.03,1.92-.06,2.88-.02.64-.06,1.25-.26,1.88-.19.59-.16,1.26-.18,1.9-.04,1.44-.06,2.88-.07,4.32,0,.64-.04,1.26-.25,1.89-.15.44-.14.94-.16,1.42-.06,1.03,0,2.07-.39,3.07-.17.43-.11.95-.11,1.43-.01,1.04.01,2.08-.01,3.12-.02,1.03.04,2.07-.34,3.07-.14.36-.1.79-.12,1.19-.03.48-.08.95-.22,1.41-.13.45-.21.94-.2,1.41.08,2.08-.12,4.15-.09,6.23,0,.59-.22,1.09-.47,1.59-.06.13-.22.27-.35.28-1.19.17-2.33.53-3.5.78-.54.12-1.11.16-1.66.18-1.36.05-2.72.07-4.07.1-.56,0-1.11,0-1.64.25-.21.09-.47.1-.7.1-1.12,0-2.24.06-3.36-.01-.95-.06-1.88-.33-2.78-.61-.39-.12-.76-.21-1.17-.21-1.52,0-3.04.02-4.56,0-.63-.01-1.29-.03-1.9-.21-.91-.27-1.9-.33-2.73-.86-.6-.38-1.33-.52-1.87-1.05-.21-.2-.57-.27-.86-.37-.52-.19-1.06-.35-1.58-.55-.12-.05-.25-.24-.26-.37-.04-.88-.06-1.76-.07-2.63-.01-.8.07-1.6-.32-2.35-.07-.13-.09-.31-.09-.46-.02-1.52-.04-3.04-.05-4.55,0-.25.22-.34.48-.22.79.39,1.57.78,2.36,1.15.3.14.54.33.78.55.77.73,1.66,1.25,2.72,1.4.57.08,1.07.35,1.55.59.86.44,1.78.7,2.66,1.06.76.32,1.59.18,2.33.49.54.23,1.11.12,1.65.22.47.08.91.29,1.37.41.23.06.48.06.71.06,1.28.02,2.56.03,3.84.06.71.02,1.44-.1,2.14.18.12.05.3,0,.44-.05.39-.14.79-.11,1.18-.11,1.2-.01,2.43.13,3.58-.2,1.52-.44,3.05-.91,4.49-1.59.68-.32.85-.51.76-1.52-.03-.32-.31-.6-.6-.64-.57-.07-1.11,0-1.64.19-1.72.63-3.49,1.1-5.29,1.45-.34.07-.6-.02-.91-.05-.63-.08-1.31-.23-1.89.04-.58.27-1.08-.25-1.62.04-.51.28-1.09.16-1.65.17-.48.01-.94-.05-1.41-.21-.37-.12-.78-.12-1.18-.13-.96-.04-1.92.02-2.82-.41-.07-.03-.15-.04-.23-.05-1.78-.11-3.38-.83-5.04-1.38-1.43-.48-2.84-1.04-4.26-1.53-.31-.11-.58-.26-.82-.48-.23-.22-.51-.39-.73-.62-.68-.68-1.4-1.3-2.23-1.8-.52-.31-.7-.8-.71-1.42-.02-1.84-.09-3.68-.13-5.51-.01-.48-.06-.94-.23-1.4-.13-.36-.11-.78-.12-1.18-.03-1.6,0-3.2-.1-4.8-.05-.95.09-1.92-.32-2.84-.12-.27-.07-.63-.08-.95-.03-.96-.06-1.92-.07-2.88,0-.4-.07-.79-.2-1.17-.1-.3-.13-.62-.14-.94-.04-1.28-.06-2.56-.08-3.84-.02-.88-.02-1.75-.33-2.6-.16-.44-.14-.94-.15-1.42-.04-1.36-.07-2.72-.1-4.03Z"/><path class="cls-2" d="m52.9,231.21c.05-.88.05-1.76.49-2.56.06-.64.54-1.17.53-1.83-.01-.58.29-1.07.43-1.61.15-.62.4-1.22.48-1.84.08-.57.39-1.05.45-1.61.07-.65.28-1.24.52-1.84.44-1.11.66-2.29.93-3.45.15-.62.38-1.22.49-1.84.13-.71.62-1.32.56-2.07-.05-.75.43-1.38.44-2.1,0-.82.32-1.55.62-2.29.15-.37.29-.74.43-1.11.41-1.03.8-2.08,1.25-3.1.42-.95.94-1.85,1.22-2.86.9-1.16,1.12-2.62,1.71-3.92.56-1.23,1.01-2.51,1.5-3.77.06-.15.04-.33.12-.46.47-.84.78-1.73,1.11-2.63.41-1.12,1.01-2.17,1.68-3.16.18-.26.4-.51.52-.8.54-1.25,1.38-2.33,2.04-3.51.62-1.11,1.3-2.2,1.96-3.29.7-1.16,1.45-2.29,2.11-3.47.19-.35.42-.67.65-1,.35-.53.69-1.07,1.08-1.57.59-.75,1.24-1.46,1.63-2.36.09-.22.23-.42.39-.59.94-.98,1.8-2.03,2.63-3.11.09-.12.26-.18.4-.24.23-.12.52-.1.68.05,1.27,1.19,2.73,2.22,3.57,3.82.83.77,1.3,1.81,1.94,2.72.59.85,1.33,1.58,1.82,2.52.37.7.84,1.35,1.21,2.06.48.92.88,1.88,1.52,2.71.14.18.21.42.3.64.21.51.4,1.04.64,1.54,1.42,3.03,2.85,6.05,4.28,9.07.1.22.25.42.29.65.04.23.07.53-.05.7-.72,1.06-1.27,2.21-1.92,3.31-.69,1.17-1.24,2.41-1.81,3.63-.58,1.23-1.14,2.46-1.7,3.69-.1.21-.14.45-.22.68-.59,1.73-1.32,3.41-2,5.11-.12.29-.3.57-.37.87-.14.67-.59,1.12-1,1.6-.13.15-.45.18-.66.07-.28-.15-.59-.27-.83-.47-.42-.35-.86-.72-1.19-1.15-.29-.38-.59-.75-.92-1.1-.55-.6-1.22-1.04-1.94-1.37-.8-.37-1.56-.76-2.26-1.32-.43-.34-.94-.61-1.52-.67-.33-.03-.6-.19-.87-.36-.44-.27-.93-.25-1.39-.11-.74.23-1.07.67-.94,1.43.07.4.18.74.6.95,1.14.57,2.21,1.28,3.18,2.1.85.72,1.88,1.21,2.66,2.03.78.81,1.58,1.58,2.36,2.38,1.06,1.09,2.12,2.18,3.17,3.28.34.36.54.73.32,1.28-.38.96-.73,1.93-.84,2.98-.04.39-.48.59-.89.49-1-.25-1.97-.6-2.96-.92-2.94-.93-4.37-1.67-6.78-3.39-.6-.43-1.15-.85-1.48-1.52-.03-.07-.08-.14-.14-.19-.79-.79-1.44-1.7-2.1-2.6-.34-.47-.81-.76-1.43-.7-.32.03-.64,0-.96.03-.54.05-1.08,1.01-.83,1.5.29.57.63,1.11.94,1.66,1.14,1.01,1.86,2.38,2.95,3.44.92.9,1.82,1.79,2.93,2.45.89.52,1.66,1.23,2.62,1.66,1.02.46,2.13.65,3.15,1.09.52.23,1.09.19,1.65.21.71.03,1.44-.1,2.14.13.18.06.28.2.23.37-.39,1.37-.69,2.77-1.27,4.08-.16.36-.34.74-.41,1.12-.1.55-.08,1.12-.17,1.67-.09.55-.3,1.07-.38,1.62-.1.71-.01,1.47-.23,2.14-.22.7-.24,1.42-.42,2.11-.19.77-.34,1.55-.53,2.32,0,.03-.12.07-.14.05-.37-.31-.73-.62-1.08-.94-.6-.53-1.27-.95-2.01-1.28-1.74-.79-3.53-1.46-5.22-2.37-.41-.22-.86-.39-1.33-.52-.92-.25-1.8-.63-2.71-.9-.61-.18-1.19-.43-1.84-.5-.62-.06-1.22-.34-1.83-.49-.77-.2-1.55-.37-2.32-.55-.08-.02-.16-.02-.23-.05-.67-.26-1.32-.59-2.01-.75-.61-.14-1.27-.09-1.91-.13-.56-.03-1.09-.17-1.63-.36-.44-.16-.98-.08-1.39-.28-.74-.37-1.58-.19-2.31-.58-.41-.22-.93-.11-1.41-.02-.55.1-.78-.05-.77-.45Z"/><path class="cls-2" d="m197.59,145.61c-.64,0-1.28-.01-1.91,0-.32,0-.66,0-.94.13-.53.23-1.09.19-1.64.27-1.02.16-2.09-.09-3.08.35-.11.05-.3-.05-.45-.11-.39-.14-.78-.18-1.16,0-.37.17-.75.26-1.15.29-.67.05-1.1-.18-1.27-.82-.6-2.25-1.66-4.29-2.69-6.35-.16-.32.11-.82.49-.87,1.02-.13,2.04-.31,3.04-.55.23-.05.5-.02.7-.13.59-.31,1.24-.29,1.85-.45.46-.12.9-.3,1.35-.46,1.87-.67,3.75-1.31,5.63-1.92.8-.26,1.34-.83,1.83-1.47.11-.14.06-.27-.04-.43-.23-.34-.29-.73-.3-1.14,0-.33-.16-.56-.43-.79-.92-.77-1.8-1.57-2.68-2.38-.34-.31-.11-1.05.34-1.17.15-.04.3-.1.46-.12.4-.04.8-.07,1.19-.09.95-.06,1.94.11,2.85-.22.91-.33,1.91-.15,2.8-.59.27-.13.62-.11.94-.14.48-.04.95-.04,1.43-.08,1.99-.16,1.42-.13,3.34.89.35.19.66.44.98.68.12.09.28.23.28.36.05.82.72,1.2,1.18,1.74.41.48.47,1.19,1.01,1.59.24.59.58,1.13.74,1.75.06.23.07.53.23.66.6.5.66,1.24.96,1.87.31.65.62,1.28.8,1.99.08.29.3.56.49.8.26.33.37.69.42,1.1.04.27-.1.45-.27.61-.11.11-.25.22-.4.25-.71.15-1.34.45-1.93.89-.51.38-1.1.63-1.77.66-.32.01-.61.12-.9.27-.71.36-1.44.69-2.15,1.04-.79.39-1.6.71-2.51.65-.4-.02-.77.11-1.14.29-.28.14-.63.12-.91.25-.8.38-1.66.58-2.5.74-1.01.19-2.06.15-3.1.2,0-.02,0-.04,0-.06Z"/><path class="cls-2" d="m152.19,176.55c0,.64,0,1.28,0,1.92,0,.24.05.5-.03.72-.54,1.64-.24,3.33-.38,4.99-.07.87.03,1.74-.31,2.6-.17.42-.09.95-.1,1.42-.01,1.2,0,2.39-.02,3.59,0,.64-.04,1.27-.26,1.89-.13.36-.1.78-.17,1.17-.15.94,0,1.92-.4,2.83-.09.21-.07.47-.08.71-.03,1.27,0,2.55-.44,3.79-.1.29-.05.63-.08.95-.08.95-.04,1.91-.4,2.83-.09.22-.07.47-.1.71-.08.71.06,1.43-.31,2.11-.17.32-.09.78-.13,1.18-.05.47-.03.96-.26,1.4-.15.29-.18.61-.19.93-.01,1.36-.09,2.7-.48,4.02-.2.68-.12,1.43-.42,2.1-.06.13-.04.33.03.46.32.62.24,1.22,0,1.85-.11.28-.08.63-.11.94-.08,1.03-.05,2.06-.4,3.07-.18.51-.1,1.11-.14,1.66-.05.87.06,1.75-.32,2.59-.15.34-.07.79-.1,1.18-.06.87,0,1.75-.38,2.59-.16.34-.12.78-.14,1.18-.04.95.01,1.92-.39,2.82-.06.88-.14,1.75-.18,2.63-.02.48-.02.95-.22,1.41-.09.21-.12.46-.13.7-.04,1.44-.08,2.88-.09,4.31-.02,2.24.01,4.47-.02,6.71-.01,1.11.09,2.23-.32,3.31-.13.35-.13.84.01,1.18.38.93.23,1.89.31,2.84.04.39,0,.83-.16,1.17-.31.68-.19,1.42-.45,2.1-.29.74-.5,1.51-.77,2.26-.19.52-.42,1.03-.64,1.54-.08.19-.49.47-.56.4-.18-.18-.18-.42-.19-.65,0-.4,0-.8.18-1.17.07-.14.16-.33.11-.45-.16-.47-.13-.9.02-1.37.12-.37.06-.79.08-1.19.02-.48.03-.96.04-1.44.01-.4.03-.8.03-1.2,0-.48-.02-.96-.03-1.44,0-.4-.02-.8-.03-1.2,0-.48.03-.96,0-1.44-.05-.63.06-1.29-.29-1.87.09-.38.12-.76.02-1.14.33-.85.25-1.74.22-2.61-.02-.79.12-1.6-.18-2.37-.06-.16-.05-.3.01-.46.27-.68.22-1.42.24-2.13.03-1.28,0-2.55.01-3.83,0-.87-.11-1.76.35-2.57-.03-.31.03-.66-.09-.93-.18-.4.14-.77-.05-1.15-.21-.4.04-.76.13-1.14.07-.3.07-.64,0-.94-.08-.31-.14-.58-.07-.91.06-.28-.06-.58.02-.91.31-1.17.26-2.38.28-3.57.02-2.08.05-4.15-.08-6.23-.09-1.51-.03-3.03-.04-4.55,0-.08,0-.16.03-.24.1-.3.25-.59.29-.9.03-.22-.18-.47-.15-.69.09-.62.38-1.2.32-1.86-.06-.71-.01-1.44-.01-2.16,0-.64,0-1.28,0-1.92,0-.8-.03-1.59.29-2.36.12-.28.1-.62.12-.94.05-.72.08-1.43.13-2.15.02-.32.01-.66.14-.94.36-.76.3-1.56.36-2.35.07-.87.04-1.73.34-2.59.24-.66,0-1.42.36-2.1.31-.59.13-1.26.22-1.88.07-.47.15-.94.27-1.4.15-.61.14-1.26.19-1.89.04-.55,0-1.11.33-1.62.12-.19.12-.46.14-.69.05-.56.08-1.1.28-1.64.13-.36.09-.78.13-1.18.08-.78-.04-1.6.4-2.33.11-.19.09-.46.1-.7.03-.96.03-1.92.46-2.81.02-.64.06-1.27.06-1.91,0-.72-.02-1.44.33-2.1.07-.14.12-.31.11-.46-.05-1.29.45-2.5.56-3.77.08-.95.52-1.83.55-2.8,0-.15.09-.32.19-.43.53-.57.65-1.26.64-2,0-.24.05-.48.04-.72-.03-.67.28-1.23.57-1.8.03-.07.11-.12.16-.18.04.07.1.13.11.2.05.39.08.79.12,1.18.12,1.18.01,2.38.38,3.55.16.52.1,1.11.11,1.67.01.72-.02,1.43.25,2.12.11.28.07.63.08.95,0,.64,0,1.28,0,1.92Z"/><path class="cls-2" d="m78.96,252.57c-2.08.03-4.58-.54-6.96-1.45-.37-.14-.72-.34-1.13-.37-1.51-.13-2.95-.61-4.39-1.05-.68-.21-1.33-.47-2.07-.48-.8-.01-1.55-.34-2.29-.63-.59-.23-1.21-.38-1.79-.66-.49-.23-1.08-.22-1.57-.52-.19-.11-.46-.07-.7-.12-.23-.04-.52-.04-.68-.17-.57-.51-1.27-.6-1.95-.81-1.14-.35-2.23-.84-3.32-1.31-.66-.28-1.28-.64-1.92-.96-.51-.26-.56-.36-.36-.91.03-.07.09-.14.1-.21.3-2.63,1.18-5.1,2-7.59.1-.3.16-.62.27-.91.11-.31.64-.59.99-.54.24.04.5.03.7.13.58.29,1.21.4,1.82.55,1.16.28,2.27.7,3.43,1,.15.04.3.17.44.17.99,0,1.84.45,2.74.76.3.1.6.25.91.28,1.04.09,2.01.45,2.97.83.22.09.46.19.69.18.83-.04,1.54.35,2.29.61.6.21,1.19.44,1.79.63.45.14.95.16,1.38.33,1.18.46,2.36.97,3.52,1.48,1.16.51,2.24,1.23,3.55,1.33,1.01.48,2.01.96,3.02,1.45.13.06.28.45.21.65-.36,1.07-.29,2.21-.52,3.29-.23,1.1-.4,2.19-.45,3.31-.02.5-.3.91-.48,1.34-.1.22-.3.36-.56.36-.56,0-1.12,0-1.68,0Z"/><path class="cls-2" d="m92.72,285.76c0-1.92,0-3.83,0-5.75,0-.56.02-1.11-.22-1.65-.12-.28-.12-.62-.12-.94-.01-1.28,0-2.56,0-3.83,0-.58.18-.79.79-1.03.15-.06.3-.17.45-.17,1.13.02,2.18-.41,3.28-.58.24-.04.52.01.7-.1.78-.48,1.74-.2,2.54-.62.37-.2.78-.13,1.17-.11.24,0,.51.2.53.39.06.55.11,1.11.16,1.66.06.71.43,1.36.36,2.11-.06.64.2,1.24.35,1.86.15.61.1,1.27.13,1.91.03.72.03,1.43.3,2.12.11.29.11.62.12.94.06,1.04.1,2.07.15,3.11.01.24-.05.51.05.71.49.98.32,2.03.39,3.06.01.16.04.32.05.48.05.64.46,1.18.42,1.85-.03.55.02,1.12.08,1.67.04.31.18.61.26.91.05.2-.18.75-.37.84-.5.23-1.01.47-1.53.66-.82.3-1.65.58-2.48.84-.75.24-1.56.3-2.3.62-.36.16-.75.27-1.13.37-.31.08-.63.17-.94.16-.8-.02-1.59-.05-2.37.24-.05.02-.26-.19-.27-.3-.04-.88-.05-1.75-.08-2.63-.01-.4.07-.83-.06-1.19-.5-1.4-.27-2.84-.35-4.26-.06-1.11-.01-2.24-.01-3.35-.03,0-.05,0-.08,0Z"/><path class="cls-2" d="m175.64,292.42c-.88,0-1.76,0-2.63,0-.43,0-.89-.49-.9-.96-.03-.88-.04-1.76-.03-2.63,0-.23.12-.46.17-.69.04-.23.14-.5.06-.69-.35-.78-.28-1.54-.06-2.33.1-.36-.25-.75-.06-1.15.15-.32-.02-.61-.06-.92-.11-.79-.18-1.59.19-2.35.07-.13.05-.31.08-.47.07-.4-.29-.75-.16-1.15.12-.39.17-.78.15-1.18-.01-.24-.05-.48-.13-.7-.13-.38-.2-.77-.2-1.17,0-1.6,0-3.2.01-4.79,0-.64.53-1.11,1.25-1.13.08,0,.15.05.23.07.07.01.16.04.22.01.9-.44,1.91-.15,2.81-.45.86-.29,1.73-.24,2.6-.27.22,0,.36.22.25.49-.19.47-.24.91.02,1.37.08.14.17.29.17.44.01.8.01,1.59-.02,2.39,0,.23-.12.46-.22.68-.1.23-.17.46-.03.67.23.36.25.74.22,1.15-.05.63.12,1.26-.16,1.89-.27.58-.28,1.24-.26,1.88.1,2.95.02,5.9,0,8.86,0,.57-.09,1.11-.35,1.62-.15.3-.07.62-.1.93-.03.34-.27.52-.66.53-.8.02-1.6.03-2.39.05,0,.01,0,.03,0,.04Z"/><path class="cls-2" d="m113.54,159.35c0-.34-.01-.5,0-.65.05-.55.34-1.05.32-1.63-.02-.56.05-1.12.03-1.68-.03-.74.39-1.37.42-2.1.04-.72.06-1.44.2-2.14.09-.46.31-.91.31-1.39,0-.9.29-1.72.65-2.53.42-.94.78-1.91,1.2-2.86.35-.8.68-1.62,1.31-2.26.11-.11.2-.27.22-.42.1-.79.65-1.28,1.2-1.72.93-.75,1.86-1.51,2.96-1.99.15-.07.6.09.63.23.23,1.09.52,2.15.5,3.29-.03,1.35.06,2.71.07,4.07,0,.51.14.93.48,1.3,1.24,1.35,2.48,2.71,4.03,3.72.17.11.14.52-.04.61-.14.07-.28.14-.43.21-2.44,1.18-4.8,2.5-7.05,4.02-.46.31-.98.53-1.47.8-.53.75-1.37,1.05-2.1,1.52-.4.26-.74.6-1.09.93-.52.49-1.03,1-1.54,1.5-.19.19-.66,0-.73-.3-.05-.23-.09-.47-.1-.53Z"/><path class="cls-2" d="m101.43,265.09c.04,1.12.17,2.23-.02,3.34-.02.13-.16.27-.29.35-.13.07-.3.09-.46.1-.8.06-1.6.07-2.39.17-.71.09-1.4.3-2.11.4-.8.11-1.5.52-2.28.68-.31.06-.61.18-.92.26-.44.1-.98-.3-1.03-.78-.05-.48-.1-.95-.12-1.43-.03-.64.03-1.27-.26-1.88-.1-.2-.08-.47-.08-.7,0-1.28.02-2.56-.01-3.84-.02-.59.25-1.08.42-1.61.07-.22.28-.36.56-.36.56,0,1.15.08,1.67-.07,1.88-.55,3.81-.27,5.7-.44.23-.02.48.03.7.1.14.04.31.17.35.3.29.99.6,1.98.58,3.04-.02.8,0,1.6,0,2.4Z"/><path class="cls-2" d="m165.4,153.89s.06.29.1.6c0,.03-.12.1-.19.11-.07.02-.17.02-.24-.01-.98-.54-2.04-.84-3.14-1.08-1.43-.3-2.82-.42-4.22.13-.37.14-.78.2-1.17.08-.12-.04-.23-.22-.26-.35-.04-.14,0-.32.05-.46.43-1.03.84-2.06.82-3.21.48-1.38.44-2.83.47-4.26.05-3.41.03-3.47-1.23-6.98-.17-.46-.31-.9-.22-1.39.01-.08.04-.15.07-.22.08-.17.2-.18.37-.03.54.47,1.11.91,1.62,1.41.51.5.98,1.05,1.62,1.4.27.15.51.39.7.64,1.11,1.47,2.03,3.06,2.66,4.78.27.74.33,1.57.72,2.26.41.72.24,1.58.67,2.28.12.19.13.46.15.69.04.64.12,1.25.38,1.86.18.42.16.94.27,1.72Z"/><path class="cls-2" d="m174.23,267.08c-.12.03-.58.14-1.04.24-.19.04-.68-.36-.71-.56-.01-.08-.05-.15-.05-.23-.04-1.75-.07-3.49.12-5.23.07-.67.65-1.25,1.23-1.31,1.19-.11,2.3-.57,3.49-.64.62-.04,1.22-.28,1.83-.43.18-.04.35,0,.41.15.22.58.31,1.2.52,1.78.05.14.05.34,0,.47-.36.83-.31,1.7-.35,2.57-.02.39-.05.81-.2,1.16-.18.43.19.76.07,1.14-.04.13-.16.25-.27.35-.05.05-.15.05-.23.05-.63.02-1.27-.01-1.9.05-.62.07-1.24.24-1.85.35-.23.04-.47.04-1.06.08Z"/></g><g id="Halftone"><path class="cls-2" d="m194.74,119.03c0,.48,0,.8,0,1.12,0,.73-.11,1.42-.5,2.07-.33.54-.58,1.13-.85,1.71-.06.13-.1.34-.04.45.46.84.71,1.77,1.31,2.54.64.82,1.14,1.74,1.76,2.56.39.52.64,1.11.95,1.66.2.36.44.63.83.81.65.32.87.9.78,1.6-.04.32-.16.61-.43.83-.12.1-.24.22-.38.3-1.95,1.1-3.95,2.05-6.16,2.56-1.16.26-2.29.67-3.42,1.04-.38.12-.74.3-1.15.31-.65.02-1.25.18-1.86.42-.36.14-.79.13-1.18.14-.32.01-.66-.05-.89-.29-.82-.87-1.65-1.74-2.43-2.65-.26-.29-.43-.67-.6-1.03-.37-.8-.79-1.57-1.36-2.24-.21-.25-.28-.56-.33-.88-.09-.71.19-1.25.74-1.67.19-.15.39-.28.6-.38.67-.29,1.23-.74,1.71-1.28.16-.18.32-.41.52-.48,1.2-.42,1.64-1.4,1.99-2.5.17-.53.48-1,.83-1.44.45-.57.72-1.22.87-1.94.15-.7.44-1.36.67-2.04.08-.23.21-.46.2-.68-.05-1.23.45-2.34.73-3.49.28-1.12.19-2.22.19-3.33,0-.15-.08-.31-.15-.45-.28-.57-.56-1.15-.87-1.71-.11-.21-.27-.44-.47-.53-1.05-.5-1.72-1.41-2.53-2.17-.3-.28-.65-.45-1.08-.44-.24,0-.48,0-.72,0-.4,0-.8,0-1.2-.02-.24,0-.48-.04-.72-.04-.5,0-.91-.3-1.37-.4-.47-.1-.96-.09-1.42-.19-.39-.08-.76-.24-1.13-.38-.45-.16-.91-.31-1.34-.51-.73-.34-1.41-.74-1.96-1.35-.27-.3-.56-.57-.86-.84-.61-.54-1.08-1.19-1.32-1.96-.13-.44-.37-.66-.8-.76-.31-.07-.61-.25-.91-.26-.88-.03-1.47-.52-2.07-1.08-.54-.49-.92-1.09-1.33-1.68-.2-.28-.55-.28-.87-.17-.07.03-.18.12-.17.15.05.22.1.46.22.65.77,1.34.8,2.72.24,4.13-.13.34-.08.65.22.83.95.57,1.41,1.49,1.84,2.44.06.14.11.3.15.45.03.16.06.32.06.48-.03.89.21,1.73.34,2.6.04.29-.11.62-.19.93-.13.48-.13.92.18,1.36.37.52.7,1.07,1,1.63.42.78.61,1.62.62,2.53,0,1.16-.28,2.21-1.01,3.12-.15.19-.3.37-.42.58-.16.29-.16.61-.06.93.05.15.1.3.16.45.17.36.33.73.52,1.08.88,1.55,1.03,3.15.38,4.83-.08.22-.09.47-.12.71-.05.42-.24.75-.5,1.07-.1.12-.2.25-.32.36-.8.71-1.35,1.55-1.59,2.61-.07.3-.24.59-.44.84-.3.37-.64.71-.98,1.05-.77.77-1.73.9-2.65.5-.74-.32-1.54-.43-2.24-.82-.72-.41-1.47-.59-2.29-.49-.5.06-.93-.16-1.37-.34-.23-.09-.45.02-.56.29-.18.44-.41.86-.52,1.34-.11.46-.31.9-.52,1.33-.22.45-.58.75-1.1.84-.23.04-.46.11-.68.2-.36.15-.59.69-.42,1,.67,1.27,1.1,2.65,1.79,3.91.3.56.47,1.17.44,1.84-.04.8,0,1.6-.02,2.4-.01.39-.1.79-.17,1.18-.04.23-.16.47-.16.69.04,1.14-.38,2.19-.59,3.29-.15.78-.51,1.51-.56,2.32-.42.87-.63,1.8-.93,2.71-.07.22-.19.44-.31.64-.33.54-.67,1.09-1.03,1.61-1.01,1.45-1.66,3.08-2.37,4.68-.1.22-.09.49-.21.68-.82,1.29-1.27,2.74-1.8,4.16-.08.21-.28.37-.44.54-.05.05-.15.1-.22.08-.06-.02-.12-.1-.15-.17-.29-.57-.54-1.16-.86-1.71-.49-.84-.8-1.74-1.07-2.65-.25-.85-.61-1.64-.96-2.44-.51-1.17-1.26-2.23-1.59-3.47-1-1.75-2.2-3.34-3.88-4.49-.53-.36-1.07-.69-1.58-1.07-.71-.51-1.53-.84-2.37-1.12-1.53-.51-2.95-1.19-4.2-2.24-.36-.3-.81-.51-1.21-.76-.94-.6-1.43-1.48-1.51-2.58-.05-.8-.06-1.6-.1-2.4-.01-.32.04-.66-.05-.95-.41-1.24-.34-2.52-.39-3.8-.01-.34-.15-.61-.39-.84-.17-.17-.34-.34-.51-.51-.23-.25-.52-.38-.85-.36-1.1.06-1.76-.61-2.36-1.4-.23-.86-.88-1.29-1.65-1.61-.07-.03-.13-.09-.2-.13-.84-.47-1.22-1.22-1.29-2.15-.03-.4,0-.8-.02-1.2,0-.15-.09-.3-.14-.44-.05.05-.12.1-.16.16-.61,1.21-1.27,2.39-2.02,3.52-.36.54-.75,1.03-1.27,1.42-.63.47-1.32.53-2.03.19-.21-.1-.4-.26-.6-.4-.19-.12-.49-.08-.63.09-.21.24-.46.46-.6.74-.38.72-.95,1.28-1.45,1.9-.41.52-.96.82-1.57,1.07-.57.23-1.08.18-1.59-.17-.54-.37-.98-.82-1.26-1.41-.24-.5-.48-1.01-.73-1.51-.12-.23-.45-.33-.8-.24-.23.06-.46.14-.69.17-.86.1-1.55-.28-2.18-.8-.18-.15-.32-.36-.43-.57-.4-.78-.79-1.57-1.15-2.37-.4-.92-.43-1.85.06-2.77.3-.56.56-1.15.87-1.71.19-.34.08-.61-.13-.87-.15-.19-.32-.35-.47-.54-.67-.87-1.14-2.28-1.18-3.32-.04-1,.26-1.88.76-2.72.37-.62.74-1.23,1.09-1.86.06-.11.03-.34-.05-.44-.24-.31-.54-.59-.8-.89-.9-1.04-1.12-2.26-.9-3.59.03-.15.09-.3.14-.45.52-1.37,1.36-2.53,2.33-3.6.48-.53,1.1-.92,1.64-1.38.2-.17.18-.43.16-.67,0-.08-.02-.16-.06-.23-.44-.71-.53-1.49-.52-2.3,0-.08,0-.16,0-.24-.16-2.14.9-3.32,2.77-4.32.56-.3,1.15-.56,1.74-.8.59-.24.86-.64.88-1.28.03-1.3.68-2.26,1.74-2.98.4-.27.81-.51,1.2-.78.95-.64,2.04-.84,3.15-.98.07,0,.16.04.23.07.33.14.63.07.88-.15.36-.32.68-.67,1.03-1,.41-.38.82-.76,1.24-1.12.31-.27.69-.4,1.1-.41.4-.02.8-.02,1.2-.02.49,0,.94.15,1.34.45.26.19.54.34.82.48.23.11.47.05.68-.06.14-.08.28-.17.38-.29.79-.97,1.86-1.17,3.02-1.11.72.04,1.44.1,2.15.15.78.54,1.52.13,2.26-.12.23-.08.44-.19.67-.26.79-.23,1.57-.23,2.33.13.43.2.87.4,1.31.58.24.1.47,0,.66-.17.24-.21.46-.44.68-.68.33-.37.79-.55,1.22-.75.61-.29,1.24-.28,1.85.01.43.21.87.41,1.23.74.24.22.5.33.84.15.49-.27,1.02-.46,1.51-.72,1.37-.7,2.62-.43,3.82.4.26.18.49.41.76.57.12.07.32.08.45.02.37-.15.73-.32,1.07-.52.5-.29,1.04-.36,1.61-.4,1.01-.08,1.89.19,2.72.74.3.2.58.19.89.02.28-.15.57-.28.85-.43.36-.19.74-.29,1.15-.3.56,0,1.12-.04,1.68-.03.93.02,1.69.37,2.22,1.18.22.33.47.64.72.96.17.22.43.31.62.21.78-.38,1.52-.88,2.42-1,.65-.38,1.37-.44,2.09-.43,1.2.02,2.41,0,3.59.16.78.11,1.54.4,2.35.4.81,0,1.52.48,2.34.47.5,0,.9.33,1.29.58.74.49,1.36,1.12,1.9,1.82.14.18.27.41.31.64.1.58.47.76,1.01.82.31.03.61.16.92.23,1.86.41,3.33,1.48,4.7,2.73.29.27.55.58.86.83,1.57,1.27,2.79,2.85,3.91,4.51.62.93,1.25,1.85,1.84,2.8.38.61.69,1.26,1.01,1.9.42.86.82,1.73,1.22,2.6.43.94.85,1.88.87,2.95,0,.31.07.64.2.93.43.96.19,2.08.69,3.02.06.72.11,1.43.15,1.99Zm-51.42,15.38s0,.03,0,.04c1.12-.03,2.24-.02,3.35-.12.62-.06,1.22-.34,1.84-.45.49-.08.9-.27,1.32-.51.85-.48,1.52-1.15,2.2-1.83.45-.45.9-.9,1.3-1.4.34-.43.61-.93.91-1.4.06-.82.64-1.45.85-2.21.04-.15.08-.31.1-.46.11-1.12-.1-2.22-.31-3.31-.12-.67-.62-1.11-.88-1.68-.34-.75-.93-1.29-1.47-1.87-.72-.75-1.45-1.48-2.22-2.18-.84-.76-1.4-1.73-2.16-2.55-1.3-1.41-2.71-2.71-4.13-3.99-.05-.05-.14-.06-.21-.09-.17-.08-.32-.06-.44.08-.19.25-.41.49-.56.76-.88,1.61-1.77,3.21-2.81,4.71-.77,1.11-1.61,2.18-2.36,3.3-.31.47-.61.93-1,1.34-.56.58-.96,1.27-1.43,1.91-.51.71-.91,1.5-1.58,2.09-.37.33-.55.79-.72,1.23-.23.59-.41,1.2-.53,1.83-.07.38-.08.83.06,1.17.39.96.84,1.89,1.32,2.81.14.27.42.47.67.67.18.14.44.19.63.34.98.74,2.11,1.07,3.31,1.24.31.04.64.07.93.19.45.19.92.26,1.4.27.88.03,1.76.05,2.63.08Z"/><path class="cls-2" d="m76.08,256.78c0,1.2,0,2.4,0,3.59,0,.32-.36.58-.67.48-.61-.18-1.21-.38-1.82-.56-.3-.09-.62-.22-.92-.21-1.15.03-2.19-.39-3.24-.75-.25-.09-.46.04-.47.29-.04,1.28-.08,2.56-.1,3.83-.01.69.18.89.8.89.4,0,.8,0,1.2.03.41.02.77.19,1.08.46.75.66,1.23,1.46,1.28,2.48.03.8.15,1.58.36,2.36.11.41-.4,1-.83,1-1.92,0-3.83-.04-5.75-.04-.9,0-1.72-.36-2.55-.6-.54-.16-1.04-.36-1.62-.37-.64,0-1.28,0-1.87-.34-1.2-.06-2.32-.57-3.52-.61-.5-.02-.94-.18-1.35-.45-1.46-.98-3.02-1.77-4.6-2.53-.78-.38-1.11-1.16-1.21-1.96-.1-.79-.05-1.6-.07-2.39,0-.57.16-1.09.39-1.61.91-2.04,1.94-4.02,3.12-5.92.34-.54.62-1.11.92-1.68.66-1.27,1.3-2.56,1.97-3.83.15-.28.34-.54.55-.78.15-.18.36-.34.61-.28,1.08.28,2.15.58,3.23.83.31.07.6.21.89.33,1.11.44,2.2.93,3.34,1.3,1.36.45,2.74.82,4.12,1.19.38.1.77.2,1.14.33.67.24,1.36.51,2.06.59.88.1,1.66.53,2.56.56.85.03.97.23.97,1.01,0,1.12,0,2.24,0,3.36,0,0,.01,0,.02,0Z"/></g><g id="Lines"><path class="cls-1" d="m101.63,117c-.16-.04-.34-.03-.46-.12-1.7-1.1-1.65-2.99-1.25-4.22.1-.3.29-.57.41-.87.35-.91.84-1.7,1.59-2.35.48-.42.9-.91,1.33-1.37.23-.25.3-.55.35-.87.11-.64-.02-1.28-.08-1.91-.15-1.51.26-2.85,1.08-4.08.45-.66.96-1.26,1.74-1.59.73-.31,1.46-.66,2.15-1.05.42-.24.65-.67.72-1.17.09-.64.3-1.24.78-1.71.34-.34.67-.68,1.01-1.02.34-.34.73-.68,1.21-.73,1.13-.11,2.06-.85,3.21-.92.65-.04,1.19-.43,1.66-.88.11-.11.24-.21.36-.31.51-.39,1.07-.66,1.73-.73,1.28-.13,2.55-.19,3.83-.1.47.03.95-.06,1.38-.33.13-.09.29-.13.43-.21.42-.25.9-.34,1.38-.36.64-.03,1.28.01,1.92.02.8,0,1.6.08,2.39,0,1.76-.19,3.51-.13,5.27-.07.31,0,.66-.04.92-.19,1.45-.86,2.98-1.03,4.62-.75.8.13,1.59-.02,2.32-.4.14-.07.29-.13.44-.18.78-.3,1.55-.29,2.32.04.73.32,1.48.6,2.2.95.33.16.58.19.9.03.57-.3,1.2-.43,1.85-.45.48-.02.96-.06,1.44,0,1.28.13,2.54.17,3.82-.03.79-.12,1.6,0,2.39.14.31.05.63.13.91.26.72.35,1.43.71,2.11,1.13.51.31.9.08,1.3-.14.43-.24.89-.35,1.37-.4.63-.07,1.27-.13,1.91-.12,1.28.02,2.56.08,3.83.14.8.04,1.59.18,2.31.57.58.31,1.24.31,1.84.51.44.15.88.39,1.26.66.92.65,1.65,1.5,2.43,2.31.46.49,1.04.68,1.67.85,1.39.36,2.71.92,3.92,1.71.4.26.84.48,1.1.89.36.55.83.95,1.38,1.29.54.34,1.04.77,1.36,1.33.39.7.82,1.37,1.38,1.94,1.02,1.04,1.76,2.27,2.44,3.54.9,1.69,1.67,3.44,2.57,5.13.47.87.45,1.86.85,2.73.41.89.63,1.79.67,2.76.08,1.92.22,3.83.04,5.75-.06.65-.24,1.26-.58,1.81-.38.62-.28,1.22.06,1.8.4.69.67,1.46,1.25,2.04.81.8,1.24,1.85,1.87,2.77.63.92,1.52,1.64,2.02,2.66.07.14.1.31.1.47,0,.44-.8,1.27-1.26,1.29-.14,0-.31-.05-.42-.14-.25-.19-.55-.38-.69-.64-.52-1-1.1-1.94-1.88-2.75-.44-.46-.89-.94-1.19-1.5-.69-1.29-1.7-2.31-2.61-3.42-.32-.4-.42-.89-.23-1.34.37-.88.84-1.72,1.23-2.59.13-.28.23-.61.24-.91.03-.96.01-1.92.01-2.88,0-.65-.12-1.27-.36-1.87-.24-.6-.33-1.24-.33-1.88-.02-1.32-.52-2.47-1.04-3.65-1.15-2.63-2.45-5.19-3.84-7.7-.55-1-1.24-1.85-2.14-2.54-.12-.1-.28-.2-.43-.21-2.86-.25-5.73-.43-8.61-.2-1,.08-1.78.66-2.62,1.12-.13.07-.26.22-.3.36-.1.31-.12.7.09.88.85.72,1.82,1.28,2.74,1.92.25.18.56.34.86.38,1.27.17,2.51.45,3.69.95.96.08,1.91.13,2.87.23.68.07,1.24.44,1.49,1.05.51,1.23,1.31,2.17,2.45,2.83.6.35.85.95.89,1.6.16,2.4.09,4.79-.14,7.18-.05.48-.2.93-.35,1.38-.46,1.36-1.17,2.61-1.59,3.99-.42,1.37-1.12,2.64-2.09,3.73-.96,1.08-1.82,2.22-2.54,3.47-.15.25-.15.62.01.91.78,1.4,1.56,2.79,2.75,3.9.46.44.86.95,1.28,1.42.26.29.34.57.17.78-.21.25-.51.38-.85.39-.48.01-.97-.02-1.34-.37-.58-.55-1.15-1.11-1.69-1.69-.55-.58-.99-1.23-1.33-1.97-.39-.87-.88-1.7-1.39-2.51-.44-.69-1.03-1.2-1.93-1.22-.64-.01-1.28-.04-1.92-.08-.48-.03-.97-.14-1.34-.45-1.11-.93-2.37-1.63-3.61-2.34-.31.04-.61.07-.92.11-.7.65-1.43,1.27-2.08,1.98-.43.46-.77,1.02-1.08,1.57-.23.42-.46.84-.79,1.19-.45.47-.98.8-1.65.87-.97.09-1.91-.02-2.85-.26-1.11-.69-2.47-.65-3.62-1.21-.45-.22-.85-.02-1.19.44-.29.39-.51.8-.59,1.29-.05.31-.09.65-.23.93-.38.72-.87,1.38-1.71,1.57-.95.21-1.83.42-2.56,1.15-1.04,1.05-2.33,1.65-3.83,1.74-.31.02-.63.12-.91.26-.85.43-1.69.9-2.53,1.36-.45.24-.91.22-1.37.04-.15-.06-.3-.12-.44-.2-1.08-.6-2.07-.55-3.13.16-1.23.83-2.81.8-4.07.03-.7-.43-1.42-.69-2.23-.74-.67-.04-1.18-.44-1.63-.91-.22-.24-.33-.52-.29-.87l-.11.1c.32,0,.64-.02.96-.02q2.01,0,3.45,1.18c.24.2.51.39.79.52.28.13.62.15.92,0,.28-.13.52-.36.76-.57.49-.43.76-1.01,1.08-1.56.31-.53,1.21-.63,1.66-.2.46.43.92.88,1.39,1.31.34.31,1.47.36,1.82.08.63-.49,1.25-.99,1.86-1.5.27-.22.54-.32.88-.29.48.04.95.06,1.43.06.68,0,1.24-.28,1.71-.74.34-.33.66-.7.94-1.08.51-.71,1.15-1,2.03-.95.46.03.9-.27,1.19-.68.09-.13.12-.29.19-.44.41-.86.77-1.76,1.25-2.58.49-.84.6-1.81,1-2.67.13-.28.37-.53.62-.71.38-.28.83-.48,1.22-.75.41-.28.65-.66.67-1.18.06-1.59.19-3.19-.46-4.72-.12-.29-.03-.59.09-.91.17-.44.34-.9.4-1.37.14-1.27.16-2.55.01-3.83-.05-.47-.2-.94-.41-1.37-.16-.34-.22-.59.02-.89.2-.25.37-.52.55-.78.4-.59.4-.6.13-1.74-.22-.94-.37-1.88-.36-2.84,0-.96.02-1.92,0-2.87,0-.49-.16-.95-.42-1.35-.26-.4-.57-.77-.84-1.16-.27-.4-.48-.82-.5-1.32-.01-.32-.05-.64-.02-.96.13-1.64-.64-2.71-2.04-3.48-.75-.41-.83-.83-.56-1.59.48-1.38.48-1.4.08-2.26-.13-.29-.29-.57-.42-.86-.28-.66-.84-.95-1.49-1.06-1.3-.21-2.53-.02-3.67.72-.41.27-.91.22-1.34-.07-.67-.46-1.45-.66-2.17-.99-.61-.28-1.18-.36-1.81-.04-.71.36-1.47.63-2.2.94-.3.12-.55-.02-.87-.18-1.25-.64-2.47-.44-3.62.28-.4.25-.79.55-1.16.84-.31.24-.55.19-.88-.02-.55-.35-1.18-.46-1.83-.47-1.67,0-1.79.02-3.68.8-.15.06-.31.07-.46.13-.62.25-.83.57-.66,1.06.1.3.2.6.34.88.57,1.23.63,2.47.02,3.69-.45.88-.66,1.79-.57,2.77.04.48.09.96.09,1.43,0,.8-.04,1.59-.06,2.39,0,.33-.09.64-.28.91-.36.53-.72,1.05-1.08,1.58-.39.56-.41,1.19-.3,1.83.06.31.2.6.31.9.3.77.4,1.57.1,2.34-.35.91-.54,1.83-.62,2.79-.07.83-.43,1.54-1.05,2.08-.66.57-.89,1.28-.88,2.12,0,.48-.07.96-.04,1.44.09,1.33-.41,2.51-.94,3.67-.39.87-.8,1.75-1.32,2.54-.53.82-.71,1.77-1.15,2.62-.22.43-.1.92.09,1.38.37.88.77,1.74,1.38,2.49.09.11.05.31.07.47l.06-.07c-.66.08-1.26-.08-1.77-.52-.36-.31-.7-.65-1.05-.97-.38-.35-.87-.28-1.2.1-.42.49-.71,1.05-1.03,1.6-.34.59-.93.86-1.59.89-.63.04-1.27-.03-1.91-.04-.5,0-.94.19-1.28.53-.89.91-1.74,1.86-2.65,2.75-.34.33-.83.47-1.32.43-.48-.05-.94-.16-1.33-.46-.51-.39-.97-.83-1.24-1.43-.29-.64-.82-1.01-1.47-1.06-.85-.06-1.5-.44-2.12-.97-.61-.53-1.12-1.14-1.57-1.8-.27-.4-.45-.83-.54-1.31-.17-.95-.23-1.9-.16-2.86.05-.64.18-1.27.19-1.9,0-.47-.08-.95-.35-1.37-.54-.83-.75-1.75-.72-2.73.02-.64.02-1.27.09-1.91.03-.31.16-.61.3-.89.14-.28.31-.57.52-.8.71-.74.94-1.64.96-2.62.31.04.63.05.94.11.6.11.82.38.89.95.04.32,0,.65-.24.89-.93.9-1.61,1.96-2.18,3.11-.22.45-.26.91-.25,1.39.01.5.24.91.48,1.33.41.71,1.1,1.14,1.66,1.7.53.53.63,1.15.25,1.71-.36.53-.74,1.04-1.09,1.57-.37.56-.37,1.68-.04,2.29.38.71.81,1.37,1.46,1.86.29.22.58.27.87.13.44-.21.77-.56,1.11-.89.23-.21.49-.4.76-.55.12-.07.32-.03.47-.01.29.04.58.24.63.58.16.94-.13,1.9.1,2.85.08.33.19.6.44.82.61.56,1.69.53,2.1-.07.54-.79,1.05-1.59,1.62-2.36.38-.51.5-1.18,1.03-1.58.08-.06.3,0,.4.08.52.36,1.03.74,1.55,1.11.31.22,1.06.05,1.28-.28.44-.66.89-1.32,1.34-1.98.09-.13.19-.26.26-.4.2-.43.46-.85.57-1.3.25-1.08.95-2.02.95-3.19,0-.77.38-1.08,1.19-1.12.89-.04,1.45-.41,1.83-1.23.41-.87.82-1.7.87-2.7.1-1.91.18-3.82-.05-5.73-.05-.43.52-.79.98-.55.34.18.57.23.87-.01.5-.42.91-.9.94-1.58.05-1.11.06-2.23.1-3.34.03-.98-.23-1.88-.67-2.75-.12-.24-.07-.62,0-.9.09-.32.41-.43.73-.54.63-.21,1.05-.69,1.43-1.21.2-.27.3-.55.33-.88.09-.96.07-1.89-.46-2.76-.41-.67-.72-1.42-1.04-2.14-.03-.08.09-.27.19-.35.37-.3.92-.35,1.17-.78.32-.55.57-1.14.83-1.72.09-.21-.47-1.63-.87-2.16-.29-.38-.66-.69-1.01-1.01-.36-.32-.87-.38-1.32-.17-.29.13-.56.38-.84.4-.29.02-.6-.19-.9-.29-.3-.09-.61-.2-.92-.24-1.11-.13-2.23-.1-3.34.06-.3.04-.61.19-.87.35-.27.16-.52.37-.73.61-.55.65-1.23.98-2.09.91-1.02-.09-1.86.33-2.63.93-.38.29-.75.59-1.1.92-.23.22-.41.48-.6.73-.3.39-.35.66-.13,1.31.11.34.11.6-.11.89-.41.53-.89.87-1.58.92-.47.03-.95.07-1.38.32-1.29.72-2.29,1.72-2.94,3.05-.22.44-.23.93-.13,1.39.07.3.22.59.34.87.13.29.29.57.41.86.3.75.1,1.69-.45,2.2-.82.76-1.66,1.5-2.47,2.26-.58.55-1.03,1.21-1.47,1.88-.26.41-.32.85-.07,1.34.37.71.72,1.42.77,2.24Zm58.17,12.81c-.17.3-.34.57-.46.86-.05.11,0,.29.06.42.22.46.63.72,1.09.84,1.08.28,2.2.23,3.3.35.33.04.62-.08.88-.3.64-.52,1.08-1.16,1.12-2.01.03-.48.04-.95.08-1.43.05-.55.42-.81.95-.64.6.2,1.3-.16,1.45-.74.04-.14.08-.31.03-.43-.36-.89-.78-1.76-.39-2.75-.05-.47-.03-.96-.16-1.41-.18-.6-.47-1.17-.72-1.76-.14-.33-.08-.62.17-.89.22-.23.44-.45.66-.69.21-.23.42-.47.61-.73.3-.41.33-.91.22-1.37-.25-1.09-.8-2.07-1.26-3.08-.54-1.2-.73-1.01-.07-2.19.41-.73.49-1.48.46-2.3-.04-1.16-.38-2.19-1.18-3.05-.57-.61-.86-1.32-.96-2.14-.02-.15-.1-.3-.16-.45-.35-1.01-.38-1.02-.05-1.74.22-.46.26-.91.06-1.37-.31-.73-.71-1.42-1.15-2.09-.53-.8-.65-1.78-1.18-2.59-.69-1.07-1.26-2.21-1.45-3.5-.02-.14-.17-.27-.29-.37-.62-.51-1.36-.85-2.1-1.11-.75-.26-1.57-.36-2.35-.13-.26.08-.45.4-.68.61,0,.96,0,1.91-.03,2.87-.01.51.17.95.47,1.32.6.74,1.41,1.31,1.89,2.15.16.27.28.57.35.87.08.31.11.63.11.95.02.64.1,1.26.42,1.84.31.55.6,1.12.92,1.68.41.72.45,1.51.47,2.31.01.65-.1,1.28-.41,1.84-.26.46-.25.93-.04,1.36.81,1.68.82,3.37.17,5.09-.12.32-.22.59-.12.89.15.45.34.9.39,1.37.09.79.14,1.59.09,2.38-.13,2.07-.19,4.14-.04,6.21.02.32.02.64,0,.96-.03.47-.08.94-.26,1.4-.33.89-.62,1.8-.92,2.67Zm15.39-33.96c-.79,0-1.1,0-1.42,0-.8,0-1.57.14-2.28.52-.42.22-.88.36-1.28.6-.27.15-.49.4-.71.61-.51.48-.42,1.17.12,1.59.64.5,1.43.65,2.13,1,.31.15.58.12.89-.07.83-.5,1.83-.46,2.69-.87.73-.35,1.51-.43,2.3-.46,1.58-.06,3.16.11,4.73-.1.14-.02.29-.16.37-.29.05-.09.03-.27-.02-.37-.31-.6-.86-.93-1.47-1.08-.61-.15-1.25-.17-1.88-.23-.63-.06-1.27-.09-1.85-.37-.89-.42-1.83-.46-2.31-.47Zm-6.88-4.11c-.54.02-1.34.03-2.14.07-.32.02-.63.1-.94.15-.51.08-.86.4-1.09.82-.23.44-.21.95,0,1.38.35.72.83,1.35,1.42,1.91.5.48,1.26.64,1.74.34.14-.08.29-.15.41-.25.98-.87,2.1-1.44,3.4-1.62.88-.43,1.82-.58,2.78-.61.16,0,.31-.05.47-.09.38-.09.6-.27.54-.51-.03-.13-.2-.25-.34-.32-1.14-.58-2.28-1.13-3.62-1.09-.79.02-1.59-.1-2.64-.18Zm14.89,26.77c.02.41.02.88.07,1.34.01.14.12.31.24.38.16.11.39-.07.44-.47.08-.61.11-1.24.12-1.85,0-.31-.18-.55-.43-.74-.09.13-.21.25-.25.39-.08.29-.12.59-.19.94Zm-.52,3.53c-.25.22-.38.5-.3.85.03.15.15.28.23.41.1-.12.24-.23.29-.38.12-.33.02-.63-.22-.88Z"/><path class="cls-1" d="m158.8,351.29c1.75-.03,3.51-.06,5.26-.1,1.12-.02,2.21-.18,3.25-.66.42-.2.92-.22,1.39-.32.47-.1.99-.08,1.39-.29,1.28-.67,2.8-.66,4.05-1.4.31,0,.67-.08.93.03,1.02.45,2.01.96,3,1.47.42.22.85.45,1.21.75.73.62,1.51,1.15,2.34,1.63.82.48,1.53,1.14,2.28,1.73.5.4,1.09.64,1.64.96,1.79,1.03,3.69,1.88,5.33,3.17.38.29.83.46,1.31.55.64.11,1.23.35,1.73.76.88.72,1.91,1.12,3,1.39.83.51,1.76.72,2.69.95.44.11.82.46,1.21.73.33.23.5.96.32,1.29-.15.28-.37.54-.46.83-.51,1.55-1.75,2.65-2.52,4.04-.14.25-.49.39-.74.58-1.28.94-2.56,1.89-4.02,2.56-.44.2-.89.35-1.37.41-.65.08-1.17.49-1.78.67-.61.18-1.26.24-1.83.5-.74.33-1.47.56-2.28.61-1.75.11-3.5.19-5.26.09-.96-.05-1.91-.17-2.77-.65-.29-.16-.58-.24-.91-.25-1.13-.04-2.19-.28-3.2-.84-.69-.38-1.43-.7-2.15-1.02-.72-.32-1.55-.35-2.27-.72-.43-.22-.9-.34-1.38-.35-.96-.01-1.91,0-2.87.04-.31.01-.65.05-.92.2-1.14.61-2.48.59-3.62,1.21-.43.23-.92.28-1.39.31-1.91.11-3.82,0-5.74-.08-.49-.02-.92-.22-1.38-.37-.45-.15-.9-.3-1.37-.41-.47-.11-.92-.28-1.31-.55-1.04-.73-2.08-1.47-3.1-2.23-.7-.52-.95-1.26-.88-2.09.04-.47.11-.96.27-1.4.27-.74.73-1.42.83-2.22.02-.16.04-.32.11-.46,1.76-3.39,3.29-6.89,5.06-10.27.07-.13.21-.25.34-.33.26-.17.53-.39.82-.45.46-.09.95-.08,1.42-.07,1.43.03,2.87.07,4.3.11v-.05Zm24.25,21.04c1.03-.04,2.15-.06,3.27-.12.47-.03.95-.13,1.38-.35.58-.29,1.2-.43,1.83-.54,1.27-.22,2.34-.99,3.59-1.29.15-.04.28-.15.41-.24,1.44-1.02,2.8-2.13,3.78-3.63.09-.13.16-.28.2-.43.12-.48.12-.98-.1-1.4-.13-.25-.44-.5-.72-.57-.93-.24-1.85-.5-2.71-.93-.28-.14-.61-.2-.93-.23-.64-.05-1.3-.05-1.82.39-.61.51-1.17,1.09-1.77,1.61-.36.31-.73.69-1.16.83-1.23.41-2.28,1.16-3.47,1.64-.29.12-.61.18-.92.25-.15.04-.32.04-.48.06-1.44.16-2.87.15-4.31.01-1-.09-1.79-.68-2.71-.91-.62-.15-1.26-.22-1.84-.52-.58-.29-1.21-.41-1.85-.44-1.12-.05-2.24-.11-3.35-.14-2.88-.07-5.75.2-8.63.25-.65.01-1.25.24-1.84.48-.77.31-1.56.33-2.33,0-.74-.32-1.5-.53-2.31-.56-1.29-.04-2.52-.37-3.71-.87-.28-.12-.63-.08-.94-.12-.45-.05-.83.24-1.04.78-.18.48-.07.94.09,1.39.05.14.16.28.28.39.57.56,1.13,1.13,1.73,1.66.36.32.81.51,1.3.56.64.07,1.27.12,1.91.15.82.04,1.52.49,2.3.63.79.15,1.64.24,2.36-.11,1.31-.62,2.84-.54,4.09-1.32.47-.08.94-.21,1.41-.23,1.28-.05,2.56-.09,3.84-.08,2.47.01,3.08.12,5.51,1.34,1.57.79,3.19,1.43,4.86,1.97.61.2,1.19.42,1.84.45.96.04,1.92.11,2.96.17Zm-10.11-15.17c-.08.27.01.53.28.78.93.86,2.04,1.42,3.2,1.9.31.13.62.11.92-.03.28-.13.59-.23.83-.41.98-.79,1.77-1.77,2.55-2.75.39-.49.32-1.2-.17-1.68-.8-.79-1.83-1.2-2.76-1.77-.25-.15-1.11.12-1.23.45-.34.94-1.01,1.56-1.82,2.07-.4.25-.82.45-1.19.73-.24.18-.4.47-.6.71Z"/><path class="cls-1" d="m62.16,316.63c-.38-.02-1.17-.07-1.97-.11-.82-.04-1.56-.28-2.27-.69-.28-.16-.58-.27-.86-.43-.32-.19-.4-.47-.33-.82.06-.32.21-.61.54-.69.46-.12.94-.16,1.42-.21,1.19-.12,2.1-.71,2.76-1.69.17-.25.36-.58.33-.84-.06-.48-.37-.92-.81-1.12-.87-.39-1.77-.7-2.67-1.02-.3-.1-.63-.16-.94-.16-1.35-.02-2.44-.72-3.53-1.36-1.1-.64-2.1-1.44-3.14-2.18-.91-.66-1.33-2.42-.81-3.5.49-1,.95-2.02,1.51-2.99.63-1.1,1.24-2.23,1.73-3.41.19-.45.1-.78-.45-1.2-.63-.48-1.31-.9-1.94-1.39-.66-.52-.99-1.23-1.01-2.08-.02-1.13.13-2.2.61-3.26.46-1.02.97-2.01,1.5-2.99.45-.84,1.1-1.57,1.88-2.15.25-.18.57-.29.87-.36.79-.18,1.58-.12,2.36.13.31.1.57.28.79.52.75.85,1.31,1.78,1.57,2.91.23,1.01.37,1.03,1.25.48.4-.26.78-.57,1.21-.78.73-.36,1.51-.47,2.32-.31.49.09.94.5.95.91.01.8-.01,1.59.02,2.39.01.3.11.62.22.9.13.35.42.42.77.45.35.03.67,0,.82-.34.42-1.02,1.01-2.01,1.06-3.15.05-1.34.68-2.44,1.35-3.53.17-.28.48-.42.79-.5,1.16-.29,2.21-.14,3.12.68.6.54,1.14,1.12,1.46,1.87.25.59.62,1.15.75,1.76.26,1.26.92,2.38,1.16,3.64.12.64.33,1.23.63,1.8.23.43.33.91.35,1.38.05.96.05,1.91.05,2.87,0,.69-.34,1.22-.89,1.6-.39.27-.85.43-1.25.69-.26.16-.59.36-.68.62-.16.44-.16.98.07,1.4.47.84.77,1.75,1.18,2.61.28.59.45,1.19.48,1.84.05,1.12.15,2.24.14,3.35,0,.65-.31,1.21-.92,1.57-.82.48-1.59,1.08-2.6,1.13-.98.04-1.81.6-2.72.9-.13.04-.27.2-.33.34-.61,1.53-1.66,2.71-2.87,3.77-.5.44-1.09.69-1.74.72-.96.04-1.92.01-3.3.01Z"/><path class="cls-1" d="m87.18,384.54c-.51,0-.83,0-1.15,0-.65,0-1.27-.1-1.87-.36-.6-.26-1.23-.33-1.87-.41-.64-.08-1.27-.19-1.84-.5-.83-.46-1.79-.69-2.48-1.42-.33-.34-.72-.65-1.14-.86-1.48-.73-2.52-1.95-3.59-3.13-.42-.46-.63-1.1-.92-1.67-.23-.44-.11-.95.25-1.28.24-.21.45-.49.72-.62.87-.42,1.64-.97,2.42-1.54.63-.47,1.37-.8,2.05-1.22.41-.25.75-.6,1.16-.85,1.09-.65,2.26-1.2,3.3-1.93,1.17-.83,2.25-1.77,3.44-2.59,1.05-.72,1.97-1.63,2.95-2.46.49-.41.97-.82,1.53-1.14.41-.23.8-.54,1.14-.87,2.19-2.11,4.35-4.24,6.54-6.35.49-.47,1.12-.56,1.78-.49.64.07,1.26.2,1.83.52.57.31,1.17.49,1.82.54.8.06,1.59.15,2.39.22,1.82.76,3.75.73,5.66.8,1.12.04,2.22.17,3.29.57.75.28,1.57.23,2.37.23,1.27,0,2.55-.24,3.82.07.3.07.54.28.7.59.07.13.1.3.11.45.08,1.28.08,2.56-.34,3.79-.12.33-.15.59-.01.92.32.75.34,1.56.39,2.35.07.97.36,1.86.7,2.77.44,1.19.75,2.43,1.21,3.62.06.15.05.31.08.47.11.57-.25,1.32-.77,1.63-.42.25-.84.47-1.32.51-.96.07-1.91.13-2.87.19-.64.04-1.25.23-1.85.46-.44.17-.91.29-1.38.37-.63.12-1.29.1-1.85.43-.83.49-1.78.73-2.54,1.34-1.63,1.32-3.58,2.08-5.43,3.01-.78.17-1.56.29-2.3.63-1.16.53-2.48.6-3.62,1.22-.79.14-1.57.27-2.36.41-1.01.55-2.12.68-3.24.72-.8.03-1.6.09-2.39.15-.32.02-.67,0-.94.14-1.2.59-2.47.58-3.56.55Zm33.73-13.06c-.08-.43-.12-.91-.27-1.36-.09-.28-.3-.6-.54-.74-.25-.15-.62-.17-.93-.14-.47.04-.97.09-1.41.26-1.04.42-2.1.73-3.22.83-.31.03-.62.14-.91.26-.73.31-1.45.65-2.17.98-.87.4-1.75.77-2.6,1.2-.72.37-1.54.37-2.25.78-.68.4-1.48.61-2.15,1.01-.85.51-1.86.42-2.72.85-.58.28-1.18.46-1.82.53-1.26.15-2.53.23-3.72.79-.41.19-.93.2-1.41.2-1.59.02-3.19,0-4.78-.02-.64,0-1.27-.1-1.86-.37-.58-.27-1.22-.37-1.82-.57-1.52-.52-2.95-1.2-4.01-2.48-.2-.24-.43-.47-.65-.7-.56-.57-1.07-.66-1.71-.34-1.85.93-3.53,2.13-5.27,3.24-.64.41-.69,1.11-.13,1.53,1.01.77,2.04,1.52,3.03,2.31.88.71,1.82,1.25,2.93,1.54.76.2,1.42.73,2.24.77,1.12.06,2.19.35,3.26.64.32.09.62-.03.93-.15.44-.18.9-.31,1.39-.34,1.27-.07,2.55-.15,3.82-.24.47-.04.96-.06,1.4-.28,1.03-.5,2.17-.48,3.27-.62.63-.08,1.26-.17,1.84-.46.58-.29,1.2-.41,1.83-.5.47-.06,1-.07,1.39-.29,1.02-.57,2.12-.66,3.22-.78.33-.04.62-.12.89-.31,2.09-1.46,4.38-2.58,6.64-3.75.72-.37,1.46-.62,2.25-.74.31-.05.62-.15.91-.28.59-.26,1.19-.43,1.84-.45.8-.03,1.6-.03,2.37-.28.27-.09.54-.35.69-.6.15-.26.14-.61.2-.97Zm-22.41-7.07c-.05-.14-.06-.32-.15-.43-.8-.98-1.61-1.96-2.6-2.77-.32-.26-.55-.28-.85,0-.71.64-1.43,1.26-2.15,1.88-.84.72-1.69,1.43-2.53,2.16-.38.32-.26,1.36.16,1.72.61.53,1.32.88,2.04,1.21.26.12.67.12.91,0,.97-.54,2.06-.87,2.89-1.64.59-.54,1.31-.88,1.99-1.28.3-.18.39-.48.29-.84Z"/><path class="cls-1" d="m85.29,290.34c-.05-5.42-.11-11.01-.16-16.6,0-.8-.01-1.6-.04-2.4-.01-.48,0-.96-.19-1.41-.3-.75-.43-1.53-.44-2.34-.02-1.12-.07-2.23-.11-3.35-.03-.64-.55-1.25-1.14-1.33-.63-.08-1.27-.14-1.9-.21-.32-.03-.67.02-.95-.11-1.49-.69-3.11-.66-4.68-.93-.79-.13-1.46-.65-2.27-.73-.81-.08-1.52-.45-2.26-.74-.52-.2-1.24.17-1.28.99-.04.8-.09,1.59.07,2.38.03.15.11.3.18.43.15.3.4.31.78.15.85-.37,1.54-.05,2.14.56.11.11.24.22.32.35.38.7.74,1.41,1.1,2.12.07.14.1.3.12.46.13.95.16,1.91,0,2.86-.05.3-.18.62-.37.87-.97,1.34-2.32,2.17-3.84,2.73-.15.06-.3.11-.46.13-2.71.33-5.42.36-8.13.06-.65-.07-1.21-.37-1.71-.8-1.21-1.06-2.3-2.22-2.97-3.71-.26-.58-.55-1.15-.87-1.7-.33-.57-.88-.92-1.44-1.22-.28-.15-.6-.21-.91-.28-.48-.1-.9-.33-1.28-.62-.52-.4-.88-.9-1-1.57-.19-1.11-.19-2.23-.09-3.34.06-.64.16-1.27.45-1.85.29-.57.57-1.14.67-1.78.08-.48.27-.93.57-1.3.92-1.12,1.49-2.45,2.27-3.66.26-.4.44-.86.74-1.23.7-.88,1.19-1.88,1.78-2.83.08-.13.22-.23.33-.35.32-.33.57-.32.71.04.05.13.07.32.02.45-.1.3-.25.58-.39.86-.43.85-.85,1.71-1.39,2.51-1.44,2.12-2.41,4.49-3.56,6.77-.07.14-.09.3-.12.46-.19,1.1-.36,2.21-.17,3.33.08.5.3.96.72,1.18,1.84.96,3.7,1.88,5.56,2.78.72.35,1.45.67,2.2.92.9.31,1.85.49,2.72.9.42.2.93.22,1.39.31.47.09.98.08,1.41.27,1.37.61,2.79.6,4.23.51.15,0,.3-.08.44-.14.35-.14.48-.42.37-.78-.31-.98-.9-1.65-2-1.73-.32-.02-.64-.07-.94-.15-.65-.16-1.46-1.09-1.53-1.7-.15-1.44-.18-2.87-.02-4.31.08-.65.33-1.23.74-1.73.2-.25.39-.51.6-.75.31-.36.64-.69,1.07-.9.25.2.51.39.75.59.12.1.23.22.34.34.87.87,1.95,1.01,3.1.91.16-.01.36,0,.45-.1.21-.22.47-.48.53-.76.3-1.42-.05-2.87.16-4.3.02-.14.16-.28.28-.38.22-.18.53-.24.86-.11.28.11.49.39.54.71.26,1.58-.05,3.19.16,4.78.05.42.41.89.86,1.02.61.18,1.27.2,1.84.5.72.39,1.51.49,2.31.55.97.08,1.91-.02,2.81-.42.42-.19.71.17.74.86.06,1.6.11,3.19.15,4.79.02.96.11,1.91.52,2.8.2.45.2.94.21,1.41.08,3.83.16,7.67.22,11.5.03,1.6.03,3.2.04,4.79,0,.81.16,1.58.44,2.34.11.29.18.62.19.93.04,1.12.05,2.24.06,3.36,0,2.08,0,4.16,0,6.23,0,.65-.09,1.28-.34,1.87-.19.45-.28.92-.29,1.4-.04,1.44-.04,2.88-.09,4.31-.06,1.92-.14,3.83-.24,5.75-.02.47-.06.97-.23,1.41-.34.91-.46,1.85-.49,2.81-.05,1.6-.11,3.19-.2,4.79-.03.64-.03,1.31-.24,1.89-.45,1.23-.52,2.5-.57,3.77-.07,1.58-1.39,2.28-2.52,2.39-1.12.11-2.24.02-3.35-.04-.47-.03-.98-.04-1.41-.21-1.21-.49-2.49-.58-3.76-.65-.98-.05-1.89-.26-2.76-.69-.14-.07-.3-.13-.45-.15-.79-.12-1.6-.15-2.36-.37-.76-.21-1.48-.57-2.27-.73-1.4-.29-2.7-.98-4.15-1.07-.75-.27-1.48-.63-2.25-.78-1.41-.27-2.67-1.1-4.15-1.1-.49,0-.9-.3-1.34-.48-1.32-.55-2.58-1.27-4.03-1.47-1.23-.78-2.72-.91-4.02-1.52-.42-.2-.93-.25-1.4-.27-1.59-.08-3.19-.12-4.79-.17-.57-.02-1.1-.78-.94-1.4.12-.46.28-.91.41-1.37.13-.46.31-.92.35-1.38.1-1.11.14-2.23.2-3.35.03-.64.13-1.27.37-1.87.18-.44.33-.89.36-1.38.08-1.28.17-2.55.27-3.83.02-.32.02-.67.16-.94.75-1.5.61-3.12.68-4.7.15-3.51.23-7.03.16-10.55-.01-.65.07-1.28.33-1.87.2-.47.21-.93.05-1.39-.2-.61-.37-1.22-.38-1.87-.02-2.08-.05-4.16-.08-6.23-.08-5.59-.19-11.19-.22-16.78-.02-2.72.09-5.43.14-8.15,0-.15.1-.3.12-.46.12-.64,1.28-1.37,1.89-1.13,1.04.41,2.13.64,3.17,1.03.9.33,1.82.59,2.73.86.45.13.84.45,1.14.83.1.12.24.33.2.42-.14.28-.42.47-.74.47-1.45.04-2.85-.12-4.17-.84-.69-.38-1.47-.6-2.21-.9-.33-.13-1.02.34-1.09.71-.22,1.11-.19,2.23-.19,3.35,0,1.6.05,3.2.12,4.79.02.47.19.93.32,1.39.13.46.33.9.33,1.39.01,3.68.21,7.35.21,11.02,0,4.63.09,9.27.17,13.9.07,4.16-.16,8.31-.33,12.46-.03.65-.22,1.25-.45,1.85-.11.29-.2.61-.23.92-.08.96-.13,1.91-.19,2.87-.04.64-.21,1.26-.44,1.85-.12.29-.24.6-.26.91-.11,1.91-.22,3.83-.28,5.74-.01.48.3.87.7,1.17.39.3.83.49,1.3.56.63.09,1.27.12,1.91.15.81.04,1.58.19,2.3.57.43.23.91.31,1.38.36.81.09,1.53.37,2.27.7,1.16.51,2.27,1.18,3.56,1.37,1.33.6,2.72.88,4.17.95.48.02.94.12,1.39.33.72.33,1.5.56,2.21.92.73.36,1.5.52,2.3.61.48.06.96.1,1.39.32.72.38,1.5.53,2.29.63.47.06.95.1,1.39.33.72.38,1.5.53,2.3.61.47.05.98.1,1.4.29,1.19.54,2.43.76,3.72.81.65.02,1.25.21,1.86.42.93.33,1.88.28,2.84.2.21-.23.54-.43.6-.69.18-.77.15-1.6.38-2.35.34-1.08.54-2.16.55-3.29.03-1.92.11-3.83.17-5.75.05-1.59-.04-3.21.63-4.71.07-.63.18-1.27.19-1.9.12-6.23.32-12.46.13-18.88Zm-13.78-18.41c-.1-.11-.17-.25-.29-.32-.86-.5-1.89-.12-2.76-.51-.89-.4-1.82-.58-2.78-.62-1.13-.05-2.19-.32-3.23-.75-.42-.17-.94-.11-1.41-.11-.13,0-.3.14-.38.26-.05.08,0,.26.05.37.06.14.15.28.26.4.88.95,1.86,1.73,3.2,1.92.31.04.62.16.9.3.32.16.6.17.92.03.75-.31,1.55-.3,2.35-.36.94-.07,1.91.05,2.81-.32.14-.06.25-.19.38-.29Z"/><path class="cls-1" d="m148.12,151.52c-1.9-.09-1.9-.08-2.54.43-.37.3-.73.62-1.1.93-.35.29-1,.35-1.34.13-.4-.26-.83-.49-1.18-.81-.76-.68-1.63-.97-2.64-.87-.32.03-.64.04-.95.05-.51.02-.92-.21-1.31-.49-.13-.09-.27-.19-.35-.32-.7-1.06-1.37-2.14-1.43-3.47-.01-.34.04-.65.27-.89.17-.17.96.24,1.15.55.35.56.36,1.21.5,1.83.11.52.55.64,1.06.29.26-.18.5-.39.75-.59.42-.34.73-.26,1.24.07.83.53,1.26,1.44,2.01,2.03.28.22,1.12.12,1.27-.2.14-.28.26-.57.4-.85.15-.28.3-.56.47-.82.31-.47.84-.6,1.19-.29.36.32.71.64,1.08.95.66.55,1.41.44,2.12-.19.64-.56.72-1.41,1.2-2.04.18-.23.51-.29.85-.19.29.09.53.33.62.64.24.82.07,1.59-.48,2.23-.41.48-.87.94-1.36,1.35-.36.31-.79.53-1.3.52-.32,0-.64,0-.19,0Z"/><path class="cls-1" d="m131.35,138.94c-.33.03-.63-.03-.88-.22-.51-.4-1.09-.59-1.73-.61-.31-.01-.63-.02-.94,0-.64.01-1.23-.09-1.79-.43-.4-.24-.8-.51-1.24-.65-.66-.2-1.02-.66-1.32-1.22-.22-.41-.5-.77-.73-1.18-.07-.12-.02-.31-.03-.46l-.06.07c.84-.14,1.54.06,1.93.89.21.44.53.74.98.94.43.18.86.37,1.25.62.62.41,1.15.24,1.69-.16.12-.09.27-.16.41-.23.33-.14,1.04.03,1.29.29.68.69,1.19,1.44,1.07,2.46l.11-.1Z"/><path class="cls-1" d="m144.98,121.67c.03-.24-.23-1.13-.78-1.96-.17-.26-.27-.58-.32-.88-.15-.83.02-1.57.69-2.15.37-.31.76-.57,1.24-.67.5-.1.94.04,1.31.36.49.43.7,1.05,1.02,1.59.36.6.29,1.23-.05,1.8-.24.4-.61.73-.89,1.11-.52.69-.59,1.45-.26,2.24.39.95,1.86,1.68,2.78,1.37.45-.15.88-.37,1.31-.55.29-.12.59-.23.89-.34.54-.2,1.33.27,1.46.86.22.98.06,1.92-.43,2.76-.56.96-1.22,1.86-1.84,2.78-.09.13-.2.25-.31.36-.23.22-.46.45-.72.62-.4.26-.85.44-1.24.7-1.01.67-2.14.66-3.23.41-1.07-.25-2.11-.69-3.14-1.08-.28-.11-.52-.36-.75-.58-.23-.22-.49-.45-.61-.72-.46-1.04-1.41-1.74-1.86-2.77-.19-.44-.26-.91-.21-1.4.07-.62.41-.92.87-.8.47.12.85.42,1.29.6,1.01.42,2.25.17,3.06-.68.21-.22.4-.52.47-.81.12-.46.12-.95.26-2.17Zm1.12,8.31c.15-.03.31-.04.45-.08.61-.16,1.21-.35,1.82-.5.82-.19,1.37-.72,1.82-1.39.25-.38.04-1.09-.32-1.2-.91-.27-1.85-.32-2.77-.47-.46-.08-.96-.02-1.37.22-.96.55-1.96.97-3.07,1.12-.14.02-.32.14-.38.26-.05.1.02.3.09.41.17.26.33.56.58.72.96.59,2.15.44,3.15.9Z"/><path class="cls-1" d="m137.07,113.26s-.03.32-.07.64c-.07.56-.73,1.09-1.35,1.09-.67,0-1.26-.48-1.36-1.07-.19-1.13-.12-2.21.53-3.2.17-.26.32-.54.49-.81.21-.33.45-.3.76,0,.6.58.95,1.26.99,2.09.01.32,0,.63,0,1.26Z"/><path class="cls-1" d="m152.44,111.02c0-.8.17-1.53.75-2.13.37-.39.88-.48,1.19-.14.21.23.44.44.6.7.69,1.11.49,2.87-.42,3.9-.49.55-.99.5-1.49-.15-.29-.37-.51-.77-.56-1.25-.02-.15-.05-.31-.06-.46,0-.15,0-.31,0-.47Z"/></g></g></svg>