<?xml version="1.0" encoding="UTF-8"?><svg id="Lavender_Crowd" xmlns="http://www.w3.org/2000/svg" viewBox="0 0 250 430"><defs><style>.cls-1,.cls-2,.cls-3{stroke-width:0px;}.cls-2{fill:#9d5fdb;}.cls-3{fill:#fff;}</style></defs><g id="CIB24_Lavender_Wookie_1"><path class="cls-3" d="m128.46,411.8c-.24,0-.52-.08-.87-.27-.16-.08-.33-.16-.5-.24-.24-.11-.47-.21-.63-.33-.3-.22-.44-.5-.46-.88-.08-1.36.39-2.61,1.57-4.18.92-1.22,1.83-2.01,2.86-2.49.57-.26,1.02-.69,1.42-1.12.15-.17.66-.76.67-1.5.04-2.47.06-4.94.08-7.41l.03-3.15.12-10.55c0-.57.17-1.13.52-1.83,1.25-2.43,2.94-4.13,5.18-5.2.61-.29,1-.89,1.05-1.61.12-1.61.14-3.06.07-4.44-.07-1.23-.05-2.5-.04-3.72v-1.01c.04-4.53,0-8.2-.09-11.55-.04-1.35-.05-2.7-.07-4.05,0-.72-.01-1.45-.02-2.17-.02-1.18-.08-2.43-.61-3.67-.09-.21-.1-.56-.11-.9v-.16c-.1-2.55-.19-5.1-.26-7.66-.03-1.06-.2-1.92-.55-2.71-.14-.31-.18-.7-.21-1.07-.15-2.02-.22-4.19-.21-6.63,0-.96-.16-1.85-.49-2.71-.07-.18-.12-.4-.14-.65-.05-.62-.09-1.24-.14-1.86-.03-.49-.07-.99-.11-1.48,0-.11-.01-.22-.02-.33-.02-.43-.04-.92-.25-1.41-.33-.76-.46-1.6-.6-2.48-.06-.35-.11-.7-.18-1.04-.17-.89-.74-1.62-1.63-2.13-.23-.14-.52-.31-.91-.32-.75-.02-1.5-.04-2.24-.06-1.63-.05-3.31-.09-4.98-.09-.81,0-1.62.01-2.42.04-.29,0-.71,0-1.07.3-.32.26-.68.59-.88,1.06-.2.45-.21.92-.2,1.36.01.66.03,1.33.05,1.99.03,1.09.06,2.18.06,3.27,0,.95.06,2.07.53,3.2.02.05.05.1.06.16.07,1.38.13,3.23-.06,5.08-.02.17-.09.39-.18.61-.13.38-.29.8-.3,1.31l-.05,1.82c-.03.99-.06,1.98-.08,2.97l-.08,3.24c-.04,1.8-.08,3.59-.13,5.39,0,.38-.03.75-.16,1.04-.33.78-.51,1.63-.55,2.69-.04.86-.08,1.72-.13,2.58-.04.74-.08,1.47-.11,2.21-.02.5-.13,1.01-.34,1.55-.21.56-.35,1.11-.39,1.65-.07.77-.11,1.55-.16,2.33-.03.51-.06,1.01-.09,1.52-.02.23-.03.48-.07.55-.54,1.06-.64,2.13-.74,3.16-.03.3-.06.6-.1.9-.05.4-.12.81-.26,1.14-.31.76-.51,1.58-.62,2.6-.06.56-.2,1.04-.42,1.47-.3.57-.43,1.16-.54,1.69-.12.54-.22,1.01-.47,1.37l-.09.13-.04.15c-.12.41-.36.82-.62,1.25-.22.38-.45.76-.64,1.21-.09.22-.2.42-.3.63-.19.37-.38.75-.52,1.19-.32,1-.28,2.04.1,3.02.15.37.35.7.54,1.01.09.14.13.27.14.42.06.99-.04,1.97-.14,3.02l-.06.65c-.02.17-.11.4-.21.63-.3.74-.46,1.45-.49,2.19-.04.96-.14,1.96-.59,2.85-.2.4-.27.82-.33,1.16-.08.47-.11.89-.15,1.31-.07.8-.13,1.55-.46,2.2-.29.56-.42,1.16-.53,1.68-.12.55-.22,1.02-.47,1.39l-.12.17-.04.21c-.11.62-.34,1.23-.59,1.88-.2.53-.41,1.09-.56,1.68-.15.6-.28.95-.55,1.2-1.2,1.13-1.99,2.21-2.5,3.39-.11.25-.39.55-.65.83-.78.83-1.56,1.61-2.35,2.39-.35.34-.78.58-1.32.84-1.37.65-2.72,1.33-4.07,2.01-.65.33-1.3.65-1.95.97-.9.45-1.6.77-2.38.89l-.17.03-.15.08c-.79.42-1.7.64-2.78.67-1.08.02-2.14.27-3.17.73l-.32.04c-1.35.04-2.7.08-4.05.09-.16,0-.41-.08-.62-.15l-.35-.11c-.47-.15-.92-.29-1.31-.49-.89-.45-1.06-1.03-1.12-1.43-.14-1.06,0-2.13.16-3.03.02-.09.07-.26.23-.52.45-.73,1.01-1.38,1.67-1.91.42-.35.8-.66,1.17-.71.94-.14,1.72-.51,2.47-.87.29-.14.58-.28.88-.4l.3-.12.17-.28c.04-.06.08-.11.12-.17.19-.24.44-.58.5-1.04.15-1.22.24-2.34.27-3.43.03-.83.08-1.7.38-2.5.19-.5.22-1.02.25-1.47l.02-.22c.04-.57.08-1.15.12-1.72.04-.7.09-1.4.15-2.1.01-.17.07-.37.17-.6.28-.64.54-1.35.59-2.17.05-.79.1-1.58.17-2.37l.02-.24c0-.12.02-.31.04-.37.58-1.27.7-2.58.81-3.83l.08-.83-.02-.13c-.15-.9.27-1.7.75-2.64l.19-.37c.15-.29.38-.6.66-.86.7-.66,1.4-1.27,2.1-1.82.37-.29.86-.48,1.38-.68.07-.03.14-.05.22-.08.04.01.08.02.12.04.31.1.7.22,1.15.22.94-.03,1.58-.51,1.76-1.25.13-.52.2-1.07.21-1.64.04-2.02.07-4.05.1-6.07.03-1.65.08-5.16.08-5.16,0-.51.01-.96.17-1.32.65-1.54.73-3.12.75-4.61.02-1.32,0-2.64,0-3.96,0-.76-.01-1.53-.01-2.29,0-.8.1-1.43.32-1.98.22-.54.21-1.09-.02-1.67-.08-.21-.13-.42-.14-.58-.04-1.59-.06-3.18-.06-4.77,0-.39.01-.79.12-1.08.38-1.06.56-2.17.58-3.62.04-3.35.11-6.71.19-10.06,0-.4.06-.81.11-1.21.02-.15.04-.29.05-.44.65-1.41.65-2.84.66-4.22,0-.25,0-.5,0-.74.02-1.3.02-2.6.02-3.9,0-.78,0-1.57,0-2.35,0-.16.04-.3.14-.46l.13-.22v-.25c.05-.72.13-1.43.25-2.29l.11-.8-.76-.28c-.15-.05-.3-.11-.45-.18-.45-.21-.95-.36-1.59-.49-.46-.09-.93-.15-1.39-.2l-.36-.04c-.7-.4-1.42-.6-2.12-.79-.5-.14-.96-.27-1.39-.46-.27-.12-.53-.25-.8-.38-.91-.44-1.85-.89-2.92-1.14-.38-.09-.76-.24-1.17-.41-.58-.23-1.22-.49-1.94-.59-1.42-.74-2.91-1-4.19-1.14-.16-.11-.43-.41-.51-.57,0-.07-.05-.27-.06-.3v-.62c-.04-1.54-.07-3.09-.09-4.63,0-.65.12-1.29.39-1.96.2-.49.33-1.05.38-1.67.08-.84.13-1.69.18-2.53l.05-.85c.04-.62.1-1.13.28-1.57.25-.62.39-1.31.46-2.17.03-.41.05-.82.08-1.23.03-.55.07-1.09.11-1.64l.02-.34c.02-.3.04-.6.11-.78.58-1.44.64-2.89.68-4.29l.07-2.14c.04-1.14.07-2.28.13-3.42.02-.39.09-.78.21-1.14.21-.62.44-1.33.47-2.14.11-3.03.22-6.07.34-9.1v-.13c.02-.36.03-.68.13-.92.34-.77.5-1.64.51-2.72.03-2.07.08-3.95.14-5.73.01-.37.09-.75.22-1.07.34-.86.53-1.71.6-2.6.16-2.02.19-3.97.22-6.3,0-.37.06-.76.11-1.18.02-.15.04-.29.06-.44.5-1.02.57-2.08.62-3.02.03-.47.05-.91.13-1.32.03-.15.06-.19.06-.2l.21-.18.08-.25c.09-.26.2-.5.35-.75l.74-1.21-1.39-.29c-.39-.08-.78-.24-1.14-.41,0-.23-.01-.46-.02-.69-.04-.94-.07-1.83.23-2.63l.06-.15.04-.89c.03-.68.06-1.35.1-2.03l3.96,1.27-2.32-2.64s0-.84,0-.84c.01-1.97.02-3.94.05-5.9,0-.33.03-.72.16-1.03.35-.83.53-1.72.55-2.71.06-4.38.14-8.76.22-13.13l.02-1.36c0-.37,0-.69.11-.92.75-1.69.82-3.44.84-5.09,0-1.05.13-1.78.41-2.42.32-.72.33-1.45.33-2.09v-.18c.05-2.58.09-5.16.13-7.74l.05-3.39c.03-1.89.06-3.78.07-5.67,0-.7.13-1.36.37-1.99.09-.23.2-.48.2-.79,0-.24.02-.49.03-.74.06-1.21.14-2.58-.42-3.93-.11-.27-.14-.6-.14-1.04v-.2c-.02-1.13-.03-2.21.4-3.15l.07-.15s.06-.55.08-.75c.05-.47.1-.93.11-1.4.09-4.32.17-8.64.24-12.96,0-.38-.03-.77-.1-1.15-.06-.35-.25-.59-.37-.73-.31-.44-.71-.66-1.14-.66-.3,0-.88.11-1.27.88l-.41.79c-.53,1.01-1.08,2.05-1.54,3.13-.12.28-.26.55-.39.83-.37.74-.79,1.58-.9,2.57,0,.06-.09.23-.15.35l-.11.24c-.14.31-.28.61-.43.92-.27.57-.54,1.14-.78,1.73-.26.64-.57,1.25-.89,1.91-.6,1.21-1.22,2.45-1.54,3.86-.16.34-.33.67-.5,1-.54,1.05-1.1,2.14-1.34,3.41-.35.73-.58,1.48-.8,2.21-.23.76-.45,1.47-.79,2.12l-.07.13-.03.14c-.18.92-.43,1.75-.76,2.54-.2.47-.3.93-.41,1.38-.11.47-.21.91-.4,1.26-.33.59-.37,1.21-.41,1.71-.07.86-.22,1.47-.5,2.01-.21.41-.34.81-.4,1.21-.15,1.05-.29,2.04-.75,2.89l-.1.18-.02.21c-.06.62-.29,1.24-.53,1.9-.19.52-.39,1.05-.52,1.62-.16.71-.49,1.37-.82,1.97l-.56,1.02,1.09.4c.22.08.36.18.39.22q1.16,1.69,1.09,3.81v.18c-.02.6-.04,1.13-.24,1.61-.17.42-.18.85-.19,1.19,0,.18,0,.39-.04.48-.39,1.06-.43,2.08-.46,3.07l-.02.54c-.01.25,0,.51,0,.76,0,.64.01,1.19-.23,1.64l-.1.18-.14,1.88-.02.38c-.03.53-.05.99-.24,1.37-.21.43-.22.86-.23,1.2v.3c-.03.53-.05.98-.21,1.37-.18.43-.2.86-.22,1.21l-.03.55c-.03.67-.05,1.24-.27,1.77-.19.46-.18.91-.17,1.28,0,.14,0,.28,0,.41-.04.32-.04.65-.05.97,0,.59-.02,1.1-.23,1.52l-.09.18s-.13,1.88-.16,2.36c-.03.47-.05.81-.17,1.1-.14.35-.22.76-.26,1.23-.01.19-.02.38-.03.57-.03.7-.07,1.37-.3,1.96-.17.43-.15.85-.14,1.18,0,.11.01.21,0,.31l-.02.44c-.02.59-.04,1.1-.25,1.54-.18.38-.2.76-.21,1.04-.02.48-.04.92-.05,1.37l-.03.83c0,.13,0,.27,0,.4,0,.21,0,.42-.03.53-.35,1.1-.43,2.18-.5,3.23l-.02.31c-.01.16-.07.36-.13.58-.07.25-.13.49-.17.75-.04.24-.04.49-.04.74,0,.19,0,.41-.03.5-.43,1.25-.47,2.47-.51,3.66,0,.29-.02.59-.03.88-.01.27-.08.56-.14.87l-.08.4c-.13.67-.15,1.34-.18,1.99l-.02.47c-.02.62-.04,1.15-.23,1.62-.15.38-.17.77-.19,1.07l-.04.65c-.04.57-.09,1.16-.07,1.76,0,.22-.07.47-.16.76-.11.38-.25.81-.24,1.32,0,.47-.03.95-.06,1.43l-.03.51c-.28.74-.35,1.48-.41,2.15-.06.61-.11,1.18-.31,1.68-.14.35-.16.69-.18.97,0,.12-.01.24-.04.35-.02-.01-.05-.02-.07-.02-.04,0-.08,0-.13.02-.16.03-.32.07-.48.13-1.01.35-1.6,1.1-1.66,2.09v.26c-.05.72-.09,1.41-.32,2.03-.19.51-.2,1.03-.2,1.48,0,.15,0,.3-.01.45-.02.25-.02.51-.03.76-.01.58-.02,1.08-.21,1.53-.17.42-.16.83-.14,1.16,0,.11.01.21,0,.32-.03.35-.05.71-.06,1.06-.03.79-.06,1.54-.32,2.22-.2.54-.23,1.07-.25,1.54-.02.4-.03.74-.15,1.02-.19.46-.25.92-.3,1.32-.05.36-.09.68-.21.91l-.1.2s-.03.71-.05.95c-.03.56-.07,1.14-.05,1.74.03,1.18-.01,2.4-.06,3.57l-.02.44c-.02.44-.08.81-.18,1.14-.17.55-.21,1.11-.24,1.6-.05.8-.06,1.54-.08,2.29v.2c0,.16-.07.36-.14.59-.11.37-.25.82-.23,1.35.02.37-.02.77-.07,1.2l-.03.32c-.02.2-.06.32-.09.37-.28.59-.31,1.16-.31,1.59,0,.58-.02,1.16-.04,1.74v.38c-.02.15-.02.31-.01.47,0,.26,0,.52-.04.67-.36,1.03-.38,2.03-.4,3,0,.35-.02.7-.04,1.04,0,.09,0,.18,0,.27h0c-.4,1.08-.41,2.12-.43,3.12,0,.44-.01.88-.05,1.31-.02.2-.03.4-.03.59-.01.42-.03.69-.14.89-.18.32-.19.64-.2.83-.02.36-.03.65-.03.94-.01.57-.02,1.11-.13,1.58-.25,1.08-.38,1.94-.4,2.79v.19c0,.07,0,.14,0,.21-.42.97-.45,2-.47,2.92,0,.22-.01.45-.02.67-.02.35-.1.69-.25,1.08-.17.44-.16.87-.16,1.23,0,.09,0,.19,0,.28,0,.19-.01.38-.02.57-.02.78-.03,1.51-.3,2.16-.15.37-.15.72-.16,1,0,.08,0,.16,0,.23-.03.38-.04.76-.06,1.14-.02.77-.04,1.5-.28,2.15l-.06.15-.04.83c-.02.49-.04.97-.08,1.45-.02.27-.03.54-.04.81-.03.71-.05,1.37-.29,1.95-.17.42-.17.83-.17,1.17v.15c0,.55-.07.97-.2,1.35-.15.46-.2.92-.23,1.33,0,0-.06.64-.08.82-.04.5-.08.97-.22,1.4-.18.6-.19,1.21-.19,1.75,0,.14,0,.28,0,.42v.48c-.04.99-.07,1.93-.33,2.83-.18.62-.19,1.26-.2,1.82,0,.19,0,.37-.01.55-.03.6-.07,1.14-.23,1.64-.15.49-.18.98-.21,1.41l-.02.24c-.02.32-.03.64-.03.96-.01.73-.02,1.42-.28,2.01-.12.28-.13.53-.14.71-.02.33-.04.58-.05.83-.03.65-.06,1.26-.28,1.78l-.07.17-.04.98c-.03.6-.05,1.21-.09,1.81-.01.2-.02.4-.03.6-.02.55-.04,1.02-.21,1.44-.18.42-.17.84-.17,1.17,0,.1,0,.21,0,.31-.03.36-.13,1.45-.13,1.45-.33.65-.34,1.31-.35,1.85,0,.16,0,.32-.02.48-.02.27-.03.54-.04.81-.02.65-.03,1.2-.25,1.7-.17.38-.16.76-.16,1.03,0,.08,0,.16,0,.23-.03.29-.04.59-.06.89-.03.69-.07,1.35-.28,1.93-.13.35-.14.69-.14.97,0,.08,0,.16,0,.24l-.13,1.42c-.25.48-.17.96-.13,1.22,0,.04.01.08.02.12-.25.57-.25,1.15-.25,1.61,0,.18,0,.35-.02.53-.03.29-.04.59-.04.89,0,.53-.02.98-.21,1.34l-.1.19-.06.93c-.03.48-.07.97-.09,1.45l-.02.42c-.02.67-.04,1.31-.26,1.87-.15.4-.16.79-.17,1.1,0,.11,0,.22-.02.33-.04.32-.04.64-.05.97,0,.58-.02,1.08-.24,1.49l-.11.2s-.08,1.52-.1,1.91c-.01.24-.01.47-.02.71,0,.76-.02,1.41-.28,2-.15.33-.15.65-.15.89,0,.05,0,.1,0,.15-.02.29-.03.58-.03.87-.01.7-.02,1.31-.28,1.83l-.09.19s-.04.69-.05.92c-.04.57-.07,1.15-.06,1.75.01.41-.16.81-.35,1.28-.04.09-.07.18-.11.27-.05.01-.11.03-.16.04-.23.05-.52.12-.81.28-.81.45-2.75,1.42-3.58,1.79-.11-.02-.21-.03-.33-.03-.14,0-.29.02-.43.04-.03,0-.07.01-.1.01-.08-.03-.17-.05-.25-.08-.24-.08-.46-.14-.54-.24-.22-.24-.48-.5-.83-.69-.63-.32-.9-.88-1.21-1.86-.28-.89-.32-1.6-.14-2.22.22-.75.33-1.54.31-2.42,0-.63,0-1.2.22-1.69.17-.37.17-.75.18-1.02,0-.08,0-.15,0-.23.04-.39.05-.78.06-1.18.02-.76.04-1.47.29-2.1.11-.28.11-.54.11-.71,0,0,.07-1.47.09-2,.02-.55.16-1.13.3-1.69.09-.39.11-.78.13-1.12.01-.29.03-.56.08-.77.09-.36.11-.7.12-1,.01-.28.03-.53.1-.7.12-.28.15-.56.17-.79.03-.49.05-.98.07-1.46,0-.06.04-.12.06-.19.1-.27.26-.72.15-1.23.17-.58.21-1.16.23-1.67.01-.19.02-.39.04-.58.02-.23.03-.46.04-.69.01-.44.02-.79.16-1.07.21-.41.21-.84.21-1.16v-.19c.03-.45.04-.91.06-1.36l.06-1.44c.02-.62.04-1.16.22-1.66.18-.5.18-.99.18-1.42,0-.17,0-.33.01-.49.02-.19.03-.38.03-.58.02-.46.03-.86.19-1.17.14-.26.2-.58.19-.95-.02-.62.11-1.25.25-1.92.13-.65.27-1.32.29-2.04.5-1.39.51-2.78.52-4.12v-.63c.01-.3.06-.53.16-.76.16-.36.2-.72.22-1.04.03-.41.05-.83.07-1.24l.04-.69c0-.16.01-.32.01-.48,0-.26,0-.52.05-.67.14-.41.12-.78.11-1.05,0-.12-.01-.26,0-.31.18-.47.2-.93.22-1.34,0-.12.01-.23.02-.35.02-.23.03-.47.04-.71.02-.59.05-1.1.25-1.52.1-.21.15-.46.14-.73-.04-.72.1-1.45.24-2.22.13-.71.27-1.45.28-2.23,0-.16,0-.3.02-.35.39-.93.42-1.89.44-2.73l.03-1.01c.02-.87.05-1.69.29-2.46.18-.55.19-1.1.2-1.59,0-.18,0-.37.02-.55l.02-.25c.03-.41.05-.76.18-1.05.2-.44.22-.89.23-1.26.02-.44.02-.83.02-1.22,0-.33,0-.67.02-1v-.3c0-.17,0-.42.04-.5.34-.75.38-1.49.41-2.14,0-.18.02-.36.03-.54.02-.25.04-.51.05-.76.04-.66.07-1.28.26-1.86.17-.52.18-1.04.18-1.49,0-.2,0-.41.03-.61.01-.04.04-.09.06-.15.13-.3.37-.85.1-1.49-.09-.21-.05-.39.12-.9.13-.39.12-.77.12-1.07,0-.11,0-.23,0-.34.02-.19.03-.39.04-.58.02-.47.04-.87.2-1.21.19-.4.21-.81.23-1.14v-.16c.06-.7.14-1.2.27-1.68.16-.57.19-1.15.2-1.66,0-.15.01-.3.02-.45.03-.51.05-1.03.07-1.54l.02-.47c.42-1.14.45-2.28.44-3.27,0-.05.02-.16.08-.3.27-.64.29-1.26.32-1.76l.1-2.24c.45-1.32.46-2.63.47-3.9v-.3c0-.25.08-.53.16-.85.12-.45.25-.96.22-1.56-.03-.61.06-1.17.27-1.68.16-.39.17-.78.18-1.09v-.18c.02-.25.03-.5.03-.75,0-.37.01-.73.06-1.1.05-.4.05-.78.05-1.15,0-.55,0-1.03.17-1.46.2-.51.24-1.02.27-1.47.03-.4.06-.75.19-1.02.19-.38.2-.76.2-1.04,0-.08,0-.15.01-.23.03-.25.05-.49.07-.74.04-.51.08-.99.22-1.42.17-.52.19-1.04.2-1.5,0-.14,0-.28.01-.42.01-.22.02-.43.03-.65.02-.69.04-1.28.29-1.79l.09-.18.06-.84c.04-.52.08-1.04.09-1.56v-.11c0-.55.02-1.02.18-1.44.14-.38.16-.76.18-1.07,0-.11,0-.22.02-.33.05-.41.06-.82.07-1.23.01-.68.03-1.27.26-1.79.16-.35.16-.69.16-.94l.02-.7c.02-.79.04-1.54.29-2.21.17-.46.17-.93.16-1.31v-.22c0-.99,0-1.98,0-2.97v-.6s.02-.49.02-.49l.03-1.16c.02-.98.04-1.95.06-2.93,0-.51.02-.9.18-1.24.19-.43.21-.86.22-1.22.02-.53.03-.98.03-1.42l.02-.84c0-.1,0-.2,0-.3,0-.12,0-.3.01-.35.46-1.33.46-2.65.44-3.91l-.02-2.09-1.62,1.29c-.41.33-.9.57-1.42.83l-.4.2c-.53.27-1.05.4-1.58.4s-1.09-.14-1.66-.42c-.42-.21-.86-.31-1.3-.31-.46,0-.93.12-1.4.35-.35.18-.72.33-1.08.49-.37.16-.73.32-1.09.5-.44.22-.9.32-1.39.32-.8,0-1.59,0-2.39-.02-.34,0-.68-.16-1.08-.51-.21-.18-.4-.37-.57-.57-.18-.21-.31-.43-.4-.68l-.04-.12-.07-.11c-.17-.26-.25-.67-.34-1.11-.12-.6-.25-1.28-.66-1.88l.16-.88-1.49.06c-.97.04-1.95.08-2.92.08-.82,0-1.54-.03-2.22-.09-.48-.04-.67-.29-.78-.46-.49-.86-.99-1.75-1.12-2.71-.05-.4-.19-.74-.32-1.04l-.05-.11s-.04-.1,0-.3c.02-.07.05-.15.08-.22.09-.23.22-.54.23-.92.02-.96.6-1.7,1.3-2.49.26-.29.57-.56.89-.85.21-.18.42-.37.62-.56.29-.27.61-.4,1.03-.4h.77c.48.01,1.04-.02,1.63-.25.94.34,1.95.39,2.8.39.31,0,.62,0,.92-.01.29,0,.58-.01.88-.01.18,0,.36,0,.54.01.15,0,.31,0,.47,0,.3,0,.6-.01.9-.02l.55-.02,1.22-.02-.27-1.19c0-.05.02-.13.03-.22,0-.01,0-.03,0-.04,1.27-1.83,2.58-3.71,4.14-5.35.15-.16.31-.32.47-.48.78-.79,1.58-1.61,2.13-2.72.08-.17.34-.39.57-.59l.17-.15c1.51-1.35,2.17-2.86,2.02-4.6-.06-.69.1-1.45.47-2.31.3-.69.34-1.4.38-2.02.01-.21.03-.42.05-.63l.03-.3c.05-.49.1-.92.26-1.27.4-.87.61-1.79.62-2.73.01-1.22.18-2.06.56-2.82.22-.43.27-.87.32-1.26.02-.13.03-.26.06-.39.03-.16.05-.32.08-.48.04-.27.08-.53.15-.69.63-1.34.77-2.7.83-3.61.04-.65.14-1.1.32-1.48.42-.86.51-1.76.59-2.56l.02-.24c.04-.35.06-.65.18-.84.48-.81.62-1.67.74-2.44v-.05c.57-1.12.9-2.4,1.03-3.9,0-.04,0-.08.01-.12.7-1.17.81-2.47.92-3.73l.03-.32c.04-.45.08-.79.21-1.08.35-.79.53-1.48.57-2.2v-.2c.07-1.13.12-2.2.62-3.09l.09-.16.12-.76c.07-.45.15-.9.2-1.35v-.13c.1-.84.19-1.63.54-2.29.32-.61.37-1.24.41-1.76.09-1.24.18-2.38.68-3.4.23-.48.27-.98.3-1.39,0-.12.02-.23.03-.34.06-.53.21-1.03.44-1.53.19-.39.31-.75.39-1.1.08-.34.14-.68.2-1.03.13-.73.25-1.42.52-2.05.2-.47.34-.95.48-1.4.18-.59.35-1.15.62-1.64l.09-.16.03-.18c.1-.73.39-1.43.7-2.18l.12-.3c.2-.5.32-1,.43-1.48.11-.45.2-.88.37-1.26.2-.47.29-.92.39-1.36.1-.47.19-.91.4-1.26.36-.62.53-1.28.68-1.86.12-.48.24-.94.45-1.32.26-.5.4-1.03.52-1.49.11-.44.21-.85.41-1.17.3-.51.4-1.02.49-1.48.07-.33.12-.61.24-.83.39-.72.71-1.44,1.05-2.25,2.93-6.83,3.4-7.71,5.35-11.41l.75-1.43c.44-.85.86-1.65,1.39-2.4.51-.73.98-1.58,1.48-2.67.25-.55.54-1.07.86-1.63.32-.56.64-1.14.93-1.76.25-.55.58-1.08.94-1.63.25-.39.5-.79.72-1.19.17-.31.35-.96-.04-1.47-.25-.33-.71-.71-1.54-.71-.06,0-.12,0-.18,0-.73.04-1.35.3-1.89.52l-.24.1c-.3.12-.65.14-1.08.16h0c-.22,0-.43-.04-.65-.29.15-.44.27-.89.39-1.32.18-.66.34-1.28.62-1.84.27-.54.4-1.09.53-1.61.13-.54.26-1.04.51-1.44l.08-.13.04-.15c.34-1.25.67-2.16,1.06-2.97l.08-.16.02-.18c.07-.68.33-1.34.61-2.04l.17-.44c.17-.44.27-.88.36-1.3.11-.49.21-.95.41-1.33.41-.78.44-1.7.11-2.66-.22-.64-.43-1.32-.46-2.04-.03-.78-.07-1.56-.1-2.35-.04-.81-.08-1.63-.11-2.45-.03-.93-.22-1.8-.56-2.67-.07-.18-.12-.4-.14-.64-.08-1.02-.18-2.18-.22-3.3-.02-.6.05-1.05.22-1.43.4-.9.62-1.78.64-2.69.03-.92.07-1.83.11-2.75.06-1.32.11-2.65.14-3.97.02-1.04.1-2.26.56-3.4.16-.4.21-.8.25-1.15.02-.15.03-.3.06-.44.06-.31.1-.53.17-.68.87-1.78,1.79-3.67,2.76-5.55.09-.18.27-.38.46-.59.11-.12.21-.24.32-.37l.45-.55c.36-.44.72-.89,1.06-1.35.4-.54.48-1.27.19-1.91-.25-.54-.71-.87-1.26-.87-.34,0-.67.12-1,.37-.03,0-.12.02-.12.02-.11,0-.16-.04-.17-.06l-.06-.45c-.04-.3-.08-.6-.1-.9-.02-.31-.03-.63-.04-.94-.01-.5-.03-1-.08-1.5-.08-.77-.51-1.36-.87-1.8-.16-.19-.5-.59-1.13-.59-.38,0-.73.14-1.31.4-.16.07-.26.08-.31.08-.04,0-.11,0-.23-.14-.39-.46-.55-.77-.57-1.1-.02-.23-.04-.45-.06-.68-.03-.25-.05-.49-.06-.74-.05-.97-.33-1.83-.64-2.62-.08-.2-.07-.38.03-.57.37-.72.57-1.48.6-2.26l.06-1.92c.03-.75-.23-1.47-.74-2.03-.44-.49-.92-.94-1.39-1.4-.2-.19-.4-.38-.59-.58.4-.08.73-.14,1.04-.15l.71-.02c1.32-.03,2.64-.07,3.96-.07,1.08,0,2.04.02,2.93.07.64.03,1.28.09,1.92.16l.71.07c.55.27,1.11.43,1.65.59.61.18,1.19.35,1.66.65.22.14.47.26.71.37l.25.11c2.07,1,3.83,1.68,5.52,2.14.04.01.08.03.13.06l2.25,1.26-.81-2.45c-.09-.27-.2-.59-.36-.91-.01-.04-.02-.21-.02-.3l-.04-.68c-.04-.64-.07-1.25-.03-1.83v-.21c.01-.21.02-.43.05-.64.02-.16.03-.2.03-.2l.03-.11c.11-.48.29-.9.54-1.25.02-.03.05-.05.07-.08l1.22-1.39-.88-.18h0c.04-.09.14-.29.26-.47.07-.12.14-.18.17-.2.15-.1.31-.17.46-.25.19-.09.38-.19.56-.3.37-.23.81-.3,1.39-.36.14-.01.27-.02.41-.02.86,0,1.69.25,2.6.8.51.31.99.67,1.5,1.06.34.26.68.52,1.04.77l-.12.78.94.19.11.03c.09.02.19.05.28.06.5.08,1.03.13,1.67.14h.5s.31-.38.31-.38c.09-.12.23-.23.41-.34.07-.04.11-.04.12-.04.03,0,.06,0,.1.02.15.07.29.16.43.29l.35.34.48-.06c.71-.09,1.42-.21,2.13-.34l.58-.1.09-.27s.81-.33,1.2-.49c.55-.22,1.14-.42,1.76-.46.53-.03,1.01-.15,1.48-.27.45-.11.87-.22,1.27-.22h.2s.19-.08.19-.08c.44-.19.91-.28,1.42-.28.72,0,1.47.18,2.12.36.38.1.61.3.76.63.16.35.27.75.38,1.18l-.79.31.47.98c.14.29.22.62.24,1.01l.03.51.36.23c.21.36.35.67.37.97.02.36.04.73.05,1.09l-.03.52v.38c0,.26,0,.53,0,.79,0,.2-.06.47-.43.78l-.62.51.36.72c.27.54.62.97,1.12,1.42l.63.57.66-.53c.14-.11.23-.14.25-.14.59.21,1.16.47,1.76.75l.88.4,2.43-1.88s-.03-.55-.03-.56c.9-.95,1.76-1.86,2.64-2.76.15-.16.34-.31.57-.45.24-.15.49-.29.73-.43.45-.26.92-.53,1.36-.86.49-.37.93-.78,1.34-1.17.17-.16.34-.33.52-.48.31-.28.69-.46,1.25-.58,1.1-.24,2.21-.74,3.37-1.52.22-.15.43-.31.65-.47.17-.13.34-.26.52-.38.93-.63.98-.66,2.86-.69.34,0,.6-.13.77-.21.02.01.03.03.06.05l-.07.18c-.17.41-.37.88-.4,1.45-.02.4-.04.79-.07,1.19-.08,1.2-.16,2.45-.06,3.73.12,1.52-.06,2.68-.58,3.65-.13.25-.18.49-.21.67-.13.65-.36,1.22-.61,1.82-.29.69-.58,1.41-.73,2.22l-.43.86c-.4.81-.8,1.62-1.21,2.42-.22.44-.44.8-.66,1.11-1.13,1.62-2.02,3.37-2.88,5.07-.36.72-.73,1.44-1.11,2.15l-.08.15-.03.17c-.1.62-.27,1.65.42,2.58.13.18.28.35.43.52.07.08.15.17.22.25.1.12.21.24.31.36.18.2.36.39.43.55.11.25.24.51.37.76.34.68.67,1.33.7,2,.03.64.26,1.15.46,1.61.12.28.24.55.28.78.03.18.05.36.07.54.05.49.12,1.04.35,1.58.49,1.13.69,2.32.83,3.43.06.49.25.91.42,1.28.1.23.2.44.24.62.24.96.21,1.49-.11,1.95-.08.12-.15.24-.21.37-.02.03-.03.07-.05.1-.25.4-.38.86-.4,1.41-.04,1.33.19,2.54.72,3.7.09.21.02.31,0,.35-.9,1.21-.79,2.52-.6,3.54.07.35.16.76.34,1.15.19.41.3.88.42,1.39.17.74.37,1.57.87,2.35.19.28.25.68.19,1.19-.09.78-.18,1.68-.07,2.62.09.74.2,1.46.57,2.19.19.36.36.73.54,1.1.17.35.34.7.51,1.05.25.5.38.94.38,1.39l.03,1.14c.01.58.03,1.15.03,1.73,0,.86.17,1.71.53,2.67.12.34.18.76.22,1.16.09.91.33,1.77.74,2.62.08.16.13.36.14.57.05.64.1,1.22.07,1.78-.09,1.67.24,3.34,1.01,5.11.02.05.04.16.06.25.04.19.08.43.19.67.17.38.42.96.98,1.25,1.56.81,2.8,2.03,3.8,3.11.26.29.53.58.63.85.16.42.36.81.55,1.18.3.58.58,1.12.66,1.69.1.66.35,1.24.57,1.76.2.48.4.94.45,1.38l.02.16,1.27,2.76c.06.12.12.24.19.36.05.08.12.21.13.25.23,1.48.86,2.75,1.47,3.99.33.67.64,1.3.88,1.95.09.25.21.5.34.75.16.32.29.59.34.85.15.78.5,1.51,1.05,2.16.43.51.73,1.15,1.04,1.83.19.41.38.83.62,1.24.23,1.07.68,2,1.12,2.9.25.52.49,1.01.68,1.51.12.32.23.65.34.98.25.75.5,1.52.92,2.27.2.36.37.75.55,1.16.21.47.42.96.69,1.44.41.72.7,1.49.87,2.37.08.41.28.82.62,1.26.65.85,1.19,1.75,1.59,2.67.59,1.36,1.31,2.78,2.19,4.36.15.27.21.61.28,1.01.1.58.33,1.01.54,1.39.16.3.3.56.32.79.07.78.37,1.42.63,2,.14.31.28.61.37.9.22.72.57,1.32.91,1.89.09.15.17.29.26.44.45.8.85,1.6,1.3,2.5.02.04.04.07.05.1-.03.09-.09.21-.16.37l-.09.21c-.12.25-.26.55-.32.92-.2,1.32-.16,2.68.13,4.16.05.24.13.49.25.72.39.75.56,1.61.56,2.79,0,.22.02.44.04.67.02.25.04.48.02.66-.15,1.37.25,2.55.67,3.57l-3.02.71,2.92,1.19.2.11c.49.33,1.04.69,1.75.84.82.54,1.34,1.06,1.68,1.68.42.78.81,1.47,1.29,2.15.05.08.03.16.02.19-.29.7-.33,1.38-.34,2-.01,1.27-.04,2.53-.06,3.8v.73c-.04,1.43-.07,2.87-.11,4.3,0,.1,0,.28-.03.34-.26.61-.29,1.22-.32,1.75v.23c-.05.63-.12,1.37-.35,2.1-.13.41-.18.83-.22,1.19-.04.4-.08.74-.21,1.01-.17.36-.16.72-.15.96v.14s-.05,1.55-.05,1.55c-.03,1.07-.07,2.15-.11,3.22,0,.13-.04.27-.06.4-.04.23-.1.5-.1.8,0,.3.08.56.13.75.02.07.05.13.05.2.02,1,.01,1.81-.03,2.55-.01.27-.08.56-.15.88-.12.54-.27,1.16-.19,1.87.05.47,0,.99-.06,1.55-.02.22-.05.44-.06.65,0,.03,0,.06-.01.09l-.67.02.05,1.71.54.35.71.35c.27.13.57.41.86.68.26.24.47.47.69.69.34.36.7.73,1.11,1.06q1.38,1.13,1.26,2.87l-.03.43c-.05.83-.09,1.66-.12,2.49-.02.61-.05,1.22-.08,1.83,0,.13-.02.43-.08.57-.48,1.07-.57,2.15-.62,3.17v.21c-.04.71-.07,1.37-.22,1.99-.11.48-.44.85-.9,1.02-.26.1-.54.16-.82.22-.49.11-1.04.23-1.59.52-.25.13-.61.16-.99.18-.34.02-.68.03-1.03.03l-1.87-.02-.17.81c-.2.97-.2,1.91-.21,2.83,0,.59,0,1.15-.06,1.7-.02.2-.03.41-.04.61-.02.47-.04.87-.19,1.22-.19.45-.18.9-.17,1.26,0,.09,0,.18,0,.27-.01.41-.02.82-.03,1.23-.01.78-.03,1.56-.08,2.33l-.02.32c-.02.5-.04.81-.2,1.06-.25.4-.25.83-.25,1.11v.1c0,.37-.11.51-.2.6-.54.52-.8,1.18-.79,2.03,0,.64,0,1.28,0,1.91v3.23c0,1.72,0,3.44.02,5.16.01,1.23.02,2.45.03,3.68.01,2.57.03,5.22.1,7.84v.21s.1.19.1.19c.05.11.02.28-.05.62-.05.25-.1.51-.11.76-.02.44,0,.87.01,1.31,0,.22.02.44.02.66,0,.5,0,.99,0,1.49v.42c0,.56.1,1.06.29,1.54.07.16.07.47.07.57.02,1.27.04,2.54.02,3.81-.01.7-.03,1.29-.2,1.86-.34,1.17-.3,2.17.13,3.06,0,0,.02.04.03.14,0,.04,0,.09,0,.13,0,.08,0,.16,0,.23.07,3.8.12,7.52.05,11.24-.02,1.11.03,2.23.07,3.31.02.58.11,1.02.2,1.45.1.48.19.93.15,1.36-.06.73-.05,1.46-.03,2.15,0,.27.01.54.01.81v1.17c.02.56.02,1.13.02,1.7-.01,2.17.01,4.45.09,6.98.05,1.66.04,3.35.03,4.99,0,.63.13,1.23.4,1.81.04.09.04.15-.01.24-.34.6-.49,1.29-.41,1.98.05.47.04.97.04,1.49-.01.83-.02,1.69.19,2.58,0,.02-.01.04-.02.06-.06.18-.14.43-.14.72,0,1.85,0,3.7.02,5.56v.45c0,.22,0,.55.17.88,0,.02,0,.04,0,.06-.04.24-.09.6.06,1.01.14.39.14.78-.01,1.19-.3.82-.33,1.66-.07,2.51.05.16.06.36.07.6.01.29.03.62.12.97.03.11.03.35-.06.64-.09.3-.27.92.05,1.61,0,0,0,0,0,0,0,0,0,.03,0,.07,0,.06-.03.19-.06.3-.09.36-.22.94.05,1.55,0,0,.02,1.21.03,1.66,0,.25,0,.5,0,.75,0,.31,0,.63,0,.94,0,.23.01.45.03.68.02.31.03.62.02.94-.06,1.26-.02,2.52.03,3.74.05,1.43.09,2.77,0,4.13-.05.7-.03,1.4,0,2.07.02.44.03.89.02,1.33,0,.39.12.71.21.94.01.03.03.07.04.1-.24.53-.23,1.05-.22,1.44,0,.1,0,.19,0,.29,0,.29,0,.58,0,.87,0,.2,0,.39,0,.59,0,.21,0,.42-.02.62,0,.28-.02.55-.02.83,0,.14,0,.28-.01.42-.02.47-.04.99.12,1.53.31,1.05.3,2.15.29,3.31,0,.31,0,.61,0,.92.03,2.96.04,5.93.06,8.89l.02,4.35c0,.32,0,.65.02.97.04.58-.21.92-1.17,1.57-.53.04-1.04.18-1.54.32-.15.04-.3.08-.45.12-.15.04-.27.06-.37.06-.06,0-.1,0-.13-.02-.54-.26-1.13-.39-1.74-.39-.14,0-.28,0-.42.02-.04,0-.08,0-.11,0-.32,0-.67-.12-1.07-.27-.27-.1-.57-.2-.9-.28,0,0,0-.01-.01-.02-.3-.32-.52-.73-.68-1.27.38-.6.55-1.34.54-2.25-.12-5.34-.14-10.19-.06-14.82,0-.6,0-1.2-.02-1.81v-.53c0-.26,0-.61-.17-.97-.28-.6-.26-1.27-.25-2.04,0-.21,0-.41,0-.62-.05-4.47-.08-8.95-.1-13.42,0-.69,0-1.47-.34-2.27,0,0,0-.07.04-.18.42-1.05.41-2.09-.03-3.1-.01-.03-.02-.12.02-.25.09-.31.26-.88.02-1.53.34-.76.36-1.58.04-2.37-.14-.34-.13-.7.04-1.17.19-.54.2-1.02.03-1.41-.22-.52-.22-1.1-.22-1.78v-.43c-.03-2.48-.04-4.97-.05-7.45v-3.09c-.02-1.28-.03-2.56-.04-3.84v-.13c.01-.26.02-.62-.15-.99-.22-.46-.21-.99-.2-1.61,0-.19,0-.39,0-.58-.03-1.76-.05-3.51-.07-5.27,0-.78.04-1.39.27-1.96.35-.87.21-1.76.03-2.5-.03-.11-.06-.23-.1-.34-.04-.13-.09-.29-.09-.35,0-.78-.05-1.56-.1-2.34-.07-1.23-.14-2.39-.05-3.56.08-1.05.12-2.26-.3-3.48-.07-.2-.07-.53-.07-.84,0-1.18,0-2.34-.02-3.51-.01-2.11-.03-4.21-.01-6.32.02-2.72-.01-5.49-.04-8.16l-.03-3.35c0-.3,0-.57-.04-.83-.04-.31-.14-.57-.22-.78-.04-.1-.1-.26-.1-.31.03-.15.07-.3.11-.46.08-.31.16-.66.19-1.04.09-1.25.16-2.71-.27-4.16-.09-.31-.1-.57-.02-.79.34-.93.38-1.84.13-2.71.08-.45-.03-.85-.1-1.13-.03-.1-.06-.21-.06-.27-.02-.42-.02-.85-.02-1.27v-4.44c-.02-.41-.02-.76.09-1.03.13-.31.14-.68.04-1.08-.15-.57-.15-1.18-.15-1.83v-.32c-.02-1.67-.03-3.34-.04-5.01l-.02-2.78c0-.53,0-1.17-.29-1.83.01-.04.1-.28.1-.28.42-1.25-.04-2.09-.51-2.57-.17-.18-.25-.37-.26-.66-.03-.51-.11-.98-.23-1.4-.19-.63-.2-1.22-.04-1.79.16-.54.24-1.09.24-1.68l.03-2.64c.02-1.76.04-3.51.06-5.27,0-.04.03-.14.06-.23l.1-.13v-1.33s-2.05-.03-2.05-.03c-.83-.01-1.52-.37-2.17-1.12-.16-.18-.29-.39-.42-.59-.07-.1-.09-.14-.07-.24.08-.39.29-.78.52-1.2.12-.22.24-.44.34-.67l.38-.2c.78-.42,1.46-.78,2.2-.78,1.28,0,2.33-.51,3.25-.97l.35-.17c.69-.33,1.18-.85,1.45-1.54.07-.17.15-.34.23-.51.13-.28.26-.55.36-.84.35-1,.28-2.07-.22-3.09-.37-.76-.92-1.4-1.65-1.89l-1.4,1.38s-.02-.05-.02-.1c.04.62.07,1.24.09,1.86.01.52-.04.86-.19,1.13l-.1.19v.22c-.03.28-.12.43-.93.77-.56.23-1.1.39-1.59.46-.48.07-.9.2-1.32.33-.47.15-.91.28-1.33.29h-.24s-.21.11-.21.11c-.41.21-.92.23-1.49.23h-4.25s0,.08,0,.08h-1.24s-.04.95-.04.95c-.04.8-.09,1.65-.22,2.46l-.07.4.22.33c0,.06.03.18.06.3l.04.73c.04,1.05.08,2.1.1,3.15.07,3.64-.06,7.34-.19,10.93-.04.98-.07,1.95-.1,2.93,0,.06-.07.22-.12.33-.12.29-.26.65-.26,1.08,0,.49.17.91.31,1.26.05.13.1.25.14.38,0,.04,0,.15,0,.19v1.08c0,1.07,0,2.14-.04,3.21,0,.08-.06.25-.11.4-.09.28-.21.62-.21,1.02,0,.46.12.86.23,1.21.04.13.08.26.11.39.01.06.01.19.01.24v.59c-.02.92-.03,1.83-.06,2.75-.01.33-.04.46-.07.52-.71,1.4-.26,2.69.04,3.55.13.36.11.79-.04,1.2-.34.9-.5,1.78-.5,2.68-.02,6.23-.07,12.47-.12,18.7,0,.34-.11.43-.34.52-.44.16-.83.35-1.22.55-.2.1-.39.2-.59.29-.5.22-1,.44-1.49.66l-.54.23c-.72.09-1.32.38-1.86.64-.42.2-.81.39-1.18.45-.78.11-1.42.45-1.99.74-.28.15-.56.29-.86.41-.86.32-1.41,1.17-1.37,2.1,0,.12,0,.25,0,.38,0,.37,0,.79.1,1.22.1.44.22.86.35,1.29.1.34.21.68.29,1.02.06.25.09.5.12.76.07.55.15,1.17.44,1.78.37.77.45,1.61.48,2.4.02.58.06,1.15.09,1.72.02.39.04.77.06,1.16.03.57.16,1.13.41,1.72.17.42.26.9.27,1.51l.08,3.91c.05,2.21.09,4.43.13,6.64v.46c0,.93.01,1.98.47,3l-.11,1.31.11.3c.34.75.37,1.63.38,2.4,0,3.36,0,6.71-.02,10.07,0,.85-.01,1.69-.02,2.54-.01,1.24-.03,2.47-.03,3.71,0,.93-.07,1.64-.43,2.29-.21.37-.33.83-.35,1.36-.02.36-.01.72,0,1.08,0,.28,0,.57,0,.85-.03.78-.06,1.56-.1,2.34-.03.66-.06,1.31-.08,1.97-.03.66-.18,1.3-.46,1.95-.27.61-.31,1.22-.36,1.75-.01.14-.02.28-.04.42-.05.46-.13.84-.25,1.16l-.05.12c-.13.34-.33.86-.1,1.46.21.55.31,1.06.32,1.54.02.75.36,1.3.63,1.75.24.39.33.65.33.89.02,1.09.07,5.27.07,5.27,0,.68-.14,1.24-.44,1.73-.27.42-.41.88-.42,1.42-.04,1.33-.08,2.67-.13,4l-.03.78c-.02.5-.13,1-.35,1.49-.28.64-.32,1.34-.11,2.07.05.18.08.35.11.53v.02c-.29.86-.35,1.7-.41,2.52-.03.4-.06.8-.12,1.2-.07.44-.17.78-.31,1.07l-.19.38c-.5.98-1.01,1.99-1.58,2.93-.26.43-.59.76-.99.99-.54.31-1.09.6-1.64.88-.1.05-.2.08-.31.12-.2.07-.41.14-.59.24-.62.32-1.15.72-1.67,1.1-.51.38-.99.73-1.51.99-1.09.53-2.15,1.05-3.08,1.87-.29.26-.53.39-.71.41-.77.08-1.43.39-2.01.67-.56.26-1.04.49-1.52.5h-.15s-.14.05-.14.05c-.89.28-1.71.66-2.51,1.03l-.68.31c-.41.19-.9.37-1.38.37h-.42c-1.04,0-2.07.07-3.07.13l-1.07.07c-.34.01-.76.03-1.17.24-.17.08-.33.12-.49.12Zm44.6-183.92c.25,0,.51.05.69.14.42.2.85.38,1.27.57l1.04-1.68s-.18-.15-.2-.61c-.02-.43,0-.86.01-1.29.09-2.45.18-4.85.28-7.24,0-.23.05-.44.12-.6.45-1.1.51-2.21.54-3.16.03-1.16.09-2.33.14-3.49l.08-1.76c.03-.59.12-1.09.31-1.53.23-.57.36-1.17.36-1.76l.03-2.13c.02-1.37.05-2.74.05-4.11.01-3.68,0-7.36-.01-11.04,0-1.4-.06-2.78-.61-4.14-.08-.21-.11-.52-.13-.85l-.02-.27c-.06-.67-.11-1.35-.16-2.02l-.1-1.32c-.04-.58-.19-1.14-.44-1.7-.14-.32-.27-.66-.4-.99-.16-.42-.32-.84-.5-1.24-.2-.43-.26-.89-.29-1.5-.05-.79-.27-1.55-.65-2.25-.16-.29-.3-.59-.44-.89-.13-.27-.25-.54-.39-.8-.27-.52-.43-1-.5-1.48-.09-.63-.36-1.15-.6-1.61-.2-.38-.37-.71-.4-1.02-.08-.94-.5-1.68-.87-2.33-.12-.21-.24-.42-.35-.64l-.08-.18c-.36-.74-.7-1.44-.78-2.18-.07-.61-.39-1.11-.58-1.36-1.01-1.32-1.74-2.8-2.27-3.94-.57-1.23-1.18-2.44-1.78-3.62l-.35-.7c-.07-.14-.16-.27-.29-.4l-.34-.34-.47.05c-.11.01-.22.02-.33.02h-.22s-.84.01-.84.01l-.18.97c-.06.35-.12.75-.12,1.17.05,3.15.11,6.31.18,9.46l.06,3.01c.02.94.09,2.06.52,3.16.13.34.16.79.18,1.09.04.94.05,1.89.07,2.83l.06,3.69c.03,1.82.06,3.63.1,5.45.03,1.27.2,2.25.54,3.16.12.33.16.74.18,1.11.09,1.48.15,2.96.22,4.43l.04.83c.04.78.27,1.44.54,2.16.13.33.21.71.26,1.14.1.96.17,1.92.22,2.82.03.5.17.93.3,1.3.04.1.07.21.1.31.11.37.2.79.26,1.23.05.4.06.81.07,1.25l.06,1.91c.05,1.59.1,3.24.09,4.85,0,1.59.21,2.87.68,4.04,0,.14.01.24.02.33.03.2-.08.39-.29.49l-.64.35-.05.61v.19c.02.52.02,1.02.03,1.52v4.13c0,1.1,0,2.2,0,3.31,0,.08-.02.17-.06.28l-.12.35.14.35c.12.29.19.51.23.72.06.28.07.59.07.88l.02.92.71.04c.04.12.05.32-.08.63l-.66,1.54,1.67-.15c.45-.04.82-.13,1.17-.3l.8-.04c1.02-.05,2.05-.09,3.07-.11h.02Zm1.15-24.96c-.09-.09-.19-.17-.29-.25-.59-.52-.96-.86-1.07-1.36l-.04-.19-.11-.16c-.57-.82-.88-1.79-1.21-2.81l-.21-.64c-.13-.38-.24-.75-.26-1.11l-.03-.55c-.03-.7-.06-1.35-.04-2.01.01-.37-.08-.7-.15-.93-.03-.09-.07-.23-.07-.27.09-.36.2-.83.21-1.35.01-.46.04-.91.09-1.36.02-.17.05-.32.1-.46.3-.84.72-1.56,1.23-2.15.24-.27.52-.48.77-.59.17-.07.36-.11.56-.11s.4.04.61.11c0,.01.02.02.02.02,0,1.57.02,3.14.02,4.7v5.23c0,1.36,0,2.73,0,4.09,0,.75-.05,1.51-.09,2.18-.01,0-.04-.01-.04-.02Zm-120.92-2.91l-.1-.12c-.44-.52-.87-1.05-1.3-1.58-.64-.8-1.03-1.75-1.37-2.67q-.44-1.2-.43-2.95v-.31c0-.15,0-.3,0-.44-.11-1.28.37-2.5.87-3.63.4-.91.9-1.6,1.52-2.11.47-.38.71-.55,1.05-.55.54,0,1.01-.21,1.38-.37.11-.05.21-.1.32-.14.16-.06.32-.14.47-.22.11-.06.28-.14.35-.15.49-.04.92-.18,1.29-.31.29-.1.55-.19.78-.2h.03c-.02.65-.05,1.21-.29,1.7l-.08.16-.02.18c-.08.93-.31,1.83-.55,2.8-.24.97-.49,1.97-.59,3.01-.02.16-.09.36-.17.58-.12.33-.27.74-.29,1.21-.25.87-.47,1.74-.69,2.62-.21.84-.42,1.69-.66,2.53-.1.33-.21.64-.34.94-.14,0-.27,0-.41.02-.21,0-.41.02-.62.02,0,0-.17,0-.17,0Z"/><g id="Color"><path class="cls-2" d="m57.2,254.04c.03-1.36.06-2.72.08-4.08,0-.56.02-1.1.27-1.64.13-.28.12-.62.14-.94.03-.72.03-1.44.05-2.16,0-.32-.04-.66.07-.95.51-1.47.37-3,.39-4.51,0-.43.15-.78.45-1.06.23-.22.46-.44.7-.66.72-.65,1.34-1.36,1.83-2.2.45-.75,1.01-1.44,1.5-2.16.41-.6.74-1.22.84-1.96.05-.39.2-.77.3-1.15.57-2.07,1.07-4.15,1.6-6.23.72-2.85,1.41-5.71,2.16-8.55.28-1.07.62-2.14.77-3.25.44-.95.47-2,.82-2.99.27-.78.12-1.57-.34-2.3-.13-.21-.25-.39-.46-.52-.48-.29-.94-.61-1.42-.89-.28-.17-.49-.38-.65-.67-1.47-2.48-1.95-3.4-2.57-5.1-.14-.37-.15-.81-.35-1.14-.39-.66-.42-1.38-.43-2.09-.02-1.52.03-3.04.06-4.56,0-.33.11-.63.3-.9.51-.72.97-1.47,1.28-2.29.41-1.08,1.32-1.79,1.94-2.72.12-.18.38-.28.6-.37,1.19-.46,2.34-1.01,3.47-1.59.49-.25,1.01-.47,1.46-.81.71-.54,1.5-.89,2.42-.95.23-.01.45-.15.68-.22.56-.15,1.59.23,1.91.7q1.36,1.98,1.27,4.44c-.02.72-.03,1.41-.31,2.12-.2.5-.03,1.14-.22,1.64-.4,1.08-.37,2.19-.42,3.3-.04.95.12,1.93-.35,2.82-.04.56-.09,1.11-.13,1.67-.05.71-.03,1.43-.36,2.11-.13.27-.12.62-.13.94-.03.64-.03,1.27-.29,1.88-.12.28-.13.62-.15.94-.05.87-.02,1.74-.36,2.59-.17.42-.06.95-.11,1.42-.1.95.08,1.93-.38,2.83-.05.72-.1,1.44-.15,2.15-.03.48-.05.95-.24,1.41-.12.29-.17.62-.19.93-.06.95-.04,1.91-.39,2.83-.14.35-.04.79-.07,1.19-.04.79,0,1.6-.36,2.35-.1.21-.11.46-.12.7-.04.72-.05,1.44-.08,2.16-.02.4.04.82-.08,1.19-.35,1.08-.4,2.19-.48,3.31-.03.47-.24.92-.31,1.39-.07.47.04.99-.11,1.43-.48,1.39-.41,2.83-.49,4.26-.03.48-.15.94-.24,1.4-.13.7-.14,1.42-.17,2.14-.03.72-.03,1.43-.31,2.12-.11.29-.11.62-.13.94-.05.72-.12,1.44-.1,2.15.02.74-.4,1.37-.4,2.11,0,.72-.06,1.44-.1,2.15-.54,1.27-.26,2.69-.77,3.98-.14.36-.09.79-.18,1.18-.08.32-.31.56-.63.66-.23.08-.47.1-.69.18-.57.2-.95.57-.99,1.21-.05.87-.07,1.73-.38,2.58-.19.51-.12,1.11-.16,1.66-.06.87.04,1.75-.31,2.6-.14.35-.03.79-.07,1.19-.11,1.18,0,2.38-.44,3.55-.3.81-.06,1.74-.4,2.59-.31.74-.17,1.59-.55,2.32-.03.8-.11,1.6-.09,2.4.04,1.36-.02,2.72-.07,4.07-.02.48-.08.94-.23,1.41-.14.45-.17.94-.19,1.41-.05.8-.06,1.6-.08,2.4-.01.64-.4,1.2-.37,1.87.03.55-.05,1.12-.11,1.67-.02.23-.08.48-.18.69-.18.37-.22.75-.22,1.16,0,.72-.03,1.44-.05,2.16-.02.48.05.99-.1,1.43-.43,1.24-.3,2.53-.39,3.79-.01.16.02.34-.03.48-.55,1.38-.31,2.84-.45,4.25-.06.63.04,1.28-.3,1.87-.07.13-.06.31-.07.47-.05.88.01,1.78-.19,2.62-.2.86-.35,1.71-.37,2.59,0,.24.02.5-.07.71-.46,1.06-.37,2.19-.43,3.3-.03.48-.14.93-.31,1.38-.14.36-.08.79-.1,1.19-.04,1.03.02,2.08-.39,3.07-.12.28-.06.63-.09.95-.11,1.19.03,2.4-.4,3.55-.04.72-.06,1.44-.11,2.15-.08,1.03.01,2.07-.4,3.07-.12.28-.09.63-.1.95,0,.56-.07,1.1-.25,1.65-.15.45-.17.94-.22,1.41-.08.71-.09,1.42-.31,2.13-.18.59-.14,1.26-.16,1.9-.04,1.19-.02,2.38-.37,3.56-.2.67-.14,1.43-.17,2.15-.03.64-.07,1.26-.27,1.89-.14.45-.15.94-.18,1.42-.08,1.11.07,2.24-.39,3.3-.06.14-.05.31-.06.47-.08.95-.01,1.92-.39,2.82-.04.88-.07,1.76-.13,2.63-.06.79,0,1.59-.31,2.36-.15.35-.07.79-.11,1.18-.05.56-.1,1.11-.15,1.67-.41.65-.29,1.39-.34,2.1-.07.95.04,1.92-.37,2.83-.12.27-.06.63-.09.95-.1,1.03-.03,2.07-.4,3.07-.11.29-.06.63-.09.95-.05.55-.11,1.11-.16,1.66-.36.41.07.9-.15,1.36-.28.59-.15,1.26-.22,1.89-.1.87.07,1.77-.36,2.59-.05.72-.1,1.43-.13,2.15-.04.88-.02,1.75-.34,2.6-.14.36-.08.79-.12,1.18-.1.94.09,1.93-.4,2.82-.03.56-.07,1.12-.09,1.67-.05,1.03.06,2.08-.38,3.07-.09.21-.05.47-.07.71-.08,1.03.07,2.09-.41,3.06-.04.8-.12,1.6-.1,2.39.02.84-.39,1.52-.65,2.26-.04.11-.25.18-.39.23-.3.1-.63.13-.9.28-.89.5-3.42,1.77-4.04,1.98-.37-.24-.78.05-1.15-.08-.44-.16-.93-.24-1.28-.62-.16-.18-.34-.36-.55-.46-1.02-.52-1.39-1.43-1.71-2.46-.29-.95-.42-1.88-.14-2.81.21-.71.28-1.4.27-2.12-.01-.72,0-1.43.31-2.11.12-.27.08-.62.11-.94.12-1.19-.03-2.4.42-3.55.06-.14.03-.32.04-.48.03-.64.06-1.28.09-1.92.03-.64.17-1.26.32-1.88.15-.62.06-1.29.22-1.9.16-.61.02-1.25.27-1.84.06-.14.08-.31.09-.47.03-.48.05-.96.07-1.44.02-.46.44-.88.15-1.38.31-.76.26-1.57.34-2.36.07-.71-.04-1.43.3-2.12.14-.27.1-.63.11-.95.04-.8.06-1.6.1-2.4.04-.79,0-1.58.29-2.36.18-.5.09-1.11.14-1.66.06-.71-.01-1.44.33-2.11.07-.13.08-.31.08-.47-.03-1.37.5-2.66.54-4.02,0-.08,0-.16.03-.24.54-1.46.47-2.98.49-4.5,0-.41.08-.78.25-1.16.1-.21.12-.46.14-.69.05-.64.07-1.28.11-1.91.03-.48-.03-.99.12-1.42.16-.47-.05-.92.13-1.39.17-.43.14-.94.18-1.42.08-.87,0-1.76.39-2.58.03-.07.04-.16.03-.24-.08-1.53.5-2.99.52-4.51,0-.24,0-.5.09-.71.39-.91.35-1.87.39-2.83.04-1.11,0-2.22.36-3.32.19-.59.12-1.27.17-1.9.04-.55.04-1.11.28-1.64.13-.28.13-.62.14-.94.03-.72.02-1.44.04-2.16.01-.4-.03-.84.13-1.18.35-.76.29-1.56.36-2.35.08-.95.05-1.9.36-2.84.19-.59.1-1.27.17-1.9.04-.39.4-.75.24-1.14-.24-.58-.09-1.06.09-1.61.12-.36.04-.79.07-1.19.07-.71,0-1.44.33-2.12.13-.28.12-.62.14-.94.04-.64.12-1.26.3-1.88.17-.6.15-1.26.19-1.9.05-.72.07-1.44.1-2.15.39-.99.44-2.02.43-3.06,0-.23.07-.48.16-.7.19-.46.22-.93.24-1.41.03-.8.07-1.6.1-2.39.48-1.3.45-2.66.46-4.01,0-.8.42-1.52.38-2.34-.04-.71.06-1.43.34-2.11.12-.28.1-.62.12-.94.04-.64.01-1.28.09-1.92.12-.94-.08-1.9.28-2.84.31-.81.09-1.75.5-2.57.13-.27.08-.63.12-.94.1-.79.07-1.58.34-2.36.17-.51.12-1.1.16-1.66.06-.95-.03-1.92.41-2.82.05-.72.12-1.43.13-2.15.01-.64,0-1.26.24-1.89.14-.36.1-.78.15-1.18.14-1.1-.07-2.24.42-3.31.09-.2.06-.47.07-.71.05-1.03,0-2.07.38-3.08.13-.36.09-.79.1-1.18,0-1.36,0-2.72,0-4.08,0,0,.01,0,.02,0Zm-4.79,68.86c-.02.48-.05.96-.05,1.44,0,.24.02.48.03.72.02.31.3.62.58.66.96.11,1.91.13,2.87,0,.13-.02.33-.16.36-.28.21-.84.57-1.65.54-2.56-.02-.79.09-1.59.14-2.39.43-.9.35-1.87.42-2.82.02-.24,0-.5.08-.71.37-.92.28-1.89.35-2.84.04-.55.05-1.12.19-1.66.12-.47.2-.93.22-1.41.03-.64.15-1.28.09-1.91-.07-.91.38-1.72.38-2.58,0-1.53.49-2.98.69-4.48.35-.75.33-1.55.37-2.35.02-.48-.09-1,.07-1.43.4-1.08.33-2.2.39-3.31.05-.95-.03-1.9.36-2.82.15-.35.08-.79.1-1.19.04-.64.08-1.27.13-1.91.43-.74.24-1.56.33-2.35.07-.55-.04-1.16.14-1.66.5-1.4.32-2.84.41-4.26.03-.4-.06-.84.08-1.19.25-.61.29-1.23.34-1.87.01-.15.09-.3.18-.43.18-.28.25-.58.26-.9.02-.96.05-1.92.08-2.87,0-.24-.04-.51.05-.71.47-1.06.36-2.19.47-3.3.03-.32-.04-.66.06-.95.41-1.16.31-2.36.38-3.55.06-.87-.03-1.76.35-2.59.14-1.51.15-3.03.13-4.54,0-.38-.38-.78-.76-.78-.96-.01-1.91-.01-2.87,0-.3,0-.6.3-.62.61-.06,1.04-.11,2.07-.17,3.11-.02.32.03.67-.1.94-.36.75-.31,1.56-.38,2.35-.03.32.03.66-.09.95-.37.92-.31,1.88-.33,2.83-.01.48-.08.94-.26,1.4-.11.29-.15.62-.17.93-.03.72-.02,1.44-.05,2.16-.03.64-.02,1.3-.2,1.9-.24.78-.27,1.57-.32,2.36-.02.32-.02.65-.12.94-.27.77-.29,1.56-.36,2.36-.04.4,0,.8-.04,1.2-.04.38-.34.73-.09,1.13-.33,1.24-.31,2.52-.38,3.78-.01.24,0,.5-.1.7-.25.53-.23,1.09-.26,1.64-.05.8-.1,1.59-.15,2.39-.4.82-.3,1.72-.4,2.58-.02.16,0,.34-.08.47-.32.59-.21,1.25-.3,1.87-.17,1.26.03,2.55-.46,3.78-.11.28-.06.63-.07.95-.03.72-.04,1.44-.07,2.15-.02.31-.01.66-.14.93-.33.68-.28,1.4-.36,2.11-.04.39.03.82-.11,1.18-.28.77-.28,1.56-.32,2.36-.03.64-.08,1.27-.12,1.91-.42.74-.25,1.56-.33,2.35-.06.64-.08,1.27-.12,1.91-.51.97-.27,2.04-.4,3.06-.05.39.05.83-.08,1.19-.39,1.08-.33,2.2-.38,3.31Zm-5.34,63.84c.59-.05,1.15-.1,1.7-.16.34-.04.71-.45.78-.81.14-.7.12-1.41.31-2.12.21-.75.16-1.58.23-2.37.01-.16,0-.33.05-.47.39-.91.29-1.88.34-2.83.06-.96.09-1.92.14-2.87.43-.98.31-2.04.43-3.07.04-.31,0-.66.12-.94.26-.61.25-1.25.3-1.88.03-.4-.04-.83.1-1.19.42-1.08.36-2.19.41-3.3.02-.56-.04-1.16.14-1.66.29-.78.25-1.57.3-2.36.02-.32-.02-.67.1-.95.38-.84.28-1.71.33-2.59.07-1.19-.04-2.41.45-3.54.04-.72.12-1.44.11-2.15-.02-.82.43-1.53.43-2.34,0-1.11-.02-2.23.4-3.3.14-.36.11-.79.12-1.19.02-.48,0-.96.02-1.44.01-.4.02-.8.07-1.2.07-.47.19-.93.28-1.39.04-.2-.24-.47-.46-.45-.23.03-.5,0-.68.12-.66.43-1.36.4-2.08.27-.23-.04-.46-.13-.7-.17-.05,0-.15.06-.17.12-.16.45-.36.89-.43,1.36-.11.71-.16,1.43-.18,2.14-.02.73-.47,1.34-.43,2.1.05.87-.04,1.76-.08,2.63-.02.4.02.84-.13,1.18-.31.69-.24,1.41-.32,2.12-.07.63-.1,1.27-.14,1.9-.3.35.09.77-.11,1.13-.24.44-.16.94-.21,1.41-.04.4-.06.8-.09,1.19-.03.32.02.67-.11.94-.33.69-.23,1.41-.29,2.12-.04.4.02.83-.13,1.18-.29.69-.28,1.41-.32,2.12-.07,1.19-.01,2.39-.42,3.55-.1.29-.08.63-.09.95-.03.72-.04,1.44-.08,2.16-.02.31-.01.66-.14.93-.24.53-.28,1.07-.3,1.63-.01.4.02.84-.14,1.18-.33.69-.24,1.41-.3,2.12-.05.64-.07,1.28-.11,1.91-.02.31-.03.65-.14.94-.2.54-.26,1.08-.27,1.64-.02.72.02,1.44-.3,2.12-.11,1.03-.21,2.06-.17,3.1,0,.19.27.47.46.47.48,0,.95,0,1.4,0Z"/><path class="cls-2" d="m184.44,244.18c2.05.04,4.04.07,6.04.12.23,0,.47.09.67.19.13.06.3.26.28.35-.41,1.56-.17,3.17-.32,4.75-.07.71-.01,1.42-.3,2.12-.14.35-.08.79-.09,1.18-.04,1.2-.04,2.4-.11,3.59-.04.63,0,1.28-.37,1.86-.11.18-.09.46-.09.7,0,.5-.14.96-.51,1.3-.38.36-.49.79-.49,1.3.01,1.04,0,2.08,0,3.12,0,2.4,0,4.79.02,7.19.04,3.83.02,7.67.12,11.5.3.63-.03,1.24-.06,1.85-.03.64.02,1.28.03,1.92,0,.64,0,1.28,0,1.92,0,.4.06.78.22,1.16.12.28.14.62.15.93.02,1.28.04,2.56.02,3.84-.01.71-.03,1.41-.24,2.13-.22.75-.31,1.57.07,2.34.07.14.1.3.12.46.02.16,0,.32,0,.48.06,3.75.12,7.51.05,11.27-.02,1.12.03,2.24.07,3.35.04.95.43,1.85.34,2.83-.08.95-.02,1.92-.02,2.88,0,.96.03,1.92.02,2.88-.02,2.32.02,4.63.09,6.95.05,1.68.04,3.36.03,5.03,0,.49.1.94.31,1.38.17.38.16.79-.05,1.15-.25.44-.34.91-.29,1.39.14,1.35-.12,2.72.23,4.06.07.27-.17.6-.17.91,0,2,.01,4,.03,6,0,.16,0,.34.08.47.24.38-.06.77.08,1.15.22.62.22,1.25-.01,1.87-.23.62-.24,1.24-.05,1.88.16.52.06,1.07.2,1.61.09.37.04.8-.07,1.17-.1.32-.15.59,0,.9.06.14.08.31.08.47.01.53-.38,1.07,0,1.6.01.64.02,1.28.03,1.92,0,.56-.01,1.12,0,1.68,0,.56.07,1.12.04,1.68-.12,2.63.21,5.26.02,7.9-.08,1.11.04,2.23.02,3.35,0,.48.45.87.2,1.36-.24.45-.15.94-.16,1.41-.01.48.01.96,0,1.44,0,.48-.03.96-.03,1.44,0,.56-.09,1.15.06,1.67.45,1.49.32,3,.33,4.51.04,4.32.05,8.63.08,12.95,0,.4-.01.8.02,1.2.09,1.23-.73,1.87-1.6,2.47-.13.09-.29.15-.44.16-.64.05-1.24.27-1.86.43-.38.1-.81.15-1.18-.03-.52-.25-1.07-.33-1.63-.28-.92.09-1.69-.43-2.54-.59-.14-.03-.27-.16-.38-.28-.45-.47-.72-1.05-.91-1.66-.06-.21-.03-.5.08-.69.32-.58.43-1.17.41-1.83-.11-4.95-.14-9.91-.06-14.86.01-.72-.01-1.44-.03-2.16,0-.24.03-.51-.07-.71-.46-.99-.33-2.04-.34-3.07-.05-4.47-.08-8.95-.1-13.42,0-.64,0-1.27-.26-1.88-.12-.29-.09-.63.03-.94.31-.78.32-1.55-.01-2.33-.13-.3-.11-.63-.02-.94.09-.31.16-.6.03-.92-.09-.23-.09-.47.02-.7.25-.53.26-1.07.04-1.62-.25-.62-.2-1.24.02-1.87.07-.21.14-.5.06-.69-.36-.84-.29-1.73-.3-2.6-.04-3.52-.05-7.03-.07-10.55,0-1.28-.01-2.56-.02-3.83,0-.24.04-.51-.06-.71-.39-.84-.27-1.72-.29-2.6-.03-1.76-.05-3.52-.07-5.27,0-.8.03-1.58.34-2.35.24-.6.14-1.26-.02-1.89-.08-.31-.21-.62-.21-.92-.01-2-.29-3.99-.15-5.99.08-1.03.1-2.07-.25-3.08-.13-.36-.13-.78-.13-1.18,0-3.28-.05-6.55-.03-9.83.03-3.83-.04-7.67-.07-11.5,0-.24,0-.48-.03-.72-.06-.47-.41-.88-.31-1.39.09-.47.25-.93.28-1.4.1-1.27.14-2.55-.23-3.8-.14-.47-.17-.95,0-1.41.29-.78.32-1.55.02-2.34.21-.48-.09-.92-.12-1.38-.03-.56-.02-1.12-.02-1.68,0-1.28,0-2.56,0-3.84,0-.56-.04-1.12.18-1.65.05-.13.03-.31,0-.45-.2-.78-.18-1.59-.19-2.38-.03-2.56-.04-5.12-.06-7.67,0-.56.02-1.11-.25-1.64-.15-.3,0-.62.11-.92.19-.57.16-1.1-.28-1.56-.35-.36-.51-.79-.54-1.29-.02-.39-.08-.8-.19-1.17-.24-.79-.27-1.58-.04-2.36.14-.47.2-.94.2-1.41.03-2.64.06-5.28.09-7.91,0-.23.09-.45.15-.68.02-.07.09-.16.16-.17.23-.05.47-.1.71-.1,1.92,0,3.84.02,5.71.03Zm-1.95,72.04h-.01c.02,2.47.04,4.95.06,7.42,0,.24.01.48.03.72.02.33.42.86.72.87.8.04,1.56.29,2.33.48.41.1,1-.33,1.06-.77.07-.47.12-.95-.06-1.41-.15-.38-.22-.76-.22-1.16,0-2.47,0-4.95-.02-7.42-.02-3.51-.05-7.02-.07-10.53,0-.4,0-.79-.16-1.18-.05-.14-.09-.31-.05-.45.16-.54.19-1.1.19-1.66,0-3.83,0-7.66,0-11.49,0-.16.03-.35-.05-.47-.4-.62-.17-1.22-.02-1.84.05-.22-.01-.47-.05-.71-.04-.23-.14-.43-.06-.69.36-1.26.23-2.53,0-3.78-.19-1.03-.24-2.04.05-3.07.14-.53.1-1.1.14-1.66.04-.57-.22-1.09-.32-1.63-.1-.58.37-1.05.28-1.63-.05-.31.04-.66-.07-.94-.24-.62-.21-1.25-.22-1.89-.02-2.47-.07-4.94,0-7.42.02-.79-.04-1.59-.06-2.39-.01-.29-.44-.63-.67-.49-.65.4-1.35.45-2.07.4-.4-.03-.8-.04-1.2-.03-.15,0-.32.04-.46.11-.13.07-.24.2-.34.32-.04.05-.04.15-.05.23,0,.56-.02,1.12-.02,1.67,0,.64.11,1.25.31,1.87.17.53-.38,1.04-.24,1.62.04.15.06.32.12.46.07.16.08.3.01.46-.19.46-.21.93-.03,1.4.15.38.19.77.2,1.17.03,2.71.07,5.43.09,8.14,0,.8-.05,1.6-.04,2.39.03,1.83.08,3.67.12,5.5,0,.4.08.78.15,1.18.07.37-.16.8-.05,1.14.21.63.25,1.25.25,1.89,0,1.76,0,3.51,0,5.27.01,1.68,0,3.35.07,5.03.07,1.74-.19,3.49.19,5.22.06.27-.22.6-.07.92.21.45.23.91.23,1.4.02,2.47.06,4.95.09,7.42Zm4.36,35.77h-.06c0-2.87,0-5.75,0-8.62,0-.8-.04-1.59-.07-2.39-.01-.33-.56-.78-.86-.67-.76.27-1.56.28-2.35.35-.21.02-.45.26-.45.47,0,.4-.04.8.04,1.19.06.31.17.59.02.91-.06.13-.09.34-.03.46.28.52.28,1.06.28,1.63,0,1.76,0,3.51,0,5.27,0,.8-.02,1.6.03,2.39.04.56-.29,1.06-.17,1.63.11.54.12,1.11.14,1.66.04,1.28.04,2.55.07,3.83.03,1.67.09,3.35.02,5.02-.03.71-.02,1.46.17,2.13.18.63.23,1.25.23,1.88,0,1.04,0,2.08,0,3.11.02,3.35.09,6.71.05,10.06-.03,2.16.02,4.31.05,6.46,0,.16,0,.33.06.47.06.13.2.23.33.32.06.04.15.06.23.06.64,0,1.27-.02,1.91-.04.55-.02.83-.33.83-.95.01-.96.02-1.92,0-2.87-.03-4.31-.08-8.62-.11-12.93-.01-1.28-.03-2.55,0-3.83.02-.77-.62-1.52-.05-2.3.04-.05.02-.17,0-.23-.37-.85-.37-1.69-.05-2.55.05-.14.06-.33,0-.46-.34-.77-.23-1.57-.23-2.36-.01-3.03-.02-6.07-.04-9.1Z"/><path class="cls-2" d="m94.15,228.86c.33-.04.64-.02.9.2.18.16.41.29.52.49.64,1.06,1.66,1.72,2.62,2.39,1.04.72,2.17,1.36,3.42,1.67.62.15,1.15.56,1.82.56.57,0,1.03.39,1.57.54.61.17,1.2.43,1.79.65.15.05.31.14.45.13,1.07-.06,2.02.42,3.04.59.47.07.92.27,1.38.34.47.07.95.06,1.43.07.96.01,1.92.04,2.88.02,1.19-.03,2.4.08,3.55-.36.14-.05.32-.02.48-.04.78-.11,1.61,0,2.33-.45.48-.05.96-.05,1.43-.15.46-.09.9-.35,1.36-.39.72-.06,1.4-.23,2.1-.44.6-.19,1.27-.14,1.83-.49.77.09,1.3-.61,2.04-.61.08,0,.16-.02.23-.05.71-.36,1.41-.76,2.14-1.07.73-.31,1.54-.42,2.24-.81.77-.42,1.66-.53,2.42-.98.75-.45,1.55-.81,2.34-1.19.08-.04.28.11.39.21.18.17.27.41.21.65-.08.38-.23.75-.02,1.14.07.12.06.34,0,.46-.3.6-.28,1.23-.29,1.88-.01,1.2-.06,2.4-.07,3.6-.01.76-.31,1.42-.79,1.96-.84.96-1.69,1.94-2.74,2.67-.79.55-1.53,1.16-2.2,1.84-.62.63-1.32,1.15-2.04,1.66-1.5,1.06-3.03,2.06-4.76,2.73-.52.2-1.01.47-1.52.71-.43.21-.86.37-1.34.47-.93.19-1.82.54-2.71.89-1.03.41-2.04.92-3.14,1.14-.56.38-1.2.41-1.84.43-.56.01-1.12,0-1.68.01-.24,0-.51-.06-.71.03-1,.43-2.04.31-3.07.32-1.04,0-2.08,0-3.12,0-.24,0-.5,0-.7-.1-.8-.41-1.75-.24-2.52-.72-.81-.03-1.55-.34-2.32-.55-.92-.24-1.82-.58-2.69-.97-.36-.16-.76-.3-1.06-.55-.94-.75-1.98-1.34-3.03-1.91-.85-.47-1.55-1.12-2.31-1.7-1.07-.83-1.66-1.91-1.66-3.28,0-.88.03-1.76.03-2.64,0-.56.02-1.11.25-1.64.12-.28.14-.62.16-.94.06-.87-.05-1.75.36-2.59.13-.26.07-.63.08-.95.06-1.28.11-2.55.16-3.83.01-.42.27-.74.41-1.11l-.06.06Z"/><path class="cls-2" d="m108.4,221.22c2.24,0,4.47,0,6.71,0,.96,0,1.92,0,2.87,0,.32,0,.66,0,.94.11.54.23,1.09.23,1.64.23,2,0,3.99,0,5.99,0,.48,0,.94-.04,1.41-.22.29-.11.63-.06.94-.14.8-.21,1.5.55,2.32.18.75-.34,1.58-.14,2.37-.17.72-.03,1.44,0,2.16,0,.8,0,1.6,0,2.4,0,.8,0,1.6,0,2.4,0,.24,0,.48.02.72.04.17,0,.42.31.42.51-.02.88.02,1.76-.07,2.63-.05.54-.26,1.08-.45,1.6-.08.21-.25.41-.43.56-.31.25-.64.48-.99.67-.63.34-1.28.65-1.92.96-.43.21-.86.45-1.32.56-1.02.24-1.9.8-2.9,1.09-1.51.44-3.01.95-4.46,1.61-1.22.55-2.53.91-3.85,1.23-.93.23-1.86.43-2.77.71-.47.14-.93.21-1.41.25-.4.04-.83-.02-1.18.12-1,.41-2.04.33-3.07.34-.72.01-1.44,0-2.16,0-.88,0-1.76.04-2.58-.36-.14-.07-.31-.09-.47-.09-1.39.05-2.65-.46-3.94-.88-.9-.3-1.86-.48-2.7-.91-.78-.41-1.63-.61-2.43-.98-.95-.44-1.84-.93-2.54-1.73-.37-.42-.81-.77-1.22-1.15-.41-.38-.82-.76-1.21-1.16-.28-.29-.47-.64-.47-1.06-.01-.88-.02-1.76-.04-2.63-.02-.58.22-1.09.44-1.6.1-.23.31-.35.57-.35,2.31-.02,4.62-.19,6.94-.05,1.11.07,2.23.01,3.35.01,0,.03,0,.05,0,.08Z"/><path class="cls-2" d="m188.24,218.13c-.02-.8-.04-1.59-.07-2.39,0-.23,0-.5-.12-.69-.3-.52-.26-1.07-.26-1.63,0-1.44-.02-2.87-.02-4.31,0-.72,0-1.43-.32-2.1-.03-.05.02-.16.06-.23.17-.35-.02-.63-.24-.84-.68-.67-1.39-1.31-2.09-1.97-.83-.78-1.39-1.72-1.79-2.79-.5-1.34-.99-2.68-1.58-3.99-.73-1.64-1.07-3.33-.47-5.1.07-.22.08-.47.09-.71.01-1.15.39-2.18,1-3.15.47-.74.88-1.51,1.38-2.23.27-.39.66-.69,1.01-1.01.11-.11.26-.18.4-.25.07-.04.16-.06.23-.05.82.08,1.5-.5,2.31-.48.96.02,1.91-.02,2.82.36.35.15.79.08,1.18.14.23.04.47.11.66.24.53.35,1.05.73,1.71.82.89.56,1.68,1.21,2.19,2.16.38.7.76,1.39,1.22,2.04.24.34.28.78.13,1.15-.22.53-.26,1.07-.26,1.63-.01,1.51-.05,3.03-.08,4.54-.03,1.44-.06,2.87-.09,4.31,0,.24-.01.49-.1.7-.23.53-.22,1.09-.25,1.65-.05.79-.13,1.57-.38,2.35-.24.75-.13,1.58-.48,2.33-.09.2-.05.47-.05.71-.05,1.59-.1,3.19-.16,4.78-.02.39-.16.77-.16,1.16,0,.31.18.62.18.93.02.88.02,1.75-.03,2.63-.05.86-.45,1.66-.34,2.58.09.78-.06,1.59-.12,2.39-.02.23-.1.46-.16.69-.04.16-.44.37-.57.31-.29-.13-.59-.25-.87-.41-.76-.43-1.5-.9-2.28-1.29-.78-.39-1.6-.7-2.4-1.05-.14-.06-.28-.16-.4-.25-.27-.19-.48-.42-.48-.78,0-.96,0-1.91,0-2.87.01,0,.03,0,.04,0Z"/><path class="cls-2" d="m167.09,218.2c0,1.52,0,3.04,0,4.55,0,.51-.21.93-.47,1.33-.08.13-.21.28-.34.32-1.32.35-2.44,1.17-3.74,1.57-.9.28-1.75.76-2.61,1.17-1.72.83-3.43,1.68-5.19,2.42-1.47.62-2.98,1.12-4.49,1.61-1.23.4-2.4.89-3.33,1.8-.75.74-1.62,1.28-2.47,1.88-.14.1-.51-.1-.56-.29-.05-.15-.13-.3-.14-.45-.02-.72-.02-1.44-.01-2.16,0-.16,0-.33.06-.47.46-.99.34-2.04.34-3.07,0-.56,0-1.12.24-1.65.06-.14.09-.31.11-.46.06-.72.08-1.44.19-2.15.1-.62.35-1.21.33-1.87-.02-.61.24-.98.92-1.18,1.37-.41,2.63-1.14,4.05-1.42.23-.05.43-.2.65-.3,1.64-.81,3.35-1.46,5.05-2.14,1.1-.44,2.2-.91,3.3-1.36,1.03-.42,2.04-.89,3.06-1.34.58-.26,1.17-.5,1.75-.78.57-.28,1.25-.25,1.79-.65.17-.13.46-.09.7-.11.46-.03.79.25.8.66.01.56.02,1.12.02,1.68,0,.96,0,1.92,0,2.87,0,0,0,0,0,0Z"/><path class="cls-2" d="m49.66,236.02c-1.32.07-2.36.11-3.36-.2-.45-.14-.76.04-1.05.33-.17.17-.32.37-.51.5-.19.13-.42.25-.64.28-.47.06-.95.06-1.43.07-.64.02-1.27.01-1.88.28-.21.09-.46.11-.7.12-1.99.08-3.98.19-5.98.02-.69-.06-1.23-.39-1.56-.97-.55-.96-1.09-1.94-1.24-3.07-.04-.31-.18-.61-.3-.9-.13-.31-.11-.62-.03-.93.08-.31.28-.6.28-.91.03-1.3.76-2.24,1.55-3.14.47-.53,1.05-.97,1.57-1.47.49-.46,1.06-.67,1.73-.67.71,0,1.44.08,2.12-.22.13-.06.33-.05.47,0,1.63.58,3.32.28,4.98.35.72.03,1.43-.04,2.15-.04.32,0,.64.04.95.11q1.97.47,3.45.07c.15-.04.31-.09.46-.11.46-.05.87.37,1.38.1.36-.2.78-.08,1.18-.06.27.02.45.16.54.38.14.37.32.75.35,1.14.02.29-.17.6-.26.9-.45,1.52-.86,3.05-1.36,4.56-.32.97-.71,1.95-.71,3.01,0,.17-.31.39-.53.4-.64.02-1.27.05-1.63.06Z"/><path class="cls-2" d="m169.41,237.55c-1.11,0-2.23-.02-3.34,0-1.22.03-2.33-.38-3.41-.88-.36-.17-.68-.43-1.05-.55-.72-.24-.85-.89-1.1-1.46-.06-.13-.05-.33,0-.47.16-.45.33-.89.54-1.32.18-.36.31-.73.33-1.13.02-.49.2-.92.4-1.36.43-.96.97-1.82,1.96-2.31.43-.56,1.04-.69,1.7-.68.56,0,1.11-.02,1.67-.03.56,0,1.12.01,1.64-.23.14-.07.31-.09.46-.1,1.27-.06,2.55-.13,3.82-.14.39,0,.81.07,1.16.24,1.94.91,3.97,1.64,5.84,2.69.14.08.29.13.42.23.26.19.49.42.52.76.04.64.08,1.27.09,1.91.01.56-.03,1.12-.31,1.62-.06.96-.8,1.32-1.53,1.63-.58.24-1.2.44-1.82.53-.95.14-1.81.62-2.78.63-.66.35-1.38.35-2.1.34-1.04,0-2.07,0-3.11,0,0,.03,0,.06,0,.09Z"/><path class="cls-2" d="m49.09,192.5c0-.16.01-.32,0-.48-.13-1.48.38-2.81.96-4.12.42-.96.99-1.81,1.8-2.48.49-.4.96-.78,1.69-.78.45,0,.9-.28,1.34-.45.37-.14.72-.4,1.1-.43.73-.05,1.36-.46,2.07-.51.23-.02.47.02.71.05.17.02.41.34.41.52-.03.87,0,1.75-.39,2.57-.18,1.98-.95,3.84-1.14,5.82-.06.63-.47,1.19-.45,1.84-.51,1.74-.88,3.53-1.39,5.27-.11.38-.24.75-.41,1.11-.14.31-.3.54-.68.55-.48,0-.95.05-1.43.03-.23,0-.49-.04-.65-.24-.51-.61-1.01-1.22-1.51-1.84-.7-.88-1.14-1.9-1.53-2.94-.52-1.42-.5-1.42-.49-3.5Z"/><path class="cls-2" d="m136.47,29.88c0,.4,0,.8,0,1.19-.02.79-.48,1.36-1.09,1.75-.67.42-1.41.72-2.13,1.05-.21.1-.46.13-.7.14-.55.04-1.11.03-1.62.3-1.18.07-2.38.31-3.51-.24-.89-.07-1.69-.42-2.45-.86-.29-.17-.39-.43-.29-.78.21-.68.5-1.35.6-2.04.11-.7.02-1.43.04-2.15,0-.41-.08-.78-.22-1.16-.08-.22.26-.71.5-.72,1.18-.07,2.3-.58,3.51-.47.71.06,1.43,0,2.15.01.24,0,.48-.01.72.02.62.09,1.19.4,1.86.35.55-.04,1.11.06,1.66.13.14.02.31.13.38.25.29.48.55.97.58,1.55.03.56.05,1.11.07,1.67-.02,0-.03,0-.05,0Z"/><path class="cls-2" d="m175.34,195.03c0,1.91.01,3.83,0,5.74,0,.88-.06,1.75-.12,2.63-.05.67-.51.86-1.18.54-.14-.07-.32-.1-.43-.2-.7-.64-1.52-1.19-1.74-2.21-.78-1.12-1.12-2.43-1.54-3.71-.15-.46-.29-.91-.31-1.39-.04-.88-.1-1.75-.07-2.63.01-.49-.31-.92-.19-1.38.1-.39.18-.77.19-1.17.01-.48.04-.96.09-1.43.02-.24.07-.47.15-.7.33-.91.79-1.75,1.42-2.47.31-.35.71-.67,1.14-.85.59-.24,1.24-.24,1.87-.02.35.12.69.53.7.88.01,1.59.02,3.19.02,4.78,0,1.2,0,2.39,0,3.59Z"/><path class="cls-2" d="m114.78,28.89c0,.32,0,.64,0,.96.01.57.14,1.09.6,1.5.24.21.42.47.63.72.18.21.11.37-.23.49-.45.16-.86.39-1.37.38-.48-.02-.96.08-1.43.06-.99-.05-1.9.07-2.65.8-.06.05-.13.09-.2.12-1.18.58-1.61.9-2.92-.47-.39-.41-.69-.87-.97-1.35-.4-.7-.52-1.5-.87-2.21-.1-.2-.12-.46-.12-.7-.04-.87-.12-1.75-.06-2.62.11-1.65-.09-1.79,1.75-1.67.56.04,1.1.17,1.61.38,2.04.08,3.8,1.06,5.65,1.74.38.14.63.46.62.92,0,.32,0,.64,0,.96h-.03Z"/><path class="cls-2" d="m94.22,228.8c-.52-.17-.99-.47-1.59-.43-.8.05-1.6,0-2.39.01-.91.02-1.7-.35-2.49-.73-.11-.06-.22-.26-.22-.4,0-1.34-.23-2.71.28-4.02.05-1.12.1-2.23.17-3.35,0-.15.1-.29.17-.43.03-.06.12-.11.19-.11.15,0,.32.02.46.06.83.26,1.66.53,2.49.81.68.23,1.35.46,2.08.51.47.04.92.24,1.38.37.34.1.59.41.36.96-.21.51-.42,1.02-.57,1.56-.22.78-.35,1.55-.35,2.35,0,.96-.02,1.92-.03,2.88l.06-.06Z"/><path class="cls-2" d="m122.95,30.18c.12.76-.17,1.41-.47,2.06-.26.56-.68.8-1.31.83-.98.04-1.88-.18-2.74-.62-.37-.18-.64-.45-.86-.79-.17-.27-.33-.57-.18-.89.21-.45.24-.91.24-1.39,0-.79.09-1.59.04-2.37-.07-.99.37-1.85.6-2.76.11-.46.51-.8.93-1.05.36-.22.75-.24,1.14-.08.52.23.92.59,1.2,1.1.42.77.56,1.64.88,2.45.09.21.06.47.09.7.15.93.3,1.86.45,2.79Z"/><path class="cls-2" d="m126.86,24.92c-.24.01-.48.02-.72.05-1.22.15-2.16-.36-2.95-1.24-.14-.16-.1-.54.09-.61.51-.21,1.02-.42,1.54-.63.67-.27,1.33-.49,2.07-.53.95-.06,1.84-.49,2.8-.49,1.4-.59,2.79-.35,4.19.04.68.19,1.14.59,1.41,1.18.26.57.39,1.2.56,1.81.08.29-.49.75-.8.66-.3-.09-.61-.18-.91-.29-1.54-.55-3.09-.65-4.68-.15-.3.09-.63.09-.94.11-.56.04-1.11.06-1.67.08,0,0,0,.01,0,.02Z"/><path class="cls-2" d="m106.31,22.15c-.04.08.12-.28.33-.61.12-.19.28-.38.47-.51.33-.21.71-.36,1.04-.56.56-.34,1.17-.44,1.81-.5,1.32-.12,2.48.25,3.61.92.96.57,1.78,1.32,2.7,1.94.37.25.45.64.24,1.04-.29.56-.6,1.11-.9,1.67-.09.17-.44.24-.64.13-.92-.46-1.84-.92-2.75-1.39-.35-.18-.73-.29-1.1-.43-.91-.35-1.84-.47-2.8-.45-.63.01-1.27,0-1.9-.02-.44,0-.56-.17-.39-.57.03-.07.06-.15.28-.67Z"/></g><g id="Lines"><path class="cls-1" d="m163.45,151.16c-.06.47-.18.95-.17,1.42.07,4.16.15,8.31.23,12.47.02.96.1,1.9.45,2.82.17.44.22.93.24,1.41.05,1.28.06,2.56.09,3.84.05,2.72.09,5.44.15,8.15.02.96.13,1.9.48,2.82.17.44.22.93.25,1.41.1,1.76.18,3.51.25,5.27.03.65.25,1.24.48,1.84.17.44.27.92.32,1.39.1.95.17,1.91.22,2.87.03.49.22.92.36,1.38.14.45.23.93.3,1.4.06.47.07.96.08,1.44.06,2.24.16,4.48.15,6.71,0,1.3.14,2.54.64,3.74.06.14.03.32.05.47.09.62-.22,1.24-.85,1.54-.57.27-1.06.7-1.73.75-.38.03-.66-.09-.74-.47-.27-1.42-.2-2.86-.26-4.29-.07-1.76,0-3.52-.19-5.27-.08-.66-.58-1.13-1.27-1.14-.8-.01-1.59.03-2.34.37-.43.2-.89.34-1.37.41-1.42.2-2.9.05-4.22.76-.8.13-1.59.1-2.39.02-.63-.06-1.53-.94-1.62-1.59-.17-1.27-.28-2.55-.87-3.71-.09-.79-.19-1.59-.28-2.38-.06-.47-.07-.96-.28-1.4-.42-.88-.54-1.83-.56-2.8-.03-1.12-.07-2.24-.11-3.36-.02-.65-.17-1.26-.44-1.85-.27-.59-.35-1.23-.38-1.87-.06-1.44-.12-2.88-.17-4.31-.04-1.28-.06-2.56-.1-3.84-.01-.32-.01-.66-.13-.94-.53-1.22-.47-2.5-.5-3.77-.05-2.08-.12-4.16-.2-6.23-.02-.48-.09-.95-.14-1.43-.85-1.65-.58-3.44-.64-5.18-.09-2.72-.11-5.44-.17-8.15-.03-1.43.07-2.89-.62-4.23-.1-.79-.22-1.58-.28-2.38-.06-.83-.38-1.54-.85-2.2-.7-.99-1.63-1.49-2.87-1.33-.49.06-.94.35-1.03.82-.3,1.57-1.03,3.02-1.15,4.64-.04.62-.95,2.6-1.31,3.06-.49.63-1.06,1.21-1.8,1.55-.29.13-.6.23-.91.27-.63.08-1.27.13-1.91.16-.82.04-1.94-.73-2.25-1.52-.12-.3-.23-.59-.32-.9-.09-.3-.11-.64-.25-.92-.53-1.03-.64-2.13-.67-3.26-.01-.48-.03-.97-.14-1.43-.07-.29-.28-.57-.49-.8-.46-.49-1.06-.7-1.72-.68-.32,0-.66.02-.94.13-1.05.44-2.15.62-3.28.58-3.52-.13-7.04.04-10.55.04-.64,0-1.28.05-1.92.07-.49.02-1.01.32-1.16.69-.36.89-.86,1.74-.87,2.72,0,1.35-.67,2.45-1.22,3.6-.27.58-.78,1.03-1.37,1.29-.26.11-.61.03-.92-.01-.15-.02-.29-.13-.42-.21-1.81-1.21-2.91-2.95-3.6-4.95-.26-.74-.27-1.57-.39-2.36-.23-.21-.45-.42-.68-.62-.95-.14-1.91-.14-2.86,0-.45.07-.95.48-1.03.87-.06.31-.16.62-.18.93-.05.96-.07,1.92-.11,2.88-.02.48,0,.98-.16,1.42-.51,1.39-.47,2.83-.49,4.26-.07,5.44-.13,10.87-.19,16.31-.01.96-.02,1.92-.06,2.88-.02.48,0,.99-.17,1.42-.47,1.23-.46,2.5-.49,3.78-.07,2.4-.15,4.8-.2,7.19-.02.81-.16,1.58-.47,2.33-.12.29-.22.61-.24.92-.13,1.59-.24,3.19-.34,4.79-.04.65-.16,1.27-.41,1.86-.19.45-.24.93-.26,1.41-.11,4-.21,7.99-.3,11.99-.02.64,0,1.27.13,1.91.12.62.18,1.27.17,1.9-.05,2.24-.15,4.47-.22,6.71-.17.26-.35.52-.52.77-.63.1-1.26.2-1.79-.3-.12-.11-.24-.22-.31-.36-.06-.14-.07-.31-.07-.47.01-2.24.02-4.47.05-6.71,0-.48.05-.96.24-1.41.32-.74.45-1.52.47-2.33.07-4.8.16-9.59.24-14.39,0-.48,0-.97.2-1.41.66-1.5.74-3.1.75-4.7,0-.97.1-1.91.5-2.81.26-.6.24-1.25.25-1.89.06-3.36.11-6.72.16-10.07.03-2.24.07-4.48.09-6.72,0-.81.15-1.59.44-2.34.06-.15.13-.3.14-.46.05-1.43.26-2.88-.31-4.26-.19-.45-.21-.93-.22-1.41-.01-1.28-.06-2.56.49-3.77.06-.64.16-1.27.17-1.91.09-4.32.17-8.63.24-12.95,0-.32-.02-.64-.08-.95-.03-.14-.16-.27-.25-.39-.2-.28-.45-.24-.66.16-.66,1.28-1.35,2.54-1.92,3.86-.43,1.02-1.09,1.96-1.22,3.11-.03.3-.21.6-.34.89-.4.87-.83,1.73-1.19,2.61-.78,1.91-1.96,3.66-2.4,5.72-.67,1.44-1.56,2.79-1.84,4.4-.72,1.43-.92,3.05-1.66,4.47-.18.94-.45,1.85-.83,2.74-.37.87-.38,1.88-.85,2.73-.23.43-.26.92-.3,1.4-.06.81-.23,1.58-.6,2.3-.14.28-.26.59-.3.9-.16,1.11-.32,2.22-.87,3.22-.12,1.29-.79,2.42-1.07,3.66-.22.97-.67,1.79-1.14,2.62-.22.39-.47.43-.67.15-.09-.12-.18-.27-.2-.41-.12-1.13-.03-2.24.37-3.3.29-.75.57-1.49.63-2.3.05-.64.16-1.27.48-1.84.48-.86.36-1.89.8-2.75.45-.87.56-1.82.72-2.77.08-.47.27-.91.4-1.37.13-.46.3-.91.39-1.38.15-.78.2-1.58.54-2.32.53-1.16.54-2.51,1.31-3.59.42-1.2,1.1-2.31,1.3-3.59.52-1.16,1.07-2.32,1.55-3.5.17-.43.17-.94.23-1.41.05-.4-.3-1.04-.65-1.19-3.2-1.46-6.31-3.08-9.42-4.7-.13-.07-.3-.08-.45-.11-.36-.08-.64.03-.83.34-.49.83-.5,1.83-.98,2.68-.39.69-.75,1.42-.98,2.18-.32,1.07-.55,2.16-1.02,3.18-.15,1.28-.42,2.52-.97,3.69-.13.28-.13.63-.14.94-.01,1.16-.67,2.13-.89,3.22-.2.93-.17,1.91-.58,2.81-.19.43-.3.91-.38,1.37-.08.47-.1.95-.13,1.43-.04.81-.25,1.57-.6,2.3-.13.28-.21.6-.25.91-.19,1.42-.12,2.88-.81,4.21-.14.27-.12.62-.15.94-.06.64-.13,1.27-.17,1.91-.03.49-.2.94-.41,1.37-.28.59-.41,1.2-.48,1.84-.06.47-.07.98-.26,1.4-.55,1.19-.66,2.46-.77,3.73-.04.48-.1.96-.32,1.39-.37.73-.48,1.52-.55,2.32-.06.64-.17,1.27-.47,1.85-.22.43-.33.9-.4,1.37-.05.32-.11.63-.15.95-.1.81-.6,1.48-.78,2.25-.17.78-.26,1.57-.4,2.36-.03.15-.11.3-.18.44-.28.58-.46,1.19-.5,1.84-.06.8-.23,1.57-.54,2.32-.18.43-.29.92-.34,1.39-.14,1.27-.17,2.55-.7,3.75-.18.42-.15.94-.2,1.41-.11,1.27.1,2.57-.23,3.82-.08.29-.31.54-.51.78-.09.11-.28.16-.42.21-1.26.49-2.13,1.41-2.75,2.56-.31.57-.58,1.13-1.05,1.58-1.15,1.12-2.14,2.37-2.94,3.76-.48.83-1.09,1.58-1.82,2.21-.26.22-.57.27-.88.28-.35.01-.7-.06-.82-.38-.09-.27,0-.6.02-.91,1.36-1.97,2.72-3.94,4.39-5.68.88-.92,1.84-1.77,2.42-2.95.2-.41.62-.73.97-1.05,1.13-1.01,1.83-2.17,1.69-3.77-.08-.96.16-1.9.55-2.8.32-.74.26-1.57.35-2.36.07-.64.1-1.28.38-1.87.34-.74.52-1.51.53-2.32.01-1.13.15-2.22.67-3.25.21-.41.2-.93.29-1.4.09-.47.11-.98.3-1.4.49-1.04.67-2.12.73-3.25.04-.64.13-1.27.42-1.86.35-.74.42-1.53.51-2.33.05-.47.08-.96.33-1.39.42-.71.52-1.5.65-2.29.6-1.15.88-2.39.99-3.67.01-.16.04-.33.11-.46.68-1.15.73-2.43.85-3.7.04-.48.09-.95.29-1.4.26-.58.45-1.19.48-1.84.07-1.28.1-2.57.75-3.73.1-.63.22-1.26.28-1.89.1-.96.19-1.91.65-2.78.23-.43.26-.92.3-1.4.1-1.28.19-2.54.77-3.73.2-.41.17-.94.23-1.41.08-.64.26-1.25.53-1.83.13-.29.25-.59.32-.9.24-1.09.33-2.19.78-3.25.43-1.02.61-2.15,1.15-3.14.13-.96.53-1.83.89-2.72.36-.88.43-1.85.8-2.75.37-.87.35-1.88.84-2.73.56-.97.57-2.14,1.11-3.15.44-.84.44-1.86.94-2.7.41-.7.32-1.56.71-2.27.38-.7.7-1.44,1.01-2.17,3.21-7.47,3.51-7.93,5.93-12.52.52-.99,1.01-1.98,1.66-2.9.54-.78.99-1.64,1.39-2.51.53-1.17,1.25-2.23,1.78-3.39.47-1.02,1.15-1.91,1.69-2.89.06-.11.1-.31.04-.38-.21-.27-.51-.33-.86-.31-.65.04-1.23.31-1.82.55-.45.18-.93.21-1.41.23-.7.03-1.22-.28-1.62-.83-.09-.12-.2-.33-.16-.44.47-1.18.62-2.47,1.18-3.62.49-1.01.48-2.19,1.1-3.15.29-1.08.63-2.14,1.12-3.15.1-.97.5-1.84.84-2.73.34-.88.37-1.87.82-2.74.31-.59.27-1.25.05-1.86-.26-.76-.48-1.52-.51-2.33-.06-1.6-.15-3.2-.21-4.79-.03-.81-.19-1.58-.49-2.33-.12-.29-.18-.61-.21-.93-.09-1.11-.18-2.23-.22-3.35-.02-.64.04-1.28.31-1.88.33-.74.53-1.49.56-2.31.07-2.24.2-4.47.25-6.71.03-1.29.15-2.54.63-3.75.17-.43.16-.94.25-1.41.06-.31.12-.64.26-.92.91-1.87,1.82-3.73,2.77-5.57.21-.42.58-.76.88-1.13.5-.62,1.01-1.23,1.49-1.87.19-.26.21-.6.08-.9-.16-.36-.43-.36-.77-.08-.12.1-.29.14-.44.17-.66.15-1.33-.28-1.4-.9-.06-.48-.14-.95-.17-1.43-.05-.8-.03-1.6-.11-2.39-.05-.48-.33-.89-.64-1.26-.27-.32-.33-.33-1.27.08-.7.3-1.26.19-1.7-.33-.42-.49-.77-1.01-.81-1.69-.03-.48-.1-.95-.12-1.43-.04-.81-.28-1.56-.57-2.31-.18-.46-.16-.93.08-1.38.29-.58.46-1.19.49-1.84.02-.64.04-1.28.06-1.92.02-.5-.16-.97-.48-1.32-.64-.71-1.36-1.35-2.03-2.03-.31-.3-.31-.93,0-1.29.1-.12.24-.25.38-.28.47-.1.95-.2,1.42-.21,2.56-.06,5.12-.15,7.67-.01.96.05,1.91.16,2.86.24,1.13.61,2.46.68,3.56,1.38.27.17.57.28.86.42,1.72.83,3.48,1.57,5.34,2.07.47.13.83.45,1.08.88.07.13.17.31.12.41-.06.12-.24.25-.38.26-1.12.1-2.2.02-3.26-.42-.88-.36-1.84-.5-2.73-.85-.74-.29-1.41-.74-2.12-1.12-.14-.08-.28-.17-.43-.2-1.09-.24-2.18-.48-3.21-.92-1.75-.17-3.49-.41-5.24-.02-.15.03-.36.14-.39.25-.07.29-.05.6-.07.9,1.03,1.44,2.15,2.77,3.86,3.47.43.18.85.45,1.2.77.83.75,1.61,1.56,2.41,2.33.8.78,1.48,1.68,2.37,2.37.25.19.57.25.9.2.15-.02.3-.1.44-.17.42-.24.82-.49,1.23-.74.42-.25.72-.6.97-1.03.49-.84,1.16-1.51,2.05-1.95.86-.42,1.7-.88,2.54-1.33.6-.32.83-.28,1.18.15.57.72.59.88.13,1.13-.84.46-1.68.92-2.51,1.39-.29.16-.46.44-.58.74-.32.75-.74,1.44-1.55,1.72-.77.26-1.42.72-2.13,1.09-.95.5-1.08.82-.65,1.91.14.35.18.58-.03.88-.75,1.06-1.79,1.83-2.64,2.77-.21.23-.35.53-.52.79-.02,1.17-.77,2.07-1.14,3.11-.17.49-.42.85-.88,1.04-1.24.52-1.97,1.59-2.79,2.56-.37.88-.9,1.7-1.01,2.68-.1.85-.57,1.45-1.16,2.02-.6.58-.84,1.34-.87,2.17-.04,1.12-.08,2.24-.12,3.36-.02.48-.01.96-.06,1.44-.03.31-.1.63-.21.93-.21.61-.4,1.21-.43,1.86-.06,1.6-.15,3.2-.2,4.79-.03.97-.24,1.89-.59,2.8-.17.45-.23.96-.08,1.42.33,1.06.47,2.17.89,3.2.06.14.21.24.31.36.1-.13.24-.24.29-.38.23-.76.36-1.56.68-2.27.27-.59.42-1.2.58-1.81.1-.38.33-.57.54-.46.12.06.25.24.26.38.23,2.72-.02,5.43-.11,8.15-.01.32-.04.65-.17.94-.47,1.05-.52,2.16-.59,3.28-.05.81-.2,1.58-.57,2.31-.07.14-.18.29-.19.44-.18,1.44-.58,2.81-1.13,4.14-.1,1.3-.89,2.39-1.08,3.66-.15.95-.87,1.71-.96,2.7-.07.8-.68,1.44-.72,2.27-.02.47.43.95.9.82.15-.04.33-.02.46-.09.84-.46,1.67-.94,2.5-1.41.68-.39,1.48-.56,2.02-1.22.52-.63.77-1.39,1.15-2.09.38-.7.67-1.45,1.04-2.15.23-.44.34-.9.43-1.36.21-1.1.99-2.02.98-3.19,0-.16.02-.32.07-.47.25-.92.56-1.83.74-2.76.16-.78.17-1.59.26-2.38.02-.16.03-.33.11-.46.63-1.16.56-2.47.83-3.71.1-.45.32-.53.67-.3.42.27.71.62.83,1.1.16.63.18,1.27-.02,1.89-.25.76-.52,1.5-.54,2.32-.02.96-.11,1.92-.16,2.87-.04.81-.25,1.56-.54,2.32-.28.74-.36,1.56-.67,2.28-.31.74-.59,1.47-.72,2.27-.13.79-.72,1.42-.84,2.23-.12.81-.62,1.46-.97,2.17-.57,1.14-1.1,2.3-1.65,3.46-.18.38.08.87.57,1.14.43.24.91.4,1.37.25,1.98-.65,3.82-1.62,5.61-2.67.14-.08.28-.17.39-.27,1.65-1.51,3.43-2.89,4.51-4.93.15-.28.38-.51.6-.75.46-.5,1.02-.7,1.71-.66.63.04,1.28.8,1.03,1.3-.67,1.28-.77,2.78-1.61,3.98-.39,1.08-1.07,1.96-1.85,2.77-.55.57-1.09,1.16-1.62,1.75-.09.1-.17.3-.12.4.05.13.22.25.36.3.78.27,1.59.21,2.35-.04.75-.25,1.45-.66,2.17-1.01.14-.07.28-.16.39-.28.79-.79,1.57-1.59,2.35-2.4.11-.11.21-.24.29-.38.92-1.67,1.88-3.33,2.34-5.22.22-.89.91-1.26,1.81-1.07.48.1.86.5.92.95.04.32.1.63.13.95.03.32.03.64.03.96,0,.65.14,1.27.41,1.85.28.59.36,1.22.39,1.86.04.99.42,1.85.94,2.68.26.41.49.83.92,1.06,1.26.68,2.43,1.52,3.82,1.94.36.11.65-.01.81-.32.07-.13.11-.28.12-.43.01-.16.02-.34-.04-.47-.44-1.03-.91-2.04-1.34-3.07-.31-.75-.41-1.54-.35-2.35.04-.49.26-.9.7-1.18.28-.18.58-.38.85-.29.29.09.58.29.8.51.22.22.37.51.51.79.35.72.67,1.45,1,2.18.61,1.35,1.61,2.37,2.78,3.24.43.32,2.53,1.16,3.08,1.22.14.02.3-.04.44-.1.34-.14.45-.41.4-.78-.04-.3-.18-.57-.35-.86-.49-.82-.96-1.66-1.4-2.51-.14-.27-.15-.62-.19-.93-.08-.67.36-1.22,1.02-1.35.68-.13,1.27.05,1.75.52.34.34.67.72.87,1.14.63,1.35,1.7,2.31,2.79,3.25.48.42,1.04.73,1.68.87.47.1.94.21,1.38.4.48.21.9.16,1.34-.07.58-.3,1.22-.33,1.86-.39.14-.01.3-.13.39-.25.15-.19.01-.43-.38-.57-1.58-.58-2.62-1.77-3.6-3.05-.38-.88-.76-1.75-1.13-2.63-.17-.39,0-.89.41-1.29.55-.54,1.15-.49,1.61.14.19.26.4.5.54.78.37.71.7,1.43,1.05,2.15.22.45.55.8,1.04.92,1.4.35,2.72.92,3.97,1.64,1.25.72,2.5,1.41,3.98,1.56.3.03.58.26.87.38,1.21.5,2.47.59,3.74.29.41-.09.45-.4.28-.72-.51-.92-1.26-1.4-2.33-1.34-.32.02-.64,0-.95-.05-.31-.04-.62-.19-.8-.47-.35-.54-.64-1.11-.95-1.66-.39-1.89-1.31-3.58-1.96-5.37-.22-.6-.22-1.26-.09-1.9.03-.15.12-.31.23-.4.21-.18.5-.13.8.11.76.61,1.42,1.32,1.61,2.31.18.97.75,1.76,1.1,2.64.27.68.79.95,1.45,1.06.31.05.64.05.95.08.67.08,1.19.33,1.51.98.28.56.61,1.13,1.22,1.43.1.05.28.06.38,0,.13-.08.29-.22.31-.36.18-1.6.09-3.19-.42-4.73-.25-.77-.48-1.52-.5-2.33-.04-1.44-.05-2.88-.1-4.31-.01-.31-.06-.65-.21-.92-.46-.85-.65-1.8-1.04-2.67-.33-.73-.57-1.49-.91-2.21-.63-1.3-.68-2.8-1.49-4.02-.08-.63-.23-1.27-.22-1.9.04-1.28.12-2.55.03-3.83-.06-.8-.25-1.56-.49-2.33-.48-1.55-.63-3.13.04-4.68.13-.3.02-.57-.08-.9-.47-1.57-.55-3.14.07-4.69.13-.33.15-.59-.01-.91-.29-.58-.38-1.22-.44-1.85-.07-.8-.26-1.57-.61-2.3-.35-.72-.35-1.55-.72-2.28-.65-1.28-1.24-2.59-1.9-3.87-.22-.42-.55-.79-.85-1.16-.42-.51-.66-1.09-.73-1.74-.08-.8-.23-1.56-.58-2.31-.47-1.01-.93-2.04-1.26-3.1-.33-1.08-.92-2.03-1.32-3.08-.29-.75-.58-1.48-.76-2.26-.15-.65-.62-1.1-1.08-1.55-.11-.11-.24-.22-.37-.3-.71-.38-1.37-.84-1.94-1.4-1.27-1.26-2.79-2.12-4.41-2.81-.47-.2-.42-.6.12-1.08.37-.33.83-.54,1.31-.37.75.27,1.47.62,2.19.95q1.8.83,3.21,2.03c.61.52,1.18,1.06,1.9,1.44.45.24,1.47.04,1.74-.4.33-.55.67-1.08.96-1.65.28-.57.45-1.19.76-1.74.23-.41.63-.72.9-1.12,1.17-1.73,2.55-3.28,4.03-4.74.57-.56,1.08-1.17,1.62-1.76.29-.31.29-.58,0-.77-.12-.08-.27-.14-.42-.17-.32-.07-.65-.04-.93.11-.42.23-.83.47-1.21.76-.66.48-1.36.81-2.18.89-.48.05-.9.31-1.28.62-.37.31-.7.65-1.05.98-.58.55-1.16,1.1-1.74,1.64-.58.55-1.39.8-1.89,1.45-.38.51-.74,1.04-1.13,1.54-.2.26-.48.41-.78.49-.36.1-.65.03-.83-.26-.16-.25-.21-.57-.13-.9.03-.15.14-.29.25-.41.88-.93,1.76-1.85,2.65-2.77.22-.23.48-.42.75-.59.67-.43,1.4-.78,2.03-1.25.64-.48,1.2-1.06,1.79-1.6.49-.44,1.07-.68,1.7-.82,1.1-.24,2.1-.75,3.03-1.37.4-.27.77-.58,1.16-.85,1.15-.78,1.42-.83,3.41-.86.15,0,.31-.09.45-.16.55-.24.9.08,1.23.43.24.27.24.57.12.88-.18.44-.4.87-.42,1.37-.08,1.59-.26,3.18-.13,4.79.12,1.43.01,2.88-.7,4.2-.07.14-.1.3-.13.46-.28,1.42-1.13,2.64-1.34,4.08-.57,1.14-1.12,2.29-1.7,3.43-.22.43-.45.84-.73,1.23-1.56,2.23-2.65,4.73-3.94,7.11-.1.64-.17,1.27.24,1.84.19.26.41.48.61.73.3.37.69.71.88,1.13.46,1.01,1.1,1.96,1.16,3.12.04.82.59,1.48.73,2.27.11.63.1,1.31.35,1.88.52,1.19.74,2.43.91,3.7.08.61.49,1.17.64,1.79.23.94.35,1.89-.27,2.76-.09.13-.14.28-.23.42-.18.28-.24.58-.25.91-.04,1.14.16,2.22.63,3.26.19.43.2.93-.12,1.36-.63.84-.6,1.79-.42,2.75.06.31.13.63.26.91.55,1.16.5,2.51,1.22,3.61.36.55.42,1.21.35,1.85-.1.8-.17,1.59-.07,2.39.08.64.17,1.26.47,1.84.37.71.69,1.44,1.06,2.15.29.58.48,1.18.49,1.83.02.96.05,1.92.06,2.88,0,.81.18,1.57.46,2.33.16.44.23.93.28,1.4.08.81.3,1.56.65,2.29.13.28.21.6.24.92.05.64.1,1.28.07,1.92-.09,1.64.28,3.17.93,4.65.13.29.13.63.25.92.13.28.28.64.53.77,1.59.83,2.87,2.02,4.07,3.32.32.35.66.73.83,1.16.4,1.04,1.11,1.94,1.28,3.09.17,1.1.89,2.05,1.02,3.18.4.87.8,1.74,1.2,2.61.13.29.35.56.4.87.33,2.1,1.57,3.82,2.3,5.75.22.59.61,1.13.73,1.77.12.65.42,1.21.83,1.7.84,1,1.19,2.26,1.84,3.36.31,1.59,1.23,2.93,1.79,4.42.4,1.04.65,2.13,1.2,3.12.47.83.76,1.76,1.24,2.59.49.85.8,1.73.98,2.68.06.3.24.6.43.84.68.89,1.26,1.85,1.71,2.87.64,1.46,1.37,2.88,2.15,4.28.24.43.32.9.4,1.37.14.8.79,1.41.87,2.22.09.99.68,1.78.96,2.69.23.78.69,1.44,1.08,2.13.47.84.9,1.69,1.32,2.55.25.5.24.55-.08,1.31-.12.29-.3.58-.35.88-.2,1.28-.13,2.55.12,3.81.03.15.08.31.16.45.53,1.02.68,2.12.67,3.25,0,.48.1.97.05,1.44-.13,1.16.23,2.2.66,3.23.21.5-.28,1.3-1.02,1.23-.32-.03-.67.01-.94-.11-.26-.12-.45-.42-.67-.64-.14-.95-.38-1.87-.7-2.78-.15-.44-.15-.94-.17-1.42-.05-1.28-.09-2.56-.12-3.84-.02-1.12-.05-2.24-.57-3.27-.09-.79-.19-1.58-.26-2.38-.07-.81-.26-1.58-.67-2.28-.41-.7-.37-1.55-.79-2.25-.32-.55-.52-1.17-.82-1.73-.39-.71-.67-1.44-.83-2.23-.06-.31-.22-.59-.34-.89-1.04-2.51-2.49-4.82-3.6-7.29-.26-.58-.69-1.08-1.03-1.62-.26-.4-.5-.82-.59-1.3-.23-1.11-.87-2.04-1.34-3.05-.13-.28-.93-.6-1.26-.53-.16.03-.32.04-.47.11-1.02.46-2.01.98-2.89,1.68-1.04.82-2.19,1.29-3.51,1.36-.68.03-1.21.38-1.69.81-.25.23-.32.55-.28.87.02.16.02.33.09.47.98,2.01,1.97,4.01,2.96,6.01.63,1.29,1.35,2.54,1.67,3.96.07.31.22.6.35.89.45,1.02.91,2.04,1.36,3.06.14,1.14.76,2.09,1.2,3.12.43,1.03.98,2,1.44,3.02.46,1.01.55,2.16,1.13,3.14.09.63.3,1.27.26,1.89-.19,3.04.17,6.07.1,9.11-.02.81.21,1.57.47,2.33.21.62.23,1.27.03,1.89-.2.62-.32,1.2-.12,1.85.08.26-.09.61-.18.91-.14.48-.12.93.04,1.4.16.45.36.91.38,1.38.17,3.35.21,6.71.07,10.07-.01.31-.08.64-.2.93-.31.75-.5,1.5-.49,2.32.02,2.56-.13,5.11-.29,7.67-.03.48-.05.98-.22,1.41-.41,1.07-.51,2.17-.54,3.29-.05,1.6-.3,3.19-.05,4.79.05.32.18.61.48.79.55.33,1.12.6,1.67.92.28.17.57.29.9.31,1.16.07,2.11.7,3.09,1.21.29.15.42.47.49.79.03.16.11.31.1.47-.07,1.76.01,3.52-.17,5.27-.01.14-.13.29-.23.4-.59.57-1.86,1.25-2.5,1.31-.64.06-1.28.11-1.91.11-1.41.02-2.41.73-3.2,1.81-.09.13-.18.27-.26.4-.28.41-.29.96-.04,1.34.46.71,1.07,1.18,1.94,1.22.8.03,1.6.01,2.4.03,1.19.02,2.18-.45,3.01-1.27.33-.33.63-.73.84-1.15.29-.57.48-1.18.7-1.78.11-.3.21-.6.26-.92.22-1.41.12-2.89.85-4.2.09-.79.17-1.59.28-2.38.08-.64.8-.89,1.47-.51.13.07.3.21.32.35.34,2.07.21,4.14-.08,6.2-.07.46-.33.9-.48,1.35-.24.77-.33,1.56-.29,2.36.02.32.1.65.39.83.37.24,1.05.11,1.31-.16.46-.46.83-.97,1.03-1.58.05-.15.09-.31.11-.47.11-.8.45-1.53.76-2.26.05-1.12.09-2.24.15-3.35.02-.48.08-.95.12-1.43.05-.67.71-1.08,1.38-.88.48.15,1.26.97,1.28,1.34.06,1.6.11,3.19,0,4.79-.02.33-.13.62-.26.91-.52,1.17-1.14,2.28-1.88,3.32-.31.43,0,.78.7.81.48.02.96,0,1.43,0,.7,0,1.25-.4,1.59-.93.52-.8.9-1.68,1.33-2.54.07-.14.09-.31.09-.46.03-2.88.06-5.75.08-8.63,0-.16-.06-.31-.08-.47-.03-.34-.13-.66-.4-.84-1.46-.98-2.7-2.23-4.03-3.37-.49-.42-1.03-.72-1.61-1-1-.49-2.03-.94-2.89-1.68-.26-.22-.5-.55-.41-.76.14-.29.51-.37.83-.34.32.03.66.01.94.13,2.06.87,4.02,1.95,6.02,2.93.42.21.78.55,1.13.88.58.54,1.1,1.17,1.71,1.68,1.9,1.56,1.75,1.8,1.6,4.14-.09,1.44-.12,2.87-.2,4.31-.02.31-.05.65-.17.93-.4.9-.49,1.84-.53,2.8-.04.8-.06,1.61-.24,2.38-.19.8-.74,1.44-1.52,1.73-.74.27-1.57.3-2.29.68-.43.23-.92.27-1.4.3-.48.03-.96.03-1.44.03-2.88-.03-5.76-.07-8.64-.11-.65,0-1.26-.12-1.88-.32-.45-.14-.93-.26-1.4-.28-1.12-.06-2.24-.06-3.36-.07-1.2-.02-2.14-.58-2.91-1.45-.21-.24-.38-.51-.55-.78-.18-.28-.23-.59-.16-.92.17-.79.65-1.45.97-2.17.06-.14.2-.27.33-.34.99-.51,1.95-1.13,3.12-1.13,1.17,0,2.15-.56,3.15-1.04.44-.21.77-.54.96-1.01.18-.44.42-.87.58-1.32.28-.79.19-1.57-.17-2.32-.36-.74-.92-1.32-1.63-1.71-.84-.46-1.71-.85-2.57-1.27-.72-.35-1.44-.7-2.16-1.03-.67-.31-.86-.89-.9-1.55-.02-.48,0-.96.01-1.44.09-2.4.17-4.79.28-7.19.01-.31.07-.64.19-.93.37-.91.44-1.85.46-2.82.05-1.76.15-3.51.22-5.27.03-.64.13-1.27.38-1.87.18-.45.28-.91.29-1.4.03-2.08.08-4.16.08-6.23.01-3.68,0-7.36-.01-11.04,0-1.28-.04-2.55-.54-3.77-.17-.43-.18-.94-.22-1.41-.1-1.12-.17-2.23-.26-3.35-.04-.48-.16-.93-.36-1.38-.32-.73-.56-1.5-.89-2.22-.27-.6-.34-1.22-.38-1.86-.04-.65-.21-1.25-.53-1.82-.31-.56-.55-1.15-.85-1.72-.3-.57-.51-1.16-.61-1.8-.14-.96-.91-1.7-1-2.67-.09-1-.71-1.77-1.12-2.63-.42-.87-.85-1.7-.96-2.68-.03-.3-.19-.62-.38-.86-.98-1.28-1.72-2.68-2.39-4.13-.67-1.45-1.4-2.86-2.12-4.29-.14-.28-.44-.38-.81-.33-.01-.32,0-.64-.05-.95-.06-.41-.25-.61-.46-.49-.1.06-.15.26-.17.41-.05.34.05.64.31.82.12.09.3.09.46.13Zm-31.78-17.27c.05,4.58.1,7.93.11,11.28,0,.99.28,1.88.7,2.75.14.28.21.6.33.9.19.45.53.79.88,1.12.4.38,1.36.36,1.75-.06.32-.35.7-.69.88-1.12.56-1.31,1.27-2.58,1.22-4.08-.02-.63.05-1.28.31-1.88.32-.74.53-1.5.56-2.31.05-1.12.17-2.22.67-3.26.13-.28.16-.62.18-.93.07-1.11.13-2.23.15-3.35.06-2.87.09-5.74.12-8.61,0-.81.16-1.58.48-2.32.12-.29.2-.61.22-.92.18-2.71.3-5.41.19-8.12,0-.16-.01-.33-.08-.47-.06-.14-.19-.26-.3-.37-.22-.21-.53-.34-.86-.22-.59.22-1.13.62-1.73.74-.77.15-1.58.1-2.38.14-.16,0-.32.05-.47.06-.4.04-.84.48-.92.95-.18,1.09-.2,2.21-.69,3.26-.19.42-.22.93-.26,1.4-.08.95-.13,1.91-.17,2.87-.03.8-.19,1.58-.47,2.33-.11.29-.19.62-.19.93-.1,3.51-.18,7.02-.23,9.29Zm-20.53-25.99c-.74.6-1.58,1.05-2.55,1.21-1.3.6-2.6,1.19-3.89,1.82-.44.21-.69.6-.79,1.11-.15.78-.08,1.6-.38,2.35-.3.75-.44,1.52-.47,2.33-.07,2.07-.23,4.14-.25,6.21-.04,6.86.04,13.71.08,20.57,0,.8.06,1.59.11,2.39.03.48.21.93.46,1.34.42.68.88,1.33,1.55,1.8.13.09.27.17.42.23.26.12,1.13-.34,1.18-.63.18-.93.31-1.89.58-2.79.23-.77.45-1.52.45-2.33,0-.96.02-1.91.04-2.87.05-2.23.11-4.46.16-6.69.02-.64.09-1.27.34-1.87.25-.6.36-1.22.39-1.86.05-1.11.09-2.23.18-3.34.04-.47.18-.93.31-1.39.13-.46.36-.88.39-1.37.06-1.11.21-2.23.23-3.34.03-1.15.57-2.15.81-3.23.1-.46.13-.95.15-1.42.04-.96.16-1.89.56-2.79.19-.42.28-.92.29-1.39.04-1.29.42-2.5.83-3.7.05-.14.02-.32-.03-.46-.14-.4-.39-.42-.73-.12-.12.1-.27.17-.42.25Zm36.4-66.07c.45,1.46.93,2.97,1.81,4.31.22.33,1.01.4,1.23.08,1.28-1.81,2.38-3.74,3.67-5.54.54-1.14,1.32-2.18,1.52-3.46.12-.8.63-1.46.8-2.23.18-.78.35-1.54.72-2.26.32-.62.1-1.21-.16-1.81-.39-.89-.37-1.4-.04-2.29.17-.44.43-.86.35-1.36-.02-.14-.11-.31-.22-.39-.06-.05-.26.01-.35.08-.24.2-.51.4-.67.66-.58.95-1.18,1.87-2.02,2.63-.59.53-1.11,1.14-1.65,1.71-1.05,1.12-1.04,1.12-2.1,3.13-.44.84-.86,1.7-1.52,2.41-.54.59-.83,1.35-1.22,2.03-.42.74-.59,1.46-.16,2.29Zm-50.29.6c-.1-1.63-.51-3.05-1.29-4.01-.61-.73-1.32-1.37-1.99-2.05-1.64-.98-3.15-2.16-4.83-3.07-.54-.29-1.2-.14-1.68.47-.28.36-.67.7-.33,1.26.16.27.25.59.32.9.15.63.17,1.26-.17,1.85-.08.14-.14.29-.23.42-.39.62-.26,1.19.16,1.74.43.55.88.64,1.11.2.15-.28.28-.57.42-.86.22-.43.56-.76.91-1.09.4-.38,1.49-.08,1.55.47.17,1.43.99,2.69,1.09,4.14.04.48.34.88.7,1.21.36.32.71.64,1.08.94.5.42.85.45,1.22.09.56-.56,1.11-1.14,1.66-1.71.22-.24.31-.55.31-.88Z"/><path class="cls-1" d="m164.4,281.9c.05-3.04.12-6.08.16-9.11.02-1.76,0-3.52.01-5.28,0-.48.06-.95.1-1.43.8-1.67.49-3.46.51-5.2.04-3.04.03-6.08.12-9.11.08-2.88.02-5.76.04-8.63,0-.8.06-1.59.08-2.39.02-.54.35-.86.77-1.11.67-.39,1.79.17,1.86.9.01.16.08.31.08.47.05,1.28.1,2.56.12,3.83.09,4.64-.15,9.27-.3,13.91-.02.46-.38.92-.37,1.37,0,.46.27.91.4,1.37.04.15.05.32.05.48,0,1.44.01,2.88-.04,4.32-.02.47-.32.92-.32,1.39,0,.45.21.91.32,1.36.04.15.04.32.04.48-.01,1.12-.02,2.24-.06,3.36-.01.31-.04.66-.18.93-.48.95-.23,1.84.09,2.77.21.6.18,1.27-.05,1.88-.28.75-.44,1.51-.44,2.33-.02,6.24-.07,12.47-.13,18.71,0,.67-.3,1.2-1.01,1.45-.6.22-1.16.54-1.74.8-.73.33-1.46.64-2.19.96-1.15.08-2.03.94-3.15,1.1-.98.14-1.75.76-2.65,1.1-.48.18-.74.63-.72,1.12.02.48-.01.97.09,1.43.17.78.45,1.53.64,2.3.18.77.14,1.61.49,2.34.43.89.54,1.83.58,2.79.04.96.11,1.92.15,2.87.02.48.15.94.33,1.39.25.6.33,1.23.35,1.87.07,3.52.15,7.03.22,10.55.02,1.12-.07,2.25.49,3.28-.04.46-.08.93-.12,1.39.41.9.47,1.86.47,2.82,0,3.36,0,6.72-.02,10.07,0,2.08-.06,4.16-.05,6.24,0,.97-.07,1.91-.56,2.78-.15.27-.21.61-.22.92-.03.64.02,1.28,0,1.92-.05,1.44-.13,2.87-.18,4.31-.03.81-.22,1.57-.55,2.31-.26.6-.24,1.25-.31,1.88-.05.47-.14.95-.3,1.39-.12.32-.26.6-.15.89.23.6.37,1.22.39,1.87.01.5.27.91.52,1.31.25.41.44.85.45,1.34.03,1.76.05,3.52.07,5.28.01.82-.16,1.59-.6,2.28-.18.28-.25.57-.26.91-.04,1.6-.1,3.2-.16,4.79-.02.65-.17,1.26-.43,1.86-.2.46-.2.92-.06,1.39.09.3.12.62.18.92-.49,1.21-.38,2.52-.57,3.78-.07.48-.19.94-.41,1.37-.58,1.14-1.14,2.28-1.81,3.37-.34.55-.79,1.01-1.35,1.33-.55.32-1.12.62-1.69.9-.28.14-.61.2-.89.35-1.14.59-2.04,1.53-3.2,2.1-1,.49-2.01.98-2.86,1.73-.36.32-.78.6-1.26.66-1.29.14-2.3,1.14-3.63,1.17-1.07.34-2.06.85-3.08,1.3-.59.27-1.19.47-1.84.46-1.44-.02-2.88.11-4.31.19-.32.02-.67,0-.94.14-.8.4-1.53.23-2.27-.15-.42-.22-.89-.37-1.27-.65-.52-.39-.82-.92-.86-1.62-.11-1.88.7-3.42,1.77-4.84.87-1.15,1.88-2.17,3.24-2.79.42-.19.79-.55,1.11-.9.2-.22.4-.55.4-.84.06-3.52.08-7.04.11-10.55.04-3.52.08-7.04.12-10.55,0-.82.26-1.55.63-2.28,1.28-2.49,3.09-4.43,5.64-5.64.31-.15.46-.46.48-.78.11-1.43.14-2.88.07-4.31-.09-1.6-.04-3.2-.03-4.8.03-3.84.01-7.68-.1-11.51-.06-2.08-.06-4.16-.09-6.24-.02-1.12-.07-2.22-.53-3.29-.18-.42-.18-.94-.2-1.41-.1-2.56-.19-5.11-.25-7.67-.02-.81-.14-1.59-.47-2.33-.2-.45-.25-.93-.29-1.4-.17-2.23-.22-4.47-.22-6.71,0-.81-.13-1.59-.42-2.34-.11-.29-.18-.62-.2-.93-.09-1.12-.16-2.23-.24-3.35-.04-.48,0-1-.18-1.42-.52-1.2-.6-2.48-.85-3.73-.13-.66-.56-1.13-1.14-1.45-.14-.08-.29-.19-.44-.19-3.19-.07-6.39-.22-9.59-.12-.16,0-.36-.01-.47.07-.23.19-.49.42-.61.69-.12.28-.12.63-.12.94.03,1.76.12,3.52.11,5.28,0,.97.08,1.91.45,2.81.06.15.12.3.13.46.09,1.76.12,3.52-.06,5.27-.07.63-.45,1.2-.47,1.85-.04,1.6-.1,3.19-.14,4.79-.07,2.88-.13,5.76-.21,8.63-.01.48-.04.96-.24,1.41-.32.74-.44,1.53-.47,2.33-.07,1.6-.17,3.19-.24,4.79-.03.65-.17,1.25-.4,1.86-.17.44-.29.92-.33,1.39-.11,1.27-.16,2.55-.25,3.83-.02.32-.04.66-.17.93-.6,1.18-.57,2.48-.74,3.74-.06.47-.15.95-.33,1.39-.31.75-.46,1.53-.54,2.32-.07.64-.23,1.26-.53,1.83-.52,1-.42,2.21-1.07,3.16-.28.93-.92,1.67-1.29,2.56-.25.59-.61,1.13-.8,1.74-.25.77-.22,1.58.08,2.35.12.3.29.57.46.84.18.28.27.57.29.9.08,1.28-.09,2.55-.21,3.83-.03.31-.16.62-.27.91-.24.6-.39,1.21-.42,1.86-.05,1.12-.18,2.23-.7,3.25-.14.28-.19.61-.24.92-.21,1.25-.08,2.55-.69,3.75-.51.99-.42,2.2-1.05,3.17-.22,1.27-.85,2.4-1.17,3.64-.16.63-.34,1.22-.83,1.68-.94.88-1.75,1.85-2.27,3.06-.18.43-.54.8-.86,1.14-.77.81-1.56,1.61-2.36,2.39-.46.45-1,.75-1.59,1.03-2.02.96-4,1.98-6,2.98-.87.43-1.72.84-2.68.98-1.01.54-2.09.76-3.23.78-.97.02-1.9.25-2.78.64-.14.06-.31.11-.46.12-1.44.04-2.87.09-4.31.1-.31,0-.63-.1-.93-.2-.61-.2-1.23-.37-1.8-.66-.89-.45-1.52-1.15-1.66-2.19-.15-1.12-.02-2.23.17-3.34.05-.3.2-.61.36-.87.51-.82,1.14-1.55,1.88-2.16.49-.4,1-.83,1.65-.93,1.14-.17,2.09-.79,3.12-1.21.17-.26.44-.52.48-.8.13-1.11.23-2.23.26-3.34.03-.96.1-1.9.44-2.82.16-.44.17-.94.21-1.41.1-1.28.16-2.55.26-3.83.03-.31.13-.63.25-.92.26-.59.47-1.18.51-1.83.05-.8.1-1.6.17-2.39.03-.32.01-.67.14-.94.61-1.35.65-2.79.8-4.22-.23-1.37.46-2.48,1.03-3.62.21-.42.52-.81.86-1.14.7-.66,1.42-1.29,2.18-1.88.63-.49,1.41-.72,2.15-1.02.46.09.9.32,1.39.3.34-.01.64-.14.73-.49.11-.46.17-.94.18-1.41.07-3.68.12-7.35.18-11.03.01-.64,0-1.28.25-1.89.58-1.36.65-2.8.67-4.23.03-2.08-.02-4.16-.02-6.24,0-.8.09-1.6.39-2.35.13-.32.11-.6-.02-.92-.12-.29-.2-.62-.21-.93-.04-1.6-.06-3.2-.06-4.8,0-.47.02-.98.18-1.42.39-1.07.51-2.16.52-3.29.04-3.36.11-6.72.19-10.07.01-.64.12-1.27.19-1.9.75-1.5.61-3.12.64-4.71.04-2.08,0-4.16.02-6.24,0-.89.54-1.46,1.25-1.89.27-.17.59-.21.91-.08.27.11.5.39.5.72.04,2.24.04,4.48.07,6.71,0,.81-.11,1.6-.43,2.34-.2.46-.19.94-.21,1.41-.12,3.04-.23,6.07-.35,9.11-.02.48-.01.96-.21,1.41-.32.75-.44,1.53-.44,2.34-.04,4-.08,8-.14,11.99-.04,2.4-.1,4.8-.16,7.19-.01.48-.04.96-.23,1.41-.32.74-.48,1.51-.51,2.32-.04,1.28-.1,2.56-.18,3.83-.03.48-.05.98-.22,1.41-.41,1.07-.48,2.18-.5,3.3-.05,2.4-.1,4.8-.14,7.2-.02.97-.11,1.92-.54,2.8-.07.14-.15.29-.16.45-.11,1.27-.32,2.54-.23,3.82.03.47.42.77.92.63.46-.13.91-.28,1.4-.31,1.16-.05,2.17-.49,3.05-1.23.49-.41,1.09-.64,1.66-.94,1.84-.97,3.78-1.71,5.56-2.78.27-.16.57-.35.72-.6.82-1.37,1.54-2.8,1.98-4.34.22-.77.39-1.54.73-2.27.27-.59.26-1.25.32-1.88.09-.96.19-1.91.62-2.79.29-.58.3-1.24.38-1.87.06-.47.06-.96.27-1.4.36-.73.52-1.5.56-2.31.07-1.44.18-2.87.26-4.31.03-.49.2-.94.39-1.37.26-.6.37-1.21.38-1.86.03-1.6.07-3.2.13-4.79.02-.64.15-1.26.42-1.86.19-.44.3-.9.31-1.39.08-3.2.28-6.39.2-9.59-.02-.96-.04-1.93.19-2.86.15-.62.3-1.18.1-1.84-.37-1.25-.31-2.52.16-3.76.06-.15.12-.3.14-.45.02-.16.05-.34,0-.48-.62-1.69-.56-3.45-.58-5.21-.02-2.08-.05-4.16-.33-6.22-.2-.24-.35-.57-.6-.69-.73-.36-1.61-.16-2.33-.46-1.36-.58-2.78-.7-4.22-.76-.96-.04-1.92-.05-2.88-.1-.31-.02-.64-.06-.94-.17-1.38-.51-2.81-.57-4.25-.51-.98.04-1.9-.15-2.79-.56-.43-.2-.9-.32-1.37-.41-.63-.12-1.26-.18-1.89-.26-1.1-.7-2.42-.78-3.59-1.31-1.15-.53-2.27-1.16-3.53-1.46-1.08-.25-2.05-.9-3.19-1-1.28-.7-2.68-.97-4.12-1.14-.41-.05-1.22-.95-1.27-1.35-.02-.16-.07-.31-.08-.47-.03-1.76-.07-3.52-.09-5.27,0-.81.15-1.58.46-2.34.18-.44.27-.92.32-1.39.1-1.11.16-2.23.23-3.35.04-.64.11-1.28.35-1.88.24-.6.34-1.23.39-1.87.07-.96.12-1.92.19-2.87.04-.48.03-.99.2-1.41.56-1.37.57-2.81.62-4.24.06-1.76.11-3.52.19-5.27.02-.47.11-.96.26-1.4.2-.61.39-1.21.42-1.86.11-3.04.22-6.07.34-9.11.02-.48.02-.96.21-1.41.32-.74.42-1.53.43-2.34.03-1.92.07-3.84.15-5.75.02-.47.11-.96.28-1.4.29-.75.48-1.51.54-2.31.16-2.08.19-4.15.22-6.23,0-.63.13-1.27.19-1.9.73-1.32.49-2.82.74-4.22.13-.73.49-1.03,1.33-1.05.16,0,.32.05.47.1.58.17.83.48.86.98.05.8.03,1.6-.26,2.36-.29.75-.49,1.51-.51,2.32-.07,2.08-.17,4.15-.22,6.23-.02.97-.13,1.9-.48,2.81-.17.43-.21.93-.24,1.41-.12,1.75-.21,3.51-.29,5.27-.03.65-.15,1.27-.39,1.86-.18.46-.23.93-.25,1.41-.07,1.44-.1,2.88-.18,4.31-.03.64-.12,1.27-.18,1.91-.72,1.51-.5,3.14-.58,4.72-.11,2.24-.15,4.48-.24,6.71-.02.48-.04.96-.23,1.41-.32.74-.45,1.52-.49,2.32-.08,1.76-.22,3.51-.32,5.27-.03.49-.16.94-.34,1.39-.25.6-.36,1.22-.39,1.86-.04.8-.05,1.6-.14,2.39-.05.47-.18.94-.36,1.38-.24.6-.41,1.2-.45,1.85-.07.96-.12,1.92-.24,2.87-.06.47-.22.93-.39,1.37-.18.47-.2.92-.02,1.38.18.45.36.89.51,1.34.22.65.69,1.08,1.25,1.4,1.1.63,2.16,1.38,3.48,1.54.31.04.61.19.9.32.88.38,1.75.79,2.63,1.16.88.37,1.83.52,2.69.98.99.52,2.16.53,3.18,1.01.41.2.93.19,1.41.24.8.07,1.6.11,2.39.18.31.03.65.06.93.19,1.2.56,2.48.56,3.76.62,1.12.05,2.24.03,3.36.08.48.02,1,0,1.41.2,1.2.54,2.46.68,3.74.73,1.13.05,2.22.22,3.26.69.64.06,1.27.08,1.89-.17.44-.19.89-.27,1.36-.02.27.15.6.26.91.26,4.48.11,8.95.26,13.43.04.64-.03,1.27-.1,1.87-.36.6-.26,1.23-.34,1.87-.38,1.44-.09,2.87-.19,4.31-.28.48-.03.95-.11,1.4-.3.59-.25,1.21-.39,1.86-.43.64-.04,1.28-.08,1.92-.11.81-.04,1.57-.24,2.31-.55.43-.18.92-.26,1.39-.33.79-.11,1.55-.3,2.31-.58,1.34-.49,2.71-.94,4.07-1.36.62-.19,1.21-.39,1.74-.76.66-.45,1.35-.85,2.01-1.31.4-.28.67-.67.71-1.18.01-.16.06-.31.07-.47.03-5.12.05-10.23.07-15.35-.03,0-.05,0-.08,0Zm-8.57,53.49s-.04,0-.06,0c-.05-4.15-.1-8.3-.13-12.45,0-1.13-.09-2.22-.58-3.26-.13-.28-.18-.61-.21-.93-.06-.63-.12-1.27-.12-1.91,0-.97-.12-1.9-.53-2.79-.13-.28-.19-.61-.23-.92-.1-.95-.16-1.91-.25-2.86-.03-.32-.03-.65-.15-.94-.35-.89-.74-1.76-1.13-2.63-.17-.39-1.25-.87-1.66-.73-1.06.36-2.12.64-3.25.66-.96.02-1.91.08-2.87.18-.47.05-.94.16-1.39.32-.61.23-1.22.34-1.86.4-.95.08-1.9.18-2.86.28-.43.04-.84.52-.89.97-.05.48-.05.95.15,1.4.32.74.52,1.5.56,2.31.05,1.12.21,2.22.69,3.25.21.44.19.94.2,1.41.06,2.55.12,5.11.17,7.66.02.81.17,1.58.51,2.32.21.45.24.93.26,1.4.11,2.39.21,4.78.29,7.18.02.65.18,1.25.41,1.85.12.29.19.61.22.92.06.8.1,1.59.11,2.39.08,4.15.14,8.3.21,12.45,0,.49.13.94.3,1.39.48,1.24.42,2.49.06,3.75-.09.31-.25.6-.27.91-.12,1.59-.22,3.19-.05,4.78.03.31.15.62.24.92.09.31.26.6.28.91.13,1.75.14,3.51,0,5.26-.02.31-.19.61-.28.91-.09.3-.21.61-.22.92-.06,1.91-.08,3.82-.12,5.74,0,.35.75.75,1.11.62,1.65-.59,3.17-1.47,4.87-1.95.75-.21,1.48-.62,2.14-1.06,1.07-.7,2.15-1.36,3.24-2.03.4-.25.71-.63.91-1.08.06-.14.12-.3.14-.45.13-.96.58-1.83.77-2.76.22-1.09.22-2.22.35-3.33.05-.47.15-.95.31-1.39.21-.61.39-1.21.4-1.86.07-3.03.13-6.06.21-9.1.03-1.27-.06-2.56.39-3.79.05-.14.08-.32.03-.45-.43-1.07-.32-2.2-.34-3.31-.04-3.83-.07-7.66-.1-11.49Zm-58.26,37.75c.2-.43.24-.7-.05-.87-.26-.16-.59-.15-.87.01-.83.48-1.45,1.2-2.14,1.84-.83.78-1.3,1.76-1.67,2.8-.19.54.14.89.47,1.2.22.21.5.41.79.47.78.17,1.57.12,2.32-.16.29-.11.5-.43.54-.72.12-1.09.19-2.19.31-3.28.05-.46.14-.94.3-1.3Zm41.08,4.6c-.03-.7,0-1.33-.09-1.95-.04-.27-.3-.52-.45-.77-.14.06-.3.11-.43.19-.8.53-1.36,1.27-1.85,2.07-.36.59-.28,1.63.19,2.2.2.24.43.45.66.66.39.34.86.31,1.3.13.31-.12.45-.43.49-.75.07-.62.14-1.24.19-1.78Z"/><path class="cls-1" d="m102.83,181.48c.13-3.83-.1-8.3.18-12.76.03-.53.32-.88.74-1.14.27-.17.57-.28.85-.43.58-.3,1.19-.47,1.83-.48,3.35-.07,6.7-.19,10.05-.05,4.15.16,8.3-.01,12.44-.09.48,0,.96-.03,1.43-.05.99-.05,1.89.2,2.72.74.27.17.6.27.82.48.22.2.43.48.51.77.12.46.16.95.15,1.42-.02,3.35-.08,6.7-.08,10.05,0,.98-.29,1.87-.59,2.77-.11.32-.03.63.13.93.16.3.22.61.13.9-.09.3-.27.58-.35.89-.32,1.22-.22,2.54-.75,3.72.43.82-.05,1.51-.27,2.26-.13.45-.13.95-.13,1.43-.01,1.12.01,2.23,0,3.35,0,.63-.71,1.63-1.29,1.89-.14.06-.28.16-.43.18-1.41.22-2.88-.09-4.26.49-.13.05-.32.04-.45-.02-1.22-.57-2.52-.25-3.78-.37-1.28-.12-2.55-.1-3.83-.09-3.19,0-6.38.02-9.57,0-.96,0-1.91-.1-2.87-.15-.5-.03-.92-.25-1.32-.51-.39-.27-.77-.57-1.13-.88-.37-.32-.67-.76-.68-1.22-.08-3.35-.33-6.69-.23-10.05.03-1.12,0-2.23,0-3.98Zm15.33,14.7s0,.04,0,.06c3.03.03,6.05.07,9.08.09.47,0,.95-.07,1.42-.1.4-.02.95-.52.98-.89.04-.48.11-.95.13-1.43.07-1.75.13-3.5.19-5.25.02-.64.09-1.27.33-1.87.31-.75.44-1.53.45-2.33.03-1.11.01-2.23.06-3.34.06-1.43.16-2.86.24-4.29.33-.76.35-1.53,0-2.29-.22-1.42-.1-2.86-.18-4.29-.02-.31-.06-.66-.2-.93-.14-.26-.42-.44-.64-.66-1.59-.12-3.18-.07-4.78-.02-.31,0-.63.09-.92.21-1.39.55-2.78.56-4.2.12-.45-.14-.92-.29-1.39-.3-3.03-.1-6.05-.12-9.08-.04-.98.03-1.88.27-2.76.64-.73.3-1.05.7-1.05,1.39,0,4.94,0,9.88-.1,14.81-.06,3.02.15,6.05.25,9.08.02.53,1.09,1.56,1.64,1.58.95.03,1.91.06,2.86.06,2.55,0,5.1,0,7.65,0Z"/><path class="cls-1" d="m70.32,209.67c-.07,1.18-.22,2.11-.58,3.02-.35.88-.43,1.87-.8,2.74-.39.91-.47,1.85-.64,2.78-.06.31-.13.63-.26.92-.34.73-.54,1.49-.62,2.29-.05.47-.12.97-.3,1.39-.38.89-.6,1.81-.71,2.77-.06.47-.19.94-.37,1.38-.25.59-.46,1.19-.5,1.83-.07.97-.33,1.88-.79,2.74-.25,1.79-1.12,3.29-2.19,4.71-.38.51-.7,1.07-1.06,1.59-.36.53-.8,1-1.32,1.38-.64.47-1.32.9-1.93,1.41-.62.53-1.35.83-2.06,1.19-1.38.7-2.76.66-4.13-.01-.62-.3-1.2-.27-1.82.04-.71.35-1.46.64-2.18.99-.59.29-1.2.43-1.84.42-.8,0-1.6,0-2.39-.02-.67-.01-1.22-.33-1.71-.75-.24-.21-.47-.43-.68-.67-.54-.63-.79-1.36-.74-2.2.03-.5.27-.87.77-1.05.61-.23,1.35-.07,1.76.37.54.59,1,1.25,1.66,1.72.38.27.79.55,1.3.35.6-.24,1.2-.44,1.83-.53.16-.02.32-.04.47-.1,1.31-.5,1.96-1.23,1.84-2.45-.07-.77.21-1.02,1.08-1.17.31-.05.63-.09.94-.18.14-.04.29-.17.36-.3.52-.92,1.12-2.33,1.22-3.07.14-.95.42-1.85.75-2.76.32-.88.4-1.86.6-2.79.08-.38.34-.5.71-.49.53.01.79.31.83.9.03.49-.02.96-.22,1.4-.39.88-.67,1.79-.73,2.76-.04.65-.29,1.24-.56,1.82-.13.29-.27.59-.29.9-.1,1.28-.45,2.5-.87,3.71-.1.29-.04.63-.03.95.02.41.69.84,1.06.68.59-.25,1.17-.5,1.75-.74.45-.19.84-.46,1.18-.8.33-.35.65-.71.98-1.05,1.37-1.39,2.27-3.05,2.98-4.86.23-.6.46-1.18.54-1.82.08-.63.1-1.29.43-1.85.58-.99.49-2.18,1.02-3.18.47-.88.39-1.86.59-2.79.07-.31.15-.63.29-.91.37-.73.48-1.51.55-2.31.09-.96.18-1.91.64-2.78.23-.44.23-.92.3-1.4.06-.47.12-.95.18-1.43.79-1.45.7-3.09,1.03-4.65.13-.62.49-1.16.95-1.63.27-.28.51-.35.86-.19.28.12.58.27.67.61.12.45.16.93.2,1.18Z"/><path class="cls-1" d="m147.01,69.15c0-.21,0-1.17,0-2.13,0-.34.11-.63.34-.86.58-.6.86-1.29.82-2.15-.08-1.43-.36-2.85-.07-4.28.08-.42.35-.5.68-.34.28.15.54.33.66.65.16.45.32.9.41,1.36.17.94.3,1.89.78,2.75.24.43.26.92.29,1.4.06,1-.07,1.89-1.18,2.36-.43.19-.64.68-.69,1.18-.02.16-.04.32-.04.47,0,1.12.06,2.23.57,3.27.14.28.18.61.22.92.06.47.08.95.11,1.43.06,1.11-.03,2.26.31,3.33.29.91.73,1.77,1.14,2.63.28.59.44,1.2.49,1.84.06.8.36,1.55.56,2.32.12.47-.24.89-.58,1.23-.25.25-.56.27-.89.22-.33-.05-.63-.18-.74-.51-.21-.6-.31-1.24-.56-1.82-.39-.9-.53-1.83-.64-2.79-.07-.63-.19-1.26-.29-1.89-.61-1.17-.65-2.46-.81-3.72-.04-.32,0-.66-.11-.95-.7-1.67-.65-3.44-.78-5.93Z"/><path class="cls-1" d="m136.51,46.79c.33-.03.64.04.87.29.33.35.7.68.91,1.09.64,1.28,1.22,2.6,1.81,3.9.2,1.1.64,2.13,1.03,3.17.17.47.1.96-.11,1.4-.28.6-.47,1.17-.09,1.79.08.14.16.29.18.44.11,1.17.66,2.11,1.42,2.97.57.64.62,1.44.64,2.24.03.93-.51,1.43-1.28,1.8-.31.15-.35.5-.35.83.01.5.29.9.46,1.34.22.6.41,1.2.74,1.76.6,1,.67,2.11.59,3.24-.02.34-.09.65-.38.84-.21.14-.45,0-.64-.36-.96-1.84-1.81-3.71-2.34-5.73-.46-.88-.49-1.84-.49-2.8,0-.62.04-.76.68-1.13.28-.16.6-.26.76-.53.06-.1-.06-.3-.12-.45-.23-.59-.43-1.21-.73-1.77-.39-.72-.65-1.45-.69-2.26-.04-.96-.11-1.91-.12-2.87,0-.65-.06-1.27-.36-1.85-.37-.7-.62-1.46-1.01-2.16-.78-1.38-1.45-2.83-2.09-4.28-.22-.49.1-.92.7-.92Z"/><path class="cls-1" d="m116.46,83.53c.08,1.08-.28,2.1-.83,3.1-.39.7-.73,1.41-1.32,1.96-.23.22-.49.41-.74.59-.54.39-1.28.44-1.78.09-.52-.36-1.04-.73-1.55-1.1-.57-.41-1.18-.4-1.8-.19-.3.1-.58.25-.86.41-.45.26-.93.26-1.37.08-.58-.24-1.13-.56-1.69-.88-.13-.07-.25-.22-.3-.36-.37-1.04-.78-2.07-1.04-3.14-.19-.78-.02-1.58.51-2.25.2-.26.47-.43.77-.41.12,0,.28.18.33.32.5,1.17.95,2.35.97,3.65,0,.3.16.6.27.9.14.35.4.45.77.43.32-.01.63-.07.8-.39.5-.98,1.06-1.95,1.11-3.11.03-.64.29-.84.84-.96.48-.1.87.06,1.22.54.18.25.39.52.47.82.16.61.21,1.25.35,1.86.07.3.19.59.34.86.16.29.46.4.82.33.14-.03.31-.08.4-.18.98-1.12,1.26-2.51,1.49-3.92.09-.52.53-.76.98-.94.3-.11.54.04.68.41.06.15.1.31.11.46.03.31.03.63.05,1.01Z"/><path class="cls-1" d="m144.36,90.1c.75,1.08.7,2.44,1.27,3.59.24.48-.28,1.31-.84,1.4-.14.02-.31-.01-.43-.08-1.02-.57-1.78-1.38-2.01-2.54-.19-.95-.76-1.76-.93-2.7-.14-.79-.4-1.53-.7-2.27-.24-.58-.3-1.24-.5-1.84-.2-.6-.59-1.13-.68-1.78-.04-.31-.06-.64-.03-.95.02-.32.19-.67.47-.73.27-.06.6.09.89.2.13.05.28.19.33.33.29.76.75,1.4,1.27,2.02.31.37.57.78.66,1.25.26,1.42,1.07,2.66,1.24,4.1Z"/><path class="cls-1" d="m131.34,52.33c-.68-.08-1.24-.28-1.5-.98-.22-.59-.62-1.13-.76-1.74-.28-1.26-.85-2.38-1.43-3.51-.79-1.55-1.62-3.08-2.43-4.62-.15-.29-.15-.6-.04-.9.13-.37.66-.3,1.18.14.12.1.26.18.38.29,1.28,1.2,2.41,2.51,3.18,4.11.82,1.71,1.69,3.4,2.51,5.11.13.27.08.62.1.93.04.57-.63,1.18-1.21,1.17Z"/><path class="cls-1" d="m110.04,71.94c1,.44,2.1.59,3.12.96.14.05.26.16.39.25.47.32.63.71.45,1.16-.17.44-.42.87-.48,1.32-.13,1.1-.85,1.61-1.76,2.01-.57.25-1.24.14-1.69-.33-.11-.11-.22-.22-.32-.34-.41-.49-.75-1.01-.93-1.62-.18-.6-.34-1.21-.53-1.8-.19-.59-.1-.83.43-1.09.28-.14.57-.27.86-.39.14-.06.3-.08.45-.12Z"/><path class="cls-1" d="m105.92,62.44c-.07.51-.09.99-.2,1.44-.21.8-.77,1.33-1.48,1.71-.26.14-1.09-.03-1.33-.26-.46-.44-.8-.95-.91-1.59-.13-.78-.16-1.55-.09-2.33.08-.82.42-1.48,1.12-1.95.42-.28.91-.32,1.33-.13.74.34,1.24.95,1.41,1.76.1.45.11.93.15,1.35Z"/><path class="cls-1" d="m119.38,61.47c.01-.48.13-1.07.59-1.56.46-.49.74-.6,1.19-.39,1.84.84,1.56.68,2.4,2.6.06.13.09.31.05.43-.19.59-.36,1.2-.63,1.75-.12.24-.45.43-.72.53-.76.27-1.6-.02-2.09-.6-.64-.76-.85-1.64-.79-2.76Z"/><path class="cls-1" d="m167.45,225.33c.13.09.29.14.36.25.4.57.34,1.2.09,1.78-.21.47-.72.57-1.19.62-.43.05-1.16-.27-1.22-.56-.1-.48,0-.95.32-1.32.32-.35.71-.62,1.17-.76.15-.04.31,0,.46,0Z"/></g></g></svg>