<?xml version="1.0" encoding="UTF-8"?><svg id="Lavender_Crowd" xmlns="http://www.w3.org/2000/svg" viewBox="0 0 250 430"><defs><style>.cls-1,.cls-2,.cls-3{stroke-width:0px;}.cls-2{fill:#9d5fdb;}.cls-3{fill:#fff;}</style></defs><g id="CIB24_Lavender_Main-Koons"><path class="cls-3" d="m174.32,411.28c-.58,0-1.16-.12-1.73-.36-.36-.15-.8-.31-1.28-.33-1.2-.03-2.27-.58-3.42-1.16l-.64-.32c-.26-.13-.55-.41-.82-.7-.35-.37-.54-.73-.58-1.1-.06-.61-.13-1.23-.16-1.85-.04-.8-.18-1.52-.45-2.19-.2-.49-.18-1.06-.16-1.72v-.25c.01-.33.09-.61.24-.84l.44-.68c.54-.85,1.05-1.65,1.65-2.38.48-.58.86-1.21,1.24-1.81.38-.62.75-1.2,1.19-1.71.32-.37.51-.78.69-1.14l.14-.3c.16-.31.32-.61.48-.92.44-.82.89-1.68,1.26-2.57.11-.26.22-.51.34-.76.34-.72.72-1.53.86-2.46.31-.63.51-1.27.71-1.9.17-.55.33-1.07.56-1.54.27-.56.4-1.11.53-1.65.13-.53.25-1.03.49-1.44.18-.3.41-.78.46-1.32.04-.42.22-.87.41-1.34.22-.54.47-1.15.54-1.84.06-.59.1-1.18.15-1.77.03-.37.06-.74.09-1.11l.02-.26c0-.12.02-.31.04-.37.72-1.67.71-3.37.69-4.86,0-.62-.01-1.21.04-1.75v-1.24c.01-.76.02-1.42,0-2.08-.02-.68-.07-1.35-.13-2.03l-.08-1.05-.08-.17c-.18-.38-.29-.81-.41-1.27-.12-.46-.25-.94-.45-1.42-.44-1.04-.94-2.15-1.69-3.16-.32-.43-.55-.77-.73-1.09-.09-.15-.15-.38-.22-.61-.46-1.57-1.14-2.97-2.03-4.22-.56-.79-.94-1.42-1.05-2.13l-.02-.14s-.29-.63-.4-.88c-.48-1.09-.99-2.21-1.8-3.24-.04-.06-.22-.3-.22-.3-1.17-1.39-2.17-2.84-2.92-3.95l-.39-.58-.68.17c-.53.13-.97.24-1.38.24-.2,0-.33,0-.47,0-1.04,0-1.88.16-2.63.49-.03,0-.18,0-.28,0-.11,0-.22,0-.33,0l-.27.02c-.73.04-1.56.09-2.39.42-.12.05-.39.05-.6.05h-.23c-.46,0-.92.01-1.38.01-.41,0-1.98,0-1.98,0-.39,0-.85,0-1.26-.07-.62-.1-1.26-.32-1.88-.54-.49-.17-1.04-.36-1.68-.39-.74-.03-1.46-.29-2.24-.56l-.24-.08c-.27-.1-.54-.2-.81-.3-1.03-.38-2.09-.78-3.26-.93-.4-.05-.7-.28-1.01-.75-.34-.52-.49-.88-.49-1.23,0-.83-.23-1.56-.44-2.18-.2-.58-.38-1.16-.55-1.75-.19-.63-.38-1.27-.6-1.9-.12-.35-.23-.72-.24-1.08-.02-1.45-.5-2.73-.95-3.82l-.26-.63c-.54-1.29-1.09-2.63-1.54-3.97-.07-.22-.15-.44-.23-.65-.23-.63-.45-1.23-.47-1.82v-.2s-.09-.18-.09-.18c-.23-.5-.26-1.06-.3-1.72-.01-.18-.02-.35-.04-.53-.04-.49-.16-.96-.27-1.35-.37-1.29-.74-2.55-1.32-3.76-.19-.39-.32-.81-.44-1.2-.23-.76-.53-1.47-.82-2.16-.27-.64-.52-1.24-.71-1.87l-.06-.19c-.09-.29-.17-.54-.21-.79-.22-1.64-.63-3.34-1.22-5.05-.36-1.03-.73-2.1-.77-3.18-.02-.51-.14-.98-.25-1.39-.09-.34-.17-.66-.19-.97-.04-.67-.23-1.28-.41-1.86l-.13-.43c-.11-.38-.26-.72-.4-1.05l-.08-.17c-.44-1.01-.74-1.99-.93-2.97-.16-.81-.38-1.6-.6-2.37-.11-.38-.22-.77-.32-1.15-.1-.38-.19-.76-.27-1.14-.18-.79-.36-1.61-.66-2.42-.01-.04-.02-.09-.03-.13-.03-.17-.07-.41-.19-.66-.66-1.32-1.11-2.72-1.59-4.19-.24-.74-.48-1.47-.74-2.2-.39-1.08-.74-2.28-1.08-3.77l-.32-1.36-1.19.74-.09.05c-.59.38-1.11.83-1.61,1.27-.17.15-.8.69-.8.69l-.06.5v.05c-.02.27-.02.55-.03.83-.02.76-.05,1.47-.31,2.09-.13.31-.14.6-.16.82v.16c-.05.32-.06.64-.07.96-.02.6-.03,1.11-.24,1.54l-.09.18-.04.72c-.02.37-.04.74-.08,1.11-.03.28-.04.56-.05.84-.02.56-.04,1.04-.23,1.46-.18.4-.18.79-.19,1.1v.2s-.03.43-.03.43c-.04.84-.08,1.63-.33,2.37-.15.44-.16.88-.17,1.26,0,.26-.01.5-.06.65-.38,1.18-.4,2.33-.42,3.44v.87c-.02.4-.03.8-.04,1.2,0,.11,0,.21,0,.32,0,.1,0,.24,0,.29-.27.61-.33,1.25-.37,1.81-.03.38-.06.75-.16,1.04-.18.53-.29,1.07-.33,1.65-.04.53-.1,1.1-.27,1.64-.2.61-.21,1.24-.22,1.8v.14c-.04,1.92-.06,3.84-.08,5.75,0,.43,0,.85,0,1.27,0,.46,0,.92,0,1.38v.15c0,.14,0,.35-.03.42-.25.62-.3,1.22-.35,1.75l-.03.29c-.04.46-.08.86-.23,1.19-.18.4-.22.81-.25,1.14v.12c-.04.34-.06.69-.07,1.04-.03.73-.05,1.42-.28,2.03-.13.37-.12.71-.12.99,0,.08,0,.16,0,.24,0,.14,0,.28-.01.43,0,.16,0,.39-.03.46-.44,1.13-.43,2.27-.42,3.27,0,.21,0,.42,0,.64,0,.84-.03,1.68-.06,2.52-.05,1.86-.11,3.79,0,5.71.04.71-.02,1.44-.07,1.99-.03.26-.1.55-.18.85-.1.37-.21.79-.25,1.24,0,0,0,0,0,0,0,0-.04.05-.11.14-.42.55-1,.99-1.56,1.4-.76.14-1.3.56-1.74.94-.62.54-1.14.85-1.66.99-.74.2-1.39.53-2.01.84-.18.09-.37.18-.55.27-.23.11-.48.2-.72.28-.55.2-1.16.42-1.71.85-.72.25-1.38.56-2.03.87-.6.28-1.17.55-1.76.76-.44.16-.87.33-1.31.52-.6.25-1.17.49-1.75.65-.37.1-.74.19-1.11.27l-.23.05c-.37.08-.73.2-1.09.31-.18.06-.37.11-.56.17l-.24.07c-.36.1-.71.21-1.07.28-.17.04-.35.04-.52.05l-.91.05-1.28.09.41,1.22c.11,1.93.06,3.88.01,5.76l-.02.91c0,.07-.12.29-.18.42-.38.75-.55,1.5-.56,2.34v2.15c-.02,1.36-.03,2.72-.05,4.07-.03,1.43-.09,2.86-.16,4.28v.21c-.02.33-.03.68-.12.9-.49,1.27-.53,2.52-.57,3.74,0,0-.07,1.85-.1,2.6-.05,1.17-.1,2.35-.13,3.52-.02.75-.09,1.63-.45,2.42-.26.57-.28,1.14-.3,1.6,0,0-.06,1.27-.08,1.81-.04.89-.07,1.78-.13,2.66-.03.43-.1.8-.22,1.11-.33.88-.51,1.74-.55,2.64-.07,1.59-.14,3.18-.23,4.77v.1c-.03.38-.04.71-.15.96-.34.78-.53,1.66-.57,2.69-.05,1.16-.29,2.26-.75,3.37-.22.53-.32,1.06-.41,1.58-.05.29-.1.57-.18.85-.02.08-.18.26-.27.38-.2.24-.37.34-.6.36-.94.09-1.89.17-2.84.23-.66.04-1.33.18-2.11.44-.38.12-.77.2-1.12.2-.55.01-1.1.02-1.65.02h-3.16s0,.04,0,.04h-.04c-.92-.02-1.84-.04-2.76-.07-.15,0-.45-.02-.6-.08-1.32-.54-2.64-.58-3.92-.63h-.19c-2.08-.08-4.16-.13-6.25-.18-.72-.02-1.37-.14-2.01-.38-.37-.14-.79-.23-1.21-.26-.56-.04-1.12-.08-1.69-.11-.55-.03-1.11-.07-1.66-.11l-.32-.02c-.28-.01-.59-.03-.73-.1-1.41-.69-2.83-.76-4.21-.83-.44-.02-.87-.04-1.31-.09-.39-.04-.72-.13-1-.28-.42-.22-.85-.33-1.28-.33-.51,0-1.03.16-1.52.48-.02.01-.07.04-.2.08-.12-.73-.16-1.39.07-1.93.4-.95.6-1.99.61-3.17,0-.21,0-.42,0-.63,0-.86,0-1.67.23-2.4.01-.03.07-.1.1-.12.16-.08.4-.14.66-.21.19-.05.38-.1.57-.16.26-.09.51-.24.75-.45.52-.46,1.13-.83,1.77-1.22.58-.35,1.18-.72,1.75-1.17l.73-.58c1.09-.88,2.22-1.79,3.39-2.55l.76-.49c1.2-.77,2.45-1.58,3.54-2.63,1.69-.97,3.08-2.27,4.42-3.53l.48-.45c.84-.78,1.97-1.79,3.21-2.65.71-.49,1.32-1.08,1.91-1.65.23-.22.46-.45.7-.66.46-.42.82-.91,1.07-1.47.63-1.39,1.28-2.78,1.92-4.16l.75-1.61.02-.15c.14-1.07.7-2.02,1.79-3.11.17-.17.33-.34.49-.51.16-.17.33-.35.5-.52.68-.66,1.03-1.46,1.06-2.38.03-1.15.06-2.3.1-3.45l.07-2.3c.03-1.19.1-2.36.51-3.44.2-.53.23-1.07.25-1.55v-.16c.05-.7.07-1.4.1-2.1l.03-.68v-.09c-.09-.49-.15-.99-.2-1.48-.03-.33-.06-.65-.18-1-.03-.1-.07-.2-.11-.29-.02-.04-.04-.09-.05-.14v-.11s-.07-.61-.07-.61l-.57-.22c-.34-.13-.71-.25-1.15-.29-.21-.02-.41-.02-.61-.03-.46-.01-.85-.02-1.15-.17-.44-.22-.89-.27-1.25-.31-.29-.03-.54-.06-.67-.16l-.18-.13-.22-.04c-1.4-.26-2.73-.72-4.14-1.2-.63-.22-1.26-.43-1.9-.63-.21-.07-.43-.15-.64-.22-.59-.22-1.26-.47-2.02-.5-2.38-.69-5.09-1.68-7.3-3.69-.28-.26-.59-.49-.89-.71-.21-.16-.43-.32-.63-.49-.38-.32-.6-.66-.73-1.09-.23-.78-.32-1.34-.09-1.89.13-.32.2-.69.2-1.1,0-.56.16-1.13.51-1.82.26-.5.39-1.01.41-1.56s.06-1.11.1-1.66l.04-.55c.34-.91.37-1.83.4-2.64.01-.34.02-.68.06-1.02.02-.22.03-.44.04-.67.02-.45.03-.8.18-1.1.21-.41.19-.83.17-1.13,0-.07,0-.15,0-.21l.02-.37c.04-.79.08-1.53.31-2.21.14-.41.15-.81.15-1.16,0-.09.03-.66.03-.66.02-.54.04-1,.22-1.39.16-.37.17-.73.18-1,.02-.58.02-1.09.03-1.6.01-.69.03-1.38.05-2.07,0-.24.01-.48.02-.72.01-.9.03-1.75.3-2.53.18-.5.17-1,.17-1.43v-.31c0-.39,0-.78,0-1.17,0-.41,0-.82,0-1.23,0-.38.04-.75.07-1.13l.03-.32c.38-.92.38-1.84.38-2.66,0-.21,0-.41,0-.62v-.45c.03-.74.05-1.44.29-2.06.16-.42.16-.83.17-1.15,0-.1,0-.21,0-.31.02-.21.03-.42.04-.63.03-.61.06-1.18.25-1.7.17-.45.16-.89.16-1.24,0-.14,0-.28.01-.42l.02-.18c.02-.24.05-.52.12-.66.38-.77.42-1.51.42-2.06v-.48c0-.47,0-.94,0-1.41,0-.23,0-.46,0-.7-.01-.57-.03-1.06.18-1.45l.1-.19.04-.71c.03-.55.06-1.1.09-1.65l.02-.39c.02-.54.05-1,.22-1.4.16-.37.19-.74.21-1.04l.02-.2c.02-.22.04-.44.05-.66.04-.62.08-1.15.28-1.62.16-.37.17-.73.17-1,0-.08,0-.16,0-.24l.06-.54c.06-.57.11-1.12.27-1.62.15-.46.19-.92.23-1.33.03-.36.06-.71.17-.99.23-.65.23-1.33.23-1.93,0-.71.14-1.36.29-2.06.12-.55.24-1.13.29-1.73.35-.69.37-1.39.39-1.97,0-.19.01-.37.03-.56.03-.24.03-.48.03-.73,0-.45.01-.74.14-.95l.13-.2.08-.87c.05-.52.1-1.04.13-1.56v-.12c.03-.46.04-.86.18-1.21.15-.38.16-.76.17-1.07l.03-.61c.04-.84.08-1.64.34-2.38.14-.42.15-.82.16-1.17,0-.21,0-.41.04-.54.45-1.59.49-3.16.51-4.77v-.13c0-.08,0-.16,0-.24.29-.63.33-1.3.37-1.9.01-.23.03-.45.06-.67.02-.13.03-.26.04-.39.02-.22.04-.43.09-.56.33-.82.29-1.6.25-2.29-.07-1.34,0-2.04.35-3.44.08-.31.13-.62.18-.94.06-.39.12-.76.23-1.07.21-.62.23-1.2.24-1.72,0-.15,0-.29.01-.44.04-.64.07-1.12.25-1.53.17-.38.24-.85.22-1.38,0-.27,0-.54.05-.79l.12-.71-.63-.34c-.98-.53-1.69-1.05-2.23-1.63-.93-1-2.05-1.91-3.5-2.87-1.17-.78-2.15-1.72-2.99-2.89l-.32-.45c-.45-.64-.92-1.3-1.46-1.92-.71-.8-1.21-1.72-1.65-2.6-.5-1-.99-2-1.49-3-.46-.93-.92-1.86-1.38-2.79-.14-.29-.21-.51-.22-.73-.02-.48-.16-.88-.28-1.24l-.07-.19c-.1-.29-.08-.6.06-.96.09-.23.17-.46.26-.68.21-.59.42-1.14.68-1.66.55-1.07,1.09-2.15,1.61-3.24.09-.2.19-.39.29-.59.31-.61.63-1.24.84-1.96.09-.3.23-.61.39-.94.22-.46.46-.98.59-1.57.03-.14.12-.32.22-.51l.07-.13c.82-1.67,1.58-3.41,2.28-5.04.05-.12.12-.23.19-.34.25-.42.59-.98.48-1.73-.07-.45-.27-.83-.43-1.13-.07-.13-.14-.25-.19-.39l-.27-.7c-.47-1.21-.92-2.35-.98-3.57v-.15s-.06-.14-.06-.14c-.25-.68-.32-1.44-.38-2.24l-.03-.32c-.03-.33-.12-.6-.2-.85-.03-.08-.05-.16-.08-.25-.1-.38-.19-.75-.28-1.13-.09-.4-.18-.79-.29-1.18-.08-.29-.13-.59-.17-.89-.08-.49-.16-.99-.35-1.51-.02-.05-.02-.23-.02-.35,0-.11-.02-.49-.02-.49-.02-.5-.05-1.11-.33-1.72-.26-1.48-.57-3.06-.97-4.82-.02-.09-.02-.24-.02-.4l-.06-2.45c-.05-1.94-.1-3.87-.1-5.81,0-1.61.05-3.26.09-4.85l.05-1.83c0-.14,0-.32.03-.38.28-.75.31-1.49.33-2.15l.02-.56c.02-.79.03-1.54.32-2.18.12-.27.13-.52.14-.69.03-.31.04-.54.05-.77.02-.44.03-.82.17-1.13.21-.44.27-.88.32-1.26.04-.31.08-.58.19-.78.2-.38.25-.78.29-1.1.02-.17.04-.32.08-.42.16-.44.26-.88.35-1.3.13-.56.25-1.08.48-1.53.26-.5.47-1,.67-1.49.19-.47.38-.92.6-1.34,1.31-2.46,2.4-5.04,3.46-7.54l.49-1.15c.42-.99.81-1.92,1.29-2.83l.16-.3c.35-.66.67-1.28,1.09-1.84.36-.49.64-1,.92-1.49.23-.42.45-.81.71-1.17.42-.61.71-1.26.98-1.9.12-.27.24-.54.36-.8l.18-.37c.46-.95.89-1.84,1.46-2.64l.06-.08c.09-.11.2-.26.3-.46.43-.92.95-1.79,1.5-2.7.56-.94,1.15-1.92,1.63-2.96.37-.8.89-1.54,1.43-2.32l.25-.37c.85-1.23,1.73-2.57,2.39-4.06.6-1.35,1.46-2.56,2.37-3.84l.59-.84c.24-.34.49-.68.75-1.01.28-.37.56-.73.82-1.11l.26-.39c.35-.52.68-1.01,1.07-1.43.25-.27.41-.57.55-.83l.09-.16c.22-.4.48-.63.89-.8,1.09-.45,2.22-.99,3.34-1.62,2.81-1.57,5.76-2.83,8.79-3.76.84-.26,1.67-.54,2.5-.83,1.02-.36,2.08-.72,3.13-1.01l.15-.04.13-.09c.15-.1.42-.13.72-.16.36-.04.77-.08,1.2-.26.52-.22,1.07-.41,1.7-.59.38-.11.79-.17,1.2-.17.2,0,.41.01.62.04l.6.2.44-.43c.8-.79,1.08-1.95.67-2.81-.42-.91-.6-1.61-.55-2.28.07-1.2-.18-2.32-.76-3.32-.07-.12-.11-.27-.12-.48-.02-.29-.05-.59-.07-.88-.03-.34-.06-.67-.08-1.01-.04-.91-.36-1.66-.63-2.21-.09-.17-.14-.36-.14-.5-.08-2.72-.14-5.43-.21-8.15l-.07-2.89-.5-.28c-.15-.08-.22-.14-.26-.17-.05-.61-.1-1.22-.15-1.83-.02-.33,0-.7.04-1.08.07-.77.15-1.65-.21-2.54-.22-.55-.52-1.04-.81-1.52-.22-.36-.43-.7-.58-1.05-.08-.18-.16-.36-.24-.54-.39-.89-.8-1.8-1.56-2.62-.42-.44-.72-1.03-1.04-1.66-.1-.19-.2-.39-.3-.58-.18-.33-.24-.76-.19-1.31.1-1.13.36-1.99.83-2.73l.08-.12c.6.25,1.11.5,1.53.88,1.37,1.25,2.59,2.43,3.75,3.62.59.61,1.22,1.17,1.81,1.69.7.61,1.53.94,2.4.95h.93c.81,0,1.62,0,2.42-.01.8,0,1.61-.01,2.41-.01.75,0,1.35-.28,1.84-.55.14-.08.27-.12.4-.12.15,0,.32.04.51.14.37.17.7.3,1.01.4.31.1.63.15.94.15.46,0,.89-.11,1.25-.32.66-.38,1.39-.56,2.22-.56.15,0,.29,0,.44.02.08,0,.16,0,.24,0,.16,0,.32-.01.49-.02.11,0,.21-.02.32-.02.48,0,.92-.13,1.4-.41.41-.24.77-.44,1.14-.59.65-.26,1.26-.65,1.9-1.23.22-.2.44-.41.65-.62.56-.54,1.09-1.06,1.71-1.4.49-.27.76-.72.95-1.06.41-.7.82-1.14,1.28-1.39.53-.29.98-.64,1.42-.97.28-.21.54-.41.8-.59.02.02.04.04.06.07.39.5.77.99,1.14,1.5.13.18.19.42.2.79.02.54-.07.96-.28,1.3l-.13.21c-.14.22-.3.47-.42.79-.15.42-.21.83-.27,1.19-.06.39-.11.72-.25.98-.2.36-.38.72-.57,1.08-.18.35-.36.7-.55,1.04-.26.48-.37.97-.32,1.49.04.45.07.91.08,1.36,0,.5.12.94.35,1.37.45.84.59,1.81.45,3.16-.11,1.1.05,2.05.48,2.89-.16.39-.26.78-.34,1.15-.17.77-.14,1.43.1,2.01.37.89.79,1.76,1.2,2.6.03.03.03.07,0,.15-.5,1.24-.61,2.51-.67,3.61-.02.34,0,.68.01,1.02,0,.16.02.32.02.49,0,.49-.1.93-.32,1.34-.39.72-.58,1.5-.57,2.33,0,.37.02.75.04,1.12.02.42.03.85.04,1.27,0,.44-.13.88-.38,1.31-.22.37-.44.83-.44,1.4v.19c-.01.32-.03.72.14,1.13.23.57.93,2.32,2.98,2.33.81,0,1.6.18,2.41.54l.1.04.1.02c.46.1.85.14,1.23.14h0c.21,0,.35.02.55.06l.27.06.26-.09c.69-.26,1.17-.83,1.28-1.46.08-.47.12-.99.1-1.63l-.02-.49c-.02-.6-.04-1.16.06-1.69.35-1.84.18-3.71-.52-5.7-.2-.55-.19-1.12,0-1.68.03-.09.07-.18.11-.27.1-.21.21-.46.27-.75.11-.52.41-.96.94-1.38.77-.61,1.17-1.42,1.18-2.42v-.99c.01-.92.02-1.88.07-2.8.04-.8.46-1.51,1.13-2.39.43-.12.89-.2,1.38-.28.74-.12,1.51-.25,2.27-.56.03,0,.07.03.13.06.46.25,1.09.55,1.82.55.49,0,.97-.13,1.42-.4.41-.24.85-.36,1.35-.36.34,0,.72.06,1.11.17.33.09.65.21.97.33.55.2,1.11.4,1.73.52.26.12.52.24.78.35.94.42,1.83.81,2.44,1.53.36.42.77.8,1.22,1.14.44.32.96.52,1.43.53.17,0,.34,0,.51,0,.34,0,.68,0,1.02-.02.33,0,.65-.02.98-.02h.37c.62.02,1.24.07,1.86.13l.47.04c.24.02.48.13.7.33l.38.34c.54.47,1.06.92,1.33,1.47.47.94,1.19,1.5,2.13,1.68.57.11,1.07.38,1.57.85,1.12,1.06,2,2,2.76,2.95.31.7.75,1.27,1.17,1.81.26.33.5.64.7.97.05.08.1.25.14.42l.08.26c.02.05.02.11.03.17.01.07.03.15.04.22.24,1.07,1,2.12,1.85,2.56.39.2.78.4,1.17.6.46.23.93.47,1.39.71.8.42,1.49,1.05,2.1,1.93.8,1.16,1.35,2.49,1.79,3.64.09.24.11.53.14.88.02.28.05.57.1.85.17.87.54,1.61,1.1,2.2.64.68,1.31,1.33,1.98,1.98l.08.07c1.04,1.02,1.68,2.34,2.34,3.74l.21.43c.03.05.05.24.06.36.01.11.03.22.05.32.11.65.42,1.24.92,1.76.25.27.52.52.79.78.2.19.4.38.59.58.19.19.36.36.42.48.17.35.35.7.53,1.05.48.93.93,1.8,1.25,2.73.11.31.14.69.18,1.1.08.79.39,1.39.98,1.94.29.28.62.52.96.71l.27.15c.44.24.73.41.9.67.23.35.49.68.75,1,.15.19.3.37.44.56.11.15.21.32.31.48l.09.14,1.01,3.42.18,2.28c.04.54.23,1.02.57,1.43l.97,1.17c.28.34.56.67.82,1.02.24.31.37.59.42.88.1.48.22,1.05.47,1.59.49,1.1.52,2.23.09,3.45-.28.8-.43,1.64-.46,2.65-.02.74.2,1.43.64,1.99.17.21.35.41.53.61.24.26.47.51.62.76.33.55.58,1.16.85,1.82l.09.22c.07.17.11.37.1.53-.02.75-.05,1.51-.09,2.26-.02.52-.05,1.04-.07,1.56,0,.2-.04.36-.12.51-.5,1-1,2.01-1.48,3.02-.15.32-.19.72-.11,1.11.15.69.49,1.23.8,1.69.13.21.27.42.38.64.37.76.71,1.51.75,2.33.04.8.28,1.51.53,2.16.16.42.25.79.27,1.1.05.84.05,1.73.05,2.58v.23c0,.74.28,1.42.81,1.97.24.25.5.49.76.72.22.2.43.39.63.6.43.44.63.92.64,1.46,0,1.11,0,2.22-.01,3.33,0,.54-.11,1.01-.32,1.44-.41.86-.5,1.76-.57,2.56v.11c-.03.23-.03.47-.03.7v.32c-.01.35-.01.69-.02,1.04,0,.78,0,1.51-.1,2.22-.07.56-.36,1.13-.66,1.73-.19.37-.38.75-.53,1.13-.26.68-.15,1.33.32,1.88.15.17.28.35.41.53l.13.18c.22.3.33.53.33.75l.03.63c.03.74.07,1.47.08,2.21,0,.36,0,.7-.12.93-.33.64-.52,1.29-.71,1.91-.18.6-.35,1.16-.61,1.65-.38.7-.32,1.58.16,2.37.36.58.41,1.2.15,1.87-.36.92-.57,1.76-.64,2.58-.04.45-.24.89-.46,1.41l-.04.09c-.41.94-.88,1.89-1.33,2.81-.31.63-.63,1.27-.93,1.91-.39.82-.22,2.3.58,2.97.27.23.54.52.8.88.24.33.26.56.25.7v.23c-.02.35-.03.58-.12.75-.31.59-.59,1.19-.87,1.79-.46,1-.9,1.94-1.47,2.81-.2.3-.34.62-.47.9-.07.15-.14.31-.22.46-.43.8-.63,1.56-.62,2.33.02.79-.16,1.53-.55,2.26l-.09.16-.02.18c-.2,1.42-.82,2.77-1.97,4.26-.37.48-.71.99-1.04,1.49-.46.7-.9,1.36-1.43,1.94-.79.88-.39,1.96-.24,2.37l.05.13c.05.12.12.3.11.36-.21.39-.36.76-.5,1.11-.09.24-.19.48-.3.71-1.14,2.34-2.2,4.01-3.44,5.41-.76.86-1.14,1.86-1.08,2.91.06,1.04-.27,2-.82,3.22l-.09.2c-.48,1.07-.93,2.08-1.61,2.92-.4.49-.72,1.01-1.03,1.51-.36.58-.69,1.12-1.11,1.57-.64.68-.89,1.53-1.03,2.19-.28,1.27-.85,2.39-1.71,3.33l-.18.2c-.14.16-.28.32-.43.46-1.19,1.16-2.11,2.34-2.82,3.61-.35.62-.89,1.17-1.55,1.58h-.43l-.36.43c-.29.42-.68.86-1.24,1.38l-.51.48.27.64c.55,1.29,1.06,2.49,1.6,3.68.21.45.42.9.63,1.34.42.9.86,1.82,1.23,2.75l.2.5c.23.56.45,1.1.6,1.64.24.83.56,1.67.99,2.6.34.73.67,1.46,1.01,2.19.53,1.15,1.06,2.31,1.61,3.46.67,1.41,1.21,2.94,1.74,4.42l.13.37c.13.37.3.73.47,1.09.2.43.39.84.49,1.25.19.76.5,1.41.81,2.05.09.18.17.36.25.54.67,1.47,1.28,2.99,1.88,4.47l.14.33c.56,1.39,1.17,2.81,1.79,4.21.87,1.95,1.63,3.94,2.46,6.15l.15.39c.77,2.03,1.57,4.14,2.71,6.09.6,1.03,1.06,2.25,1.41,3.73.2.87.49,1.71.77,2.52l.26.76c.05.16.11.31.17.47.12.33.24.65.28.94l.02.19.09.17c.56,1.03.85,2,.88,2.97v.2s.09.18.09.18c.13.28.21.61.26,1.07.06.6-.12,1.18-.34,1.86-.07.22-.15.45-.21.68-.3.55-.58,1.12-.85,1.68-.52,1.05-1,2.05-1.65,2.94-.32.44-.63.86-.97,1.25-.83.96-1.85,1.72-2.93,2.52-.45.33-.9.67-1.34,1.02-.33.27-.68.52-1.02.77-.76.56-1.55,1.13-2.24,1.87-.22.23-.53.45-.87.61-1.28.61-2.42,1.4-3.52,2.17-.29.2-.57.4-.86.59-.87.59-1.61,1-2.32,1.29l-.56.22c-.94.38-1.87.75-2.81,1.12l-1.3.51.9,1.07c.34.41.6.8.79,1.21.15.32.28.69.42,1.2l.03.11.06.1c.19.35.36.71.53,1.07l.2.42c.35.71.73,1.4,1.11,2.1l.54,1,.09.1c.89.95,1.45,2.14,2.05,3.39.14.3.29.6.43.89l.64,1.27c.43.85.86,1.71,1.27,2.57l.24.49c.54,1.1,1.05,2.15,1.3,3.27l.03.12.76,1.55c.54,1.09,1.07,2.18,1.62,3.27.62,1.24,1.22,2.49,1.82,3.74l.67,1.4c1.48,3.06,3.06,6.12,4.58,9.09l.82,1.6c1.01,1.97,2.32,4.58,3.46,7.27.25.58.37,1.04.4,1.51.11,1.53.12,3.1.03,4.66-.03.59-.14,1.06-.34,1.49-.21.46-.42.94-.62,1.41-.3.71-.59,1.38-.92,2.04l-.18.36c-.5.98-.97,1.9-1.67,2.63l-.08.08-.06.09c-.91,1.47-2.02,2.9-3.4,4.35l-.3.31c-.49.5-1,1.03-1.39,1.67-.72,1.19-1.67,2.18-2.68,3.23-.31.32-.62.64-.92.97-1.15,1.24-2.52,2.2-3.97,3.22-.49.34-.97.68-1.45,1.03-.45.23-.89.47-1.34.71-1.33.72-2.59,1.4-3.99,1.69l-.18.04-.16.1c-.78.49-1.68.71-3.03.71h-.1c-.73,0-1.44.14-2.22.43-.59.22-1.17.33-1.73.33Z"/><g id="Color"><path class="cls-2" d="m82.52,343.56c-.96,0-1.92,0-2.88,0-.48,0-.95-.04-1.41-.22-.29-.11-.62-.11-.94-.12-.88-.03-1.76-.08-2.64-.04-1.15.06-2.21-.2-3.25-.63-.37-.15-.73-.3-1.14-.33-.71-.06-1.45.03-2.12-.3-.65-.32-1.45-.11-2.07-.56-2.12-.4-4.11-1.22-6.16-1.86-.83-.26-1.62-.68-2.52-.69-2.85-.82-5.57-1.91-7.81-3.95-.47-.43-1.02-.77-1.5-1.18-.49-.42-.84-.92-1.04-1.57-.26-.87-.42-1.69-.05-2.56.09-.21.12-.47.12-.7,0-.82.25-1.57.62-2.28.19-.36.29-.73.3-1.14.03-.8.1-1.6.15-2.39.47-1.14.33-2.36.45-3.54.07-.71-.03-1.43.32-2.12.13-.26.04-.63.06-.95.06-.95.07-1.91.38-2.84.12-.37.09-.79.11-1.18.04-.72.02-1.44.32-2.12.09-.21.09-.47.09-.7.03-1.2.04-2.4.08-3.6.04-1.19-.04-2.39.37-3.55.15-.44.1-.95.11-1.43.02-.8,0-1.6.01-2.4.01-.56.07-1.12.11-1.67.46-.98.34-2.03.38-3.06.03-.96,0-1.91.35-2.83.14-.36.08-.79.11-1.19.07-.87.03-1.74.35-2.6.16-.43.06-.95.11-1.42.04-.39.06-.82.23-1.16.26-.53.32-1.06.32-1.63,0-.64-.01-1.28,0-1.92.03-.87-.15-1.77.29-2.59.04-.72.08-1.43.12-2.15.05-.71.02-1.43.32-2.12.12-.28.11-.62.15-.94.09-.87.05-1.75.41-2.59.12-.28.07-.63.11-.95.09-.79.12-1.57.37-2.35.24-.74.13-1.57.41-2.35.18-.51.18-1.1.18-1.66,0-1.37.51-2.66.6-4.01.45-.72.33-1.55.41-2.34.07-.71-.09-1.45.32-2.11.06-.72.15-1.43.18-2.15.03-.56.04-1.11.25-1.65.11-.29.09-.63.11-.94.06-1.03.06-2.06.41-3.07.18-.51.03-1.13.18-1.66.42-1.48.46-2.99.47-4.51,0-.24-.02-.5.08-.71.34-.76.25-1.57.37-2.35.06-.39.05-.81.2-1.17.25-.62.22-1.26.18-1.89-.07-1.43.01-2.24.37-3.71.17-.69.21-1.43.44-2.1.22-.63.17-1.26.2-1.89.04-.64.06-1.27.33-1.87.12-.28.15-.63.14-.94-.02-.65.06-1.27.32-1.87.09-.21.1-.46.12-.7.06-.8.03-1.61.2-2.39.15-.7.35-1.39.41-2.1.05-.64.42-1.19.48-1.85.05-.63.32-1.23.39-1.86.07-.64.18-1.26.44-1.85.13-1.37.67-2.62,1.11-3.9.7-2.02,1.22-4.12,2.16-6.06.1-1.08.83-1.88,1.28-2.8.34-.71.86-1.35,1.37-1.96.61-.73,1.32-1.4,1.53-2.38.88-1.42,1.75-2.86,2.66-4.26.91-1.41,1.92-2.74,2.76-4.2.21-.37.56-.55,1.01-.5.24.03.48.03.72.06.44.06.77-.1,1.03-.45.15-.19.32-.36.5-.51.46-.4.96-.49,1.55-.3,1.73.57,3.48,1.11,5.19,1.74,1.64.61,3.28,1.2,4.9,1.88.58.24,1.15.57,1.82.55,1.52.46,3.09.75,4.61,1.22.69.21,1.4.25,2.09.48.59.2,1.26.15,1.89.2,1.04.08,2.01.49,3.03.65.46.07.92.24,1.4.29.63.06,1.26.09,1.88.31.43.15.95.06,1.42.11,1.12.13,2.24-.04,3.35-.03.31,0,.61-.19.92-.22.71-.08,1.43-.14,2.14-.17.96-.03,1.92.03,2.82-.4,1.36-.03,2.64-.58,4.01-.61.54-.01,1.08-.26,1.62-.36.55-.1,1.13-.02,1.64-.28.52-.26,1.1-.2,1.63-.36.53-.15,1.06-.34,1.59-.53.68-.24,1.33-.54,2.02-.73,1.7-.47,3.29-1.19,4.87-1.95,1.15-.56,2.29-1.13,3.42-1.71.35-.18.73-.37.99-.66.72-.77,1.56-.66,2.43-.44.18.04.23.2.24.37,0,.4-.32.76-.16,1.16.15.37.28.78.54,1.06.65.7,1.32,1.4,2.06,2,.44.35.82.71,1.17,1.16.87,1.15,1.86,2.18,3.11,2.95,1.56.97,2.88,2.28,4.36,3.36.26.19.51.38.77.57.32.25.83.1,1.08.45.23.32.42.66.69.96.49.54,1.21.78,1.66,1.36.39.5.77,1.04,1.23,1.46,1.02.92,1.77,2.05,2.56,3.16.37.52.74,1.04,1.1,1.56.23.33.45.66.65,1,.69,1.17,1.3,2.39,2.07,3.5.8,1.13,1.28,2.39,1.69,3.67.31.99.65,1.96,1.08,2.9.37.8.66,1.62.89,2.46.15.55.36,1.06.6,1.56.53,1.07,1.09,2.13,1.44,3.28.75,1.23.96,2.7,1.69,3.95.57,1.66,1.34,3.24,1.98,4.86.99,2.51,2.24,4.93,2.95,7.55.1.38.26.76.43,1.11,1.38,2.78,2.48,5.69,3.77,8.52.63,1.38,1.32,2.72,1.88,4.13.29.74.62,1.47.84,2.23.24.84.57,1.65.94,2.45.87,1.88,1.72,3.76,2.61,5.64.75,1.57,1.32,3.23,1.91,4.88.3.83.77,1.58.99,2.43.22.86.64,1.63,1,2.42.72,1.59,1.37,3.22,2.03,4.84.57,1.4,1.16,2.8,1.77,4.18.9,2.04,1.7,4.11,2.49,6.2.82,2.16,1.61,4.33,2.79,6.34.73,1.24,1.19,2.6,1.52,4.01.25,1.08.65,2.13,1,3.18.18.53.42,1.04.49,1.6.58,1.06.96,2.19,1,3.41.2.44.29.9.34,1.38.12,1.08-.35,2.03-.62,3.02-.89,1.6-1.54,3.33-2.63,4.83-.33.45-.65.9-1.02,1.32-1.26,1.47-2.91,2.48-4.4,3.67-1.06.84-2.22,1.55-3.16,2.54-.32.34-.74.62-1.17.82-1.52.72-2.86,1.74-4.24,2.68-.8.54-1.62,1.03-2.51,1.39-2.21.89-4.42,1.8-6.68,2.56-.46.16-.91.29-1.28.61-.43.38-.96.59-1.47.79-.66.26-1.39.37-2.04.65-.59.25-1.2.42-1.81.61-.68.21-1.37.41-2.06.59-.31.08-.63.16-.94.16-.75,0-1.4.22-1.99.69-.18.14-.42.26-.65.28-.95.09-1.84.5-2.82.47-.87-.03-1.75.03-2.58.4-.28.12-.63.08-.95.1-.79.05-1.58.07-2.35.37-.36.14-.79.11-1.19.12-.88.02-1.76.01-2.64,0-.72,0-1.45.03-2.15-.08-.7-.11-1.39-.35-2.06-.59-.46-.16-.9-.32-1.39-.34-.97-.04-1.86-.39-2.76-.7-1.27-.45-2.52-1-3.87-1.18-.79-.1-1.31-.58-1.72-1.18-.35-.53-.66-1.11-.66-1.77,0-.65-.18-1.25-.39-1.85-.42-1.2-.73-2.44-1.15-3.64-.16-.46-.29-.92-.3-1.39-.02-1.22-.41-2.34-.87-3.45-.64-1.54-1.3-3.08-1.83-4.66-.3-.9-.72-1.78-.75-2.76-.37-.82-.35-1.71-.42-2.58-.03-.39-.13-.78-.24-1.16-.35-1.23-.71-2.45-1.26-3.6-.21-.43-.36-.88-.5-1.34-.41-1.37-1.1-2.65-1.53-4.02-.12-.38-.25-.75-.31-1.15-.22-1.66-.63-3.28-1.18-4.86-.39-1.13-.77-2.25-.82-3.47-.03-.79-.39-1.53-.44-2.34-.04-.7-.3-1.39-.5-2.08-.11-.38-.28-.74-.43-1.11-.44-1.03-.78-2.07-.99-3.18-.22-1.17-.61-2.3-.91-3.46-.3-1.15-.49-2.34-.9-3.46-.08-.22-.07-.49-.18-.69-1.03-2.08-1.58-4.33-2.37-6.49-.57-1.57-.98-3.18-1.33-4.81-.05-.23-.08-.48-.18-.69-.4-.87-.82-1.72-1.23-2.59-.4-.86-.99-1.65-1.05-2.65-.42-.67-.6-1.48-1.29-1.99-.32-.24-.48-.61-.61-1.01-.63-1.98-1.47-3.87-2.61-5.61-.26-.39-.36-.88-.56-1.31-.62-1.3-1.25-2.58-1.87-3.87-.1-.22-.19-.44-.32-.64-.47-.74-.52-1.65-1.08-2.38-.53-.68-.83-1.54-1.25-2.31-.98-1.82-2.07-3.58-3.22-5.31-.35-.53-.7-1.06-1.06-1.59-.27-.39-.54-.79-.84-1.16-.2-.25-.44-.46-.77-.54-.25-.07-.79.13-.8.35-.03.49-.16.94-.35,1.39-.06.13-.05.33.02.46.22.43.26.92.42,1.36.15.44.41.87.69,1.25.47.64.8,1.36,1.32,1.99.65.79,1.2,1.67,1.48,2.69.17.62.51,1.16.97,1.62.33.32.66.68.46,1.21.55.26.88.76,1.02,1.27.23.87.75,1.57,1.13,2.34.25.5.51.96.52,1.56,0,.38.21.76.38,1.12.49,1.01.96,2.02,1.53,2.98.52.88,1.17,1.69,1.55,2.65,1.36,1.98,2.31,4.18,3.36,6.33.7,1.43,1.46,2.83,2.04,4.32.18.46.35.91.31,1.38-.09,1.11.02,2.24-.43,3.31-.09.21-.07.47-.1.71-.11.95.05,1.93-.39,2.83-.03.56-.05,1.12-.11,1.68-.09.87.02,1.76-.36,2.6-.12.28-.09.63-.11.95-.06,1.03-.06,2.06-.41,3.07-.2.59-.03,1.3-.22,1.89-.38,1.17-.35,2.36-.38,3.55-.01.56-.02,1.12-.04,1.68-.01.32.05.68-.08.95-.4.9-.21,1.91-.52,2.81-.16.46-.24.92-.28,1.4-.05.64-.12,1.26-.32,1.88-.17.52-.16,1.1-.18,1.66-.04,1.92-.06,3.84-.08,5.75,0,.88,0,1.76,0,2.64,0,.32.02.66-.1.94-.22.53-.24,1.08-.29,1.64-.05.56-.08,1.11-.33,1.64-.13.28-.14.62-.17.93-.1,1.11,0,2.23-.39,3.31-.1.29-.04.63-.06.95-.03.4.03.83-.11,1.19-.45,1.16-.33,2.38-.35,3.56-.03,2.72-.21,5.43-.05,8.15.04.71,0,1.44-.08,2.15-.07.71-.37,1.38-.43,2.1-.02.22-.17.45-.31.63-.49.64-1.12,1.13-1.77,1.6-.13.09-.28.17-.43.19-.5.08-.87.38-1.24.69-.61.53-1.28.99-2.05,1.2-.86.24-1.62.68-2.41,1.05-.79.37-1.69.52-2.36,1.12-1.37.44-2.6,1.2-3.95,1.68-1.05.37-2.04.89-3.13,1.19-.46.13-.92.23-1.39.33-.54.12-1.07.31-1.6.46-.46.13-.92.27-1.39.36-.31.06-.64.06-.95.09-.32.03-.66-.01-.95.08-1.56.52-3.15.41-4.74.34-.08,0-.16,0-.24,0h0Z"/></g><g id="Halftone"><path class="cls-2" d="m186.39,146.19c0,1.32,0,2.12,0,2.92,0,.32.04.66-.06.95-.39,1.08-.31,2.21-.39,3.32-.03.32.02.66-.09.95-.35.92-.33,1.88-.38,2.83-.03.64.06,1.31-.12,1.91-.25.84-.28,1.73-.6,2.55-.09.22-.17.46-.18.69-.03.9-.31,1.72-.77,2.49-.12.2-.18.45-.21.68-.32,1.89-.91,3.7-1.6,5.48-.6,1.55-1.15,3.13-1.66,4.72-.19.59-.08,1.09.3,1.57.1.12.16.28.27.39,1.62,1.77,3.01,3.71,4.25,5.76,1.24,1.26,1.99,2.89,3.14,4.22.36.42.64.92,1,1.34.53.64.56,1.26.16,1.98-.35.62-.63,1.26-.69,2.02-.05.62-.3,1.23-.53,1.82-.4,1.04-.86,2.06-1.29,3.08-.5,1.18-1.07,2.31-1.86,3.33-.39.5-.71,1.06-1.02,1.62-.32.58-.74,1.05-1.33,1.33-.38.18-.7.41-.9.76-.37.63-.88,1.13-1.37,1.66-.96,1.07-1.95,2.11-2.83,3.25-1.38,1.78-3.08,3.25-4.67,4.81-.17.17-.35.35-.56.44-1.07.45-1.79,1.31-2.57,2.11-.5.51-1.14.59-1.77.36-.55-.2-.94-.64-1.15-1.17-.23-.59-.42-1.21-.53-1.83-.21-1.19-.62-2.31-1.02-3.42-.44-1.2-1.01-2.32-1.79-3.36-.67-.88-1.46-1.7-1.96-2.71-.14-.28-.38-.52-.61-.74-1.66-1.61-3.04-3.49-4.76-5.05-.77-.7-.78-1.98-.08-2.81.97-1.17,1.95-2.32,2.91-3.49.2-.24.37-.52.54-.78.82-1.27,1.66-2.54,2.59-3.73.32-.41.3-.71-.04-1.05-1.46-1.48-2.89-2.99-4.39-4.42-1.28-1.23-2.3-2.65-3.35-4.05-.19-.25-.3-.59-.52-.8-1.18-1.11-1.96-2.51-2.89-3.8-.18-.25-.43-.46-.66-.68-.04-.04-.15-.05-.2-.02-.14.08-.27.17-.38.29-.38.4-.75.82-1.14,1.23-.21.22-.6.27-.89.15-.61-.26-1.12-.61-1.34-1.28-.4-1.22-1-2.34-1.81-3.34-.2-.25-.34-.54-.52-.8-.48-.74-.66-1.63-1.05-2.39-.4-.77-.9-1.49-1.2-2.33-.35-.98-.76-1.93-1.28-2.83-.36-.62-.58-1.3-.81-1.98-.34-.97-.51-2.02-1.12-2.88-.15-.7-.58-1.34-.56-2.07.04-1.07-.42-2.02-.6-3.04-.04-.23-.22-.45-.23-.68-.12-1.78-.93-3.36-1.36-5.05-.08-.31-.23-.62-.21-.92.06-.99-.32-1.87-.59-2.78-.23-.77-.43-1.53-.45-2.34-.02-.64-.12-1.26-.27-1.89-.16-.69-.14-1.43-.17-2.14-.03-.72,0-1.44-.35-2.11-.18-1.58-.74-3.1-.68-4.72.04-1.11.1-2.23-.33-3.31-.11-.28-.08-.63-.09-.95-.02-.64-.08-1.28-.04-1.92.05-.9-.24-1.73-.39-2.59-.13-.78-.13-1.59-.19-2.38-.49-.98-.37-2.03-.38-3.06-.01-.79.05-1.59-.3-2.35-.16-.34-.08-.79-.12-1.18-.07-.87-.06-1.75-.35-2.6-.15-.44-.11-.95-.11-1.42-.01-2.32,0-4.64-.02-6.95,0-.48.05-1-.12-1.42-.32-.78-.29-1.56-.31-2.35-.05-3.2-.1-6.39-.14-9.59,0-.56-.05-1.1-.21-1.65-.14-.45-.11-.95-.16-1.42-.05-.48,0-1-.18-1.42-.3-.7-.28-1.4-.28-2.12,0-.88,0-1.76.01-2.64,0-.72-.03-1.43.26-2.13.12-.28.1-.63.1-.95-.01-.98.4-1.86.64-2.78.14-.55.63-.92,1.17-1.13.21-.08.5-.11.7-.03.61.23,1.22.36,1.87.32.24-.02.49,0,.71.07.83.29,1.65.56,2.55.55.88-.01,1.69.46,2.58.43.3,0,.61.16.9.28,1.17.51,2.36.93,3.62,1.19.62.13,1.23.32,1.82.55.53.2,1.06.34,1.63.35.5.01.93.19,1.32.49.39.31.83.46,1.32.5.64.06,1.19.43,1.84.5.7.08,1.39.33,2.09.47.62.12,1.18.47,1.85.48.3,0,.61.16.9.28,1.68.71,3.4,1.34,5.11,1.99.37.14.74.29,1.11.42.63.22,1.14.61,1.51,1.14.6.85,1.23,1.67,1.93,2.44.21.23.38.52.52.8.67,1.27,1.37,2.52,2.09,3.76.12.21.23.43.3.65.54,1.59,1.33,3.06,2.11,4.55.18.35.35.72.49,1.09,1.14,2.94,1.27,3.22,2.6,5.35.08.14.21.26.24.41.34,1.49,1.34,2.72,1.69,4.21.09.38.29.74.33,1.14.08.8.41,1.54.68,2.28.47,1.27,1.05,2.49,1.55,3.75.41,1.03.8,2.09,1.01,3.18.14.71.37,1.38.59,2.06.54,1.66,1.05,3.34,1.66,4.98.23.61.18,1.27.45,1.85.24.52.24,1.09.34,1.63.21,1.09.45,2.18.52,3.3.03.46.31.9.48,1.34.11.3.34.59.34.88.02,1.13.55,2.17.55,3.3,0,.24,0,.49.07.71.45,1.23.37,2.52.41,3.79.03.88.03,1.76.05,2.64,0,.24-.03.49.03.72.45,1.48.3,3.01.33,3.99Z"/><path class="cls-2" d="m104.16,77.69c0,.08,0,.15-.02.23-.08.39-.22.78-.23,1.17,0,1.06-.36,2.03-.64,3.03-.45.61-.26,1.41-.58,2.06-.33.67-.23,1.41-.34,2.11-.17,1.1-.45,2.18-.5,3.3-.44,1.06-.41,2.19-.42,3.3,0,.56-.03,1.12-.25,1.65-.06.14-.07.31-.09.47-.13.87.02,1.77-.34,2.6-.33.74-.15,1.6-.6,2.31-.16,1.58-.71,3.11-.64,4.73.03.72,0,1.44-.03,2.16-.01.31-.1.62-.17.93-.29,1.24-.71,2.44-.81,3.72-.05.63-.22,1.27-.45,1.85-.36.92-.4,1.86-.44,2.82-.02.48-.01.97-.14,1.42-.31,1.07-.49,2.17-.87,3.22-.19.53-.73.86-.82,1.44-.07.47-.02.98-.16,1.42-.6,1.97-.9,4.03-1.66,5.96-.12.96-.47,1.85-.9,2.71-.07.14-.15.3-.15.45-.02.9-.5,1.68-.62,2.55-.49.76-.35,1.72-.79,2.5-.06,1.16-.53,2.14-1.2,3.07-.36.51-.58,1.13-.84,1.71-.29.65-.54,1.33-.85,1.97-.32.66-.53,1.32-.52,2.06,0,.4-.18.77-.36,1.13-.84,1.63-1.67,3.27-2.51,4.9-.22.42-.47.83-.73,1.23-1.07,1.68-2.05,3.41-3.1,5.11-1.34,2.17-2.47,4.46-3.48,6.8-.09.22-.2.44-.33.63-.67.99-1.34,1.99-2.02,2.97-.45.66-.92,1.3-1.39,1.95-.38.51-.89,1-.91,1.64-.02.53.24,1.08.41,1.61.12.38.33.73.4,1.12.1.48.05.97-.32,1.34-.83.85-1.59,1.8-2.7,2.34-.07.03-.14.09-.2.14-1.4,1.18-2.83,2.34-4.2,3.56-.9.79-1.66,1.71-2.31,2.73-.82,1.27-1.75,2.47-2.64,3.7-.14.19-.29.38-.41.59-.12.21-.19.44-.12.69.15.53.47,1.01.52,1.58.85,1.45,1.23,3.1,1.99,4.6.57,1.13,1.01,2.33,1.56,3.49.3.64.49,1.35.61,2.05.11.65-.41,1.2-.47,1.84-.6,1.04-.96,2.18-1.32,3.32-.34,1.06-.67,2.12-1.02,3.18-.1.3-.25.59-.34.89-.3,1.07-.73,2.11-.65,3.26.02.31.01.66-.1.95-.33.85-.27,1.73-.32,2.6-.03.49-.12.94-.33,1.38-.1.21.01.45.27.58.37.18.68.4.97.69.5.49.65,1.08.54,1.75-.08.45-.5.9-.93.98-.4.08-.81.1-1.18-.07-1.22-.6-2.42-1.27-3.35-2.27-.99-1.06-2.13-1.93-3.33-2.72-1.28-.85-2.36-1.89-3.25-3.14-.56-.78-1.09-1.58-1.72-2.29-.75-.85-1.29-1.82-1.79-2.82-.96-1.92-1.9-3.86-2.87-5.79-.18-.37-.31-.73-.33-1.14-.02-.41-.17-.77-.3-1.15-.18-.55-.13-1.09.08-1.64.32-.82.58-1.65.98-2.43.54-1.07,1.08-2.13,1.6-3.21.38-.79.82-1.54,1.07-2.4.24-.84.78-1.57.96-2.44.06-.31.22-.6.36-.88.8-1.64,1.54-3.32,2.26-5,.22-.51.68-.96.59-1.53-.07-.45-.4-.86-.57-1.31-.56-1.49-1.23-2.94-1.31-4.56-.34-.91-.39-1.87-.47-2.82-.03-.31-.16-.61-.25-.92-.21-.77-.35-1.55-.56-2.32-.21-.76-.22-1.57-.5-2.33-.1-.29-.07-.63-.08-.95-.03-.56-.02-1.12-.3-1.63-.28-1.65-.62-3.28-.98-4.91-.05-.23-.05-.48-.05-.71-.06-2.72-.15-5.43-.16-8.15,0-2.24.09-4.47.15-6.71,0-.24.01-.49.09-.71.23-.61.25-1.25.27-1.89.04-1.03-.02-2.08.42-3.06.06-.14.04-.31.06-.47.08-.71,0-1.44.31-2.12.3-.66.19-1.41.53-2.08.21-.41.15-.95.31-1.39.35-.97.4-2.03.89-2.96.48-.91.78-1.91,1.27-2.83,1.39-2.6,2.52-5.33,3.67-8.04.5-1.17.97-2.35,1.57-3.48.41-.77.8-1.55,1.32-2.27.61-.83,1.01-1.79,1.61-2.65.54-.77.85-1.71,1.27-2.57.52-1.07,1.02-2.16,1.72-3.15.09-.13.2-.25.27-.39.91-1.95,2.22-3.69,3.12-5.65.47-1.02,1.14-1.92,1.77-2.84.86-1.25,1.68-2.51,2.3-3.9.78-1.75,1.96-3.28,3.06-4.85.5-.72,1.06-1.39,1.56-2.12.45-.66.88-1.33,1.42-1.92.21-.23.35-.53.5-.81.32-.57.74-.97,1.39-1.24,1.1-.45,2.18-.98,3.23-1.57,2.86-1.6,5.85-2.88,8.99-3.84,1.9-.58,3.74-1.33,5.66-1.86.63-.42,1.41-.23,2.08-.51.59-.24,1.19-.45,1.8-.63.77-.23,1.57-.26,2.37-.14.14.02.29.15.37.27.14.19.23.42.32.63.29.66.63,1.28,1.14,1.8.25.25.63,1.1.63,1.27Z"/></g><g id="Lines"><path class="cls-1" d="m99.64,50.6c-.63-.32-.88-.58-.91-.97-.05-.64-.11-1.27-.16-1.91-.08-1.11.34-2.26-.09-3.33-.36-.88-.97-1.65-1.37-2.52-.47-1.01-.83-2.05-1.63-2.89-.66-.7-1.04-1.61-1.49-2.45-.31-.57-.36-1.23-.31-1.87.1-1.12.36-2.19.98-3.17.51-.8.49-.85,1.05-.62.74.3,1.46.61,2.07,1.17,1.3,1.19,2.57,2.4,3.79,3.67.55.57,1.15,1.11,1.75,1.63.49.43,1.1.7,1.75.7,1.92.02,3.83-.03,5.75-.03.51,0,.94-.19,1.36-.42.62-.34,1.21-.29,1.82-.01.29.13.58.26.89.35.47.15,1,.15,1.4-.08,1.02-.58,2.09-.76,3.23-.68.32.02.64-.03.96-.03.33,0,.62-.11.91-.28.41-.24.83-.48,1.27-.65.61-.24,1.12-.61,1.59-1.04.83-.75,1.55-1.61,2.56-2.16.26-.14.44-.46.6-.73.42-.7.94-1.33,1.64-1.72.85-.47,1.53-1.15,2.35-1.65.37-.23.79-.1,1.2.42.39.5.78,1.01,1.16,1.53.29.4.38.87.39,1.35.02.65-.08,1.27-.41,1.84-.16.28-.36.54-.47.83-.27.75-.18,1.59-.58,2.31-.38.7-.73,1.42-1.12,2.12-.16.29-.23.58-.2.92.04.48.07.96.08,1.44,0,.33.08.63.24.92.63,1.18.7,2.44.56,3.74-.08.81,0,1.6.37,2.33.16.32.19.58.03.91-.14.28-.22.6-.29.91-.1.47-.14.97.05,1.41.37.88.79,1.75,1.2,2.61.15.31.13.58,0,.91-.43,1.05-.53,2.17-.59,3.29-.03.48.02.96.03,1.44,0,.65-.13,1.26-.45,1.84-.31.57-.46,1.19-.45,1.84.01.8.07,1.6.07,2.4,0,.65-.19,1.26-.52,1.82-.17.28-.3.57-.31.9,0,.32-.04.66.07.94.37.92.91,1.7,2.05,1.7,1.14,0,2.2.28,3.22.8.42.21.94.19,1.4.01.29-.11.54-.38.6-.68.08-.47.1-.95.09-1.43-.02-.8-.09-1.59.06-2.39.34-1.77.12-3.49-.48-5.18-.29-.82-.25-1.63,0-2.35.11-.3.28-.58.35-.89.18-.83.66-1.44,1.3-1.95.54-.42.79-.97.8-1.65.01-1.28,0-2.56.07-3.83.06-1.16.69-2.1,1.37-2.99.09-.12.24-.23.38-.27,1.22-.37,2.52-.36,3.71-.86.3-.13.64-.01.92.14.73.4,1.45.63,2.25.16,1.03-.61,2.16-.6,3.25-.29.92.26,1.79.68,2.74.85,1.29.63,2.69,1.04,3.67,2.2.31.36.67.7,1.05.98.24.18.57.33.87.34.96.03,1.92-.04,2.87-.02.8.02,1.59.1,2.39.17.49.04.93.27,1.29.59.71.64,1.5,1.23,1.94,2.1.31.62.75,1.02,1.42,1.14.82.15,1.49.55,2.08,1.11,1.05.99,2.04,2.03,2.94,3.16.43,1.05,1.28,1.82,1.86,2.78.16.26.23.59.32.89.05.15.06.31.1.47.17.77.75,1.59,1.34,1.9.85.44,1.71.86,2.56,1.31,1.01.53,1.81,1.32,2.45,2.24.82,1.19,1.39,2.51,1.9,3.85.23.61.17,1.26.29,1.89.12.64.39,1.23.84,1.7.66.69,1.35,1.36,2.03,2.03,1.29,1.26,1.99,2.87,2.75,4.45.13.28.14.62.19.94.09.49.33.9.66,1.25.44.46.92.89,1.37,1.34.22.23.46.46.6.74.63,1.29,1.36,2.53,1.83,3.9.15.45.19.93.24,1.41.05.51.31.9.66,1.23.23.22.49.41.77.57.55.31,1.13.57,1.51,1.14.35.53.78,1.01,1.16,1.53.19.26.34.54.52.81l1.08,3.65c.06.8.12,1.59.19,2.39.03.33.14.62.35.88.2.25.41.49.61.74.41.49.83.98,1.21,1.49.29.38.51.8.61,1.29.09.47.21.94.4,1.38.62,1.39.62,2.79.12,4.19-.27.77-.38,1.55-.4,2.35-.01.49.12.95.43,1.34.4.5.9.93,1.22,1.47.41.68.7,1.43,1,2.17.12.29.19.62.18.94-.03,1.28-.11,2.55-.16,3.83-.01.33-.08.63-.23.92-.5,1-.99,2-1.47,3-.06.13-.07.32-.04.47.17.8.75,1.38,1.1,2.09.43.87.8,1.74.85,2.72.03.65.24,1.25.47,1.85.17.44.3.92.33,1.39.06.96.05,1.92.05,2.88,0,.51.2.93.53,1.28.44.46.95.86,1.39,1.32.57.59.91,1.31.91,2.15,0,1.12,0,2.24-.01,3.36-.01.64-.13,1.27-.41,1.86-.35.74-.41,1.54-.49,2.33-.03.32-.01.64-.02.96-.03,1.12.02,2.25-.12,3.35-.15,1.11-.84,2.06-1.25,3.1-.12.31-.1.58.15.86.21.24.39.5.58.76.29.39.51.81.53,1.31.04.96.09,1.92.1,2.88,0,.48,0,.96-.24,1.4-.59,1.14-.72,2.45-1.33,3.58-.23.41-.14.92.13,1.36.54.88.59,1.81.23,2.76-.29.75-.51,1.51-.58,2.31-.06.64-.33,1.22-.58,1.81-.7,1.61-1.53,3.15-2.28,4.74-.21.46-.1,1.43.31,1.78.36.3.69.67.97,1.05.28.39.47.83.44,1.34-.02.48,0,.95-.24,1.4-.82,1.55-1.42,3.21-2.39,4.69-.26.4-.42.86-.65,1.28-.31.57-.51,1.18-.49,1.83.03.99-.21,1.9-.68,2.76-.25,1.79-1.08,3.32-2.17,4.73-.88,1.14-1.55,2.42-2.52,3.49-.36.4-.21.89-.04,1.35.16.44.36.84.09,1.34-.3.56-.48,1.18-.76,1.76-.98,2.02-2.09,3.95-3.59,5.63-.54.61-.88,1.35-.83,2.19.07,1.33-.37,2.5-.9,3.68-.52,1.17-1.03,2.35-1.84,3.34-.81.99-1.3,2.2-2.19,3.14-.44.47-.64,1.08-.78,1.72-.31,1.43-.96,2.7-1.95,3.79-.22.24-.43.48-.65.7-1.03,1.01-1.93,2.11-2.65,3.38-.47.83-1.18,1.52-2.02,2.01-.27.16-.63.08-.88-.1-.27-.19-.37-.5-.32-.85.02-.15.06-.32.15-.44,1.26-1.64,2.32-3.45,3.92-4.81.12-.1.22-.23.33-.35,1.14-1.18,1.84-2.59,2.18-4.18.14-.64.37-1.2.84-1.67.56-.57,1.09-1.17,1.61-1.78.62-.73,1.11-1.55,1.56-2.4.45-.86.79-1.74.98-2.68.09-.45.5-.87.32-1.35-.26-.69-.03-1.23.37-1.75,1.65-2.16,2.98-4.54,4.54-6.75.48-.68.42-1.51-.08-2.24-.18-.26-.34-.53-.47-.82-.14-.32-.09-.64.12-.9.19-.25.39-.51.61-.73.78-.8,1.62-1.55,2.34-2.4.62-.73,1.06-1.6,1.64-2.35.61-.78.92-1.67,1.11-2.62.03-.15.11-.3.19-.44.51-.87.61-1.79.47-2.77-.11-.81.11-1.58.54-2.28.5-.82.93-1.68,1.49-2.45,1.02-1.38,1.25-2.91,1.02-4.54-.05-.36-.38-.52-.65-.46-.46.11-.8.52-1.3.54-.15,0-.35.05-.46-.02-.3-.2-.39-.51-.29-.84.09-.3.18-.6.31-.89.85-1.89,1.87-3.7,2.75-5.58.47-1.01.96-2.01,1.44-3.02.12-.96.53-1.83.79-2.75.11-.4-.12-.82-.65-1.13-.14-.08-.31-.1-.44-.18-.56-.33-.75-1.05-.53-1.64.17-.46.41-.86.7-1.24.59-.76,1-1.62,1.43-2.48.67-1.35.84-2.73.69-4.19-.01-.15-.13-.28-.2-.42-.17-.29-.43-.32-.77-.07-.38.29-.75.59-1.1.92-.34.31-.69.2-1.21-.32-.11-.11-.24-.29-.21-.41.06-.29.19-.58.32-.85.91-1.86,1.84-3.72,2.75-5.58.59-1.22.61-2.47.04-3.7-.15-.33-.21-.57-.06-.89.33-.73.59-1.48.92-2.21.2-.44.34-.89.38-1.37.13-1.44.21-2.87-.06-4.3-.06-.32-.28-.58-.56-.7-.32-.15-.64-.1-.89.1-.25.2-.47.43-.72.63-.24.2-.49.4-.75.57-.12.08-.34.16-.42.11-.29-.18-.44-.48-.43-.8.03-1.76.08-3.51.09-5.27,0-.96-.03-1.92-.1-2.87-.06-.97-.69-1.78-.83-2.74-.14-.99-.75-1.75-1.43-2.44-.22-.23-.49-.41-.72-.64-.53-.52-.58-.76-.25-1.2,1.03-1.41,1.02-1.42,1.68-3.38.05-.15.12-.3.19-.44.39-.73.46-1.52.47-2.32.01-.64,0-1.28-.03-1.92-.03-.48-.16-.94-.34-1.39-.48-1.2-1.08-2.31-2.06-3.19-.52-.46-.61-1.09-.46-1.75.14-.62.23-1.27.47-1.85.64-1.56.51-3.12.1-4.69-.04-.15-.1-.3-.17-.45-.37-.88-.4-1.87-1.01-2.67-.49-.65-1.12-1.13-1.68-1.7-.34-.35-.54-.77-.59-1.27-.05-.47-.09-.98-.27-1.4-.4-.9-.51-1.84-.64-2.79-.09-.65-.38-1.2-.77-1.72-.96-1.3-2.18-2.32-3.4-3.36-.23-.19-.38-.52-.48-.81-.11-.29-.15-.62-.15-.94,0-1.15-.39-2.18-.86-3.21-.34-.75-.8-1.38-1.39-1.93-.46-.44-.98-.82-1.47-1.23-.5-.43-.83-.96-1.01-1.59-.94-3.31-1.94-4.39-3.56-6.11-.34-.36-.77-.58-1.23-.72-.71-.22-1.01-.74-1.11-1.4-.07-.47-.06-.96,0-1.43.15-1.33-.2-2.53-.86-3.67-.08-.14-.12-.3-.2-.44-.73-1.26-1.71-2.31-2.83-3.23-.24-.2-.54-.34-.83-.47-.73-.33-1.47-.62-2.19-.98-.27-.13-.53-.37-.68-.63-.32-.55-.64-1.12-.84-1.72-.26-.76-.63-1.46-1.03-2.16-.16-.28-.29-.57-.48-.83-.82-1.12-1.63-1.77-3.25-.91-.65.35-.95.24-1.17-.2-.29-.57-.63-1.12-.84-1.72-.26-.77-.71-1.43-1.07-2.14-.73-1.46-1.76-2.65-3.16-3.51-.44-.27-.95-.3-1.34-.04-.53.36-1.04.74-1.58,1.08-.27.17-.57.29-.88.37-.47.13-.98.14-1.35-.21-1.05-.98-2.07-1.99-3.08-3.01-.92-.93-2.02-1.56-3.25-1.96-.12-.04-.3-.06-.39,0-.27.19-.38.5-.35.84.04.48.23.92.44,1.35.3.61.21.85-.31,1.12-.42.22-.85.44-1.28.65-.29.14-.59.08-.85-.19-.77-.81-1.53-1.63-2.31-2.43-.57-.58-1.27-.94-2.03-1.24-.93-.36-.92-.39-1.79-.02-.29.13-.61.23-.87.4-.4.28-.65.67-.71,1.17-.23,1.92.01,3.83.16,5.74.06.78-.46,1.33-1.43,1.56-.16.04-.31.07-.47.11-.15.04-.35.05-.44.14-.21.22-.48.48-.53.75-.23,1.27-.16,2.55.02,3.82.05.31.19.6.34.89.29.58.47,1.18.56,1.82.12.82.04,1.59-.46,2.28-.42.58-.42,1.16-.13,1.79.2.43.36.89.6,1.31.41.72,1.07,1.16,1.83,1.46,1.61.15,3.12.65,4.56,1.34.74.35,1.49.56,2.29.58,1.31.02,2.49.47,3.66,1.01,1.01.46,1.93,1.16,3.09,1.23,1.01.48,2.02.95,3.03,1.44.29.14.58.26.91.28.82.05,1.53.4,2.26.74.42.2.93.21,1.39.33.47.13.88.37,1.22.71.57.57,1.1,1.16,1.46,1.88.71,1.43,1.56,2.77,2.46,4.1.98,1.45,1.8,3.01,2.43,4.65.06.15.08.31.1.47.09.82.51,1.49.97,2.15,1.13,1.6,3.78,6.71,4.42,8.47.11.3.18.61.21.93.09,1.13.39,2.18.99,3.16.33.54.63,1.11.85,1.71.22.59.23,1.27.49,1.84.41.88.54,1.84.86,2.73.32.9.79,1.74,1.21,2.6.29.58.43,1.2.54,1.83.08.47.06.99.26,1.4.5,1.02.57,2.17,1.04,3.18.41.89.65,1.8.73,2.76.04.49.17.94.36,1.38.25.59.46,1.21.45,1.85-.02,1.31.82,2.41.85,3.71.03,1.11.22,2.22.36,3.33.02.15.11.3.18.44.26.59.42,1.2.44,1.85.03,1.28.09,2.56.1,3.83.01,1.29.19,2.52.63,3.75.32.9.36,1.91.02,2.83-.39,1.06-.64,2.12-.62,3.26.02,1.28-.04,2.56-.11,3.83-.02.31-.13.63-.28.9-.32.56-.57,1.14-.59,1.79-.04.8-.13,1.6-.52,2.32-.25.46-.28.94-.1,1.38.26.63.2,1.2-.02,1.84-.46,1.35-.31,2.87-1.08,4.15-.08.13-.06.31-.08.47-.12.95-.24,1.9-.36,2.85-.79,1.24-.73,2.77-1.44,4.05-.31.56-.37,1.22-.4,1.86-.02.31.01.68.16.93.58.96,1.07,1.97,1.85,2.79,1.12,1.17,1.96,2.53,2.7,3.94.53,1.01,1.2,1.88,1.98,2.69.56.57,1.16,1.1,1.69,1.7.31.36.5.82.47,1.32-.06.96-.14,1.91-.22,2.86-.04.48-.15.93-.34,1.38-.66,1.63-1.35,3.24-2.26,4.75-.25.41-.44.86-.75,1.22-.73.86-1.21,1.88-1.86,2.78-.56.78-1.24,1.47-1.85,2.21-.81.98-1.56,2.03-2.44,2.95-1.98,2.09-4.02,4.12-6.04,6.17-.45.46-.91.9-1.48,1.21-.86.46-1.51,1.17-2.25,1.78-.37.31-.76.58-1.14.87-.32.25-1.17.07-1.25-.28-.07-.32-.08-.65.08-.91.17-.26.38-.54.64-.7,1.81-1.06,3.34-2.44,4.73-4.01,1.06-1.2,2.18-2.34,3.28-3.5.66-.69,1.35-1.34,1.83-2.2.31-.55.79-1,1.24-1.46,1.12-1.15,2.13-2.38,2.9-3.8.88-.96,1.39-2.14,1.98-3.27.37-.71.73-1.42,1.09-2.13.22-.43.32-.91.3-1.39-.02-.82.17-1.58.52-2.31.21-.44.3-.92.06-1.37-.37-.71-.56-1.49-.83-2.24-.1-.28-.35-.54-.59-.72-.39-.29-.77-.56-1-1-.15-.28-.28-.58-.42-.86-.95-1.88-2.24-3.48-3.91-4.78-.3-.23-1.07-.1-1.26.25-.23.42-.49.82-.69,1.25-.67,1.48-1.65,2.73-2.78,3.87-.56.57-1.17,1.09-1.72,1.67-1.09,1.16-2.27,2.25-3.06,3.67-.22.4-.65.69-1.01,1.01-.36.33-.99.33-1.32.08-1.27-.98-2.32-2.19-3.52-3.25-.36-.32-.75-.61-1.17-.83-.28-.14-.66-.09-.89.11-.61.54-.97,1.28-1.26,2.01-.37.91-.86,1.71-1.53,2.4-.67.69-1.37,1.34-2.04,2.02-.45.46-.48,1.26-1.08,1.55-1.22.6-1.89,1.67-2.61,2.72-.17.26-.53.32-.86.18-.28-.12-.56-.31-.78-.53-1.51-1.43-3.04-2.84-4.49-4.33-.89-.91-1.81-1.81-2.35-3.01-.13-.28-.36-.53-.57-.77-.53-.6-1.12-1.15-1.6-1.79-.38-.5-.56-1.15-.93-1.66-.36-.52-.85-.95-1.27-1.42-.3-.33-.33-1-.06-1.32.31-.37.61-.73.93-1.09.32-.35.67-.68.87-1.13.39-.89,1.12-1.56,1.6-2.38.49-.83,1.04-1.61,1.64-2.36.5-.64.76-1.4,1.06-2.14.06-.13.12-.33.06-.44-.36-.71-.45-1.56-1.03-2.14-.81-.8-1.4-1.72-1.86-2.75-.39-.87-.73-1.77-1.22-2.6-.4-.68-.69-1.44-1.02-2.16-.11-1.3-.88-2.39-1.14-3.64-.1-.47-.23-.92-.44-1.35-.56-1.15-1.19-2.25-1.69-3.43-.37-.89-.74-1.76-.82-2.73-.04-.47-.12-.95-.34-1.39-.36-.73-.51-1.51-.59-2.31-.06-.64-.21-1.26-.51-1.83-.3-.58-.42-1.21-.46-1.85-.07-1.12-.2-2.22-.67-3.26-.27-.59-.23-1.25-.27-1.89-.06-.96-.14-1.91-.58-2.79-.14-.28-.19-.61-.21-.92-.13-1.75-.24-3.51-.34-5.26-.02-.33-.08-.63-.23-.92-.35-.73-.49-1.51-.52-2.32-.04-1.12-.17-2.24-.17-3.35,0-.97-.08-1.9-.54-2.78-.14-.27-.17-.61-.19-.93-.1-2.08-.19-4.15-.25-6.23-.02-.81-.19-1.57-.48-2.33-.11-.29-.18-.62-.19-.93-.07-2.72-.2-5.44-.14-8.15.05-2.4-.1-4.79-.16-7.19-.02-.66-.2-1.25-.47-1.83-.21-.45-.24-.93-.25-1.41-.03-2.72-.05-5.44-.07-8.15,0-.96,0-1.92-.23-2.86-.08-.34-.83-.79-1.14-.63-.13.07-.24.19-.33.31-.27.41-.27.9-.37,1.36-.1.48-.31.91-.63,1.27-.97,1.06-1.98,2.05-3.25,2.79-1.65.97-3.25,2.01-4.99,2.85-.42.2-.65.67-.67,1.18-.05,1.28-.09,2.56-.17,3.83-.03.47-.11.95-.25,1.41-.19.61-.37,1.22-.4,1.87-.06,1.44-.12,2.88-.19,4.31-.03.65-.18,1.27-.48,1.84-.37.7-.22,1.59-.79,2.22-.11.12-.22.26-.36.31-.61.21-1.25.25-1.89.31-.63.05-1.28.02-1.89.28-1.38.6-2.83.5-4.25.31-.63-.08-1.17-.49-1.5-1.09-.08-.14-.18-.28-.19-.43-.15-2.24-.08-4.47.07-6.71.01-.16.01-.33.08-.47.7-1.5.59-3.12.75-4.71.07-.64.24-1.25.51-1.84.41-.89.47-1.85.54-2.81.05-.67-.23-1.24-.66-1.74-.1-.12-.24-.21-.35-.32-.57-.59-1.38-.79-2.01-1.29-.5-.4-1-.8-1.49-1.2-.31,0-.62-.04-.91.01-.11.02-.22.23-.28.38-.42,1.21-.25,2.54-.82,3.72-.13.27-.14.62-.17.93-.04.32-.04.64-.05.96-.08,1.44-.15,2.88-.24,4.31-.03.47-.03,1-.22,1.41-.65,1.34-.64,2.79-.81,4.22-.02.16-.02.33-.09.47-.77,1.48-.61,3.12-.78,4.7-.05.47-.08.97-.25,1.41-.36.91-.53,1.84-.57,2.8-.02.48-.06.96-.1,1.44-.05.64-.2,1.26-.48,1.84-.14.29-.25.59-.32.9-.2.93-.08,1.93-.49,2.82-.34.74-.43,1.53-.52,2.32-.07.64-.25,1.26-.55,1.83-.22.44-.34.9-.39,1.37-.09.97-.36,1.87-.78,2.75-.41.86-.33,1.89-.81,2.74-.4.72-.31,1.56-.47,2.33-.03.16-.02.33-.1.47-.86,1.55-1.06,3.34-1.86,4.92-.29.57-.69,1.1-.74,1.76-.1,1.15-.89,2.05-1.05,3.17-.09.64-.37,1.21-.63,1.8-.5,1.17-1.26,2.24-1.44,3.53-.57,1.14-1.04,2.34-1.83,3.36-.59.76-.99,1.64-1.46,2.47-.24.42-.38.88-.47,1.35-.09.48-.25.93-.52,1.32-1.27,1.85-2.39,3.78-3.36,5.8-.14.29-.27.59-.48.83-1.08,1.2-1.61,2.77-2.71,3.94-.89.95-1.5,2.06-2.11,3.19-.38.7-.76,1.4-1.22,2.05-.3.42-.17.91-.1,1.38.02.16.02.34.11.46.74,1.08.72,2.44,1.32,3.58.52.99.97,2.01,1.44,3.02.27.59.66,1.09,1.11,1.55.45.46.87.93,1.31,1.4.29.31.42,1.01.24,1.34-.38.7-.77,1.4-1.16,2.09-1.25,1.26-1.86,2.98-3.05,4.29-.62,1.12-1.48,2.09-2.13,3.18-.81,1.37-1.48,2.83-2.19,4.25-.71,1.43-1.39,2.87-2.13,4.29-.22.42-.56.77-.85,1.15-.22.29-.51.33-.85.14-.13-.08-.3-.13-.38-.25-.54-.79-.93-1.66-1.29-2.55-.11-1.14-.87-2.07-1.05-3.17-.16-.97-.72-1.77-.95-2.71-.35-1.4-1.01-2.68-1.77-3.89-.3-.48-.84-.59-1.16-.26-.33.34-.66.69-1.01,1.02-.35.33-.72.63-1.08.94-.31.27-.95.29-1.35.05-.42-.24-.85-.5-1.07-.93-.58-1.13-1.09-2.3-1.68-3.43-.13-.26-.45-.43-.71-.61-.29-.2-.55-.09-.74.28-1.36,2.71-2.72,5.42-4.04,8.14-.7,1.45-.98,3.03-1.7,4.46-.14.8-.12,1.61.17,2.36.34.89.74,1.77,1.17,2.62.36.71.7,1.43,1.2,2.07,1.19,1.5,2.03,3.25,3.41,4.62.22.22.41.5.55.78.43.88,1.13,1.53,1.8,2.22,1.78,1.84,3.75,3.48,5.36,5.48.23.28.28.6.13.83-.18.28-.48.41-.83.39-.48-.03-.94-.16-1.33-.45-.13-.09-.26-.18-.38-.3-2.04-2.04-4.05-4.09-6.11-6.11-1.49-1.47-2.63-3.21-3.83-4.9-.64-.9-1.15-1.91-1.8-2.82-.18-.26-.34-.55-.43-.85-.45-1.53-1.08-3-1.7-4.47-.38-.9-.33-1.88.06-2.8.56-1.32,1.18-2.61,1.61-3.99.38-1.22,1-2.34,1.56-3.49.63-1.29,1.21-2.6,1.81-3.91.07-.14.19-.28.21-.43.21-1.13.84-2.05,1.43-3.01.9-1.45,1-3,.31-4.58-.26-.59-.51-1.17-.58-1.82-.09-.8-.21-1.57-.55-2.32-.19-.43-.28-.91-.38-1.38-.09-.47-.1-.96-.2-1.42-.21-.93-.74-1.77-.75-2.76,0-.8-.1-1.6-.15-2.39-.03-.65-.22-1.26-.49-1.84-.21-.45-.26-.92-.29-1.4-.1-1.6-.16-3.19-.26-4.79-.02-.31-.09-.63-.21-.93-.29-.75-.48-1.52-.5-2.33-.03-1.12-.1-2.24-.1-3.36,0-3.36.04-6.72.06-10.07,0-1.13.15-2.22.62-3.27.33-.74.32-1.56.34-2.36.02-.81.21-1.57.55-2.31.2-.43.31-.9.42-1.37.11-.48.35-.89.57-1.32.23-.44.3-.91.4-1.37.07-.31.12-.63.25-.92.61-1.3,1.29-2.55,1.68-3.95.34-1.22.98-2.35,1.51-3.51.34-.73.35-1.55.75-2.27.39-.69.71-1.43,1.05-2.15.34-.72.68-1.44,1-2.17.83-1.91,1.98-3.64,2.92-5.49,1.08-1.4,1.76-3.03,2.65-4.55.64-1.1,1.2-2.25,1.93-3.31.91-1.31,1.6-2.76,2.31-4.19.71-1.43,1.43-2.85,2.36-4.15.28-.39.52-.81.72-1.24.96-2.03,2.32-3.81,3.51-5.69.77-1.21,1.61-2.39,2.25-3.67.52-1.05,1.16-1.9,2.29-2.3,1.04-.74,2.03-1.56,3.22-2.07.44-.19.86-.46,1.31-.56,1.43-.3,2.68-.95,3.95-1.66,1.1-.62,2.25-1.17,3.53-1.43,1.08-.22,2.07-.82,3.21-.9,1.15-.66,2.41-.8,3.7-.86.48-.02.97-.05,1.4-.27.86-.45,1.8-.64,2.72-.91.15-.04.27-.17.42-.24.72-.36,1.21-1.33.9-1.99-.42-.89-.71-1.79-.65-2.77.06-.99-.13-1.9-.63-2.76-.16-.29-.23-.59-.25-.92-.04-.64-.13-1.27-.16-1.91-.03-.65-.25-1.24-.53-1.82-.14-.28-.23-.61-.24-.91-.1-3.52-.18-7.03-.27-10.55.66.33.93.59.94.95.02,1.12.02,2.24.07,3.35.02.47.16.93.4,1.36.23.42.42.85.42,1.35,0,.96.03,1.92.02,2.88-.01,1.44-.05,2.88.79,4.17.16.24.14.61.16.93.03.81.13,1.59.55,2.3.33.57.39,1.21.43,1.85.02.34.12.62.32.89.5.66.75,1.39.69,2.23-.01.16.02.32.04.47.09.66.54,1.11,1.23,1.24.16.03.31.06.47.09.94.17,1.32.72,1.11,1.69-.1.47-.27.92-.4,1.38-.15.54.19.89.53,1.22.36.35.83.42,1.32.3.15-.04.28-.16.41-.24.14-.08.28-.16.42-.23.54-.27.88-.26,1.34.02.39.24.68.66,1.22.64.51-.02.86-.38,1.3-.54.12-.05.29-.03.42.01.14.05.27.16.38.27.35.35.56.79.66,1.26.11.53.42.88.88.99.64.16,1.27.04,1.75-.47.21-.23.36-.52.55-.77.32-.42.68-.42,1.18.02.12.1.23.22.34.33.82.81.86.84,1.81-.19.51-.55.97-.72,1.61-.3.11.07.31.09.42.04.57-.29,1.17-.55,1.65-.94.35-.29.56-.76.82-1.16.2-.31.47-.39.83-.36,1.08.07,1.79-.53,2.37-1.35.09-.13.17-.27.25-.41.07-.14.11-.3.19-.44.29-.5.4-.53,1.15-.15,1.76.9,1.48.52,1.65,2.5.07.8.1,1.6.17,2.39.03.31.1.63.21.93.28.76.4,1.54.42,2.35.08,2.72.19,5.43.26,8.15.01.5.17.94.36,1.38.14.32.15.59,0,.92-.51,1.06-.44,2.16-.21,3.27.57,1.01.61,2.12.65,3.25.1,3.2-.03,6.39.16,9.59.1,1.59-.11,3.19.55,4.73.18.42.13.94.16,1.42.1,1.44.18,2.87.29,4.31.02.31.11.63.23.92.33.74.46,1.52.48,2.33.05,1.76.13,3.51.18,5.27.01.49.16.93.36,1.37.2.44.38.88.41,1.37.05.8.11,1.59.14,2.39.03.81.18,1.58.52,2.32.07.15.15.3.16.45.11,1.11.25,2.23.28,3.34.04,1.15.8,2.09.82,3.23,0,.16.04.32.04.48.02,1.14.29,2.21.8,3.23.22,1.75,1.19,3.31,1.28,5.09.01.31.15.62.28.91.26.59.49,1.18.6,1.81.14.8.67,1.45.9,2.21.27.92.85,1.71,1.05,2.67.22,1.09.93,2.04,1.03,3.17.59,1.14.75,2.44,1.28,3.59.67,1.45,1.3,2.91,1.73,4.45.42.68.55,1.5,1.02,2.14.08.11.24.21.38.24.33.09.67.06.89-.15.35-.32.69-.67.95-1.06.44-.66.85-1.35,1.2-2.07,1.25-2.58,2.47-5.18,3.7-7.78.26-1.09.6-2.15,1.13-3.13.21-1.59,1.2-2.97,1.2-4.62,0-.31.12-.63.24-.92.31-.75.48-1.52.48-2.33.02-3.2.05-6.39.06-9.59,0-1.12-.05-2.24-.08-3.36-.01-.49-.18-.93-.32-1.39-.14-.46-.28-.92-.33-1.39-.11-1.11-.14-2.23-.23-3.35-.04-.47-.05-.99-.24-1.4-.49-1.05-.59-2.15-.64-3.27-.04-.81-.21-1.58-.58-2.3-.22-.44-.27-.91-.33-1.39-.11-.95-.04-1.93-.41-2.84-.37-.91-.49-1.85-.56-2.8-.05-.64-.11-1.27-.18-1.91-.04-.31-.08-.65-.21-.93-.42-.87-.47-1.88-.9-2.72-.89-1.71-1.46-3.53-2.16-5.3-.35-.89-.86-1.72-1.13-2.63-.32-1.07-.67-2.12-1.11-3.15-.12-.28-.06-.63-.09-.94-.04-.35.08-.64.39-.82.57-.34.97-.34,1.29-.02.22.22.48.43.64.7.41.68.53,1.5.99,2.17.28.4.34.89.49,1.34.2.6.46,1.19.68,1.78.27.74.33,1.55.72,2.27.46.84.87,1.71,1.18,2.61.31.9.57,1.82.96,2.7.39.87.37,1.88.83,2.74.23.43.26.92.31,1.4.05.48.08.96.1,1.43.03.65.2,1.26.47,1.84.13.29.27.59.32.9.13.79.25,1.58.31,2.38.06.97.73,1.78.73,2.76,0,.32.04.64.11.95.1.47.21.94.38,1.38.23.6.39,1.21.44,1.85.09,1.28.21,2.55.29,3.83.03.5.27.91.4,1.37.09.3.21.61.22.92.14,4.15.23,8.31.09,12.47-.04,1.13-.13,2.21-.59,3.27-.32.74-.21,1.57-.26,2.37-.04.65-.16,1.26-.45,1.84-.35.71-.66,1.46-1.05,2.15-.41.72-.28,1.58-.66,2.28-.46.86-.57,1.82-.94,2.7-.43,1.03-1.01,1.99-1.52,2.98-1.01,1.99-1.87,4.06-3,5.99-.08.13-.07.31-.08.47-.03.48,0,.98.39,1.31.36.31.81.5,1.17.81,1.71,1.45,3.31,3.01,4.75,4.73.2.24.31.56.49.82.18.25.37.57.63.68,1.1.47,1.68,1.38,2.31,2.33,1.63,2.44,3.83,4.26,6.52,5.46.27.12,1.13-.07,1.36-.26.62-.53.95-1.28,1.49-1.86.55-.58,1.01-1.25,1.57-1.81.91-.92,1.57-2.02,2.14-3.16.57-1.14,1.09-2.29,1.39-3.55.21-.92.69-1.78,1.09-2.65.27-.58.48-1.17.67-1.79.41-1.37,1.01-2.69,1.08-4.15.02-.3.18-.61.32-.89.29-.59.39-1.21.46-1.84.09-.79.2-1.58.31-2.37.58-.98.6-2.15,1.01-3.18.36-.9.58-1.82.68-2.78.06-.63.07-1.31.3-1.88.43-1.06.55-2.16.61-3.28.08-1.44.12-2.87.21-4.31.03-.47.07-.97.25-1.4.38-.93.3-1.88.32-2.83.02-.81-.09-1.59-.42-2.33-.2-.45-.24-.93-.26-1.41-.05-1.12-.04-2.24-.1-3.36-.07-1.43-.02-2.89-.69-4.22-.08-.79-.17-1.59-.25-2.38-.05-.48-.06-.97-.28-1.4-.53-1.02-.66-2.12-.71-3.25-.02-.64-.13-1.27-.43-1.85-.3-.57-.45-1.19-.51-1.83-.07-.8-.24-1.57-.59-2.3-.2-.42-.27-.91-.39-1.38-.34-1.39-1.02-2.69-1.08-4.15-.01-.3-.21-.59-.35-.88-.69-1.44-1.38-2.88-1.69-4.46-.65-.95-.61-2.14-1.13-3.14-.74-1.41-1.46-2.84-1.74-4.44-.74-1.59-1.5-3.17-2.01-4.85-1.49-3-2.99-5.99-4.45-9-.49-1.02-1.26-1.85-1.8-2.82-.39-.7-.76-1.4-1.15-2.1-.15-.28-.29-.57-.49-.82-.39-.51-.8-1-1.45-1.2-.15-.05-.31-.11-.44-.19-.83-.53-1.75-.75-2.73-.77-.48,0-.95-.09-1.39-.31-.85-.43-1.7-.88-2.57-1.28-.86-.4-1.84-.49-2.69-.98-.69-.4-1.42-.73-2.17-1-.9-.32-1.87-.42-2.73-.87-.43-.23-.92-.25-1.39-.32-.47-.07-.95-.14-1.42-.21-1.29-.79-2.76-.72-4.19-.87-.33-.03-.62-.11-.91-.27-.56-.31-1.15-.53-1.8-.62-.47-.06-.95-.16-1.39-.34-.6-.25-1.19-.47-1.83-.5-1.43-.08-2.87-.29-4.3.01-.14.03-.31-.08-.46-.1-.49-.06-.91-.55-.82-.99.06-.31.13-.62.25-.9.28-.63.23-1.21-.13-1.81-.34-.58-.41-1.19-.02-1.8.53-.84.71-1.77.68-2.75,0-.16-.02-.32-.04-.48-.19-1.14-.08-2.22.52-3.24.33-.56.34-1.22.37-1.86,0-.16-.02-.32-.03-.48-.01-.16-.03-.32-.05-.48-.15-1,.11-1.89.62-2.74.44-.73.47-1.5.11-2.28-.07-.14-.14-.29-.23-.42-.47-.68-.63-1.45-.62-2.27,0-.16,0-.32.02-.48.1-.83-.14-1.57-.58-2.26-.28-.43-.26-.91-.18-1.38.05-.31.17-.61.28-.91.26-.71.25-.71-.15-1.73-.12-.3-.29-.6-.29-.9,0-.85-.32-1.54-.9-2.14-.22-.23-.37-.51-.56-.77.15-.27.29-.55.47-.82.18-.27.38-.51.58-.76.52-.66.71-1.41.69-2.23-.02-.67.25-1.23.66-1.75.3-.38.57-.77.83-1.17.08-.12.07-.3.12-.45.12-.37.04-.67-.3-.82-.28-.12-.59-.16-.89-.24-2.78,1.75-3.01,1.63-5.19,4.15-.31.36-.61.74-.94,1.09-.34.35-.75.58-1.27.53-.49-.05-.97.02-1.38.28-.99.61-2.07.8-3.21.78-.48-.01-.96-.08-1.44-.06-.48.02-.95.11-1.35.41-.13.1-.28.15-.42.24-.62.39-1.19.28-1.75-.14-.54-.41-1.11-.62-1.74-.18-.72.51-1.46.6-2.23.15-.3-.18-.56-.15-.9.01-.58.28-1.19.44-1.84.44-.64,0-1.28-.01-1.91.06-.66.08-1.27-.14-1.89-.22-.47-.07-.92-.28-1.27-.62-.81-.77-1.69-1.49-2.39-2.35-.92-1.13-2.13-1.92-3.15-2.93-.3-.3-.57-.31-.75-.02-.08.13-.17.27-.19.42-.19,1.14-.07,2.21.61,3.2.45.65.8,1.38,1.19,2.07.11,1.18.96,1.99,1.51,2.95.32.55.74,1.04,1.1,1.56.19.27.24.59.13.92q-.75,2.25-.68,3.71c.03.64.05,1.28.08,1.92Zm-29.03,101.12c.1,2.41.18,4.48.29,6.56.02.48.08.95.29,1.4.27.59.4,1.21.45,1.85.07.96.14,1.91.24,2.87.03.31.08.65.21.92.51,1.04.52,2.17.7,3.27.05.31.15.64.33.89.18.24.47.42.75.56.28.14.49-.06.67-.41,1.26-2.41,2.77-4.66,4.47-6.78.6-.75,1.11-1.55,1.54-2.42.98-2.01,1.96-4.01,3.06-5.96,1.42-2.5,2.64-5.1,3.86-7.69.2-.43.48-.86.55-1.32.16-1.14.83-2.07,1.15-3.14.81-1.21.89-2.73,1.62-3.97.16-1.29.71-2.46,1.25-3.6.55-1.18.93-2.37.95-3.67,0-.65.19-1.25.47-1.84.27-.58.44-1.2.74-1.77.38-.73.53-1.5.63-2.29.04-.32.03-.68.19-.93.7-1.12.71-2.45,1.19-3.63.18-.44.34-.89.37-1.38.04-.64.11-1.27.16-1.91.07-.96.23-1.9.63-2.79.13-.28.18-.61.21-.93.08-.96.12-1.92.22-2.87.05-.47.13-.96.3-1.4.28-.76.43-1.53.48-2.33.08-1.43,0-2.89.73-4.21.1-.79.22-1.58.3-2.37.07-.64.15-1.27.42-1.86.27-.59.43-1.2.45-1.85.06-1.76.11-3.52.18-5.27.04-.96.11-1.92.52-2.81.2-.45.22-.93.24-1.41.08-1.76.15-3.51.22-5.27.02-.66.26-1.23.56-1.81.47-.9.41-1.85.17-2.8-.1-.39-.75-.79-1.12-.66-.75.25-1.49.53-2.26.73-1.38.36-2.69.99-4.16,1.01-.3,0-.61.17-.9.31-.58.28-1.19.51-1.83.51-1.16,0-2.12.67-3.2.95-.46.12-.95.2-1.37.4-2.44,1.19-4.86,2.41-7.28,3.62-.58.29-1.08.7-1.43,1.25-1.01,1.62-2.14,3.17-3.21,4.76-.8,1.19-1.36,2.54-2.38,3.58-.66,1.27-1.31,2.55-1.99,3.81-.83,1.54-1.56,3.14-2.54,4.61-1.06,1.6-1.8,3.37-2.77,5.03-.16.28-.31.57-.51.81-.94,1.11-1.64,2.38-2.26,3.66-.64,1.3-1.55,2.41-2.24,3.68-1.54,2.85-3.77,7.29-5.1,10.28-.39.88-.39,1.87-.89,2.72-.48.82-.82,1.73-1.23,2.59-.15,1.29-1.01,2.35-1.19,3.63-.09.64-.45,1.19-.65,1.8-.25.75-.37,1.55-.64,2.3-.22.6-.47,1.18-.51,1.83-.17,2.71-.27,5.43-.27,8.15,0,.65-.16,1.26-.37,1.87-.38,1.09-.33,2.2-.02,3.3.17.62.37,1.22.4,1.86.1,2.56.21,5.11.31,7.67.02.49.17.93.32,1.39.15.45.33.91.37,1.38.12,1.27.15,2.55.27,3.83.04.47.19.94.35,1.38.22.6.4,1.21.44,1.86.05.81.2,1.58.59,2.3.23.43.33.9.37,1.38.07.8.19,1.58.59,2.3.47.84.41,1.86.91,2.71.91,1.54,1.33,3.23,1.41,5.02.03.65.27,1.24.58,1.8.23.42.4.87.6,1.3.26.55,1.23.62,1.62.13.98-1.26,1.95-2.53,2.92-3.79.19-.25.41-.5.56-.78,1.1-1.99,2.68-3.56,4.37-5.05,1.09-.96,2.29-1.73,3.6-2.33.3-.14.62-.13.94-.08.32.05.62.17.8.46.05.08-.05.3-.14.42-.28.38-.55.79-.89,1.12-.92.88-1.89,1.72-2.83,2.59-1.29,1.2-2.49,2.48-3.59,3.86-.6.76-.99,1.64-1.43,2.49-.06.12-.05.3,0,.44.5,1.51,1.61,2.78,1.78,4.42.76,1.4,1.42,2.85,2.09,4.3.06.14.22.22.33.34.38.42.9.4,1.09-.06.63-1.48,1.32-2.91,2.44-4.09.21-.22.31-.55.45-.84.44-.85.89-1.69,1.31-2.55.57-1.14,1.13-2.27,2.01-3.24.65-.71.84-1.71,1.28-2.56.06-.12.04-.33-.01-.47-.28-.74-.51-1.52-.88-2.21-1.22-2.26-2.09-4.64-2.71-7.12-.27-1.08-.9-2.05-1.02-3.18-.02-.15-.11-.3-.18-.44-.38-.71-.62-1.46-.71-2.27-.06-.47-.1-.97-.28-1.4-.37-.9-.55-1.82-.6-2.79-.03-.8-.12-1.59-.22-2.39-.04-.31-.14-.62-.26-.92-.24-.6-.35-1.22-.39-1.86-.11-1.91-.04-3.84-.82-5.66-.12-.28-.14-.63-.14-.94-.01-1.44,0-2.88,0-4.32,0-.65.13-1.27.4-1.86.27-.59.39-1.21.41-1.86.03-.81.21-1.58.58-2.3.23-.44.27-.92.33-1.39.09-.79.13-1.59.21-2.38.05-.47.08-.97.26-1.4.36-.91.51-1.84.57-2.8.05-.8.19-1.58.51-2.33.18-.44.32-.91.4-1.37.15-.95.32-1.87.7-2.77.44-1.02.49-2.18,1.01-3.18.07-.8.13-1.59.19-2.39.05-.64.2-1.26.51-1.83.23-.43.31-.9.46-1.35.19-.61.42-1.2.67-1.79.31-.74.23-1.59.67-2.28.43-.69.57-1.48.82-2.23.3-.9.8-1.74.85-2.72.49-1.19.83-2.4.92-3.69.02-.31.15-.63.29-.91.37-.73.51-1.51.59-2.3.07-.64.19-1.27.48-1.85.21-.44.36-.9.38-1.37.06-1.32.56-2.48,1.21-3.6.18-.31.48-.4.82-.35.32.04.58.2.69.54.15.46.18.97,0,1.41-.36.89-.75,1.76-.79,2.74-.02.64-.24,1.25-.48,1.84-.18.44-.32.91-.37,1.38-.11.96-.35,1.87-.73,2.76-.3.73-.3,1.58-.63,2.29-.42.9-.52,1.83-.66,2.78-.05.31-.09.66-.26.91-.63.97-.51,2.19-1.08,3.16-.5.85-.38,1.9-.9,2.71-.62.98-.6,2.15-1.07,3.17-.2.43-.29.91-.41,1.37-.04.15-.05.32-.06.47-.05.98-.46,1.85-.77,2.75-.31.9-.16,1.92-.57,2.81-.34.74-.52,1.5-.64,2.3-.07.47-.14.96-.32,1.39-.39.9-.55,1.83-.6,2.79-.04.8-.13,1.6-.46,2.34-.26.59-.36,1.22-.4,1.86-.05.8-.08,1.6-.18,2.39-.06.47-.21.93-.39,1.37-.24.6-.42,1.2-.45,1.85-.07,1.92-.13,3.83-.18,5.42Zm81.39,23.89c-.13.05-.31.06-.4.15-.33.34-.73.67-.92,1.08-.48,1.03-1.11,1.91-1.98,2.66-.72.63-1.34,1.37-2.03,2.03-.95.91-1.44,2.08-1.99,3.23-.07.14-.07.31-.08.47-.1,1.38.36,2.5,1.53,3.28.4.26.85.46,1.2.78,1.18,1.07,2.33,2.18,3.47,3.29.92.89,1.79,1.82,2.71,2.71.34.33.74.6,1.12.89.29.23,1.07.11,1.29-.21.26-.4.49-.82.79-1.19.8-.99,1.63-1.97,2.46-2.94.83-.97,1.31-2.19,2.26-3.08.22-.21.34-.53.51-.8.13-.21.07-1.18-.1-1.39-.4-.5-.79-1-1.21-1.48-1.06-1.19-2.15-2.36-3.22-3.54-.58-1.35-1.68-2.32-2.57-3.43-.7-.87-1.47-1.68-2.41-2.31-.13-.09-.29-.14-.43-.2Zm-37.88-74.61c-.03-.15-.06-.3-.08-.46-.09-.56-.36-.82-.86-.86-.35-.03-.6.09-.79.39-.43.68-.59,1.39-.42,2.19.13.6.32.79.88.84.35.03.6-.07.79-.36.36-.53.43-1.14.47-1.75Zm.97-8.39c0-.59-.41-1.48-.57-1.41-.29.13-.57.28-.8.49-.24.2-.46.45-.61.72-.22.42-.37.88-.54,1.32-.19.47.08.8.67.89.65.09,1.39-.26,1.56-.79.15-.45.23-.92.29-1.21Zm-4.05,5.57c0-.1-.17-.23-.29-.3-.2-.1-.46.01-.6.34-.16.35.22,1.17.45,1.09.12-.04.24-.19.28-.31.09-.27.16-.55.16-.82Z"/><path class="cls-1" d="m177.34,364.5c0-1.28.03-2.24,0-3.2-.03-.96-.12-1.91-.19-2.87-.41-.87-.51-1.85-.87-2.73-.43-1.02-.9-2.04-1.57-2.95-.29-.38-.56-.78-.8-1.19-.15-.27-.24-.59-.33-.89-.41-1.39-1.03-2.68-1.87-3.85-.57-.79-1.07-1.59-1.22-2.56-.6-1.3-1.1-2.64-2.01-3.79-.69-.87-1.22-1.85-1.57-2.92-.13-.39-.03-.63.36-.77.15-.05.28-.14.43-.18,1.08-.3,1.99.03,2.47.9.15.28.3.56.45.84.44.84.89,1.69,1.33,2.53.14.27.96.51,1.29.47.82-.1,1.46-.66,2.23-.82.97-.2,1.78-.66,2.56-1.23.51-.37,1.09-.67,1.6-1.05.38-.28.72-.63,1.03-.99.42-.5.67-1.07.61-1.75-.07-.79-.14-1.58-.19-2.38-.03-.43.31-.94.75-1.1.33-.12.69-.09.87.15.59.75.96,1.64,1.37,2.49.49,1,1.04,1.97,1.57,2.95,1.22,1.31,1.87,2.95,2.65,4.52.64,1.28,1.3,2.56,1.92,3.85.62,1.29,1.3,2.56,1.61,3.98.77,1.57,1.54,3.14,2.32,4.71.86,1.71,1.67,3.44,2.51,5.16,1.73,3.59,3.57,7.12,5.39,10.67,1.24,2.41,2.43,4.84,3.5,7.33.25.6.44,1.19.48,1.83.11,1.6.12,3.19.03,4.79-.04.64-.15,1.26-.43,1.85-.53,1.16-.98,2.36-1.56,3.49-.58,1.13-1.13,2.3-2.03,3.23-1.01,1.64-2.21,3.12-3.53,4.52-.55.58-1.15,1.14-1.56,1.81-1.01,1.66-2.42,2.95-3.72,4.36-1.64,1.78-3.71,3.01-5.63,4.43-1.85.92-3.58,2.1-5.65,2.52-1.12.71-2.38.87-3.67.86-.64,0-1.26.14-1.86.37-1.4.52-2.8.54-4.2-.05-.29-.12-.61-.24-.92-.25-1.67-.04-3.05-.88-4.47-1.58-.42-.2-.78-.56-1.11-.91-.44-.47-.77-1.02-.84-1.68-.07-.63-.13-1.27-.16-1.91-.03-.64-.14-1.26-.38-1.86-.3-.76-.24-1.56-.23-2.36.01-.49.13-.96.39-1.36.69-1.07,1.35-2.17,2.16-3.15.91-1.12,1.5-2.45,2.44-3.54.3-.35.48-.82.7-1.24.58-1.13,1.22-2.25,1.71-3.42.43-1.02,1.03-1.99,1.15-3.13.6-1.14.79-2.43,1.34-3.57.49-1.02.47-2.19,1.06-3.17.16-.27.29-.59.32-.89.1-1.14.83-2.08.95-3.2.1-.95.15-1.91.23-2.86.03-.32.01-.66.13-.94.92-2.14.48-4.41.65-6.3Zm-.99,24.89c-.1,0-1.06.03-2.01.14-.47.06-.88.35-1.23.69-.11.11-.23.23-.31.36-.3.56-.56,1.14-.89,1.68-.41.68-.95,1.27-1.36,1.96-.49.81-1.21,1.5-1.65,2.33-.45.86-1.04,1.6-1.56,2.4-.29.45.06,1.2.63,1.49,1,.51,2.15.58,3.14,1.11.4.21.92.24,1.39.28.79.08,1.59.14,2.39.14,2.76,0,3.28-.11,5.97-1.38,1.58-.75,3.15-1.51,4.67-2.39,1.55-.9,2.77-2.12,3.91-3.46.5-1.01,1.21-1.88,2.01-2.65,1.39-1.34,2.34-3.02,3.46-4.56.75-1.02,1.31-2.18,1.86-3.33.41-.86.79-1.76,1.35-2.52,1.24-1.69,1.97-3.64,2.99-5.43.08-.13.12-.3.13-.45.03-.31.13-.67.03-.94-.89-2.38-2.38-4.49-3.1-6.95-.09-.29-.31-.56-.52-.8-.98-1.1-1.47-2.46-1.96-3.79-.28-.75-.53-1.49-.91-2.19-.75-1.4-1.48-2.82-2.15-4.26-.48-1.03-1.14-1.9-1.9-2.73-.38-.42-1.3-.47-1.74-.11-.64.53-1.07,1.16-1.11,2.02-.02.48,0,.96-.01,1.43,0,.33.07.63.24.92.8,1.38,1.69,2.71,1.75,4.39,0,.29.24.59.41.86.34.56.51,1.17.45,1.82-.12,1.27-.17,2.54-.06,3.82.06.63.07,1.27.04,1.91-.04.79,0,1.61-.28,2.36-.25.63-.26,1.2,0,1.83.18.44.12.92-.13,1.37-.23.42-.44.85-.48,1.34-.09,1.11-.29,2.19-.69,3.26-.34.88-.32,1.89-.66,2.78-.34.9-.49,1.85-.83,2.73-.34.9-.66,1.78-.88,2.72-.11.46-.48.82-.85,1.13-.39.32-.86.36-1.34.29-1.24-.76-2.79-.66-4.04-1.41-.26-.15-.62-.17-.93-.18-.8-.02-1.59,0-3.25,0Zm-1.79,20.29c1.31-.08,2.59-.17,3.86-.24.65-.04,1.23-.23,1.83-.48,1.62-.66,3.17-1.49,4.77-2.18.73-.31,1.49-.5,2.17-.95,2.64-1.73,2.65-1.71,4.81-3.88,1.12-1.13,2.23-2.28,3.34-3.42.33-.34.71-.67.94-1.08.86-1.56,2.21-2.71,3.32-4.07.81-.99,1.87-1.76,2.52-2.86.64-1.1,1.18-2.26,1.75-3.39.36-.71.72-1.42,1.05-2.14.13-.28.2-.6.22-.91.08-1.11.06-2.23-.06-3.34-.04-.39-.25-.68-.87-1.02-.43-.24-.74-.56-.99-.99-.35-.6-.56-.57-.94,0-.44.66-.91,1.31-1.32,1.99-.48.82-.95,1.66-1.35,2.52-.54,1.15-1.09,2.32-1.85,3.33-.87,1.15-1.52,2.43-2.37,3.58-.95,1.28-1.79,2.63-2.69,3.95-.27.39-.52.8-.83,1.16-1.36,1.57-2.77,3.09-4.34,4.45-.6.53-1.26.96-1.96,1.35-1.39.77-2.79,1.52-4.28,2.12-.44.18-.86.42-1.35.47-1.11.12-2.21.3-3.24.78-1.26.21-2.54.35-3.79-.04-.92-.29-1.82-.6-2.78-.62-1.13-.03-2.17-.42-3.23-.75-.44-.14-.87.25-.96.79-.13.83.21,1.55.44,2.31.36,1.17,1.11,1.89,2.18,2.36.44.19.89.37,1.3.59.43.23.89.35,1.37.39,1.11.09,2.23.15,3.31.23Zm11.39-24.69c-.03-.51-.17-1.02-.59-1.25-.97-.54-1.9-1.16-2.95-1.56-.6-.23-1.18-.47-1.82-.51-.8-.06-1.6-.1-2.33-.46-.53-.26-.93,0-1.3.29-.77.61-1.28,1.41-1.46,2.39-.14.8-.42,1.53-.77,2.25-.06.13-.02.32,0,.47.05.3.24.6.58.64,1.59.23,3.18.01,4.78.08,1.3.05,2.52.3,3.7.83.39.18.98-.11,1.19-.53.28-.57.58-1.14.82-1.73.11-.29.11-.62.15-.91Zm-3.42-21.55c.89-.08,1.83-.18,2.77-.26.32-.03.77-.86.61-1.13-.32-.55-.63-1.1-.96-1.63-.82-1.32-2.03-1.95-3.58-1.89-.47.02-.96.08-1.39.25-.25.1-.53.41-.6.68-.26,1.09-.14,2.2.03,3.3.23.2.46.4.69.6.79.03,1.57.06,2.42.1Zm.69,13.29c-1.62.06-2.9.07-4.17.18-.46.04-.85.39-1.15.78-.33.42-.25.98.2,1.16,1.03.41,2.06.83,3.2.85.79.01,1.58.15,2.38.21.81.06,1.43.67,2.23.77.36.05.66.02.82-.32.34-.71.65-1.43.95-2.16.05-.13,0-.32-.04-.47-.11-.5-.48-.79-.98-.88-1.26-.22-2.53-.16-3.45-.12Zm.53-2.69c.8,0,2.07.04,3.34-.02.46-.02.85-.36,1.11-.79.29-.48.25-.83-.12-1.26-.32-.38-.73-.65-1.2-.72-2.13-.3-4.45-.27-7.12.06-.33.04-.55.29-.75.56-.39.55-.41.84-.13,1.27.48.73,1.12,1.08,2,1.03.79-.05,1.59-.07,2.86-.13Zm-.18-5.77h3.58c.24-.18.56-.32.69-.56.26-.5-.16-1.3-.7-1.49-.45-.15-.91-.26-1.34-.44-.46-.19-.93-.22-1.37-.05-.75.28-1.5.41-2.3.42-.62,0-1.25-.01-1.87.13-.43.1-.75.44-.85.96-.07.37-.01.63.3.82.13.08.25.19.39.21,1.09.21,2.19-.03,3.47,0Z"/><path class="cls-1" d="m70.25,403.65c-1.28-.03-2.56-.05-3.83-.1-.32-.01-.65-.03-.94-.15-1.22-.49-2.5-.52-3.77-.56-2.08-.07-4.15-.13-6.23-.17-.81-.02-1.58-.16-2.34-.45-.29-.11-.61-.18-.93-.2-1.12-.08-2.23-.13-3.35-.22-.48-.04-1-.02-1.41-.22-1.65-.81-3.43-.65-5.17-.82-.49-.05-.95-.17-1.37-.39-.63-.34-1.21-.27-1.78.11-.13.09-.29.14-.44.19-.69.22-1.27-.19-1.34-.91-.08-.8-.12-1.61.19-2.36.38-.91.52-1.83.53-2.8.01-1.12-.08-2.25.28-3.33.09-.27.34-.57.59-.7.42-.21.91-.28,1.37-.43.15-.05.29-.14.41-.25,1.09-.95,2.43-1.53,3.56-2.42,1.37-1.09,2.72-2.23,4.19-3.19,1.47-.96,2.98-1.85,4.24-3.09,1.83-1.03,3.31-2.49,4.83-3.91,1.05-.98,2.13-1.92,3.32-2.74.91-.63,1.68-1.48,2.5-2.23.36-.33.63-.7.84-1.15.86-1.89,1.74-3.76,2.61-5.64.2-1.5,1.04-2.65,2.08-3.68.34-.34.66-.7,1-1.03.48-.47.74-1.01.75-1.69.05-1.92.12-3.83.17-5.75.04-1.28.11-2.55.58-3.77.17-.43.17-.94.2-1.41.07-1.28.11-2.55.16-3.83.03-.63.73-1.15,1.32-.92.61.24,1.09.64,1.28,1.31.04.15.08.31.1.46.04.32.05.64.09.95.08.69.53,1.19,1.07,1.51,1.09.65,2.19,1.32,3.49,1.5.48.06.92.26,1.35.47.74.36,1.54.41,2.34.4.48,0,.96-.06,1.43-.11.87-.1,1.83-1.1,1.86-1.94.05-1.44.09-2.87.13-4.31.01-.34.13-.63.39-.84.24-.18.56-.28.87-.13.3.14.45.46.46.79.11,2.24.03,4.47-.02,6.71,0,.3-.17.61-.32.9-.3.58-.42,1.2-.43,1.85-.02,2.08-.02,4.16-.05,6.23-.02,1.44-.09,2.88-.16,4.31-.02.48-.02.98-.18,1.42-.47,1.23-.47,2.5-.52,3.77-.07,1.92-.16,3.83-.22,5.75-.03.97-.14,1.91-.54,2.8-.2.45-.2.93-.22,1.41-.07,1.44-.11,2.88-.2,4.31-.03.47-.11.96-.28,1.4-.29.76-.45,1.52-.48,2.33-.07,1.6-.14,3.19-.23,4.79-.03.48-.04.96-.24,1.41-.32.74-.46,1.52-.49,2.33-.05,1.29-.33,2.51-.83,3.71-.3.73-.34,1.56-.55,2.32-.08.29-.31.55-.51.8-.31.39-.73.61-1.22.66-.95.09-1.91.17-2.87.23-.64.04-1.25.19-1.87.39-.45.15-.93.24-1.4.25-1.28.03-2.56.01-3.84.01,0,.02,0,.05,0,.07Zm-2.76-8.62h0c2.23-.01,4.47,0,6.7-.02.8,0,1.6,0,2.39-.11.62-.09,1.22-.37,1.84-.5.77-.16,1.59-.08,2.34-.38.14-.06.26-.19.35-.32.29-.4.35-.87.4-1.34.06-.65.42-1.21.53-1.83.14-.78.12-1.59.17-2.38.06-.96.12-1.91.19-2.87.1-1.42-.09-2.89.6-4.23.11-1.27.23-2.54.33-3.81.09-1.27.05-2.55.6-3.76.13-.28.14-.62.16-.94.1-2.55.2-5.1.28-7.66,0-.31-.05-.63-.13-.93-.04-.14-.17-.28-.3-.36-.38-.24-1-.18-1.31.08-1.36,1.13-2.59,2.35-3.4,3.95-.36.72-.91,1.31-1.69,1.63-.46.19-.78.5-1.01.96-.84,1.72-1.71,3.42-2.53,5.14-.2.43-.37.91-.68,1.25-1.08,1.21-1.71,2.68-2.51,4.06-.24.41-.46.85-.78,1.2-2.15,2.36-4.31,4.71-6.71,6.82-.77.68-1.67.87-2.67.72-.49-.07-.93-.29-1.19-.7-1.33-2.04-3-3.7-5.16-4.87-.46-.25-.92-.28-1.36-.08-.58.26-1.13.59-1.68.91-1.11.63-1.96,1.62-3.12,2.19-.56.28-.99.79-1.48,1.21-.6.52-1.24.97-1.96,1.35-1.27.66-2.54,1.34-3.67,2.24-.24.19-.41.48-.59.74-.2.28-.17.58.1.85.46.46,1,.78,1.67.82.48.03.96.07,1.43.08,3.99.08,7.98.15,11.97.23.48,0,.97-.04,1.42.16,1.06.47,2.18.47,3.29.48,2.39.02,4.79,0,7.18,0Zm2.39,6.77s0-.03,0-.05c1.12,0,2.24.01,3.36,0,.8-.01,1.61,0,2.39-.13.94-.16,1.81-.59,2.78-.67.47-.04.92-.21,1.38-.35.14-.04.31-.17.36-.3.43-1.02.67-2.1.93-3.18.09-.39-.41-.89-.87-.93-1.28-.12-2.55.1-3.83.13-.15,0-.31.09-.45.15-.75.31-1.53.43-2.34.43-4.64,0-9.27,0-13.91,0-.32,0-.64,0-.96-.04-.32-.03-.65-.06-.93-.18-.91-.38-1.85-.46-2.81-.48-3.36-.07-6.71-.18-10.07-.21-1.29-.01-2.53-.21-3.74-.62-.4-.14-.97.23-1.07.7-.1.46-.18.94-.19,1.41-.02.69.48,1.28,1.05,1.4.94.2,1.92.11,2.82.5.59.26,1.2.39,1.85.46,2.21.24,4.5-.11,6.63.81.64.06,1.27.15,1.91.17,2.4.08,4.79.13,7.19.21.47.02.98.05,1.41.22.91.36,1.85.45,2.82.47,1.44.03,2.88.05,4.31.08Zm.48-29.95s-.01.02-.02.03c.28.14.57.28.85.42.14.07.27.16.41.24.56.32,1.26.1,1.56-.48.36-.7.68-1.42,1.05-2.12.52-.99.57-2.13,1.1-3.12.22-.4.16-.92-.08-1.37-.3-.56-.43-1.18-.57-1.8-.19-.83-.78-1.35-1.45-1.79-.35-.23-1.03-.18-1.33.05-.9.69-1.58,1.56-1.95,2.62-.21.6-.33,1.22-.68,1.76-.53.8-.79,1.72-1.15,2.6-.3.74-.2,1.65.58,2.08.55.3,1.12.59,1.68.88Zm-11.99,8.05c-.16.02-.33,0-.46.08-.7.39-1.31.9-1.84,1.5-.39.44-.39.88-.06,1.21.7.67,1.61,1.03,2.34,1.64.73.61,1.47,1.22,2.22,1.82.12.1.26.19.41.24.46.18.94.18,1.39-.01.28-.13.53-.35.76-.56.69-.63.71-.97.14-1.56-.99-1.04-1.97-2.08-2.97-3.11-.33-.34-.69-.66-1.05-.97-.26-.22-.56-.3-.88-.27Zm12.33-3.81c-.02-.19.02-.38-.06-.5-.66-1.09-1.59-1.89-2.72-2.46-.47-.24-1.31-.14-1.75.24-.23.2-.46.41-.68.63-.44.45-.45,1.22,0,1.66.33.33.64.7,1.03.93.67.39,1.32.81,1.98,1.22.12.07.3.05.46.05.15,0,.33.03.44-.04.66-.42,1.26-.9,1.3-1.74Zm-3.95,4.58c-.04-.14-.04-.32-.12-.43-.94-1.25-2.03-2.34-3.32-3.23-.37-.25-1.34-.15-1.74.18-.31.26-.41.97-.21,1.25.92,1.27,2.01,2.37,3.35,3.18.53.32,1.18.26,1.74-.14.29-.21.4-.46.3-.81Z"/><path class="cls-1" d="m116.78,55.44c-.1.29-.15.61-.31.85-.35.51-.81.92-1.34,1.26-.47.3-.89.25-1.12-.2-.85-1.61-.72-1.44-.02-2.98.13-.29.29-.6.6-.67.45-.11.92-.03,1.31.26.24.18.45.41.67.63.24.24.31.53.23.86Z"/><path class="cls-1" d="m106.79,52.82c.41.02,1.27.75,1.39,1.19.31,1.11-.11,2.2-1.13,2.84-.27.17-.56.1-.81-.19-.53-.62-.82-1.32-.83-2.16,0-.72.36-1.17.94-1.5.13-.08.29-.12.43-.18Z"/><path class="cls-1" d="m109.8,64.55c-.13-.03-.29-.03-.41-.11-.89-.57-1.22-1.42-1.11-2.44.07-.69.48-1.14,1.12-1.39.13-.05.3-.07.43-.03,1.12.37,1.73,1.59,1.29,2.67-.24.59-.69,1.05-1.32,1.29Z"/></g></g></svg>