<?xml version="1.0" encoding="UTF-8"?><svg id="Lavender_Crowd" xmlns="http://www.w3.org/2000/svg" viewBox="0 0 250 430"><defs><style>.cls-1,.cls-2,.cls-3{stroke-width:0px;}.cls-2{fill:#9d5fdb;}.cls-3{fill:#fff;}</style></defs><g id="CIB24_Lavender_Rabie"><path class="cls-3" d="m153.16,426.12c-.42,0-.73-.03-.97-.14-.21-.1-.43-.18-.65-.23-.31-.07-.58-.08-.83-.09-.23,0-.45-.02-.55-.08-.21-.12-.42-.25-.62-.38-.2-.12-.39-.25-.59-.36-.19-.11-.38-.21-.58-.31-.29-.15-.56-.29-.78-.45-.47-.35-.97-.56-1.41-.74-.16-.07-.32-.13-.48-.2-.52-.24-1.03-.32-1.49-.4-.39-.06-.73-.12-1-.26l-.2-.11-.65-.03c-.35-.02-.7-.04-1.05-.04h-.31c-.32,0-.69.02-1.06.19-.52.24-1.12.26-1.8.29-.22,0-.45.02-.67.03-.41.03-.81.07-1.22.22-.45.17-.96.25-1.59.25-.44,0-.89-.04-1.33-.07l-.45-.03s-.14-.05-.22-.08l-.18-.07c-1.46-.55-2.74-1.56-4.02-3.19-.4-.51-.59-1.02-.57-1.56.01-.37,0-.74,0-1.11,0-.42-.01-.84.01-1.26.04-.68.2-1.36.37-2.08.08-.35.17-.71.24-1.06.14-.72.36-1.65.78-2.43.38-.71.86-1.52,1.46-2.21.52-.6,1.09-1.13,1.71-1.69.21-.19.42-.39.63-.58.14-.13.39-.26.58-.36,1.09-.57,2.19-1.14,3.29-1.7.1.07.25.15.4.24.03.02.06.05.09.07l1.49,1.03.07-1.81c0-.16.01-.32.02-.49.03-.45.15-.9.4-1.52.5-1.24,1.23-2.21,2.23-2.97.2-.15.44-.23.74-.24l.84.08.32-.81s.03-.08.05-.13l.33-1.15-1.19-.12c-.3-.03-.51-.09-.68-.21l-.17-.12-.21-.04c-.78-.14-1.31-.72-1.92-1.6-.57-.83-.61-1.65-.12-2.61.44-.87,1-1.54,1.66-2.02.43-.31.96-.53,1.52-.77.19-.08.38-.16.57-.25h3.39c.27,0,.54,0,.82,0,.11,0,.26,0,.32.02.17.08.37.16.62.22l.75.2.37-.68c.15-.27.24-.56.27-.86l.03-.32-.16-.28s-.03-.12-.04-.18l.38-.58c.38-.58.76-1.15,1.11-1.74.33-.55.69-1.21.92-1.93.1-.3.18-.6.26-.9.16-.59.31-1.16.58-1.64.16-.3.23-.6.26-.81.25-1.9.47-3.93.25-5.97-.11-1.07-1.05-1.87-2.17-1.87-.12,0-.24,0-.36.03l-.21.03c-.29.04-.58.09-.86.17-.22.06-.43.15-.63.25-.1.05-.2.09-.31.13-.35.13-.71.19-1.03.19-.23,0-.45-.03-.63-.1-.41-.15-.82-.27-1.24-.39-.35-.1-.7-.21-1.05-.33-.8-.29-1.58-.7-2.45-1.17-.31-.17-.64-.32-.96-.46-.26-.11-.52-.23-.77-.36l-.17-.09c-.89-.47-1.73-.92-2.41-1.57-.8-.77-1.78-1.63-3.03-2.15-.03-.02-.07-.06-.12-.09-.66-.51-3.93-3.68-4.27-4.17l-.28-.43c-.6-.93-1.22-1.88-1.91-2.79-.4-.52-.67-.98-.84-1.41-.35-.89-.86-1.65-1.35-2.38-.48-.73-.94-1.41-1.21-2.16l-.02-.07-.03-.06c-2.04-3.91-4.35-8.33-6.49-12.77-.21-.43-.43-.85-.65-1.28-.38-.71-.73-1.39-1-2.09-.16-.42-.36-.82-.55-1.22-.35-.71-.67-1.39-.76-2.09l-.02-.17-.07-.15c-.81-1.66-1.46-3.34-1.98-4.76-.48-1.31-1.1-2.57-1.69-3.78-.18-.36-.35-.73-.53-1.09-.15-.31-.25-.68-.35-1.07-.14-.53-.3-1.13-.63-1.71-.13-.23-.2-.53-.23-.94-.09-1.5-.73-2.71-1.35-3.87l-.05-.1c-.22-.41-.72-.72-1.17-.72h-.27l-.26.14c-.35.2-.63.54-.75.9-.15.43-.23.85-.31,1.26-.07.38-.14.73-.25,1.05-.5,1.41-.48,2.89.05,4.42.24.68.28,1.21.11,1.68-.33.91-.33,1.72,0,2.54.08.2,0,.46-.08.65-.29.7-.56,1.64-.08,2.65.05.11.06.17.06.19-.2.6-.41,1.33-.41,2.17-.01,2.2-.13,4.43-.35,6.61-.03.26-.07.48-.14.64-.34.82-.51,1.69-.54,2.68-.02.89-.06,1.79-.1,2.68l-.05,1.14c-.02.64-.12,1.09-.3,1.48-.3.64-.47,1.35-.52,2.22l-.02.37c-.04.67-.07,1.31-.16,1.94-.04.32-.16.69-.33,1.1-.29.65-.56,1.37-.59,2.19-.03.66-.25,1.33-.49,2.03-.2.61-.42,1.23-.52,1.91-.7,1.62-1.35,2.91-2.03,4.03-.25.41-.58.84-1.06,1.35-.59.64-1.19,1.28-1.78,1.91-.72.76-1.43,1.53-2.14,2.3-.34.37-.56.93-.59,1.49-.06,1.13-.04,2.46.53,3.75.16.36.3.67.29.95-.02,1.37.01,2.74.04,4.07.04,1.96.09,3.98-.02,5.96-.07,1.27-.05,2.54-.03,3.77v1.09c.02.75-.09,1.38-.33,1.92-.27.61-.3,1.2-.33,1.73-.03.6-.06,1.17-.08,1.74-.05,1.16-.11,2.36-.21,3.52-.03.28-.22.54-.54.72l-1.08-.15v1.06s-.05.91-.05.91l.7.26c1.18.94,1.83,1.87,2.1,2.96.04.18.12.36.19.53.03.06.06.13.08.2.06.2.13.4.2.61.15.45.3.88.34,1.28.1.89.11,1.69,0,2.37-.15,1.03-.43,1.85-.85,2.53-.08.13-.23.28-.43.45-.25.21-.5.39-.76.58-.19.14-.37.27-.55.41-.33.26-.6.4-.89.47-.4.1-.73.27-1.02.43-.56.29-1.12.41-1.72.54-.39.08-.78.17-1.16.29-.01,0-.06.02-.15.02-.11,0-.22-.01-.32-.03-.9-.17-1.61-.32-2.24-.5l-.11-.03c-2.84-.78-2.95-.79-5.55-.8h-1.46c-.23-.02-.69-.05-1.15-.06-.23,0-.46,0-.69,0-.84,0-1.84.06-2.82.55-.1.05-.3.08-.49.11-.26.04-.53.09-.77.17-.34.11-.59.16-.83.16-.13,0-.26,0-.38-.01-.16,0-.33-.01-.49-.01-.3,0-.54.02-.78.07-.17.03-.33.04-.49.04-.56,0-1.14-.16-1.76-.33-.37-.1-.75-.2-1.12-.28h0s-.05-.03-.2-.15c-1.26-.99-2.06-1.97-2.51-3.08-.23-.58-.51-1.13-.77-1.67l-.06-.13c-.51-1.04-1.33-1.75-2.51-2.14-.83-.28-1.72-.41-2.81-.41-.2,0-.41,0-.61.01-.37.01-.74.1-1.07.25-.42.19-.88.27-1.5.27-.28,0-.56-.02-.84-.04-.73-.05-1.27-.42-1.7-1.15-.76-1.3-1.22-2.61-1.38-3.87-.09-.76-.3-1.46-.62-2.13l-.09-.18c-.19-.39-.38-.79-.63-1.19-.28-.44-.61-.78-.97-1-.29-.18-.58-.38-.86-.58-.79-.56-1.69-1.18-2.82-1.44-.13-.08-.26-.16-.39-.24-.79-.48-1.54-.94-2.06-1.59-.23-.28-.43-.62-.59-.99-.16-.36-.27-.76-.39-1.18l-.07-.25c.13-.37.21-.74.29-1.09.13-.57.25-1.1.52-1.53.3-.47.57-1.02.83-1.67.23-.57.19-1.22-.09-1.76l-.07-.14c-.31-.59-.69-1.33-1.49-1.76-.25-.14-.48-.35-.75-.6-.19-.18-.39-.36-.6-.52-.98-.76-1.54-1.87-2.11-3.13h0s0-.03-.01-.11c-.05-1.01.16-2.08.66-3.26.14-.33.33-.66.54-1.01l.2-.35s.05-.07.06-.08c.21-.17.42-.34.63-.51.53-.44,1.03-.85,1.56-1.19,1.3-.83,2.8-1.14,4.1-1.33.23-.03.45-.06.68-.06.34,0,.63.05.89.17.29.13.56.17.79.2.09.01.18.02.26.05.68.2,1.29.49,1.86.88.76.52,1.44,1.13,2.07,1.71l.7.65.83-.83c.08-.08.15-.16.24-.23.38-.32.82-.57,1.28-.75l.06-.03.06-.03c.17-.09.34-.15.53-.17l.32-.02c.16-.02.29-.03.42-.03.38-.02.71-.03,1.05-.03.79,0,1.63.04,2.75.13l.29.53.59-.06s.47.32.47.32l.39.04h.16c.4,0,.75.04,1.04.12l.3.08.29-.1.13.09.25.02c.65.05,1.33.25,2.11.65.38.19.76.37,1.14.55,1.27.61,2.46,1.18,3.52,1.99.27.21.6.38.93.49.29.09.56.24.86.47l.66.5.62-.55c.19-.17.38-.35.56-.54l.43-.45-.2-.57c-.02-.27,0-.55.01-.85,0,0,.04-.81.05-1.02.03-.45.05-.89.04-1.34-.04-1.16-.59-2.12-1.62-2.79-.3-.2-.67-.44-1.13-.56-.38-.1-.75-.34-1.14-.58-.25-.16-.51-.32-.77-.46-1.08-.56-1.82-1.27-2.26-2.18l-.08-.17c-.13-.28-.28-.62-.57-.92-1.03-1.06-1.63-2.4-2.26-3.82-.27-.59-.53-1.19-.83-1.76-.05-.11-.08-.33-.11-.54-.05-.39-.12-.89-.4-1.36-.23-.39-.36-.86-.49-1.37-.14-.54-.31-1.16-.63-1.74-.2-.36-.29-.81-.39-1.29-.12-.59-.26-1.26-.62-1.9-.08-.15-.1-.42-.12-.71l-.09-1.04c-.06-.71-.12-1.42-.2-2.12-.04-.4-.1-.82-.29-1.23-.42-.93-.49-1.94-.51-2.89-.03-1.46-.18-7.68-.18-7.68-.02-.76-.14-1.47-.38-2.18-.14-.41-.21-.78-.21-1.09-.01-1.23-.03-2.46-.05-3.69-.06-3.97-.12-8.07.01-12.09.03-.83.14-1.45.36-2.01.27-.69.28-1.36.29-1.96v-.27c.09-2.72.16-5.44.21-8.16.02-.77.14-1.38.4-1.92.29-.62.36-1.25.38-1.79.06-1.68.12-3.36.17-5.04l.07-2.25c0-.43.02-.87.05-1.3.02-.24.06-.45.13-.62.34-.83.54-1.7.58-2.66.06-1.28.12-2.56.17-3.84.03-.65.11-1.11.29-1.5.34-.77.41-1.57.43-2.24.09-2.55.18-5.11.28-7.66v-.12c.02-.33.03-.71.12-.91.62-1.35.71-2.72.8-4.05.03-.43.04-.83.05-1.21.01-.41.02-.81.05-1.22.01-.15.07-.35.17-.61.33-.8.5-1.49.53-2.2v-.27c.06-1.18.1-2.36.17-3.54.01-.22.06-.42.12-.57.42-.93.66-1.95.73-3.13.02-.28.04-.57.06-.85.03-.36.06-.71.08-1.07.01-.25.1-.51.21-.82l.15-.45c.14-.44.3-.93.34-1.46.06-.68.09-1.35.13-2.03.03-.6.06-1.2.11-1.8.03-.37.14-.77.27-1.2.03-.12.07-.23.11-.34.12-.37.27-.79.28-1.3.01-.72.09-3.59.11-4.31.01-.48-.16-.92-.48-1.25-.3-.31-.7-.48-1.13-.48-.25,0-.49.06-.71.17-.12.06-.24.12-.37.18-.32.15-.68.32-1.03.55-.32.22-.63.47-.94.72-.31.25-.62.5-.95.71-.24.15-.49.28-.74.4-.45.23-.96.48-1.43.88-.51.44-1.13.75-1.82,1.09-.75.36-1.49.74-2.24,1.12-1.22.62-2.49,1.26-3.75,1.82-.14.06-.28.13-.42.2-.24.12-.44.23-.59.24-1.67.14-3.1.81-4.49,1.45l-.36.17c-.12.06-.24.12-.35.19-.08.05-.2.12-.25.13-.75.1-1.42.35-2.08.6-.42.16-.82.31-1.21.4-.08.02-.16.03-.25.04-.25.04-.57.08-.89.24-1.24.62-2.61.79-3.79.87-1.08.08-2.11.15-3.14.59-.11.05-.34.07-.55.08-1.23.1-2.43.15-3.66.15-1.11,0-2.27-.04-3.45-.12-.3-.02-.62-.12-.99-.3-.5-.25-.99-.33-1.43-.4-.34-.06-.64-.1-.87-.22-1.26-.63-2.57-1.34-3.45-2.53-.29-.4-.6-.78-.9-1.17-.05-.07-.09-.19-.13-.42-.34-2.12-.18-4.2.02-5.95.03-.23.08-.44.16-.59.34-.7.53-1.41.71-2.09l.09-.34c.08-.3.25-.62.46-.84,2.56-2.81,4.81-5.03,7.09-6.97.43-.37.9-.75,1.38-1.03.82-.46,1.6-1.07,2.47-1.91,1.38-1.33,2.93-2.4,4.58-3.52l.62-.42c.14-.1.29-.19.44-.28.28-.17.55-.35.81-.55.27-.21.54-.44.81-.66.68-.58,1.33-1.12,2.09-1.47.54-.25.96-.64,1.34-.98.13-.12.25-.23.38-.34.18-.15.35-.31.53-.47.28-.26.54-.5.8-.65,2.04-1.16,3.6-2.8,5.11-4.38.38-.4.77-.8,1.16-1.2.7-.71,2.91-4.06,3.41-4.92.39-.67.7-1.35,1-2.01.22-.49.45-.98.7-1.46l.09-.17.02-.19c.05-.47.26-.96.48-1.46.21-.5.44-1.02.56-1.61.11-.54.31-1.07.53-1.64.29-.74.58-1.51.69-2.38.77-1.51.82-3.14.87-4.46.03-.99-.51-1.9-1.44-2.43l-.14-.08c-.26-.15-.58-.34-.97-.44-.46-.11-.97-.18-1.6-.22-1.05-.06-1.97-.31-2.82-.74-.4-.21-.8-.28-1.16-.34-.14-.03-.29-.05-.42-.09-.23-.06-.31-.29-.32-.47v-.13c0-.09,0-.18,0-.26.05-.7.1-1.42.36-2.02.43-.98.63-1.83.66-2.68.03-1,.3-2.01.88-3.29l.24-.52c.42-.89.85-1.82.98-2.92,0,.02,0,.03,0,.03,0,0,.02-.02.03-.04l.06-.12c.14-.29.3-.59.46-.89.38-.71.77-1.45,1.03-2.26.29-.91.65-1.98,1.12-3.03.25-.55.5-1.09.75-1.64l.73-1.58c.13-.27.3-.61.34-1.02.09-.88.59-1.65,1.12-2.46.12-.18.24-.36.35-.54.18-.29.39-.56.59-.83.38-.5.77-1.02,1.07-1.66.1-.22.35-.48.58-.73l.12-.12c.74-.79,1.5-1.56,2.26-2.33.38-.39.71-.72,1.05-1.04.58-.58,1.17-1.16,1.73-1.75.33-.35.77-.63,1.23-.93.47-.3.96-.61,1.41-1.04.15-.14.23-.22.31-.29.48-.41.77-1.07.79-1.75.01-.59-.19-1.1-.56-1.45l-3.51-3.26c-.46-.43-.98-.72-1.44-.97-.24-.13-.47-.26-.7-.41-.52-.35-1.14-.56-1.84-.6-.44-.03-.78-.05-1-.17-.3-.15-.66-.31-1.08-.31-.22,0-.44.04-.65.13-.75.31-1.59.45-2.72.45-.52,0-1.05-.03-1.57-.06-.18-.01-.42-.1-.59-.17-.19-.08-.38-.18-.58-.28-.24-.12-.47-.24-.71-.34-.45-.19-.83-.54-1.21-.92-.69-.68-1.1-1.58-1.54-2.53l-.21-.45c-.16-.33-.27-.72-.38-1.13-.15-.52-.3-1.07-.58-1.61-.12-.24-.14-.59-.16-.97-.06-1.15-.22-2.6-.88-3.97-.05-.5-.06-.84.09-1.13.12-.24.24-.48.36-.72.23-.46.45-.91.71-1.35.04-.07.09-.15.16-.23l.46.83.96-1.73.91-1.68-.89.07c.04-.45.15-.86.31-1.26.16-.4.36-.78.56-1.16.4-.77.82-1.58.99-2.52.08-.45.27-.91.46-1.39.26-.64.55-1.35.63-2.16.43-.89.89-2.06.93-3.42,0-.06,0-.1,0-.13.73-1.53.86-3.12.97-4.65l.02-.29c.05-.7.21-1.35.48-2,.32-.77.47-1.64.46-2.73,0-.89.18-1.58.56-2.19l.12-.19.03-.22c.08-.62.31-1.23.54-1.88.19-.53.4-1.08.53-1.67.09-.38.17-.7.33-.9.57-.69.96-1.44,1.34-2.16.29-.56.57-1.09.91-1.56.14-.19.26-.39.38-.59.12-.2.23-.4.35-.53l.18-.2c.99-1.12,1.93-2.19,3.05-3.06.24-.19.47-.29.72-.32l.28-.04.22-.17c.21-.17.37-.3.55-.41l.29-.18.1-.29c.28-.25.57-.5.86-.73.14-.11.3-.16.51-.16.08,0,.16,0,.24.02l.5.07.77-.76v-.36s.23-.17.23-.17c.25-.19.49-.37.72-.49.59-.32,1.2-.61,1.81-.91l.67-.32c.18-.09.37-.19.55-.29.33-.18.64-.36.9-.41.63-.13,1.18-.35,1.72-.57.47-.19.92-.38,1.37-.46.82-.16,1.63-.45,2.46-.89.04-.02.09-.05.14-.07.23-.03.48-.06.73-.09.54-.06,1.1-.12,1.67-.27.35-.09.66-.23.93-.36.26-.12.52-.24.74-.28.39-.07.68-.1.95-.1.15,0,.3.01.45.04l.36.06.32-.19-.57-1.91,1.13.82c-.08-.46,0-.58,0-.59.88-1.3,1.36-2.72,1.82-4.09.21-.61.41-1.22.66-1.81.23-.56.32-1.12.39-1.64.09-.68.28-1.34.58-2.02.22-.51.35-1.01.48-1.5.14-.56.28-1.1.55-1.52l.08-.13.04-.15c.12-.45.33-.89.55-1.36.3-.64.64-1.36.78-2.18l1.76-3.82c.32-.71.65-1.41.99-2.11.33-.67.7-1.45,1-2.29.48-1.33.98-2.34,1.58-3.16.65-.88,1.13-1.82,1.53-2.63.91-1.85,1.96-3.78,3.44-5.39l.06-.06.05-.07c.42-.66.87-1.3,1.33-1.94.47-.66.94-1.33,1.38-2.01.4-.62.84-1.21,1.35-1.8.21-.24.42-.48.63-.71.78-.86,1.59-1.75,2.15-2.9.09-.19.3-.41.52-.63l.23-.24c.47-.51.95-1,1.43-1.5,1.19-1.23,2.43-2.5,3.44-3.98.05-.08.17-.21.43-.38,1.25-.85,2.31-1.88,3.33-2.88.6-.58,1.16-1.14,1.76-1.66.51-.44,1-.9,1.49-1.36l.56-.52c.74-.4,1.41-.87,2.06-1.33.63-.44,1.22-.86,1.85-1.2.28-.16.58-.3.87-.45.86-.43,1.75-.87,2.54-1.58.86-.51,1.76-.94,2.71-1.39.62-.29,1.24-.58,1.85-.9.04-.02.21-.04.33-.05.1,0,.2-.02.3-.04.11-.02.23-.03.34-.04.22-.02.44-.04.66-.09.34-.07.77-.16,1.18-.37.63-.33,1.37-.49,2.33-.51,1.23-.02,2.22-.23,3.11-.66,0,0,.27,0,.28,0,.86.38,1.79.59,3.01.7.4.04.78.26,1.24.58.93.65,1.36,1.65,1.84,2.81,0,0,0,0,0,.01-.12.39-.31,1.04.08,1.76.06.11.1.33.14.53,0,0,0,.01,0,.02-.16.29-.31.6-.46.9-.32.64-.62,1.24-1.01,1.77-.43.56-.78,1.15-1.13,1.73-.4.66-.77,1.28-1.23,1.83-.47.58-.39,1.1-.3,1.36.09.27.36.74,1.13.9.12.03.26.04.39.04.26,0,.5-.05.72-.15l.34-.15c.5-.22,1.01-.46,1.5-.78,1.25-.84,2.61-1.64,4.03-2.38,1.44-.75,2.89-1.46,4.35-2.17.98-.48,1.95-.96,2.93-1.45.36-.18.78-.3,1.21-.42.62-.18,1.33-.38,2-.8.75-.48,1.63-.8,2.39-1.05.19-.06.38-.12.57-.18.59-.18,1.21-.37,1.82-.69.66-.34,1.34-.69,2.02-.89.37-.11.78-.17,1.22-.23.35-.05.71-.1,1.06-.18.3-.07.57-.18.81-.27.19-.08.37-.15.51-.18.86-.15,1.72-.23,2.54-.23.49,0,.99.03,1.46.08.14.02.33.08.53.16l.17.06c.1.03.2.07.3.11.36.14.82.32,1.35.35.22.01.44.04.66.06.26.03.51.06.77.07.81.04,1.59.25,2.39.62.36.17.71.24,1.02.3.16.03.32.06.47.11.3.1.69.3.87.67.24.49.49.98.74,1.46.41.8.81,1.55,1.13,2.34.16.38.17.78.04,1.15-.2.56-.47,1.1-.76,1.68l-.19.39c-1.09,2.23-1.63,2.9-3.49,4.36-.84.39-1.48.96-2.1,1.51-.22.2-.45.4-.68.59-.76.61-1.48,1.07-2.21,1.42-.56.27-1.12.55-1.67.83-.99.5-2.01,1.01-3.03,1.43-.36.15-.75.26-1.16.39-.64.19-1.29.38-1.93.73-.9.19-1.7.56-2.46.91l-.29.14c-.94.43-1.91.88-2.92,1.08-.99.21-1.92,1.38-1.9,2.41,0,.41,0,.82,0,1.22,0,1.04-.01,2.11.14,3.2.12.83,1.05,1.61,1.91,1.61.19,0,.36-.04.53-.1.27-.11.55-.22.83-.33.77-.3,1.57-.62,2.33-1.05.22-.13.51-.19.84-.26l.26-.06c.51-.12.96-.3,1.4-.48.58-.24,1.08-.44,1.59-.45.78-.02,1.54-.21,2.27-.58.36-.18.8-.24,1.3-.32l.52-.07c.44-.06.95-.12,1.43-.36.83-.42,1.77-.55,2.76-.69l.17-.02c.37-.05.77-.17,1.18-.36.67-.31,1.31-.48,1.97-.54.81-.07,1.51-.23,2.17-.51.42-.18.91-.23,1.52-.25,2.56-.08,5.12-.17,7.68-.27h.13c.48-.02,1.08-.04,1.64-.29.58-.25,1.23-.36,2.15-.36.34,0,.67.01,1.01.03l.67.02c.17,0,.38.05.6.13.69.26,1.41.4,2.19.42,2.13.06,4.26.13,6.4.21l1.75.06c.52.02,1.01.13,1.45.35.53.26,1.06.34,1.52.41l.15.02c.22.03.45.05.68.07.34.02.67.04.86.15.62.35,1.25.53,1.87.71.6.17,1.16.33,1.6.64l.11.08.13.04c1.13.4,2.04,1.2,2.78,1.92.2.19.38.39.57.59.13.14.27.29.4.43.69.71,1.24,1.65,1.73,2.94.26.69.29,1.45.08,2.2-.08.29-.2.58-.31.86-.18.46-.37.93-.48,1.47-.01.07-.06.22-.25.48-.26.37-.55.73-.84,1.08l-.31.39c-.97,1.22-2.06,2.08-3.33,2.62-.45.19-.89.42-1.33.66-.56.3-1.08.58-1.61.75-.65.21-1.38.23-2.08.23h-.65c-.27,0-.55,0-.82.01-.63.03-1.27.05-1.9.07-.64.02-1.29.04-1.93.07-.41.02-.84.11-1.23.25-.59.22-1.23.33-2.01.34-2.08.02-4.17.05-6.25.09-.35,0-.7.05-1.06.09-.15.02-.3.04-.45.05-.47.04-.9.34-1.21.83-.34.54-.43,1.15-.25,1.64.06.16.13.33.2.49.11.26.21.51.27.74.14.57.07,1.02-.24,1.42-.53.71-1.21,1.33-1.87,1.93-.26.23-.56.42-.92.57-.33.13-.65.29-.97.44-.65.31-1.26.61-1.89.69l-.21.03-.18.11c-.66.41-1.42.66-2.31.78l-.17.02-.15.07c-.97.48-2.01.72-3.21.72h0c-.68,0-1.28.07-1.86.13l-.2.02c-.55.06-.99.28-1.26.63-.21.27-.29.61-.23.94.08.43.37.77.87,1.03,1.9.98,2.05,1.02,3.98,1.18.19.02.37.02.54.03.93.03,1.87.22,2.96.61.42.15.86.26,1.3.37.63.16,1.22.3,1.72.58l.18.1.2.02c.91.1,1.75.51,2.75,1.05.29.15.58.31.87.46.55.28,1.09.57,1.63.88.41.24.8.53,1.22.83.49.36,1,.74,1.58,1.06.8.44,1.45,1.17,2.14,1.95l.08.08c.2.23.38.52.57.82l.14.23c.5.78.87,1.63,1.27,2.54.11.26.23.52.34.78.07.15.12.36.14.61.1.97.05,2.01-.13,3.08-.03.15-.11.33-.21.5-.17.26-.36.51-.54.77-.29.39-.59.79-.85,1.24-.43.73-1.06,1.32-2.05,1.9-.39.23-.81.42-1.26.62-.44.2-.88.4-1.3.63-.23.13-.53.2-.97.23-1.22.09-2.15.13-3.02.13-.39,0-.78,0-1.17-.03-1.6-.08-3.21-.15-4.81-.2-1.07-.03-2.02-.09-2.87-.5-.77-.36-1.56-.39-2.27-.42-.15,0-.3-.01-.45-.02-.85-.05-1.46-.18-2-.41-.71-.31-1.43-.35-2.06-.38-.2-.01-.4-.02-.59-.04-.87-.09-1.46-.23-1.98-.48-.77-.37-1.58-.49-2.2-.55-.48-.04-1.03-.12-1.51-.35-.75-.36-1.54-.45-2.18-.53l-.32-.03c-.29-.03-.59-.05-.75-.13-1.48-.74-3-.82-4.46-.89h-.28c-.52-.04-.98-.06-1.33-.24-.8-.4-1.69-.62-2.71-.67h-.34c-.34-.03-.66-.04-.94-.09-.39-.08-.77-.19-1.15-.31-.82-.24-1.67-.49-2.64-.49h-.17c-.16,0-.32,0-.48,0-.7,0-1.4-.04-2.1-.08-.39-.02-.79-.05-1.18-.06-.31-.01-.63-.1-.98-.27-.68-.33-1.42-.51-2.24-.55l-.93-.04c-1.45-.06-2.89-.13-4.33-.2h-.13c-.14-.01-.35-.02-.42-.05-1.41-.71-2.89-.71-4.2-.72-.31,0-.61,0-.92-.01-1.12-.04-2.23-.06-3.35-.06-1.42,0-2.71.04-3.94.12-1.11.08-1.85.78-1.88,1.78-.02.26-.04.6.14.95.17.34.38.64.59.94,1,1.41,1.9,2.69,2.1,4.23l.02.13.05.12c.09.22.17.44.26.66.21.54.42,1.11.73,1.65.45.8.67,1.52.7,2.27.03.81.31,1.52.55,2.16.17.44.26.8.3,1.13.38,3.78.19,7.52-.03,10.37-.02.27-.11.56-.22.89l-.09.28c-.15.48-.28.98-.38,1.49-.08.44-.9,4.2-1,4.62-.13.61-.3,1.13-.53,1.6-.12.25-.24.5-.36.75-.51,1.04-1.04,2.12-1.29,3.36-.4.88-.86,1.76-1.3,2.61-.34.65-.68,1.3-1,1.96-.36.75-.82,1.49-1.4,2.29-.64.86-1.23,1.77-1.8,2.65l-.63.97c-.6.9-.28,2.28.69,3.01.57.43,1.14.67,1.76.76.29.04.58.07.87.1.33.03.65.06.98.12l.26.04.25-.09c.26-.1.56-.16.85-.17.14,0,.28-.01.43-.01.29,0,.53.02.74.07.43.09.85.17,1.28.25.75.13,1.46.26,2.14.46.31.09.63.16.94.22.23.04.44.08.64.14l-.27.41,1.4.32c.48.11.94.26,1.37.44l.34.15.33-.11c.5.18,1,.35,1.5.51.99.32,1.92.62,2.8,1.06l.23.11c2.49,1.23,2.54,1.26,4.54,3.27,1.01,1.02,2.02,2.03,3.01,3.07l.13.14c.57.6,1.12,1.17,1.42,1.85.17.38.43.74.78,1.08,1.3,1.26,2.14,2.85,2.95,4.5.3.6.62,1.19.95,1.77.3.53.59,1.06.86,1.61l.1.21c.26.54.56,1.14,1.05,1.66.63.68,1.14,1.47,1.68,2.31.41.63.83,1.29,1.32,1.91.24.3.44.67.66,1.07.43.79.85,1.57,1.27,2.35l.5.93c0,.1-.02.26-.05.36l-2.95,3c-.74.75-.81,2.01-.18,3,.09.14.18.29.27.44.42.71.94,1.59,1.97,2.08.56.85,1.2,1.47,1.97,1.93.43.26.76.59.92.94.32.68.77,1.24,1.17,1.72.3.37.58.72.79,1.08.62,1.12,1.41,2.03,2.16,2.85.16.17.33.33.49.5.17.17.34.34.5.52.36.41.72.83,1.07,1.26l.37.45c.35.74.82,1.36,1.28,1.95.48.63.94,1.22,1.18,1.88l.04.12.07.1c.62.93,1.08,1.96,1.56,3.05.23.52.46,1.04.7,1.54.2.42.33.91.47,1.42.15.57.3,1.15.58,1.73.02.05.02.23.02.35v.23c.02.22.02.44.03.66,0,.26,0,.52.02.78.06,1.1-.11,1.94-.54,2.64l-.12.19-.03.22c-.25,2.13-1.41,3.91-2.63,5.78l-.17.25c-.99,1.53-2.02,3.11-3.34,4.36-.74.7-1.38,1.52-1.89,2.45-.05.03-.11.05-.17.08-.08.04-.15.07-.23.11-.47.25-.93.56-1.37.93-.29.25-.56.5-.84.76-.53.49-1.03.96-1.6,1.31-.56.35-1.04.77-1.5,1.18l-.45.39.02,1c0,.47.02.95.03,1.42.01.38.02.82.18,1.25.21.57.19,1.22.16,1.91,0,.21-.01.42-.01.63-.26.68-.11,1.29,0,1.76.18.71.12,1.37-.15,2-.26.61-.25,1.26.02,1.79.2.38.23.8.22,1.39-.02,1.37-.08,6.72-.08,6.72,0,0,0,.2,0,.21-.46,1.26-.4,2.49-.35,3.67.03.54.05,1.05.02,1.54-.02.37.09.69.18.91.02.07.05.13.06.19,0,.07,0,.16-.02.23-.14.4-.34,1-.01,1.67.11.23.12.56.12.94v.65c.02,1.4.04,2.8.08,4.2v.45c.02.84.03,1.8.44,2.74,0,0,0,0,0,0-.01,0-.02.05-.02.11,0,.08,0,.16,0,.23l.08,5.38c0,.72,0,1.53.33,2.37.03.07.02.31.02.47,0,.12,0,.25,0,.37l.03,2.02c.01,1.25.03,2.49.06,3.74v.43c.01.73.02,1.55.35,2.37l.04.6c.04.61.08,1.22.1,1.83.02.54.04,1.29.41,2.04.09.18.14.45.14.72,0,.82-.02,1.71-.09,2.81,0,.09-.04.12-.11.14-.46.12-1.06.31-1.63.72-.14.1-.25.18-.29.2-.81.19-1.51.55-2.2.9l-.4.2c-.56.28-1.12.55-1.69.83-1.5.73-3.06,1.48-4.55,2.32l-.41.23c-1.18.66-2.37,1.32-3.53,2.01l-.26.15-.31.64c-.29.6-.46.96-.54,1.26v.06s-.03.12-.03.12l-.35,1.8,1.51-.64c.17.21.32.42.46.65.08.78.36,1.43.61,2.02.19.43.36.84.43,1.25.12.67.32,1.28.52,1.88.25.74.48,1.45.51,2.16.02.44.19.81.32,1.11l.06.14c.32.74.66,1.47,1,2.2.17.37.33.72.37,1.05.15,1.22.51,2.37,1.12,3.52.35.66.62,1.36.89,2.09.13.35.3.69.47,1.02.26.5.48.93.52,1.38.06.69.33,1.27.57,1.78.16.36.32.69.38,1.02.13.65.35,1.24.56,1.82.23.61.45,1.19.52,1.77l.03.23.12.19c.32.5.5,1.1.69,1.73.12.41.25.82.41,1.21.06.14.12.28.18.43.12.25.22.5.25.68.1.73.33,1.38.56,2,.1.29.21.58.29.88.05.17.06.39.07.63.01.22.02.44.06.66.02.15.04.3.06.45.06.52.13,1.12.38,1.68.36.8.53,1.66.58,2.89.04.9.25,1.78.67,2.68.14.32.23.68.25,1.03.25,4.63.27,8.4.05,11.87-.03.5-.16.98-.4,1.44-.15.3-.28.61-.4.93-.06.15-.12.3-.18.45-1.06,2.49-1.06,2.78.05,5.26.64,1.44,1.41,2.82,2.02,3.93.39.69.84,1.33,1.35,1.89l.53.58,1.03-.56c.26-.14.6-.24.96-.34.33-.1.66-.19.97-.32.66-.27,1.36-.41,2.12-.41.09,0,.5.01.62.01h.76c.26,0,.57,0,.83.07l.53.13c1.05.26,2.05.5,2.97.9,1.52.65,2.63,1.75,3.29,3.27l.03.06c0,.11.02.22.02.33.05.7.1,1.37-.1,1.93-.1.27-.18.54-.26.82-.13.46-.26.9-.47,1.24-.39.65-.58,1.39-.61,2.33-.02.97-.02,1.95-.01,2.92,0,.62.18,1.17.38,1.71.36,1.01.36,3.47,0,4.54-.22.65-.49,1.42-.82,2.15-.22.48-.51.95-.87,1.37-.31.37-.6.74-.9,1.11-.6.75-1.16,1.47-1.82,2.09-.21.2-.35.42-.47.6l-.09.13c-.65.95-1.52,2.18-2.56,3.23-.9.91-1.31,2.03-1.67,3.02-.2.53-.16,1.02-.12,1.27.16.96.3,1.71.46,2.4.11.47.34.89.51,1.16.47.78.84,1.68,1.16,2.83.12.43.11.61.1.68-.32,1.39-.64,2.51-1.51,3.33-.46.43-.91.88-1.35,1.32l-.55.55c-.9.89-1.99,1.53-3.26,1.91-1.45.44-2.66.77-3.94.82-1.04.04-1.99.34-2.83.61-1.07.34-1.99.93-2.81,1.81-.52.56-.88,1.08-1.13,1.65-.25.55-.58,1.08-.93,1.64-.2.32-.4.63-.58.96-.43.74-1.05,1.23-2.03,1.58-.65.23-1.3.44-1.96.64l-.49.15c-.14.04-.32.09-.46.1-.51.03-1.03.06-1.55.06h-.06Z"/><g id="Color"><path class="cls-2" d="m120.51,283.63c.04-1.97.09-3.89.1-5.81,0-1.12-.07-2.24-.07-3.36,0-2.56.06-5.12.07-7.67.01-2.8,0-5.6,0-8.4,0-.64-.07-1.27-.34-1.87-.13-.3-.12-.64,0-.94.18-.45.26-.91.26-1.4,0-.72.06-1.44.06-2.16,0-.88.04-1.75-.27-2.61-.11-.29-.13-.62-.14-.94-.04-1.2-.12-2.4-.06-3.6.11-2.24-.02-4.47-.07-6.71-.03-1.52-.11-3.04.13-4.55.03-.16.39-.39.56-.36.16.03.32.01.47.06.38.12.76.24,1.12.41.89.43,1.83.52,2.8.51.72,0,1.45-.09,2.1.33.64.05,1.28.05,1.9.17.66.12,1.12.58,1.42,1.18.07.14.08.31.09.47.02.4-.04.8-.19,1.17-.18.47-.18.92.01,1.39.12.29.16.62.18.93.04.96.06,1.92.08,2.88.01.91.32,1.04,1,.89,1.01-.22,2-.53,3-.79.85-.22,1.65-.56,2.44-.94,2.3-1.1,4.61-2.17,7.03-3.01.97-.34,1.9-.81,2.85-1.21,1.54-.66,3.05-1.39,4.63-1.94,1.37-.48,2.59-1.23,3.91-1.77,1.08-.45,1.23-1.36,1.44-2.27.07-.3.02-.64.03-.96.03-1.04.07-2.08.09-3.11,0-.27.15-.44.36-.57.07-.04.15-.07.22-.1,1.25-.52,2.54-.96,3.6-1.84,1.29-.64,2.44-1.5,3.66-2.27,1.15-.73,2.24-1.52,3.31-2.36.11-.09.29-.1.44-.13.15-.03.31.24.34.54.03.4.07.8.08,1.19,0,.32-.06.64-.06.96.01,1.12.03,2.24.07,3.36,0,.32.01.65.12.94.37,1.01.19,2.06.21,3.09-.25.45-.13.88,0,1.36.21.86.14,1.74-.22,2.58-.13.31-.15.66-.01.93.31.6.34,1.22.33,1.86-.03,2.24-.05,4.48-.08,6.71,0,.16.02.33-.03.48-.62,1.63-.2,3.32-.29,4.99-.02.3.19.6.23.92.03.22,0,.48-.06.69-.11.31-.22.6-.06.92.22.45.22.93.22,1.41.02,1.6.03,3.2.08,4.79.03.95-.03,1.92.36,2.83.09.21.05.47.05.71.03,1.68.05,3.36.07,5.03.01.8-.04,1.59.26,2.36.14.35.07.79.08,1.18.03,1.92.04,3.84.09,5.75.02.87-.05,1.76.33,2.59.05.88.11,1.75.14,2.63.02.56.05,1.1.31,1.63.17.34.24.77.25,1.16,0,.96-.03,1.92-.09,2.87-.03.53-.36.92-.85,1.04-.47.12-.91.28-1.3.56-.19.14-.4.3-.62.35-.87.21-1.63.65-2.41,1.03-2.07,1.03-4.18,1.99-6.2,3.12-1.95,1.09-3.91,2.15-5.77,3.38-.33.22-.65.47-1,.66-2.33,1.22-4.57,2.6-6.86,3.89-.9.51-1.83.97-2.76,1.44-1.78.9-3.58,1.76-5.26,2.84-.4.26-.84.46-1.26.68-1.28.65-2.48,1.43-3.7,2.19-1.48.93-2.94,1.91-4.6,2.52-.22.08-.44.19-.63.33-1.31.92-2.67,1.73-4.1,2.46-.42.22-.79.53-1.19.8-.33.22-.76.14-1.09-.16-.43-.4-.7-.86-.73-1.46-.03-.79.07-1.61-.38-2.34-.04-.72-.11-1.43-.12-2.15-.04-4.64-.06-9.27-.08-13.91,0-.88.04-1.76.06-2.64.01-.48.02-.96,0-1.44-.03-2.16-.07-4.32-.11-6.42Zm14.04-4.3s0,0-.01,0c0,.8-.03,1.6,0,2.39.07,1.34,1.2,2.6,2.53,2.81.87.14,1.76.18,2.61-.12.6-.21,1.23-.29,1.8-.62,1.17-.69,2.47-1.09,3.71-1.64,1.31-.59,2.49-1.42,3.75-2.11.22-.12.5,0,.52.22.12,1.46-.21,2.84-.7,4.2-.4,1.12-.79,2.25-1.17,3.38-.04.13,0,.32.06.46.16.42.56.55.95.36.58-.29,1.08-.67,1.56-1.1,1.92-1.72,3.44-3.77,4.81-5.93.64-1,1.21-2.06,1.3-3.31.03-.46.25-.92.41-1.37.05-.14.14-.29.26-.39.25-.2.53-.35.79-.53q1.77-1.2,3.12-2.58c.17-.17.33-.35.51-.51.44-.38.61-.93.86-1.42.19-.37.2-.79.1-1.17-.18-.69-.44-1.36-.67-2.03-.59-.59-.66-1.44-1.03-2.14-.33-.64-.64-1.28-.93-1.94-.04-.1.06-.3.14-.42.39-.54,1.02-.75,1.58-1.04,1.03-.54,1.77-1.34,2.29-2.37.14-.28.26-.58.41-.86.13-.24.11-.47.01-.69-.2-.44-.29-.91-.37-1.38-.04-.23-.12-.46-.24-.67-.32-.55-.65-1.1-1-1.63-1.68-2.48-3.92-4.39-6.37-6.07-.26-.18-.55-.34-.84-.45-.37-.14-.76-.22-1.15-.31-.49-.12-1.88.46-2.12.87-.04.07-.11.12-.13.2-.15.45-.33.9-.42,1.37-.07.39-.14.82-.03,1.18.2.69.28,1.4.41,2.1.15.77.46,1.52.7,2.27.09.3.18.61.25.92.04.15.04.32.04.47,0,.34-.16.62-.43.81-.31.21-.9.16-1.12-.06-.38-.41-.75-.83-1.14-1.23-.28-.28-.57-.56-.89-.8-.87-.68-1.84-.93-2.92-.56-.15.05-.29.14-.44.18-.24.07-.67-.22-.72-.49-.05-.23-.11-.47-.12-.7-.03-.55-.03-1.11-.05-1.66,0-.15-.47-.31-.61-.22-.9.56-1.62,1.33-2.11,2.24-.83,1.54-1.86,2.97-2.61,4.56-.09.2-.5.24-.61.08-.45-.66-.8-1.38-1.12-2.1-.42-.96-.98-1.83-1.73-2.56-.28-.27-.62-.51-.96-.7-.19-.1-.48-.14-.69-.08-.38.1-.76.25-1.1.46-.27.16-.51.39-.69.64-.24.32-.41.68-.6,1.03-.58,1.05-.92,2.2-1.41,3.28-.67,1.46-.93,3.04-1.41,4.55-.07.22-.08.47-.08.71,0,1.36-.04,2.72.02,4.07.04.89.4,1.7,1,2.38.9,1,2,1.56,3.37,1.54.32,0,.64,0,.96.02.17,0,.39.31.4.51.04.72.09,1.46-.17,2.13-.24.62-.24,1.25-.29,1.88-.04.56,0,1.12,0,1.68Z"/><path class="cls-2" d="m145.69,387.34c.64,0,1.28,0,1.92,0,.24,0,.5,0,.7.11.68.33,1.42.28,2.12.27,1.46-.02,2.85.25,4.22.71.3.1.61.23.92.24,1.05.04,1.98.62,3.03.65.95.41,1.98.62,2.94.99.96.37,1.89.85,2.82,1.32.71.36,1.39.77,1.96,1.35.84.86,1.87,1.49,2.81,2.23.17.14.46.08.63-.11.16-.18.34-.35.47-.54.22-.33.42-.68.63-1.02.64-1.01,1.45-1.93,1.89-3.04.53-1.33.95-2.7,1.35-4.07.36-1.22.61-2.47,1.08-3.66.09-.22.13-.47.13-.7,0-.74.33-1.39.47-2.09.13-.62.11-1.27.15-1.91.55-1.22.34-2.51.39-3.78.03-.75-.25-1.41-.56-2.06-.14-.29-.38-.56-.69-.63-1.28-.29-2.31-1.06-3.39-1.74-.59-.37-.84-.95-.65-1.66.04-.14.12-.35.24-.39.68-.23,1.28-.6,1.91-.94.62-.33,1.36-.44,2.02-.71.91-.37,1.84-.52,2.81-.48.72.03,1.47-.07,2.15.1,1.23.31,2.48.58,3.65,1.08,1.76.75,3.04,2.02,3.81,3.79.03.07.1.14.1.22.05.95.21,1.92-.12,2.85-.27.75-.39,1.55-.81,2.24-.34.57-.45,1.2-.46,1.84-.02.96-.02,1.92-.01,2.88,0,.48.16.93.32,1.39.45,1.25.43,3.95,0,5.2-.26.75-.53,1.5-.85,2.23-.26.58-.6,1.12-1.02,1.61-.93,1.1-1.75,2.28-2.79,3.28-.17.16-.29.38-.42.58-.81,1.19-1.67,2.35-2.68,3.37-.76.77-1.11,1.74-1.46,2.71-.08.22-.09.48-.05.71.13.78.27,1.56.44,2.34.07.3.22.6.39.87.58.96.97,2.01,1.27,3.08.1.38.19.81.11,1.17-.33,1.4-.69,2.79-1.8,3.83-.64.6-1.25,1.23-1.88,1.85-1.04,1.03-2.28,1.74-3.68,2.16-1.37.41-2.75.81-4.19.86-.89.03-1.72.29-2.56.56-.94.3-1.71.82-2.38,1.54-.39.42-.72.86-.95,1.37-.42.95-1.05,1.79-1.56,2.68-.61,1.06-1.49,1.64-2.56,2.03-.82.3-1.66.55-2.5.81-.23.07-.46.13-.7.15-.56.04-1.12.06-1.68.06-.48,0-.96-.03-1.41-.24-.14-.07-.29-.12-.45-.16-.54-.13-1.13.01-1.64-.28-.42-.24-.81-.51-1.22-.75-.48-.28-1.01-.49-1.45-.83-.52-.4-1.13-.57-1.71-.84-.81-.38-1.74-.26-2.53-.68-.48-.02-.96-.06-1.44-.07-.32,0-.67-.03-.95.1-.91.42-1.87.35-2.82.41-.32.02-.65.05-.94.16-1.25.47-2.52.3-3.79.21-.23-.02-.46-.13-.68-.21-1.86-.7-3.26-1.98-4.46-3.51-.5-.64-.81-1.37-.78-2.21.03-.8-.03-1.6.02-2.39.07-1.11.41-2.19.62-3.27.18-.92.43-1.88.88-2.71.45-.83.94-1.66,1.58-2.39.74-.85,1.59-1.58,2.4-2.35.23-.21.52-.37.8-.52,1.13-.59,2.27-1.17,3.4-1.75.22-.11.46-.1.69.02.21.11.43.22.63.34.22.12.38.29.4.55.02.24.02.48.08.71.06.23.14.46.27.65.4.59,1.06.97,1.38,1.64.05.11.25.17.4.23.22.09.49.1.67.23.45.32.84.73,1.31,1.03.39.26.92.22,1.31.54.69.56,1.52.86,2.29,1.28.37.2.74.28,1.15.27.48-.01.96,0,1.39.26.53.31,1.12.28,1.63.12,1.01-.31,2.04-.39,3.07-.36.76.02,1.39-.35,2.09-.46.57-.09,1.04-.41,1.53-.66.26-.14.5-.41.64-.68.16-.31.35-.51.69-.57.94-.18,1.54-.82,2.05-1.55.29-.41.33-.92.15-1.38-.28-.76-.71-1.43-1.34-1.95-.68-.55-1.34-1.14-2.06-1.63-.66-.45-1.37-.84-2.09-1.15-.95-.41-1.83-.97-2.86-1.21-.46-.1-.87-.39-1.31-.59-.51-.22-1.01-.54-1.54-.62-.95-.14-1.84-.52-2.82-.53-.71,0-1.43-.05-2.12-.34-.27-.12-.63-.06-.95-.06-.65,0-1.28-.03-1.84-.41-1.21-.22-1.93-1.09-2.56-2.02-.78-1.14-.83-2.36-.19-3.62.48-.95,1.12-1.78,1.97-2.38.7-.5,1.56-.79,2.35-1.16.14-.06.31-.05.47-.05.72,0,1.44,0,2.16,0,0,0,0,0,0,0Z"/><path class="cls-2" d="m78.43,414.17c-.12,0-.68-.04-1.24-.06-1.04-.02-2.07-.05-3.05.43-.42.2-.94.18-1.39.33-.39.13-.76.22-1.17.21-.48,0-.97-.06-1.44.02-1.32.25-2.51-.32-3.75-.56-.22-.04-.44-.19-.62-.34-1.21-.95-2.23-2.04-2.82-3.5-.24-.59-.52-1.16-.8-1.73-.41-.82-1.03-1.33-1.93-1.64-1.02-.35-2.03-.39-3.07-.35-.23,0-.48.06-.69.16-.91.41-1.86.39-2.82.32-1.15-.08-1.95-.72-2.49-1.65-.76-1.31-1.32-2.73-1.5-4.25-.08-.65-.25-1.25-.53-1.82-.21-.43-.41-.87-.66-1.27-.17-.26-.39-.53-.65-.69-1.15-.7-2.15-1.68-3.54-1.93-1.01-.64-2.09-1.19-2.85-2.14-.3-.37-.55-.79-.73-1.23-.22-.51-.36-1.05-.51-1.59-.04-.15-.06-.33-.01-.47.35-.97.38-2.04.96-2.94.3-.47.54-.98.74-1.5.11-.29.11-.63-.05-.93-.3-.57-.58-1.18-1.16-1.49-.58-.32-.98-.81-1.48-1.2-1.18-.91-1.82-2.2-2.41-3.51-.06-.14-.09-.31-.1-.46-.07-1.3.24-2.53.74-3.71.22-.51.52-.99.8-1.47.08-.14.18-.27.31-.37.75-.6,1.46-1.24,2.27-1.76,1.36-.87,2.91-1.24,4.5-1.47.71-.1,1.43-.12,2.12.19.28.13.62.12.93.21.76.23,1.47.55,2.14,1.01,1.2.82,2.21,1.83,3.25,2.82.87.82,1.67,1.72,2.56,2.52.83.74,1.72,1.41,2.62,2.07.9.66,1.84,1.27,2.77,1.87.33.22.71.36,1.06.54.32.16.62.06.91-.08.36-.17.69-.38.88-.77.13-.29.32-.55.47-.83.35-.64.55-1.32.49-2.07-.03-.32,0-.64,0-.96-.01-.33-.14-.62-.33-.88-.66-.92-1.52-1.63-2.31-2.43-.21-.21-.17-.28.25-.47.37-.17.73-.34,1.12-.08.89.06,1.7.35,2.49.75,1.64.82,3.34,1.52,4.81,2.64.19.14.41.26.64.33.95.31,1.63.98,2.28,1.69,1.3,1.42,2.45,2.94,3.18,4.74.09.22.23.44.24.67.04.89.56,1.67.59,2.56.47,1.05.47,2.16.44,3.28-.03,1.28.02,2.56.04,3.83,0,.48,0,.96.24,1.4.07.14.12.31.1.46-.17,1.26.51,2.09,1.34,2.9.76.74,1.58,1.34,2.56,1.73.74.29,1.48.58,2.23.84.3.1.62.16.94.17,1.12.02,2.24.03,3.35,0,.39-.01.8-.1,1.16-.25.62-.26,1.25-.23,1.89-.18.22.02.48.12.65.26,1.14.92,2.04,2.02,2.39,3.49.06.23.18.44.25.67.21.68.49,1.36.58,2.06.1.87.13,1.77,0,2.63-.15,1.01-.44,2.02-.99,2.91-.16.27-.4.5-.65.7-.43.36-.89.67-1.33,1.01-.38.3-.78.53-1.26.65-.3.07-.59.24-.87.38-.93.49-1.99.55-2.97.86-.29.09-.64.07-.95,0-.78-.14-1.56-.31-2.33-.52-2.85-.78-2.84-.79-5.39-.79-.32,0-.64,0-1.4,0Z"/><path class="cls-2" d="m119.63,203.39c0-1.84,0-3.67,0-5.51,0-.24.05-.51-.04-.71-.45-.99-.28-2.04-.3-3.07-.02-2.08,0-4.16,0-6.24,0-.64-.03-1.27.23-1.88.12-.28.1-.62.11-.94.03-1.84.05-3.68.06-5.51,0-1.27-.14-2.55.32-3.79.08-.21.03-.48.03-.72.03-1.2.05-2.4.08-3.59.01-.4-.03-.83.11-1.19.43-1.08.34-2.2.37-3.31.03-.96,0-1.92.01-2.88.02-1.03-.07-2.08.35-3.07.05-.8.09-1.59.13-2.39.04-.79.04-1.58.31-2.36.18-.51.13-1.1.18-1.66.05-.56.09-1.11.13-1.67.48-.87.28-1.87.6-2.8.31-.89.47-1.84.7-2.77.38-1.56.85-3.07,2.02-4.26.92-1.53,2.24-2.72,3.55-3.87,1.07-.95,2.29-1.73,3.65-2.25.37-.14.77-.22,1.16-.24.48-.03.97-.03,1.43.07,1.17.25,2.36.39,3.5.73.83.25,1.75.24,2.5.75.07.04.15.09.18.15.02.04,0,.15-.04.19-.74.61-1.51,1.15-2.35,1.62-.35.19-.7.39-1.03.61-.26.18-.51.39-.73.62-.17.17-.32.36-.42.57-.39.79-1.24,1.26-1.48,2.16-.99,1.83-1.62,3.8-2.32,5.75-.24.67-.4,1.38-.67,2.04-.39.96-.75,1.93-.85,2.97-.05.55-.45,1.02-.44,1.6,0,.56-.2,1.1-.29,1.64-.14.78-.12,1.59-.15,2.39-.03.72-.03,1.44-.06,2.16-.02.56-.01,1.11-.25,1.64-.12.28-.1.62-.11.94-.04,1.12-.06,2.24-.09,3.35-.01.48-.01.96-.08,1.43-.07.47-.28.92-.31,1.39-.07,1.28-.08,2.56-.1,3.83-.01.64.02,1.28,0,1.92-.04.87.03,1.75-.34,2.59-.12.27-.07.63-.07.95,0,.96,0,1.92,0,2.88-.02,2.56-.07,5.12-.07,7.67,0,3.68.05,7.35.06,11.03,0,.49.1.94.24,1.4.11.37.09.79.08,1.18,0,.33-.16.65-.46.79-.79.38-1.57.81-2.4,1.05-.93.26-1.74.78-2.66,1.05-.15.04-.31.1-.43.2-.94.76-2.11,1.13-3.06,1.87-.21.16-.41.03-.43-.28-.03-.64-.07-1.28-.08-1.91-.01-1.44,0-2.88,0-4.32h0Z"/></g><g id="Lines"><path class="cls-1" d="m86.23,76.45c-.09-.48-.12-1.01.14-1.4,1.18-1.75,1.6-3.81,2.38-5.72.18-.45.26-.92.32-1.39.11-.8.33-1.55.66-2.29.45-1.02.48-2.19,1.09-3.15.33-1.23,1.16-2.28,1.33-3.58.47-1.01.94-2.03,1.41-3.04.47-1.01.92-2.04,1.42-3.04.35-.72.69-1.43.96-2.19.43-1.2.95-2.37,1.72-3.41.57-.78,1.01-1.62,1.44-2.49.99-2.01,2.07-3.97,3.6-5.63.86-1.34,1.84-2.61,2.7-3.95.43-.68.91-1.31,1.43-1.91.94-1.09,1.99-2.07,2.64-3.39.21-.42.58-.76.91-1.11,1.62-1.76,3.42-3.37,4.78-5.36.17-.26.43-.47.69-.65,1.86-1.27,3.31-3.01,5-4.47.72-.63,1.41-1.3,2.12-1.94,1.42-.75,2.61-1.82,4.02-2.59,1.11-.61,2.34-1.06,3.29-1.95,1.51-.9,3.14-1.56,4.7-2.37.27-.14.62-.14.94-.18.32-.05.64-.05.95-.11.31-.06.63-.13.91-.27.88-.46,1.82-.61,2.78-.63.97-.02,1.91-.16,2.78-.6.13-.07.31-.05.47-.06.16,0,.33-.02.47.04.88.41,1.82.58,2.78.66.65.06,1.19.38,1.73.75,1.26.88,1.77,2.22,2.32,3.55-.07.45-.37.87-.09,1.37.15.27.2.59.26.9.03.15.03.34-.04.47-.54.97-.95,2.02-1.63,2.93-.87,1.15-1.47,2.47-2.39,3.58-.26.32-.17.55.27.65.15.03.34.02.47-.04.58-.27,1.18-.51,1.71-.86,1.33-.89,2.7-1.69,4.12-2.43,2.41-1.26,4.86-2.41,7.29-3.63,1-.51,2.15-.55,3.12-1.18.8-.51,1.71-.86,2.62-1.16.76-.25,1.53-.44,2.24-.8.71-.36,1.43-.73,2.19-.96.76-.23,1.57-.26,2.35-.43.46-.1.89-.38,1.36-.46,1.42-.25,2.86-.33,4.29-.16.31.04.61.16.91.27.45.16.87.38,1.37.41.48.02.95.11,1.43.13.97.05,1.88.3,2.76.72.42.2.94.21,1.39.37.62.21,1.16.6,1.45,1.19.62,1.29,1.35,2.53,1.89,3.85.25.62.27,1.27.06,1.87-.27.75-.65,1.46-1,2.17-1.17,2.4-1.83,3.2-3.87,4.78-1.06.45-1.8,1.31-2.66,2.01-.75.6-1.54,1.13-2.41,1.55-1.59.75-3.13,1.61-4.75,2.27-1.02.42-2.15.58-3.13,1.14-.96.17-1.81.61-2.68,1.01-1.01.47-2.03.93-3.14,1.16-.55.11-1.11.88-1.1,1.41.03,1.44-.06,2.87.14,4.3.05.39.72.87,1.06.72,1.02-.43,2.08-.78,3.05-1.33.43-.24.9-.31,1.37-.42,1.08-.25,2.03-.93,3.19-.96.64-.02,1.26-.18,1.84-.47.58-.29,1.22-.35,1.85-.45.47-.07.98-.1,1.4-.3,1.03-.52,2.13-.65,3.24-.81.31-.04.62-.15.91-.28.73-.34,1.5-.56,2.3-.62.64-.05,1.26-.18,1.86-.43.6-.25,1.23-.3,1.88-.32,2.56-.08,5.11-.17,7.67-.27.47-.02.99-.02,1.41-.2,1.39-.61,2.82-.43,4.26-.4.31,0,.64.09.93.2.61.23,1.22.34,1.87.36,2.72.08,5.43.17,8.15.27.65.02,1.27.17,1.85.45.44.21.92.27,1.39.34.63.1,1.32.02,1.87.34,1.12.64,2.48.65,3.55,1.4,1.23.44,2.22,1.25,3.14,2.14.34.33.66.7.99,1.04.91.94,1.49,2.08,1.94,3.28.35.91.37,1.89.1,2.83-.22.76-.61,1.47-.77,2.26-.06.3-.23.6-.41.85-.37.52-.78,1.01-1.18,1.51-1.01,1.27-2.22,2.28-3.73,2.92-1.03.44-1.97,1.09-3.02,1.44-1.22.4-2.54.23-3.81.29-1.28.06-2.56.08-3.84.13-.31.01-.64.08-.93.19-.76.29-1.54.39-2.35.4-2.08.02-4.16.05-6.24.09-.48,0-.95.09-1.43.14-.36.03-.75.74-.61,1.13.17.45.39.88.5,1.34.2.8.11,1.58-.41,2.27-.58.77-1.29,1.42-2,2.07-.36.33-.77.57-1.21.75-1.03.42-1.98,1.05-3.12,1.2-.83.51-1.74.79-2.7.92-1.16.58-2.4.83-3.7.83-.64,0-1.28.08-1.91.14-.39.04-.64.21-.61.41.02.12.21.24.34.31q1.8.93,3.62,1.08c.16.01.32.02.48.03,1.13.04,2.19.29,3.27.67,1.04.37,2.18.46,3.18,1.02,1.14.12,2.13.63,3.12,1.16.84.45,1.7.87,2.53,1.35.96.56,1.78,1.33,2.77,1.88.98.54,1.73,1.41,2.48,2.25.31.35.55.78.81,1.18.69,1.08,1.15,2.27,1.68,3.44.13.28.19.61.23.92.11,1.12.05,2.24-.14,3.34-.05.3-.19.61-.36.88-.44.67-.97,1.28-1.37,1.97-.59,1-1.42,1.68-2.41,2.26-.83.49-1.74.79-2.58,1.26-.42.24-.9.32-1.38.36-1.44.11-2.87.18-4.31.11-1.6-.08-3.19-.15-4.79-.2-1.12-.03-2.22-.1-3.27-.59-.73-.34-1.56-.3-2.36-.35-.8-.05-1.58-.17-2.33-.49-.75-.33-1.57-.26-2.36-.34-.8-.08-1.58-.22-2.31-.58-.59-.28-1.21-.39-1.85-.45-.64-.06-1.27-.17-1.85-.45-.59-.28-1.22-.36-1.85-.43-.47-.05-.99-.06-1.4-.26-1.34-.67-2.77-.72-4.2-.79-.64-.03-1.29-.04-1.87-.34-.73-.37-1.5-.53-2.31-.57-.48-.02-.97-.02-1.43-.11-1.24-.26-2.4-.82-3.73-.78-1.28.04-2.56-.09-3.83-.14-.49-.02-.95-.16-1.38-.38-.59-.29-1.2-.42-1.84-.45-1.76-.08-3.52-.15-5.27-.24-.32-.02-.67-.01-.94-.15-1.5-.75-3.13-.58-4.71-.63-2.4-.08-4.8-.1-7.19.06-.6.04-.93.32-.95.82,0,.16-.03.34.03.47.14.28.33.55.51.81,1.02,1.44,2.04,2.87,2.28,4.68.31.74.55,1.51.94,2.2.48.86.78,1.74.83,2.72.03.64.26,1.24.49,1.84.17.44.31.91.36,1.38.35,3.51.24,7.03-.02,10.54-.04.49-.21.93-.35,1.39-.14.45-.26.92-.35,1.39-.08.44-.91,4.22-1,4.64-.14.63-.32,1.23-.6,1.81-.61,1.3-1.33,2.55-1.6,3.99-.72,1.6-1.59,3.13-2.36,4.7-.42.87-.92,1.66-1.5,2.44-.85,1.16-1.61,2.38-2.4,3.57-.31.47-.07,1.26.46,1.66.39.29.82.5,1.3.57.63.09,1.27.12,1.9.22.4.07.59.29.49.5-.06.13-.21.25-.34.32-.28.16-.58.27-.86.42-.58.33-1.18.46-1.83.22-.45-.16-.9-.33-1.36-.44-.65-.15-1.3-.05-1.8.39-.72.63-1.44,1.3-1.9,2.15-.46.86-1.06,1.59-1.74,2.28-.9.91-1.81,1.81-2.74,2.68-.35.32-.75.61-1.16.84-1.11.63-2.22,1.26-3.37,1.81-.87.42-1.69.9-2.45,1.48-.52.4-1.11.63-1.74.74-.16.03-.32.04-.47.11-1.31.58-2.55,1.33-3.94,1.71-1.4.38-2.65,1.07-3.95,1.68-1.45.68-2.94,1.21-4.57,1.32-.47.03-.97.09-1.4.28-1.05.47-2.15.58-3.28.62-2.4.09-4.8.02-7.19-.1-.32-.02-.64-.07-.94-.14-.62-.16-1.17-.51-1.81-.61-.79-.12-1.59-.17-2.34-.5-.59-.26-1.23-.37-1.81-.6-2.67-1.05-5.32-2.16-7.62-3.94-.8-.63-.82-.6-1.7-.23-.74.31-1.46.62-2.04,1.2-1.13,1.13-2.32,2.21-3.43,3.35-1,1.03-1.96,2.1-2.9,3.2-.83.97-1.39,2.14-2.24,3.11-.31.35-.48.82-.72,1.24-1.24,2.23-2.32,4.54-3.4,6.86-.41.87-.44,1.85-.94,2.71-.47.82-.79,1.74-1.16,2.62-.06.14-.1.31-.1.47-.05.99-.81,1.74-.94,2.7-.12.8-.46,1.52-.75,2.27-.11.29-.17.62-.18.93-.06,1.13-.41,2.19-.79,3.24-.17.46.36,1.35.85,1.56,1.18.5,2.47.66,3.62,1.23.14.07.31.04.47.06,1.11.14,2.26.07,3.29.58,1.01.5,2.19.5,3.16,1.11,1.36.44,2.71.94,4.09,1.29.78.2,1.5.51,2.24.8.37.14,1.11-.2,1.21-.53.23-.76.24-1.58.57-2.32.2-.44.27-.92.28-1.4.07-4.16.39-8.31.29-12.47-.01-.64-.01-1.29.23-1.89.3-.75.44-1.52.44-2.33.01-1.28.08-2.55.12-3.83.18-.26.35-.51.53-.77.27.21.49.45.52.75.12,1.1.02,2.24.53,3.29.13.27.15.62.15.94.02,1.92.03,3.84.02,5.76,0,.32,0,.67-.12.94-.74,1.67-.58,3.45-.65,5.2-.1,2.4-.12,4.8-.17,7.19-.01.65-.15,1.27-.4,1.86-.19.45-.24.93-.25,1.41-.1,3.04-.19,6.07-.27,9.11-.02.65-.14,1.27-.36,1.87-.11.3-.24.61-.24.92-.08,3.35-.31,6.71-.16,10.07,0,.16.03.34.12.46.18.25.41.46.63.68,1.24.27,2.55.27,3.71.91.26.15.62.15.93.18,1.27.13,2.56.14,3.73.76.63.1,1.26.22,1.89.28,1.27.12,2.55.14,3.75.68.28.13.62.16.93.17,2.08.12,4.15.24,6.23.32.81.03,1.59.12,2.33.45.45.2.93.22,1.41.25,1.44.07,2.88.12,4.31.17.65.02,1.26.19,1.86.42.3.11.61.22.92.24,2.07.13,4.15.24,6.23.34.31.01.63-.07.95-.11.34-.04.64-.16.83-.43.46-.65.89-1.31,1.34-1.97.36-.53.74-1.04,1.08-1.58.61-.96,1.4-1.77,2.31-2.4.92-.64,1.86-1.25,2.67-2.02.82-.78,1.89-1.2,2.74-1.93.86-.74,1.87-1.21,2.85-1.75,2.1-1.15,4.4-1.88,6.47-3.11,1.74-.37,3.26-1.27,4.86-1.98,1.14-.12,2.1-.73,3.14-1.15.51-.21.78-.6.81-1.07.24-3.67.22-7.35.09-11.02,0-.16-.02-.32-.07-.47-.05-.15-.11-.3-.21-.42-.51-.61-1.03-1.22-1.56-1.81-.43-.47-.94-.88-1.33-1.38-.77-1.01-1.34-2.17-2.29-3.06-.93-.88-1.81-1.81-2.68-2.75-.21-.22-.34-.53-.45-.81-.14-.35-.03-.65.27-.82.26-.15.64-.23.89-.03,1.75,1.4,3.33,2.99,4.83,4.65.32.35.51.81.8,1.19.58.77,1.2,1.49,1.95,2.11.31.25,1.01.39,1.35.22.57-.3,1.16-.55,1.68-.91,1.05-.73,2.02-1.57,3.19-2.12,1.19-1.11,2.69-1.7,4.09-2.47.98-.54,2-1,2.98-1.53.84-.46,1.69-.91,2.4-1.57,1.07-.99,2.3-1.71,3.59-2.36.86-.44,1.67-.93,2.36-1.62.79-.8,1.69-1.45,2.69-1.97.55-.29.99-.8,1.49-1.2.57-.46.71-.99.3-1.64-.18-.28-.23-.59-.27-.91-.06-.47-.18-.93-.39-1.37-1.16-2.46-2.69-4.71-4.16-6.99-.92-.93-1.39-2.13-1.96-3.27-.36-.71-.65-1.46-1.09-2.13-.17-.27-.28-.58-.45-.85-.17-.27-.35-.55-.58-.76-1.39-1.35-2.13-3.18-3.49-4.56-1.01-1.02-1.95-2.11-2.96-3.14-.56-.57-1.18-1.08-1.77-1.62-.84-.77-1.93-1.12-2.9-1.65-.14-.08-.29-.16-.44-.18-1.3-.1-2.36-.96-3.64-1.15-.16-.02-.32-.05-.46-.11-.15-.06-.4-.17-.39-.24.02-.29.22-.54.48-.76.37-.32.81-.64,1.28-.47,1.49.55,3.04.93,4.48,1.64,2.76,1.37,2.86,1.38,5.03,3.58,1.01,1.02,2.03,2.04,3.02,3.09.66.69,1.34,1.37,1.74,2.27.13.28.34.55.56.77,1.4,1.36,2.3,3.05,3.15,4.77.56,1.14,1.24,2.23,1.81,3.37.29.57.55,1.16.99,1.63,1.21,1.3,1.97,2.9,3.06,4.28.29.37.53.8.76,1.22.62,1.12,1.21,2.25,1.82,3.37.15.28.03,1.13-.2,1.36-1.01,1.02-2.02,2.05-3.02,3.07-.41.41-.44,1.15-.05,1.76.51.8.9,1.71,1.83,2.16.14.07.26.19.35.32.46.66.99,1.23,1.69,1.66.55.33,1.04.8,1.31,1.37.48,1.04,1.38,1.77,1.92,2.74.55.99,1.27,1.84,2.03,2.66.33.35.69.67,1.01,1.03.53.6,1.03,1.22,1.55,1.83.64,1.47,2,2.5,2.55,4.03.98,1.47,1.56,3.14,2.33,4.71.48,1,.58,2.15,1.05,3.17.13.27.11.63.12.94.03.48.01.96.04,1.44.07,1.14-.08,2.23-.69,3.23-.29,2.47-1.65,4.46-2.95,6.46-1.04,1.6-2.09,3.21-3.49,4.54-.7.66-1.27,1.42-1.74,2.27-.16.29-.49.38-.78.53-.42.22-.82.49-1.18.8-.85.72-1.59,1.55-2.56,2.16-.8.5-1.47,1.22-2.23,1.81-.5.39-1.04.75-1.68.9-.62.15-1.25.32-1.76.72-1.25,1-2.74,1.62-4,2.63-.61.49-1.4.76-2.09,1.14-.29.16-.59.22-.92.25-.96.08-1.87.3-2.75.76-.84.43-1.75.76-2.63,1.12-.72.3-1.6.22-2.33.5-.9.35-1.79.68-2.73.88-.29.06-.56.3-.82.48-.47.33-.61.69-.46,1.2.09.31.21.61.25.92.04.31.03.64,0,.95-.07.69-.45,1.23-1.01,1.54-1.53.86-3.11,1.61-4.73,2.29-.27.12-.63.09-.94.05-.29-.03-.61-.25-.68-.57-.14-.62-.16-1.26-.25-1.89-.05-.31-.11-.63-.21-.93-.16-.45-.42-.85-.8-1.15-.42-.34-.9-.25-1.37-.21-.75.07-1.27.55-1.3,1.15-.02.48-.08.95-.08,1.43,0,.96.03,1.92.04,2.87,0,.72-.6,1.58-1.29,1.87-.15.06-.29.17-.44.19-.97.11-1.84.51-2.73.86-.34.13-1.07-.32-1.13-.67-.06-.31-.16-.63-.16-.94,0-1.92.13-3.84-.07-5.75-.04-.41-.42-.86-.89-.99-.46-.12-.96-.17-1.39-.36-1.36-.6-2.77-.7-4.22-.61-.4.03-.97.49-.99.86-.04.64-.1,1.28-.1,1.91-.03,3.84-.06,7.67.03,11.51.13,5.59.06,11.19.08,16.79,0,.96.03,1.92.04,2.88,0,.65.22,1.25.4,1.86.27.91.26,1.53-.01,2.35-.21.61-.42,1.2-.41,1.86,0,3.84.03,7.68.01,11.51-.01,2.72-.1,5.43-.13,8.15-.03,2.4-.06,4.8,0,7.2.04,1.91-.14,3.85.66,5.67.1,1.11.18,2.23.3,3.34.03.3.23.61.52.75.27.13.61.13.92.15.15.01.32-.04.47-.1.88-.38,1.77-.74,2.62-1.16,1.43-.7,2.81-1.53,4.39-1.87,1-.49,2.01-.97,3.01-1.47,1-.5,1.99-1.01,2.98-1.53.99-.52,2.02-.96,2.98-1.54.13-.08.32-.08.45-.17,1.75-1.11,3.55-2.12,5.44-3,1.88-.87,3.67-1.92,5.51-2.88,1.13-.59,2.28-1.16,3.28-1.98.42-.34.82-.25,1.19.21.2.25.39.51.56.77.08.13.14.29.15.45.1,1.13.83,2.06,1.03,3.17.24,1.41.97,2.7,1.04,4.16.01.3.18.61.3.9.32.73.65,1.46.99,2.18.2.44.4.87.46,1.35.13,1.12.48,2.17,1.01,3.17.37.7.66,1.46.94,2.2.33.89.96,1.66,1.05,2.66.09.96.75,1.74.93,2.7.24,1.24.94,2.37,1.1,3.65.62.95.78,2.09,1.19,3.12.18.44.43.88.5,1.34.14.96.55,1.83.82,2.74.13.45.09.95.16,1.43.09.63.11,1.31.36,1.87.47,1.05.62,2.14.66,3.26.03.8.24,1.57.58,2.31.19.43.31.92.34,1.38.22,3.99.3,7.99.05,11.98-.04.65-.21,1.25-.5,1.83-.21.43-.37.88-.55,1.32q-.96,2.24.05,4.49c.59,1.31,1.28,2.57,1.97,3.83.39.71.84,1.36,1.41,1.93,1.24,1.25,2.5,2.48,3.73,3.73.28.29.27.59.01.78-.12.09-.27.15-.42.18-.15.03-.32.03-.48.01-.98-.12-1.75-.77-2.65-1.07-.15-.05-.28-.16-.4-.26-1.21-1.05-2.34-2.15-3.12-3.6-.68-1.26-1.41-2.51-2.29-3.65-.19-.25-.46-.43-.72-.61-.11-.08-.32-.17-.42-.12-.28.15-.54.34-.77.56-1.04.99-1.99,2.08-3.12,2.98-.5.4-.99.8-1.57,1.09-1.72.86-3.22,2.06-4.94,2.93-.42.21-.68.66-.7,1.17-.02.64-.02,1.27-.03,1.91,0,.96-.05,1.92-.46,2.81-.27.6-.28,1.25-.32,1.88-.07,1.13-.36,2.18-.79,3.24-.36.87-.35,1.88-.94,2.68-.39,1.27-1.24,2.21-2.18,3.1-.12.11-.25.24-.4.26-.3.05-.62.06-.92.03-.3-.03-.49-.96-.29-1.28.52-.8,1.07-1.59,1.55-2.41.32-.55.64-1.12.83-1.72.29-.91.44-1.87.91-2.72.08-.14.12-.3.14-.45.25-1.9.45-3.81.25-5.73-.06-.62-.69-1.07-1.38-.96-.31.05-.64.08-.94.17-.31.09-.59.25-.89.36-.8.29-1.65.34-2.34.09-.75-.27-1.53-.45-2.28-.72-.9-.32-1.75-.78-2.59-1.23-.56-.31-1.17-.52-1.73-.81-.98-.52-1.97-1.03-2.8-1.83-.8-.78-1.66-1.5-2.72-1.94-.14-.06-.27-.17-.4-.27-.6-.46-4.06-3.78-4.44-4.36-.7-1.07-1.37-2.15-2.15-3.17-.38-.5-.74-1.06-.97-1.64-.65-1.65-1.97-2.91-2.57-4.58-2.22-4.24-4.43-8.49-6.5-12.8-.55-1.15-1.23-2.25-1.69-3.44-.46-1.18-1.21-2.26-1.37-3.56-.77-1.58-1.41-3.2-2.02-4.85-.61-1.64-1.43-3.21-2.18-4.79-.41-.87-.45-1.86-.94-2.71-.25-.43-.33-.91-.36-1.38-.08-1.32-.69-2.44-1.29-3.56-.05-.09-.25-.21-.3-.18-.13.08-.26.21-.31.35-.26.75-.3,1.56-.57,2.32-.44,1.24-.38,2.51.05,3.75.27.77.38,1.57.11,2.34-.23.63-.26,1.21-.01,1.84.18.45.11.94-.08,1.4-.25.6-.4,1.21-.1,1.85.14.31.2.62.1.92-.2.61-.36,1.22-.36,1.87-.01,2.24-.13,4.48-.35,6.71-.03.31-.09.64-.21.93-.31.75-.44,1.53-.47,2.33-.04,1.28-.1,2.56-.15,3.84-.03.64-.12,1.28-.39,1.86-.28.59-.39,1.21-.43,1.85-.05.8-.08,1.6-.19,2.39-.06.47-.22.93-.41,1.36-.26.59-.48,1.19-.51,1.84-.07,1.46-.85,2.74-1.04,4.17-.63,1.47-1.32,2.91-2.14,4.27-.33.54-.74,1.04-1.17,1.51-1.3,1.41-2.63,2.79-3.92,4.21-.2.22-.31.58-.33.88-.06,1.12-.02,2.23.45,3.29.19.43.39.87.38,1.37-.04,3.36.21,6.71.03,10.07-.09,1.59-.03,3.2-.01,4.8,0,.81-.1,1.59-.43,2.34-.2.45-.22.93-.25,1.41-.1,1.76-.14,3.52-.3,5.27-.06.63-.45,1.18-1.06,1.5-.56.3-1.39-.11-1.43-.73-.01-.16-.06-.32-.05-.48.04-.63,0-1.3.18-1.9.28-.93.49-1.84.51-2.81.08-4.96.22-9.91.26-14.87.02-2.24-.13-4.47-.22-6.71-.03-.83-.88-1.34-1.73-1.07-.15.05-.32.06-.46.13-.72.36-1.44.68-2.25.75-1.27.12-2.56.15-3.74.74-.63.06-1.27.15-1.9.17-1.76.06-3.52-.16-5.27.08-.3.04-.64.22-.75.52-.4,1.04-.8,2.08-1.52,2.96-.19.23-.55.29-.88.2-.3-.09-.55-.34-.58-.65-.04-.47,0-.95.02-1.43.02-.64.09-1.28.07-1.92-.02-.86-.45-1.51-1.16-1.98-.27-.17-.55-.35-.85-.44-.79-.22-1.41-.75-2.11-1.11-1.14-.59-2.11-1.43-2.7-2.63-.14-.29-.25-.61-.47-.83-1.61-1.65-2.24-3.85-3.26-5.82-.28-.55-.15-1.28-.48-1.84-.59-.98-.6-2.15-1.14-3.14-.55-.99-.44-2.19-1-3.19-.24-.43-.23-.92-.27-1.4-.08-.95-.16-1.91-.26-2.86-.03-.31-.08-.64-.21-.93-.47-1.05-.58-2.15-.6-3.28-.05-2.56-.12-5.12-.18-7.67-.01-.64-.12-1.26-.33-1.88-.15-.45-.26-.93-.27-1.4-.06-5.28-.22-10.55-.04-15.83.03-.81.13-1.59.43-2.34.24-.61.21-1.26.23-1.89.08-2.72.15-5.43.21-8.15.02-.81.15-1.59.49-2.32.21-.45.26-.92.28-1.4.09-2.24.15-4.48.22-6.71.02-.64.02-1.28.07-1.92.02-.31.09-.64.21-.93.31-.75.47-1.52.51-2.33.06-1.28.12-2.56.17-3.83.03-.64.11-1.27.37-1.87.26-.6.33-1.22.35-1.87.09-2.56.18-5.11.28-7.67.02-.47.02-.99.21-1.41.55-1.2.63-2.47.71-3.74.05-.8.04-1.6.1-2.4.02-.31.13-.62.25-.92.25-.6.43-1.2.45-1.85.05-1.28.1-2.56.17-3.83.02-.31.08-.64.21-.93.4-.89.59-1.82.65-2.78.04-.64.1-1.28.14-1.91.03-.49.21-.93.36-1.38.14-.45.3-.92.34-1.38.11-1.27.13-2.55.24-3.83.04-.47.17-.94.3-1.4.13-.46.34-.89.35-1.39.03-1.44.08-2.87.11-4.31.01-.52-.45-.85-.87-.64-.43.22-.88.39-1.28.66-.66.45-1.24,1.01-1.91,1.44-.66.43-1.45.68-2.06,1.2-.61.53-1.32.88-2.04,1.23-2.01.97-3.97,2.04-6.02,2.95-.44.19-.84.48-1.33.53-1.63.14-3.06.86-4.51,1.53-.29.13-.57.36-.87.4-1.13.15-2.11.72-3.2.99-.31.08-.66.07-.93.21-1.32.66-2.73.87-4.17.97-.96.07-1.91.12-2.81.51-.28.12-.62.14-.93.17-2.4.2-4.79.19-7.19.03-.49-.03-.94-.19-1.37-.4-.73-.36-1.57-.26-2.3-.62-1.44-.72-2.82-1.5-3.8-2.83-.28-.39-.58-.76-.88-1.14-.21-.26-.28-.56-.33-.89-.33-2.07-.22-4.15.02-6.22.04-.31.11-.64.25-.92.35-.73.53-1.5.74-2.27.12-.45.37-.9.68-1.25,2.26-2.49,4.62-4.87,7.18-7.06.48-.41.99-.82,1.54-1.14.85-.48,1.58-1.09,2.27-1.76,1.62-1.57,3.49-2.79,5.33-4.05.39-.27.82-.5,1.2-.79,1-.79,1.9-1.7,3.09-2.25.56-.26,1.01-.77,1.5-1.18.49-.41.93-.91,1.47-1.22,2.41-1.37,4.14-3.49,6.05-5.41.59-.6,2.73-3.82,3.25-4.72.65-1.11,1.09-2.31,1.69-3.44.12-1.13.83-2.08,1.05-3.17.29-1.41,1.09-2.66,1.23-4.11.73-1.31.79-2.74.84-4.19.02-.6-.31-1.18-.94-1.53-.28-.16-.55-.35-.86-.42-.46-.11-.95-.17-1.42-.19-1.13-.07-2.2-.33-3.22-.85-.41-.21-.93-.23-1.39-.36-.64-.18-1.04-.76-1.05-1.43,0-.16,0-.32,0-.48.06-.8.12-1.6.44-2.34.32-.74.55-1.5.57-2.31.03-1.3.43-2.5.96-3.68.46-1.01,1.01-2,1.14-3.14.02-.15.11-.3.18-.44.49-1.01,1.1-1.97,1.44-3.02.34-1.07.71-2.12,1.17-3.13.46-1.02.94-2.03,1.4-3.05.13-.29.31-.58.34-.88.14-1.34.95-2.36,1.62-3.44.51-.81,1.19-1.49,1.6-2.38.19-.42.56-.78.88-1.12.77-.82,1.55-1.61,2.34-2.41.9-.91,1.83-1.79,2.7-2.72.78-.83,1.87-1.23,2.68-2,.12-.11.23-.22.35-.33.48-.41.59-1.34.2-1.71-1.17-1.09-2.34-2.17-3.51-3.26-.59-.55-1.36-.84-2.02-1.28-.4-.27-.87-.4-1.35-.43-.48-.03-.97-.06-1.4-.28-.31-.16-.59-.27-.89-.14-1.53.63-3.13.56-4.73.47-.31-.02-.63-.13-.92-.25-.44-.18-.85-.44-1.29-.62-.61-.25-1.07-.68-1.53-1.13-.94-.92-1.41-2.12-1.95-3.27-.4-.86-.5-1.84-.94-2.7-.22-.44-.25-.93-.27-1.4-.07-1.29-.26-2.54-.85-3.71-.07-.64-.14-1.27.18-1.87.37-.71.69-1.44,1.1-2.12.24-.4.57-.77.99-.99.13-.07.31-.05.47-.07,0,0-.08-.06-.08-.06.76,1.4,1.54,2.8,2.14,4.28.13.32.96.51,1.26.31.96-.61,1.72-1.43,2.33-2.38.6-.93.98-2.01,1.72-2.85.08-.09.3-.09.45-.1.58-.04.82.25.79.87-.03.49-.11.96-.4,1.35-1.61,2.22-3.56,4.1-5.7,5.79-.26.2-.55.31-.87.37-.31.06-.63.14-.92.27-.32.15-.46.43-.49.75-.08.68.45,1.18.55,1.8.2,1.29.82,2.41,1.41,3.54.45.86,1.14,1.53,1.99,2.04.28.17.57.28.89.34,1.12.19,2.23.11,3.34.01.33-.03.63-.1.91-.27.55-.32,1.13-.6,1.65-.97.92-.65,1.76-1.42,2.3-2.42.91-1.68,1.92-3.31,2.26-5.25.08-.46.47-.82.87-1.1.13-.09.32-.23.43-.19.29.12.46.39.51.72.1.7-.03,1.76-.29,2.34-.94,2.04-1.95,4.02-3.62,5.59-.23.22-.41.49-.61.73-.25.3-.19.56.2.75.29.14.61.2.88.36.68.42,1.3.94,2,1.31.85.46,1.59,1.06,2.33,1.68.61.52,1.17,1.09,1.89,1.46.86.45,1.56,1.12,2.29,1.73.12.1.24.21.34.33.83,1,1.93,1.65,3,2.36.66.44,1.22,1.05,2,1.3.91.29,1.68.91,2.65,1.1.61.12,1.17.54,1.78.69.77.19,1.57.23,2.36.37.31.05.62.16.91.29.59.26,1.2.43,1.85.47,2.87.18,5.75.29,8.63.1,1.28-.08,2.56-.12,3.71-.8.13-.08.31-.08.46-.11.63-.11,1.29-.13,1.89-.33.75-.24,1.47-.62,2.19-.95.43-.2.86-.43,1.28-.65,1.15-.07,2.11-.7,3.13-1.13.59-.24,1.15-.55,1.73-.82,2.04-.92,4.01-1.97,5.97-3.02.98-.53,1.85-1.26,2.8-1.84,1.11-.68,2.06-1.55,2.73-2.64.51-.83,1.18-1.51,1.78-2.25.3-.37.57-.77.82-1.18.06-.1.07-.3.02-.41-.13-.29-.32-.56-.45-.85-.15-.34.24-1.06.64-1.11,1.01-.12,1.78-.5,2.28-1.48.36-.7.98-1.26,1.43-1.92.72-1.06,1.43-2.12,2.05-3.23.3-.54.34-1.23.6-1.8.93-2.03,1.87-4.06,2.89-6.04.8-1.57,1.47-3.17,1.95-4.87.17-.61.44-1.19.52-1.83.19-1.57-.1-3.22.74-4.7.07-.13.07-.31.09-.47.25-3.03.34-6.07.07-9.1-.03-.31-.1-.63-.22-.92-.31-.75-.49-1.51-.57-2.32-.05-.47-.07-.99-.27-1.4-.49-1.01-.71-2.11-1.19-3.13-.54-1.15-.93-2.39-1.54-3.5-.69-1.25-1.36-2.54-2.43-3.55-.34-.33-.63-.72-.91-1.1-.19-.26-.14-.57.1-.86.31-.38.71-.68,1.18-.77,1.25-.22,2.56-.13,3.74-.76.26-.14.62-.14.94-.14,2.88.01,5.76.05,8.63.07.49,0,.93.2,1.39.33.46.13.92.28,1.39.33,1.27.12,2.55.18,3.83.28.31.02.66.04.93.18,1.19.61,2.48.55,3.74.67.64.06,1.27.14,1.9.21,1.18.61,2.48.56,3.75.65,1.43.1,2.89.05,4.2.8.63.07,1.27.15,1.9.22.63.07,1.29.05,1.88.33.89.42,1.83.54,2.79.64.63.06,1.3.09,1.88.32,1.05.42,2.18.54,3.2.98.75.32,1.51.48,2.31.55.79.07,1.61.06,2.35.41.89.42,1.82.56,2.78.62,1.27.08,2.55.15,3.76.66.43.18.93.2,1.41.23.96.07,1.92.12,2.87.16.81.03,1.58.17,2.34.46.29.11.62.19.93.2,1.6.07,3.2.11,4.79.17,1.15.04,2.19-.33,3.21-.83.58-.28,1.11-.61,1.61-1.02,1.15-.94,1.82-2.21,2.41-3.53.06-.14.09-.31.11-.46.14-.96.05-1.91-.12-2.86-.03-.15-.1-.3-.19-.43-.44-.66-.94-1.3-1.33-1.99-.41-.72-.95-1.25-1.66-1.67-.41-.24-.76-.58-1.1-.92-.93-.91-2.01-1.56-3.18-2.09-.87-.4-1.7-.88-2.57-1.28-.72-.33-1.56-.34-2.26-.76-.98-.59-2.18-.48-3.2-.97-.74-.35-1.56-.29-2.35-.38-.64-.07-1.28-.1-1.91-.18-.31-.04-.63-.11-.92-.25-.89-.42-1.83-.54-2.8-.57-1.28-.05-2.56-.05-3.76-.6-.28-.13-.62-.15-.93-.18-3.04-.26-6.07.02-9.11.03-.31,0-.61.16-.92.24-.46.13-.91.3-1.38.37-.63.09-1.27.11-1.91.15-.82.05-1.51.48-2.27.7-.32.09-.63,0-.93-.13-.29-.13-.58-.28-.89-.36-.9-.21-2.91-.19-3.79.11-.76.26-1.52.46-2.32.51-1.44.09-2.87.21-4.3.33-.32.03-.66.03-.94.16-1.2.57-2.48.55-3.75.68-.48.05-.94.16-1.39.34-.44.18-.9.34-1.37.42-.79.14-1.59.2-2.38.3-.96.13-1.77.72-2.75.81-.47.05-.94.2-1.37.4-.74.35-1.51.49-2.31.56-.32.03-.66.04-.94.17-1.02.5-2.1.74-3.23.82-.31.02-.64.11-.92.25-.87.44-1.79.66-2.76.71-.96.05-1.88.26-2.79.61-.63.25-1.25,0-1.71-.53-.1-.12-.2-.24-.31-.36-.45-.54-.2-1.39.39-1.57.76-.23,1.55-.36,2.29-.68.9-.39,1.89-.28,2.84-.4.64-.08,1.25-.21,1.85-.48.29-.13.6-.27.91-.29,1.78-.09,3.35-1.04,5.09-1.28,1.02-.51,2.11-.71,3.24-.78.63-.04,1.29-.03,1.88-.31.89-.42,1.83-.55,2.79-.61.96-.06,1.89-.27,2.79-.64.43-.18.93-.24,1.4-.29.96-.09,1.91-.15,2.87-.17.82-.02,1.57-.21,2.31-.56.59-.28,1.24-.3,1.87-.36,1.74-.16,3.52.07,5.19-.69.41-.19.94-.15,1.42-.18,1.12-.05,2.24-.08,3.36-.12,1.12-.05,2.24-.1,3.35-.16,1.15-.58,2.47-.64,3.65-1.13.6-.25,1.21-.4,1.85-.43,1.12-.06,2.24-.1,3.35-.2.47-.04.94-.16,1.39-.32.61-.22,1.21-.4,1.86-.42.32-.01.64-.04.96-.06,1.28-.07,2.55-.19,3.83-.2.98,0,1.9-.21,2.8-.56,1.27-.12,2.55-.24,3.82-.38.31-.03.63-.11.92-.23,1.32-.57,2.66-1.09,3.91-1.81.84-.48,1.54-1.15,1.95-2.05.13-.28.18-.63.04-.93-.21-.43-.45-.86-.77-1.21-.97-1.06-2.09-1.97-3.02-3.07-.3-.36-.71-.66-1.13-.87-1.14-.56-2.24-1.23-3.57-1.3-.64-.03-1.27-.18-1.85-.45-.59-.28-1.21-.38-1.86-.4-2.56-.09-5.11-.19-7.67-.26-.81-.02-1.59-.11-2.34-.41-.15-.06-.3-.12-.46-.13-1.43-.09-2.87-.23-4.25.37-.29.12-.62.18-.93.2-1.44.09-2.87.16-4.31.22-1.28.05-2.56.07-3.73.71-.26.14-.62.15-.94.17-.97.05-1.89.25-2.78.65-.28.13-.62.2-.93.21-1.64.04-3.01,1.03-4.59,1.28-1.94,1.09-4.11,1.76-5.85,3.24-.48.41-1.07.7-1.66.95-1.62.68-3.09,1.67-4.69,2.39-1.6.72-3.17,1.5-4.74,2.28-.58.29-1.18.47-1.8.62-.3.07-.64.17-.87.36-1.62,1.33-3.53,2.17-5.36,3.13-.56.3-1.19.47-1.69.88-.88.72-1.83,1.29-2.97,1.45-.98.53-2.05.9-3.01,1.46-.27.16-.59.22-.89.33-.35.13-1.3-.15-1.3-.39,0-.3.12-.58.37-.82.68-.67,1.35-1.33,2.26-1.74,2.03-.92,3.95-2.07,5.97-3.03,1.14-.54,2.33-1.04,3.29-1.94.35-.33.8-.5,1.26-.67,1.49-.56,2.77-1.58,4.34-1.98,3.1-1.28,6.05-2.85,9.01-4.41.14-.07.27-.17.4-.27,1.15-.86,2.44-1.5,3.57-2.41.98-.8,2.2-1.31,3.1-2.24,1.01-1.05,2.45-1.5,3.48-2.53.68-.68,1.47-1.2,2.31-1.69,1.11-.65,2-1.59,2.75-2.64,1.02-1.44,1.74-3.04,2.44-4.65.15-.95.25-1.9-.18-2.82-.21-.43-.41-.87-.61-1.3-.07-.14-.13-.29-.22-.42-.35-.54-.8-1.02-1.35-1.34-1.25-.73-2.58-1.26-4.08-1.14-.64.05-1.28.05-1.91.11-.48.04-.98.05-1.41.23-1.18.5-2.46.68-3.6,1.3-1.26.68-2.61,1.19-3.9,1.82-1.57.77-3.16,1.54-4.67,2.42-1.38.8-2.71,1.69-3.98,2.65-.9.68-1.94,1.12-2.8,1.84-1.47,1.23-2.8,2.63-4.47,3.61-.27.16-.49.41-.72.63-3.48,3.53-7.08,6.94-10.52,10.51-2.99,3.11-6.11,6.1-9.18,9.14-.57.56-1.16,1.1-1.76,1.63-.24.21-.5.41-.78.53-.33.14-.65.04-.86-.2-.07-.08-.08-.27-.04-.38.57-1.33,1.35-2.53,2.38-3.57,1.46-1.48,2.93-2.95,4.37-4.45.88-.92,1.85-1.77,2.56-2.85.17-.26.39-.54.65-.69,1.13-.65,1.95-1.65,2.86-2.54,2.05-2.02,4.08-4.06,6.13-6.08,1.25-1.23,2.53-2.44,3.79-3.68,1.03-1.01,2-2.07,3.34-2.69,1.6-1.33,3.37-2.43,4.99-3.73,1.38-1.11,2.88-1.97,4.44-2.79,1.55-.82,3.12-1.61,4.68-2.42.85-.44,1.76-.76,2.64-1.13,1.14-.08,2.05-.9,3.17-1.03.64-.07,1.25-.25,1.82-.56.43-.23.9-.34,1.38-.36.8-.04,1.6-.03,2.39-.02.82.01,1.59.21,2.21.78.95.88,2.12,1.39,3.24,2,.13.07.35.12.47.06.42-.22.79-.52,1.21-.72,1.72-.83,3.35-1.86,5.26-2.27,1.17-.52,2.33-1.03,3.5-1.55,1.43-.22,2.68-.99,4.08-1.34,1.07-.27,2.07-.82,2.99-1.46.52-.37,1.01-.81,1.57-1.09,1.91-.97,3.32-2.46,4.59-4.13.29-.38.47-.82.56-1.3.24-1.27.22-2.55,0-3.82-.08-.47-.24-.92-.55-1.31-.41-.5-.84-.97-1.5-1.13-.31-.08-.65-.09-.93-.23-1.32-.67-2.75-.76-4.19-.84-1.76-.1-3.51-.06-5.27.07-.81.06-1.56.28-2.3.6-1.02.44-2.21.4-3.18,1-.63.11-1.26.23-1.89.32-.48.07-.91.26-1.35.46-.87.41-1.71.9-2.62,1.16-1.1.31-2.09.76-2.98,1.46-.38.29-.8.52-1.27.65-2.01.57-3.78,1.68-5.62,2.62-1.66,1.27-3.56,2.12-5.41,3.07-.42.22-.85.44-1.25.71-.79.54-1.5,1.17-2.38,1.59-1,.48-1.74,1.42-2.81,1.8-1.51,1.17-3.15,2.17-4.56,3.49-1.29,1.2-2.56,2.41-3.85,3.61-1.75,1.63-3.29,3.5-5.37,4.76-.4.25-.75.6-1.09.94-1.61,1.56-3.23,3.1-4.81,4.69-3.14,3.18-6.3,6.36-9.45,9.53-.56.57-1.03,1.2-1.41,1.92-.37.69-1,1.25-1.4,1.94-.64,1.12-1.43,2.1-2.35,3.01-1.14,1.12-2.25,2.27-3.34,3.44-.98,1.05-1.95,2.09-2.7,3.35-.73,1.24-1.81,2.24-3.02,3.05-.68.45-1.27.91-1.67,1.65-.22.41-.61.74-.96,1.05-.51.45-1.13.57-1.78.42-.14-.03-.3-.16-.37-.28-.05-.09,0-.3.07-.39,1.32-1.61,2.85-3.01,4.24-4.56.53-.6,1.05-1.2,1.58-1.8.54-1.2,1.54-2.02,2.43-2.93,1.57-1.6,3.14-3.19,4.68-4.82.77-.81,1.47-1.67,2.01-2.67.37-.69.96-1.27,1.49-1.87.63-.72,1.33-1.38,1.93-2.13.39-.49.6-1.12,1.03-1.6,1.39-1.55,2.71-3.15,4.29-4.51.85-.73,1.66-1.51,2.42-2.33,1.85-1.99,3.87-3.81,5.84-5.69.81-.77,1.61-1.55,2.61-2.09.27-.15.51-.39.71-.64.4-.49.71-1.09,1.17-1.5.59-.52,1.3-.91,1.87-1.48,1.36-1.35,2.76-2.66,4.11-4.03,2.36-2.39,4.69-4.81,7.04-7.2.9-.91,1.76-1.86,2.35-3.01,1.44-1.75,2.29-3.81,3.13-5.88.11-.27.12-.66.02-.94-.27-.75-.6-1.48-.97-2.18-.14-.26-.43-.46-.7-.62-.41-.25-.85-.45-1.29-.63-.29-.12-.6-.22-.91-.26-.8-.09-1.6-.11-2.36.19-.75.3-1.5.61-2.31.58-1.82-.07-3.36.96-5.08,1.24-2.29,1.12-4.64,2.15-6.77,3.56-.8.53-1.64.98-2.48,1.44-.98.54-1.9,1.16-2.73,1.93-4.23,3.91-8.27,8.01-12.22,12.2-.44.46-.92.93-1.2,1.49-.51,1.02-1.27,1.83-2,2.68-.31.36-.66.72-.86,1.15-.49,1.03-1.38,1.78-1.91,2.75-.54.99-1.29,1.82-1.89,2.77-1.1,1.75-2.19,3.51-3.17,5.35-1.87,3.52-3.61,7.11-5.35,10.7-.42.86-.88,1.72-1.16,2.62-.29.92-.58,1.82-1.03,2.67-.28,1.59-.97,3.03-1.68,4.46-.14.28-.28.58-.34.89-.15.8-.49,1.51-.79,2.25-.73,1.78-1.69,3.43-2.54,5.15-.2.41-.6.73-1.04.94-.14.06-.31.05-.47.07l.07.07Zm33.91,147.81c-1.76-.02-3.51-.05-5.27-.06-.32,0-.66.02-.94.14-.27.12-.48.38-.72.58-.24,1.13-.23,2.22.54,3.18.2.25.38.51.59.75.54.62,1.18,1.07,2.05,1.07,1.92-.01,3.83-.03,5.75-.06.48,0,.94-.14,1.39-.32.44-.18.89-.34,1.38-.36,1.75-.05,3.51-.12,5.26-.17.5-.01.91.23,1.27.56.24.23.46.52.4.83-.05.26-.4.39-.74.45-.16.03-.31.07-.47.07-1.12.04-2.24.13-3.35.1-1.3-.04-2.51.36-3.75.64-.46.11-.96.05-1.43.09-.48.04-.95.09-1.42.17-.14.02-.28.14-.4.24-.21.18-.14.44.26.61,1.02.43,1.97,1.06,3.12,1.15.31.02.62.16.9.3.58.29,1.19.44,1.84.48,3.19.2,6.38.16,9.58,0,.81-.04,1.58-.2,2.31-.53.6-.27,1.24-.26,1.88-.32.64-.06,1.27-.14,1.9-.21,1.09-.75,2.43-.71,3.61-1.18.44-.18.88-.42,1.36-.42,1.32,0,2.49-.5,3.63-1.1.99-.53,2.08-.79,3.11-1.2,1.62-.65,3.23-1.36,4.76-2.24.43-.25.89-.35,1.36-.43.32-.06.61-.16.88-.35.65-.46,1.26-1.01,1.97-1.35,1.73-.84,3.34-1.85,4.91-2.94.91-.36,1.64-.99,2.32-1.66,1.25-1.24,2.5-2.47,3.72-3.74,1-1.04,1.98-2.08,2.89-3.19.7-.86,1.26-1.84,1.92-2.74.77-1.04,1.3-2.2,1.72-3.4.26-.75.46-1.52.78-2.26.12-.28.17-.62.17-.93,0-1.59.13-3.19-.57-4.71-.19-.42-.23-.93-.27-1.4-.07-.81-.38-1.53-.7-2.27-1.07-2.52-2.64-4.72-4.21-6.93-1.82-1.81-3.16-4-4.64-6.07-.47-.65-.92-1.3-1.48-1.87-.79-.8-1.57-1.59-2.36-2.38-.79-.78-1.6-1.56-2.41-2.32-.24-.22-.55-.29-.88-.33-.99-.12-1.9.02-2.7.66-.5.4-.96.88-1.52,1.14-1.03.49-1.92,1.13-2.73,1.92-1.06,1.03-2.4,1.55-3.76,1.99-.61.2-1.21.39-1.73.77-1.66,1.24-3.37,2.41-5.15,3.47-.54.32-1,.79-1.48,1.2-.42.35-.53.83-.31,1.24,1.22,2.24,2.38,4.51,3.37,6.86.12.29.26.58.4.87.4.8,1.6,1.22,2.49.87.15-.06.3-.09.45-.16,1.02-.45,2.03-.93,3.06-1.36.31-.13.65,0,.87.22.35.36.3,1.03-.08,1.22-.71.36-1.38.83-2.12,1.08-.94.32-1.7.87-2.39,1.54-.35.34-.79.54-1.23.72-.59.24-1.19.46-1.8.63-.62.17-1.21.41-1.73.79-.91.67-1.91,1.12-3,1.44-.91.27-1.8.67-2.63,1.13-.86.47-1.89.37-2.71.91-.82.54-1.82.56-2.69.98-1.01.48-2.01,1-3.07,1.33-2.45.78-4.66,2.05-6.93,3.21-.27.14-.53.36-.72.61-.29.38-.54.82-.98,1.02-1.32.61-2.23,1.83-3.56,2.41-.59.54-1.18,1.08-1.76,1.62-.24.23-.34.52-.42.83-.13.51.28.93.82.86.95-.12,1.79-.67,2.77-.65.48,0,.96-.04,1.44-.07.8-.06,1.6-.08,2.38-.21.62-.11,1.21-.37,1.81-.54.45-.13.86.22,1.02.73.12.4.02.6-.38.75-.91.35-1.93.12-2.8.51-1.05.46-2.14.59-3.27.64-1.59.06-3.19.12-4.78.21-.54.03-.81.28-1.04.84-.28.69.28,1.74,1.01,1.85.31.05.62.14.94.15,2.56.06,5.11-.02,7.66-.21.95-.07,1.91-.17,2.86.03.34.07.65.27.66.52.01.33-.24.57-.51.76-.4.28-.84.44-1.32.51-2.07.26-4.14.23-6.22.21Zm-86.72,25.94c.84-.02,2.43-.07,4.03-.11.65-.02,1.22-.3,1.82-.49,1.67-.53,3.29-1.17,4.9-1.85.15-.06.29-.18.44-.19,1.3-.12,2.38-.91,3.62-1.17,1.1-.23,1.99-1.04,3.14-1.1,1.22-.39,2.32-1.03,3.46-1.59,1.28-.63,2.63-1.16,3.78-2.03,1.28-.98,2.79-1.53,4.15-2.35.27-.16.53-.36.77-.56,1-.8,2-1.58,2.97-2.41.23-.2.39-.5.53-.78.45-.85.79-1.71.81-2.71.03-2.39.13-4.78.19-7.18.05-1.91.07-3.83.13-5.74.02-.47.09-.97.26-1.4.33-.8.22-1.54-.09-2.31-.18-.45-.19-.93,0-1.39.25-.59.43-1.2.46-1.85.03-.96.08-1.91.11-2.87.06-2.07.11-4.15.15-6.22.01-.65.15-1.26.39-1.86.12-.29.24-.61.24-.91.06-2.23.09-4.47.12-6.7,0-.45-.63-1.36-1.06-1.49-1.36-.43-2.73-.85-4.1-1.26-.15-.05-.32-.06-.47-.06-.98-.01-1.84-.45-2.74-.76-.39-.14-.95.08-1.27.45-.31.37-.56.78-.68,1.24-.08.31-.12.63-.13.95-.03,1.3-.39,2.48-.94,3.66-.8,1.73-1.47,3.52-1.95,5.37-.21.78-.52,1.49-.87,2.21-.42.87-1.05,1.59-1.58,2.39-.44.66-.67,1.45-1.23,2.04-.66.69-1.3,1.4-1.97,2.09-.89.92-1.78,1.83-2.69,2.73-.91.9-1.83,1.78-2.77,2.65-.59.54-1.23,1.02-1.84,1.53-1.19.51-2.06,1.51-3.2,2.08-.88.44-1.6,1.03-2.31,1.67-.36.32-.67.74-1.08.93-1.47.7-2.54,1.91-3.75,2.93-.61.51-1.21,1.02-1.89,1.45-1.49.93-2.66,2.28-4.21,3.15-.27.15-.5.39-.75.59-1.39,1.09-2.61,2.34-3.75,3.68-.46.54-1.45,2.53-1.65,3.42-.11.46-.1.94-.12,1.42-.03.64.65,1.21,1.28,1,1.52-.51,2.85-1.4,4.29-2.06.27-.12.45-.43.66-.67.41-.49.49-1.17.93-1.64.22-.23.53-.29.87-.17.29.1.51.33.58.66.07.31.07.63.07.95q0,1.92.84,3.66c.3,1.15,1.11,1.91,2,2.6.52.41,1.11.65,1.75.68,1.11.05,2.23.01,3.35.07.34.02.55.3.61.58.07.36-.05.64-.34.82-.13.08-.26.2-.41.23-.63.11-1.26.26-1.89.26-1.12.01-2.23-.09-3.35-.1-.31,0-.65.07-.92.21-1.42.72-2.88,1.38-4,2.56-.26.27-.29.59-.13.78.1.12.26.22.41.24,1.75.27,3.5.16,6.01.08ZM207.36,54.42c1.29-.05,3.69-.12,6.08-.23.47-.02.94-.17,1.39-.33.61-.21,1.23-.33,1.87-.34,1.28-.03,2.56-.03,3.82-.27.31-.06.63-.17.88-.36.89-.67,1.77-1.34,2.76-1.87.71-.38,1.21-1.04,1.64-1.71.17-.26.34-.55.41-.85.31-1.25.4-2.53.13-3.8-.06-.3-.21-.61-.4-.86-1-1.26-2.16-2.34-3.66-3.02-1.02-.46-2-.99-2.98-1.52-.44-.24-.91-.28-1.38-.36-.63-.11-1.28-.06-1.88-.33-.74-.33-1.51-.5-2.32-.53-1.92-.06-3.83-.13-5.75-.17-1.6-.04-3.2-.08-4.79-.07-.81,0-1.57-.2-2.34-.39-.76.27-1.54.37-2.35.39-2.88.08-5.75.18-8.62.3-.47.02-.98.04-1.41.21-1.06.43-2.16.57-3.28.63-.81.05-1.58.22-2.31.57-.59.28-1.23.32-1.86.41-.47.07-.95.12-1.39.34-.72.36-1.49.57-2.3.61-1.12.06-2.21.21-3.27.65-.43.18-.93.18-1.41.26-.47.08-.99.04-1.41.24-1.03.5-2.1.73-3.22.87-.97.12-1.74.75-2.59,1.16-.14.07-.26.2-.34.33-.65,1.12-1.57,2.01-2.43,2.95-.75.83-1.52,1.64-2.27,2.47-.22.24-.26.56-.17.9.09.34.83.66,1.19.48.87-.45,1.79-.64,2.76-.72.47-.04.95-.13,1.39-.34.73-.35,1.5-.53,2.31-.56.8-.03,1.6-.09,2.39-.13.49-.02.93-.2,1.37-.38,1.08-.45,2.22-.47,3.29-.17,1.09.31,2.17.44,3.29.5,2.71.15,5.43,0,8.14.27,1.14-.08,2.22.11,3.26.61.28.13.62.15.94.17.97.08,1.89.29,2.75.76.27.15.61.2.92.26.64.13,1.19.43,1.7.84.75.6,1.48,1.22,2.25,1.79.24.18.59.31.89.31,2.4.03,4.79.01,8.29.01Zm-45.27,309.32c-.02-.16,0-.33-.06-.47-.58-1.32-1.35-2.52-2.34-3.56-1.1-1.16-2.2-2.31-3.29-3.47-.33-.35-.68-.7-.89-1.12-.78-1.58-2.04-2.85-2.77-4.45-.4-.87-.94-1.66-1.49-2.44-.74-1.03-1.21-2.24-2.07-3.2-.2-.23-.36-.54-.42-.84-.19-.96-.63-1.79-1.2-2.57-.76-1.03-1.33-2.17-1.89-3.31-1.05-2.14-2.06-4.31-3.18-6.41-.91-1.69-1.51-3.5-2.2-5.27-.4-1.03-.48-2.18-1.06-3.15-.2-1.1-.61-2.13-.98-3.18-.26-.74-.22-1.58-.45-2.34-.23-.76-.54-1.48-.75-2.26-.37-1.38-.89-2.71-1.03-4.15-.05-.54-.86-1.04-1.45-.96-.16.02-.32.04-.47.08-.15.04-.3.1-.44.17-.43.22-.84.45-1.27.66-.8.4-1.14,1.12-.92,1.94.29,1.07.87,2.07.81,3.22-.06,1.32.54,2.47.9,3.68,0,1.16.79,2.07,1.01,3.17.09.47.26.91.45,1.35.65,1.45,1.25,2.92,1.82,4.4.63,1.63,1.54,3.14,2.21,4.75.49,1.17,1.24,2.23,1.43,3.52.56,1.14,1.16,2.27,1.68,3.43.9,2.04,1.94,4.01,2.99,5.97.98,1.82,2.25,3.47,3.15,5.34.21.42.52.81.85,1.15,1.01,1.04,1.69,2.31,2.43,3.54,2.62,4.39,3.09,5.01,6.47,8.2.23.22.49.41.74.6.13.1.26.2.41.25.31.1.64.11.92-.03.86-.44,1.6-1.03,2.17-1.82.09-.12.14-.28.21-.41Zm-17.59-56.27c.19,1.04.32,1.82.46,2.6.69,1.1.66,2.45,1.24,3.6.21.42.32.9.39,1.37.12.79.19,1.58.6,2.29.48,1.69,1.21,3.27,1.91,4.87.51,1.16,1.11,2.28,1.49,3.51.42,1.37,1.23,2.58,1.76,3.91.41,1.03.99,2.01,1.11,3.14.46,1.01.9,2.03,1.08,3.14.56,1.14,1.1,2.3,1.68,3.43,1.01,1.98,2.03,3.96,3.06,5.94.22.42.48.83.75,1.22.93,1.31,1.57,2.75,2.07,4.27.45,1.36,1.1,2.64,2.16,3.67.91.88,1.81,1.79,2.71,2.69.3.3.52.23.74-.16.8-1.42,1.23-2.93,1.05-4.57-.02-.16-.01-.33-.07-.47-.11-.3-.19-.63-.38-.86-.53-.6-1.12-1.13-1.67-1.71-.44-.46-.95-.9-1.24-1.44-.84-1.54-2.01-2.86-2.78-4.45-1.24-2.58-2.62-5.09-3.8-7.7-.26-.58-.54-1.15-.66-1.78-.15-.8-.67-1.44-.96-2.18-.4-1.04-.82-2.08-1.35-3.05-.47-.86-.49-1.85-.97-2.68-.56-.98-.58-2.13-1.13-3.13-.53-.97-.84-2.05-1.25-3.09-.09-1.14-.94-2.01-1.11-3.14-.17-1.09-.79-2.06-1-3.17-.2-1.08-.81-2.07-.95-3.19-.43-.86-.69-1.77-.92-2.7-.19-.76-.59-1.48-.97-2.17-.13-.24-.47-.45-.75-.52-.82-.2-1.58-.04-2.17.62-.31.35-.62.71-.33,1.26.15.28.19.61.2.66Zm-1.62-115.72c-.39-.14-.61,0-.75.38-.22.62-.25,1.26.01,1.85.41.92.53,1.8.09,2.75-.21.43-.14.92.05,1.39.24.58.43,1.18.69,1.76.15.34.46.37.82.33.67-.08,1.15-.51,1.69-.82.87-.49.87-.51.7-.99-.41-1.2-.75-2.42-1.36-3.55-.45-.84-.79-1.73-1.2-2.6-.15-.32-.42-.47-.74-.49Zm-113.44,53.47c-.03-.15-.02-.31-.08-.43-.44-.82-1.12-1.12-1.88-.85-.6.2-1.22.33-1.81.56-.73.28-1.46.61-2.16.97-.42.21-.79.51-1.17.8-.49.38-.57,1.23-.17,1.69.21.24.43.46.66.67.5.46,1.23.45,1.72.05,1.37-1.1,2.97-1.78,4.48-2.64.31-.18.44-.45.4-.81Zm-7.02-.66c1.02-.56,2.36-1.09,3.53-1.91.25-.18.54-.41.64-.68.09-.25.01-.62-.1-.89-.14-.34-.47-.44-.81-.31-1.64.6-3.15,1.46-4.7,2.25-.26.13-.48.42-.64.68-.16.25-.05.55.18.83.22.25.49.49.8.46.29-.02.57-.22,1.1-.43Z"/><path class="cls-1" d="m49.74,124.43c-.08-.96.01-1.89.38-2.8.47-1.18,1.26-2.23,1.49-3.49.23-1.26,1.03-2.34,1.09-3.64.5-1.01.88-2.04.92-3.18,0-.16,0-.33.07-.47.72-1.47.81-3.06.93-4.65.06-.8.25-1.56.56-2.31.31-.75.39-1.55.39-2.34,0-.98.19-1.89.72-2.73.17-1.27.81-2.41,1.09-3.65.11-.47.23-.94.54-1.31.93-1.11,1.36-2.52,2.21-3.67.28-.38.48-.84.79-1.19,1.05-1.19,2.1-2.4,3.36-3.39.53-.41,1.1-.62,1.76-.54l-.04-.05c0,.16.03.34-.03.47-.21.43-.59.73-.95,1.03-2.24,1.87-3.92,4.16-5.15,6.81-.47,1.01-.85,2.06-1.3,3.07-.14.32-.04.63.17.9.4.51.86.94,1.49,1.15.46.15.88.37,1.25.68.24.21.48.42.72.64.35.33.7.66,1.04,1,.36.36.65.29,1.18-.25.78-.8,1.45-1.7,2.39-2.34.4-.27.81-.53,1.3-.55,2.07-.07,4.15-.14,6.22,0,.31.02.63.11.92.23,1.17.51,2.32,1.06,3.22,2,.37.38.65.3,1.19-.21.82-.76,1.64-1.52,2.46-2.27.49-.44,1.06-.74,1.72-.75,1.6-.04,3.19-.05,4.79-.04.31,0,.63.09.93.21,1.34.52,2.58,1.25,3.85,1.93.42.22.78.55,1.14.86.48.42.92.88,1.38,1.33.27.27.52.24.82-.05.46-.44.94-.86,1.41-1.3.59-.56,1.31-.88,2.02-1.24.87-.45,1.75-.75,2.73-.79.96-.04,1.91-.11,2.87-.11.47,0,.96.14,1.35.43.51.38.98.81,1.48,1.21.53.43,1.16.41,1.72-.06.12-.1.25-.2.36-.31,1.17-1.15,2.55-1.88,4.17-2.19.46-.09.89-.33,1.34-.49.76-.28,1.68-.29,2.33-.04.15.06.3.12.44.18,1.92.8,2.12.93,3.47,2.44.21.24.43.47.61.74.18.26.4.53.46.83.2.94.58,1.83.8,2.75.22.92.21,1.9.24,2.85.02.8-.23,1.55-.53,2.31-.6,1.54-1.6,2.75-2.79,3.83-.35.32-.77.57-1.18.8-.41.23-.88.37-1.29.61-.57.32-1.16.52-1.81.56-.64.05-1.28.1-1.87.38-.32.15-.6.16-.91.05-1.83-.64-3.48-1.57-4.95-2.82-.31-.27-.57-.27-.84.01-.22.23-.46.44-.68.67-.89.95-1.99,1.58-3.18,2.08-.15.06-.29.15-.44.19-.3.09-.61.2-.92.22-2.94.21-3.55.1-6-1.09-.43-.21-.83-.48-1.26-.67-.46-.21-.96-.11-1.38.1-.42.22-.8.53-1.16.84-.63.52-1.32.87-2.14,1-.31.05-.63.15-.9.31-.86.49-1.81.62-2.77.65-.96.02-1.92,0-2.87-.05-.31-.01-.65-.07-.93-.2-.86-.41-1.74-.8-2.46-1.46-.83-.75-1.59-1.57-2.1-2.58-.07-.13-.21-.27-.35-.32-.32-.11-.68-.14-.91.04-1.12.9-1.94,2.12-3.14,2.94-.4.27-.81.5-1.3.58-1.27.19-2.55.18-3.82.12-.31-.01-.66-.06-.93-.2-1.27-.65-2.63-1.17-3.65-2.25-.33-.34-.73-.62-1.07-.95-.3-.29-.52-.26-.83.03-.7.65-1.42,1.28-2.17,1.87-.23.18-.58.28-.88.32-.96.12-1.92.09-2.86-.09-.46-.09-.87-.39-1.31-.57-.43-.18-1.13.05-1.24.4-.18.61-.32,1.23-.57,1.81-.32.74-.61,1.47-.75,2.27-.05.31-.19.61-.31.9-.85,1.89-1.74,3.76-2.67,5.6-.14.28-.42.4-.79.37l.08.06Zm30.66-18.21c0-.11,0,.68.05,1.48.02.31.07.64.2.93.65,1.45,1.27,2.93,2.21,4.22.27.37.68.7,1.09.91.71.35,1.46.62,2.22.87.29.09.66.11.94.02,1.21-.39,2.42-.78,3.7-.87.5-.04.87-.36,1.27-.62.54-.36.96-.85,1.33-1.36.18-.25.35-.56.39-.85.17-1.26.27-2.53.8-3.72.09-.95.2-1.9-.16-2.83-.23-.59-.39-1.21-.56-1.82-.09-.32-.19-.65-.47-.81-1.41-.78-2.49-1.98-3.8-2.88-.27-.18-.55-.31-.88-.35-.47-.06-.95-.16-1.42-.16-1.27.02-2.55.09-3.82.13-.51.02-.9.29-1.25.62-.23.21-.47.45-.63.71-.73,1.25-1.28,2.56-1.21,4.06.02.48,0,.96,0,2.35Zm-2.64-1.15c-.02-.35-.03-.99-.08-1.62-.07-.81-.33-1.56-.85-2.2-.3-.37-.61-.73-.95-1.07-.47-.46-1.05-.72-1.7-.79-1.91-.22-3.82-.07-5.73-.1-.65,0-1.22.34-1.63.87-.19.25-.43.49-.55.78-.29.74-.47,1.52-.77,2.25-.31.76-.42,1.53-.44,2.33,0,.32,0,.64-.02.96-.05,1.14.23,2.18.79,3.2.39.7.76,1.4,1.33,1.96.57.55,1.16,1.1,1.77,1.6.37.3.79.53,1.3.54.8,0,1.59.02,2.39.02.32,0,.62-.11.89-.3,1.61-1.13,2.85-2.54,3.48-4.43.43-.7.57-1.48.65-2.28.04-.48.07-.95.13-1.72Zm39.32-7.54c-.64.02-1.27.05-1.85.37-.42.23-.88.39-1.3.61-.42.22-.85.45-1.24.72-.99.66-1.57,1.59-1.64,2.78-.05.8-.02,1.6-.02,2.4,0,.65-.12,1.27-.36,1.87-.12.29-.22.6-.29.91-.14.64-.08,1.28.23,1.86.3.56.6,1.13.96,1.65.37.52.86.95,1.5,1.14.76.23,1.54.39,2.27.74.43.21.91.23,1.37,0,.57-.3,1.18-.49,1.82-.56.67-.08,1.19-.45,1.65-.9.81-.79,1.47-1.67,1.66-2.84.08-.47.27-.92.41-1.37.36-1.09.41-2.2.06-3.29-.24-.76-.47-1.53-.68-2.29-.08-.3-.26-.59-.43-.84-.64-.93-1.42-1.72-2.33-2.4-.53-.4-1.13-.56-1.79-.54Zm-8.9,7.18s.03,0,.04,0c-.02-.63-.04-1.27-.07-1.9-.03-.66-.32-1.22-.72-1.72-.3-.37-.64-.7-.97-1.04-.47-.46-1.05-.7-1.69-.76-.63-.06-1.26.03-1.88-.15-1.07-.3-1.08-.27-1.71.04-.14.07-.28.15-.43.21-.77.3-1.3.88-1.79,1.51-.1.12-.16.27-.24.41-.68,1.09-1.2,2.22-1.13,3.56.03.47-.01.95,0,1.43.01.81-.22,1.55-.5,2.3-.1.27-.07.63,0,.92.13.45.38.87.54,1.32.17.47.47.82.89,1.06,1.9,1.06,2.41,1.18,4.52,1.06.47-.03.94-.11,1.41-.19.15-.02.3-.1.43-.18.84-.47,1.53-1.12,2.1-1.89.19-.27.3-.55.36-.87.07-.47.13-.95.3-1.39.35-.9.56-1.81.55-2.77,0-.32,0-.63,0-.95Zm-49.68,7.26c.75.04,1.5-.14,2.1-.75.22-.23.46-.44.67-.68.56-.6.94-1.28.98-2.11.05-.96.25-1.88.57-2.79.1-.27.07-.65-.04-.93-.29-.75-.47-1.51-.64-2.29-.17-.81-.68-1.42-1.26-1.98-.46-.44-.94-.83-1.58-1.02-.54-.16-1.42.18-1.63.68-.19.44-.28.9-.32,1.38-.05.66.08,1.26.55,1.75.33.34.7.65,1.02,1,.51.56.42,1.53-.15,2.15-.44.48-.98.78-1.6.98-.31.1-.54.33-.71.6-.09.13-.17.27-.24.41-.63,1.22-.49,1.13-.03,2.18.44,1.01,1.16,1.45,2.29,1.44Z"/><path class="cls-1" d="m144.66,402.72c-.14.31-.35.74-.54,1.17-.41.91-.33,1.86-.19,2.81.02.15.11.29.19.43.72,1.31,1.75,2.25,3.21,2.68.15.05.3.11.45.16.52.19.73-.03.69-.83-.06-1.59-.1-3.18.35-4.73.04-.14.17-.29.3-.36.62-.34,1.29.04,1.32.78.03.64.04,1.27.04,1.91,0,.65.13,1.26.44,1.83.22.42.4.88.68,1.26.17.24.47.46.75.54,1.11.28,2.21.12,3.29-.16.15-.04.28-.15.42-.22q2.31-1.09,5.36-3.07c.23-.15.54.07.62.44.11.5-.1.93-.44,1.28-.22.22-.47.45-.75.59-.86.41-1.72.84-2.48,1.41-.66.5-1.42.67-2.23.75-.47.05-.98.08-1.39.29-1.19.61-2.46.6-3.73.62-.79.01-1.59-.08-2.32-.44-.71-.35-1.45-.65-2.16-1.01-.59-.3-1.2-.36-1.85-.34-.32.01-.64,0-.95-.07-.3-.08-.62-.2-.85-.4-.71-.64-1.37-1.27-2.31-1.63-1.07-.41-1.74-1.36-2.25-2.37-.14-.28-.2-.6-.25-.91-.14-.79-.12-1.59-.07-2.38.04-.64.23-1.24.47-1.84.55-1.37,1.38-2.5,2.55-3.39.39-.3.84-.43,1.33-.44.33,0,.68.07.86.33.14.19-.04.5-.34.72-.38.28-.79.53-1.17.81-.25.19-.54.38-.68.64-.36.71-.75,1.43-.93,2.19-.25,1.08-.37,2.2.17,3.26.17.34.42.48.79.41.29-.05.52-.23.66-.56.06-.14.07-.31.1-.47.4-1.83,1.55-3.09,3.11-4.03.08-.05.29-.02.36.05.09.1.15.27.14.41-.04.66-.55,1.13-.79,1.86Z"/><path class="cls-1" d="m68.92,83.14c-.03-.35.08-.62.33-.81.38-.27.74-.58,1.15-.8.82-.44,1.67-.84,2.51-1.25.56-.27,1.1-.67,1.69-.79,1.08-.22,2.03-.83,3.09-1.04.78-.15,1.49-.43,2.18-.79.14-.07.28-.14.43-.16.77-.12,1.56-.15,2.31-.34.59-.16,1.12-.54,1.75-.65.62-.11,1.23-.18,1.86-.06l-.07-.07c-.13.9-.73,1.6-1.37,1.68-.31.04-.61.11-.92.13-.78.07-1.57.08-2.35.18-.95.12-1.73.71-2.6,1.06-.72.29-1.41.66-2.19.8-1.08.2-1.99.91-3.1,1.08-.44.07-.83.43-1.26.61-.73.3-1.37.75-2.08,1.08-.43.2-.91.2-1.38.13l.02.02Z"/><path class="cls-1" d="m61.19,372.11c1.31-.19,2.54.02,3.66.75.13.08.3.11.45.17.92.37,1.6,1.04,2.17,1.82.28.38.46.83.5,1.32.09,1.12.02,2.23-.11,3.34-.1.84-.57,1.47-1.21,1.98-.24.18-.58.21-.89.08-.39-.17-.42-.44-.21-.77.17-.27.34-.56.41-.86.28-1.25.39-2.51.15-3.79-.12-.67-.48-1.19-.99-1.58-1.02-.77-2.13-1.38-3.32-1.85-.31-.12-.47-.37-.48-.74l-.12.14Z"/><path class="cls-1" d="m61.31,371.98c-1.1.02-2.2.08-3.3.03-1.15-.04-2.16.3-3.13.86-.12.07-.31.05-.47.05-.34-.01-.6-.16-.67-.43-.03-.11.11-.29.21-.41.42-.5.96-.8,1.61-.87,1.57-.16,3.15-.08,4.72.05.48.04.86.31.92.86l.12-.14Z"/><path class="cls-1" d="m66.05,85.07c0-.31.06-.58.27-.77.31-.29.64-.57.98-.83.48-.37,1.04-.43,1.62-.33l-.02-.02c.02.31-.05.59-.25.77-.32.28-.67.54-1.02.79-.49.36-1.04.45-1.62.34l.04.05Z"/><path class="cls-1" d="m103.69,72.74c-.02-.34.1-.61.37-.79.29-.19.6-.23.82-.03.19.18.08.46-.18.73-.22.23-.46.42-.77.47-.06,0-.15-.25-.23-.38Z"/><path class="cls-1" d="m89.81,105.88c0,.28.05.46,0,.59-.5,1.01-1.24,1.82-2.26,2.27-1.1.48-2.17.22-2.88-.79-.52-.75-.39-2.1.28-2.55.52-.35,1.04-.69,1.6-.96.93-.44,1.81-.26,2.59.41.36.31.63.67.67,1.03Z"/><path class="cls-1" d="m72.78,106.18c0,1.01-.38,1.81-1.24,2.38-.49.33-1.28.34-1.75-.02-1.14-.87-1.07-2.42-.41-3.38.36-.52.86-.9,1.39-1.25.43-.29.73-.25,1.24.16.39.31.61.71.7,1.18.06.3.05.62.08.93Z"/><path class="cls-1" d="m114.09,105.44c0-.34.15-.61.35-.88.58-.83,1.51-1.14,2.34-1.6.31-.17.59-.3.87-.18.45.18.83.46,1,.95.05.15.11.3.13.45.1.83-.09,1.57-.65,2.22-.43.49-.95.84-1.47,1.22-.68.49-1.72.19-2.13-.39-.28-.39-.51-.8-.47-1.31.01-.16.02-.32.04-.47Z"/><path class="cls-1" d="m101.56,106.36c-.04-.33.07-.61.26-.89.27-.39.59-.72.99-.98.57-.37,1.18-.39,1.8-.24.41.1.74.59.79,1.03.09.86-.3,1.5-.89,2.07-.47.46-1.02.7-1.68.67-.6-.03-1.17-.56-1.24-1.2-.02-.15-.02-.31-.03-.46Z"/></g></g></svg>