<?xml version="1.0" encoding="UTF-8"?><svg id="Lavender_Crowd" xmlns="http://www.w3.org/2000/svg" viewBox="0 0 250 430"><defs><style>.cls-1,.cls-2,.cls-3{stroke-width:0px;}.cls-2{fill:#9d5fdb;}.cls-3{fill:#fff;}</style></defs><g id="CIB24_Lavender_Wookie_2"><path class="cls-3" d="m100.7,389.4c-.31,0-.62-.03-.93-.06l-.21-.02c-1.06-.45-2.22-.71-3.44-.77-.16,0-.42-.11-.6-.18-.11-.04-.21-.1-.32-.16-.17-.1-.35-.19-.53-.26-.78-.32-1.45-.63-2.02-.97l-.16-.09-.18-.03c-.56-.09-1.11-.31-1.7-.53-.44-.17-.89-.34-1.37-.48-.52-.14-1.01-.37-1.53-.6-.34-.15-.68-.31-1.03-.44-.44-.17-.74-.33-.95-.52-.64-.56-1.34-.97-2.02-1.37-.7-.41-1.36-.8-1.89-1.31l-.1-.09-.12-.06c-1.13-.62-2.08-1.3-2.9-2.07-.66-.62-1.4-1.02-2.12-1.41-.3-.16-.59-.32-.88-.5-.79-.49-1.54-.95-2.19-1.54l-.36-.33c-1.26-1.15-2.57-2.34-3.75-3.59-.87-.92-1.76-1.83-2.64-2.73-1.44-1.46-2.92-2.98-4.29-4.53-.89-1.02-1.89-1.7-3.04-2.09-.02-.49-.02-1.02.02-1.67.02-.25.13-.53.27-.86.16-.4.35-.84.41-1.38l.02-.16c.07-.68.14-1.32.4-1.86.39-.83.62-1.73.68-2.67.04-.63.15-1.08.34-1.46.09-.17.17-.35.24-.52.1-.23.21-.48.22-.79.02-.79.26-1.57.52-2.4.26-.85.54-1.73.6-2.7,0-.1.02-.2.04-.3.03-.1.04-.2.06-.31.02-.11.05-.27.08-.31.63-.99.74-2.05.84-2.99.02-.21.04-.43.07-.64.02-.16.17-.43.22-.53.06-.11.12-.16.13-.17,0,0-.05.02-.1.02l.73-1.79-.33-.25c-.41-.31-.81-.62-1.21-.93.09-.32.13-.63.18-.91.06-.41.12-.76.26-1.03.2-.37.31-.79.3-1.16,0-.47.13-.97.28-1.5.11-.39.22-.8.29-1.24.26-.57.36-1.15.46-1.67.08-.44.16-.85.31-1.2l.09-.2v-.22c0-.23.09-.49.2-.8.12-.34.26-.72.3-1.17.07-.7.14-1.27.37-1.8.18-.42.19-.86.17-1.15-.01-.32.11-.64.34-1.1.11-.21.2-.44.29-.66.06-.15.13-.3.2-.45.38-.81.56-1.53.57-2.25,0-.09.03-.22.06-.35.21.11.43.22.64.33l1.12.6.32-1.23c.07-.25.11-.42.17-.59l.19-.44-.08-.46.02-.24c.08-1.01.15-2.02.25-3.03.02-.19.11-.43.19-.62.33-.77.5-1.49.53-2.2.04-1.09.15-2.25.68-3.31.24-.47.3-.96.35-1.4l.09-.63c.07-.48.12-.89.29-1.23.39-.78.61-1.67.67-2.71.02-.44.06-.76.19-1.03.42-.9.59-1.82.69-2.6l.04-.28c.04-.33.08-.63.17-.84.64-1.4.76-2.85.82-4.1.03-.6.04-1.21.06-1.81.02-.67.04-1.35.07-2.02.02-.34.1-.73.24-1.12.28-.77.41-1.47.43-2.18.02-1.24.06-2.47.09-3.71.03-1,.05-2,.07-3,.03-1.36.22-2.44.59-3.41.33-.86.25-1.84-.22-2.7-.25-.45-.25-.86,0-1.35.19-.37.31-.8.37-1.23.04-.33.05-.66.07-.99,0-.17.01-.34.02-.51.06-.97.02-1.92-.02-2.84-.02-.36-.03-.73-.04-1.09,0-.25.03-.54.07-.84.02-.15.04-.31.05-.46-.01.13-.07.21-.08.23l.44-1.9c-.29-.15-.57-.3-.85-.46-.52-.54-1.16-.74-1.67-.91l-.28-.09c-.78-.28-1.58-.51-2.35-.74-.44-.13-.88-.26-1.32-.4-.49-.15-.98-.31-1.47-.47-.72-.24-1.45-.47-2.18-.69-1.2-.36-2.23-.84-3.16-1.48-.12-.08-.26-.25-.41-.42,0,0-.07-.09-.07-.09.21-.53.32-1.04.34-1.56.01-.25.08-.55.19-.86.19-.5.29-1.04.33-1.69v-.26c.04-.49.06-.9.22-1.27.21-.47.21-.96.21-1.35v-.21c.01-.43.04-.76.17-1.04.14-.32.2-.64.25-.92.03-.2.06-.4.08-.6.03-.25.06-.5.12-.74.22-.88.46-1.76.7-2.64l.22-.79c.03-.1.06-.19.09-.28.08-.24.16-.49.2-.73.04-.27.07-.55.1-.82.03-.35.07-.69.14-.98l.14-.57c.23-.96.45-1.88.78-2.75.41-1.07.88-2.5.86-4.08,0-.34.06-.66.2-.96.12-.27.19-.52.25-.75.03-.13.06-.26.12-.38.49-1.05.74-2.14.98-3.19.08-.37.17-.73.26-1.1.06-.21.1-.43.15-.64.07-.31.14-.62.24-.93.16-.52.17-1.05.17-1.51,0-.13,0-.26.01-.4,0-.16.04-.28.09-.38l.88-1.52-2.49.02c-1.09,0-2.18-.02-3.28-.06-.51-.02-1.02-.12-1.58-.31-.54-.19-1.06-.37-1.62-.42-.97-.08-1.84-.48-2.8-.95-.49-.24-1-.51-1.39-.86-1.01-.91-2.09-1.89-3.11-2.91-1.26-1.25-1.55-1.74-2.49-3.65l-.37-.73c-.23-.46-.46-.91-.67-1.38-.16-.35-.33-.69-.51-1.02-.39-.75-.76-1.46-.85-2.21l-.02-.17-1.67-3.4s.03-.03.05-.04l1.14-.61-.88-.95c-.34-.37-.79-.57-1.27-.58-.23,0-.49-.08-.78-.16-.29-.08-.62-.18-.98-.22-.32-.04-.64-.04-.97-.04h-.38c-.13,0-.27,0-.4,0-.43-.02-.87-.04-1.3-.06-.53-.02-1.05-.05-1.58-.06-.31,0-.6-.06-.88-.16-.4-.14-.82-.17-1.21-.19-.46-.02-.91-.03-1.37-.05-.35,0-.69-.02-1.04-.03-.12,0-.24,0-.36,0-.2,0-.44,0-.54-.04-.9-.31-1.76-.36-2.6-.4-.24-.01-.48-.02-.72-.04-.12,0-.28-.07-.47-.15-.14-.06-.29-.12-.44-.16-.03,0-.05-.02-.08-.03,0-.05.02-.13.06-.25.14-.47.36-.93.58-1.37.48-.95,2.28-3.79,3.09-4.92.26-.37.5-.75.74-1.13l.08-.13c.64-1.04,1.37-2.07,2.07-3.07.74-1.05,1.51-2.14,2.2-3.27.11-.18.24-.36.37-.54.4-.55.84-1.18,1-2.03.02-.03.05-.06.07-.09.05-.07.1-.14.15-.21l.72-1.08c.73-1.1,1.45-2.19,2.2-3.28.56-.81.96-1.57,1.24-2.31.38-1.01.92-2,1.71-3.1.24-.34.46-.69.67-1.05l.12-.2.02-.23c.12-1.56.75-3.34,1.86-5.32,1.35-2.4,3.02-4.7,4.96-6.82l.06-.07.11-.17c.47-.62.88-1.28,1.27-2.06.85-1.7,1.74-2.99,2.8-4.05.3-.3.57-.57.78-.92.5-.84,1.31-1.47,2.09-2.07.48-.37.94-.75,1.4-1.14.59-.5,1.15-.96,1.74-1.39.37-.27.71-.51,1.08-.7.61-.32,1.21-.67,1.8-1.02l.73-.43c.41-.24.83-.45,1.26-.66l.41-.2-.77-1.84c-.06.02-.11.03-.16.03-.08,0-.16-.02-.26-.07-.67-.31-1.39-.47-2.12-.47h-.2c-.43.02-.87.04-1.3.06-.68.03-1.36.06-2.04.08-.67.02-1.21.25-1.67.46-.81.36-1.62.52-2.54.52-.39,0-.79-.03-1.23-.08-.48-.06-.89-.24-1.22-.52-.45-.38-.92-.79-1.35-1.22-1.29-1.32-2.58-2.58-4.17-3.58-.2-.13-.43-.39-.6-.7-.32-.58-.67-1.19-1.15-1.76-.19-.22-.38-.44-.58-.66-.34-.37-.65-.73-.91-1.1-.28-.41-.52-.87-.77-1.35-.11-.21-.22-.43-.33-.64-.02-.04-.04-.08-.06-.13-.05-.11-.1-.23-.17-.33-.45-.76-.91-1.67-.98-2.68v-.19s-.09-.17-.09-.17c-.42-.9-.6-1.93-.6-3.32,0-.31,0-.63-.02-.94,0-.32-.02-.65-.01-.97,0-.25.04-.51.08-.81.01-.07.02-.1.02-.1.41-.68.58-1.43.74-2.09.13-.56.25-1.09.5-1.51.19-.32.35-.67.51-1.01.11-.25.22-.49.35-.73.36-.65.52-1.29.67-1.92l.03-.14c.02-.1.09-.39.15-.47.48-.56.84-1.16,1.2-1.74.31-.51.61-1,.96-1.42.48-.58,1.04-1.28,1.49-2.11.15-.28.43-.57.72-.87.15-.15.35-.28.56-.41.48-.31,1.08-.69,1.42-1.45.14-.3.4-.57.71-.89.11-.11.22-.23.32-.34l.73-.81c1.01-1.12,2.06-2.28,3.15-3.35.33-.31.55-.68.76-1,.14-.22.27-.43.41-.58.12-.14.34-.27.57-.42.14-.09.28-.18.41-.27l.24-.17.11-.27c.23-.55.73-.93,1.32-1.37l.33-.25c.83-.64,1.45-1.27,1.9-1.92.61-.9,1.36-1.95,2.23-2.96.43-.49.77-1.02,1.11-1.54.28-.43.55-.84.85-1.21.47-.58.81-1.19,1.14-1.78.14-.26.29-.52.44-.77.68-1.11.78-2.28.79-3.28,0-.63-.06-1.24-.13-1.83l-.02-.2c-.03-.27-.05-.53-.07-.8-.08-1.06-.17-2.17-.69-3.27-.11-.23-.12-.68-.12-1-.03-1.59-.03-3.18-.02-4.77,0-.6.09-1.04.27-1.38.28-.52.41-1.05.52-1.52.07-.31.14-.6.24-.84.14-.33.4-.57.73-.66.6-.17,1.14-.25,1.67-.25s1.02.08,1.49.25c.08.03.16.06.23.1l.15.07c1.52.66,3.13,1.37,4.58,2.27.23.14.48.27.72.4.19.09.37.19.55.3.49.3,1.04.46,1.58.46.42,0,.83-.09,1.21-.28l.54-.26c.87-.41,1.76-.83,2.58-1.48.52-.41,1.12-.87,1.78-1.14l.12-.05.1-.08c1.32-1,2.76-1.76,4.3-2.56l.93-.49c.49-.26,1.05-.42,1.65-.58.63-.17,1.29-.35,1.93-.67.07-.03.29-.05.43-.06h.14c.76-.07,1.45-.1,2.08-.1.71,0,1.36.04,1.98.11,0,.02.05.09.11.23l.26.54.83.03c.99,0,1.82-.25,2.56-.75.17-.12.43-.18.84-.19.39-.01.79-.02,1.18-.02,1.56,0,3.15.1,4.7.2l.74.05c.21.01.32.07.39.12.2.14.39.27.58.41.46.33.94.67,1.45.98.71.42,1.42.77,2.21,1.15.38.18.73.47,1.1.78l.25.2c.64.52,1.26,1.03,1.9,1.51.67.51,1.66.56,2.05.56.43,0,1.25-.06,1.86-.46l.16-.1c.23-.15.5-.32.74-.54.58-.52,1.28-.98,2.16-1.38.17-.08.35-.15.52-.23.44-.18.89-.38,1.33-.65.91-.58,1.98-.61,3.11-.64.15.05.25.07.34.09.12.02.16.05.16.05.57.88,1.11,1.86,1.13,2.99.01.8.27,1.5.55,2.2.1.25.17.48.19.67.14,1.13.15,2.34.01,3.59-.02.15-.12.38-.22.59-.54,1.17-.6,2.34-.6,3.23,0,.6.07,1.36.55,1.98.75.96,1.34,2.01,1.98,3.12l.23.4c.43.76.78,1.56,1.15,2.41.21.48.41.95.63,1.42l.05.1c.08.17.18.37.19.48.07.66.32,1.22.54,1.71.16.37.32.72.36,1.04.17,1.17.4,2.52.96,3.81.16,1.32.79,2.43,1.34,3.41l.19.34c.27.48.57.9.87,1.32.35.49.68.95.91,1.44.24.51.62.89.95,1.23,0,0,1.8,1.85,2.63,2.7,1.29,1.32,2.58,2.65,3.86,3.98.39.41.73.92,1.02,1.37.75,1.2,1.35,2.46,1.98,3.8l.37.78c.21.44.33.94.47,1.46.18.71.36,1.44.77,2.15l.02.16c.26,2.03.32,3.83.16,5.53-.04.44-.21.89-.38,1.37-.2.54-.43,1.16-.5,1.86-.02.25-.04.5-.05.75-.03.65-.07,1.27-.29,1.76-.29.64-.49,1.29-.67,1.92-.18.6-.35,1.16-.59,1.69-.53,1.18-1.3,2.14-2.34,2.94-.04.03-.18.09-.36.09-.32,0-.36-.14-.38-.22-.03-.13-.05-.26-.07-.39-.03-.19-.06-.38-.1-.56-.26-1.06-.96-1.44-1.53-1.44-.27,0-.68.08-1.07.47l-.37.37c-.21.21-.42.42-.63.62-.1.1-.2.2-.3.3-.2.21-.39.4-.55.49-.8.42-1.48.95-2.15,1.46-.33.26-.67.52-1.01.76-.05-.02-.13-.06-.18-.16-.01-.03-.03-.06-.04-.1-.05-.13-.1-.26-.17-.37-.35-.63-1.04-1.02-1.79-1.02-.5,0-.99.18-1.36.5-.42.36-.98.85-1.17,1.63-.01.05-.03.11-.04.18l-.12.7.6.42c.97.54,1.78,1.11,2.48,1.74.31.28.61.56.91.84l.48.45s.08.08.11.12c.15.15.34.37.63.52.82.44,1.49,1.11,2.21,1.82l.58.57c.22.22.47.46.79.66.78.5,1.39,1.11,1.87,1.87l.05.08.06.07c1.4,1.52,2.52,3.23,3.69,5.05l.67,1.03c.19.29.31.49.36.59v.25s.18.28.18.28c.18.27.38.57.73.78.11.3.24.59.4.87l.29.5h.21c.35.43.71.86,1.03,1.31.4.56.79,1.12,1.17,1.68.57.82,1.13,1.64,1.73,2.44.93,1.24,1.79,2.58,2.62,3.88.57.89,1.15,1.78,1.75,2.65,1.8,2.61,3.68,5.19,5.45,7.61l.28.37c.37.49.71.95.96,1.46.23.48.52.89.8,1.28l.18.26c.15.22.23.48.24.81,0,.34-.04.47-.1.54-.09.13-.18.27-.27.41-.15.24-.3.47-.47.65-.65.69-1.42,1.24-2.24,1.82-.27.19-.54.39-.81.59-.22.17-.59.37-1.04.38l-1.54.05.67,1.39c.18.38.38.76.58,1.13.22.42.35.89.42,1.48l.03.26c.04.45.1,1.01.38,1.51.54.95.62,1.99.66,3.25,0,.25.02.49.03.74.04.84.08,1.64-.05,2.4-.04.22-.07.4-.14.5-.06.09-.12.17-.17.26-.09.15-.18.29-.26.36-.48.46-.8.99-1.08,1.46-.21.34-.4.67-.63.92-.71.79-1.36,1.51-2.22,1.89-.33.15-.59.35-.82.52l-.16.12c-.84.62-1.29,1.45-1.3,2.4,0,.79,0,1.58,0,2.37,0,.65,0,1.29,0,1.94,0,.06,0,.22-.29.46-.22.19-.47.35-.71.51-.13.09-.26.18-.39.27-.06.04-.12.08-.19.12-.25.14-.58.34-.82.69-.83,1.21-1.83,2.26-2.9,3.37-.71.73-1.43,1.49-2.11,2.3-.57.69-.98,1.42-1.38,2.18-.2.38-.38.77-.56,1.17-.22.48-.42.94-.68,1.37-.86,1.43-1.66,3-2.44,4.8-.29.68-.63,1.38-1.06,2.22l-.16.32.08.35c.04.2.07.4.11.6.08.49.16,1.04.4,1.6.06.15.1.38.13.62.05.34.1.71.26,1.1.06.64.18,1.26.3,1.86.15.75.29,1.45.31,2.16.02,1.07.05,2.18.39,3.33.1.35.14.75.17,1.18.04.5.09,1.07.26,1.64.11.38.12.84.13,1.33,0,.19.03.85.03.99.02.61.03,1.31.32,2.03.05.11.06.34.07.56,0,.11.01.22.02.33.05.6.1,1.26.37,1.93.13.33.14.73.15,1.2,0,.16,0,.32.01.48,0,.01-.02.02-.03.03-.43.22-.85.46-1.27.71-.7.41-1.37.8-2.08,1.05-.47.16-.91.38-1.33.58-.29.15-.59.29-.89.41-.66.26-1.17.66-1.63,1.02-.23.18-.46.36-.71.52-.3.19-.51.5-.59.82-.02.11-.05.15-.54.37l-.29.13c-.14.06-.27.12-.41.18l-.3.12.68,1.88c.56-.16,1-.34,1.39-.58.04-.02.21-.05.32-.07.1-.02.21-.04.31-.06h.02c.48,0,.94.34.99.59.02.1.05.21.07.31.04.18.09.34.09.46.05,1.18.29,2.22.74,3.16.13.27.21.6.29.95.14.59.31,1.27.75,1.89.1.14.13.44.17.75l.02.17c.02.13.02.27.02.4,0,.38.02.85.22,1.3.49,1.12.62,2.33.76,3.62l.09.78c.04.37.16.75.37,1.2.3.66.4,1.38.45,2,.04.44.09.87.13,1.31l.08.79.08.16c.54,1.09.57,2.32.59,3.62,0,.39.01.78.04,1.17.04.67.07,1.33.1,2,.04.93.09,1.87.14,2.8.02.37.1.77.25,1.2.16.47.33,1.02.37,1.59.03.47.07.93.1,1.4.04.49.08.98.11,1.47.04.7.27,1.31.44,1.71.18.42.27.9.29,1.5.07,2.72.13,5.44.21,8.15.02.65.05,1.31.1,1.96.03.42.06.85.24,1.26.57,1.3.53,2.72.49,4.22v.51s-.02,0-.02,0c-.02,0-.07.03-.15.05l-.96.22.16.97c.04.2.09.4.14.6.15.63.29,1.23.29,1.82,0,1.42.03,2.7.48,3.98.04.71.17,1.4.28,2.06.06.32.11.63.16.95.09.59.09,1.21.09,1.86,0,.38,0,.77.02,1.15.01.21.01.42.01.64,0,.73.01,1.54.34,2.36,0,.16.01.31.02.47.02.36.04.73.02,1.08l-.02.31.16.26c.24.4.36.79.35,1.18,0,.27-.07.57-.14.88-.04.2-.09.4-.12.6l-.46,2.79,2.11-1.87c.57-.51,1.18-.9,1.87-1.19l.16-.07c.78-.34,1.45-.63,2.18-.63.49,0,1.21-.05,1.88-.43.5-.28,1.07-.45,1.68-.63.28-.08.56-.17.83-.26.81-.28,1.6-.62,2.34-1.02.7-.37,1.47-.54,2.42-.69l.12-.02c.32-.05.69-.1,1.06-.26.76-.33,1.56-.52,2.45-.57,1.19-.07,2.21-.31,3.13-.71.16-.07.41-.1.61-.12,1.96-.17,3.46-.25,4.85-.25,1.1,0,2.12.05,3.09.15.42.04.78.22,1.11.53.15.15.3.3.45.45.55.57,1.17,1.21,2.06,1.57.79.33,1.34.9,1.73,1.8.1.22.22.44.34.65.11.2.22.38.27.53.08.25.15.49.22.74.19.68.39,1.39.72,2.1.13.28.21.64.29,1.01.09.4.18.8.34,1.22.24.59.32,1.24.41,1.92.03.22.06.45.09.67.1.66.39,1.18.64,1.63.19.34.14.51,0,.7-.39.5-.78.92-1.16,1.24-1.61,1.36-3.09,2.84-4.58,4.37-.46.47-1.01.87-1.67,1.21-.91.47-2.99,1.96-3.68,2.49-.52.4-1,.72-1.46.98-1.7.95-3.54,1.95-5.44,2.8-.78.35-1.51.78-2.24,1.33l-.13.1c-.22.16-.46.35-.6.36-.81.06-1.47.38-2.05.66-.41.2-.8.39-1.18.45-.79.13-1.47.47-2.06.76-.4.2-.78.39-1.16.5-.36.11-.68.25-.99.39-.26.11-.51.23-.78.31-.4.12-.79.27-1.18.42-.5.19-.98.38-1.44.47-.55.11-1.03.32-1.47.5-.42.18-.81.34-1.19.4-.89.13-1.62.47-2.33.81l-.18.09c-.22.1-.51.16-.81.22-.48.1-1.02.21-1.55.53-.29.17-.65.26-1.08.37-.16.04-.33.08-.49.13-.38.11-.74.25-1.11.39-.38.15-.74.29-1.09.37-.92.21-1.73.52-2.41.79-.39.16-.83.26-1.3.37-.64.15-1.29.31-1.95.62-.12.06-.4.08-.64.09-.15,0-.3.02-.45.04-.43.05-.86.09-1.29.13l-.8.08-.18.1c-.97.54-2.1.57-3.53.6-.37,0-.75.02-1.15.04-.07,0-.16,0-.25,0-.5,0-1.2-.04-1.87-.11-.03-.03-.11-.1-.11-.1-.25-.94-.5-1.75-.86-2.56-.24-.53-.23-1.21-.23-1.92,0-1.04-.25-1.95-.76-2.82-.21-.35-.31-.78-.3-1.31,0-.57.01-1.23-.35-1.88-.26-.47-.4-.94-.43-1.41-.07-1.15-.43-2.17-.75-3.05-.14-.39-.26-.78-.38-1.18-.19-.62-.38-1.27-.67-1.91-.12-.84-.37-1.68-.81-2.69,0,0,.12-.33.12-.33l-.09-.35c-.1-.35-.2-.7-.3-1.05l-.26-.98-.47-.23c-.19-.08-.36-.15-.53-.21l-.07-.13c-.04-.06-.08-.13-.1-.19-.1-.94-.41-1.83-.71-2.68-.13-.37-.26-.74-.37-1.11l-.03-.11c-.33-1.12-.67-2.28-1.15-3.39-.27-.61-.42-1.28-.59-1.98-.17-.69-.33-1.4-.62-2.1,0-.05,0-.13,0-.21,0-.18,0-.36-.04-.53-.05-.31-.13-.71-.28-1.11-.3-.79-.65-1.84-.71-2.93v-.13s-.05-.12-.05-.12c-.21-.67-.36-1.36-.52-2.1-.18-.83-.37-1.69-.66-2.54-.1-.3-.17-.61-.22-.97l1.85.05-1.12-1.63c-.04-.05-.06-.11-.09-.17-.12-.33-.27-.66-.41-.99-.23-.54-.45-1.06-.6-1.59-.13-.46-.28-.91-.43-1.37-.3-.88-.58-1.72-.64-2.58-.02-.31-.13-.64-.31-.92-.26-.41-.38-.93-.5-1.48-.14-.63-.31-1.35-.71-2.01-.17-.49-.38-.96-.58-1.44-.35-.8-.67-1.56-.82-2.35l-.03-.17-.09-.15c-.31-.52-.49-1.12-.68-1.76-.07-.24-.15-.49-.23-.73-.14-.42-.32-.84-.51-1.25-.14-.32-.29-.65-.4-.98-.15-.43-.44-.85-.8-1.18-.35-.32-.77-.5-1.14-.63l-.17-.06h-.18c-.69,0-1.14.7-1.25,1.05-.11.36-.27.72-.45,1.1-.3.67-.61,1.36-.73,2.18-.05.36-.21.73-.38,1.12-.2.46-.42.98-.52,1.57-.07.41-.23.84-.4,1.29-.28.75-.6,1.6-.57,2.59,0,.08-.04.25-.13.44-.42.83-.74,1.74-.98,2.76-.52.83-.73,1.73-.92,2.54-.13.55-.25,1.06-.45,1.52-.4.91-.68,1.86-.95,2.77-.09.32-.19.64-.29.96-.05.16-.09.33-.14.49-.07.27-.14.53-.24.75-.16.33-.49.57-.91.62l-1.12.15.24.89-.06.13c-.16.36-.31.73-.5,1.08-.63,1.15-1.06,2.43-1.33,3.9,0,.05-.02.11-.02.16-.34.47-.42.98-.49,1.36-.03.19-.06.37-.12.48-.07.15-.15.3-.23.45-.24.43-.5.91-.62,1.53-.07.38-.3.82-.51,1.24-.2.38-.26.72-.31.99-.02.11-.04.22-.07.33-.01.05-.07.14-.12.23-.15.26-.35.62-.38,1.11,0,.12-.15.31-.29.49-.33.4-.56.86-.72,1.42-.19.68-.41,1.39-.74,2.06l-.09.18c-.12.25-.23.47-.37.63-.25.29-.61.7-.61,1.27,0,.58-.28,1.11-.61,1.73l-.27.52-.03.15c-.15.85-.39,1.7-.58,2.34l-.35,1.18,1.65.14c.28.02.52.23.87.56.6,1.16,1.41,2.13,2.19,3.08l.37.45c.41.5.72,1.1,1.05,1.74.18.34.36.69.55,1.02,1.22,2.11,2.59,3.53,4.29,4.47l.15.08c.19.1.37.2.48.3,1.07.94,1.95,1.73,2.82,2.55.65.62.97,1.19,1.04,1.85.04.42.18.8.31,1.12.04.1.09.23.11.31-.49,1.18-.54,2.35-.6,3.49-.02.47-.04.94-.1,1.41-.04.32-.14.65-.34,1.07-.27.59-.41,1.16-.44,1.74l-.04.88c-.03.65-.06,1.3-.12,1.95-.04.38-.17.79-.3,1.13-.04.11-.09.21-.14.32-.17.36-.37.81-.37,1.37,0,1.25-.53,2.42-1.09,3.52l-.61.15-.18.69-.03.21c-.03.19-.05.38-.09.57-.48.22-1.02.42-1.55.62-.35.13-.71.26-1.06.4-.33.13-.7.21-1.1.3-.56.13-1.14.26-1.72.54-.28.13-.59.19-1.03.19Z"/><g id="Color"><path class="cls-2" d="m103.12,266.18c-3.35-.05-6.71-.1-10.06-.14-.48,0-.94-.07-1.39-.27-.35-.15-.77-.2-1.16-.22-.64-.04-1.28-.02-1.92-.01-.4,0-.79-.02-1.17-.2-.14-.07-.31-.14-.46-.13-1.38.07-2.65-.53-4.01-.6-1.03-.44-2.19-.39-3.22-.84-1.25-.05-2.27-.68-3.32-1.26-.44-.52-1.05-.65-1.66-.86-1.2-.43-2.43-.74-3.64-1.12-1.21-.38-2.42-.79-3.63-1.16-1.23-.37-2.38-.89-3.44-1.62-.26-.18-.46-.44-.67-.68-.21-.25-.37-.54-.23-.87.19-.45.31-.89.33-1.38.02-.39.12-.79.25-1.16.17-.46.24-.93.27-1.4.04-.64.03-1.26.31-1.87.15-.34.12-.78.13-1.18.01-.48.05-.95.24-1.41.09-.22.14-.46.18-.69.08-.47.1-.95.21-1.42.29-1.16.61-2.3.92-3.45.08-.31.22-.6.27-.91.1-.63.1-1.28.25-1.89.28-1.15.53-2.32.96-3.44.46-1.2.81-2.41.79-3.71,0-.48.09-.94.3-1.39.17-.36.2-.78.36-1.13.61-1.31.82-2.74,1.18-4.12.14-.54.24-1.08.4-1.61.16-.52.12-1.1.14-1.66.02-.41.14-.79.42-1.09.32-.36.64-.71.99-1.04.41-.4.89-.66,1.5-.64.41.02.78-.12,1.13-.33.62-.37,1.26-.65,1.97-.82.46-.11.91-.27,1.4-.26.97.03,1.89-.17,2.8-.53.59-.23,1.22-.37,1.82-.57.53-.18,1.06-.37,1.49-.74.76-.65,1.69-.86,2.63-1.02.48-.08.93-.18,1.35-.43.41-.24.84-.47,1.28-.66,1.7-.73,3.15-1.85,4.62-2.95.51-.38,1.03-.75,1.54-1.13.45-.33.91-.63,1.48-.75.31-.06.61-.21.87-.38.85-.54,1.79-.6,2.77-.58.8.02,1.39.34,1.79,1,.59.96,1.3,1.81,2.26,2.44.87.56,1.58,1.33,2.57,1.74,1.07.44,1.88,1.18,2.28,2.31.39.5.27.98.07,1.55-.38,1.08.15,2.37,1.07,2.93.69.42,1.41.71,2.26.64.79-.06,1.6-.04,2.39,0,.71.03,1.45-.07,2.11.31.06.04.15.04.23.04,1.04.05,2.07.1,3.05.49.91-.07,1.7.38,2.54.59,1.88.46,3.59,1.28,5.2,2.34.27.18.54.34.81.5.49.29,1.01.47,1.59.47.32,0,.64,0,.96,0,.49-.01.93.09,1.38.32,1.71.86,3.44,1.67,5.05,2.7.82.52,1.74.78,2.63,1.11.29.11.62.13.94.16,1.12.08,2.23.08,3.35.04.76-.03,1.46-.2,2.01-.65.69-.57,1.44-.98,2.24-1.34.36-.16.66-.45.99-.67.13-.08.29-.06.43.06.24.21.53.4.67.67.25.49.47,1.02.59,1.56.16.69.18,1.4.46,2.09.24.57.16,1.26.45,1.85.11,1.43.59,2.8.63,4.24.02,1.03.05,2.05.35,3.07.27.9.15,1.89.43,2.83.2.67.15,1.42.19,2.14.04.72-.02,1.43.27,2.12.14.36.12.78.16,1.18.05.56.09,1.1.3,1.64.27.68.19,1.41.24,2.13.02.26-.14.45-.29.63-.05.06-.11.13-.17.16-1.21.59-2.3,1.42-3.59,1.86-.75.26-1.44.69-2.18.98-.84.33-1.44.99-2.18,1.45-.06.04-.12.12-.14.19-.16.75-.79.91-1.37,1.19-1.15.55-2.34.98-3.55,1.37-1.51.48-2.99,1.07-4.52,1.51-2.05.58-2.5.71-4.19.85-.47.04-.95.04-1.41.23-.29.12-.62.17-.93.18-1.53.03-2.98.43-4.45.81-.31.08-.62.15-.93.18-.71.08-1.44.03-2.11.37-1.04.06-2.07.13-3.11.18-.48.02-.96.02-1.44.03-1.05.5-2.2.27-3.3.41-.32.04-.67-.02-.95.1-.92.41-1.88.3-2.83.31-.56,0-1.12-.03-1.68.01-2.39.18-4.79.12-7.19.13Z"/><path class="cls-2" d="m163.3,177.97c0-.64.01-1.28,0-1.92-.01-.64-.03-1.28-.08-1.92-.05-.63-.4-1.2-.4-1.86,0-.3-.19-.6-.32-.89-.2-.43-.46-.84-.64-1.28-.19-.46-.46-.84-.85-1.13-.58-.43-1.11-.92-1.54-1.5-.48-.65-1.06-1.17-1.84-1.47-.28-.11-.5-.38-.75-.59-.73-.62-.81-.57-1.7-.09-.7.37-1.4.79-2,1.31-1.15.99-2.37,1.89-3.46,2.95-.81.79-1.48,1.68-2.07,2.62-.72,1.14-1.37,2.34-2.03,3.52-.74,1.33-1.23,2.77-1.79,4.17-.32.81-.48,1.68-.69,2.53-.1.39-.11.8-.25,1.17-.17.47-.19.93-.19,1.41,0,.72,0,1.44-.04,2.16-.01.33-.18.62-.45.81-.32.23-.67.43-1,.65-.17.11-.29.1-.42-.06-.31-.36-.68-.69-.93-1.09-.26-.41-.58-.76-.92-1.1-.67-.68-1.38-1.31-2.16-1.89-.7-.52-1.3-1.18-2.08-1.6-.42-.23-.78-.55-1.18-.82-.29-.19-.38-.48-.49-.78-.11-.29-.23-.61-.44-.84-.86-.94-1.79-1.83-2.79-2.63-.77-.62-1.59-1.05-2.62-.98-.54.04-1.03-.46-1.6-.19-.45-.18-.88-.37-1.27-.66-1.16-.88-2.47-1.44-3.85-1.86-.23-.07-.46-.15-.7-.15-1.12,0-2.24.03-3.36.06-.56.02-1.04.37-1.63.36-.8-.02-1.55.2-2.32.48-.73.26-1.56.31-2.32.54-.4.12-.71.39-.92.72-.38.61-.69,1.26-.64,2.02.05.8.07,1.6.09,2.4.01.41.34.72.28,1.15-.03.18-.29.47-.48.44-.23-.04-.46-.08-.68-.15-.22-.08-.43-.27-.65-.28-1.11-.07-2.26-.28-3.34.03-1.12.33-2.17.47-3.26.02-.12-.05-.33,0-.45.07-.33.22-.66.45-.94.73-1.04,1.06-2.24,1.78-3.73,1.97-2.06.63-4.1,1.28-6.07,2.15-2.33,1.03-4.71,1.94-7.09,2.84-.59.22-1.2.37-1.81.54-.04.01-.14-.1-.16-.16-.05-.15-.1-.31-.09-.46.04-1.12.09-2.24.15-3.35,0-.16.03-.32.1-.46.28-.6.28-1.24.31-1.88.02-.4-.05-.84.09-1.19.46-1.15.43-2.35.46-3.54.01-.49.05-.95.25-1.4.06-.14.08-.31.09-.47.06-1.6.12-3.19.18-4.79.03-.79-.12-1.6.17-2.38-.04-.55-.29-1.06-.23-1.64.06-.55.02-1.12.06-1.68.04-.59-.24-1.06-.45-1.58-.27-.7-.91-.84-1.57-.66-.24.07-.43.22-.47.48-.12.62-.25,1.24-.38,1.86-.16.77-.08,1.59-.11,2.39-.02.8-.03,1.6-.07,2.39,0,.11-.14.23-.23.32-.03.03-.17-.03-.21-.08-.86-.95-1.79-1.82-2.55-2.86-.32-.44-.79-.78-1.21-1.15-.18-.16-.43-.24-.58-.41-1.01-1.17-2.38-1.86-3.64-2.68-1.13-.74-2.35-1.36-3.37-2.27-.06-.05-.12-.1-.19-.14-1.68-.92-3.36-1.83-5.11-2.6-1.18-.21-2.29-.64-3.43-1.01-.22-.07-.47-.06-.71-.06-.56,0-1.12.02-1.68.02-.31,0-.5-.22-.37-.43.2-.34.36-.72.61-1.03.45-.57.81-1.19,1.13-1.83.79-1.58,1.73-3.06,2.99-4.31.23-.22.47-.45.63-.72.58-.99,1.45-1.67,2.34-2.35,1.07-.83,2.07-1.76,3.17-2.55.39-.28.77-.55,1.2-.77.85-.44,1.66-.95,2.49-1.43.82-.48,1.71-.83,2.53-1.32,1.24-.74,2.65-1.07,4.04-1.43,1.08-.28,2.17-.53,3.23-.85.79-.24,1.58-.2,2.37-.1.14.02.28.15.38.26.16.18.26.4.41.58.21.25.49.42.83.4.69-.04,1.19.25,1.69.72.46.43,1.02.74,1.35,1.32.12.2.28.42.48.53,1.13.63,1.92,1.68,2.99,2.38,1,.65,1.95,1.38,2.93,2.07.33.23.68.41,1.03.6.55.31,1.34-.22,1.35-.88,0-.33-.12-.62-.24-.91-.11-.27,0-.41.34-.41.4,0,.81-.05,1.19.03.7.14,1.37.41,2.1.45.8.05,1.53.42,2.28.68.68.23,1.31.59,1.96.9.14.07.28.16.43.21.4.12.81.09,1.13-.2.29-.27.54-.59.81-.88.24-.26.55-.3.88-.26.08.01.16.02.24.03.64.06,1.19.48,1.85.47.56,0,1.1.11,1.64.28.29.09.65.11.94.01,1.1-.36,2.18-.43,3.28-.05.15.05.26-.04.36-.2.25-.4.53-.79.77-1.2.07-.13.1-.32.07-.46-.11-.46-.29-.91-.39-1.37-.09-.37.28-.83.64-.87,1.36-.17,2.72-.11,4.04.19.47.1.93.21,1.4.24.48.04.97.06,1.42.21,1.01.35,2.04.3,3.08.33.13,0,.33-.1.39-.22.2-.34.36-.71.51-1.08.17-.4.48-.62.86-.78.21-.09.4-.22.67-.12.84.31,1.73.29,2.6.28.62,0,1.15-.6,1.19-1.27.04-.73-.05-1.42-.34-2.1-.08-.2.14-.45.38-.5.41-.09.8-.05,1.18.1,1.25.5,2.56.89,3.72,1.61.13.08.29.14.43.2.3.13.68.03.84-.24.2-.34.37-.71.61-1.02.24-.32.56-.58.98-.65.41-.07.75-.22.97-.61.12-.2.29-.38.46-.55.23-.24.83-.33,1.13-.18,1.14.59,2.19,1.3,3.15,2.16.48.43.94.87,1.41,1.31.18.16.33.37.53.48,1.15.61,2,1.57,2.92,2.46.23.22.45.46.72.63.89.57,1.62,1.29,2.18,2.18,1.74,1.89,3.06,4.08,4.46,6.21.8,1.22.77,1.31-.5,1.89-.58.27-1.2.47-1.72.83-1.11.78-2.36,1.32-3.47,2.12-1.49,1.08-3.05,2.05-4.29,3.42-1.52,1.05-2.76,2.42-4.13,3.64-.22.2-.4.16-.54-.1-.18-.35-.39-.69-.12-1.1.08-.12.08-.31.09-.46.03-1.68.06-3.35.08-5.03,0-.18-.24-.51-.41-.53-.4-.03-.8-.08-1.19-.04-.32.04-.59.29-.68.6-.11.38-.16.78-.2,1.17-.09,1.03.05,2.08-.39,3.07-.04.72-.11,1.43-.12,2.15-.03,1.6-.05,3.2-.06,4.8,0,.4,0,.8-.15,1.18-.13.31-.12.62,0,.93.19.46.22.96.1,1.42-.16.63-.31,1.22-.01,1.85.05.12-.02.31-.07.46-.11.31-.21.61-.07.93.2.45.2.93.2,1.41,0,.8,0,1.6,0,2.4,0,.65.07,1.26.38,1.85.24.45.05.94-.07,1.4-.01.04.08.16.13.17.14.02.29.02.43-.02.06-.01.12-.11.15-.18.47-1.18.98-2.35,1.39-3.56.2-.59.22-1.25.43-1.86.05-.13-.01-.32-.07-.46-.16-.38-.22-.77-.22-1.17,0-1.28.01-2.56.02-3.84,0-.08,0-.16.01-.24.06-.3.19-.61.19-.91,0-.31-.14-.62-.18-.93-.03-.24.01-.48,0-.72-.03-.53.15-.96.61-1.21.87-.46,1.47-1.2,2.14-1.88.12-.42.43-.64.81-.82.88-.41,1.61-1,2.29-1.7.66-.68,1.27-1.45,2.2-1.82.53-.49,1.06-.97,1.59-1.46.35-.33.72-.62,1.22-.72.22-.04.44-.19.62-.34,1.05-.86,2.09-1.73,3.14-2.59.62-.51,1.25-.98,2.04-1.21.07-.02.19-.02.23.03.45.55.92,1.1,1.34,1.68.97,1.36,1.89,2.76,2.89,4.1,1.58,2.11,2.9,4.39,4.4,6.56,1.76,2.56,3.59,5.08,5.43,7.58.47.64.97,1.25,1.33,1.98.24.5.59.95.91,1.41.29.41.4.86.42,1.35.01.41-.04.8-.28,1.14-.27.39-.49.81-.83,1.17-.94,1-2.1,1.72-3.18,2.53-.5.37-1.11.62-1.79.59-.48-.02-.96.02-1.44.02-.15,0-.35-.02-.45-.11-.42-.37-.83-.74-1.19-1.17-.12-.15-.11-.46-.08-.68.06-.53-.16-.93-.54-1.26-.3-.26-.63-.49-.95-.73-.55-.42-1.14-.52-1.8-.25-.32.13-.55-.1-.54-.47.02-1.12.05-2.24.07-3.36,0,0-.01,0-.02,0Z"/><path class="cls-2" d="m78.26,178.88c-.07.84.01,1.49-.3,2.09-.1.2-.08.47-.09.71-.03.32-.03.64-.06.96-.06.79-.41,1.53-.4,2.35.01.8-.06,1.6-.09,2.39-.01.4-.08.79-.22,1.17-.2.53-.19,1.09-.18,1.65,0,.32.25.57.6.59.31.01.63,0,.94.03.07,0,.16.07.19.13.02.05-.04.14-.09.2-.04.07-.09.14-.15.18-.99.5-1.92,1.11-3.01,1.41-.84.23-1.67.53-2.45.94-1.06.56-2.18.97-3.31,1.35-.38.13-.74.28-1.1.45-.73.33-1.47.62-2.29.58-.41-.02-.77.13-1.14.32-1.49.76-2.98,1.52-4.49,2.26-.64.31-1.32.55-1.99.81-1.7.66-3.42,1.29-5.08,2.05-1.02.47-2.09.77-3.23.77-.33,0-.64-.08-.78-.42-.14-.33-.41-.53-.73-.54-.66,0-1.23-.32-1.86-.39-.55-.06-1.12-.02-1.68-.04-.96-.03-1.92-.09-2.87-.12-.4-.01-.78-.08-1.17-.21-.3-.1-.62-.13-.94-.14-.8-.04-1.6-.05-2.4-.08-.4-.02-.83.03-1.19-.1-1-.35-2.04-.3-3.07-.38-.41-.03-.76-.24-1.13-.36-.77-.25-.91-.72-.67-1.51.16-.53.4-1.04.65-1.54.52-1.04,2.38-3.96,3.18-5.06.28-.39.53-.8.78-1.2,1.34-2.17,2.94-4.16,4.27-6.34.45-.74,1.11-1.37,1.25-2.29.03-.22.23-.41.36-.61.97-1.46,1.93-2.93,2.93-4.37.46-.66.85-1.35,1.13-2.1.45-1.2,1.09-2.29,1.84-3.33.56-.78,1.05-1.61,1.38-2.51.59-1.58,1.46-3.02,2.41-4.39.68-.99,1.3-2,1.82-3.08.14-.28.33-.54.5-.81.12-.19.41-.29.63-.2.44.18.87.41,1.36.43,1.05.05,2.02.43,2.98.81,1.71.68,3.36,1.48,4.87,2.52.26.18.53.36.81.51,1.64.84,3.11,1.93,4.63,2.95.93.62,1.85,1.26,2.71,1.96.86.7,1.73,1.42,2.26,2.44.14.28.34.55.57.77.94.91,1.32,2.18,2.09,3.19.12.81.59,1.47.9,2.2.15.35.12.77.14.96Z"/><path class="cls-2" d="m135.51,346.62c.32.98.53,1.58.72,2.18.04.12-.11.25-.29.26-.32.02-.64.02-.96.01-.34-.01-.6-.2-.8-.46-.29-.38-.55-.77-.59-1.28-.09-1.2-.48-2.33-.8-3.48-.11-.39-.27-.76-.25-1.16.05-.9-.21-1.73-.48-2.56-.24-.76-.43-1.51-.53-2.31-.1-.78-.35-1.55-.73-2.25-.38-.71-.68-1.43-.72-2.26-.02-.38-.26-.74-.38-1.12-.4-1.28-.65-2.62-1.29-3.82-.11-.2-.12-.46-.15-.69-.05-.4-.06-.8-.12-1.19-.09-.57-.59-.95-1.19-.94-.24,0-.48.03-.72.05-.2.02-.42.29-.43.49-.03.48,0,.95.21,1.4.1.21.2.44.24.67.11.54.15,1.11.31,1.64.35,1.22.76,2.42,1.14,3.64.05.15.04.33.12.46.6,1.05.9,2.21,1.21,3.36.18.69.39,1.38.65,2.04.44,1.11.52,2.32.97,3.44.56,1.4.74,2.92,1.31,4.33.11.28.07.63.09.95.02.35-.25.6-.56.59-.74-.02-1.36-.42-2.04-.62-.12-.03-.2-.23-.27-.37-.11-.21-.26-.43-.28-.66-.14-1.28-.7-2.44-1.06-3.66-.34-1.14-.67-2.29-1.14-3.38-.57-1.33-.69-2.78-1.22-4.11-.11-.28-.05-.63-.1-.95-.05-.31-.12-.63-.23-.92-.4-1.05-.71-2.11-.77-3.23-.48-1.52-.65-3.11-1.17-4.61-.18-.54-.27-1.08-.32-1.64-.02-.3.26-.67.54-.67.56,0,1.11.03,1.67.05.58.47,1.23-.05,1.83.12,1.41-.29,2.85-.26,4.27-.32.56-.02,1.09-.09,1.63-.28.51-.18,1.13-.06,1.65-.23.69-.23,1.38-.38,2.1-.43.64-.05,1.19-.43,1.84-.48.54-.05,1.05-.34,1.6-.45.41-.08.73-.32,1.09-.48,1.53-.67,2.99-1.49,4.57-2.06.52-.19.99-.51,1.47-.79,1.1-.64,2.2-1.29,3.29-1.96,1.1-.67,2.29-1.11,3.53-1.41.54-.13,1.01-.53,1.6-.41.14.03.37.13.38.22.16,1.1.58,2.14.57,3.27,0,1.27.01,2.56.47,3.78.05,1.04.29,2.05.44,3.07.15,1.02.08,2.07.13,3.11.05.95-.07,1.92.35,2.83.02.72.12,1.45.03,2.15-.09.71-.42,1.38-.99,1.86-.42.36-.9.66-1.35.98-.19.13-.33.09-.35-.12-.05-.63-.06-1.27-.14-1.9-.11-.94.06-1.91-.34-2.83-.15-.34-.04-.79-.08-1.18-.1-1.03.04-2.08-.38-3.07-.12-.28-.09-.63-.1-.94-.03-.72-.04-1.44-.05-2.16-.01-.96.03-1.92-.33-2.83.06-.46.16-.89-.06-1.37-.16-.34-.09-.78-.14-1.18-.03-.22-.54-.5-.77-.44-.08.02-.18,0-.24.03-.93.61-2.01.96-2.9,1.67-.43.34-.97.56-1.45.83-.15.09-.35.48-.26.62.34.57.28,1.24.48,1.84.22.68.55,1.32.74,2.01.17.62.44,1.19.66,1.79.14.37.28.75.39,1.13.21.77.28,1.59.61,2.3.35.75.34,1.55.63,2.3.34.88.38,1.87.76,2.74.39.89.41,1.85.74,2.75.3.81.15,1.74.52,2.56.03.07.03.17,0,.23-.46.94-.32,2.06-.93,2.94-.03.05-.11.1-.16.09-.07-.01-.16-.06-.2-.12-.13-.2-.33-.39-.36-.61-.17-1.11-.59-2.15-.95-3.2-.61-1.81-1.08-3.65-1.6-5.48-.2-.69-.38-1.37-.5-2.08-.21-1.33-.57-2.64-1.02-3.91-.16-.46-.31-.9-.36-1.38-.03-.23-.1-.47-.2-.68-.3-.65-.64-1.27-.78-1.99-.14-.7-.46-1.35-.54-2.07-.02-.2-.38-.4-.56-.32-.73.32-1.55.4-2.23.84-.27.17-.52.36-.77.56-.14.11-.2.27-.14.43.26.58.33,1.22.55,1.81.36.97.78,1.91.92,2.96.05.38.29.74.43,1.11.14.37.35.75.36,1.13.03.9.36,1.72.64,2.54.32.91.3,1.9.74,2.76.06.8.41,1.54.55,2.32.13.72.44,1.37.53,2.08.06.48.22.93.42,1.37.33.73.51,1.5.6,2.3.06.54.33,1.06.4,1.61.06.49.26.92.42,1.36.14.39-.09.81-.5.95-.15.05-.3.1-.46.12-.24.03-.48.04-.72.05-.26.01-.49-.09-.6-.3-.19-.35-.41-.71-.47-1.09-.12-.79-.57-1.49-.61-2.31,0-.22-.17-.44-.25-.66-.27-.75-.59-1.46-.7-2.27-.1-.7-.45-1.36-.44-2.09,0-.33-.19-.61-.25-.91-.16-.86-.59-1.64-.68-2.52-.08-.79-.47-1.52-.51-2.32-.01-.23-.08-.47-.16-.69-.37-1.05-.81-2.08-.8-3.22-.49-.84-.37-1.88-.86-2.72-.16-.86-.62-1.64-.61-2.54,0-.36-.5-.61-.89-.51-.92.23-1.87.36-2.78.66-.28.09-.37.23-.32.49.18.94.42,1.86.72,2.76.2.6.43,1.18.49,1.84.05.54.33,1.06.43,1.6.17.94.54,1.84.52,2.81.31.74.44,1.52.52,2.32.07.71.33,1.39.46,2.09.14.69.42,1.34.46,2.08.04.79.51,1.51.47,2.33.38.65.24,1.42.47,2.08.34.98.42,2.03.81,2.99.09.21.11.47.08.7-.01.12-.16.3-.28.33-.54.16-1.11.16-1.66.03-.13-.03-.3-.17-.34-.3-.35-1.06-.75-2.1-.97-3.19-.2-1.01-.58-1.98-.66-3.03-.07-.85-.36-1.71-.64-2.52-.26-.75-.11-1.61-.63-2.29,0-.73-.17-1.42-.47-2.08.02-.89-.21-1.73-.49-2.56-.02-.07-.03-.16-.03-.24.04-1.14-.32-2.2-.71-3.25-.34-.9-.37-1.87-.68-2.78-.15-.46-.36-.88-.55-1.31-.1-.24-.3-.37-.56-.37-.8,0-1.6.03-2.4.05-.08,0-.15.05-.23.06-.37.06-.69.55-.58.9.47,1.52,1,3.01,1.5,4.52.15.46.28.91.4,1.37.18.69.33,1.4.64,2.03.61,1.23.84,2.57,1.17,3.87.23.92.67,1.8.57,2.79.21.85.42,1.7.63,2.54.08.31.2.62.2.93.02.98.53,1.83.61,2.38Z"/><path class="cls-2" d="m78.36,348.8c0-.48.02-.96,0-1.44-.04-.83.17-1.59.58-2.28.23-.39.05-.75.11-1.12.1-.63.21-1.28.47-1.84.28-.61.17-1.28.43-1.85.27-.58.2-1.27.59-1.81.09-.12.14-.29.16-.44.1-.88.37-1.71.78-2.5.14-.28.19-.61.32-.9.24-.53.3-1.06.09-1.61.32-.58.28-1.24.45-1.85.15-.54.32-1.06.32-1.63,0-.49.46-.85.37-1.36-.02-.15-.05-.34-.15-.43-.24-.21-.5-.41-.79-.52-.67-.25-1.35-.46-2.04-.66-.43-.13-.99.24-1.07.71-.09.47-.09.95-.21,1.42-.21.85-.51,1.68-.51,2.57,0,.81-.48,1.51-.49,2.33,0,.46-.29.91-.36,1.38-.07.48-.11.94-.33,1.38-.33.65-.06,1.45-.54,2.06-.14.7-.25,1.4-.5,2.08-.25.66-.09,1.42-.4,2.1-.3.65-.12,1.43-.52,2.08-.12.18-.09.47-.11.7-.06.79-.21,1.57-.4,2.35-.17.69-.12,1.43-.17,2.15-.02.34-.18.61-.42.83-.06.05-.19.13-.2.11-.74-.75-1.38-1.54-1.21-2.69.04-.24.05-.49.14-.7.23-.53.23-1.08.28-1.63.05-.55.05-1.12.32-1.63.1-.2.12-.46.14-.69.06-.56.03-1.13.16-1.66.11-.46.39-.87.43-1.36.42-.61.34-1.38.67-2.02.14-.27.2-.62.18-.92-.05-.91.26-1.72.54-2.55.22-.68.51-1.33.55-2.07.02-.38.21-.78.41-1.11.35-.57.46-1.18.5-1.82.02-.4,0-.8.03-1.2.02-.23.09-.47.2-.67.37-.67.21-1.4.27-2.11-.27-.39-.48-.85-.82-1.16-.47-.42-1.03-.74-1.57-1.08-.12-.08-.31-.06-.46-.08-.18-.03-.34.02-.41.17-.21.43-.52.85-.57,1.3-.1.96-.56,1.83-.59,2.8-.02.8-.42,1.53-.6,2.3-.11.46-.29.9-.33,1.38-.09,1.03-.6,1.99-.55,3.04-.44.78-.4,1.69-.67,2.53-.26.83-.65,1.64-.67,2.53-.02.88-.5,1.68-.47,2.58.02.74-.51,1.34-.6,2.06-.03.25-.29.26-.49.04-.11-.12-.25-.23-.29-.37-.13-.38-.19-.77-.32-1.15-.15-.43.17-.76.23-1.14.17-1.1.57-2.16.58-3.29,0-.33.12-.62.26-.91.25-.5.16-1.07.43-1.59.24-.47.15-1.1.36-1.6.23-.54.24-1.08.33-1.63.05-.31.16-.61.24-.92.1-.38.3-.77.28-1.15-.03-.67.35-1.23.38-1.86.03-.57.16-1.1.44-1.6.05-.88.35-1.71.54-2.56.12-.54.3-1.07.4-1.62.04-.22,0-.5-.11-.68-.44-.71-1.13-1.11-1.91-1.35-.04-.01-.15.06-.16.11-.21.68-.26,1.39-.56,2.06-.26.57-.47,1.21-.5,1.83-.04.75-.38,1.38-.54,2.08-.24,1-.41,2.02-.76,3-.05.15-.12.31-.12.46.04,1.22-.58,2.31-.7,3.5-.42.71-.18,1.57-.56,2.31-.36.7-.35,1.55-.66,2.29-.18.43-.05.95-.3,1.39-.1.18-.44.35-.58.24-.76-.58-1.53-1.15-2.27-1.75-.1-.08-.2-.31-.15-.42.35-.81.23-1.73.65-2.53.11-.2.19-.45.19-.68-.01-1.06.47-2.01.6-3.04.47-.94.4-2.03.82-2.98-.01-.74.43-1.37.51-2.08.07-.72.15-1.42.45-2.1.09-.21.1-.47.09-.71-.03-.58.19-1.09.44-1.59.18-.36.31-.73.48-1.09.28-.58.47-1.18.47-1.84,0-.31.1-.62.18-.93.1-.38.63-.65.95-.49,1.15.56,2.29,1.13,3.21,2.04.34.33.69.65,1.14.86,1.37.64,2.58,1.56,3.9,2.31.35.2.69.37,1.05.54,1.37.62,2.77,1.19,4.16,1.78,1.25.53,2.55.89,3.82,1.36.22.08.46.12.7.14.64.04,1.28.04,1.92.07.32.02.65.02.94.13.46.18.92.24,1.4.24,1.76,0,3.52,0,5.28,0,.8,0,1.58-.02,2.36-.27.75-.24,1.59-.01,2.36-.29.75-.27,1.5-.53,2.25-.79.3-.1.62-.17.91-.29.62-.26,1.25-.2,1.89-.15.27.02.57.47.46.71-.23.51-.43,1.03-.7,1.52-.62,1.13-1,2.34-1.23,3.6-.03.16-.02.36-.11.46-.46.51-.33,1.22-.6,1.79-.27.57-.65,1.08-.77,1.74-.1.53-.37,1.05-.62,1.54-.19.37-.18.77-.3,1.14-.12.37-.43.66-.45,1.09-.03.41-.26.74-.52,1.06-.25.31-.42.66-.53,1.05-.21.76-.45,1.52-.81,2.23-.18.36-.33.72-.6,1.02-.15.17-.36.4-.36.6.01,1.11-.64,1.96-1.07,2.89-.47,1.01-.62,1.1-1.88,1.01-.52-.04-1.03-.62-1.01-1.15.01-.24.02-.48.1-.71.13-.38.29-.74.47-1.1.41-.86.85-1.71,1.25-2.58,1.55-3.32,2.91-6.71,4.03-10.21.46-1.43.93-2.87,1.38-4.3.06-.18-.19-.52-.36-.53-.08,0-.16,0-.24,0-.24,0-.48,0-.72.02-.55.05-1.03.4-1.62.36-.48-.03-.96.02-1.43.08-.13.02-.31.15-.36.27-.17.44-.35.89-.44,1.36-.16.86-.05,1.76-.47,2.57-.07.13-.04.31-.06.47-.11.7-.02,1.42-.36,2.11-.31.64-.14,1.43-.54,2.07-.13,1.11-.55,2.15-.68,3.26-.11,1.02-.5,2-.57,3.03-.23.44-.26.92-.3,1.39-.07.89-.49,1.67-.7,2.52-.05.21-.26.41-.52.46-.47.1-.94.13-1.4-.08-.17-.08-.27-.19-.26-.37.03-.47-.03-.99.13-1.41.3-.76.29-1.57.53-2.32.22-.68.44-1.37.57-2.07.36-1.87,1.06-3.67,1.24-5.58.28-.75.41-1.54.48-2.34.05-.55.4-1.02.52-1.57.14-.62.41-1.21.37-1.86-.03-.5.25-.91.38-1.36.05-.18-.19-.51-.38-.51-1.36-.02-2.71-.05-4.07-.06-.46,0-.73.27-.88.68-.11.29-.25.59-.3.9-.07.55.04,1.16-.14,1.67-.47,1.32-.35,2.68-.46,4.02-.02.32-.07.63-.21.92-.07.14-.12.3-.15.45-.14.78,0,1.61-.32,2.36-.33.74-.13,1.58-.53,2.32-.17.33-.11.78-.15,1.18-.04.32,0,.67-.13.94-.4.83-.37,1.71-.4,2.58,0,.24,0,.49-.06.71-.03.14-.16.34-.27.36-.71.09-1.33.62-2.08.47-.12-.02-.31-.22-.29-.29.25-.93.35-1.87.37-2.83,0-.23.12-.46.22-.67.15-.29.27-.58.25-.91-.03-.57.06-1.11.3-1.63.03-.07.07-.15.08-.23.07-.79.09-1.6.2-2.38.11-.78.51-1.51.44-2.33-.04-.49.07-.94.31-1.38.17-.31-.18-.62-.16-.89.05-.54.23-1.08.37-1.61.04-.14.21-.34.17-.4-.31-.39.18-.75.02-1.12-.21-.49.21-.9.16-1.38-.06-.49.11-.94.37-1.36.1-.17-.11-.54-.3-.56-.63-.08-1.26-.18-1.86-.42-.21-.09-.44.05-.56.34-.16.36-.35.73-.41,1.11-.13.86-.04,1.76-.47,2.57-.07.13-.04.31-.05.47-.07.95-.1,1.9-.41,2.83-.28.82-.11,1.75-.52,2.56-.11,1.28-.44,2.5-.9,3.7-.25.66-.24,1.39-.49,2.08-.21.59-.24,1.25-.51,1.84-.07,1.04-.13,2.07-.2,3.11-.02.23-.06.47-.13.7-.25.88-.77,1.56-1.58,2-.16.09-.52-.1-.58-.28-.12-.39-.09-.79-.08-1.19,0-.4,0-.8,0-1.2h.1Z"/></g><g id="Lines"><path class="cls-1" d="m106.19,61.2c.82.04,1.58-.1,2.27-.57.41-.28.9-.35,1.37-.37,2.24-.08,4.47.09,6.71.22.33.02.63.11.9.3.66.46,1.29.94,1.97,1.35.68.41,1.41.76,2.13,1.1.59.28,1.06.71,1.55,1.11.62.5,1.24,1.01,1.87,1.49.61.46,2.12.48,2.76.07.27-.18.55-.34.78-.55.72-.65,1.53-1.14,2.41-1.55.58-.27,1.19-.48,1.73-.82,1.15-.72,2.41-.76,3.69-.79.15,0,.31.08.47.11.32.06.62.19.81.47.7,1.08,1.28,2.2,1.3,3.54,0,.65.24,1.25.48,1.85.12.29.21.61.25.92.16,1.27.15,2.55.01,3.83-.03.31-.17.61-.31.9-.41.89-.51,1.84-.5,2.81,0,.48.05,1,.34,1.37.89,1.14,1.57,2.4,2.29,3.65.71,1.25,1.2,2.6,1.82,3.9.13.29.29.58.33.89.11.98.76,1.78.89,2.72.18,1.27.41,2.52.95,3.69.12,1.32.81,2.41,1.43,3.52.54.97,1.33,1.79,1.81,2.82.2.42.58.76.91,1.11,2.11,2.18,4.25,4.35,6.35,6.54.44.46.8.99,1.14,1.53.94,1.49,1.65,3.1,2.4,4.68.56,1.16.57,2.5,1.24,3.62.08.13.08.31.1.46.25,1.91.34,3.81.17,5.74-.1,1.15-.78,2.1-.88,3.22-.09.95-.03,1.96-.42,2.83-.53,1.17-.74,2.43-1.27,3.61-.61,1.36-1.49,2.44-2.64,3.32-.62.48-2.05.47-2.32-.7-.07-.31-.09-.63-.17-.94-.16-.65-.55-.86-.93-.5-.34.34-.67.68-1.02,1.01-.35.33-.67.73-1.08.95-1.14.6-2.07,1.48-3.12,2.2-.47.32-1.23.07-1.56-.57-.07-.14-.11-.3-.19-.44-.31-.57-1.13-.69-1.63-.26-.36.31-.74.64-.86,1.12-.15.61-.2,1.26-.39,1.86-.19.6-.67,1.08-.82,1.72-.04.15-.15.28-.22.42-.3.56-1.07.89-1.58.64-.14-.07-.29-.14-.43-.21-.73-.33-1.44-.71-2.18-.98-.75-.27-1.57-.32-2.29-.69-.35-.18-.61-.16-.77.23-.06.13-.04.33.01.47.31.91.85,1.71,1.3,2.55.36.68-.18,1.1-.96,1.1-.81,0-1.59-.12-2.31-.51-.57-.31-1.15-.5-1.82-.51-.69,0-1.15.55-.97,1.26.08.31.22.6.3.91.08.31-.08.56-.46.66-.31.08-.63.14-.94.12-.64-.04-1.28-.09-1.9-.23-3.24-.76-3.24-.77-5.16-.84-.96-.04-1.91-.11-2.83-.43-.31-.11-.54.13-.58.49-.02.15-.04.36.04.46.38.51.79,1,1.19,1.5.35.44.22.7-.46,1.02-.87.4-1.75.76-2.75.75-1.12-.01-2.24.03-3.36.05-.97.02-1.89-.22-2.81-.52-.28-.09-.58.14-.69.47-.17.48-.46.8-.93,1.01-.49.21-.95.1-1.38-.1-.58-.26-1.18-.52-1.69-.89-1.08-.77-2.39-.86-3.56-1.34-.6-.24-1.18-.46-1.84-.45-.35,0-.64.05-.84.35-.16.23-.19.55-.04.87.13.29.35.53.52.8.09.13.2.26.22.41.03.15-.02.32-.06.47-.11.37-.35.53-.67.41-1.8-.67-3.44-1.69-5.16-2.51-.43-.2-.81-.51-1.18-.81-1.01-.78-1.95-1.64-3.06-2.3-.97-.57-1.68-1.47-2.44-2.29-.68-.72-1.49-1.17-2.44-1.44-.3-.09-.57-.29-.87-.4-1.24-.44-2.52-.54-3.74-.02-.9.38-1.8.6-2.78.59-1.44,0-2.88.06-4.31.13-.3.01-.62.15-.9.28-.46.22-.9.2-1.35,0-.59-.27-1.21-.4-1.86-.37-1.12.04-2.24.11-3.35.14-.5.01-.92.21-1.36.41-1.36.6-2.79.67-4.23.48-.64-.08-1.24-.32-1.74-.74-.49-.41-.97-.83-1.42-1.29-1.23-1.26-2.48-2.49-3.99-3.43-.39-.24-.72-.65-.94-1.06-.31-.56-.63-1.11-1.04-1.6-.51-.61-1.09-1.18-1.54-1.83-.45-.65-.78-1.39-1.16-2.09-.08-.14-.13-.29-.21-.43-.57-.97-1.04-1.98-1.11-3.12-.55-1.19-.7-2.45-.69-3.74,0-.64-.04-1.28-.03-1.92,0-.32.05-.64.1-.95.02-.16.07-.32.15-.45.67-1.11.57-2.49,1.24-3.6.33-.55.54-1.16.85-1.71.32-.57.46-1.19.61-1.81.07-.31.17-.65.36-.88.84-.97,1.33-2.18,2.15-3.15.52-.62.99-1.24,1.38-1.95.22-.41.57-.77.91-1.11.55-.56,1.41-.77,1.77-1.56.27-.59.77-1.01,1.2-1.49,1.29-1.42,2.55-2.87,3.93-4.2.45-.43.7-1.07,1.12-1.53.31-.34.76-.56,1.15-.83.39-.93,1.2-1.44,1.96-2.02.63-.48,1.24-1.05,1.68-1.69.72-1.06,1.46-2.08,2.3-3.05.72-.84,1.24-1.86,1.94-2.72.62-.76,1.01-1.62,1.51-2.44.53-.86.63-1.8.64-2.76,0-.64-.07-1.28-.14-1.91-.14-1.26-.11-2.55-.68-3.75-.2-.41-.21-.94-.22-1.41-.03-1.6-.03-3.2-.02-4.8,0-.64.09-1.29.39-1.86.39-.72.41-1.54.72-2.27.26-.62.77-1.07,1.39-1.24,1.24-.34,2.51-.42,3.76.03.15.05.29.13.44.19,1.61.7,3.21,1.41,4.71,2.34.41.25.85.44,1.26.69.6.36,1.26.41,1.83.13,1-.49,2.04-.91,2.93-1.61.63-.5,1.27-.97,2.02-1.28,1.66-1.26,3.53-2.16,5.36-3.14,1.14-.61,2.46-.69,3.6-1.26.27-.14.62-.14.94-.17,1.44-.12,2.87-.15,4.31.03.39.05.65.29.93.94-.32,0-.64.04-.95.02-1.28-.06-2.52.04-3.71.63-.55.27-1.26.16-1.77.59-.11.09-.21.22-.28.35-.2.36.11,1.09.49,1.17.46.09.96.22,1.4-.01,1.29-.7,2.67-.98,4.13-.92.31.01.62-.08.93-.12.49-.06.56-.26.27-.64-.29-.37-.61-.72-.67-1.21Zm-14.31,74c0-.31.02-.63-.02-.94-.04-.33-.23-.57-.5-.73-.33.18-.44.45-.37.79.1.5.34.85.9.87-.1.48-.12.99.14,1.39.52.81.88,1.7,1.25,2.57.17.4.03.86-.41,1.25-.36.32-.79.53-1.29.48-.32-.03-.67,0-.94-.14-1.01-.49-2.04-.91-3.07-1.34-.07-.03-.27.15-.34.27-.07.12-.09.31-.06.44.4,1.41,1.1,2.63,2.23,3.58.24.2.46.45.72.63.65.45,1.34.86,1.98,1.33.77.56,1.51,1.17,2.28,1.74.11.08.31.07.47.06.41-.05.51-.26.37-.61-.12-.29-.2-.6-.26-.91-.11-.53.32-.96.8-.89.65.08,1.17.5,1.79.61.63.11,1.26.18,1.89.27.16.02.34.03.46.11,1.1.75,2.48.55,3.64,1.1.32.15.54,0,.58-.38.01-.15-.02-.33-.09-.46-.15-.28-.36-.53-.52-.8-.16-.27-.2-.59-.05-.9.18-.38.44-.38.78-.19.84.45,1.74.78,2.49,1.41,1.66,1.4,3.61,1.96,5.76,1.91.48-.01.96,0,1.44-.02.32-.01.64-.05.95-.09.31-.04.69-.15.8-.43.1-.25.02-.64-.11-.89-.37-.71-1.07-1.17-1.46-1.88-.3-.56.12-1.33.79-1.38.48-.03.98-.06,1.42.12,1.05.44,2.12.65,3.26.65.64,0,1.28.04,1.91.06,1.28.04,2.54.13,3.72.74.26.14.62.08.94.1.16,0,.33.01.47-.04.14-.05.28-.15.38-.26.2-.22.29-.55.13-.86-.45-.88-1.23-1.43-2.05-1.95-.29-.18-.38-.49-.32-.85.07-.41.72-.8,1.07-.6,1.26.7,2.73.87,4,1.56.14.07.3.1.46.13.16.04.32.05.47.09.41.1,1.23-.18,1.26-.47.03-.3.05-.63-.05-.91-.15-.45-.44-.85-.6-1.29-.2-.55.24-1.31.96-1.29.81.02,1.6.06,2.33.41,1.15.55,2.3,1.1,3.5,1.51.45.15.92.2,1.41.11.41-.07.91-.5,1-.9.1-.47.18-.98,0-1.41-.44-1.06-.53-2.16-.59-3.27,0-.16,0-.35-.08-.47-.18-.25-.42-.45-.63-.68-.64-.09-1.28-.09-1.85.25-.86.52-1.78.67-2.75.6-.32-.02-.64.01-.96-.01-.66-.05-1.18-.28-1.51-.95-.28-.58-.42-.6-1.11-.31-1.02.44-2.17.53-3.14,1.12-.12.07-.31.01-.46.04-.46.09-.9-.45-.8-.94.13-.62.6-1.11.58-1.78-.01-.45-.41-.96-.83-.96-1.27-.01-2.55-.03-3.82-.04-.81,0-1.58-.2-2.3-.55-.44-.21-.92-.25-1.39-.34-.32-.06-.63-.02-.94.04-.33.06-.62.17-.82.45-.96,1.34-1.4,2.84-1.33,4.48.02.48.04.95.07,1.43.03.51-.14.98-.49,1.29-.94.86-1.93,1.66-2.89,2.49-.31.05-.61.09-.92.14-1.32-.66-2.72-.88-4.17-.83-.34.01-.62.09-.89.29-.65.49-1.39.71-2.21.78-1.94.17-3.82.06-5.59-.85-.95-.19-1.69-.89-2.65-1.06-.64-.12-1.16-.51-1.65-.91-.74-.6-1.29-1.4-2.11-1.9-.12-.07-.31-.03-.47-.04Zm-21.09-2.91c-.17.84.07,1.55.64,2.17.32.35.63.7.96,1.05.11.11.25.18.37.29.32.32.57.29.72-.1.1-.27.09-.6-.09-.88-.6-.92-1.27-1.8-2.19-2.42-.11-.08-.31-.04-.47-.05.03-.64.05-1.27.11-1.91.03-.36.22-.61.48-.63.14-.01.31.1.42.2.83.76,1.51,1.63,2.05,2.63.31.56.75,1.04,1.32,1.36.7.39,1.37.83,1.93,1.4,1.15,1.15,2.56,1.88,4.01,2.55.13.06.32.03.48.02.45,0,.81-.65.6-1.04-.08-.14-.11-.3-.19-.43-.69-1.06-1.61-2.01-1.7-3.38-.49-1-1-2-1.46-3.01-.46-1.01-.67-2.11-1.11-3.15-.43-1.02-1.05-1.95-1.26-3.09-.2-1.09-.91-2.02-1.32-3.06-.18-.45-.35-.89-.4-1.37-.22-2.07-.22-4.15.03-6.22.06-.48.26-.92.59-1.28.54-.59,1.09-1.17,1.62-1.76.32-.36.53-.77.58-1.27.06-.65.27-1.24.7-1.74.21-.24.38-.52.6-.75.31-.33.31-.57-.04-.72-.14-.06-.3-.08-.45-.07-.65.03-1.15.51-1.78.62-.49.09-.94,0-1.38-.22-.4-.2-.56-.87-.3-1.22.39-.53.9-.9,1.51-1.12.3-.11.62-.17.94-.18.99-.03,1.84-.41,2.67-.94,1.07-.69,2.19-1.31,3.29-1.95,1.13-.65,2.07-1.52,2.75-2.61.42-.69.88-1.32,1.43-1.9q2.02-2.12,3.32-4.64c.29-.57.63-1.12.86-1.71.35-.89.9-1.7,1.12-2.63.14-.62.15-1.27.26-1.9.05-.31.25-.6.54-.74,1-.5,1.99-1.03,3.15-1.07.81-.02,1.54-.34,2.27-.67.88-.39,1.74-.8,2.54-1.32,1.22-.79,2.27-1.75,2.89-3.11.2-.44.46-.85.63-1.29.24-.61.28-1.25-.01-1.85-.56-1.15-1.07-2.33-1.74-3.41-1.01-1.63-1.88-3.33-2.88-4.96-.08-.14-.19-.26-.28-.39-.64-1.01-1.64-1.48-2.73-1.81-.14-.04-.31-.04-.45,0-1.38.43-2.65,1.1-3.9,1.81-1.34,1.15-2.93,1.92-4.45,2.79-.13.08-.3.2-.33.33-.08.29-.08.6-.11.91.49.62,1.03,1.22,1.47,1.88.45.66.85,1.35,1.19,2.07.2.43.21.94.04,1.4-.62,1.65-1.55,3.14-2.46,4.64-.58.96-1.44,1.71-2.23,2.49-.8.79-1.58,1.58-2.38,2.36-.23.22-.47.44-.75.59-.27.16-.58.27-.88.34-.8.2-1.58.1-2.34-.22-.29-.12-.57-.28-.85-.42-1.22.77-2.1-.3-3.1-.61-.82-.25-.92-.32-1.2.16-.73,1.24-1.75,2.29-2.33,3.62-1.47,2.09-2.9,4.21-4.74,6-.8.78-1.56,1.61-2.33,2.42-.33.35-.73.66-.96,1.07-.7,1.29-1.81,2.22-2.79,3.26-1.75,1.86-3.5,3.73-5.2,5.63-.74.83-1.31,1.81-2.07,2.63-.98,1.07-1.71,2.29-2.52,3.48-.64.94-1.14,1.91-1.32,3.04-.63.95-.69,2.12-1.15,3.12-.42.9-.55,1.81-.53,2.78.02.96.05,1.91.5,2.8.23.44.21.93.27,1.4.08.63.13,1.27.25,1.9.06.3.17.62.35.88,1.09,1.57,1.99,3.27,3.16,4.78.48,1.23,1.38,2.13,2.33,2.99.83.75,1.63,1.54,2.44,2.3.83.78,1.91,1.15,2.9,1.65.13.07.31.07.47.06.64,0,1.28-.03,1.91-.03.84,0,1.55-.33,2.18-.85.29-.24.36-.54.21-.82-.6-1.13-1.27-2.22-2.17-3.14-.92-.93-1.48-2.08-2-3.24-.25-.58-.35-1.22-.51-1.83-.84-1.2-.8-2.76-1.58-3.98-.08-.13-.13-.3-.15-.45-.08-.63-.09-1.28-.24-1.9-.19-.77-.48-1.51-.73-2.27-.05-.15-.08-.31-.08-.47,0-.98-.32-1.87-.73-2.74-.15-.32-.03-.66.26-.84.09-.06.31-.01.42.06.39.27.77.56,1.12.88.23.21.49.46.58.74.47,1.35,1.32,2.57,1.34,4.06,0,.31.04.66.18.93.66,1.28.6,2.83,1.49,4.02.22,1.1,1,1.98,1.18,3.12.15.95.67,1.8,1.17,2.6.75,1.22,1.63,2.36,2.51,3.49.69.89,1.53,1.62,2.61,2.04.44.17.85.43,1.29.62.3.13.62.11.94.04.33-.08.61-.22.71-.5.04-.1-.09-.31-.19-.42-1.54-1.62-3.09-3.23-4.64-4.84-1.25-2.04-2.27-4.21-3.37-6.33-.96-1.84-1.9-3.68-2.27-5.75-.49-.85-.69-1.78-.75-2.74-.04-.65-.31-1.23-.53-1.83-.11-.29-.2-.61-.22-.92-.03-.96-.01-1.92-.03-2.87-.02-1.17.49-2.15,1.12-3.09.08-.13.23-.25.38-.29.46-.13.95-.18,1.4,0,.3.12.57.4.58.69.05,2.23.04,4.47.09,6.7.02,1.12.16,2.22.7,3.25.44.85.36,1.86.85,2.73.47.83.79,1.73,1.26,2.57.31.56.64,1.11.9,1.68.26.57.31,1.22.5,1.83.15.46.47.83.81,1.17.23.23.52.31.87.26Zm34.46-37.41c.03-.73.05-1.53.1-2.33.03-.48.18-.93.42-1.36.23-.42.44-.85.66-1.27.76-1.42,1.94-2.06,3.55-1.89.64.06,1.28.1,1.9.2.97.17,1.74.75,2.55,1.26.13.08.24.22.31.35.6,1.13,1.19,2.26,1.78,3.39.23.43.32.91.36,1.38.12,1.44.12,2.87.03,4.31-.11,1.75-.2,3.51-.31,5.27-.02.31-.09.64-.21.92-.31.75-.48,1.52-.53,2.32-.05.83-.41,1.53-.92,2.17-.3.37-.59.75-.91,1.11-.75.85-1.21,1.87-1.71,2.87-.14.28-.22.61-.23.92,0,1.28.01,2.56.05,3.83,0,.31.06.65.19.93.58,1.31,1.1,2.66,1.85,3.88.5.82,1.19,1.49,2.03,2.01.28.17.57.27.9.31.98.1,1.87-.1,2.79-.46,1.81-.71,3.44-1.67,4.79-3.08.44-.46.9-.91,1.36-1.35.11-.11.27-.16.4-.25.31-.21.6-.18.9.03.4.28.74.6.94,1.05.19.44.44.84.8,1.16.38.33,1.44.2,1.75-.21.49-.65.68-1.43,1.08-2.12.07-.12.05-.31.04-.47-.01-.15-.04-.31-.11-.44-.16-.33-.44-.42-.8-.24-.43.21-.83.46-1.27.64-.63.27-1.28-.17-1.35-.9-.03-.32-.08-.66.01-.95.46-1.37,1.01-2.69,2.17-3.64.12-.1.2-.24.3-.36.26-.3.23-.98-.06-1.32-.52-.61-1.02-1.23-1.55-1.82-.85-.95-1.72-1.89-2.59-2.83-.57-1.34-1.78-2.25-2.39-3.58-.12-.27-.39-.51-.64-.68-.39-.28-.77-.55-1.04-.96-1.32-2-2.6-4.02-3.55-6.23-.13-.3-.22-.59-.24-.92-.08-1.28-.17-2.55-.03-3.83.04-.32.07-.65.2-.93.4-.87.8-1.75,1.3-2.55.34-.54.89-.89,1.58-.96,1.12-.11,2.23-.17,3.35-.05.49.05.93.25,1.3.56.48.41.93.87,1.37,1.33.8.83,1.32,1.79,1.41,2.96.05.64.23,1.25.48,1.84.18.44.32.91.36,1.38.12,1.59.18,3.19.05,4.79-.03.32-.05.65-.18.93-.39.87-.78,1.75-1.43,2.47-.43.48-.99.79-1.55,1.11-.36.21-.36.44-.11.8.73,1.07,1.65,1.94,2.61,2.79.48.43,1.03.82,1.3,1.39.55,1.17,1.59,2.01,2.14,3.16.55,1.14,1.15,2.28,1.09,3.63-.04.96.03,1.92,0,2.88-.01.48-.13.95-.35,1.38-.15.28-.36.56-.41.86-.21,1.12-.62,2.14-1.39,3-.32.36-.52.79-.74,1.22-.58,1.13-1.24,2.24-1.68,3.43-.16.42-.07.94-.06,1.42,0,.36.85.74,1.14.54,1.09-.71,2.01-1.57,2.55-2.79.39-.87.89-1.69,1.09-2.65.1-.47.4-.86.72-1.22.37-.41.82-.47,1.23-.16.54.41.83.95.82,1.63,0,.32,0,.64-.03.96-.06.96-.2,1.89-.66,2.77-.37.7-.66,1.45-.95,2.19-.02.06.16.25.28.31.61.32,1.24.25,1.8-.1.96-.61,1.72-1.44,2.29-2.41.49-.82.87-1.7,1.33-2.54.16-.29.46-.44.78-.5.31-.06.63-.1.94-.18.5-.12.82-.52.88-.98.22-1.91.13-3.83.16-5.75.01-.96-.1-1.93.12-2.87.06-.26.36-.52.61-.67.43-.24.92-.2,1.39-.11.15.03.29.12.44.19.14.07.28.15.42.22.69.36,1.01.39,1.26.12.35-.4.27-.89.24-1.36-.03-.65-.47-1.2-.55-1.82-.27-1.99-1.23-3.59-2.62-4.99-1.01-1.02-1.99-2.07-2.97-3.12-.23-.25-.19-.58.1-.83.35-.31.74-.63,1.26-.42.74.3,1.47.62,2.2.95.35.16.56.07.65-.35.03-.15.03-.34-.03-.47-.66-1.46-1.42-2.85-2.65-3.94-.6-.53-1.09-1.18-1.7-1.69-2.1-1.74-3.81-3.87-5.66-5.85-.43-.46-.84-.98-1.13-1.54-.8-1.56-1.77-3.03-2.37-4.7-.16-.45-.44-.88-.49-1.34-.15-1.29-.6-2.47-1.08-3.66-.49-2.6-2.11-4.61-3.57-6.69-.18-.26-.43-.49-.7-.65-1.12-.65-2.06-1.51-2.97-2.41-.22-.22-.49-.4-.75-.58-.13-.09-.28-.21-.42-.22-1.12-.07-2.23-.15-3.35-.18-.97-.03-1.9.15-2.72.75-.39.29-.87.38-1.36.33-.79-.09-1.6-.11-2.35-.43-.32-.14-.6-.21-.9-.1-.45.17-.9.36-1.36.45-.81.17-1.48.57-2.12,1.07-.25.2-.49.41-.73.63-.5.44-.81.97-.78,1.66.05.96.19,1.91.05,2.87-.07.47-.14.96-.42,1.36-.37.52-.78,1.02-1.14,1.54-.45.66-.9,1.3-1.64,1.69-.42.22-.79.54-1.15.86-.73.66-1.67.93-2.52,1.36-.73.37-1.52.47-2.31.58-.16.02-.32.03-.47.07-1.34.34-2.23,1.18-2.72,2.46-.04,1.32-.8,2.41-1.14,3.64-.42,1.55-1.15,2.96-2.27,4.16-.54.58-1.12,1.16-1.45,1.89-.49,1.06-1.28,1.87-2.19,2.49-1.19.81-2.28,1.75-3.39,2.66-.5.41-1.04.73-1.63.99-.58.26-1.15.55-1.71.87-.42.24-.75.56-.79,1.1-.09,1.1-.02,2.25-.77,3.2-.22.92-.29,1.9-.93,2.68q-1.24,2.47-1.27,5.01c0,.64-.01,1.28,0,1.92.03.8.19,1.57.56,2.31.42.86.7,1.78,1.2,2.61.14,1.12.59,2.14,1.08,3.15.23,1.28.82,2.43,1.45,3.53.63,1.1,1.47,2.08,2.22,3.11.75,1.03,1.64,1.97,2.69,2.71.91.64,1.87,1.21,2.83,1.79.06.03.27-.09.33-.19.17-.26.23-.59.09-.89-.41-.87-.81-1.74-1.3-2.56-.61-1.01-.41-2.19-.79-3.23-.11-.3-.26-.59-.32-.9-.06-.31-.1-.66,0-.94.32-.91.51-1.84.72-2.77.03-.15.15-.28.22-.42.13-.28.99-.88,1.14-.78.28.18.43.46.58.75.37.71.66,1.45.98,2.18.38.88.85,1.71,1.31,2.55.38.7.61,1.47,1.15,2.09.52.6.93,1.3,1.41,1.93.19.25.45.45.71.63.93.62,1.86,1.25,2.81,1.82.25.15.61.14.93.16.61.05.97-.34.74-.8-.77-1.58-1.54-3.15-2.31-4.73-.03-.48-.14-.96-.07-1.43.07-.47.43-.82.83-1.11.35-.25.61-.25.79.1.45.85.84,1.72,1.33,2.54.4.69.84,1.36,1.45,1.89.38.33.76.41,1.25.17.14-.07.28-.16.43-.21.51-.18,1.1-.04,1.27.33.64,1.38,1.73,2.26,3.14,2.78.3.11.58.25.88.36.15.05.31.07.47.08.34.02.65-.05.89-.24.24-.19.18-.45.01-.81-.41-.87-.81-1.74-1.12-2.64-.15-.43-.09-.94-.1-1.42,0-.33.85-.8,1.14-.64.27.15.55.31.77.52.71.64,1.13,1.55,1.96,2.08.31.2.57.19.83-.12.43-.48.78-1.01.86-1.67.1-.8.32-1.55.76-2.24.17-.26.28-.58.32-.89.06-.47.07-.97-.31-1.34-.57-.56-1.16-1.09-1.75-1.63-.71-.65-1.37-1.35-1.91-2.14-.9-1.32-1.7-2.7-1.83-4.36-.05-.65-.27-1.24-.52-1.83-.53-1.25-.45-2.48.13-3.7.82-1.73,1.59-3.49,2.86-4.96.43-.85.87-1.7,1.29-2.56.07-.14.06-.31.09-.47.2-.98-.37-1.51-1.37-1.29-1.15.25-1.15.26-1.8-.02-.15-.06-.29-.13-.44-.19-1.43-.51-2.42-1.53-3.11-2.83-.6-1.13-1.14-2.28-1.67-3.44-.13-.28-.19-.61-.21-.92-.05-.8-.06-1.6-.09-2.46Zm46.16,25.77c-.01.28-.04,1.24-.09,2.19-.03.64-.21,1.25-.48,1.83-.21.43-.34.9-.6,1.3-.26.39-.62.72-.96,1.05-.39.37-.88.32-1.33.13-.29-.12-.54-.33-.83-.47-.35-.17-1.09.13-1.19.49-.7,2.32-1.83,4.38-3.62,6.06-.22.21-.37.5-.49.78-.06.13-.01.32.03.47.08.29.28.55.62.63.8.18,1.59.14,2.27-.39.38-.29.71-.64,1.1-.92.38-.28.8-.51,1.22-.75.92-.52.94-.5,1.78.65.26.35,1,.39,1.23.06.45-.65.86-1.34,1.36-1.94.64-.77.92-1.66,1.11-2.6.06-.32.74-.76,1.11-.78.8-.04,1.31.24,1.51.84.05.15.08.31.11.46.03.16.06.31.09.47.06.34.19.62.44.76.2.11.98-.46,1.12-.8.35-.89.7-1.77,1.04-2.66.22-1.57.26-3.18.91-4.67.12-.28.08-.63.08-.95.01-1.12,0-2.22-.47-3.28-.19-.42-.23-.92-.28-1.4-.09-.8-.25-1.56-.66-2.27-.23-.41-.34-.9-.58-1.31-.71-1.24-1.33-2.53-2.33-3.59-.98-1.04-1.9-2.13-2.68-3.35-.42-.66-1.07-1.17-1.62-1.75-.35-.36-.92-.45-1.27-.2-.26.19-.19.45-.04.81.48,1.17.56,2.49,1.26,3.59.06.47.21.95.16,1.41-.14,1.28-.11,2.54.01,3.81.06.64.2,1.26.49,1.83.22.44.31.91.34,1.38.06.79.08,1.59.15,3.06Zm-7.7-26.11c-.04-.18-.05-.35-.1-.5-.43-1.2-.9-2.38-.95-3.68-.01-.31-.16-.61-.26-.91-.16-.45-.44-.88-.48-1.34-.1-1.15-.82-2.07-1.03-3.17-.22-1.15-.99-1.98-1.58-2.92-.34-.54-.64-1.1-.95-1.66-.53-.98-1.14-1.91-1.93-2.72-.44-.46-.84-.98-1.12-1.54-.43-.88-1.06-1.58-1.75-2.26-.45-.45-.9-.91-1.41-1.3-.63-.48-1.38-.82-1.98-1.33-1.48-1.26-3.19-2.09-4.98-2.78-.11-.04-.3-.02-.39.06-.23.21-.31.53-.14.85.37.71.89,1.32,1.46,1.88.57.56,1.17,1.08,1.75,1.63,1.04.99,2.08,1.98,3.1,2.99.46.45.85.99,1.01,1.6.24.93.69,1.8.91,2.71.26,1.09.57,2.15,1.01,3.17.12.29.15.62.18.94.08.81.4,1.52.71,2.26.7,1.63,1.93,2.92,2.79,4.45,2.01,2.05,3.85,4.27,6.05,6.13.32.27.57.35.73.08.15-.26.15-.59,0-.9-.29-.57-.57-1.14-.66-1.76Zm-66.13-25.63s-.02,0-.03,0c0,.32.02.64,0,.96-.05.81.14,1.56.49,2.3.43.88.17,1.92.53,2.8.36.89.77,1.74.82,2.72.02.47.02.97.28,1.39.5.81.65,1.81,1.31,2.53.21.23.44.45.68.66.29.26,1.01.22,1.33-.02,1.54-1.17,2.77-2.62,3.89-4.18.39-1.07,1.25-1.84,1.81-2.8.18-.31.07-.98-.21-1.32-1.22-1.48-2.58-2.82-4.02-4.08-1.08-.94-2.33-1.65-3.49-2.48-.78-.55-1.84-.45-2.72-.82-.11-.04-.29-.01-.38.06-.12.09-.25.25-.25.39-.03.63-.01,1.27-.01,1.91Zm29.57,25.2c0,.59,0,.91,0,1.23.02.96.14,1.9.6,2.77.22.41.3.9.44,1.36.05.15.11.3.16.45.13.46.37.53.69.16.89-1.02,1.95-1.61,3.36-1.43.47.06.95,0,1.43-.01.43-.01.95-.45,1.01-.83.25-1.45.16-2.82-.54-4.18-.52-.99-1.05-1.96-1.58-2.94-.07-.13-.2-.26-.33-.34-.67-.42-1.3-.92-2.11-1.07-.33-.06-.63.02-.92.17-.9.46-1.44,1.23-1.85,2.11-.13.28-.21.6-.24.91-.07.63-.1,1.27-.12,1.63Zm20.35,1.88s-.06,0-.09,0c0-.47-.03-.95,0-1.42.09-1.31-.36-2.47-.93-3.62-.5-1.02-1.25-1.8-2.16-2.46-.46-.33-1.38-.27-1.73.15-.51.62-.91,1.29-.99,2.11-.14,1.42-.14,2.84-.06,4.26.04.64.22,1.24.51,1.81.22.42.38.87.62,1.28.25.41.63.66,1.15.7.94.06,1.89.04,2.8.41.42.17.78-.24.8-.84.02-.79.05-1.58.07-2.36Zm-51.66-28.53c-.14.08-.29.13-.4.23-.36.33-.62.75-.7,1.21-.44,2.68-.27,5.37.06,8.05.66,1.31.71,2.75.87,4.16.07.66.39,1.2.75,1.72.36.52.81.96,1.39,1.27.54.29,1.33-.01,1.52-.61.15-.47.18-.98-.05-1.38-.49-.82-.85-1.7-1.28-2.54-.29-.58-.41-1.19-.44-1.83-.04-.95-.09-1.9-.14-2.84-.02-.32-.13-.61-.3-.89-.32-.55-.51-1.16-.54-1.8-.06-1.42-.07-2.85-.16-4.27-.02-.39-.3-.54-.58-.47Zm48.79,61.1c-.16.01.48-.03,1.11-.07.84-.06,1.52-.48,2.03-1.12.39-.49.69-1.06,1.01-1.61.3-.51.25-.85-.31-1.11-.74-.35-1.25-.97-1.93-1.39-.42-.26-.73-.24-1.25.2-.49.41-.96.84-1.45,1.24-.49.41-1.02.78-1.67.88-.97.15-1.73.78-2.64,1.07-.14.04-.33.2-.34.31,0,.25.24.43.57.59.28.14.55.31.83.47.56.34,1.16.51,1.81.53.48.02.95,0,2.22,0Zm-15.08-60.79c-1.13.09-2.08.16-3.03.23-.67.05-1.19.4-1.65.84-.33.32-.5.95-.32,1.29.22.41.46.83.73,1.21.35.48,1.17.69,1.69.47.29-.12.59-.23.86-.39.81-.51,1.72-.79,2.57-1.21.29-.14.6-.18.92-.18.47,0,.95-.05,1.42-.06.33,0,.64-.09.84-.37.17-.24-.14-.86-.56-1.13-.26-.17-.54-.39-.83-.43-.94-.13-1.89-.2-2.65-.27Zm20.88,1.01c.31-.01.6-.1.85-.32.57-.53,1.16-1.05,1.69-1.63.65-.72,1.67-.87,2.3-1.59.24-.28.34-.54.19-.76-.08-.12-.23-.22-.37-.26-.95-.26-1.85-.13-2.69.4-.26.17-.52.35-.75.57-.58.55-1.3.86-1.96,1.28-.39.25-.75.57-.97,1,.2.63.72.96,1.25,1.27.12.07.31.05.46.06Zm6.41,2.31c.08-1.03-.13-1.93-.6-2.78-.08-.14-.13-.28-.2-.43-.24-.5-.63-.57-1.08-.18-.59.51-1.19,1.02-1.63,1.68-.22.33-.21,1.01.02,1.32.57.76,1.24,1.41,2,1.97.32.24.99.06,1.2-.3.25-.43.25-.89.28-1.29Zm-26.94-5.51c-.07-.14-.12-.31-.23-.42-.56-.59-1.22-.99-2.07-.96-.63.03-1.27,0-1.87.23-.88.33-1.78.64-2.66.98-.34.14-.44.44-.38.8.05.31.21.58.54.66.3.07.63.08.94.04.8-.08,1.43-.7,2.24-.73.95-.04,1.9-.06,2.85-.11.14,0,.29-.11.42-.2.09-.07.15-.19.22-.29Zm7.52-2.8c-.1-.1-.17-.26-.29-.3-.73-.26-1.51-.41-2.2-.74-.91-.43-1.82-.41-2.77-.33-.66.06-1.18.39-1.68.79-.28.22-.37.9-.18,1.31.13.29.96.63,1.24.46.98-.61,2.05-.74,3.17-.72.78.01,1.57.07,2.33-.18.14-.04.25-.18.38-.28Zm1.49,6.25c.4,0,.87,0,1.34,0,.16,0,.32,0,.47-.04.14-.04.27-.14.39-.24.23-.19.21-.47-.07-.76-.44-.45-.91-.87-1.6-.86-.47,0-.93-.03-1.37.22-.54.31-1.1.57-1.64.88-.11.06-.26.26-.23.34.04.13.2.25.34.3.75.32,1.53.1,2.37.15Zm-3.32-4.09c-.46.03-.92.05-1.38.08-.15.01-.32.01-.46.07-.34.14-.52.36-.5.61.01.15.06.33.15.43.56.59,1.23.92,2.06.61.58-.22,1.14-.46,1.7-.72.12-.06.22-.23.27-.36.08-.22-.09-.46-.46-.55-.45-.1-.91-.11-1.38-.16Zm-38.45,73.49c-.09-.13-.15-.28-.27-.37-.35-.29-.71-.57-1.1-.81-.3-.18-.6-.12-.83.07-.24.2-.23.45.09.71.35.29.71.59,1.1.81.29.16.61.09.84-.09.09-.07.11-.21.16-.32Z"/><path class="cls-1" d="m106.96,319.93c.26-.86.44-1.64.75-2.37.25-.59.48-1.18.58-1.81.13-.8.7-1.44.78-2.25.06-.64.14-1.27.19-1.91.05-.65.28-1.24.48-1.85.41-1.2.55-2.49,1.2-3.62.06-.47.17-.95.18-1.42.02-1,.72-1.77.86-2.73.11-.79.07-1.6.44-2.34.37-.72.58-1.49.62-2.3.02-.32,0-.67.12-.95.88-1.95.86-4.04.97-6.11,0-.15-.07-.31-.08-.47-.04-.47-.52-.85-.98-.82-.32.02-.61.09-.91.23-.43.2-.88.38-1.37.4-1.44.07-2.87.18-4.31.21-2.56.06-5.12.11-7.68.07-1.6-.02-3.19-.18-4.79-.3-.31-.02-.63-.12-.91-.25-.74-.35-1.5-.52-2.31-.56-.64-.03-1.28-.08-1.92-.11-.65-.03-1.26-.17-1.86-.42-.29-.13-.6-.25-.91-.3-1.1-.19-2.19-.37-3.23-.84-1.01-.45-2.17-.51-3.15-1.1-.13-.08-.31-.07-.46-.12-.88-.27-1.66.23-1.7,1.09-.06,1.28-.11,2.56-.16,3.83-.02.48-.04.96-.09,1.44-.03.32-.07.64-.19.93-.37.9-.51,1.84-.55,2.81-.03.64-.08,1.28-.12,1.92-.05.96-.27,1.88-.58,2.8-.26.74-.3,1.56-.41,2.35-.11.8-.62,1.47-.71,2.28-.07.64-.19,1.26-.29,1.9-.78,1.29-.73,2.76-.92,4.18-.04.31-.08.65-.2.93-.46,1.05-.6,2.16-.65,3.27-.05,1.16-.55,2.16-.96,3.19-.15.36-.45.45-.75.31-.81-.37-1.31-1.11-1.25-1.85.08-1.12.16-2.23.28-3.34.03-.31.15-.62.27-.91.25-.59.42-1.2.45-1.85.05-1.28.19-2.54.78-3.72.21-.41.23-.92.3-1.4.1-.63.14-1.27.43-1.86.37-.73.52-1.5.56-2.31.02-.48.07-.96.28-1.4.34-.73.5-1.51.61-2.31.06-.47.09-.98.28-1.4.55-1.2.67-2.46.74-3.74.06-1.28.06-2.56.13-3.84.03-.47.14-.95.3-1.39.22-.61.36-1.22.37-1.86.04-2.24.11-4.48.16-6.71.03-1.29.19-2.53.66-3.75.23-.58.16-1.26-.16-1.86-.42-.76-.41-1.51-.03-2.28.14-.28.23-.6.27-.91.06-.47.05-.96.08-1.44.09-1.28-.03-2.56-.07-3.83-.01-.48.08-.95.13-1.43.04-.41.68-.83,1.06-.67,1.18.48,2.39.84,3.68.96.62.06,1.2.45,1.81.58,1.24.28,2.54.26,3.72.86.41.2.94.19,1.41.21,1.28.08,2.56.13,3.83.19.64.03,1.26.18,1.87.37.45.14.93.26,1.4.29.96.06,1.92.07,2.88.07,3.2,0,6.4,0,9.6-.04,1.28-.01,2.55,0,3.78-.5.43-.17.94-.17,1.42-.19,1.76-.08,3.52-.15,5.27-.21.97-.03,1.9-.16,2.8-.56.59-.26,1.25-.26,1.89-.29.96-.05,1.91-.16,2.8-.58.28-.13.6-.22.92-.25.95-.11,1.91-.2,2.87-.27.65-.05,1.25-.22,1.86-.43.45-.16.93-.24,1.4-.3.79-.11,1.6-.12,2.38-.29.77-.17,1.5-.54,2.28-.71.79-.17,1.49-.58,2.24-.82.76-.24,1.57-.31,2.35-.45,1.27-.72,2.81-.62,4.07-1.37.26-.16.61-.18.92-.25.89-.2,2.03.5,2.21,1.36.07.31.17.62.18.93.04.97.22,1.89.65,2.78.41.86.38,1.88.96,2.69.28.4.31.9.37,1.37.06.48-.02,1,.16,1.42.65,1.5.73,3.1.93,4.68.04.31.15.62.28.91.34.74.47,1.52.54,2.32.06.64.13,1.27.2,1.91.82,1.64.64,3.43.73,5.18.09,1.6.15,3.2.24,4.79.02.31.1.63.2.93.21.61.38,1.22.42,1.86.06.96.15,1.91.21,2.87.03.49.18.94.36,1.38.26.6.35,1.22.37,1.87.07,2.72.13,5.43.21,8.15.02.64.05,1.28.09,1.92.02.32.04.65.16.94.74,1.68.59,3.44.56,5.19-.01.44-.37.81-.91.95-.48.12-.93.07-1.33-.24-.12-.09-.3-.23-.31-.36-.14-2.07-.26-4.15-.39-6.22-.03-.48-.01-.96-.21-1.41-.32-.75-.39-1.54-.4-2.34-.05-2.72-.14-5.44-.19-8.15-.02-.81-.13-1.58-.49-2.32-.28-.59-.34-1.23-.36-1.87-.06-1.76-.11-3.52-.16-5.27-.03-.96-.05-1.92-.09-2.88-.01-.31-.03-.66-.17-.93-.68-1.34-.43-2.83-.76-4.23-.07-.31-.21-.6-.46-.82-.3-.27-1.03-.35-1.34-.17-.28.16-.58.27-.84.45-.92.62-1.79,1.37-2.96,1.49-.87.4-1.73.81-2.6,1.2-1.02.46-2.03.92-3.05,1.38-1.13.14-2.08.82-3.16,1.08-1.4.34-2.65,1.11-4.1,1.3-1.1.7-2.44.73-3.6,1.27-.86.4-1.86.47-2.73.83-.91.37-1.87.41-2.8.62-.46.1-.91.3-1.35.47-.88.35-1.54-.03-2.14-.62-.25-.24-.33-.55-.28-.87.02-.16,0-.34.08-.47.71-1.13.86-2.4.89-3.68.02-.8-.02-1.6-.07-2.4-.05-.82.1-1.58.42-2.33.13-.29.25-.6.28-.91.22-1.97.27-6.57.1-8.62-.01-.13-.15-.27-.25-.38-.21-.24-.5-.32-.85-.2-.3.1-.53.32-.63.63-.09.3-.14.63-.14.94-.03,1.44-.04,2.88-.08,4.32-.01.48-.13.94-.32,1.39-.18.44-.37.86-.39,1.37-.07,1.92-.17,3.83-.28,5.75-.03.47-.12.96-.28,1.4-.27.76-.44,1.53-.47,2.34-.02.64-.08,1.28-.13,1.91-.05.64-.19,1.27-.46,1.85-.27.59-.4,1.21-.43,1.85-.05,1.28-.19,2.53-.77,3.72-.2.41-.17.94-.21,1.42-.06.66.03,1.31.56,1.75,1.3,1.08,1.87,2.57,2.28,4.11.33,1.24,1.12,2.32,1.19,3.63.33.73.62,1.47,1.01,2.17.39.71.64,1.45.85,2.22.29,1.08.84,2.07.97,3.2.69,1.11.73,2.44,1.27,3.59.48,1.02.54,2.16,1.02,3.19.4.85.56,1.82.84,2.74.15.49-.14.84-.72.86-.87.03-1.25-.15-1.51-.85-.34-.89-.78-1.74-1.04-2.67-.38-1.38-1.01-2.69-1.11-4.14-.01-.15-.07-.32-.15-.45-.7-1.1-.57-2.5-1.27-3.59-.47-1.35-1.21-2.61-1.48-4.03-.5-.83-.7-1.77-1-2.68-.25-.75-.64-1.46-.9-2.21-.1-.29-.31-.57-.53-.78-.22-.2-.52-.33-.81-.43-.05-.02-.25.2-.3.34-.34,1.06-.97,2.01-1.14,3.14-.14.95-.74,1.75-.9,2.72-.21,1.24-.99,2.35-.96,3.68,0,.31-.1.64-.24.92-.44.86-.73,1.77-.93,2.71-.84,1.22-.81,2.74-1.39,4.06-.51,1.16-.82,2.41-1.2,3.63-.14.46-.22.92-.43,1.37-.39.85-1.35,1.35-2.38,1.19-.53-.08-.71-.44-.49-.98.36-.89.72-1.77,1.1-2.65.37-.87.45-1.86.89-2.61Z"/><path class="cls-1" d="m52.65,201.36c.8,0,1.6,0,2.39,0,.33,0,.63-.1.9-.28.26-.18.56-.32.79-.54.84-.84,2.06-.81,3.02-1.33,1.55-.83,3.18-1.48,4.74-2.27.71-.36,1.42-.74,2.16-1.03.74-.29,1.56-.33,2.28-.71.71-.38,1.53-.45,2.26-.76.74-.32,1.46-.63,2.25-.78.31-.06.6-.2.9-.31,1.2-.44,2.3-1.11,3.53-1.46,1.39-.4,2.61-1.17,3.93-1.73,1.18-.49,2.36-.98,3.46-1.62.84-.49,1.83-.54,2.66-1.06.67-.42,1.42-.72,2.16-1.02.88-.37,1.77-.72,2.6-1.2,1.43-.26,2.67-1.04,3.99-1.57.44-.18.9-.37,1.36-.43,1.12-.16,2-1.03,3.16-1.05.49,0,.93-.23,1.36-.43.44-.21.89-.35,1.37-.37,1.12-.06,2.23-.11,3.35-.16.45-.02.84-.39.94-.9.09-.46.17-.93.26-1.4.06-.3.88-.75,1.18-.64.45.16.91.3,1.34.51.58.29,1.17.5,1.82.51.32,0,.64.02.96.02,1.12.02,2.26-.04,3.33.29.91.28,1.8.68,2.63,1.15.86.48,1.84.51,2.71.92,1.29.62,2.65,1.1,3.9,1.83.28.16.54.42.83.47,1.77.3,3.19,1.42,4.84,2,.14.05.33.06.47.02.14-.05.29-.17.35-.3.05-.09,0-.28-.08-.37-.19-.25-.39-.52-.64-.7-.78-.55-1.65-.95-2.38-1.6-2.17-1.95-4.77-3.15-7.41-4.3-.45-.2-.92-.25-1.39-.33-.47-.08-1-.06-1.41-.27-1.18-.61-2.43-.79-3.71-.77-1.31.03-2.51-.37-3.71-.81-.44-.16-.95-.11-1.33-.44-.08-.07-.15-.25-.12-.31.07-.13.2-.29.34-.32.95-.21,1.91.08,2.87,0,.32-.03.62-.1.9-.28.67-.45,1.38-.76,2.22-.73,1.92.07,3.83.1,5.75.15.65.02,1.24.21,1.84.44,3.77,1.4,3.76,1.42,6.98,3.05,1.01.51,1.93,1.11,2.75,1.88.23.22.47.43.73.62,1.04.73,2.2,1.29,3.11,2.22.89.92,1.84,1.77,2.77,2.65.12.11.25.21.39.28.28.13.6.16.9.04.12-.05.24-.24.27-.38.09-.63.15-1.26.21-1.89.08-.8.25-1.56.61-2.29.78-1.57,1.6-3.12,2.4-4.68.22-.42.44-.86.73-1.23.59-.76.94-1.68,1.5-2.44,1.04-1.41,2.27-2.68,3.62-3.81.37-.31.75-.6,1.17-.83,1.4-.76,2.8-1.53,4.25-2.2.56-.26,1.23-.31,1.87-.11.15.05.36.05.45.16.4.49.73,1.04,1.15,1.5.32.34.9.32,1.22.7.19.23.32.56.22.87-.09.29-.33.54-.55.76-1.01,1.02-2.13,1.92-3.3,2.76-1.18.83-2.24,1.8-2.93,3.1-2.24,3.13-3.89,6.58-5.46,10.08-.06.14-.05.32-.09.47-.24.84.33,1.59,1.18,1.66,1.12.1,1.78-.51,2.32-1.36.08-.13.15-.28.21-.43.54-1.33,1.24-2.58,1.94-3.84.31-.56.64-1.11,1.08-1.58.88-.94,1.56-2,2.15-3.15.58-1.13,1.28-2.2,2.23-3.1.81-.77,1.55-1.61,2.32-2.41.33-.35.78-.24,1.2.24.22.25.4.51.44.84.06.47.1.95.13,1.42.05.96.19,1.9.6,2.78.2.43.31.9.32,1.39.02.86.45,1.49,1.1,2.02.37.3.71.64,1.05.98.92.9,1.67,1.91,2.14,3.13.28.74.65,1.45,1.02,2.16.3.58.45,1.18.53,1.82.06.47.06,1,.28,1.39.66,1.17.75,2.42.79,3.71.04,1.12.17,2.23-.03,3.35-.06.32-.12.63-.31.9-.18.26-.33.55-.56.77-.7.68-1.02,1.62-1.66,2.33-.75.83-1.5,1.67-2.55,2.14-.29.13-.54.34-.79.53-.54.4-.89.92-.89,1.6-.01,1.44.01,2.87,0,4.31,0,.51-.27.91-.65,1.22-.37.3-.78.56-1.17.83-.26.18-.59.31-.76.56-1.45,2.12-3.43,3.78-5.06,5.74-.52.62-.89,1.3-1.27,2.01-.45.85-.76,1.75-1.26,2.58-.9,1.5-1.68,3.07-2.38,4.68-.64,1.46-1.38,2.87-2.15,4.27-.41.73-1.13,1.13-1.99,1.1-.47-.01-.95-.1-1.4-.24-.32-.1-.62-.23-.91-.08-.63.31-1.25-.13-1.84-.02-.62.12-1.22.37-1.86.4-.33.01-.64-.03-.93-.17-1.43-.71-2.88-1.37-4.2-2.26-.66-.44-1.28-.94-2.01-1.29-1.72-.84-3.41-1.73-5.14-2.54-1.01-.47-2.13-.66-3.12-1.2-.95-.15-1.88-.36-2.74-.82-.14-.07-.3-.1-.45-.14-1.09-.25-2.26-.04-3.31-.46-.9-.35-1.81-.6-2.78-.66-.64-.04-1.25-.23-1.85-.46-1.08-.41-2.19-.39-3.28-.03-.61.2-1.21.39-1.86.39-.65,0-1.29-.52-1.3-1.12,0-.48,0-.95,0-1.43-.01-.96-.03-1.92-.05-2.87-.01-.5-.23-.93-.56-1.29-.32-.35-.68-.68-1.04-.99-.85-.73-1.92-1.14-2.73-1.94-.8-.78-1.63-1.54-2.46-2.28-.47-.42-.99-.81-1.48-1.21-.22-.18-1.14-.21-1.39-.1-1.19.51-1.98,1.62-3.2,2.07-1.31,1.19-3.02,1.78-4.33,2.96-.72.64-1.69.89-2.51,1.38-1.88.45-3.51,1.49-5.27,2.21-.3.12-.59.24-.88.38-.58.29-1.2.42-1.84.5-.47.06-.94.16-1.41.24-1.13.72-2.43.7-3.7.83-.47.05-.95.08-1.4.3-.74.35-1.53.42-2.33.47-2.24.15-4.47.11-6.71.03-.64-.02-1.26-.16-1.87-.37-.45-.16-.91-.33-1.38-.36-1.14-.1-2.15-.55-3.15-1.05-.58-.28-1.14-.58-1.62-1.01-1.07-.96-2.13-1.93-3.15-2.94-1.34-1.34-1.7-1.91-2.69-3.92-.35-.72-.73-1.42-1.06-2.15-.52-1.16-1.28-2.22-1.44-3.52-.56-1.14-1.12-2.29-1.68-3.43-.24-.5.35-1.28.99-1.29.32,0,.64-.06.95-.07.32-.01.64,0,.96,0,.32,0,.64,0,.96,0,0,0,0,0,0,0Zm75.76-22.08c.21.67.34.87.69.91.41.05.83.04,1.24.06,0,.15-.04.34.03.46.45.71.95,1.1,1.74,1.39.13.05.31.06.44,0,.43-.16.42-.37.12-.7-.66-.72-1.4-1.21-2.43-1.04-.08-.65-.49-.94-1.1-.98-.27-.02-.55.02-.83.03-.01-.15.02-.33-.05-.45-.39-.68-.99-1.12-1.75-1.31-.14-.03-.3-.02-.44.02-.43.13-.4.3-.09.65.66.73,1.42,1.12,2.42.97Zm-75.55,26.86c1.07,2.13,1.84,3.71,2.64,5.26,1.11,2.14,1.19,2.23,2.78,3.85.34.34.71.65,1.01,1.02.84,1.01,1.99,1.6,3.11,2.2,1.57.84,3.21,1.36,5.04,1.23,1.59-.11,3.19-.07,4.79-.05,1.29.01,2.55-.04,3.75-.6.28-.13.62-.15.93-.19.79-.09,1.59-.15,2.38-.26.95-.13,1.77-.71,2.73-.84,1.11-.16,2.02-.91,3.14-1.11.61-.11,1.16-.51,1.75-.75,1.04-.41,2.08-.88,2.96-1.54,1.03-.78,2.09-1.48,3.26-1.98,1.35-.58,2.31-1.7,3.59-2.37.56-.29,1.04-.73,1.56-1.09.53-.37.91-.89,1.37-1.33.34-.33.75-.6,1.14-.86.1-.06.31-.07.4,0,.39.28.77.57,1.12.89,1.75,1.63,3.38,3.4,5.27,4.87,1.38,1.08,3.07,1.7,4.5,2.72.13.09.27.18.41.24.29.11.59.26.9.28,1.43.12,2.86.27,4.3.03.36-.06.6-.26.63-.53.02-.14-.06-.32-.14-.45-.33-.57-.83-.99-1.39-1.29-1.12-.6-2.22-1.26-3.46-1.59-.3-.08-.62-.18-.88-.34-2.01-1.29-4.11-2.46-5.7-4.31-.31-.36-.3-.8.1-1.25.46-.53.88-.69,1.2-.39,1.19,1.08,2.59,1.86,3.89,2.78,1.44,1.02,3.01,1.81,4.85,1.79.64,0,1.27.06,1.91.08.48.02.94-.12,1.38-.31.14-.06.27-.18.36-.31.24-.35.19-1.02-.02-1.33-.57-.8-1.31-1.4-2.14-1.88-.69-.4-1.44-.69-2.16-1.02-1.31-.1-2.43-.78-3.59-1.28-1.17-.51-2.3-1.11-3.27-1.96-.48-.42-1.03-.74-1.53-1.14-.24-.2-.31-.53-.23-.87.08-.33.82-.8,1.12-.73.31.07.64.1.91.24,2,1,3.92,2.13,5.97,3.02,1.09.74,2.47.62,3.6,1.25.65-.06,1.23-.32,1.77-.63.43-.24.67-.63.74-1.15.09-.67-.06-1.27-.48-1.79-.61-.75-1.33-1.4-2.24-1.76-1.03-.41-1.99-1.05-3.14-1.12-1.03-.42-2.04-.89-3.13-1.13-.3-.07-.58-.26-.86-.42-.43-.24-.91-.31-1.38-.35-.5-.04-.95-.23-1.28-.57-.88-.92-1.83-1.79-2.54-2.86-.18-.27-.09-.69.14-.87.49-.38,1.08-.65,1.57-1.04.38-.3.61-.7.38-1.25-.18-.44-.26-.91-.28-1.4-.05-1.43.1-2.88-.14-4.3-.05-.31-.2-.61-.46-.81-.07-.06-.29.06-.43.1-.46.14-.87.39-1.36.44-.95.11-1.9.26-2.85.4-1.1.71-2.43.73-3.61,1.23-1.31.56-2.57,1.3-4.02,1.52-1.1.68-2.4.83-3.56,1.35-1.16.52-2.34,1.01-3.49,1.56-.72.34-1.4.76-2.19.94-.3.07-.61.21-.87.38-1.07.7-2.12,1.43-3.45,1.56-.83.49-1.73.81-2.6,1.2-.43.2-.85.48-1.34.48-1.34-.01-2.43.72-3.62,1.16-1.05.39-2.05.88-3.19.92-.31.01-.63.11-.91.24-1.31.58-2.65,1.12-3.9,1.8-1.27.69-2.76.8-3.97,1.61-1.06.35-1.98,1.05-3.13,1.17-.49.05-.88.38-1.25.67-.88.69-1.82,1.29-2.82,1.8-.28.14-.6.24-.9.28-.47.07-.95.07-1.43.11-.93.07-1.14.38-.79,1.16.33.73.66,1.45.73,1.6Zm88.93,3.82c-.12-3.28-.1-8.55-.07-13.82,0-.16-.02-.32-.04-.48-.09-.67-.42-1.23-.99-1.56-.83-.47-1.67-.87-2.38-1.56-2.57-2.45-2.59-2.42-5.85-4.07-.57-.29-1.18-.5-1.73-.81-1.8-1.02-3.75-1.78-5.43-3.01-.38-.28-.88-.39-1.27-.66-.94-.66-2.12-.68-3.11-1.19-1.14-.59-2.46-.68-3.58-1.32-.78-.14-1.57-.25-2.35-.43-.46-.11-.91-.3-1.35-.47-.77-.3-1.55-.31-2.35-.22-.43.05-.99.5-.99.86,0,2.08-.02,4.15,0,6.23,0,.47.14.94.28,1.39.19.62.3,1.24.33,1.88.03.64.1,1.27.17,1.9.06.51.39.85.84,1.07.57.28,1.12.67,1.73.81,1.56.38,3,1.05,4.45,1.72.44.21.91.28,1.36.44,1.56.55,2.74,1.6,3.63,2.98.17.26.27.58.33.89.22,1.13.19,2.22-.5,3.22-.45.66-.86,1.34-1.27,2.02-.07.11,0,.31,0,.46.03.5.34.88.57,1.3.65,1.19.26,2.29-.48,3.07-.44.47-.94.87-1.38,1.33-.33.34-.58.72-.58,1.25,0,.79.13,1.59-.05,2.39-.07.33-.16.63-.44.83-1.05.77-2.17,1.29-3.52,1.28-.95,0-1.93-.12-2.86.15-.26.08-.54.36-.65.62-.12.27-.07.62-.06.94,0,.67.55,1.27,1.14,1.3.95.05,1.91.14,2.86.11,1.16-.03,2.1.77,3.25.75.32,0,.64.07.95.14.31.07.63.13.91.27.74.35,1.5.52,2.31.54,1.13.03,2.2.23,3.24.74.85.41,1.87.34,2.74.82.97.54,2.17.51,3.11,1.2.24.17.6.2.91.24.64.1,1.23.33,1.75.71,1.28.94,2.7,1.69,3.9,2.76.37.33.88.3,1.36.36.54.07,1.34-.55,1.32-1.09-.03-.63.07-1.27.06-1.91-.05-4.79-.12-9.58-.21-16.37Zm1.94-5.43c.03,2.04.09,5.23.13,8.42.02,1.12.04,2.22.43,3.3.16.44.17.94.18,1.41.05,2.39.07,4.79.11,7.18.03,1.43-.06,2.87.15,4.3.06.42.51.94.89.98,1.11.13,2.22.18,3.31-.12.15-.04.31-.12.41-.23.43-.47.83-.97.96-1.62.23-1.09.26-2.22.77-3.24.14-.27.16-.62.16-.93,0-2.55-.02-5.11-.05-7.66,0-.32,0-.66-.12-.94-.51-1.22-.45-2.5-.45-3.78-.01-5.75,0-11.49-.02-17.24,0-.82.28-1.55.55-2.3.05-.14.05-.33,0-.47-.14-.47-.46-.81-.83-1.13-.29-.24-.54-.2-.88-.02-.42.22-.91.26-1.39.26-1.12,0-2.23,0-3.33.28-.49.12-1.17.88-1.17,1.38,0,.48-.03.96-.02,1.43.06,3.19.12,6.38.2,10.73Zm19.29-24.33s.06,0,.09,0c-.03-.95-.04-1.91-.11-2.86-.02-.33-.27-.58-.53-.66-.12-.04-.32.07-.43.17-1.11.91-2.13,1.92-2.82,3.2-.31.56-.67,1.07-1.05,1.58-.85,1.15-1.65,2.34-2.46,3.51-.27.39-1.18,2.42-1.37,3.03-.14.45-.19.95-.41,1.36-.44.85-.64,1.8-1.18,2.6-.4.59-.25,1.22-.21,1.85.46,1.04.63,2.12.63,3.25,0,1.11.08,2.23.09,3.34.04,3.82.06,7.64.11,11.46.02,1.91.09,3.82.15,5.73,0,.14.13.28.17.43.12.38.89.51,1.21.25.75-.61,1.4-1.33,1.88-2.14.67-1.12,1.56-2,2.48-2.89.69-.67,1.45-1.23,2.23-1.78.64-.45,1.18-1.06,1.73-1.63.21-.22.41-.52.47-.81.19-.95.19-1.9-.22-2.8-.28-.6-.71-1.12-1.4-1.14-1.33-.04-2.44-.62-3.56-1.22-.14-.07-.26-.18-.37-.3-.32-.35-.61-.73-.73-1.2-.13-.5.1-.94.31-1.36.33-.64.23-1.21-.22-1.75-.2-.25-.43-.47-.64-.71-.71-.79-.84-1.7-.44-2.65.37-.88.86-1.7,1.28-2.56.06-.12.07-.32,0-.41-.35-.53-.74-1.03-1.11-1.55-.52-.72-.46-2.11.12-2.66,1.6-1.54,3.1-3.2,5.08-4.3.14-.08.23-.22.35-.32.5-.44.8-1.01.85-1.65.05-.79.01-1.59.01-2.39Zm-18.42,5.49c0,.97,0,1.29,0,1.61,0,.16.06.31.07.47.04.61.81,1.15,1.34.91.73-.33,1.46-.71,1.61-1.61.13-.79.29-1.55.65-2.28.41-.86.75-1.75,1.12-2.63.08-1.16.74-2.1,1.21-3.09.69-1.43,1.51-2.8,2.46-4.09.34-.92.93-1.66,1.63-2.33,1.15-1.1,2.31-2.2,3.44-3.32.22-.22.39-.5.57-.75.22-.32.11-.55-.31-.69-.46-.14-.97-.25-1.4-.05-1.29.61-2.56,1.27-3.81,1.97-.99.56-1.79,1.34-2.45,2.25-.75,1.03-1.48,2.08-2.09,3.2-.99,1.82-1.88,3.69-2.81,5.54-.26,1.09-.59,2.15-1.07,3.15-.08.79-.16,1.58-.18,1.73Zm14.98,6.13c.64,0,1.29,0,1.86-.3.98-.52,2.01-.94,2.91-1.6.77-.56,1.59-1.04,2.4-1.54.41-.25.88-.34,1.34-.45.3-.07.58-.94.42-1.25-.35-.71-.71-1.41-1.05-2.12-.15-.31-.99-.48-1.27-.26-.62.49-1.21,1.04-1.87,1.46-.67.43-1.35.82-1.94,1.36-.94.85-1.97,1.59-3.1,2.18-.27.14-.46.43-.69.64-.25.24-.44,1.05-.26,1.33.18.28.47.42.78.48.16.03.31.05.47.08Zm10.26-.54c-.06-.15-.11-.3-.17-.45-.33-.79-.45-.86-.97-.58-.7.38-1.42.73-2.01,1.26-.96.87-2.09,1.46-3.25,1.95-.88.37-1.69.87-2.57,1.25-.9.39-1.57,1.06-2.16,1.83-.31.41-.12.92.38,1.03.8.18,1.6.13,2.32-.22,1.65-.81,3.97-2.29,6.02-3.82.53-.39,1.07-.62,1.72-.72,1.13-.16,1.2-.34.69-1.54Zm-8.56,12c.31-.03.66.02.93-.1,1.15-.52,2.34-.96,3.44-1.59.69-.4,1.35-.82,1.92-1.37.81-.76,1.58-1.56,2.24-2.45.19-.25.39-.51.51-.8.12-.28.17-.6.21-.91.05-.33-.05-.67-.31-.85-.19-.13-.49.02-.77.25-1.12.88-1.95,2.11-3.22,2.8-1.24.68-2.55,1.25-3.83,1.87-.43.21-.86.4-1.28.62-.14.07-.25.19-.37.3-.12.11-.24.21-.34.33-.32.38-.43.83-.32,1.31.08.32.68.6,1.18.59Zm-24.71-18.74c-.41-.67-.95-1.17-1.75-1.28-.1-.01-.27.16-.33.28-.04.08,0,.26.06.35.35.51.78.91,1.41,1.02.13.02.3,0,.41-.06.1-.06.14-.21.2-.32Zm-12.5-7.66c-.11-.07-.21-.17-.34-.21-.13-.04-.28-.06-.41-.02-.13.03-.33.16-.32.22.02.21.25.33.57.32.13,0,.27-.03.38-.09.06-.03.08-.15.11-.23Z"/><path class="cls-1" d="m108.28,386.6c-.05.31-.09.63-.15.94-.07.33-.25.62-.56.74-.88.36-1.78.67-2.67,1.02-.89.35-1.87.4-2.75.81-.9.43-1.88.27-2.83.2-1.03-.46-2.11-.7-3.24-.75-.31-.02-.62-.14-.92-.25-.3-.12-.56-.31-.86-.43-.74-.3-1.47-.63-2.16-1.04-1.11-.19-2.11-.74-3.18-1.04-.94-.26-1.77-.73-2.65-1.08-.45-.18-.89-.38-1.25-.7-1.21-1.06-2.78-1.6-3.94-2.71-1.12-.62-2.17-1.34-3.1-2.23-.83-.78-1.88-1.2-2.83-1.78-.82-.5-1.63-1-2.34-1.65-1.42-1.29-2.84-2.58-4.16-3.98-2.31-2.44-4.74-4.76-6.96-7.29-.75-.86-1.64-1.51-2.75-1.85-.29-.09-.51-.4-.53-.72-.04-.64-.02-1.28.02-1.91.05-.81.59-1.47.68-2.28.09-.79.16-1.6.5-2.33.34-.73.54-1.5.59-2.31.04-.64.15-1.27.45-1.85.07-.14.14-.29.2-.44.06-.15.15-.3.15-.45.04-1.78,1.01-3.37,1.12-5.13,0-.16.03-.32.07-.47.08-.31.1-.66.26-.91.64-1,.62-2.13.76-3.23.04-.3.19-.61.34-.88.35-.64.95-.92,1.53-.41.47.43,1,.81,1.42,1.29,1.25,1.45,2.61,2.8,3.64,4.45.85,1.35,2.1,2.42,2.81,3.87,1.18,1.3,2.36,2.61,3.54,3.91.38.42,1.26.5,1.75.16.39-.27.81-.52,1.19-.8.77-.57,1.49-1.23,2.31-1.7,1.1-.63,2.29-1.13,3.44-1.68.14-.07.29-.15.44-.19.31-.08.62-.19.93-.2,2.24-.05,4.48-.17,6.71.04.31.03.66.06.92.21,1.01.59,2.12.66,3.23.75.69.06,1.15.51,1.6.96.65,1.3,1.6,2.38,2.51,3.49.72.88,1.12,1.93,1.69,2.89.98,1.69,2.18,3.14,3.91,4.1.28.15.57.3.81.51.96.84,1.92,1.69,2.84,2.58.71.67,1.24,1.45,1.35,2.47.03.31.15.62.27.92.12.31.24.64.12.92-.66,1.52-.47,3.15-.67,4.73-.06.49-.22.93-.42,1.37-.2.44-.33.9-.36,1.38-.05.96-.07,1.92-.16,2.87-.05.47-.19.94-.35,1.38-.16.45-.45.86-.45,1.35,0,1.49-.6,2.79-1.26,4.07-.14.28-.43.42-.77.47.12-1.11.27-2.21.75-3.25.36-.78.4-1.67.21-2.82-.05-.3-.35-.59-.63-.63-.63-.08-1.27-.04-1.88.23-.43.19-.89.38-1.36.44-1.43.2-2.87.11-4.31,0-.65-.04-1.22-.4-1.83-.52-1.27-.24-2.41-.82-3.64-1.16-1.25-.34-2.34-1.01-3.5-1.53-1.31-.59-2.6-1.21-3.9-1.83-.43-.21-.85-.43-1.33-.51-.64-.11-1.21-.36-1.73-.76-.51-.38-1.04-.75-1.6-1.05-1.26-.68-2.54-1.33-3.7-2.19-1.16-.85-2.49-1.43-3.57-2.4-1.16-.58-2.07-1.49-2.99-2.38-1.95-1.9-3.86-3.82-5.71-5.82-.54-.59-1.16-1.11-1.66-1.73-.5-.62-.88-1.32-1.32-1.99-.09-.13-.21-.24-.31-.36-.31-.39-.87-.38-1.18,0-.31.38-.58.79-.66,1.26-.12.79-.18,1.59-.21,2.39-.02.47.08.95.34,1.37.67,1.09,1.23,2.24,2.17,3.14.34.33.65.7.96,1.07.92,1.1,2.06,2.02,2.73,3.32,1.25,1.46,2.63,2.79,4.09,4.04,1.18.55,2.03,1.55,3.05,2.3.38.28.81.51,1.19.79.65.46,1.26.98,1.93,1.42.8.52,1.7.86,2.4,1.56.91.91,1.98,1.6,3.1,2.23,1.73,1.47,3.84,2.26,5.85,3.21,1.57.36,2.97,1.13,4.41,1.83,2.25,1.09,3.08,1.26,5.53,1.3.96.01,1.92-.02,2.88-.05,1.13-.03,2.2-.24,3.24-.73.72-.34,1.55-.37,2.35-.38Zm-25.96-17.25c-.03.35.07.63.31.85.48.42.99.8,1.56,1.08,1.14.56,2.25,1.17,3.41,1.7,1.15.52,2.2,1.29,3.5,1.45,1.43.7,2.84,1.41,4.3,2.04.73.32,1.45.63,2.24.76.78.13,1.43.7,2.24.75.79.05,1.59.12,2.38.13,1.11.02,2.23,0,3.34-.04.47-.02.95-.1,1.36-.39.71-.5,1.46-.55,2.23-.15.14.07.34.2.44.15.25-.14.37-.43.41-.77.12-1.11.21-2.21.15-3.33-.04-.61-.37-1.04-.79-.85-.87.41-1.86.43-2.73.8-1.06.45-2.14.52-3.26.54-1.12.02-2.2-.06-3.26-.52-.57-.25-1.25-.23-1.84-.43-.75-.25-1.4-.75-2.2-.88-.48-.08-.91-.28-1.3-.55-.91-.64-1.81-1.28-2.95-1.49-.3-.05-.58-.25-.84-.42-1.31-.89-2.62-1.79-3.93-2.69-.13-.09-.27-.2-.41-.23-.14-.03-.31,0-.44.07-.56.29-1.15.55-1.66.91-.77.55-1.48,1.2-2.34,1.62-.02-.16,0-.36-.07-.47-.48-.64-1.11-1.1-1.79-1.51-.96-.57-1.82-1.27-2.55-2.13-.26-.3-.29-1.01-.01-1.31.64-.71,1.28-1.41,1.91-2.13.4-.45.43-.89.09-1.23-.56-.56-1.13-1.12-1.68-1.69-1-1.02-2.05-2.01-2.71-3.31-.14-.28-.37-.52-.58-.76-.93-1.09-1.78-2.23-2.59-3.41-.8-1.18-1.83-2.2-2.73-3.32-.39-.49-.67-1.08-1.04-1.59-.46-.64-.97-1.25-1.6-1.75-.34-.27-.59-.28-.77.07-.22.42-.42.85-.61,1.28-.19.44-.38.87-.43,1.36-.06.64-.26,1.24-.53,1.82-.2.43-.36.88-.47,1.34-.2.79-.09,1.53.34,2.27.71,1.25,1.49,2.44,2.45,3.52.53.6,1.06,1.19,1.65,1.72.73.65,1.09,1.57,1.73,2.26,1.19,1.28,2.48,2.47,3.73,3.69,1.4.79,2.5,1.95,3.72,2.97.87.72,1.85,1.23,2.8,1.79.58.34,1.19.4,1.83.38Zm22.1,1.99c.2,0,1.15-.04,2.11-.1.32-.02.66-.01.94-.13.87-.38,1.74-.78,2.57-1.23.26-.14.43-.45.64-.69.27-.32.26-.98.03-1.34-.78-1.23-1.85-2.21-3.05-2.98-1.76-1.13-3.27-2.51-4.66-4.05-.21-.23-.44-.47-.71-.63-.26-.16-.58-.28-.88-.31-.95-.09-1.9-.09-2.81.31-.29.13-.58.31-.88.35-1.45.17-2.64,1.09-4.05,1.35-1.42.7-2.89,1.31-4.26,2.11-.27.16-.49.4-.74.6-.37.29-.3.84.14,1.18.25.19.48.44.76.57,1.58.76,3.11,1.57,4.53,2.61.25.18.56.31.86.37.78.17,1.49.52,2.23.81.88.34,1.85.46,2.7.9.43.23.92.27,1.39.29.79.03,1.59,0,3.14,0Zm-20.9-4.87c.26-.14.57-.24.8-.44.71-.64,1.36-1.31,2.24-1.75.85-.42,1.5-1.16,2.36-1.6,2.12-1.08,4.23-2.18,6.42-3.12.89-.38,1.78-.66,2.73-.79.47-.07.92-.22,1.37-.37.59-.2.96-1.02.7-1.49-.16-.28-.32-.55-.48-.82-.44-.75-.44-.75-1.07-.6-.46.11-.93.24-1.4.27-1.43.08-2.86.1-4.29.18-.47.02-.98.05-1.4.24-.88.41-1.78.69-2.72.86-.96.56-2.03.92-2.89,1.65-.97.82-1.93,1.64-3.03,2.3-.94.57-1.74,1.38-2.4,2.3-.3.42-.27,1.39.1,1.76.11.11.2.28.33.34.72.33,1.32.89,2.11,1.07.15.03.32,0,.49,0Zm7.23-16.21c-1.04,0-1.99,0-2.87.45-.57.29-1.22.34-1.85.41-.63.07-1.25.19-1.81.52-.68.4-1.45.63-2.07,1.15-.85.71-1.72,1.4-2.47,2.22-.4.43-.46,1.3-.1,1.73.61.74,1.3,1.38,2.09,1.92.42.29,1.4.34,1.81.05.77-.55,1.49-1.22,2.32-1.65,1.68-.87,3.32-1.84,5.24-2.14.3-.05.6-.19.88-.34.58-.29,1.19-.39,1.83-.44,1.1-.07,2.22.07,3.3-.22.14-.04.29-.15.38-.28.21-.3.09-.99-.17-1.29-.54-.61-1.17-1.04-2.01-1.11-.79-.07-1.6-.11-2.31-.48-.72-.37-1.47-.57-2.19-.53Z"/><path class="cls-1" d="m139.39,372.21c-.5.02-1.46-.02-2.41-.12-.27-.03-.51-.34-.76-.52-.24-.93-.5-1.84-.89-2.72-.33-.74-.32-1.56-.31-2.36,0-.82-.2-1.57-.62-2.27-.33-.56-.45-1.18-.45-1.83,0-.47.02-.95-.22-1.4-.31-.56-.51-1.17-.55-1.82-.06-.97-.35-1.86-.69-2.76-.39-1.04-.6-2.14-1.08-3.15-.11-.96-.43-1.86-.82-2.74-.06-.13-.02-.32.02-.47.06-.31.26-.58.58-.65.96-.22,1.9-.08,2.8.31.44.19.86.39,1.36.43,3.03.22,6.06.13,9.09-.06.31-.02.63-.1.92-.22.75-.3,1.52-.47,2.31-.58.47-.06.97-.11,1.39-.31,1.04-.5,2.16-.54,3.25-.74.15-.03.3-.1.45-.14.46-.13,1.23-.93,1.27-1.34.08-.79.13-1.59.22-2.38.05-.47.08-.98.27-1.4.48-1.03.62-2.14.85-3.23.06-.3.2-.62.39-.86.58-.76,1.17-1.52,1.82-2.22.77-.82,1.66-1.47,2.71-1.92.89-.38,1.74-.78,2.73-.79.48,0,.97-.06,1.39-.3.84-.48,1.79-.66,2.69-.97.75-.26,1.49-.58,2.19-.95.87-.46,1.79-.65,2.74-.79.31-.05.64-.08.93-.2.89-.39,1.82-.59,2.78-.65.96-.06,1.89-.23,2.79-.63.28-.13.61-.17.93-.2,2.71-.23,5.42-.37,8.13-.1.67.07,1.23.36,1.7.8.69.66,1.29,1.45,2.19,1.82,1.11.46,1.81,1.26,2.27,2.33.19.44.51.83.64,1.28.28.91.48,1.83.89,2.71.33.71.37,1.55.66,2.28.36.91.42,1.87.56,2.81.08.49.31.9.54,1.32.35.62.32,1.23-.1,1.78-.39.5-.82.99-1.31,1.39-1.59,1.34-3.05,2.81-4.5,4.3-.57.58-1.21,1.03-1.92,1.4-.8.41-2.76,1.8-3.53,2.39-.5.39-1.03.75-1.58,1.06-1.81,1.01-3.63,2-5.53,2.84-.74.33-1.41.74-2.05,1.21-.38.29-.77.62-1.25.66-1.16.09-2.03.92-3.15,1.1-1.12.18-2.03.92-3.1,1.24-.6.18-1.16.52-1.77.7-.91.27-1.78.72-2.71.91-.95.2-1.76.77-2.71.91-.81.12-1.52.47-2.24.81-.72.34-1.57.28-2.27.7-.55.33-1.19.43-1.81.6-.76.21-1.48.61-2.25.78-.78.18-1.52.44-2.26.74-1.03.42-2.17.48-3.19.97-.41.2-.93.17-1.41.22-.63.07-1.27.13-1.91.2-1.46.82-3.09.68-5.12.77Zm.06-19.92c-1.18-.06-2.46-.13-3.73-.17-.31-.01-.64.05-.93.15-.34.12-.46.4-.49.73-.06.68.45,1.19.55,1.8.2,1.26.3,2.54.95,3.68.12.79.24,1.57.37,2.36.06.36.61.82.98.93.31.09.61.16.94.14,1.11-.05,2.23-.11,3.35-.13,1.14-.02,2.15-.55,3.23-.8.61-.14,1.27-.11,1.9-.18.47-.05.98-.05,1.4-.24,1.04-.47,2.09-.74,3.23-.76.64,0,1.27-.08,1.91-.14.81-.07,1.45-.66,2.25-.75.81-.09,1.51-.46,2.26-.74.89-.33,1.84-.45,2.72-.87.71-.33,1.54-.39,2.27-.68.74-.3,1.49-.54,2.28-.7.78-.16,1.43-.69,2.24-.81,1.26-.2,2.33-1.05,3.63-1.13.87-.4,1.75-.77,2.6-1.2.57-.29,1.18-.47,1.77-.7,1.78-.69,3.51-1.51,5.1-2.57,1.07-.71,2.16-1.36,3.29-1.94.87-.44,1.65-.95,2.36-1.6.47-.43.93-.91,1.48-1.2,1.15-.61,2.06-1.49,2.97-2.38.68-.67,1.35-1.35,2-2.05.36-.38.31-.88.3-1.36,0-.16-.03-.32-.09-.47-.36-.88-.77-1.74-.91-2.71-.12-.8-.62-1.46-.96-2.18-.19-.4-.45-.45-.76-.17-.95.85-1.91,1.69-2.86,2.53-.36.32-.76.56-1.19.79-.98.53-2.03.94-2.92,1.61-.89.68-1.9,1.15-2.89,1.67-1.69.88-3.34,1.83-5.12,2.54-.59.23-1.13.58-1.67.93-.26.16-.52.4-.65.67-.47,1.01-.99,2-.96,3.17.01.47-.1.95-.17,1.42-.02.16-.03.33-.11.46-.15.27-.29.6-.53.76-.66.45-1.34.85-2.08,1.16-1.47.61-2.85,1.4-4.37,1.89-.67.22-1.66-.26-1.96-.96-.32-.76-.38-1.54-.17-2.33.12-.46.34-.88.4-1.36.06-.52-.4-1-.88-.82-1.04.39-2.1.7-3.18.91-.86.47-1.78.65-2.75.74-.47.05-.95.16-1.38.35-.74.32-1.5.51-2.3.59-.47.05-.94.15-1.37.38-.72.38-1.48.57-2.29.6-1.12.03-2.21.17-3.26.65-.42.19-.93.24-1.4.27-1.43.09-2.87.14-4.39.22Zm.62,18.09c.82.13,1.61.09,2.34-.3.72-.38,1.46-.63,2.28-.63.32,0,.64-.04.96-.05,1.29-.04,2.54-.22,3.7-.83,1.57-.26,2.93-1.29,4.59-1.24.49.01.93-.21,1.36-.41.87-.4,1.73-.81,2.59-1.22,1.6-.27,2.99-1.06,4.44-1.71.14-.07.3-.17.44-.17,1.34.04,2.4-.83,3.63-1.14,1.23-.31,2.33-1.01,3.61-1.2,1.15-.54,2.31-1.07,3.46-1.62,2.3-1.1,4.54-2.29,6.83-3.4,2-.97,3.99-2,5.6-3.6.11-.11.24-.22.39-.28,1.49-.66,2.66-1.74,3.78-2.88.68-.69,1.46-1.23,2.24-1.78.52-.36.98-.82,1.41-1.28.3-.33.69-.69.36-1.25-.16-.27-.23-.59-.34-.89-.36-.95-1.14-1.25-1.78-.69-.72.63-1.41,1.29-2.16,1.88-.75.59-1.62,1.03-2.33,1.67-1.2,1.07-2.57,1.88-3.94,2.68-.55.32-1.13.58-1.63.98-.63.5-1.34.84-2.06,1.18-1.58.75-3.08,1.67-4.81,2.07-1.15.53-2.31,1.07-3.46,1.6-1.45.2-2.63,1.11-4,1.53-.45.14-.9.33-1.37.4-.79.13-1.55.27-2.28.64-.7.36-1.49.56-2.21.9-.59.27-1.22.36-1.84.46-.32.05-.66.04-.94.18-1,.52-2.08.79-3.17,1-1.01.54-2.09.73-3.23.77-.64.02-1.27.06-1.87.32-.59.25-1.2.43-1.84.48-.95.07-1.91.15-2.86.24-.31.03-.64.09-.92.22-.89.41-1.84.52-2.79.57-1.43.08-2.86.16-4.3.24-.38.02-.86.7-.72,1.06.41,1.04.67,2.12.74,3.23.01.16.04.32.09.47.29.9,1.28,1.82,2.03,1.8Zm24.64-22.44c.05.78.06,1.57.17,2.35.05.36.37.55.64.47.76-.21,1.52-.43,2.26-.71.9-.35,1.66-.84,2-1.86.35-1.05.81-2.05.84-3.19.01-.63.18-1.25.28-1.87.66-1.15.68-2.42.75-3.69.03-.64.18-1.24.41-1.84.17-.44.33-.9.38-1.36.09-.78.11-1.58.15-2.37.03-.61-.74-1.11-1.36-.83-.87.39-1.76.69-2.67.97-.44.14-.7.54-.73,1.09-.03.63-.18,1.25-.27,1.88-.57.97-.76,2.07-1.01,3.14-.96,1.52-.68,3.41-1.51,4.96-.1.94-.21,1.88-.32,2.84Zm19.09-17.16c-1.51.09-2.78.15-4.04.26-.47.04-.95.15-1.37.34-.74.33-1.53.41-2.28.65-.27.09-.58.35-.66.61-.4,1.2-1.05,2.32-1.08,3.63-.01.64-.28,1.23-.53,1.81-.32.74-.43,1.52-.29,2.32.09.54.41.82.93.57.71-.34,1.45-.61,2.16-.98,1-.51,1.82-1.28,2.78-1.82,1.1-.62,2.29-1.08,3.36-1.76,1.07-.68,2.08-1.44,3.16-2.11.66-.41,1.24-.98,1.73-1.61.24-.31.3-.96.04-1.3-.21-.26-.5-.41-.82-.43-1.11-.08-2.21-.14-3.09-.19Zm-27.61,13.32c.02.32.04.64.08.95.02.16.06.31.09.47.06.34.66.79,1.05.83.81.07,1.58,0,2.33-.35.58-.26,1.18-.48,1.75-.77,1.22-.6,2.04-1.6,2.23-2.93.18-1.29.57-2.48,1.13-3.63.28-.57.56-1.15.79-1.74.11-.29.13-.62.17-.93.08-.6-.28-.98-.78-.79-.75.28-1.5.53-2.31.55-.82.02-1.53.36-2.24.75-1,.56-1.81,1.26-2.39,2.27-.48.83-.9,1.68-1.32,2.54-.44.9-.55,1.82-.56,2.78Z"/><path class="cls-1" d="m120.15,115.17c.79-.05,1.47.37,1.92,1.03.53.77.97,1.62,1.36,2.48.2.42.11.93,0,1.4-.07.32-.71.77-1.09.76-.48-.01-.94-.07-1.3-.42-.34-.33-.73-.63-.97-1.02-.42-.67-.76-1.38-1.08-2.1-.12-.27-.1-.61-.1-.93-.02-.65.55-1.21,1.27-1.19Z"/></g></g></svg>