<?xml version="1.0" encoding="UTF-8"?><svg id="Lavender" xmlns="http://www.w3.org/2000/svg" viewBox="0 0 500 500"><defs><style>.cls-1,.cls-2,.cls-3{stroke-width:0px;}.cls-2{fill:#9d5fdb;}.cls-3{fill:#fff;}</style></defs><g id="CIB24_Lavender_URead"><path class="cls-3" d="m407.72,388.28c-.02-.31-.05-.63-.04-.94,0-.18,0-.36.01-.54,0-.28.02-.56,0-.85-.01-.28-.03-.56-.1-.75-.66-1.75-1.5-3.54-3.09-4.76-.78-.29-1.37-.79-1.89-1.23-.28-.24-.55-.46-.82-.63l-.39-.25c-.46-.3-.9-.59-1.35-.81-.38-.18-.79-.33-1.23-.48-.23-.08-.46-.16-.68-.24l-.79-.29c-.75-.28-1.5-.56-2.25-.86-.94-.38-1.94-.6-2.99-.84-.51-.12-1.03-.23-1.54-.36-.17.02-.33.02-.5.02-1.07,0-2.02-.3-2.94-.6-.31-.1-.63-.2-.94-.29-.22-.06-.44-.12-.66-.19-.77-.22-1.5-.44-2.23-.45-1.07-.02-1.93-.5-2.68-.92l-.13-.07c-.51-.29-.81-.87-.87-1.32-.09-.62-.14-1.24-.2-1.86l-.04-.45c-.53-.95-.53-1.92-.52-2.78,0-.22,0-.43,0-.65,0-.23-.01-.47-.01-.71,0-.58,0-1.12-.13-1.58l-.18-.69c-.16-.59-.32-1.18-.44-1.78-.05-.23-.15-.45-.32-.67l-1.23-1.61h2.02c.11,0,.15,0,.16,0,.03,0,.1-.04.28-.21.21-.18.42-.41.64-.68l.34-.41.53.06c.06,0,.11,0,.17,0,.3,0,.53-.1.75-.32.95-.96,1.9-1.91,2.85-2.86,2.09-2.1,4.19-4.21,6.25-6.34.48-.5.92-1.05,1.39-1.63.44-.54.89-1.1,1.39-1.64l.32-.34c.44-.46.86-.91.99-1.11-.05-.12-.18-.35-.3-.55-.16-.29-.37-.64-.59-1.09-.11-.22-.23-.44-.35-.66-.23-.43-.47-.87-.66-1.32-.36-.83-.27-1.72.24-2.38.29-.38.61-.73.92-1.09.22-.25.45-.5.67-.79-.4-1.16-.84-2.32-1.29-3.46,0,0-.2-.09-.2-.09-.56-.29-.96-.73-1.18-1.31-.09-.24-.26-.55-.55-.63-.76-.22-1.27-.66-1.72-1.05-.12-.11-.25-.22-.38-.32-.09-.07-.27-.12-.45-.12-.19,0-.32.05-.37.08-.29.21-.56.48-.85.77-.56.56-1.19,1.18-2.11,1.53-.54,1.27-1.43,2.17-2.28,3.04-.2.2-.4.4-.59.61-.35.38-.71.75-1.07,1.11-1.06,1.09-2.06,2.11-2.86,3.32-.31.47-.72.86-1.07,1.19-.17.16-.34.33-.5.5-.5.55-1.03,1.08-1.55,1.61-1.09,1.1-2.11,2.13-2.96,3.33-.31.43-.71.7-1.07.93-.09.06-.19.12-.28.19-.25.18-.64.42-1.12.42-.29,0-.72-.09-1.13-.52-.86-.91-1.78-1.73-2.76-2.59l-.57-.5c-.43-.39-.49-1.04-.32-1.47.39-.97,1.38-1.62,2.46-1.62.27,0,.54.04.79.12.12.04.25.09.43.19.04.02.08.03.11.03.06,0,.19-.07.37-.26.56-.58.79-1.15.71-1.79-.02-.17-.02-.35-.02-.52,0-.1,0-.24,0-.26-.41-.94-.26-1.77-.13-2.5l.02-.13c.21-1.25-.22-2.21-1.33-2.96l-.16-.11-.11-.16c-.17-.26-.44-.51-.78-.74-.09-.06-.27-.12-.44-.12-.32,0-.68.06-1.12.2-.06.02-.17.08-.33.18l-.19.11-.22.02h-.17c-.6,0-1.05-.27-1.41-.54-.34-.26-.67-.45-.98-.57-.06-.02-.13-.04-.19-.06l-.15-.05-.26-.12-.26-.25c-.25-.23-.55-.33-.99-.34,0,0-.42-.01-.56-.01-.49,0-.78.05-1.01.19-.72.43-1.47.65-2.23.65-.15,0-.3,0-.45-.03-.05,0-.1,0-.15,0-.45,0-.85.25-1.47.73l-.23.16-.28.02c-.11,0-.21.01-.32.01-.2,0-.39-.01-.58-.04l-.28-.04-.22-.18c-.44-.36-.88-.73-1.31-1.1-.2-.18-.44-.28-.71-.33l-.55-.08-.22-.52c-.17-.4-.17-.83-.02-1.26.49-1.31.94-2.6,1.2-3.96.17-.9.54-1.71.93-2.58l.08-.17c.16-.35.31-.68.41-1.03.63-2.09,1.22-3.98,1.99-5.84.3-.74.59-1.46.69-2.15.15-1.05.49-2.01.82-2.94.23-.67.46-1.3.6-1.95.38-1.65.96-3.23,1.52-4.75l.18-.48c.23-.62.48-1.24.74-1.85.39-.94.76-1.84,1.04-2.76.46-1.52,1.08-3.02,1.85-4.47.87-1.65,1.27-3.29,1.23-5.01-.03-1.09-.02-2.18-.01-3.28v-.43s0-2.67,0-2.67c0-1.48,0-2.96,0-4.44,0-.1-.16-.28-.31-.43-.05.02-.25.12-.28.14l-.67.68c-.71.72-1.38,1.4-1.97,2.14-.22.28-.45.56-.68.84-.58.72-1.19,1.46-1.71,2.21-1.25,1.8-2.61,3.72-4.12,5.54-.41.49-.73,1.09-1.07,1.72,0,.02.02.09.02.09,0,0,0,.01.02.03.62.83.35,1.49.01,1.89-.51.62-.85,1.06-.87,1.61v.24s-.12.21-.12.21c-.28.51-.41,1.11-.55,1.76-.14.63-.28,1.28-.57,1.93-.08.19-.17.38-.26.56-.21.45-.42.88-.56,1.31-.09.28-.15.59-.2.92-.08.48-.18,1.03-.42,1.59-.13.3-.19.69-.25,1.1-.06.4-.12.82-.26,1.24-.18.55-.42,1.06-.65,1.55-.13.27-.26.55-.35.83,0,.19-.02.5-.2.81-.31.55-.44,1.21-.58,1.91-.16.8-.32,1.62-.75,2.42l-3.01,9.16c-.09.27-.2.64-.5.95-.34.35-.84.56-1.35.56-.38-.01-.77-.17-1.2-.47-.64-.47-1.39-.86-2.39-1.24l-.18.31c-.41.71-.88,1.52-1.74,2.18-.29.22-.73.56-1.32.56-.19,0-.37-.03-.55-.1-1.02-.39-2.12-.44-3.28-.5l-.76-.04c-.34,0-.66.1-1.06.32-.71.39-1.45.59-2.2.59-.15,0-.3,0-.45-.02l-.18-.02-.16-.08c-.4-.2-.79-.39-1.29-.57l-.3.04-.27-.14c-.92-.47-1.91-.95-3.03-1.45-.14-.06-.34-.1-.6-.1-.05,0-.09,0-.12.01l-.14.29c-.27.55-.51,1.03-.52,1.53,0,.29-.03.59-.06.88-.03.29-.05.58-.05.88.04,1.66-.6,3.2-1.89,4.57l-.4.41c-.58.6-1.13,1.17-1.48,1.85-.29.57-.9,1.25-2.17,1.25-.1,0-.2,0-.31-.01h-.12c-.24,0-.44.05-.62.17-.39.26-.78.52-1.17.78l-.61.41c-.27.18-.69.42-1.2.42-.75,0-1.26-.49-1.68-.99-.28-.33-.57-.67-.81-1.08l-1.73-2.8,2.92,1.34.2-.31c.54-.85,1.09-1.72,1.87-2.48-.79-1.86.27-2.82.97-3.22,0,0,.05-.06.09-.26.11-.47.14-.94.08-1.43-.13-1.02.28-1.83.59-2.34.04-.06.08-.12-.04-.31-.1-.17-.38-.62-.24-1.17.07-.24.24-.58.74-.85.05-.03.12-.07.18-.1.09-.96.12-1.8.1-2.57-.02-.75.23-1.35.45-1.88.15-.36.28-.67.29-.96,0-.12,0-.25,0-.37,0-.26,0-.52.04-.77l.02-.16c.04-.37.09-.87.39-1.31.17-.25.23-.6.31-1.01.09-.51.19-1.09.52-1.64.02-.04.04-.19,0-.4-.05-.31-.14-.64-.23-.99-.06-.22-.12-.44-.17-.66-.18-.77.11-1.39.31-1.8.08-.17.17-.37.17-.46v-.28c0-.55,0-1.02-.2-1.38-.48-.89-.08-1.52.19-1.81.03-.03.19-.24.19-.24.09-.1.19-.21.28-.31.02-.02.05-.05.08-.08-.1-.28-.21-.72,0-1.2-.02-.05-.05-.13-.07-.19-.13-.31-.32-.78-.19-1.35.08-.33.16-.67.25-1,.06-.25.13-.49.19-.74.09-.36.04-.68-.14-1-.42-.74-.43-1.57-.02-2.33.19-.35.23-.79.29-1.3.07-.62.14-1.32.5-2.01-.02-.06-.05-.17-.11-.31-.62-1.49-.55-3.05.19-4.62.09-.19.19-.37.29-.56.17-.32.33-.62.4-.88.08-.32.07-.71.07-1.13v-.41c0-1.07,0-2.14-.04-3.24-.03-1.03-.06-2.21.52-3.28.04-.08.04-.21.02-.49-.03-.4-.07-.94.22-1.52.12-.24.14-.62.15-1.03l.04-2.62,1.62,1.9c.26-.08.53-.17.8-.25.79-.24,1.54-.47,2.22-.79,2.44-1.15,4.79-2.35,7-3.55,1.66-.9,3.55-2,5-3.54l.13-.15c.24-.26.53-.59.96-.8.85-.4,1.52-1.09,2.22-1.82.35-.36.7-.72,1.07-1.05.58-.51,1.02-1.19,1.48-1.9.3-.47.62-.95.99-1.41.12-.15.22-.49.3-.79l.04-.16c-.62-.84-1.07-1.77-1.38-2.83-.59-.71-.92-1.52-1.21-2.24-.13-.32-.26-.64-.42-.95-.33-.66-.63-1.33-.94-2.01-.73-1.62-1.42-3.15-2.47-4.47-.22-.28-.35-.59-.45-.83-.04-.1-.08-.19-.12-.28l-.73-1.38c-.38-.71-.75-1.41-1.12-2.12-.2-.39-.43-.76-.66-1.14-.51-.83-1.03-1.68-1.31-2.71-1.06-1.5-1.87-3.12-2.66-4.7-.31-.62-.62-1.25-.95-1.86l-.09-.17c-.3-.57-.59-1.11-.92-1.6-1.57-2.28-3-4.71-4.24-7.24-.2-.41-.4-.81-.63-1.21-.42-.71-.84-1.42-1.29-2.1-.2-.31-.35-.62-.5-.92-.2-.42-.38-.78-.65-1.03-.58-.53-.73-1.18-.86-1.71-.07-.3-.13-.55-.25-.71-.22-.29-.38-.59-.54-.88-.18-.33-.33-.61-.54-.82-1.07-1.1-2.01-2.4-2.87-3.98-.53-.97-1.2-1.91-1.85-2.82l-.25-.36c-.47-.66-.97-1.3-1.47-1.94-1.13-1.44-2.3-2.93-3.12-4.69-.14-.31-.45-.62-.67-.83-1.09-1.04-1.89-2.26-2.67-3.44l-.29-.45c-.95-1.44-1.83-2.54-2.78-3.47-.61-.59-1.29-1.27-1.8-2.07-.41-.66-.88-1.31-1.34-1.95-.57-.8-1.17-1.63-1.69-2.52-.31-.53-.72-1.02-1.14-1.54-.58-.7-1.18-1.43-1.61-2.33-.02-.04-.13-.15-.2-.22l-.07-.08c-.23-.24-.47-.47-.71-.7-.56-.54-1.13-1.09-1.61-1.76l-.19-.27c-.51-.72-.95-1.35-1.64-1.67-.42-.19-.62-.56-.74-.78-.02-.04-.04-.07-.05-.09-.35-.46-.7-.92-1.04-1.39-1.1-1.47-2.13-2.86-3.36-4.12l-.13-.14c-.32-.33-.69-.7-.96-1.17-.52-.93-1.27-1.7-2.06-2.51-.19-.19-1.15-1.19-1.15-1.19-.9-.93-1.83-1.88-2.57-3.07-.26-.41-.65-.79-1.06-1.19-.27-.26-.54-.53-.79-.8-.41-.47-.94-.85-1.51-1.25-.5-.35-1.01-.72-1.49-1.18-.64-.62-1.17-1.29-1.67-1.95-.3-.39-.6-.77-.92-1.14-.07-.08-.16-.16-.24-.24-.08-.07-.15-.14-.23-.22l-.51-.51c-.59-.6-1.19-1.2-1.77-1.81-.5-.52-.93-.84-1.41-1.05-1.25-.55-2.22-1.23-2.99-2.06-.72-.78-1.64-1.42-2.9-2.01l-.11-.05c-.35-.16-.78-.36-1.12-.73-.49-.54-1.12-.95-1.79-1.39-.74-.49-1.5-.99-2.16-1.71-.17-.19-.46-.36-.75-.55l-.2-.12c-.35-.22-.7-.43-1.06-.64-.68-.4-1.38-.82-2.05-1.31-.91-.67-1.95-1.12-2.95-1.55-.27-.12-.55-.23-.82-.35-1.41-.59-2.88-1.21-4.17-2.26-.46-.37-1.01-.68-1.56-.86-.46-.15-.93-.27-1.39-.4-.99-.26-2-.53-2.98-1.03l-.58-.05c-.7-.05-1.4-.11-2.12-.17-.3-.03-.7-.06-1.09-.29-.19-.11-.32-.13-.41-.13-.17,0-.39.06-.68.2-.74.35-1.5.39-2.17.43-.62.04-1.16.07-1.6.32-.36.21-.74.21-.99.21,0,0-.11,0-.15,0-.09,0-.18.01-.27.01-.11,0-.22,0-.33-.03-.19-.03-.37-.05-.55-.05-.81,0-1.47.32-2.07,1.02-.11.13-.22.21-.31.27-.54.56-1.11.68-1.5.68-.16,0-.33-.02-.49-.06-.49.18-.81.33-1.01.6-.13.17-.26.34-.39.51-.3.37-.57.72-.73,1.07-.38.84-1.02,1.29-1.53,1.64-.17.12-.35.24-.51.38-.15.13-.29.33-.38.52-.33.73-.81,1.37-1.49,2.03-.32.31-.5.71-.56,1.31l-.03.26c-.07.68-.15,1.45-.47,2.15-.18.39-.25.86-.32,1.36-.08.53-.16,1.14-.41,1.74-.27.66-.27,1.45-.27,2.28,0,.32,0,.63-.01.95,0,.19-.02.37-.04.56-.02.26-.05.52-.03.78.05,1.01.04,2.02.02,3-.03,2.22-.07,4.33.64,6.35l.06.18v.2c-.06,1.05.37,2.05.83,3.11l.1.23c.15.35.27.71.38,1.08.07.22.14.44.22.66.11.31.22.62.33.93.29.81.56,1.58.92,2.3.35.7.6,1.41.85,2.1.23.66.46,1.29.75,1.88.63,1.26,1.38,2.74,2.06,4.24.29.65.56,1.32.83,2.07.26.73.44,1.47.62,2.19.14.55.27,1.1.44,1.64.15.46.07.95-.21,1.33-.29.4-.75.63-1.27.63h-1.66c-.91.02-1.82.02-2.73.02-.83,0-1.65,0-2.47-.02-.19,0-1.14,0-1.14,0-1.06,0-2.1-.03-3.16-.34-.17.03-.34.04-.52.04-.45,0-.88-.08-1.26-.16-.31-.06-.61-.12-.86-.12-.17,0-.3.02-.42.08-.27.12-.56.18-.88.18-.19,0-.38-.02-.56-.05-.09-.01-.19-.03-.28-.04-.33.15-.68.22-1.04.22-.44,0-.83-.11-1.17-.2-.15-.04-.3-.09-.46-.11-.69-.12-1.4-.14-2-.15-2.4-.03-4.79-.04-7.19-.05h-.46c-.08,0-.13,0-.15,0-.32.16-.64.31-.96.46-1.04.5-2.03.97-2.79,1.73-1.19,1.2-2.41,2.37-3.62,3.54-.37.35-.69.78-1.03,1.23-.48.64-.98,1.31-1.68,1.86-.58,1.38-1.5,2.48-2.39,3.54l-.26.31c-.09.1-.17.45-.2.58-.04.15-.04.31-.05.47-.01.17-.02.33-.05.5-.07.5-.05,1.04-.03,1.61.03.93.07,1.97-.3,3.01.41,1.23.36,2.42.32,3.58-.02.41-.03.83-.02,1.24,0,.18,0,.36,0,.54,0,.17,0,.35,0,.52.02.45.12.78.35,1.04.24.28.46.58.71.97.4.61.42,1.36.06,2.03-.15.27-.32.5-.5.73-.73.94-1.61,1.42-2.62,1.42-.45,0-.92-.1-1.4-.29-.1-.04-.3-.12-.41-.15-.3.09-.6.14-.93.14s-.65-.05-.96-.09l-.37-.05c-.45-.06-.87-.13-1.27-.13-.45,0-.8.08-1.11.25-.23.13-.48.19-.74.19-.35,0-.63-.12-.85-.22-.37-.18-.83-.19-1.36-.2-.26,0-.51-.01-.77-.04-.31-.03-.62-.05-.93-.07-.54-.04-1.08-.08-1.61-.14-.5-.06-1.15-.45-1.36-1.03-.15-.39-.43-.68-1-.99-.27-.15-.54-.28-.82-.42-.37-.19-.75-.38-1.11-.58-.81-.46-1.42-1.16-1.81-2.09l-.04-.1c-.24-.57-.51-1.22-.51-2v-3.1c-.01-1.97-.02-3.93-.01-5.9.01-2.29.03-4.57.05-6.86.02-2.15.04-4.31.05-6.46v-.68c.03-4.61.05-9.39.02-14.08,0-.66.09-1.27.18-1.86.03-.17.05-.34.08-.51-.3-.96-.27-1.91-.25-2.75,0-.3.02-.6.01-.9,0-.24-.02-.47-.03-.71-.06-.98-.12-2.08.4-3.19-.46-1.24-.44-2.48-.44-3.57.02-2.52.02-5.04.02-7.55,0-2.12-.02-4.24-.03-6.36-.01-2.92-.03-5.84-.03-8.77,0-2,.02-4.18.08-6.86.02-.84.51-1.61,1.29-2.02.8-.42,1.62-.78,2.45-1.05.43-.14.87-.21,1.25-.26.21-.03.41-.06.62-.1.07-.01.14-.02.23-.03h.06s7.96-.3,7.96-.3c0,0,.87,0,1.21,0,1.04,0,2.26.03,3.48.27.34-.11.68-.17,1.04-.17s.75.06,1.15.19c.8-.23,1.59-.25,2.27-.25h.73c.37,0,.76,0,1.13-.05.14-.02.28-.03.41-.03.45,0,.86.09,1.22.17.29.06.56.12.8.12.1,0,.19-.01.28-.03.69-.17,1.38-.19,2.02-.19h.75s.09,0,.14,0l100.23-.98c.37.11.74.23,1.11.34,1.49.43,11.57,1.54,10.58-1.19-.2-.56-.7-.97-1.19-1.31-1.4-.97-2.99-1.68-4.18-2.9-1.19-1.21-1.88-3.17-1-4.62.13-.21.28-.4.34-.63.26-.94-1.02-1.52-1.99-1.63-1.36-.15-2.75-.21-4.13-.15l-.05-.72h-93.85l-.34.69c-3.92-.15-7.84-.31-11.77-.46-6.04-.24-12.14-.47-18.12.35-.24-.24-.52-.45-.79-.66-1.06-.81-2.12-1.62-3.17-2.42-1.22-.93-2.49-1.93-3.03-3.36-.64-1.69-.11-3.57-.19-5.37-.06-1.44-.5-2.85-.54-4.29-.07-2.86,1.46-5.61,1.28-8.47-.21-3.23-2.56-5.99-2.94-9.21-.09-.79-.07-1.61-.34-2.36-.89-2.41-4.1-2.74-6.67-2.66-1.52.05-3.35.3-3.96,1.69-.22.51-.23,1.08-.23,1.63,0,4.44-.02,8.88-.03,13.31,0,1.63,0,3.27.3,4.86.2,1.05.53,2.16.15,3.16-.31.81-1.06,1.42-1.26,2.27-.24,1.04.42,2.05.8,3.06.6,1.59.51,3.34.41,5.04-.18,3.3-.3,6.68.42,9.87-.46.76-.83,1.54-.99,2.39-.04.23-.07.47-.08.7l-.05.32s-.02,2.16-.02,2.16c0,2.37,0,4.75.01,7.12.02,3.69.03,7.5-.02,11.26,0,.52.02,1.04.04,1.57.07,1.57.14,3.2-.49,4.79,0,.06.07.24.12.36.11.27.24.62.26,1.02l.03.83c.09,2.13.18,4.34-.2,6.55,0,0-.04.22-.05.25.35.85.35,1.69.34,2.38v4.28c0,2.29-.01,4.59-.02,6.88,0,.51-.03,1.02-.07,1.54l-.06.98-.19.25c-.04.05-.02.2.05.52.1.43.23,1.03-.03,1.66-.37.89-.31,1.85-.2,2.71.1.74.19,1.5.02,2.38-.12.59-.11,1.24-.1,1.92,0,.26,0,.51,0,.76,0,.39.01.79.03,1.18v.3c.31.58.24,1.18.19,1.59-.02.14-.05.39-.02.45l.18.22.07.49c.12.82.26,1.85-.3,2.87-.07.12-.08.22.02.41.33.61.2,1.19.12,1.53-.02.08-.05.21-.06.21.29.59.32,1.22.34,1.78l.02.35c.04.57.03,1.13.03,1.68l-.03,2.55c-.02,1.36-.03,2.72-.04,4.09,0,.57-.18,1.05-.32,1.44-.06.17-.13.33-.17.51-.06.25-.06.57-.06.91v.31c0,.28,0,.55,0,.83.01.58.03,1.18-.05,1.8-.02.18.04.42.1.69.12.5.29,1.18.03,1.96-.11.32-.11.74-.11,1.19,0,.36,0,.73-.06,1.12-.05.39.04.82.15,1.31.12.57.26,1.2.18,1.9.37.89.16,1.58-.1,2.02-.17.28-.17.63-.18,1.23,0,1.48-.02,2.95-.04,4.43-.01,1.16-.03,2.33-.04,3.49-.02,2.88-.03,5.76-.02,8.63,0,1.42.02,2.83.03,4.25.03,2.62.06,5.34.01,8.02l-.05,2.68c-.07,3.48-.14,7.07-.05,10.6.01.49,0,1.12-.2,1.79-.13.42-.14.5-.08.65.43,1.11.44,2.32.02,3.8-.04.14-.09.28-.14.42-.05.14-.11.31-.11.38-.02.67-.01,1.35,0,2.02v.58c.24.53.2,1.05.17,1.44-.01.18-.03.4,0,.48.45,1.06.45,2.01,0,2.92-.21.42-.24.84-.08,1.32.17.51.17.99.18,1.41,0,.36,0,.67.11.91.23.54.17,1.12.08,1.62-.04.25-.12.49-.2.73-.06.19-.13.38-.13.5,0,.07.06.25.1.38.09.27.2.61.2.99,0,.17,0,.34.02.51.03.74.07,1.57-.32,2.36,0,.04.06.18.09.24.36.84.17,1.5-.06,1.92-.16.29-.32.58-.3.76.04.46.04.93.04,1.39,0,.95,0,1.77.37,2.51.24.48.24.98.25,1.49,0,.59,0,1.17,0,1.76,0,.85,0,1.7.03,2.54.05,1.57-.25,3.14-.94,4.93-.21.54-.65.86-1.18.86-.33,0-.61-.13-.82-.25-.18-.1-.41-.17-.63-.2-.09-.01-.18-.02-.27-.02-.55,0-.88.2-1.12.68-.33.65-.61,1.25-.82,1.85-.24.69-.46,1.39-.69,2.09-.29.9-.57,1.79-.9,2.68-.27.74-.52,1.55-.51,2.45,0,.69-.03,1.37-.07,2.06-.04.78-.08,1.51-.06,2.24.03,1.14-.15,2.22-.32,3.26-.06.38-.13.77-.18,1.16-.12.85-.09,1.74-.07,2.68l.02.77c0,.27,0,.55,0,.82,0,1.09-.02,2.13.38,3.06.22.52.22,1.08.19,1.51-.1,1.73.28,3.38.78,5.36.17.66.32,1.32.47,1.99.32,1.45.63,2.82,1.14,4.13.29.76.56,1.54.82,2.32.5,1.5.98,2.92,1.69,4.25l.05.1.03.1c.7,2.47,1.99,4.76,3.28,6.86l.71,1.17c.16.27.34.54.5.81-.03.08-.07.15-.1.23-.8,1.91-1.17,3.98-1.53,6.02-.24,1.36-.48,2.74-.42,4.12.04.88.23,1.77.57,2.58-.13,1.08-.06,2.17-.14,3.26-.06.89-.22,1.76-.35,2.64-.67,4.72-.26,9.51.14,14.25.06.73.15,1.52.66,2.05.72.75,1.96.65,2.85,1.18.44.26.77.67,1.19.96,1.56,1.11,3.76.44,5.38-.57.99-.62,1.91-1.38,2.64-2.28.01.39.02.79.03,1.18v.2c.04-.07.24-.46.24-.46l1.32-1.46.85-15.06c.58,1.08,2.45,1.37,4.87,1.85,1.14.22,5.26-6.28,9.07-11.23,2.51-3.27,5.26-5.59,5.57-5.82.56-.43,1.08-.9,1.59-1.38.25.14.65-.19.82-.51.13-.24.26-.49.39-.73.83-.91,1.63-1.86,2.42-2.82.12,0,.25,0,.37,0,1.62.05,3.24.2,4.84.46.31.61.41,1.28.4,1.97-.17.18-.33.36-.5.55-.44.48-.89.97-1.21,1.53-.38.64-.59,1.37-.86,2.06-.35.89-.8,1.75-1.07,2.67-.41,1.37-.4,2.81-.3,4.24-.23.4-.47.79-.73,1.18-.39.59-.96,1.24-1.66,1.12-.52-.09-.86-.57-1.23-.95-.36-.38-.96-.7-1.4-.4.33,7.67.57,15.45.14,23.12.03.03.05.06.07.07l.16.03c.1.02.2.05.33.05.44,0,.89-.02,1.33-.06.09,0,.15-.01.14-.2,0-3.24-.01-6.47-.04-9.71,0-.7-.05-1.23-.27-1.69-.44-.93-.42-1.95.06-2.94.1-.21.04-.43-.14-.97-.22-.62.17-1.14.38-1.42l.06-.09c.23-.32.55-.45.74-.53.17-.07.35-.11.52-.11.5,0,1.13.31,1.29,1.19.04.22.06.45.09.68.03.33.06.64.15.83.67,1.41,1.26,2.91,1.76,4.46.21.67.48,1.32.76,2,.36.87.74,1.78.99,2.74.05.2.11.28.12.29l.58.75c.89,1.14,1.8,2.33,2.74,3.45.42.51.91.97,1.43,1.46l.53.51c.66.64,1.03,1.42,1.35,2.11l.15.32c.21.43.28,1.13-.04,1.65-.26.42-.4.93-.55,1.48-.13.47-.27.96-.49,1.45-.12.26-.14.6-.06.94l.29,1.21-1.83.03c-.43,0-.85.11-1.31.33-.68.32-1.28.72-1.84,1.22-2.57,2.29-5.43,4.23-8.51,5.77-2.36,1.18-4.84,2.29-7.59,3.39-.88.35-1.77.57-2.63.77-.77.18-1.5.36-2.19.62l-.22.08-.23-.02c-.09,0-.18-.01-.27-.01-.74,0-1.47.27-2.25.55-.3.11-.6.22-.9.31l-.83.26c-1.43.46-2.92.93-4.47,1.2-.31.05-.52.34-.63.51l-.22.39-.35.17c-.43.21-.96.46-1.71.46s-1.54.19-2.36.38c-.89.21-1.82.44-2.87.44,0,0-.15.04-.4.36-.18.24-.34.45-.46.69.12.21.27.43.44.66l.18.25c1.51,2.19,3.24,3.93,5.27,5.3l.67.44c1.11.73,2.25,1.48,3.21,2.55.19.21.54.41.91.62l.43.24c.8.45,1.55.87,2.34,1.22.57.25,1.12.53,1.68.81,1.33.68,2.58,1.31,3.99,1.44.52.05.94.3,1.28.51l.12.08c.62.37,1.36.54,2.14.72.58.13,1.19.27,1.79.5.35.14.75.15,1.22.16.34,0,.68.02,1.06.07.12.02.24.03.36.04.4.04.9.08,1.36.33.56.3,1.18.44,1.97.44.1,0,.4,0,.4,0,.61,0,1.1.19,1.54.36l.12.05c.3.12.68.19,1.11.23.21.02.42.02.65.02,0,0,.9-.01,1.13-.01.1,0,.21,0,.34,0,.37.04.78.06,1.21.06.88,0,1.69-.1,2.39-.31,1.3-.38,2.58-.46,3.78-.5,1.52-.06,2.8-.46,3.82-1.2.47-.35.96-.51,1.5-.51.24,0,.47.03.68.08.27-.38.77-.89,1.55-.89.16,0,.32.02.49.06.16-.05.33-.11.49-.16.63-.21,1.29-.43,1.97-.59.56-.13,1.13-.22,1.67-.3.39-.06.79-.12,1.18-.2.05-.01.18-.07.27-.12.19-.09.43-.21.72-.27.18-.04.37-.07.55-.1.5-.08.82-.14,1.04-.33l.51-.43.59.31s.09.03.14.03c.14,0,.35-.06.57-.13l.27-.08c.39-.11.81-.16,1.23-.16.2,0,.4.01.59.04.38.05.79.07,1.29.07.43,0,.86-.02,1.29-.03.46-.02.91-.04,1.37-.04.88,0,2.02.06,3.19.49.5-.1,1.79-.48,2-.57.65-.89.82-1.64.55-2.44-.04-.13-.11-.25-.18-.37-.1-.18-.2-.37-.27-.56l-.13-.33c-.33-.81-.69-1.72-.63-2.79-.01-.04-.03-.07-.04-.11-.04-.09-.07-.18-.1-.27-.08-.22-.25-.25-.32-.25-.06,0-.12.02-.18.05l-.02.02-1.63,1.1v-3.24s1.28-.39,1.45-.44c0-.05,0-.1,0-.15,0-.27,0-.53-.06-.71-.46-1.65-1-3.56-1.63-5.43-.29-.87-.45-1.61-.49-2.34l-.02-.28c-.03-.58-.07-1.14-.22-1.61-.22-.68-.41-1.27-.54-1.45l-.58-.77.68-.55s.01-.1.01-.2v-1.01c-.02-1.47-.04-2.94-.02-4.41.01-.89.61-1.7,1.49-2.01.25-.09.49-.19.74-.28.92-.36,1.88-.74,2.96-.8.36-.02.72-.17,1.14-.34.45-.18.96-.39,1.55-.46.1-.01.31-.12.47-.21.19-.1.38-.2.57-.28,1.26-.51,2.3-.95,3.13-1.72.4-.37.91-.49,1.17-.53.43-.07.84-.29,1.4-.76.14-.11.27-.23.4-.35.47-.42,1.01-.89,1.69-1.22.61-.58,1.28-1.01,1.94-1.42.79-.5,1.53-.97,2.06-1.64l.17-.22.27-.1c.33-.12.55-.33.76-.71.42-.75,1.03-1.32,1.79-1.64.03-.01.07-.05.09-.07.33-.5.63-1.01.94-1.51l.54-.88.33-.12c.25-.09.41-.34.67-.77.22-.38.48-.81.9-1.16.82-.68,1.43-1.57,2.07-2.51.5-.73,1.02-1.48,1.65-2.16.12-.13.16-.45.1-.89-.03-.19-.17-.46-.28-.68-.22-.43-.27-.83-.14-1.2.11-.33.35-.6.69-.76.28-.13.6-.27.97-.27.16,0,.32.03.46.08.7.26,1.43.43,2.2.61.51.12,1.02.24,1.52.39.46.13.92.3,1.37.47.77.28,1.49.55,2.22.63.68.07,1.29.29,1.83.49.55.2,1.06.39,1.55.39.07,0,.14,0,.22-.01l.33-.04.29.17c.32.19.6.28.85.28.18,0,.36-.05.55-.15.3-.16.61-.19.82-.19.23,0,.56.04.87.23.5.31,1.11.31,1.81.31.16,0,.71,0,.71,0,.36,0,.73.02,1.09.02.26,0,.52,0,.77-.02.18,0,.37-.01.55-.01,1.15,0,2.15.19,3.06.59.01,0,.07.02.16.02.08,0,.14-.01.17-.02.54-.19,1.12-.45,1.8-.83.03-.02.12-.07.06-.24l-.52-1.36h2.03c1.03,0,2.07,0,3.1-.03h.58s.3.48.3.48c.36.6.38,1.26.06,1.87-.45.85-.55,1.83-.54,3.03v.17c0,1.16,0,2.25.56,3.14l.15.24v.29c0,.59.36,1,.99,1.67l.09.1c.63.68,1.17.99,1.84,1.08.59.08,1.13.29,1.6.48.2.08.41.16.62.23.64.21,1.1.61,1.38,1.2.07.15.13.29.2.44.17.38.33.74.52,1.03.34.5.76.97,1.14,1.39.67-.16,1.37-.37,2.09-.6.04-.03.14-.12.23-.21,1.15-1.14,2.65-1.74,4.58-1.83.38-.02.76-.03,1.15-.04,1.49-.04,2.9-.07,4.21-.59.39-.15.77-.16,1.05-.17h.31s.93,0,.93,0c.27,0,.54,0,.81-.04.35-.04.73-.15,1.12-.26.29-.08.57-.16.86-.23.18-.04.35-.06.53-.06.83,0,1.53.46,1.82,1.19.61,1.5,1.35,2.57,2.35,3.36.08.06.33.26.4.28l.54.05c.62.06,1.21.12,1.8.12.33,0,.64-.02.92-.06l-.08-.76,1.29-.11c.64-.05,1.28-.11,1.93-.16l1.22-.08-.16,1.22c-.01.1.06.21.11.27,1.28,1.54,3.02,2.37,4.73,3.01.31-.16.64-.24.97-.24.76,0,1.36.41,1.79.71.66.45,1.26.97,1.84,1.46l.21.18c.11.09.21.14.28.14.06,0,.15-.03.25-.08.24-.12.49-.19.75-.19.41,0,.73.16.94.26.04.02.09.04.13.06.14.05.28.08.4.08.16,0,.31-.04.46-.14l.27-.16c.67-.39,1.25-.73,1.55-1.27.32-.59.78-.99,1.18-1.34.31-.27.58-.51.74-.79.29-.51.76-.82,1.14-1.06.15-.1.31-.19.44-.31l1.39-1.28.64,1.02c.14.22.25.44.37.67.06.12.12.23.18.34.16.28.38.56.67.86l.34.42-.04.28c.07.09.17.22.17.23l.33.14c1.07.45,2.09.88,3.16.88h.19c.12-.01.24-.01.36-.01.31,0,.62.02.92.03.19.01.39.02.58.03,1.09.03,1.97.58,2.36,1.48.44,1.02,1.08,1.51,2.19,1.68.77.12,1.46.4,2.14.67.25.1.51.2.76.29.17.06.33.09.51.09.19,0,.4-.03.62-.1.27-.08.54-.15.81-.21.4-.09.78-.18,1.06-.33.81-.43,1.69-.64,2.7-.64.77,0,1.5.12,2.17.25.98.19,1.92.5,2.83.81.56.19,1.13.38,1.7.54.67.18,1.15.78,1.38,1.27.25.56.28,1.11.06,1.57-.32.67-.47,1.42-.46,2.34,0,.72-.01,1.49-.31,2.17-.35.8-.37,1.68-.4,2.9,0,.37-.02.77-.04,1.23-.07.85.05,2.23.61,3.55.14.34.17.67.18.93,0,.1,0,.2.03.29.01.06.03.1.04.13.23.17.45.34.67.52.75.59,1.46,1.14,2.27,1.46,1.83.71,3.5,1.05,5.11,1.05.7,0,1.4-.07,2.08-.2.08-.01.24-.1.36-.23.3-.32.57-.69.86-1.07.14-.19.28-.37.43-.56.82-1.04,1.24-2.14,1.27-3.37l.02-.55c.03-.87.05-1.77.04-2.64-.04-1.92-.08-4.08.56-6.2-.02-1.18.36-2.23.7-3.16.14-.38.27-.75.38-1.13.21-.74.93-1.25,1.75-1.25h.15c.08.01.16.02.24.02.43,0,.85-.1,1.35-.32.41-.18.84-.32,1.27-.46.59-.19,1.14-.37,1.59-.65.73-.46,1.48-.58,2.14-.69.4-.07.78-.13,1.11-.26,1.95-.79,4.03-1.56,6.77-2.49,1.3-.44,2.45-.92,3.58-1.48.64-.32,1.37-.68,2.23-.82.12-.02.31-.11.42-.22l.23-.21c.62-.57,1.21-1.11,1.67-1.71.77-1.01,1.37-1.94,1.82-2.85.18-.37.14-.88.1-1.48Zm-245.3-12.23s.02-.07.03-.11c.02,0,.04,0,.07,0l-.1.11Zm89.34-152.18l-.77-.16c-.06-.01-.12-.02-.18-.02-.11,0-.19.02-.21.02,0,0,0,0,0,0l-.12.1c-.07.06-.19.15-.21.18-.52.74-1.12,1.2-1.88,1.44,0,0-.12.06-.33.34l-.07.09c-.36.48-.72.97-1.27,1.41-.19.16-.38.41-.58.68-.21.29-.44.61-.75.9-.85.81-1.38,1.83-1.94,2.98-.63,1.29-1.2,2.66-1.76,4.19-.11.3-.15.65-.2,1.01-.06.44-.13.95-.32,1.45-.2.52-.44,1.01-.67,1.49-.14.28-.27.56-.4.84-.05.11-.08.25-.09.37-.07.92-.3,1.77-.53,2.59-.19.69-.36,1.34-.44,2-.1.81-.25,1.63-.4,2.41-.09.5-.19,1.01-.27,1.51l-.03.21-.12.18c-.36.55-.4,1.22-.45,2.01-.01.22-.02.44-.04.66,0,.11-.01.21-.02.33-.02.45-.03,1.01-.34,1.51-.19.31-.22.73-.26,1.21-.05.58-.1,1.23-.43,1.86-.01.06.01.25.03.37.05.34.11.85-.09,1.37.54.3.85.74,1.04,1.07l.39.66-.54.55s-.08.09-.13.15l-.53.63-.72-.4c-.14-.08-.2-.1-.2-.1-.07,0-.14,0-.21,0-.29,0-.57.04-.79.12-.7.26-1.46.52-2.34.6-.24.02-.48.03-.73.03-.54.01-1,.02-1.37.21-.73.38-1.46.43-2.11.47-.34.02-.66.04-.93.11l-.23.05c-.11.02-.23.05-.29.07-.66.29-1.31.42-1.95.56-.64.13-1.25.26-1.76.53-.27.14-.58.22-.9.22-1.06,0-1.96-.75-2-1.68-.02-.38-.18-.76-.36-1.21-.19-.47-.41-.99-.48-1.6l-1.85-2.78c-.07-.08-.17-.19-.26-.36-.68-1.27-1.46-2.29-2.4-3.09-.48-.41-.73-.89-.96-1.31-.07-.13-.14-.27-.22-.39-.31-.5-.68-.97-1.08-1.46-.51-.64-1.03-1.3-1.46-2.07-.15-.27-.46-.54-.79-.82l-.04-.04c-.33.71-.41,1.13-.15,1.62.17.33.23.65.28.97.06.36,0,.73-.16,1.02-.25.43-.28.97-.31,1.59-.02.41-.04.83-.13,1.27-.16.78-.57,1.41-1.2,1.81-.08.05-.38.23-.75.23h-.42s-.28-.25-.28-.25c-.3-.25-.6-.74-.49-1.27.05-.26.12-.51.18-.77.18-.73.35-1.42.28-2.08-.08-.81-.33-1.46-.76-1.98,0,.22-.01.45-.02.67-.02.94-.05,1.92-.21,2.89-.07.42-.16.85-.25,1.27-.13.63-.26,1.23-.33,1.84-.08.65-.27,1.24-.45,1.81-.18.56-.35,1.1-.39,1.62-.03.45-.34.9-.8,1.13-.23.12-.55.29-.93.29l-.29-.02-.19-.08c-.65-.28-1.05-1.19-.81-1.85.3-.83.42-1.73.36-2.76-.02-.29-.02-.57-.02-.86h-.02v-1.96c0-.76,0-1.53,0-2.29,0-.45-.23-.89-.5-1.4l-.02-.09s-.04-.01-.14-.01c-.02,0-.04,0-.05,0l-.06,1.14-.24,4.16-.1.19c-.35.66-.36,1.43-.36,2.32v.72c0,.57,0,1.21-.25,1.82-.26.61-.28,1.25-.31,2.01-.01.29-.02.58-.05.87v.15c-.07.7-.13,1.49-.41,2.23-.26.68-.34,1.4-.42,2.2-.01.13-.02.27-.03.41-.03.52-.07,1.1-.31,1.66-.28.64-.32,1.35-.36,2.11l-.05.73c-.02.34-.05.69-.06,1.03-.02,1.06-.59,1.76-1.09,2.25-.02.02-.04.04-.06.06.03,0,.07,0,.1,0,.27.02.9.08,1.27.62.35.52.18,1.11.12,1.3-.09.28-.19.62-.22.8.12.12.4.32.59.46.53.39,1.13.89,1.5,1.71.19.41.49.8.81,1.22.36.47.76.99,1.05,1.62,1.26,1.28,2.02,2.8,2.74,4.37.42.91.98,1.8,1.54,2.69.28.45.59.88.89,1.32.45.64.91,1.3,1.31,2,.52.9.96,1.84,1.39,2.75.18.39.37.78.56,1.16.13.26.37.75.18,1.31-.2.58-.74.84-1.16,1.04l-.21.11c-.4.21-.9.46-1.55.47-1.07.01-2.14.04-3.22.08h-.15c-.21.01-.46.02-.58.06-.14.05-.27.12-.4.18-.51.24-1.09.5-1.81.5-.1,0-.21,0-.37-.02-.2,0-.46.11-.75.24-.4.18-.89.39-1.47.4-.63,0-1.2.29-1.86.62-.3.15-.61.3-.92.43-.71.68-1.56.96-2.32,1.21-.46.15-.89.29-1.23.5l-.28.15h-.28c-.51,0-.97.23-1.51.73-.5.47-1.06.61-1.51.73-.24.06-.45.11-.57.2-.32.22-.65.44-.99.65-.27.18-.55.36-.82.54-.2.13-.39.28-.58.42-.4.3-.81.61-1.29.86-1,.53-1.66,1.18-2.06,2.03-.22.47-.62,1.11-1.23,1.52-.37.25-.61.66-.88,1.14-.24.41-.5.87-.89,1.28-.63.66-1.14,1.45-1.55,2.41-.29.66-.65,1.28-.99,1.87l-.25.44c-1.19,2.08-2.35,4.37-2.73,6.95-.16,1.06-1.38,1.89-2.37,1.89-.54,0-1.12-.03-1.68-.21-.57-.19-1.04-.29-1.47-.33l-.43-.04-.27-.34c-.21-.27-.53-.49-.92-.65-.45-.18-.89-.38-1.33-.57-.65-.28-1.3-.56-1.96-.82-2.1-.81-3.83-1.69-5.31-2.69-1.58-1.06-3-2.04-4.28-3.26l-.43-.41.15-.57c.1-.38.18-.76.24-1.15l.17-.85h.86c.29,0,.51-.11.57-.22.4-.72.66-1.24.66-1.85,0-1.51.01-3.02.03-4.52.02-1.61.04-3.22.03-4.84,0-.86.06-1.87.52-2.82.01-.07,0-.15,0-.23v-.12c0-.26-.09-.55-.2-.89-.14-.44-.31-.95-.3-1.54,0-.6.07-1.16.14-1.71.04-.33.08-.66.11-.98-.3-1.01-.28-1.98-.26-2.92,0-.49.02-.95-.02-1.4-.08-1,.05-1.95.42-2.91.17-.44.15-.86-.07-1.26-.52-.99-.29-1.81,0-2.32.12-.21.17-.48.16-.87-.01-.75.01-1.5.03-2.25.06-1.75.11-3.41-.31-5.04-.08-.32-.04-.7.12-1.02.21-.43.2-.95.19-1.56,0-.16,0-.32,0-.49.03-5.38.06-10.76.09-17.37l.03-6.68v-19.78c0-.29,0-.57,0-.86.07-1.41.72-2.69,1.93-3.8.76-.69,1.53-1.23,2.29-1.6.6-.29,1.31-.59,2.1-.59.58,0,1.12.16,1.6.47.45.29.86.44,1.24.44.05,0,.1,0,.15,0,.65-.06,1.35-.09,2.14-.09s1.59.03,2.39.06c.77.03,1.54.06,2.31.06h.59c2.34,0,2.57,1.33,2.62,2.93.02.72,0,1.44-.01,2.15-.04,1.55-.07,3.02.28,4.45.09.39,0,.72-.06.93-.01.04-.02.08-.03.11-.23,1.68-.19,3.35-.15,5.12.03,1.11.05,2.26,0,3.46-.03.62-.05,1.15.16,1.58.09.19.2.49.19.83-.01.28-.11.5-.19.68-.17.4-.18.88-.17,1.37,0,1.06.01,2.13.02,3.19,0,1.45.01,2.91.03,4.36,0,.27.07.59.15.92l.06.29c.02.1.05.19.09.29.09.25.19.57.2.93.02,1.58.02,3.24,0,5.07,0,.43-.11.9-.29,1.39-.29.75-.32,1.46-.1,2.14.21.64.1,1.19.02,1.59l-.04.25c-.06.37-.05.72.03.96.58,1.85.55,3.4-.08,4.9.34.86.15,1.63,0,2.25-.05.23-.03.57.07.87.34,1.09.72,2.72.06,4.47.37.78.37,1.56.37,2.25v.23c.03,4.44.05,8.88.06,13.32,0,.83,0,1.65-.02,2.48l-.02,2.45c0,1.24-.02,2.47-.01,3.71,0,.64.06,1.16.31,1.56.4.65.46,1.33.5,1.88l.02.28c0,.07.01.11.02.14.12-.24.23-.48.34-.73.24-.52.48-1.06.83-1.57l-.09-.44.31-.37c.6-.71,1.21-1.24,1.87-1.62.47-.28.95-.47,1.41-.66.29-.12.57-.23.85-.37,1.31-.65,2.4-1.78,3.45-2.87.46-.47.93-.97,1.14-1.5.14-.34.19-.74.22-1.23l.05-.71s1.07-.28,1.19-.31c.18-.57.34-1.1.41-1.61-.02-.04-.04-.08-.06-.13-.08-.17-.19-.38-.24-.63-.08-.35-.04-.66,0-.9l.02-.14c.04-.35.17-.63.28-.84.01-.03.03-.05.04-.08-.3-.69-.08-1.29.04-1.62.03-.08.06-.15.07-.23.03-.19.04-.39.05-.58.01-.29.03-.57.08-.85.02-.13-.06-.37-.14-.6-.17-.49-.42-1.24-.05-2.05.2-.45.18-.96.15-1.55-.01-.31-.02-.61-.01-.93.03-.73.06-1.36-.25-1.85l-.34-.54.35-.54c.04-.05-.04-.35-.08-.52-.13-.52-.34-1.38.25-2.18v-.06c.04-.16.07-.31.08-.47,0-.34,0-.68,0-1.02,0-.64-.02-1.27.02-1.91,0-.05-.06-.21-.1-.32-.13-.36-.35-.94-.12-1.61,0,0-.05-.2-.05-.2-.42-1.81-.59-3.27-.07-4.49.34-.81.37-1.68.41-2.6v-.22c.03-.47.02-.95.01-1.42,0-.6-.02-1.21.02-1.84.02-.26-.06-.58-.14-.92-.16-.67-.35-1.49,0-2.38v-.65c0-.78,0-1.56-.01-2.32-.01-.06-.09-.23-.12-.29-.27-.56-.12-1.05-.02-1.39.32-1.09.29-2.23.21-3.59-.02-.3-.11-.65-.28-1-.39-.82-.31-1.61-.25-2.24.01-.12.03-.25.03-.38l.02-.24.13-.21c.34-.55.32-1.23.3-2.01,0-.21,0-.43,0-.64,0-.62.02-1.24.03-1.86.02-.82.03-1.63.03-2.52,0-.37,0-.75-.09-.97-.69-1.75-.6-3.49-.5-5.17v-.22c.03-.38.15-.71.25-.97.05-.12.11-.31.12-.37,0-.06-.06-.25-.1-.38-.09-.26-.19-.58-.21-.94-.07-1.73-.1-3.57-.11-5.79,0-.47.13-1,.37-1.48.22-.45.29-.93.21-1.52-.02-.15-.07-.3-.11-.45-.09-.31-.19-.67-.19-1.07,0-.39.09-.73.18-1.03.04-.15.09-.3.1-.46.05-.5.05-1.05.01-1.65-.03-.41-.06-.8-.17-1.07-.22-.53-.12-1.01-.05-1.33,0-.05.02-.1.03-.15-.38-.49-.38-1.25-.15-1.71.24-.48.19-.66.12-.81l-.25-.52.33-.47c.05-.07.07-.1-.03-.28l-.26-.46.24-.48c.36-.72.33-1.54.28-2.49l-.02-.54c-.06-1.92,0-3.96.2-6.23.04-.52.27-1.08.59-1.5.25-.32.52-.62.8-.92.44-.47.85-.92,1.11-1.44.2-.41.53-.71.77-.89,1.76-1.34,4.18-2.87,7.29-2.87h.22c.58.02,1.17.02,1.76.02h10.77c1.35,0,2.7,0,4.05.02,1.34.01,2.69.03,4.03.03,1.74,0,3.19-.02,4.57-.07,1-.04,1.95-.07,2.8-.43.24-.1.5-.15.78-.15.72,0,1.4.36,1.75.91.41.65.83,1.28,1.25,1.92,1.23,1.86,2.5,3.77,3.41,5.93.27.64.67,1.26,1.1,1.91l.07.1c1.05,1.6,1.92,3.41,2.74,5.7l.05.14c.09.22.21.51.22.88,0,.35.02.71.04,1.06.06,1.22.13,2.61-.48,3.97-.16.36-.14.81-.09,1.25.03.27.49.67.78.67.2-.06.39-.13.58-.2.75-.27,1.52-.55,2.44-.59.14,0,.27,0,.41,0,2.65,0,4.82,1.25,6.22,2.19.35.23.69.47,1.04.72l.69.49-.81,1.67Z"/><g id="Color"><path class="cls-2" d="m319.78,254.99c-.05,2.16-.1,4.32-.17,6.48-.02.6-.1,1.18-.32,1.76-.19.52.32,1.11-.17,1.67-.23.26-.04.67.1,1.01.13.33.32.75.21,1.02-.41,1.05-.3,2.13-.38,3.2-.05.71.01,1.51-.28,2.11-.34.69.11,1.36-.25,2.04-.46.85-.42,1.85-.4,2.82.03,1.08.04,2.16.03,3.23,0,.6.05,1.22-.09,1.78-.14.57-.49,1.08-.75,1.63-.59,1.25-.71,2.51-.17,3.81.13.31.29.78.15,1.01-.65,1.08-.29,2.38-.87,3.46-.24.45-.25.91,0,1.36.31.54.39,1.13.24,1.73-.14.58-.31,1.15-.44,1.73-.13.59.54,1.08.2,1.71-.19.36.24.7.14,1-.1.32-.43.56-.66.83-.08.09-.14.19-.23.28-.2.21-.17.41-.04.66.35.66.31,1.4.32,2.11.01.72-.69,1.28-.51,2.05.14.58.34,1.15.43,1.73.05.34.04.76-.13,1.04-.51.84-.3,1.9-.87,2.73-.19.27-.2.68-.24,1.03-.04.36-.02.72-.04,1.08-.05.97-.77,1.75-.75,2.76.02.96-.03,1.92-.12,2.88-.03.36-.41.55-.73.72-.28.15-.25.32-.08.59.26.42.32.9.04,1.36-.32.52-.53,1.07-.46,1.7.07.6.04,1.19-.1,1.78-.09.37-.24.7-.55.88-.96.55-.9,1.31-.49,2.15.12.25.19.5,0,.66-1.03.86-1.66,2.02-2.37,3.11-.19.3-.51.41-.91.22-.79-.39-1.62-.41-2.46-.33-.49.04-.94.21-1.29.56-.43.42-.83.87-1.27,1.27-.28.25-.68.31-1.01.18-.55-.22-1.14-.45-1.59-.82-1.5-1.2-3.38-1.82-4.79-3.17-1.48-1.41-3.22-2.49-4.66-3.96-.57-.59-1.36-.95-2.02-1.46-.57-.44-1.08-.96-1.66-1.38-.48-.35-1.03-.61-1.56-.89-2.01-1.06-4.01-2.15-6.06-3.15-1.72-.84-3.37-1.8-5.04-2.74-2.5-1.41-5.07-2.7-7.68-3.91-1.84-.85-3.72-1.64-5.66-2.25-.34-.1-.65-.3-.95-.48-.44-.27-.65-.68-.63-1.2.04-.73.2-1.36.88-1.85.77-.56,1.16-1.49,1.77-2.22.17-.2.1-.42-.03-.67-.83-1.59-1.59-3.23-2.59-4.72-.8-1.2-1.43-2.49-2.03-3.8-.36-.8.36-2.07,1.28-2.23.34-.06.75-.04,1.05.1,1.52.71,3.01,1.47,4.51,2.21.43.21.87.4,1.31.57.38.15,1.08-.08,1.29-.41.13-.2.3-.39.36-.61.22-.7.55-1.29,1.14-1.78,2.24-1.84,3.17-4.44,3.96-7.1.13-.45.14-.95.16-1.42.04-1.08.05-2.16.07-3.24,0-.26.47-.65.75-.64,1.2.03,2.41-.06,3.59.12,1.41.2,2.8.59,4.18.97,1.03.28,2.02.79,3.06,1,.94.19,1.87.33,2.77.68.54.21,1.18.2,1.77.26.77.07,1.32-.69,1.02-1.46-.46-1.18-1.18-2.09-2.56-2.2-.96-.08-1.92-.13-2.87-.18-.55-.03-.87-.39-1.07-.83-.2-.43-.38-.89-.45-1.35-.09-.71-.11-1.44-.11-2.16,0-1.31.09-2.63-.46-3.87.42-.55-.2-1.16.08-1.7.4-.78.45-1.6.44-2.45-.02-1.44,0-2.88-.04-4.32-.02-.73.13-1.41.36-2.11.34-1.05.41-2.11-.23-3.12-.11-.17-.1-.48-.03-.69.14-.45.58-.9.35-1.34-.35-.67.05-1.38-.28-2.06-.24-.51-.19-1.17-.28-1.75-.04-.23-.07-.48-.18-.68-.22-.44-.56-.79-1.06-.86-.53-.08-1.01.23-1.22.62-.46.82-.85,1.68-1.03,2.65-.19,1.01.76,1.83.35,2.8-.35.81-.33,1.64-.29,2.47.02.36.02.73.12,1.06.15.47.19.91.01,1.39-.12.33-.18.71-.15,1.06.06.7.19,1.39.29,2.09-.38.79-.32,1.63-.33,2.47,0,.72-.06,1.44-.06,2.16,0,.84,0,1.68.01,2.52.02.84.08,1.68.12,2.52.53.74,0,1.61.32,2.42.28.68-.27,1.1-1.03.96-.12-.02-.25,0-.36-.05-1.34-.63-2.81-.74-4.22-.68-1.74.08-3.29-.5-4.88-.95-.69-.19-1.35-.49-2.02-.72-1.92-.65-3.83-1.39-5.92-1.22-.24.02-.49,0-.72-.06-2.21-.69-4.5-.62-6.77-.67-.75-.02-1.39-.34-2.03-.67-.2-.1-.43-.31-.47-.5-.28-1.28-.83-2.48-.77-3.85.06-1.31-.12-2.64-.18-3.95-.03-.6-.07-1.18-.26-1.77-.46-1.41-.35-2.83,0-4.25.14-.58.34-1.17.35-1.75.02-1.46.92-2.72.9-4.19.41-.87.81-1.74,1.23-2.6.21-.43.47-.84.65-1.28.76-1.96,1.98-3.54,3.77-4.67.54-.34.77-.9,1.06-1.42.18-.31.12-.69-.19-.96-.36-.31-.72-.64-1.13-.86-.3-.16-.7-.25-1.04-.2-1.2.19-2.32.58-3.01,1.71-.19.3-.34.71-.62.85-1.06.52-1.5,1.52-2,2.46-.61,1.17-1.17,2.36-1.72,3.55-.6,1.3-.69,2.79-1.39,4.06-.06.1-.09.23-.1.34-.07.96-.02,1.94-.24,2.86-.22.93-.55,1.84-.54,2.81.01,2.28-.16,4.56.08,6.84.06.59.13,1.19.3,1.76.42,1.41.36,2.84.32,4.27,0,.31-.48.65-.78.57-.23-.06-.46-.13-.69-.16-1.66-.25-2.75-1.18-3.61-2.64-1.57-2.68-3.37-5.22-4.72-8.04-.26-.54-.54-1.06-1.18-1.27-.25-.08-.35-.31-.34-.56,0-.12-.02-.27.04-.35.49-.64-.11-1.39.23-2.04.51-.97.13-2.15.73-3.14.23-.38.17-.93.21-1.4.09-1.07.02-2.18.65-3.13.21-1.3.5-2.59.66-3.89.19-1.56.84-3,.97-4.55.02-.24.08-.48.18-.69.34-.77.75-1.51,1.05-2.29.3-.78.22-1.63.52-2.45.53-1.46,1.12-2.89,1.8-4.29.58-1.19,1.18-2.34,2.15-3.27.51-.49.84-1.19,1.38-1.63.48-.39.81-.85,1.17-1.33.21-.28.49-.59.8-.68.61-.2,1.03-.57,1.38-1.07.13-.19.34-.33.52-.48.39-.32,1.31-.33,1.7,0,.46.39.85.87,1.34,1.18,1.23.78,2.18,1.9,3.37,2.68,1.1.71,2.35,1.18,3.4,1.99.39.3.85.41,1.32.54.57.16,1.11.43,1.68.63.61.22,1.05.67,1.21,1.25.55,1.99,1.64,3.72,2.53,5.55.15.31.46.55.69.82.19.21.36.17.58-.08,1.04-1.21,1.47-2.73,2.19-4.11.56-2.34,2.24-3.9,3.82-5.53.25-.25.57-.44.87-.63.2-.13.44-.2.64-.32.92-.57,1.78-1.26,2.75-1.69,1.04-.47,1.53-1.5,2.43-2.07.45-1.02,1.34-1.68,2.04-2.5.73-.85,1.22-1.71,1.25-2.89.01-.55.39-1.11.66-1.64.09-.18.34-.4.53-.41,1.55-.07,3.12-.24,4.64.31.91.33,1.89.2,2.8.59,2.08.89,4.31,1.42,6.32,2.51,1.58.85,3.23,1.58,4.81,2.43,1.26.68,2.49,1.43,3.69,2.22.59.39,1.13.9,1.59,1.45.62.73,1.16,1.52,1.71,2.31,1.7,2.47,3.38,4.94,5.08,7.41.82,1.2,1.32,2.55,1.87,3.87.14.33.18.7.34,1.02.78,1.51,1.32,3.08,1.23,4.81.5,1.74.68,3.52.69,5.33.01,1.68,0,3.36,0,5.04.02,0,.04,0,.06,0Zm-14.5,6.7s-.05,0-.07,0c0,1.8,0,3.59,0,5.39,0,1.79.13,3.58-.46,5.32-.07.2.05.46.11.69.22.91-.39,1.86.12,2.76-.46,1.15-.26,2.37-.34,3.55-.06.95-.09,1.93-.33,2.84-.22.82-.37,1.62-.4,2.46-.03,1.08-.04,2.17-.22,3.23-.22,1.29-.62,2.55-.67,3.87,0,.23-.09.48-.18.69-.35.78-.46,1.61-.51,2.45-.02.35-.09.72-.22,1.05-.93,2.35-2.01,4.61-3.99,6.3-.38.33-.82.49-1.31.48-.96-.02-1.88-.25-2.81-.5-1.02-.28-2.13-.23-3.2-.35-.22-.03-.43-.19-.64-.31-.43-.24-.9-.33-1.38-.32-.63.02-1.15-.23-1.66-.58-.39-.27-.82-.6-1.26-.64-.88-.09-1.61-.48-2.31-.92-1.23-.78-2.49-1.4-3.99-1.49-.46-.03-.9-.31-1.35-.46-2.17-.72-4.17-1.78-6.16-2.89-.6-.34-1.15-.25-1.61.26-.48.53-.94,1.08-1.4,1.64-.26.32-.18.61.26.82,2.26,1.1,4.51,2.21,6.78,3.29.32.15.69.27,1.03.26,1.01-.03,1.79.64,2.73.83.93.19,1.84.53,2.72.88.89.35,1.75.79,2.62,1.19.54.25,1.07.53,1.62.74.78.29,1.57.63,2.38.74,1.32.18,2.53.7,3.79,1.04.92.25,1.79.67,2.71.93,2.07.57,3.11.08,4.09-1.33.62-.89,1.3-1.71,1.98-2.54.68-.83,1.18-1.79,1.83-2.65.43-.57.99-1.04,1.03-1.83.03-.73.68-1.26.66-2.03-.01-.47-.01-1.03.22-1.39.64-.98.61-2.03.61-3.12.01-1.79.04-1.79.9-4.13.17-.45.33-.9.41-1.37.08-.47.09-.96.05-1.43-.05-.62.61-1.09.41-1.68-.22-.65.24-1.14.23-1.73,0-.72,0-1.44.05-2.16.05-.59.12-1.2.32-1.75.21-.57.36-1.13.36-1.74,0-1.8.01-3.6.05-5.39.02-.95.09-1.91.14-2.86.66-.97.46-2.08.49-3.14.1-3.59.18-7.18.24-10.78,0-.47-.08-.95-.18-1.42-.05-.22-.19-.47-.36-.59-.69-.51-1.51-.6-2.34-.65-.1,0-.22.08-.32.14-.76.47-1.24,1.12-1.24,2.05,0,2.76,0,5.51,0,8.27Z"/><path class="cls-2" d="m251.53,358.75c-.87-.19-.87-.19-1.29.14-.28.22-.53.5-.83.68-.19.11-.53.19-.67.09-.57-.4-1.45-.52-1.69-1.19-.33-.91-.96-1.35-1.79-1.56-.6-.15-1.08-.44-1.56-.82-.77-.6-1.08-1.57-1.87-2.16-.67-.5-1.29-1.06-1.89-1.65-.59-.59-1.38-1.02-1.68-1.85-.27-.75-1.18-.8-1.48-1.51-.33-.79-1.3-.99-1.65-1.84-.26-.63-.99-1.05-1.35-1.66-.98-1.64-2.03-3.24-2.66-5.05-.15-.44-.12-.95.12-1.4.95-1.8,1.88-3.61,2.86-5.39.29-.51.7-.97,1.13-1.39.97-.94,1.59-2.1,2.2-3.26,1.06-2.01,2.05-4.05,3.08-6.07.25-.49.75-.51,1.23-.54.62-.03,1.14.04,1.54.65.33.49,1.52,1.25,2.05,1.34,1.82.34,3.33,1.19,4.76,2.35.91.73,1.99,1.28,3.2,1.52.68.14,1.37.46,1.96.85.8.53,1.58,1.02,2.53,1.29.94.27,1.39,1.29,2.19,1.81.29.19.66.26.98.43.31.16.69.31.88.58.58.82,1.37,1.31,2.26,1.71.54.25,1.06.54,1.58.85,1.42.84,2.17,2.16,2.62,3.68.06.19-.04.49-.18.66-.53.65-1.01,1.41-1.69,1.85-1.37.88-2.18,2.16-2.96,3.5-.18.31-.33.68-.6.87-.63.45-.78,1.18-1.18,1.76-.2.29-.48.63-.79.71-1.09.3-1.56,1.51-2.67,1.76-.11.02-.25.11-.28.2-.66,1.62-2.24,2.45-3.24,3.77-.21.28-.44.56-.6.87-.56,1.05-1.1,2.11-1.66,3.16-.18.35-.32.38-.92.25Z"/><path class="cls-2" d="m214.62,315.75c.74.08,1.29,0,1.65.22.91.57,1.85,1.22,2.29,2.21.33.73.39,1.62-.1,2.4-.19.3-.44.57-.67.84-.5.59-.6,1.29-.48,2.02.1.59.14,1.23.42,1.72.61,1.08.18,2.4.89,3.44.03,1.08.07,2.15.1,3.23,0,.24,0,.5-.09.7-.29.57-.36,1.1.03,1.64.02,1.07.08,2.14.04,3.21-.02.48-.34.97-.78,1.14-.87.35-1.79.58-2.7.81-.2.05-.47-.06-.66-.18-.67-.42-1.35-.49-2.03-.11-.56.31-1.11.42-1.7.15-.25-.12-.43-.07-.66.1-.58.42-1.17.94-1.92.89-.97-.07-1.78.78-2.77.38-.81.56-1.83.44-2.7.84-.4.18-.93.15-1.4.11-.58-.04-1.1-.59-1.7-.37-.56.2-1.08.51-1.58.83-.48.3-.89.15-1.31-.09-.1-.06-.23-.07-.34-.11-1.93-.87-2.08-1.04-2.61-3.04-.03-.12-.11-.23-.11-.34-.04-1.96-.94-3.67-1.63-5.44-.43-1.11-.86-2.22-1.27-3.34-.12-.33-.08-.76-.27-1.04-1.08-1.52-1.14-3.37-1.71-5.05-.08-.24.21-.75.48-.85.33-.12.67-.25,1.02-.29.71-.08,1.43-.08,2.14-.15.22-.02.54-.1.64-.26.73-1.24,1.97-1.18,3.14-1.28.51-.05.9-.28,1.26-.61.26-.24.51-.5.77-.74.38-.36.82-.26,1.3-.27.68-.02,1.3-.54,2.04-.47,1.2-.9,2.81-.52,4.04-1.31,1.19-.05,2.38-.14,3.58-.14.89,0,1.64-.27,2.28-.86.32-.29.7,0,.98-.08.78-.22,1.53-.58,2.11-.43Z"/><path class="cls-2" d="m329.13,343.94c-1.43-.09-2.88-.06-4.23-.68-1.31-.08-2.19-.87-3.02-1.77-.42-.45-.77-.95-.77-1.58,0-.99-.33-1.88-.66-2.78-.16-.45-.32-.9-.45-1.36-.76-2.59-.05-4.21,2.53-5.61,1.36-.74,2.85-1.24,4.41-1.43,1.36-.16,2.49-.81,3.6-1.53.29-.19.52-.48.75-.75.63-.73,1.23-1.48,1.86-2.19.32-.36.64-.8,1.06-.96,1.29-.48,2.16-1.47,3.2-2.27.59-.45,1.37-.4,2.06-.09.32.14.62.38.86.64.61.66,1.24.52,1.94.18.2-.1.38.1.43.38.02.12.05.28,0,.35-.52.69-.76,1.46-.73,2.33.01.38-.21.71-.56.84-.56.22-.72.55-.44,1.08.26.49.19.86-.3,1.2-.81.57-.84.63-.54,1.38.14.35.26.65.02.97-.21.29-.46.55-.66.85-.21.31-.25.66-.09,1.02.05.11.13.23.11.34-.03.22-.1.43-.17.65-.47,1.6-.48,3.31-1.23,4.83-.42.86-.98,1.63-1.26,2.57-.17.58-1.06.5-1.3,1.14-.32.86-.95,1.36-1.88,1.45-1.44.69-2.96.93-4.55.79Z"/><path class="cls-2" d="m322.19,321.53c.28.09.63.17.96.31.35.16.68.13,1-.04.34-.18.7-.19,1.03-.04.66.28,1.29.61,1.94.92.34.16.69.16,1.03.02.55-.23,1.11-.47,1.72-.38.18.03.35.24.48.41.05.07.03.25-.03.35-.51.96-1.19,1.76-2.23,2.2-1.42.61-2.83,1.25-4.12,2.1-.71.47-1.52.63-2.34.81-1.59.36-2.42-.07-2.99-1.6-.1-.26-.11-.45.06-.67.59-.75,1.12-1.51,1.24-2.52.06-.45.36-.88.6-1.29.19-.31.5-.49.88-.53.24-.02.47-.03.77-.04Z"/></g><g id="Halftone"><path class="cls-2" d="m141.4,319.96c0-.84-.03-1.68,0-2.52.03-.59.06-1.21.24-1.77.22-.7.29-1.41.34-2.12.07-.84-.06-1.73.2-2.5.56-1.7.78-3.5,1.55-5.13.04-.09.17-.16.27-.2.26-.1.51-.06.64.16,1.14,1.97,2.29,3.93,3.38,5.92.64,1.17,1.37,2.25,2.32,3.19,1.54,1.52,3.09,3.02,4.61,4.57,1.35,1.38,2.96,2.46,4.54,3.52,1.58,1.06,3.33,1.89,5.12,2.59,1.11.43,2.2.93,3.31,1.39.69.29,1.29.75,1.6,1.4.68,1.4,1.64,2.64,2.22,4.1.32.8.47,1.6.45,2.45-.03,1.27-.95,4.01-1.77,5.02-.53.65-1.15,1.22-1.99,1.49-1.14.36-2.25.82-3.48.79-.33,0-.63.5-.52.78.86,2.12,2.14,4.01,3.38,5.9.79,1.2,1.6,2.39,2.64,3.4.77.75,1.51,1.54,2.06,2.49.55.95,1.47,1.58,2.28,2.28.63.55,1.32,1.04,1.96,1.58.57.48.61,1.03.14,1.53-.99,1.05-2.08,2.02-2.96,3.15-1.77,2.25-3.72,4.38-5.27,6.81-.51.8-1.17,1.51-1.79,2.25-.39.46-.8.46-1.12.06-.45-.56-.86-1.16-1.36-1.67-1.86-1.88-3.35-4.07-5.15-6.01-2.79-3.89-5.72-7.69-7.95-11.96-.44-.85-.98-1.65-1.47-2.47-.18-.31-.4-.6-.55-.93-1.82-3.9-3.67-7.8-4.86-11.94-.36-1.25-.75-2.52-.95-3.82-.21-1.3-.77-2.52-.78-3.87,0-1.08-.72-2.02-.7-3.14.01-.95-.09-1.91-.45-2.83-.17-.43-.15-.94-.16-1.42-.02-.84,0-1.68,0-2.52h.03Z"/><path class="cls-2" d="m198.19,407.02c.03.84-.01,1.67-.44,2.44-.14.24.16.73.44.87.11.05.2.16.31.17,1.55.14,2.98.83,4.54.93,1.96.12,3.77-.56,5.63-.93.84-.54,1.86-.42,2.76-.72.79-.27,1.52-.7,2.3-1,.44-.17.93-.19,1.4-.3,2.23-.55,2.22-.43,2.95,1.83.21.67.23,1.41.28,2.12.05.72.21,1.4.44,2.09.6,1.81,1.13,3.64,1.64,5.48.13.45.08.94.11,1.42.02.27-.09.5-.35.57-1.03.28-2.06.68-3.1.77-1.68.13-3.32.4-4.93.87-2.18.02-4.2.81-6.31,1.21-1.87.35-3.72.95-5.64.94-2.06-.01-3.99.69-5.99,1.01-1.18.65-2.55.54-3.79,1.05-1.08.44-2.39.13-3.51.67-1.08.02-2.15.03-3.23.05-1.5-.57-3.07-.49-4.62-.46-2.07.03-4.01-.61-5.97-1.09-1.15-.28-2.27-.73-3.39-1.14-.44-.16-.89-.35-1.28-.61-1.79-1.17-4.03-1.54-5.56-3.19-.72-.78-1.64-1.37-2.42-2.1-1.22-1.15-2.61-2.08-3.95-3.08-.12-.09-.16-.49-.07-.65.3-.54.77-.97,1.37-1.07,1.78-.3,3.46-.89,5.17-1.43,1.24-.39,2.45-1.01,3.82-.89,1.56-.6,3.24-.76,4.8-1.39,2.55-1.03,5.06-2.13,7.52-3.36,3.02-1.51,5.78-3.38,8.29-5.62.63-.57,1.32-1.02,2.08-1.38.56-.26,1.12-.42,1.72-.43,2.91-.05,3.1-.13,5.37,2.18.33.34.63.72.93,1.09.38.48.65,1.01.66,1.63,0,.48,0,.96,0,1.44Z"/><path class="cls-2" d="m370.43,336.11c0,.6,0,1.2,0,1.79-.02,1.03-1.09,1.64-2.03,1.17-.11-.05-.21-.12-.3-.19-.72-.56-1.31-.23-1.91.25-.44.35-.57.71-.31,1.21.05.1.06.23.07.34,0,.12.03.26-.02.36-.47.84-.91,1.7-1.93,2.01-.56.17-.68.63-.68,1.12,0,.72.06,1.43.07,2.15,0,.91-.61,1.37-1.68,1.22-.29-.04-.49-.02-.53.29-.05.35-.02.71-.03,1.07-.04,1.03-.61,1.41-1.69,1.33-.35-.03-.7-.16-1.04-.24-.21-.05-.48-.18-.61-.1-.17.11-.22.4-.34.6-.12.2-.26.4-.41.58-.3.36-.97.54-1.29.31-.67-.5-1.37-.93-2.16-1.24-.69-.27-1.05-.95-1.1-1.72-.11-1.59.62-3.2,1.95-3.97.84-.48,1.63-.99,2.27-1.73.48-.56.84-1.17.85-1.93,0-.84.06-1.69-.05-2.51-.19-1.38-.87-2.45-2.25-2.99-.71-.28-1.43-.33-2.11-.1-.9.3-1.75.75-2.61,1.17-.75.37-1.49.77-2.22,1.17-1,.54-2.06.58-3.14.4-.48-.08-.86-.38-1.16-.78-.57-.76-.27-1.73.62-1.97.34-.09.68-.16,1.02-.25.23-.06.42-.7.3-.94-.06-.1-.14-.2-.22-.29-.52-.58-.63-1.27-.55-2.01.09-.89.61-1.57,1.21-2.15.51-.49,1.16-.84,1.75-1.25.4-.28.86-.42,1.35-.44.48-.02.96-.02,1.44-.02.62,0,1.17.18,1.65.6.45.39.91.77,1.36,1.15.22.19.41.12.64-.06.66-.52,1.35-.98,2.27-.88.73.08,1.41-.1,2.06-.49.65-.38,1.38-.34,2.1-.32.62.01,1.18.18,1.64.61.53.49,1.04.99,1.6,1.44.15.12.47.15.66.08.33-.11.62-.37.96-.47.45-.13.93-.23,1.4-.24.34,0,.73.1,1.01.3.6.41,1.16.94,1.35,1.64.37,1.37.96,2.72.76,4.2-.03.24,0,.48,0,.72.02,0,.04,0,.06,0Z"/><path class="cls-2" d="m368.19,387.33c-.05-1.26.2-2.28.83-3.21.33-.49.59-1.03.83-1.58.29-.65.62-1.3.6-2.05-.03-1.36.51-2.56,1.07-3.75.41-.86.92-1.66,1.85-2.11.42-.2.85-.48,1.15-.83,1.05-1.24,2.46-1.34,3.92-1.36,1.04-.02,1.76.64,2.51,1.21.16.12.26.41.27.63.05,1.43.07,2.86.09,4.3,0,.49.14.93.41,1.35.51.81,1.03,1.61,1.5,2.44.1.17.05.49-.04.69-.15.32-.34.63-.59.89-.67.69-1.26,1.37-1.44,2.41-.12.71-.77,1.19-1.38,1.58-.5.32-1.05.56-1.58.84-1.37.73-2.74,1.45-4.1,2.19-.55.3-1.14.42-1.73.27-1.16-.29-2.27-.71-3.2-1.51-.57-.49-.94-1.07-.97-1.84,0-.24,0-.48,0-.56Z"/><path class="cls-2" d="m309.82,350.24c-2.44-.03-4.12-.77-5.47-2.31-1.56-1.77-1.11-4.57.76-6.05.65-.52,1.39-.93,2.09-1.39.2-.13.41-.24.63-.34,1.7-.77,2.38-2.26,2.75-3.95.1-.46.08-.95.13-1.43.12-1.01.68-1.76,1.46-2.37.32-.25.96-.22,1.33.08.25.2.49.73.41.92-.14.33-.27.67-.42.99-.36.76-.66,1.54-.66,2.4,0,.85-.26,1.64-.62,2.41-.26.56-.13,1.13.2,1.7.49.82.86,1.7,1.34,2.53.56.98.68,2.03.61,3.12-.04.61-.2,1.18-.64,1.63-.17.17-.33.35-.49.52-1.05,1.08-2.21,1.87-3.41,1.54Z"/><path class="cls-2" d="m307.84,333.56c-.01,1.06-.24,2.08-.84,3-.19.3-.39.64-.67.82-1.12.72-1.89,1.75-2.75,2.74-2.11,2.43-4.32,4.78-6.78,6.87-.32.27-.92.22-1.31-.12-.38-.34-.65-.96-.48-1.26.57-1.05.97-2.16,1.33-3.3.24-.79.67-1.52,1.03-2.27.57-1.21,1.33-2.26,2.56-2.88.8-.41,1.2-1.07,1.43-1.94.18-.68.51-1.34.88-1.94.56-.91,1.2-1.77,1.84-2.63.48-.64,1.18-.8,1.92-.65.32.07.71.25.89.51.63.89.98,1.87.97,3.05Z"/><path class="cls-2" d="m309.5,378.98c.63.03,1.15.26,1.5.82.06.1.13.21.14.32,0,.11-.05.23-.1.34-.5,1.08-1.01,2.14-1.36,3.29-.69,2.26-.77,2.22-2.23,3.97-.65.78-1.36,1.3-2.41,1.31-1.08,0-2.1.32-3.13.63-.93.29-2.19-.64-2.1-1.83.04-.46.08-.99.32-1.36.73-1.1,1.62-2.1,2.99-2.39.78-.16,1.32-.58,1.65-1.24.65-1.32,1.73-2.26,2.75-3.25.56-.54,1.25-.64,1.98-.6Z"/></g><g id="Lines"><path class="cls-1" d="m265.14,121.95c-5.52,0-11.05,0-16.57,0-4.44,0-8.88-.02-13.32-.02-1.2,0-2.39-.02-3.56.38-.68.23-1.44.22-2.13-.02-.81-.29-1.62-.34-2.47-.33-4.56.02-9.13,0-13.69,0-1.08,0-2.15,0-3.21.29-.41.11-.92-.17-1.38-.27-1.17.49-2.32-.18-3.49-.08-1.31.11-2.64.05-3.96.05-1.2,0-2.4,0-3.6.01-3.12,0-6.24,0-9.36.03-.96,0-1.95-.06-2.86.15-1,.24-1.85-.34-2.82-.21-1.42.18-2.88-.14-4.28.36-.69-.27-1.39-.35-2.09-.03-2.25-.49-4.53-.22-6.8-.32-.72-.03-1.44-.03-2.16-.03-.48,0-.99-.08-1.43.06-.8.26-1.63.13-2.43.3-.59.13-1.2.15-1.76.33-.79.27-1.56.6-2.3.99-.42.22-.75.65-.76,1.16-.05,2.28-.08,4.56-.08,6.84,0,5.04.04,10.08.06,15.12,0,2.52,0,5.04-.01,7.56,0,1.08-.01,2.16.36,3.2.08.21.12.52.02.7-.59,1.15-.34,2.36-.32,3.54.02,1.19-.18,2.4.26,3.57-.1.82-.29,1.62-.28,2.47.03,4.92,0,9.85-.02,14.77-.02,4.44-.08,8.88-.1,13.32-.01,3,0,6,.01,9,0,.62.24,1.15.48,1.71.29.7.73,1.24,1.38,1.6.62.35,1.28.65,1.91,1,.64.35,1.19.79,1.46,1.52.07.18.35.36.55.39.83.1,1.67.14,2.51.21.83.07,1.69-.05,2.48.33.24.12.44.17.67.05,1.02-.56,2.12-.36,3.17-.21.59.08,1.12.21,1.72,0,.29-.1.7.07,1.02.2,1.17.48,2.1.16,2.85-.81.15-.19.3-.38.41-.59.18-.33.2-.69-.02-1.02-.2-.3-.4-.59-.64-.87-.41-.48-.57-1.05-.59-1.66-.01-.36.01-.72,0-1.08-.03-1.55.26-3.12-.29-4.64-.04-.1-.07-.25-.03-.34.65-1.5.15-3.1.37-4.63.05-.36.04-.73.12-1.07.08-.34.19-.71.4-.97,1-1.2,2.03-2.36,2.6-3.85,1.2-.83,1.81-2.19,2.84-3.17,1.21-1.16,2.42-2.33,3.61-3.52,1.13-1.14,2.61-1.68,3.99-2.39.3-.15.71-.1,1.07-.1,2.4,0,4.8.02,7.2.05.72,0,1.45.04,2.15.16.69.12,1.33.51,2.09.17.53-.24,1.12.16,1.73-.1,1.15-.5,2.33.36,3.51.04,1.39.48,2.84.35,4.26.38,2.28.05,4.56,0,6.84,0,.39,0,.64-.32.53-.66-.4-1.25-.62-2.55-1.06-3.79-.24-.68-.5-1.34-.79-1.99-.64-1.42-1.34-2.81-2.04-4.2-.65-1.28-.95-2.69-1.6-3.98-.53-1.06-.88-2.21-1.29-3.33-.21-.56-.35-1.15-.58-1.69-.52-1.21-1.08-2.41-1.01-3.78-1.1-3.14-.55-6.41-.72-9.63-.02-.48.05-.96.07-1.44.05-1.2-.1-2.43.36-3.56.41-1.02.28-2.13.74-3.14.29-.63.33-1.39.41-2.09.08-.75.32-1.4.86-1.92.52-.5.97-1.05,1.27-1.72.15-.32.37-.63.63-.86.61-.54,1.41-.83,1.79-1.68.29-.64.81-1.19,1.23-1.77.45-.61,1.14-.82,1.8-1.07.49.23.91.14,1.28-.25.08-.09.2-.14.27-.23.95-1.08,2.12-1.54,3.54-1.3.12.02.24.01.36,0,.24-.02.52.03.71-.08,1.2-.69,2.64-.22,3.84-.79.71-.33,1.34-.44,2.03-.02.19.11.45.13.69.15.96.09,1.91.15,2.87.23,1.38.75,2.93.98,4.4,1.46.67.22,1.33.59,1.88,1.03,1.42,1.16,3.12,1.76,4.75,2.47,1.1.48,2.17.95,3.15,1.67.96.71,2.03,1.26,3.04,1.9.4.25.84.5,1.16.84,1.15,1.25,2.8,1.85,3.95,3.1.23.25.59.4.92.55,1.2.56,2.31,1.25,3.22,2.24.74.81,1.67,1.38,2.66,1.82.68.3,1.22.75,1.72,1.27.75.78,1.51,1.54,2.27,2.31.17.17.36.33.51.51.86.99,1.57,2.1,2.53,3.02.96.92,2.17,1.49,3.06,2.49.64.72,1.44,1.32,1.94,2.12.85,1.34,1.98,2.4,3.05,3.53.99,1.04,2.06,2.01,2.77,3.29.23.41.6.75.93,1.09,1.68,1.72,3.03,3.7,4.49,5.6.14.19.23.48.41.57,1.04.48,1.6,1.37,2.23,2.26.62.87,1.48,1.57,2.23,2.35.17.17.35.35.45.56.68,1.43,1.92,2.44,2.71,3.79.91,1.54,2.06,2.92,3.01,4.44.44.7,1.06,1.31,1.65,1.89,1.12,1.1,2.05,2.33,2.92,3.64.85,1.29,1.67,2.63,2.81,3.72.34.33.69.7.89,1.13,1.13,2.42,2.98,4.33,4.5,6.47.76,1.07,1.54,2.13,2.16,3.28.75,1.38,1.63,2.65,2.71,3.76.52.54.74,1.23,1.16,1.8.53.7.34,1.68.99,2.28.65.6.85,1.44,1.3,2.14.46.7.89,1.42,1.32,2.14.24.41.46.84.67,1.27,1.21,2.47,2.6,4.84,4.17,7.11.41.59.74,1.23,1.07,1.86,1.18,2.22,2.17,4.55,3.65,6.6.33,1.43,1.28,2.55,1.94,3.82.6,1.17,1.23,2.33,1.85,3.5.17.32.25.69.47.96,1.59,2,2.39,4.41,3.52,6.65.53,1.06.8,2.25,1.64,3.15.28,1.05.73,2.01,1.39,2.88.12.15.12.47.05.68-.13.46-.25.97-.54,1.33-.9,1.12-1.5,2.47-2.58,3.44-1.16,1.03-2.07,2.34-3.53,3.03-.31.15-.55.46-.79.72-1.5,1.6-3.36,2.7-5.25,3.73-2.31,1.26-4.67,2.45-7.05,3.57-1.07.51-2.25.79-3.38,1.17-.29.1-.86-.24-.81-.48.44-2.01.33-4.06.45-6.09.04-.62.21-1.16.48-1.71.16-.31.14-.67-.1-1.01-.29-.4-.36-.88-.36-1.37,0-.61.11-1.18.29-1.76.17-.57-.31-1.11-.11-1.73.65-2.11.39-4.27.27-6.42-.5-.7.29-1.46,0-2.06-.5-1.01-.29-2.16-.8-3.12-.52-.98-.29-2.13-.85-3.11-.48-.83-.83-1.73-1.22-2.6-.68-1.53-1.56-2.97-2.07-4.58-.14-.44-.47-.83-.73-1.23-.77-1.21-1.62-2.38-2.29-3.65-.8-1.52-1.94-2.73-3.19-3.86-.71-.64-1.59-1.08-2.04-1.98-1.03-.82-2.06-1.64-3.23-2.25-1.81-.94-3.67-1.72-5.63-2.29-1.49-.43-2.97-.91-4.42-1.46-.91-.35-1.8-.59-2.78-.64-.58-.03-1.15-.29-1.74-.4-.7-.13-1.41-.22-2.13-.28-.49-.04-.96.13-1.31.49-1.58,1.63-3.36,3.07-4.61,5.02-1.13,1.77-2.94,2.79-4.68,3.85-1.12.68-2.31,1.29-3.53,1.77-1.44.57-2.88,1.18-4.47,1.2-.85.01-1.64.23-2.46.4-1.66.34-3.34.33-4.9-.51-.74-.39-1.47-.81-2.19-1.24-.31-.18-.56-.53-.88-.6-1.5-.34-2.49-1.38-3.49-2.41-1.18-1.21-2.54-2.21-3.92-3.14-1.79-1.21-3.74-2.12-6.02-2.02-.99.05-1.85.44-2.75.74-.82.27-1.99-.61-2.09-1.52-.06-.6-.08-1.21.17-1.77.67-1.5.36-3.07.35-4.62,0-.23-.13-.46-.21-.68-.69-1.92-1.51-3.77-2.63-5.49-.46-.7-.93-1.41-1.25-2.18-1.17-2.78-2.99-5.17-4.58-7.7-.22-.35-.83-.56-1.29-.36-1.02.43-2.08.47-3.17.51-4.32.16-8.64.01-12.97.02-2.76,0-5.52,0-8.28,0-1.32,0-2.64.02-3.96-.01-2.66-.06-4.84,1.12-6.88,2.66-.19.14-.37.33-.48.54-.49.99-1.35,1.68-2.01,2.52-.21.27-.36.64-.39.98-.17,2.03-.26,4.07-.2,6.11.04,1.18.2,2.39-.36,3.51.25.45.29.9-.01,1.34.28.59.15,1.12-.13,1.68-.09.18-.07.53.06.67.5.54-.09,1.13.14,1.69.18.43.22.93.25,1.4.04.6.04,1.2-.02,1.8-.04.47-.28.93-.27,1.4,0,.46.22.92.29,1.39.1.72.03,1.43-.3,2.1-.16.31-.27.68-.26,1.03.01,1.92.04,3.84.11,5.76.02.46.32.92.31,1.38,0,.46-.33.91-.36,1.38-.09,1.67-.22,3.35.42,4.97.17.43.16.94.16,1.41,0,1.44-.05,2.88-.06,4.32,0,1.08.16,2.17-.44,3.16-.05.71-.22,1.41.12,2.12.2.42.35.91.37,1.37.07,1.31.12,2.64-.25,3.93-.07.25-.15.44-.04.68.1.21.21.45.22.68.02,1.08.01,2.15.01,3.23-.54,1.07.2,2.08.13,3.13-.06,1.08.02,2.16-.02,3.24-.04,1.07-.05,2.12-.49,3.17-.41.98-.24,2.29.13,3.88.05.24.16.44.05.69-.26.62.28,1.12.25,1.73-.05.96,0,1.92-.01,2.88,0,.24-.05.48-.09.71-.02.12-.05.25-.12.34-.71.87.38,1.85-.19,2.73.48.76.44,1.6.41,2.44-.04.95.19,1.91-.23,2.84-.37.83.41,1.58.26,2.42-.08.47-.05.96-.13,1.43-.08.45-.42.84-.15,1.35.27.51-.23.89-.28,1.35-.02.24-.08.49-.03.71.08.34.38.69.34,1-.09.7-.3,1.39-.51,2.06-.06.19-.29.43-.48.47-.71.14-1.39.33-2.04.65-.26.12-.8-.24-.83-.51-.04-.36-.12-.71-.12-1.07,0-7.32.01-14.63.02-21.95,0-6.36.01-12.72.02-19.08,0-.96-.06-1.92-.05-2.88.04-4.2.08-8.4.14-12.6,0-.45.27-.9.28-1.35,0-.34-.25-.67-.3-1.02-.08-.47-.11-.95-.11-1.43.02-5.28.05-10.56.06-15.85,0-2.88-.02-5.76-.02-8.64,0-1.92.02-3.84.03-5.76,0-.84.07-1.68.02-2.52-.04-.78.68-1.31.65-2.01-.05-1.13.52-2.08.72-3.12.13-.7.66-.94,1.31-.99.24-.02.49,0,.71-.06.22-.06.52-.15.61-.31.68-1.36,1.97-2.04,3.06-2.97,1.68-1.41,3.55-2.43,5.53-3.29.56-.24,1.1-.45,1.71-.44,1.8.02,3.6,0,5.4.06.46.01.92.22,1.38.32.23.05.53.16.7.06,1.19-.68,2.33-.19,3.49.06.33.07.71-.05,1.05-.13.35-.08.66-.18,1.03-.06.45.14.93.23,1.41.23,3.12.03,6.24.05,9.36.05.96,0,1.92-.04,2.88-.1.31-.02.41-.22.33-.47-.38-1.15-.95-2.21-1.72-3.13-1.16-1.38-2.17-2.86-3.07-4.42-.46-.79-1.16-1.13-2.09-1.14-5.28-.05-10.57-.15-15.85-.21-1.08-.01-2.14.04-3.2-.32-.55-.19-1.19-.08-1.78-.17-1.06-.17-2.06.87-3.14.16-1.07-.07-2.15-.15-3.22-.2-.84-.04-1.68.02-2.52-.04-1.02-.08-1.95.25-2.71.81-1.45,1.05-2.92,2.12-3.73,3.8-.26.54-.5,1.08-.77,1.61-.43.86-.84,1.73-1.32,2.55-.36.62-.82,1.18-1.23,1.76-.04.96-.11,1.91-.12,2.87-.05,2.76-.09,5.52-.11,8.29,0,.85-.07,1.64-.44,2.44-.24.51-.24,1.17-.24,1.76,0,.96.1,1.92.13,2.87.02.76-.29,1.39-.83,1.92-.63.61-1.26,1.14-2.21.64-.55-.29-1.15-.28-1.76-.3-2.76-.06-5.52-.13-8.28-.19-.84-.02-1.65-.11-2.48-.31-.91-.22-1.9-.19-2.86-.2-.88-.01-1.66-.19-2.3-.84-.17-.17-.36-.33-.57-.43-.63-.31-1.4-.21-1.94-.82-.39-.45-.9-.79-1.37-1.17-.18-.15-.39-.28-.6-.39-.94-.5-1.26-1.42-1.43-2.35-.25-1.41.01-2.88-.47-4.28-.07-.19,0-.46.09-.67.45-1.16.35-2.36.33-3.55-.04-3-.13-6-.08-9,.09-4.8.03-9.59.07-14.39.03-4.8-.05-9.6-.08-14.41-.01-1.92-.04-3.84.02-5.76.11-4.08.05-8.16-.03-12.24-.02-1.18-.18-2.41.51-3.51.21-.33.13-.68,0-1.03-.09-.22-.2-.44-.24-.68-.1-.47-.2-.97.07-1.4.48-.77.3-1.63.38-2.45.07-.72.12-1.44-.26-2.1-.14-.23-.14-.44-.07-.68.14-.45.28-.92.34-1.38.16-1.12,0-2.14-.88-2.97-.38-.36-.45-.83-.23-1.31.19-.44.36-.9.6-1.31.38-.64.53-1.32.57-2.05.03-.64.4-1.13.91-1.48.99-.67,1.99-1.33,3-1.97,1.56-.99,3.24-1.48,5.11-1.36,1.32.09,2.64.02,3.96.03,6.84.03,13.68.06,20.52.09.6,0,1.21-.05,1.77.23.24.12.43.15.67.05.91-.39,1.9-.28,2.85-.29,3.48-.04,6.96-.02,10.44.01.95.01,1.91-.06,2.84.33.25.11.66-.21.99-.23,1.44-.06,2.88-.11,4.32-.12,3-.02,6-.03,9,0,1.44.01,2.89-.13,4.29.3.39.12.7-.06,1.03-.14.6-.14,1.2-.17,1.76.09.25.11.44.16.67.05.44-.21.93-.18,1.4-.27,1.09-.21,2.09.38,3.17.22.94-.14,1.91-.17,2.86-.19,1.08-.02,2.16.03,3.24.02.73,0,1.41.08,2.08.43.52.27,1.15.32,1.71.52.26.09.45.14.67,0,.42-.27.89-.33,1.38-.32.96,0,1.92.02,2.88-.02.84-.04,1.68-.15,2.45.32.2.12.42.02.62-.18.08-.09.18-.16.27-.24.59-.53,1.34-.71,2.02-.45,1.39.52,2.8.59,4.24.53.49-.02.97,0,1.38.29.23.17.4.16.65.08,1.84-.57,1.85-.55,3.81-.05.23.06.39.05.65-.07.32-.14.68-.25,1.03-.26,1.42-.02,2.87-.28,4.21.49.11.06.41-.13.58-.26.33-.25.67-.17,1.02-.08.33.09.6.37,1.01.16.66-.34,1.41-.26,2.12-.34.85-.09,1.67.01,2.44.44.33.19.69.16,1.02-.03.67-.39,1.36-.38,2.08-.18.33.09.62.31,1.02.14.9-.38,1.87-.4,2.83-.38,1.8.03,3.6,0,5.39.07.57.02,1.17.39,1.69.28.62-.13,1.13-.17,1.72.08.43.18.92.26,1.39.28.6.03,1.2-.05,1.8-.04.65,0,1.12.36,1.46.89.14.22.12.43-.11.62-.27.23-.53.58-.84.62-.82.13-1.67.18-2.51.18-5.04,0-10.09-.02-15.13-.03-4.8,0-9.6,0-14.4,0,0,.01,0,.02,0,.03Zm-23.56,92.47s.02,0,.03,0c0,.84,0,1.68,0,2.52,0,.39.41.72.7.6.55-.23,1.12-.4,1.64-.68.77-.41,1.55-.61,2.42-.54.24.02.48.02.72.02,1.1-.04,2.11.22,3.1.74,2.34,1.22,4.62,2.51,6.34,4.59.15.18.36.32.52.5,1.3,1.47,2.95,2.42,4.73,3.17.66.28,1.37.43,2.02.72,1.04.45,2.17.51,3.16.16,1.05-.38,2.1-.49,3.17-.54.75-.03,1.37-.31,2.03-.61,2.07-.96,4.14-1.9,5.8-3.53,1.39-.61,2.26-1.67,2.86-3.06.4-.92,1.23-1.45,2.3-1.47.12,0,.27,0,.35-.07.17-.15.4-.31.45-.51.09-.34.2-.79.05-1.06-.96-1.79-1.76-3.66-2.89-5.37-.98-1.5-2.16-2.88-2.88-4.55-.18-.42-.55-.77-.86-1.13-.47-.55-.91-1.1-1.28-1.73-.43-.71-1.01-1.33-1.53-1.99-.44-.56-.9-1.11-1.35-1.67-1.27-1.59-2.48-3.23-3.81-4.76-.94-1.09-2.01-2.07-2.77-3.3-1.16-.88-1.86-2.17-2.81-3.24-.79-.89-1.44-1.91-2.23-2.81-1.27-1.44-2.49-2.92-3.5-4.55-.45-.73-1.04-1.31-1.68-1.85-.27-.22-.74-.23-.99,0-.52.5-1.05.98-1.54,1.51-1.31,1.41-2.79,2.6-4.4,3.67-1.91,1.27-3.95,2.24-5.99,3.24-1.4.68-2.8,1.36-4.3,1.78-.8.23-1.66.29-2.43.58-.81.3-1.61.45-2.46.42-1.2-.04-2.4-.06-3.59-.05-.2,0-.48.15-.59.32-.11.17-.14.48-.06.67.32.77,1.16,1.24,1.32,2.12.14.74.51,1.34,1.02,1.87.67.7,1.16,1.51,1.59,2.38,1.05,2.15,2.16,4.27,3.26,6.4.38.74.72,1.53,1.21,2.2,1.08,1.46,1.73,3.14,2.61,4.71.43.77.57,1.56.56,2.42,0,.6,0,1.2,0,1.8Z"/><path class="cls-1" d="m364.67,282.36c0,1.56-.03,3.12,0,4.68.05,1.96-.44,3.78-1.35,5.5-.73,1.38-1.32,2.8-1.78,4.3-.49,1.6-1.22,3.11-1.8,4.67-.62,1.67-1.26,3.35-1.66,5.11-.37,1.62-1.16,3.13-1.4,4.81-.12.81-.44,1.61-.75,2.38-.77,1.88-1.37,3.81-1.95,5.75-.14.46-.34.88-.54,1.32-.34.76-.7,1.54-.86,2.35-.27,1.43-.74,2.77-1.24,4.12-.13.35-.03.63.32.92.28.23.56.45.84.68.7.56,1.5.7,2.37.57.12-.02.25-.01.35-.07,1.18-.64,2.6-.39,3.78-1.01.79-.41,1.63-.35,2.46-.2.59.11,1.17.26,1.73.48.44.17.85.42,1.23.71.4.3.73.47,1.27.24.42-.18.93-.21,1.4-.21.34,0,.72.09,1.03.25.42.22.77.57,1.17.84,1.44.95,2.08,2.3,1.79,3.98-.12.72-.26,1.36.04,2.06.14.31.06.71.1,1.07.12,1.04-.29,1.88-.98,2.6-.43.45-.95.74-1.61.45-.11-.05-.21-.11-.33-.15-.81-.25-1.71.15-2.02.92-.04.1-.01.28.06.35,1.16,1.02,2.34,2.02,3.4,3.15.26.28.52.27.94-.03.39-.28.85-.51,1.12-.89,1.33-1.87,3.06-3.37,4.6-5.04.49-.53,1.09-.98,1.48-1.57,1.14-1.72,2.65-3.08,4.04-4.57.98-1.05,2.09-1.98,2.68-3.35.09-.21.28-.45.48-.52,1.2-.42,1.85-1.5,2.81-2.21.51-.37,1.46-.38,2.02.05.56.44,1.02.99,1.76,1.2.6.17,1,.66,1.22,1.24.13.36.36.6.7.77.21.11.51.2.58.38.53,1.32,1.03,2.65,1.49,4,.06.17-.08.47-.21.64-.53.65-1.12,1.25-1.63,1.91-.31.4-.31.92-.11,1.37.28.66.66,1.28.98,1.92,1.25,2.48,1.65,1.85-.58,4.23-.99,1.05-1.8,2.25-2.79,3.27-3,3.1-6.07,6.15-9.11,9.21-.67.68-1.48.73-2.33.48-.18-.05-.35-.29-.43-.48-.11-.24-.01-.48.19-.64.28-.23.66-.39.82-.68.4-.76.95-1.36,1.56-1.96.67-.66,1.37-1.3,1.76-2.24.22-.53.73-.94,1.15-1.37,1.59-1.64,3.19-3.25,4.79-4.89.75-.77,1.5-1.56,2.23-2.34.39-.42.43-1.11.1-1.67-.12-.2-.28-.38-.45-.55-.36-.35-.93-.39-1.31-.16-.53.31-1.05.69-1.29,1.22-.51,1.13-1.41,1.92-2.23,2.78-1.15,1.22-2.26,2.49-3.51,3.61-1.26,1.12-2.2,2.54-3.52,3.58-.69,1.12-1.48,2.15-2.48,3.04-.63.56-1.19,1.18-1.96,1.56-.31.15-.68.42-.78.72-.33.98-1.36,1.29-1.89,2.1-.51.79-1.26,1.44-1.9,2.15-.64.71-1.32,1.4-1.92,2.14-.37.46-.64,1.01-.94,1.53-.26.44-.09,1,.38,1.17.34.12.69.19,1.04.28.32.09.38.29.14.54-.25.25-.51.59-.81.65-.7.12-1.44.24-2.12-.11-.65-.33-1.31-.5-2.06-.5-1.69,0-3.34-.22-4.79-1.22-.18-.13-.45-.17-.68-.19-.36-.04-.71,0-1,.26-.3.27-.3.63-.26.98.05.51.37.88.65,1.26.45.59,1.1.9,1.72,1.26.25.14.31.82.09.95-.51.3-1.03.6-1.57.83-.19.08-.47.02-.7-.05-.46-.13-.89-.38-1.36-.45-.63-.09-1.16.15-1.52.72-.15.23-.11.41.05.65.46.74,1.23.61,1.92.75.34.07.64.28.65.72,0,.24.02.49.09.71.1.35.32.62.71.71.46.11.99.13,1.21.63.65,1.44,1.76,2.21,3.29,2.49.32.06.6.36.88.57.25.19.21.38-.04.59-.46.4-.92.78-1.59.5-.33-.14-.66-.38-.99-.38-.75-.02-1.39-.24-1.98-.7-.56-.44-1.15-.85-1.73-1.27-.58-.42-1.44-.38-2,.09-.36.31-.73.63-1.07.97-4.41,4.41-8.81,8.82-13.22,13.23-.42.42-.85.89-1.36,1.17-.55.31-.88.75-1.25,1.23-.44.56-.98,1.05-1.52,1.53-.44.4-1.1.64-1.37,1.12-.49.87-1.45,1.25-1.92,2.11-.48.88-1.36,1.32-2.19,1.81-.55.32-1.12.36-1.72.13-.32-.12-.61-.39-1-.18-.59.31-1.13.26-1.65-.19-.64-.54-1.27-1.1-1.96-1.58-.58-.4-1.21-.82-1.96-.27-.08.06-.24.05-.35,0-2.04-.75-3.96-1.69-5.4-3.4-.33-.4-.45-.88-.26-1.34,1.01-2.44,1.46-5.04,2.29-7.53.79-2.37,1.49-4.78,2.35-7.13.33-.91.34-1.86.74-2.76.54-1.19.81-2.5,1.39-3.68.16-.32.29-.66.38-1,.36-1.26.63-2.55,1.08-3.79.44-1.23,1.03-2.42,1.38-3.69.13-.46.32-.9.41-1.37.14-.72.1-1.44-.3-2.09-.31-.51-.82-.99-.91-1.53-.19-1.18-.68-2.29-.84-3.47-.25-1.8.41-3.27,1.71-4.51.66-.63,1.41-.91,2.28-.84.94.07,1.93-.04,2.76.61.23.18.8-.06.92-.32.33-.76.8-1.46.81-2.36.01-.83.18-1.65.5-2.45.53-1.32,1.11-2.65,1.07-4.13.61-1.06.56-2.31.95-3.43.51-1.46,1-2.94,1.54-4.39.5-1.34,1.05-2.66,1.57-4,.13-.33.27-.69.27-1.03,0-.75.28-1.4.58-2.05.45-.98.91-1.95,1.35-2.94.24-.53.02-1.26-.45-1.58-.6-.4-1.19-.82-1.81-1.17-.12-.07-.42.1-.6.22-.43.28-.55.77-.75,1.2-.41.86-1.1,1.2-2.05,1.11-.71-.06-1.43,0-2.13-.28-.43-.18-.92-.24-1.39-.32-.48-.08-.96-.04-1.4.18-.43.22-.87.41-1.26.68-.73.51-1.54.62-2.4.54-.96-.09-1.9-.17-2.67-.89-.62-.58-1.41-.89-2.21-1.15-.18-.06-.53.03-.64.18-.51.67-.99,1.42-.91,2.28.18,2.19-.59,3.98-2.01,5.58-.39.44-.61,1.03-.97,1.5-.73.97-1.27,2.02-1.49,3.23-.09.46-.41.89-.48,1.35-.14.88-.61,1.54-1.19,2.16-.3.32-.27.69.04.92.38.29.8.53,1.18.82.69.52.68,1.62-.01,2.19-.27.22-.6.38-.9.57-.52.32-.55.38-.09.61.8.41,1.35.96,1.47,1.89.06.47.08.99.3,1.39.46.86.41,1.86.89,2.72.4.72.59,1.56.84,2.36.11.34.15.72-.07,1.04-.5.7-.38,1.63-.89,2.33-.42.57-.71,1.23-1.14,1.82-1.52,2.07-2.16,4.5-2.57,6.98-.11.7,0,1.43.02,2.15.75,1.72.48,3.55.53,5.33.02.71-.06,1.46-.3,2.12-.4,1.05-.46,2.1-.44,3.18.02,1.56.07,3.12.09,4.68.01.6-.03,1.22-.37,1.74-1.38,2.13-1.9,4.65-3.09,6.87-.09.18-.06.49.02.68.62,1.39,1.52,2.42,3.2,2.43.47,0,.96.01,1.37.32.2.15.31.36.2.62-.08.2-.23.47-.4.51-1.31.28-2.63.09-3.94-.02-.32-.03-.66-.28-.93-.49-1.26-.99-2.07-2.3-2.66-3.77-.18-.46-.66-.65-1.21-.53-.69.15-1.37.42-2.07.51-.71.09-1.44.03-2.16.04-.24,0-.49.01-.71.1-1.83.73-3.76.61-5.67.7-1.46.07-2.83.47-3.92,1.54-.17.17-.35.36-.57.43-.79.26-1.59.5-2.41.69-.2.05-.51-.05-.65-.19-.49-.52-.97-1.06-1.37-1.65-.33-.49-.55-1.06-.8-1.6-.16-.35-.43-.55-.78-.67-.68-.22-1.34-.58-2.03-.67-1.04-.13-1.76-.66-2.44-1.38-.66-.71-1.35-1.39-1.35-2.45-.74-1.19-.7-2.53-.71-3.84,0-1.19.07-2.39.66-3.5.26-.49.04-.94-.36-1.26-.82-.67-1.07-1.57-1.06-2.56,0-.72.03-1.44.09-2.15.02-.21.15-.48.32-.6.48-.35,1-.65,1.52-.95.51-.29,1.29-.1,1.62-.64.53-.87,1.56-1.08,2.17-1.84,1.22-1.55,2.79-1.72,4.51-.93.24.11.44.16.66-.03.56-.46,1.16-.81,1.83-1.1.84-.36,1.26-1.09,1.14-2.04-.12-.98.05-1.87.51-2.77.43-.84.7-1.78.92-2.71.19-.76.6-1.3,1.24-1.67.43-.25.78-.56.99-1,.2-.41.45-.79.19-1.32-.2-.41-.28-.92-.28-1.39,0-1.92,0-3.84.06-5.76.04-1.21.47-2.33.93-3.44.23-.55.51-1.08.72-1.64.26-.66.36-1.42.75-1.99.53-.79,1.26-1.44,1.92-2.14.33-.35.68-.68,1.04-1,.55-.48.94-1.05,1.29-1.7.46-.83.95-1.67,1.5-2.43.7-.96,1.64-1.74,2.49-2.58.19-.19.45-.2.65-.07.6.37,1.31.58,1.68,1.28.22.42.56.78.87,1.15.56.66.9.72,1.51.32.6-.4,1.19-.8,1.79-1.2.42-.27.88-.37,1.37-.33.64.05,1.2-.08,1.52-.7.5-.98,1.3-1.71,2.04-2.5,1.01-1.07,1.65-2.33,1.62-3.87-.01-.6.09-1.2.1-1.79.01-.88.46-1.6.81-2.36.16-.34.57-.45.93-.46.35,0,.74.04,1.05.19,1.2.54,2.39,1.1,3.56,1.71,1.16.61,2.3.6,3.43-.02.54-.3,1.08-.48,1.7-.44,1.43.08,2.87.07,4.25.59.35.14.68-.15.96-.37.78-.6,1.19-1.48,1.69-2.29.2-.34.62-.49.89-.39,1.02.37,2,.82,2.88,1.46.18.14.42.27.63.28.21,0,.47-.11.61-.26.15-.16.22-.41.29-.63,1.01-3.06,2.01-6.11,3.02-9.17.78-1.37.6-3.04,1.38-4.42.11-.2.03-.49.12-.7.32-.77.74-1.51.99-2.3.25-.79.22-1.68.54-2.43.34-.8.33-1.64.59-2.43.22-.68.57-1.32.86-1.97.54-1.2.52-2.58,1.16-3.75.04-.9.56-1.56,1.1-2.21.34-.41-.12-.62-.21-.93-.06-.22-.18-.51-.09-.68.4-.73.78-1.5,1.31-2.13,1.46-1.75,2.77-3.6,4.07-5.47.74-1.07,1.61-2.07,2.42-3.09.82-1.03,1.78-1.94,2.7-2.89.16-.17.4-.25.61-.38.23-.14.81-.06,1.01.14.34.34.68.7.69,1.22.01,2.04,0,4.08,0,6.12,0,0,0,0,0,0Zm-63.41,71.47c.26.03.98.1,1.68.24.16.03.3.33.4.53.14.26.07.52-.2.6-.8.23-1.48.72-2.31.94-1.49.39-2.99.86-4.17,1.97-1.24.47-1.82,1.52-2.29,2.63-.37.88-.65,1.79-.94,2.7-.07.21-.01.48.03.71.02.1.16.27.22.26.92-.18,1.85-.3,2.69-.77.83-.47,1.71-.86,2.57-1.28.7-.35.79-.32,1.51.43.17.17.33.35.49.52.49.54.46,1.15-.07,1.52-1.49,1.02-3.04,1.88-4.88,2.14-.7.1-1.37.41-2.06.61-1.53.43-2.9,1.13-4.01,2.28-.58.6-1.22,1.13-1.93,1.61-.78.53-1.42,1.28-2.11,1.94-.22.21-.2.41,0,.62.66.7,1.37,1.33,2.19,1.84.33.21.31.62.33.98.03.47-.57.92-.97.75-2.24-.94-3.81-2.43-4.12-4.98-.03-.27-.27-.4-.48-.34-.46.13-.91.29-1.36.43-.23.07-.46.11-.68.21-.99.42-1.24,1.6-.49,2.32.86.83,1.74,1.65,2.61,2.48.25.24.16.58-.22.9-.3.25-.59.24-.96.11-.66-.23-1.05-.08-1.19.34-.15.45-.22.95-.45,1.36-.51.92-.41,1.87-.13,2.79.2.68.45,1.34.81,1.98.61,1.1,1.26,2.05,2.67,2.09.63.37,1.32.52,2.02.69,1.19.3,2.23.87,2.61,2.2.1.34.29.64.46.96.13.25.76.24.94-.02.21-.29.36-.62.58-.9.37-.49.84-.84,1.5-.85.36,0,.72-.04,1.08-.06.61-.03,1.17-.31,1.74-.38.55-.07,1.14.26,1.72.33,1.34.17,2.63,0,3.8-.74.2-.13.44-.19.65-.3.36-.2.68-.04,1.01.1.7.3,1.44.25,2.12.06.81-.23,1.58-.52,2.43-.61.88-.09,1.63-.57,2.04-1.33.78-1.44,2.15-2.64,1.96-4.51-.01-.1.08-.22.15-.32.51-.73.54-1.55.51-2.41-.09-2.39-.37-4.79.58-7.1.06-1.31.37-2.63-.34-3.88-.17-.29-.2-.69-.22-1.04-.04-.96-.05-1.92-.05-2.88,0-.84-.05-1.7.12-2.51.14-.69.42-1.37.66-2.03.49-1.33.85-2.71,1.78-3.89.73-.92,1.18-2.08,1.73-3.14.4-.77.53-1.55.05-2.37-.55-.95-.81-1.97-.84-3.08-.03-1.19-.74-2.27-.66-3.5.01-.19-.2-.43-.35-.59-.41-.44-.86-.84-1.28-1.27-.45-.46-.55-1.03-.56-1.65,0-.99.22-1.9.75-2.74.38-.61.79-1.2,1.12-1.82.07-.13-.08-.45-.22-.6-.14-.16-.38-.24-.6-.3-.07-.02-.2.11-.28.2-.71.79-1.6,1-2.61.88-.38-.04-.67-.24-.89-.53-.57-.77-.73-1.77-1.42-2.48-.25-.26-.7-.35-.94-.14-1.22,1.02-2.2,2.25-2.76,3.72-.57,1.52-1.4,2.77-2.87,3.52-.1.05-.15.18-.24.26-.36.34-.52.86-.25,1.29.47.75.63,1.54.54,2.41-.05.48-.06.96-.11,1.44-.06.63.12,1.15.47,1.67.39.59.86,1.16.9,1.92.01.25-.05.5-.29.6-.21.09-.51.16-.68.07-.3-.17-.62-.41-.78-.71-.22-.41-.33-.89-.45-1.35-.1-.37-.28-.63-.64-.79-.43-.2-.84-.44-1.27-.66-.26-.13-.78.18-.82.47-.03.24-.11.47-.12.71-.06,1.55.16,3.13-.53,4.61-.01.72-.04,1.44-.02,2.16,0,.22.18.43.3.63.19.33.68.5.88.28.78-.85,1.73-1.26,2.89-1.16.12.01.24,0,.82,0Zm68.47-15.29c-.02-.83.07-1.66-.29-2.47-.54-1.19-.63-2.57-1.48-3.63-.46-.57-1.02-1.02-1.84-.9-.12.02-.24.02-.36.05-1.26.23-2.35.04-3.29-.95-.39-.42-1-.64-1.53-.92-.47-.26-.96-.18-1.33.15-.76.66-1.47,1.27-2.53.53-.14-.1-.47,0-.68.07-.22.08-.41.24-.6.38-.19.14-.36.32-.55.46-.64.48-1.39.47-2.06.22-1-.38-1.93-.95-2.92-1.35-.57-.23-1.19-.14-1.72.2-.86.54-1.31,1.38-1.6,2.31-.02.06.11.22.19.25.45.11.91.19,1.36.3.25.06.43.7.26.9-.16.18-.28.41-.46.54-1.64,1.2-3.13,2.6-4.87,3.67-.5.31-.94.74-1.39,1.12-.26.22-.14.71.2.85.65.28,1.32.55,1.96.86.22.11.29.39.21.64-.11.34-.25.66-.39.99-.31.75-.85,1.11-1.68,1.06-.47-.03-.95.01-1.43.04-.25.01-.59.51-.55.82.04.35.02.73.14,1.05.59,1.64,1.18,2.44,2.88,3.98.38.35.57.76.56,1.26-.02.72-.09,1.44-.1,2.16,0,.75-.27,1.41-.65,2.03-.25.41-.47.85-.79,1.19-.51.54-.82,1.18-1.11,1.83-.64,1.42-1.3,2.82-2.09,4.15-.12.2-.25.43-.29.65-.05.35-.12.74-.02,1.06.29.91.69,1.79,1.36,2.5.33.34.7.66,1.11.91.15.09.55.05.65-.07.36-.47.58-1.05.96-1.49.88-1.02,1.51-2.13,1.77-3.47.14-.74.71-1.23,1.24-1.73.45-.42,1.4-.43,2-.02.74.5.92,1.16.5,1.83-.45.7-1.08,1.29-1.16,2.19-.02.22-.14.49-.3.64-1.28,1.16-1.9,2.73-2.71,4.19-.28.5-.79.89-1.22,1.3-.33.31-.99.38-1.32.05-.97-.97-2.31-1.21-3.44-1.85-.24-.14-.72.07-.93.36-.2.3-.47.58-.56.92-.39,1.38-.05,2.88-.73,4.23-.09.18-.02.49.07.69.48,1,.59,2.06.56,3.15-.02.48.01.96.04,1.44,0,.11.06.24.13.32.13.15.37.14.58-.07,2.04-2.02,4.09-4.05,6.11-6.09,1.01-1.02,2.08-2.01,2.93-3.16.86-1.15,2.24-1.81,2.87-3.17.14-.29.52-.5.82-.67.64-.37,1.14-.85,1.55-1.46.33-.49.72-.95,1.13-1.38,1.65-1.74,3.32-3.46,4.98-5.2.5-.52,1.06-1,1.46-1.59.68-1.01,1.51-1.85,2.35-2.71,1.6-1.62,3.19-3.26,4.77-4.89.33-.34.67-.69.96-1.07.3-.4.37-.87.28-1.36-.08-.48-.23-.92-.53-1.32-.66-.89-1.51-1.53-2.54-1.93-.33-.13-.56.1-.59.6-.03.6-.03,1.2.22,1.76.15.33.32.64.44.98.22.62-.12,1.3-.7,1.43-.35.07-.71.09-1.06.16-.34.08-.68.19-1.01.31-.3.11-.46.52-.37.87.27,1.09.17,1.28-.8,1.49-.23.05-.47.09-.71.11-.81.06-1.31.52-1.64,1.22-.05.11-.1.22-.16.32-.27.49-.74.57-1.23.55-.73-.02-1.43-.17-1.97-.73-.75-.78-1.51-1.54-2.25-2.32-.32-.34-.25-.93.12-1.29.36-.35.88-.7,1.27-.46,1.05.64,2.02.59,3.05.02.17-.1.47,0,.7.03.23.03.62.21.67.14.19-.29.27-.64.41-.97.09-.21.16-.5.33-.61.5-.32,1.05-.57,1.58-.84.44-.23.77-.53.81-1.08.05-.84.14-1.67.22-2.5.03-.35.31-.64.69-.72.57-.13,1.2-.02,1.72-.4.23-.16.43-.75.26-.94-.24-.26-.47-.56-.75-.76-.48-.35-1.07-.57-1.5-.96-.62-.56-1.21-1.18-1.67-1.87-.32-.48-.4-1.11-.59-1.68-.16-.49-.14-.53.39-.78,1.11-.53,1.45-.44,1.99.56.23.42.46.84.65,1.28.4.9,1.05,1.59,1.79,2.22.25.21.73.19.95-.1.14-.19.22-.42.36-.62.33-.46.83-.57,1.21-.26.47.37.91.78,1.4,1.1.12.08.47-.05.61-.19.15-.15.18-.42.27-.64Zm-31.21,18.77c.1-.06.22-.1.31-.18.98-.76,1.7-1.76,2.06-2.89.36-1.1.6-2.37-.68-3.24-.28-.19-.5-.5-.7-.79-.82-1.19-1.34-2.53-1.88-3.85.33-.6,0-1.14-.15-1.7-.03-.11-.07-.28-.01-.35.7-.87.54-2.07,1.15-2.99.45-.68.89-1.42.9-2.31,0-.21.17-.44.32-.61.16-.17.4-.25.59-.39,1.68-1.14,3.36-2.29,5.03-3.44.35-.24.34-.59-.02-.8-.31-.18-.63-.34-.92-.55-.4-.28-.47-.58-.26-.89,1.15-1.67,2.22-3.42,4.22-4.28.3-.13.6-.45.73-.76.44-.97,1.1-1.86,1.14-2.99.02-.61.24-1.16.5-1.71.36-.75.65-1.54,1.04-2.27.29-.54.51-1.06.52-1.69,0-.35.11-.71.22-1.04.38-1.13.99-2.22,1.14-3.37.16-1.21.8-2.24.96-3.42.08-.57.48-1.11.53-1.68.08-1.1.57-2.07.85-3.1.31-1.14.63-2.29,1.05-3.4.62-1.67,1.26-3.35,1.69-5.06.53-2.12,1.32-4.08,2.48-5.9.41-.64.53-1.32.54-2.05.01-1.2,0-2.4.07-3.6.07-1.19-.17-2.4.29-3.56.07-.19-.02-.45-.05-.68-.09-.71-.16-1.42-.29-2.13-.03-.18-.24-.35-.4-.49-.04-.03-.24.06-.31.14-.67.68-1.42,1.31-1.96,2.09-1.29,1.86-2.69,3.65-3.94,5.54-.8,1.21-1.6,2.3-1.42,3.9.11,1.05-.77,1.98-.74,3.11.01.43-.38.85-.56,1.29-.66,1.66-1.62,3.2-1.77,5.04-.03.34-.29.66-.36,1.01-.27,1.28-.98,2.45-.98,3.8-.61.95-.36,2.13-.83,3.1-.79,1.62-1.23,3.36-1.73,5.07-.83,2.86-1.92,5.63-2.8,8.47-.53,1.7-1.2,3.37-1.62,5.1-.5,2.1-1.14,4.14-1.92,6.15-.17.44-.3.9-.43,1.36-.42,1.49-.97,2.94-1.41,4.42-.27.9-.95,1.69-1.16,2.6-.25,1.05-.73,2.02-.97,3.06-.08.34-.32.64-.45.97-.63,1.66-1.75,3.14-1.78,5.03,0,.33-.25.66-.4.99-.24.55-.52,1.08-.72,1.64-.07.19,0,.49.12.67.73,1.12,1.63,2.05,2.92,2.56.66.26,1.29.62,1.93.93.1.05.2.07.31.1Zm-4.5,12.87c.2-.41.26-.52.3-.63.13-.41.04-.78-.25-.95-.31-.18-.66-.3-.94-.51-1.05-.79-2.08-1.61-3.12-2.41-.34-.27-1.03-.04-1.14.41-.49,1.98-1.37,3.82-1.93,5.77-.46,1.6-1.06,3.17-1.66,4.73-.64,1.67-1.18,3.38-1.79,5.05-1.11,3.02-1.83,6.19-3.34,9.07-.33.63-.51,1.34-.72,2.02-.15.47-.13.97.22,1.36.4.45.82.88,1.27,1.26.53.44,1.53.41,2-.05,1.46-1.42,2.92-2.86,4.37-4.29.17-.17.35-.34.47-.54.48-.84,1.04-1.56,1.89-2.11.79-.51,1.15-1.49,1.98-2.05.8-.54,1.29-1.38,1.52-2.35.3-1.28.73-2.53.58-3.88-.11-.94.14-1.92-.44-2.8-.11-.16-.06-.49.03-.69.41-.9.4-1.87.47-2.82.06-.84.02-1.68.07-2.52.03-.47.16-.93.18-1.08Zm1.53-4.16c.25-.14.36-.36.23-.61-.45-.92-.39-1.75.05-2.7.51-1.09,1.11-2.1,1.82-3.05.28-.37.19-.52-.37-.73-.45-.17-.88-.42-1.34-.48-.89-.12-1.52-.63-2.16-1.17-.93-.77-1.71-1.65-2.26-2.73-.33-.64-.82-1.16-1.39-1.61-.61-.49-1.87-.14-2.08.62-.16.57-.26,1.15-.37,1.73-.04.22-.15.48-.07.66.44,1.1.54,2.35,1.22,3.33.88,1.26,1.55,2.67,2.68,3.76.6.58,1.15,1.19,1.63,1.89.48.7,1.25,1.07,2.1,1.2.1.01.21-.06.31-.1Zm40.7-14.82c0-.12.03-.28-.03-.35-.81-1.03-1.63-2.06-2.47-3.06-.46-.55-1.81-.52-2.28.04-.14.16-.27.55-.19.64,1.09,1.27,2.17,2.55,3.47,3.62.15.12.43.18.63.14.39-.06.87-.69.87-1.03Z"/><path class="cls-1" d="m203.19,255.26c0,.6-.03,1.2,0,1.8.06,1.09-.04,2.14-.42,3.17-.06.15.11.52.26.59.16.07.43-.1.63-.2.09-.05.19-.18.19-.29.09-1.21.7-2.3.84-3.47.13-1.08.41-2.11.59-3.16.24-1.41.16-2.87.26-4.3.01-.17.27-.39.46-.45.2-.06.51,0,.66.12.98.79,1.46,1.87,1.59,3.11.12,1.1-.26,2.12-.48,3.16-.02.09.08.23.16.3.04.04.19,0,.26-.06.43-.27.67-.68.76-1.17.21-1.05-.01-2.18.56-3.17.05-.09.06-.24.04-.35-.04-.23-.07-.48-.18-.68-.59-1.12-.1-2.09.39-3.06.18-.35.57-.45.84-.19.52.5,1.17.93,1.51,1.53.7,1.27,1.75,2.27,2.51,3.49.31.5.52,1.07.99,1.47,1.1.95,1.95,2.1,2.63,3.38.06.1.16.18.22.28.66.99,1.32,1.99,1.98,2.98.04,1.1.81,1.98.87,3.09.03.54.88.93,1.44.63,1.19-.63,2.56-.59,3.77-1.12.22-.1.46-.12.69-.18.93-.22,1.92-.04,2.81-.5.78-.4,1.64-.28,2.47-.35.73-.06,1.39-.29,2.07-.54.44-.16.94-.21,1.41-.18.33.02.65.25.96.42.09.05.13.19.18.3.85,1.72,1.78,3.38,2.82,5,.84,1.3,1.63,2.65,2.45,3.97.39.63.93,1.07,1.7,1.21.47.08.9.32,1.36.46.47.14.97.16,1.41-.05.93-.44,1.81-.39,2.78-.03,1,.37,2.12.25,3.13.75.5.25,1.18.15,1.77.19.84.05,1.68.08,2.52.1.7.01,1.32.65,2.07.23.67.31,1.39.34,2.11.39.95.07,1.91.14,2.86.22,1.4.71,3.05.62,4.42,1.44.63.38,1.3.56,2.04.61,1.49.1,2.07,1.16,2.26,2.38.02.12-.27.4-.44.43-.97.17-1.89-.06-2.81-.37-1.24-.43-2.45-.98-3.77-1.17-1.04-.7-2.33-.51-3.44-.94-1.15-.45-2.36-.36-3.55-.45-.84-.06-1.66-.12-2.48-.39-.67-.22-1.41-.2-2.13-.27-1.54-.14-3.13.09-4.61-.6-1.32.01-2.63.03-3.95.05-.25,0-.53.67-.36.89.36.47.67,1.01,1.12,1.39.83.7.99,1.59.95,2.59-.08,2.02-1.2,3.31-2.9,4.21-.75.06-1.31.51-1.94.87-1.76,1.02-3.55,1.97-5.53,2.54-1.26.36-2.5.8-3.74,1.21-.08.03-.17.16-.17.25,0,.11.05.26.13.33.28.21.58.52.9.55,1.67.2,3.35.39,4.94-.41,1.2-.13,2.26-.74,3.46-.91,1.44-.2,2.66-1.04,3.91-1.75.45-.25.8-.16,1.22.32.16.18.3.37.45.56.07.1.13.2.19.3.13.21.13.44-.04.66-.45.58-.96,1.12-1.7,1.25-.73.13-1.33.53-2.01.74-.68.21-1.36.43-2.04.64-1.36.42-2.71.94-4.16,1.03-.11,0-.21.11-.31.17.12.2.21.43.37.59.17.16.39.29.61.35.7.18,1.44.24,2.12-.01,1.34-.51,2.78-.65,4.13-1.17,1.23-.48,2.39-1.1,3.6-1.62.33-.14.65-.29.98-.44.22-.09.74.16.9.45.18.31.33.64.5.96.12.22.07.42-.17.6-.29.21-.55.48-.88.6-.56.21-1.14.31-1.69.59-1.07.54-2.13,1.14-3.27,1.47-1.02.3-2.13.25-3.2.37-.11.01-.21.11-.32.16.11.2.19.43.35.58.16.16.38.3.61.37,1.18.34,2.38.26,3.57.15.35-.03.69-.19,1.01-.33,3.79-1.6,7.19-3.79,10.14-6.67.52-.51,1.02-1.01,1.35-1.67.56-1.1,1.49-1.86,2.42-2.61.55-.45,1.6-.24,1.84.42.12.33.3.65.48.96.21.34.21.69.06,1.02-.35.76-.73,1.51-1.09,2.26-.12.25.06.78.33.95,1.52.96,3.04,1.91,4.84,2.28.27.06.53.65.4.88-.3.52-.61,1.03-.93,1.53-.14.22-.73.39-.98.28-1.09-.46-2.32-.64-3.27-1.4-.96-.77-2.21-.89-3.24-1.51-.43-.26-1.23.12-1.53.62-.12.21-.24.42-.34.63-.16.33-.23.64-.06,1.01.71,1.52,1.45,3.03,2.39,4.42.88,1.29,1.55,2.69,2.22,4.09.09.19.05.47.01.7-.05.38-.27.64-.65.77-.36.13-.59.38-.38.79.13.25.11.46-.12.64-.37.3-.79.55-1.12.89-.23.24-.39.59-.5.91-.12.34.06.87.28.97,1.08.5,2.12,1.13,3.25,1.47,1.5.46,2.9,1.13,4.29,1.81,3.01,1.47,5.94,3.11,8.95,4.59,1.07.53,1.96,1.34,3.12,1.75,1.22.44,2.31,1.22,3.47,1.84,1.06.56,2.12,1.11,3.19,1.64,1.19.58,2.34,1.23,3.27,2.18.53.54,1.21.75,1.8,1.15.49.33.9.78,1.33,1.19.3.29.09,1.12-.3,1.21-1.21.29-2.37.3-3.42-.5-.1-.07-.18-.16-.28-.22-1.54-.9-3.15-1.71-4.61-2.73-1.48-1.03-3.09-1.8-4.71-2.56-.76-.36-1.52-.69-2.19-1.23-.55-.45-1.2-.79-1.84-1.11-1.18-.58-2.3-1.28-3.41-1.98-1.62-1.01-3.36-1.84-5.1-2.63-.87-.4-1.69-.93-2.57-1.28-.88-.35-1.84-.5-2.74-.81-2.14-.74-4.29-1.44-6.38-2.34-1.43-.61-2.88-1.16-4.33-1.72-.33-.13-.69-.2-1.03-.29-.58-.15-1.17-.27-1.74-.44-.91-.28-1.8-.68-2.72-.89-.93-.21-1.92-.13-2.77-.67-1.59-.05-2.99-.82-4.49-1.2-.11-.03-.26-.17-.32-.14-1.12.69-2.08-.18-3.09-.37-.93-.17-1.85-.46-2.78-.67-1.27-.29-2.5-.76-3.84-.74-.33,0-.66-.26-1.01-.35-.34-.09-.75-.28-1.03-.17-1.08.42-2.11,0-3.16-.04-.96-.04-1.92-.06-2.88-.11-3.48-.19-6.96.03-10.44.05-.36,0-.76-.04-1.07.1-1.34.63-2.86.33-4.21.89-.43.18-.93.27-1.4.28-1.6.04-3.04.64-4.43,1.31-2.26,1.09-4.57,2.09-6.67,3.51-.79.53-1.71.86-2.55,1.31-1.06.57-2.02,1.27-2.87,2.14-2.04,2.07-3.67,4.4-4.88,7.05-1.09,2.39-2.18,4.78-2.89,7.31-.13.46-.3.93-.3,1.39,0,2.04.03,4.08.08,6.12,0,.35.13.71.28,1.03.25.56.32,1.15.35,1.75.03.47.03.99.22,1.4.36.78.46,1.6.57,2.43.2,1.55.57,3.05,1.36,4.42.36.62.66,1.28.96,1.93.51,1.1,1.23,2.04,2.09,2.89.68.67,1.38,1.34,1.99,2.07.57.68,1.3,1.03,2.07,1.38.37.17.66.11.95-.14.54-.48,1.19-.87,1.61-1.43,1.47-1.97,3.62-3.13,5.44-4.68.18-.15.4-.31.62-.36,1.17-.26,2.38-.4,3.26-1.35,1.13-.37,2.25-.76,3.39-1.12,1.02-.32,2.02-.75,3.15-.6.32.04.7-.14,1.02-.28.45-.19.9-.32,1.39-.33,1.8-.01,3.6-.04,5.4-.05.24,0,.49,0,.72.06.69.21,1.36.45,2.04.68.55.18,1.09.54,1.7.2.54.24,1.12.42,1.61.73,2.21,1.42,4.39,2.89,6.59,4.33.9.59,1.42,1.64,2.51,2,.35.12.45.52.6.84,1.09,2.26,2.74,4.17,4.04,6.3.25.41.54.83.92,1.1,1.33.92,2.05,2.32,2.96,3.57.35.48.57,1.14,1.03,1.45,1.13.76,1.7,2,2.66,2.88.27.24.53.49.83.7,2.73,1.94,5.56,3.74,8.61,5.15.85.4,1.81.68,2.74.79,1.56.19,2.96.94,4.52,1.06.86.53,1.83.5,2.79.58,1.3.11,2.63-.04,3.91.48.52.21,1.18.1,1.78.1,2.4-.03,4.8-.04,7.2.21.36.04.66.24.9.53.5.63.4,1.49-.29,1.87-.63.34-1.28.66-1.95.89-.32.11-.76.11-1.06-.03-1.02-.44-2.07-.55-3.16-.5-.72.03-1.44.01-2.16,0-.95-.02-1.92.08-2.8-.46-.17-.11-.51-.1-.69,0-.84.45-1.61.3-2.38-.15-1.37.16-2.5-.73-3.82-.86-1.31-.13-2.51-.77-3.77-1.13-1.26-.36-2.56-.56-3.79-1.02-.18-.07-.45.06-.65.16-.24.12-.22.33-.09.6.16.32.33.65.38,1,.08.6.07,1.26-.35,1.71-1.39,1.49-2.23,3.42-3.82,4.75-.72.6-.86,1.75-1.87,2.11-.44.71-.86,1.43-1.32,2.12-.12.19-.33.36-.54.45-.58.25-1.02.68-1.3,1.2-.31.56-.7.94-1.29,1.16-1.13,1.45-2.95,2.02-4.21,3.29-.79.33-1.37.95-2.02,1.49-.56.47-1.14.87-1.89.98-.23.03-.48.13-.65.28-1,.91-2.21,1.42-3.43,1.91-.44.18-.85.51-1.3.56-.97.11-1.74.74-2.75.8-1.19.07-2.3.62-3.42,1.02-.46.16-.82.58-.83,1.09-.02,1.8,0,3.6.02,5.4,0,.88-.32,1.18-1.36,1.18-.23,0-.49-.03-.7-.12-.2-.09-.47-.26-.51-.44-.34-1.29-.19-2.62-.29-3.93-.07-1.01-.61-1.79-1.58-2.21-.55-.23-1.06-.56-1.69-.55-.24,0-.48,0-.72,0-1.57-.01-3.09-.35-4.56-.86-1.13-.39-2.3-.63-3.43-.97-1.13-.34-2.15-1.06-3.29-1.42-1.26-.39-2.42-.97-3.61-1.51-.24-.11-.41-.01-.56.24-.72,1.17-.79,2.49-.88,3.81-.02.27-.46.62-.78.6-.48-.02-.96-.02-1.42-.12-.18-.04-.39-.3-.45-.5-.18-.59-.16-1.22.08-1.76.45-.98.53-2.09,1.1-3.03.1-.17.08-.5-.01-.69-.36-.75-.68-1.54-1.3-2.14-.69-.67-1.41-1.31-2.03-2.04-1.15-1.38-2.24-2.81-3.34-4.22-.14-.18-.23-.42-.29-.65-.43-1.62-1.23-3.1-1.74-4.7-.46-1.47-1.03-2.93-1.7-4.33-.25-.52-.22-1.17-.32-1.76-.06-.31-.22-.43-.46-.33-.11.04-.23.09-.3.18-.13.19-.37.45-.32.6.2.58.39,1.13.1,1.73-.33.68-.38,1.39-.05,2.08.32.67.36,1.39.37,2.11.03,3.24.04,6.48.04,9.71,0,.69-.43,1.15-1.07,1.2-.48.04-.96.06-1.44.06-.24,0-.47-.07-.71-.11-.39-.06-.94-.7-.81-1.04.36-.93.25-1.9.33-2.85.05-.6-.02-1.19-.27-1.76-.37-.82-.29-1.63.13-2.42.23-.44.26-.96.06-1.4-.36-.79-.44-1.59-.44-2.45,0-3.6-.05-7.2-.06-10.8,0-.6.02-1.21.13-1.79.09-.47.36-.9.82-1.13.68-.35,1.4-.21,2.1-.09.1.02.2.14.27.23.37.52.4.74.46,2.28,0,.08.19.22.27.21.22-.02.54-.05.61-.19.16-.3.24-.67.27-1.02.13-1.18-.02-2.41.58-3.52.11-.2.12-.48.09-.7-.2-1.39.48-2.58.94-3.79.59-1.56,1.19-3.14,2.33-4.42.23-.26.15-.68-.11-.95-.42-.44-.89-.8-1.46-.99-.11-.04-.27-.04-.35.02-.3.2-.6.4-.85.64-1.9,1.83-3.79,3.67-5.69,5.51-.22.22-.78.23-.98,0-.48-.53-.95-1.07-1.42-1.62-.07-.08-.07-.22-.08-.33,0-.12-.03-.31.03-.35,1.77-1.06,3.01-2.73,4.55-4.04.54-.46,1.01-1.02,1.51-1.54.19-.2.19-.83-.01-.99-.28-.22-.58-.42-.86-.65-.75-.61-1.44-1.26-1.84-2.17-.59-1.32-1.62-2.36-2.28-3.65-.72-1.4-1.44-2.76-1.35-4.39.01-.23-.03-.49-.14-.7-.58-1.11-.54-2.33-.6-3.52-.04-.85-.19-1.64-.47-2.44-.23-.66-.2-1.42-.27-2.13-.05-.52-.4-.84-.94-.85-.48,0-.96-.03-1.44.02-1.43.15-2.25-.58-2.74-1.82-.09-.22-.22-.42-.32-.64-.09-.22.01-.47.31-.5.84-.07,1.66.12,2.46.38.44.14.94.16,1.41.16.54,0,1.27-.56,1.35-1.04.39-2.65,1.54-5.01,2.85-7.3.42-.73.86-1.45,1.2-2.21.44-1,1-1.91,1.75-2.7.74-.78.98-1.92,1.94-2.56.38-.25.68-.7.88-1.12.54-1.14,1.4-1.9,2.5-2.48.63-.34,1.18-.82,1.77-1.23.59-.41,1.21-.78,1.8-1.19.6-.41,1.41-.3,1.97-.83.62-.59,1.34-1.02,2.24-1.01,1.11-.69,2.57-.68,3.51-1.72,1.1-.41,2.06-1.17,3.33-1.19.82-.01,1.51-.74,2.4-.64.76.08,1.38-.33,2.04-.6.32-.13.71-.12,1.06-.14,1.08-.04,2.16-.07,3.24-.08.51,0,.91-.27,1.34-.47.73-.35.79-.46.52-1.01-.63-1.29-1.21-2.61-1.92-3.86-.65-1.14-1.48-2.18-2.18-3.29-.58-.91-1.16-1.83-1.61-2.8-.7-1.53-1.44-3.03-2.67-4.22-.45-1.13-1.43-1.91-1.92-3-.26-.58-.68-.96-1.17-1.32-1.18-.86-1.18-.89-.74-2.35.14-.45.03-.59-.52-.63-.47-.04-.95.1-1.4-.12-.28-.14-.37-.33-.17-.58.29-.37.59-.75.93-1.08.44-.43.78-.89.79-1.55,0-.48.05-.96.08-1.44.06-.95.07-1.9.47-2.82.23-.53.21-1.17.26-1.76.08-.84.18-1.65.48-2.46.25-.66.29-1.4.35-2.12.09-1.07-.01-2.14.43-3.18.22-.52.16-1.18.17-1.78.01-1.08-.05-2.17.48-3.17.08-1.31.16-2.63.23-3.94.03-.48.05-.95.07-1.43.02-.27.44-.6.77-.64.51-.05.99.02,1.24.49.34.63.7,1.26.69,2.02-.02,1.08,0,2.16,0,3.24h.03Zm9.02,143.47h0c.36,0,.72,0,1.08,0,2.86.03,2.85-.01,6.38-.74,1.55-.32,2.92-1.06,4.33-1.69,2.08-.93,3.9-2.32,5.88-3.44.83-.47,1.5-1.2,2.32-1.68,1.91-1.11,3.22-2.85,4.73-4.38.74-1.41,1.97-2.41,3.05-3.51,1.1-1.12,2.11-2.29,2.9-3.64.3-.51.58-1.04.93-1.52.77-1.07,1.54-2.14,2.87-2.61.42-.15.35-.75-.07-1.06-.67-.5-1.47-.74-2.14-1.27-2.07-1.61-4.39-2.88-6.35-4.65-1.17-.47-1.89-1.47-2.63-2.39-1.34-1.68-2.64-3.41-3.82-5.2-.6-.91-1.23-1.77-1.99-2.53-2.03-2.05-3.83-4.28-5.5-6.62-1.19-1.67-2.66-3.02-4.37-4.18-1.45-.99-3.03-1.42-4.69-1.57-1.55-.14-3.11-.05-4.67-.02-.59.01-1.23.04-1.76.26-.8.33-1.63.32-2.46.46-.94.16-1.84.5-2.78.64-.72.11-1.37.33-2.04.61-1.58.66-2.92,1.62-4.14,2.8-1.38,1.33-2.68,2.72-4.25,3.86-.96.7-1.74,1.65-2.58,2.49-.43.43-.69.96-.98,1.49-.59,1.05-.84,2.23-1.37,3.3-.32.64-.5,1.34-.77,2-.45,1.12-.65,2.27-.79,3.47-.16,1.29-.59,2.55-.5,3.89.05.71.04,1.42.27,2.13.18.56.24,1.17.26,1.76.05,1.36.88,2.46,1.14,3.75.94,1,1.08,2.38,1.69,3.52.62,1.17.92,2.45,1.5,3.63.69,1.4,1.35,2.81,2.56,3.85.27.23.5.53.69.83.92,1.46,2.43,2.27,3.63,3.42,2.24,1.11,4.22,2.75,6.75,3.26,2.07,1.1,4.32,1.33,6.61,1.3.36,0,.72,0,1.08,0Zm21.73-127.01c-2.07.15-4.61-.13-7.05.68-.44.15-.96.04-1.43.1-.59.07-1.19.15-1.77.29-1.97.5-3.91,1.1-5.96,1.19-.24.01-.48.04-.71.11-1.72.5-3.39,1.17-5.19,1.38-.34.04-.66.3-1,.39-2.54.69-4.98,1.67-7.47,2.49-.67.22-1.31.58-1.92.94-.14.08-.24.48-.16.63,1.95,3.43,4.28,6.62,6.28,10.03,1.45,2.48,3.14,4.82,4.28,7.47.34.8.91,1.4,1.52,1.98.26.25.55.45.93.49.59.06,1.25.04,1.76.3.8.4,1.37-.26,2.05-.22,1.66.08,3.36-.22,4.99.41.43.17.94.13,1.42.16.96.05,1.92.05,2.87.11,1.07.06,2.17.01,3.16.57,1.35-.01,2.53.79,3.84.84,1.46.05,2.82.45,4.2.81,1.03.28,1.99.78,3.11.72.34-.02.7.14,1.04.25,1.7.56,3.37,1.3,5.11,1.67,1.76.37,3.44.93,5.13,1.52.46.16,1,.16,1.35-.21.7-.75,1.51-1.13,2.54-1.14.75,0,1.32-.55,1.98-.81.54-.21.7-.69.47-1.14-.28-.53-.49-1.11-.86-1.57-.61-.77-.91-1.63-1.22-2.55-.41-1.24-1.05-2.42-1.94-3.42-.24-.27-.54-.34-.93-.12-.51.3-1.07.56-1.51.94-.57.5-1.33.55-1.91.96-.8.58-1.89.35-2.65,1-.59.09-1.18.17-1.77.27-.47.08-.94.14-1.39.27-.25.07-.44.1-.69.03-.92-.27-1.89-.39-2.75-.77-1.2-.54-2.45-.94-3.61-1.59-.85-.48-1.65-.97-2.21-1.78-.42-.6-.94-1.06-1.65-1.34-.68-.27-1.26-.71-1.65-1.34-.43-.71-.7-1.55-1.51-1.95-.69-.34-1.1-.9-1.42-1.56-.05-.11-.1-.22-.15-.33-.36-.81-.1-1.82.61-2.23.83-.48,1.69-.85,2.6-1.18,2.02-.73,4.09-1.3,6.08-2.11.33-.13.72-.15,1.01-.33.92-.56,1.83-1.14,2.68-1.79.56-.43,1.02-1,1.51-1.52.08-.08.14-.21.14-.32,0-.11-.09-.21-.14-.32-.5-.96-.77-2.01-1.18-3-.55-1.31-1.4-2.5-2.15-3.73-.26-.43-.74-.6-1.24-.61-1.68-.01-3.36,0-5.47,0Zm.07-2.79s0-.06,0-.08c1.08,0,2.16,0,3.24,0,.29,0,.64-.44.61-.74-.03-.24.01-.51-.1-.7-.52-.94-1.05-1.87-1.63-2.78-.18-.28-.55-.57-.89-.44-1.28.47-2.6.38-3.91.42-.59.02-1.21.05-1.77.22-1.59.5-3.22.85-4.82,1.29-.57.16-1.12.5-1.7.55-.86.08-1.61.39-2.36.78-1.27.67-2.51,1.41-3.98,1.56-2.43,1-4.99,1.66-7.32,2.9-1.48.78-2.96,1.56-4.43,2.35-.2.11-.37.3-.54.47-.08.08-.21.26-.18.29.16.21.41.3.64.2,1.74-.78,3.53-1.44,5.31-2.1.45-.17.89-.45,1.34-.45,1.35-.02,2.56-.63,3.85-.79.86-.11,1.57-.6,2.39-.71.83-.12,1.68-.09,2.51-.19.46-.06.9-.32,1.36-.41,1.18-.22,2.25-.83,3.47-.88,1.67-.07,3.35-.01,4.96-.62.43-.16.95-.1,1.43-.11.84-.02,1.68,0,2.52,0Zm-21.04-1.42c1.9-.57,3.76-1.33,5.55-2.27.47-.25.6-.66.36-1.19-.2-.43-.35-.9-.61-1.29-1.53-2.27-3.06-4.53-4.64-6.77-.34-.48-.85-.83-1.3-1.22-.04-.04-.24.03-.29.11-.22.27-.58.57-.58.85.02,1.71-.71,3.24-1.14,4.83-.12.46-.41.89-.43,1.35-.06.98-.52,1.83-.69,2.76-.18.94-.38,1.85-.74,2.75-.17.42-.11.94-.14,1.41-.02.37.37.59.71.44,1.29-.6,2.5-1.4,3.95-1.75Zm-30.64,104.09c-.05-.23-.1-.45-.16-.68-.08-.32-.6-.39-.86-.13-.37.37-.39,1.22,0,1.61.14.13.42.13.64.14.07,0,.18-.16.22-.26.07-.22.11-.45.16-.67Z"/><path class="cls-1" d="m144.97,79.7c0,2.63-.03,5.39.01,8.15.02,1.42-.26,2.89.46,4.24.02,1.32.06,2.64.04,3.96-.01,1.07.23,2.18-.42,3.16-.13.95-.27,1.93.07,2.85.31.81.35,1.62.36,2.47.05,4.44.12,8.88.16,13.32,0,.72-.08,1.44-.09,2.15-.02,1.32,0,2.64-.04,3.96-.04,1.43.09,2.87-.44,4.27-.25.66-.16,1.43.12,2.12.27.69.32,1.4.32,2.12,0,3.6.03,7.2.02,10.8,0,1.19,0,2.39-.44,3.55-.15.4-.06.96.09,1.4.23.69.41,1.37.4,2.1-.03,2.4-.05,4.8-.04,7.2,0,.73-.09,1.41-.37,2.1-.17.42-.18.93-.18,1.4,0,1.68.04,3.36.01,5.04-.01.81.59,1.61.04,2.43.08.34.13.7.26,1.03.19.47.23.94-.02,1.38-.32.55-.42,1.15-.18,1.72.29.68.47,1.36.41,2.09-.13,1.42.23,2.88-.3,4.29-.1.27.2.66.23,1,.25,3.6.1,7.2.02,10.8-.01.46-.27.91-.36,1.38-.13.71-.23,1.45.07,2.12.36.8.3,1.64.41,2.46.15,1.18-.51,2.28-.18,3.52.27,1.02.16,2.15.16,3.23,0,1.8-.06,3.6-.08,5.4,0,.6-.12,1.18-.3,1.76-.33,1.06-.31,2.11.2,3.14.22.44.16.93.02,1.41-.1.33-.26.62-.16,1.02.4,1.65.52,3.31-.18,4.94-.06,1.31-.27,2.58.16,3.92.44,1.36.39,2.84-.03,4.25-.22.72-.23,1.41.05,2.1.1.24.09.45,0,.7-.12.34-.19.69-.23,1.05-.08.7.45,1.32.11,2.1-.22.51-.12,1.17-.15,1.77-.05.84-.04,1.68.3,2.48.21.48.11.94-.09,1.39-.15.35-.17.71-.04,1.05.21.58.36,1.14.06,1.73-.28.56-.32,1.19-.08,1.74.37.84.18,1.61-.03,2.43-.17.66.44,1.38-.03,2.07.12.81.1,1.6-.06,2.43-.18.93-.04,1.91-.05,2.87,0,.84-.03,1.68-.03,2.52,0,.84.05,1.68.07,2.52.01.48.02.96,0,1.44-.26,5.52-.14,11.04-.11,16.55.02,3.36-.07,6.72-.09,10.07,0,.61-.15,1.18-.4,1.73-.15.33-.12.68.05,1.03.44.91.42,1.88.12,2.8-.42,1.29-.3,2.61-.38,3.92,0,.11.06.24.12.33.29.43.32.85.08,1.33-.16.31-.15.66.03,1.02.61,1.26.53,2.55.07,3.84-.13.35-.22.71-.06,1.04.35.71.29,1.38-.08,2.06-.28.51-.19,1.19-.71,1.6-.08.06-.25.09-.35.05-.93-.39-1.6-1.12-1.85-2.04-.28-1.03-1.06-1.89-1.02-3.04,0-.2-.2-.43-.36-.6-.16-.17-.37-.29-.58-.4-.03-.02-.19.12-.24.22-.96,1.88-2.16,5.29-2.32,7.12-.11,1.2-.67,2.3-.66,3.52.01,1.08-.03,2.16-.08,3.24-.04.83-.13,1.65-.35,2.48-.4,1.51-.39,3.07-.02,4.62.11.46.23.93.28,1.4.15,1.42.06,2.88.65,4.25.13.31.07.71.11,1.07.11,1.07.21,2.14.32,3.21.7.92.31,2.12.83,3.1.5.95.68,2.03,1.13,3.02.54,1.19.94,2.45,1.3,3.7.52,1.85,1.22,3.6,2.08,5.32,1.51,3,3.3,5.83,5.08,8.67,1.72,2.75,3.61,5.36,5.49,7.99.21.29.44.57.68.83,1.24,1.31,2.48,2.61,3.72,3.92.78,1.54,2.24,2.48,3.29,3.79.32.4.96.4,1.26.04.37-.47.66-1.01,1.09-1.41.43-.4.98-.66,1.5-.96.06-.03.21.04.29.1,1.01.75,1.03,1.37.48,2.09-.51.67-.99,1.35-1.49,2.02-.57.77-1.14,1.53-1.72,2.29-.17.22-.39.26-.62.18-.46-.14-.91-.33-1.38-.39-.53-.07-.89-.35-1.17-.74-.28-.39-.46-.85-.75-1.22-.21-.26-.54-.43-.82-.63-.08.22-.22.44-.22.66-.04,3.48-.06,6.96-.08,10.44,0,.6.03,1.2.01,1.8-.03.97-.11,1.89-1,2.57-.35.26-.47.81-.75,1.19-.23.32-.62.3-.98.28-.33-.02-.71-.36-.72-.67-.04-.96-.08-1.92-.08-2.87,0-1.68-.03-3.36.09-5.03.05-.7.24-1.35-.06-2.06-.18-.43-.1-.95.14-1.39.18-.33.18-.62.03-.98-.43-1.03-.31-2.12-.21-3.2.03-.34.19-.69.34-1.01.25-.55.52-1.08.79-1.62.18-.36.13-.7-.09-1.01-.63-.88-1.31-1.71-2.14-2.43-1-.87-1.74-1.95-2.45-3.07-1.22-1.92-2.57-3.75-3.82-5.65-1.58-2.4-3.07-4.86-4.57-7.31-1.37-2.23-2.67-4.55-3.39-7.12-1.14-2.12-1.71-4.46-2.56-6.68-.77-2.01-1.11-4.15-1.64-6.23-.47-1.85-.93-3.72-.81-5.66.02-.35.02-.75-.11-1.06-.59-1.38-.44-2.83-.46-4.26-.02-1.2-.1-2.42.06-3.6.19-1.42.53-2.8.5-4.26-.03-1.44.14-2.88.13-4.32,0-.99.24-1.88.57-2.79.57-1.57,1.03-3.18,1.58-4.76.23-.68.55-1.33.87-1.97.49-.98,1.34-1.33,2.39-1.21.35.04.71.15,1.01.32.29.16.46.19.57-.1.57-1.46.93-2.95.88-4.54-.05-1.44-.01-2.88-.03-4.32,0-.35,0-.75-.14-1.06-.68-1.36-.38-2.83-.51-4.25-.04-.49.2-.93.43-1.35.18-.34.16-.68.01-1.03-.14-.32-.26-.63-.08-1.01.37-.79.22-1.65.21-2.48,0-.46-.31-.93-.31-1.39,0-.46.26-.91.33-1.38.06-.35.11-.76-.02-1.07-.34-.78-.06-1.63-.32-2.4-.24-.72-.2-1.41.14-2.09.35-.7.28-1.37-.02-2.07-.28-.65.16-1.41-.24-2.06,0-.96-.04-1.92-.01-2.88.01-.35.19-.68.29-1.03.29-1.06.4-2.13,0-3.17-.19-.5-.06-.89.08-1.35.13-.45.15-.94.14-1.42-.12-4.44.02-8.88.1-13.32.07-4.08-.03-8.16-.05-12.24,0-2.88,0-5.76.02-8.65.02-2.64.07-5.28.08-7.92,0-.61,0-1.19.32-1.73.27-.46.17-.92-.07-1.36.26-1.19-.45-2.3-.29-3.49.11-.83-.05-1.73.21-2.49.3-.9-.28-1.62-.17-2.45.1-.83.02-1.68.03-2.52,0-.48-.02-.97.09-1.43.13-.58.46-1.09.46-1.72,0-2.15.04-4.3.06-6.45,0-.6.02-1.2-.02-1.79-.04-.59,0-1.25-.26-1.75-.31-.62.26-1.15-.05-1.71-.24-.44-.27-.91-.02-1.37.44-.8.27-1.63.15-2.46-.6-.72.17-1.66-.38-2.38-.02-.6-.06-1.2-.05-1.79,0-.96-.07-1.94.11-2.87.15-.73.06-1.38-.03-2.09-.14-1.07-.16-2.14.27-3.19.32-.77-.5-1.63.11-2.41.04-.72.1-1.44.11-2.16.02-3.72.01-7.44.02-11.16,0-.72,0-1.43-.32-2.12-.08-.18,0-.45.04-.67.41-2.38.24-4.78.16-7.17-.02-.58-.55-1.14-.32-1.73.78-1.99.37-4.05.39-6.06.08-6.12-.01-12.25,0-18.37.02-6.24.09-12.48.13-18.73.02-3.24,0-6.48,0-9.73,0-7.2.02-14.41.03-21.61,0-.24.01-.48.03-.72.04-.68.46-1.07,1.04-1.34.81-.38,1.56-.03,1.6.75.07,1.32.18,2.64.15,3.96-.07,2.52-.07,5.04.05,7.69Z"/><path class="cls-1" d="m158.6,251.86c-.04,9.9-.07,16.98-.12,24.06,0,.83.1,1.69-.29,2.48-.05.1-.08.23-.05.33.64,2.48.26,5.01.31,7.52,0,.49-.05.95-.3,1.39-.26.45-.23.9.01,1.36.36.67.39,1.39.12,2.09-.31.8-.43,1.61-.36,2.47.12,1.43-.17,2.88.3,4.28-.05.94-.26,1.86-.26,2.82,0,.88.52,1.6.51,2.45,0,.24.01.5-.09.71-.38.78-.45,1.58-.44,2.44.02,3.12-.07,6.24-.06,9.36,0,.9-.38,1.61-.79,2.34-.37.67-1.37.93-2.22.59-.46-.18-1.33-1.64-1.11-2.11.65-1.37.42-2.82.49-4.24.04-.83-.02-1.69-.22-2.49-.15-.62-.17-1.16.07-1.72.05-.11.02-.24.04-.36.17-.76-.48-1.36-.42-2.08.05-.69.58-1.31.19-2.07-.27-.52.3-1.15-.11-1.71.38-.79.2-1.59.07-2.4.5-.91.2-1.89.25-2.83.05-.84,0-1.68,0-2.52,0-.84.03-1.68,0-2.52-.02-.83.05-1.68-.24-2.5-.07-.2-.02-.47.06-.68.23-.57.23-1.14.23-1.75-.03-2.52.03-5.04.05-7.56.03-2.76.08-5.51.08-8.27,0-.6.47-1.13.28-1.72-.19-.58-.23-1.16-.23-1.77,0-3.36-.04-6.71-.05-10.07,0-1.56,0-3.12.03-4.68.01-.95.08-1.88.38-2.83.39-1.26.34-2.6-.12-3.89-.11-.32-.21-.74-.09-1.03.31-.81.37-1.63.37-2.47-.01-3.24.25-6.47.02-9.71-.09-1.29.51-2.38,1.31-3.25,1.29-1.4,2.52-2.91,4.21-3.9.21-.12.42-.26.56-.44.96-1.23,2.43-1.49,3.76-1.97.67-.25,1.42-.16,2,.42.17.17.38.3.56.45.21.18.41.13.66,0,.55-.29,1.2-.4,1.74-.12.77.4,1.69-.24,2.36.45,1.08.18,3.24.2,4.26-.21,1.29-.53,2.57-.44,3.89-.33.25.02.66.47.67.76.03.6.14,1.2.1,1.79-.26,3.36-.2,6.72-.17,10.08,0,1.08-.02,2.16-.02,3.24,0,.49-.13.94-.32,1.38-.14.32-.24.69-.23,1.03.07,1.3-.17,2.63.52,3.87.21.39.16.94.16,1.42,0,3.36-.03,6.72-.04,10.07,0,.72-.02,1.44-.28,2.13-.08.21-.16.49-.08.66.62,1.27.26,2.6.28,3.9.02,1.32.05,2.64.04,3.96,0,2.88-.09,5.75-.04,8.63.08,4.08-.1,8.15.11,12.23.03.6-.07,1.2-.37,1.74-.31.56-.36,1.18-.14,1.73.46,1.14.66,2.33.55,3.52-.25,2.76,0,5.52-.1,8.28-.03.97,0,1.9-.49,2.8-.13.24.07.69.19,1.01.09.24.14.44-.03.67-.37.52.32,1.05-.1,1.65-.54.77-.84,1.71-1.31,2.54-.16.27-.52.43-.79.64-.25-.25-.54-.48-.75-.76-.13-.18-.18-.44-.2-.66-.06-.6-.05-1.2-.38-1.74-.4-.64-.46-1.36-.46-2.08-.01-1.56,0-3.12.02-4.68,0-1.32.04-2.64.04-3.96-.01-4.44-.03-8.88-.06-13.32,0-.72.04-1.45-.3-2.12-.13-.24-.11-.44-.02-.68.51-1.29.34-2.57-.07-3.86-.14-.44-.19-.97-.09-1.41.14-.59.27-1.13,0-1.72-.08-.19-.05-.49.03-.69.6-1.4.49-2.78.05-4.2-.14-.44-.13-.95-.06-1.41.07-.47.22-.89.06-1.38-.31-.94-.24-1.88.12-2.82.13-.33.22-.7.23-1.05.03-1.68.03-3.36,0-5.04,0-.34-.19-.68-.26-1.03-.1-.46-.22-.93-.23-1.4-.03-2.52-.03-5.04-.05-7.56,0-.61.01-1.2.25-1.76.05-.11.11-.23.11-.34,0-.11-.03-.23-.08-.33-.34-.68-.3-1.41-.27-2.12.12-2.87-.24-5.75.15-8.62.03-.23.16-.47.11-.68-.54-2.25-.23-4.54-.29-6.81-.05-1.64-.24-1.99-1.76-1.97-2.4.04-4.79-.26-7.2-.03-.73.07-1.39-.17-2.03-.58-.92-.59-1.88-.24-2.73.17-.74.36-1.44.88-2.05,1.44-.9.82-1.55,1.83-1.61,3.11-.02.36,0,.72,0,1.08,0,7.44,0,14.88,0,19.51Z"/><path class="cls-1" d="m364.71,414.25c.09-1.85-.03-3.17.52-4.44.23-.52.23-1.17.23-1.76,0-.97.13-1.89.55-2.78.21-.45-.28-1.3-.8-1.45-1.5-.41-2.94-1.04-4.45-1.33-1.38-.26-2.83-.45-4.21.29-.62.33-1.37.4-2.05.61-.59.18-1.17.21-1.76,0-.9-.32-1.79-.77-2.72-.91-1.46-.22-2.38-.94-2.95-2.27-.25-.57-.81-.85-1.46-.87-.6-.02-1.2-.08-1.8-.05-1.49.07-2.8-.54-4.11-1.09-.3-.13-.52-.48-.75-.75-.19-.22.03-.84.29-.89.6-.12,1.21-.17,1.77.05.89.35,1.71.87,2.61,1.18.78.26,1.65.18,2.45.5.83.33.91.3,1.36-.53.52-.95,1.32-1.35,2.35-1.37.72-.01,1.44.05,2.16.07.49.02.95-.1,1.33-.44.36-.32.7-.66,1.07-.97.37-.3.8-.48,1.27-.64,1.25-.4,2.47-.88,3.69-1.34.81-.3,1.64-.32,2.48-.14.18.04.49.26.47.35-.04.21-.2.43-.37.59-.16.16-.38.36-.59.37-1.73.13-3.07,1.31-4.7,1.72-.68.18-1.2.77-1.28,1.59-.02.23-.11.45-.2.67-.11.24-.33.31-.59.35-.5.07-.97-.04-1.37-.3-.75-.5-1.58-.56-2.42-.43-.48.07-.9.32-1.09.82-.09.22-.2.44-.3.65-.22.49.2,1.36.69,1.38.47.02.95,0,1.42,0,.73,0,1.42.11,2.05.54.65.45,1.44.4,2.07.1.91-.44,1.81-.55,2.79-.47,1.08.09,2.16.1,3.23-.11.64-.13,1.17.07,1.7.38.1.06.23.17.32.15.8-.2,1.61-.39,2.38-.67.46-.17.76-.64.83-1.11.11-.73.38-1.34.84-1.94.8-1.04,1.32-2.26,2.12-3.31.29-.38.59-.74.88-1.12,1.53-.49,2.24-2.18,3.81-2.61.21-.06.39-.27.56-.44,1.21-1.22,2.62-2.06,4.34-2.36.19-.03.44-.28.49-.47.28-1.04.55-2.08.73-3.14.12-.7.05-1.4-.3-2.09-.77-1.51-1.08-3.15-1.19-4.83-.04-.72-.02-1.44.03-2.16.1-1.25-.22-2.39-.85-3.43-.45-.75-.73-1.49-.61-2.37.08-.6-.07-1.18-.31-1.75-.43-1.03-.32-2.11-.15-3.18.05-.33.38-.59.14-1-.8-1.36-1.02-2.92-1.44-4.41-.1-.36.02-.62.38-.88.49-.35.92-.37,1.31-.1.71.49,1.29,1.11,1.47,1.97.17.82.4,1.62.61,2.42.21.8.14,1.67.17,2.5.04,1.07-.15,2.17.5,3.15.08.83.14,1.67.25,2.49.03.21.19.48.37.58.73.41,1.46.85,2.33.86,1.1.02,2.1.39,3.14.67,1.37.37,2.71,1.01,4.19.81,1.61.44,3.27.66,4.83,1.29,1,.4,2.01.77,3.01,1.15.67.25,1.36.45,2,.76.64.31,1.23.73,1.84,1.12.9.58,1.59,1.46,2.65,1.81,1.82,1.34,2.78,3.26,3.55,5.29.12.33.15.71.16,1.06.02.48-.02.96-.02,1.44-.01.95.27,1.97-.16,2.84-.53,1.06-1.2,2.07-1.92,3.02-.58.76-1.31,1.4-2.01,2.05-.25.23-.61.42-.94.47-.73.11-1.36.44-2,.76-1.18.59-2.39,1.07-3.64,1.5-2.26.77-4.5,1.57-6.71,2.47-1.01.41-2.13.26-3.1.87-.9.57-2.01.75-2.99,1.18-.69.3-1.33.45-2.07.39-.35-.03-.76.16-.86.52-.39,1.37-1.12,2.66-1.04,4.15-.63,1.97-.6,4.01-.56,6.04.02,1.08-.02,2.16-.05,3.24-.04,1.49-.57,2.8-1.49,3.96-.44.56-.85,1.16-1.34,1.68-.23.25-.58.47-.9.53-2.67.52-5.24.07-7.74-.9-1.25-.48-2.22-1.4-3.27-2.18-.17-.12-.26-.4-.31-.62-.08-.35-.03-.74-.16-1.06-.62-1.47-.77-3-.68-4.02Zm8.8,6.75c-.21,0,.16.06.5-.02.34-.07.72-.19.95-.42.6-.58,1.14-1.23,1.69-1.87.15-.18.28-.42.3-.64.1-.95.28-1.87.63-2.77.21-.53-.5-1.1-.11-1.7-.15-.8-.38-1.56.03-2.4.25-.51.21-1.17.25-1.76.07-1.08.37-2.1.67-3.14.29-1.03.85-1.99.83-3.11-.01-.73.24-1.39.54-2.06.65-1.42,1.37-2.79,2.1-4.17.57-1.07,1.48-1.49,2.43-1.93.3-.14.71-.08,1.06-.04.22.03.5.14.61.3.09.13.06.48-.05.61-.96,1.1-1.57,2.4-2.19,3.7-.04.07-.01.21.04.28.15.21.38.23.65.2.87-.08,1.54-.65,2.33-.91.9-.31,1.8-.61,2.71-.91,1.81-.61,3.61-1.25,5.41-1.87,1.92-.66,3.79-1.46,5.73-2.06,1.5-.47,2.8-1.29,3.9-2.47,1.5-1.6,1.97-3.52,1.95-5.61-.01-1.09-.65-2.04-.92-3.08-.06-.22-.25-.41-.4-.59-1.61-2-3.68-3.46-5.99-4.48-1.85-.82-3.73-1.61-5.69-2.17-1.37-.39-2.76-.75-4.18-.95-1.07-.15-2.14-.16-3.17-.59-.98-.41-2.17-.14-3.08-.87-.07-.06-.25-.03-.35.02-.2.09-.51.18-.56.34-.4,1.13.03,2.4-.55,3.52-.04.08.04.23.09.34.35.8.23,1.66.31,2.49.06.64.4,1.1.85,1.53.62.6,1.26,1.03,2.19,1.05,1.43.04,2.89,0,4.23.66,1.79.23,3.56.5,5.29-.37.63-.32,1.35-.51,2.06-.61.73-.11,1.35.31,1.89.77.06.05.02.23,0,.35-.03.38-.23.71-.52.89-1.31.82-2.85,1.24-4.01,2.33-.16.15-.44.22-.67.22-1-.02-1.84.49-2.75.77-1.48.46-2.97.95-4.56.89-.47-.02-.98,0-1.42.16-1.46.53-2.92,1.01-4.43,1.41-1.26.33-2.41,1.05-3.45,1.89-.74.6-1.52,1.16-2.3,1.73-1.96,1.44-3.59,3.19-4.07,5.72-.02.11-.09.22-.15.33-.33.57-.32,1.14,0,1.7.13.23.1.43-.02.68-.73,1.54-1.14,3.16-1.12,4.86.01,1.22-.68,2.29-.66,3.52.01.58-.25,1.16-.38,1.75-.36,1.54-.52,3.06.09,4.59.17.44.2.93.27,1.41.15.9.63,1.49,1.46,1.89.99.48,2,.78,3.68.71Z"/><path class="cls-1" d="m227.97,108.87c-5.04,0-10.08,0-15.12,0-5.52,0-11.04-.01-16.56-.02-7.08,0-14.16,0-21.24-.02-3,0-6-.09-9-.07-1.36,0-2.6-.24-3.78-.93-.4-.23-.89-.34-1.35-.43-.39-.08-.67-.29-.84-.6-.25-.47-.64-.66-1.12-.78-1.4-.35-2.3-1.25-2.58-2.67-.15-.75-.66-.89-1.27-1.01-.22-.04-.5-.16-.59-.33-.54-.92-1.05-1.86-1.53-2.82-.09-.19-.11-.51-.01-.69,1.02-1.81,1.12-3.88,1.73-5.8.04-.11.1-.23.11-.34.08-2.5.5-5.02-.26-7.5-.11-.35-.19-.72-.02-1.05.38-.7-.35-1.37-.03-2.07.62-1.36.49-2.81.49-4.25,0-1.32.03-2.64.09-3.95.02-.49.31-.91.7-1.21.38-.29.78-.55,1.18-.81.25-.16.78-.04.96.24.19.3.39.61.48.95.09.34.05.72.05,1.08.01,2.04.02,4.08.03,6.12,0,.84-.01,1.66-.33,2.48-.32.8-.26,1.65,0,2.47.19.58.3,1.15.3,1.76-.01,2.04-.03,4.08,0,6.12.02.87-.1,1.72-.62,2.39-.8,1.04-.8,2.22-.82,3.41-.02,1.25.41,2.27,1.3,3.22,1.78,1.89,3.95,3.09,6.34,3.95.42.15.99.19,1.39.03.81-.32,1.61-.41,2.46-.39,1.32.03,2.64.02,3.96.04,1.31.02,2.65-.19,3.89.43,2.02-.03,4.06.49,6.06-.19.24-.08.43-.07.68.04.91.39,1.89.25,2.84.26,3.6.02,7.2-.1,10.79.02,2.4.08,4.79-.02,7.18-.02,2.28,0,4.56.01,6.84.07.83.02,1.68-.08,2.49.24.21.08.48.19.66.13,2-.67,4.04-.28,6.07-.3,3-.04,6-.07,9-.01,1.42.03,2.89-.23,4.26.44.19.09.5.06.69-.04.78-.4,1.61-.4,2.46-.39,2.28.04,4.56.05,6.83.03.73,0,1.42.06,2.11.31.44.16.94.21,1.41.19.58-.03,1.16-.27,1.74-.26.59,0,1.17.28,1.76.3,1.31.06,2.62.04,3.9-.4.42-.15.96-.1,1.4.02.48.13.9.22,1.37.01.2-.09.5-.13.7-.05,1.51.61,3.05.49,4.59.22.35-.06.66-.18,1.02-.02.67.3,1.4.29,2.12.28.96-.01,1.92-.03,2.88-.03,7.44.03,14.87.07,22.31.1.48,0,.96.05,1.44.07.24.01.63.44.7.74.1.45-.24,1.06-.65,1.12-.59.08-1.19.19-1.78.2-3.12.02-6.24,0-9.36,0-10.32,0-20.64,0-30.96,0-7.32,0-14.64,0-21.96,0v-.08Z"/><path class="cls-1" d="m184.6,437.54c-.91,0-1.51.04-2.1-.01-.47-.04-.95-.12-1.39-.29-.45-.17-.87-.36-1.37-.34-.97.04-1.89-.07-2.78-.55-.4-.21-.92-.19-1.39-.26-.82-.13-1.66.03-2.48-.28-1.33-.51-2.82-.54-4.08-1.3-.31-.18-.64-.42-.97-.45-2.23-.19-4.02-1.47-5.99-2.33-.99-.43-1.92-.98-2.86-1.5-.42-.23-.86-.48-1.17-.83-1.05-1.18-2.41-1.97-3.68-2.83-2.23-1.5-4.03-3.37-5.53-5.56-.27-.39-.57-.78-.77-1.2-.09-.18-.03-.48.06-.68.15-.32.37-.61.59-.9.3-.39.7-.75,1.18-.75,1.82.01,3.49-.84,5.31-.82.62,0,1.13-.37,1.69-.58.45-.17,1.04.04,1.24.44.27.53.48,1.09.78,1.61.17.29.18.47-.15.56-1.26.33-2.45.96-3.82.84-.88-.08-1.6.43-2.34.82-.28.15-.33.35-.1.59.83.86,1.69,1.68,2.51,2.56.74.79,1.42,1.61,2.48,2.02.32.12.6.4.84.66.66.72,1.46,1.22,2.29,1.7.62.35,1.15.86,1.7,1.32.5.41,1.15.29,1.68.52.66.28,1.26.65,1.99.79.57.11,1.03.55,1.65.66.82.14,1.61.45,2.42.59.72.13,1.38.35,2.06.61.44.17.95.26,1.41.21.86-.1,1.66.01,2.46.32,1,.38,2.01.79,3.05,1.01.93.19,1.91.14,2.86.21.35.03.71.11,1.06.17.23.04.49.2.67.13,1.74-.67,3.57-.23,5.34-.47.48-.07.91-.26,1.36-.36,2.56-.57,5.06-1.33,7.53-2.21.28-.1.63.25,1,.11,1.1-.42,2.04-1.24,3.32-1.25,1.19,0,2.26-.81,3.51-.58.22.04.49-.03.7-.13,1.46-.7,3.02-.68,4.58-.68.84,0,1.67,0,2.49-.26.2-.07.46-.01.68.03,1.42.27,2.85.3,4.28.39.23.01.47-.07.7-.11.33-.05.7-.49.6-.76-.3-.9-.61-1.8-.91-2.7-.11-.34-.21-.68-.31-1.03-.16-.6.08-1.16.66-1.53.78-.5,1.75-.16,2.04.7.08.23.22.46.2.68-.08,1,.34,1.87.69,2.76.13.33.35.63.47.97.42,1.25.05,2.34-.69,3.35-.07.09-.16.18-.26.24-.27.17-2.49.84-2.7.75-2.32-.94-4.75-.2-7.11-.51-.47-.06-.98-.03-1.43.1-.58.16-1.12.4-1.71.1-.59.49-1.32.49-2.02.65-.35.08-.66.32-1,.39-.94.19-1.89.28-2.82.5-.92.22-1.81.55-2.71.84-.68-.31-1.05.04-1.37.6-.08.15-.45.24-.64.2-.58-.13-1.02-.21-1.61.22-1.28.93-2.81,1.34-4.37,1.39-1.2.04-2.37.12-3.54.46-1.39.41-2.84.39-3.97.29Z"/><path class="cls-1" d="m140.67,379.01c0-6.16,0-10.71,0-15.26,0-.73.19-1.39.42-2.08.31-.93.98-1.27,1.78-1.56.25-.09.52-.05.55.24.12,1.19.6,2.32.67,3.5.1,1.79.13,3.59.08,5.39-.09,2.75-.11,5.5-.04,8.26.03,1.43.1,2.87-.42,4.26-.12.32-.16.74-.06,1.06.68,2.1.43,4.26.46,6.41.02,1.22-.64,2.01-1.5,2.71-.41.34-.88.36-1.35.23-.2-.06-.41-.24-.52-.42-.11-.19-.15-.45-.15-.68,0-1.2,0-2.39.01-3.59.03-3.35.06-6.71.08-8.45Z"/><path class="cls-1" d="m323.85,335.72c-.17,0-.31.04-.41,0-.54-.24-1.09-.46-1.6-.76-.17-.1-.3-.38-.33-.59-.21-1.52.32-2.51,1.7-3.18.2-.1.49-.14.69-.07.45.15.87.38,1.3.6.45.23.66.74.55,1.2-.19.83-.55,1.58-1.06,2.24-.2.26-.58.4-.84.57Z"/><path class="cls-1" d="m258.77,214.82c-.36,0-.72.02-1.07,0-.23-.02-.5-.05-.68-.17-1-.68-1.89-1.47-2.42-2.58-.1-.21-.1-.47-.14-.7-.14-.69.2-1.53-.38-2.05-.52-.46-1.23-.69-1.87-1.02-.21-.11-.43-.22-.66-.29-2.08-.63-3-2.25-3.43-4.18-.17-.78-.5-1.37-1.16-1.69-.88-.43-1.6-1.01-2.25-1.73-.57-.64-1.03-1.29-1.16-2.17-.07-.46-.35-.89-.44-1.35-.07-.34-.05-.73.06-1.06.52-1.49,1.43-2.75,2.47-3.89.47-.52,1.14-.86,1.72-1.28.44-.31.91-.28,1.33,0,.24.16.4.19.64.08.76-.35,1.51-.74,2.3-.98.81-.24,1.64-.23,2.38.37.55.45,1.19.79,1.75,1.24.37.3.67.71.73,1.2.12.95.16,1.91.28,2.85.03.21.19.47.37.57.64.33,1.33.54,1.95.89.82.47,1.72.86,2.34,1.63.29.37.69.73.8,1.16.26,1.03.84,1.99.76,3.11-.03.49.18.91.63,1.2.5.32.98.68,1.43,1.06.57.47.96,1.04,1.05,1.81.04.35.23.68.32,1.02.06.23.14.5.07.7-.55,1.57-1.07,3.18-2.54,4.2-.69.48-1.4.92-2.12,1.33-1.32.75-1.56.79-3.07.72Zm-3.77-20.24c-.22-.82-.42-1.62-.65-2.41-.12-.43-1.05-1.03-1.42-.92-.91.26-1.83.44-2.78.56-.79.11-1.55.53-1.99,1.29-.05.09-.05.27,0,.35.37.55,1.05.46,1.56.71,1.01.5,1.79,1.18,1.82,2.43,0,.36.06.71.12,1.07.07.44.79.7,1.13.44.98-.74,1.67-1.69,2.04-2.85.07-.22.11-.45.16-.66Zm2.51,3.72c-.74-.02-1.42.14-1.98.64-.27.24-.53.48-.78.73-.37.36-.32,1.07.13,1.17,1.34.27,1.98,1.18,2.37,2.36.11.34.16.69.26,1.03.13.41.84.46,1.2.12.82-.76,1.19-1.75,1.42-2.8.05-.22.02-.48-.06-.7-.15-.45-.34-.89-.55-1.31-.4-.84-1.12-1.18-2.01-1.24Zm6.96,9.54c0-.5-.43-1.23-.86-1.5-.86-.53-1.72-.52-2.71-.3-1.27.28-2.14.98-2.82,2.01-.05.08,0,.24.03.35.08.27.27.38.5.29,1.28-.5,2.33-.14,3.24.82.25.26.5.51.76.76.23.21.79.12.94-.16.29-.52.59-1.04.84-1.58.09-.2.05-.47.07-.71Z"/><path class="cls-1" d="m301.84,369.89c.94-.08,1.67.27,2.27.92.25.26.51.51.76.76.96.98.99,2.18.63,3.36-.43,1.39-1.29,2.56-2.32,3.59-.21.21-.17.39-.06.65.33.78.74,1.51,1.3,2.14.21.23.22.46,0,.58-.2.11-.44.21-.66.21-.23,0-.51-.06-.67-.2-.64-.54-1.26-1.1-1.86-1.68-.56-.54-.69-1.25-.6-1.99.04-.35.12-.72.3-1.01.25-.4.57-.78.92-1.1.72-.68,1.04-1.6,1.53-2.42.12-.19.11-.46.15-.69.07-.41-.39-.95-.82-1-.65-.08-1.21.08-1.61.58-.66.86-1.28,1.75-1.34,2.88-.04.73-.38,1.4-.45,2.09-.1.97-.89,1.71-.75,2.72.54.64,1.1,1.26,1.61,1.92.21.28.36.63.44.97.05.2-.07.46-.17.66-.11.24-.32.22-.59.07-.62-.36-1.29-.63-1.82-1.15-.43-.42-.9-.8-1.33-1.21-1.08-1.03-1.21-1.57-.5-2.81.53-.93,1-1.93.94-3.06.49-1.22.57-2.56,1.24-3.72.31-.53.65-1,1.12-1.39.47-.39.99-.67,1.63-.66.24,0,.48,0,.69,0Z"/><path class="cls-1" d="m309.31,363.91c0,.87-.02,1.11,0,1.34.13,1.22-.47,2.03-1.45,2.62-.18.11-.45.2-.63.15-2.33-.66-2.83-1.61-2.04-3.92.15-.45.38-.86.39-1.34.01-.99.54-1.79.9-2.66.1-.23.74-.39.92-.27.89.66,1.36,1.65,1.77,2.61.26.61.14,1.39.14,1.47Z"/><path class="cls-1" d="m305.67,346.54c-.11-.02-.26-.01-.33-.08-.53-.49-.88-1.09-.98-1.81-.06-.42.5-1.22.97-1.38.1-.03.24-.02.35.02,1.33.41,1.88,2.02.64,3.03-.16.13-.43.15-.64.21Z"/><path class="cls-1" d="m353.92,338.88c.06,1.02-.49,1.8-1.08,2.5-.39.46-1.02.48-1.62.29-.43-.13-.83-.56-.88-.99-.08-.72-.01-1.41.47-1.98.3-.35.63-.69,1-.97.39-.29.86-.31,1.34-.22.37.07.66.32.7.66.03.23.04.46.06.69Z"/><path class="cls-1" d="m328.71,380.86c-.03.26,0,.77-.17,1.21-.64,1.79-1.05,3.67-1.84,5.41-.1.22-.18.44-.28.66-.09.2-.63.41-.96.37-.52-.05-1.02-.45-1.03-.84-.01-.59-.11-1.22.04-1.78.53-1.95.92-3.93,1.63-5.83.04-.11.14-.2.19-.3.26-.48.92-.67,1.56-.54.45.09.78.66.82,1.06.01.12.01.24.03.57Z"/></g></g></svg>